<?xml version="1.0" encoding="utf-8"?>
<!-- Generator: Adobe Illustrator 24.1.0, SVG Export Plug-In . SVG Version: 6.00 Build 0)  -->
<svg version="1.1" id="map" xmlns="http://www.w3.org/2000/svg" xmlns:xlink="http://www.w3.org/1999/xlink" x="0px" y="0px"
	 viewBox="0 -250 1284.7 1934.1" style="enable-background:new 0 0 1284.7 1734.1;" xml:space="preserve">
<path class="st0" d="M794.4,1567.1"/>
<polyline class="st1" points="717.6,1513.3 725.6,1498.6 739.9,1502.1 762.2,1501.5 761.5,1477.1 773.9,1467.2 778.9,1448.2 
	790,1450.7 793.7,1440.8 805.5,1445.1 812.3,1441.4 803.6,1429.3 787.1,1416.9 776.1,1412.8 771.3,1402.8 791.9,1395 797.9,1397.9 
	811.9,1398.7 819.1,1396.9 808.6,1390.7 810.5,1383.8 816,1383.8 829,1383.8 829,1399.3 834,1399.3 840.8,1402.4 848.2,1391.3 
	851.3,1388.8 857.5,1383.8 863.7,1383.8 893.6,1387.6 893.6,1395.6 885.4,1398.7 886.6,1402.4 899.6,1404.9 902.7,1414.2 
	902.7,1419.8 905.8,1423.5 920.7,1423.5 929,1423.5 933.7,1417.3 936.8,1430.9 944.8,1436.5 948.5,1447 945.4,1451.3 951.4,1455.1 
	942.3,1469.3 936.1,1464.3 931.8,1469.3 932.4,1481.7 937.4,1486 939.2,1495.9 941.1,1502.7 951.4,1502.7 959.7,1507.7 
	962.8,1516.4 973.9,1520.7 973.9,1530.6 967.1,1539.9 970.8,1549.2 980.1,1558.5 977.6,1571.5 980.1,1576.4 973.3,1586.3 
	964,1594.4 958.4,1594.4 957.2,1588.2 951.4,1589.4 946.1,1588.2 947.3,1598.1 943,1608 "/>
<path class="st1" d="M975.8,1642.7l4.3-11.8c0,0,4.3-9.9,4.3-11.8c0-1.9,1.9-6.8,1.9-6.8l10.5-6.8l8-0.6l11.8,5.6l6.2,17.3
	l-0.6,14.9l8.7,6.8l10.5-1.2l7.4,0.6l15.5,9.3l8.7,5l15.5,5.2l13,6l-2.5,12.4h6.8h11.1l13-8.7l11.1-9.7l7.4-8.9l14.2,4.3l1.9-5
	l3.7-7.4l-3.7-5.6l3.7-12.4l-8-8.5l7.4-12h-9.9l-4.3-10.5l9.9-3.1l1.2-3.7l-2.5-14.9l-6.2-8.7l-5.6-11.8h-5.6l-5.6-6.8l-5.6-3.7
	v-9.9l-0.6-8l9.3-2.5l6.2-3.1l1.9-7.4h6.8l1.2-8l13.6-12.2l1.2,6.6h6.8v-6.6h6.2v-3.3v-4.3l-16.1-8l-22.9-7.4l-3.1-5.6l6.8-3.7
	l3.1-7.4l6.2-5.6l1.2-6.2l4.3-8.7l-5-3.1l-16.1-2.5h-11.1l-3.1-9.3h-8.7l-3.1,8.7l-3.7-4.3l-14.9,0.6v-3.4v-6.5l-4.3-1.9l-6.8,8.4
	l-6.8-1.5l3.1-6.8v-9.3l-8-4.3v8l-3.1,9.9l-18,2.5l-5-8l-11.1-12.4l-6.2,4.3h-8.7l8.7,5.6v8l-13,13.6l-16.1,6.2v-12.4h-4.3
	l-3.1,13.6h-37.2l-11.8,5"/>
<path class="st0" d="M985.1,1775.2l2.5,3.7l8.7,5.6l13-5l24.1,3.1l4.3-3.1l5-8.7l13,0.6l11.8,14.9l18,11.8l8,2.5l8-2.5h15.5
	l17.3-7.4h14.2l24.1-3.1v-7.4l9.9-0.6l6.2-8c0,0,11.8-5,13.6-4.3s10.8,1.9,10.8,1.9l3.4,9.3h15.5l8,3.7l15.5-1.2l7.4,6.8h6.8l8-4.3
	v-8l-3.7-11.8l-11.8-2.5l-9.9-8l-4.3-6.8l0.6-8l8.7-13h-8l-2.5-6.2h-14.9l-3.7-4.3l-11.1-2.9l-10.5-6.4l4.3-5l5.6-5.6l-6.8-13.6
	l5.6-3.7l5.6-9.1l-26-13.2l-5.6,6.5h-8l-18.6,2.2l-14.2-4.3l-7.4,8.9l-24.1,18.4h-18l2.5-12.4l-28.5-11.1l-24.1-14.2l-18,0.6
	l-8.7-6.8l0.6-14.9l-6.2-17.3l-11.8-5.6l-8,0.6l-10.5,6.8l-1.9,6.8l-6.9,18.8"/>
<polyline class="st1" points="1293.4,1586.9 1287.2,1579.3 1273,1579.3 1264.3,1579.3 1255,1579.3 1250.1,1582.6 1244.5,1589.4 
	1240.2,1604.9 1237.1,1609.2 1235.8,1624.9 1227.2,1624.9 1224.7,1642.7 1214.8,1642.7 1211.1,1648.9 1214.7,1665.1 1195,1655 
	1189.4,1661.5 1162.8,1663.7 1168.3,1651.3 1164.6,1645.8 1168.3,1633.4 1160.3,1624.9 1167.7,1612.9 1157.8,1612.9 1153.5,1602.4 
	1163.4,1599.3 1164.6,1595.6 1162.1,1580.7 1156,1572.1 1150.4,1560.3 1144.8,1560.3 1139.2,1553.5 1133.7,1549.8 1133,1531.8 
	1148.5,1526.3 1150.4,1518.8 1157.2,1518.8 1158.4,1510.8 1172,1498.6 1173.3,1505.2 1180.1,1505.2 1180.1,1498.6 1186.3,1498.6 
	1213.5,1493.4 1232.1,1498.6 1244.5,1501.5 "/>
<path class="st0" d="M1374.5,1711.6l-3.1,14l-9.9,14.9l-9.3,3.7l-5,9.9v9.3l-14.9,5l-14.2-4.3c0,0-7.4-0.6-8-2.5
	c-0.6-1.9-9.3-16.7-9.3-16.7l-7.4-1.2l-15.5-14.9h-13l-7.4-3.7h-8l-2.5-6.2h-14.9l-3.7-4.3l-11.1-2.9l-10.5-6.4l9.9-10.5l-6.8-13.6
	l5.6-3.7l5.6-9.1l-6.3-3.2l-3.7-16.2l3.7-6.2h9.9l2.5-17.7h8.7l1-12.6l3.3-7.5l4.3-15.5l10.5-10.2h18h14.2"/>
<polyline class="st1" points="1336.1,1364 1329.9,1356 1322.5,1356 1318.8,1348.3 1327.5,1344.2 1332.4,1348.3 1339.2,1348.3 
	1339.2,1341.1 1312.6,1299.6 1303.3,1299.6 1283.5,1273 1272.4,1276.7 1258.7,1273 1252.5,1273 1252.5,1284.2 1241.4,1277.4 
	1232.7,1260 1235.2,1253.8 1222.8,1240.2 1213.2,1240.2 1206.7,1244.5 1200.5,1242.7 1200.5,1219.8 1186.3,1205.5 1175.1,1205.5 
	1165.9,1217.3 1155.3,1227.8 1144.8,1229.7 1144.8,1234 1157.2,1234 1164.6,1240.8 1178.9,1245.2 1190.6,1259.4 1192.5,1273 
	1186.3,1284.8 1186.3,1289.7 1177.6,1292.2 1175.8,1298.4 1170.8,1302.7 1165.2,1308.9 1169.6,1320.7 1174.5,1325 1176.4,1329.4 
	1175.8,1334.9 1164.6,1334.9 1164,1324.4 1159,1320.7 1155.3,1299 1144.8,1303.4 1144.8,1308.9 1138,1313.3 1133,1308.3 
	1123.1,1313.9 1123.1,1320.7 1110.8,1318.8 1102.1,1323.2 1102.1,1334.9 1102.1,1359.7 1090.9,1376.4 1082.3,1383.8 1085.4,1390.7 
	1087.8,1403 1085.4,1412.3 1082.3,1423.5 1089.1,1425 1095.9,1416.7 1100.2,1418.5 1100.2,1428.4 1115.1,1427.8 1118.8,1432.1 
	1124.4,1423.5 1130.6,1423.5 1133.7,1432.8 1144.8,1432.8 1160.9,1435.2 1165.9,1438.3 1161.5,1447 1160.3,1453.2 1154.1,1458.8 
	1151,1466.2 1144.2,1469.9 1147.3,1475.5 1170.2,1482.9 1186.3,1491 1186.3,1498.6 1213.5,1493.4 1248.2,1502.7 "/>
<polyline class="st1" points="1200.5,1219.8 1210.7,1191.3 1219.7,1182.6 1219.7,1168.4 1206.1,1156.6 1206.1,1132.5 1210.1,1123.2 
	1219.7,1118.2 1222.8,1110.2 1222.8,1095.3 1227.2,1086.6 1218.5,1082.3 1213.8,1076.7 1200.5,1076.7 1196.2,1070.5 1189.4,1065 
	1181.3,1065 1181.3,1071.2 1172,1075.5 1164.6,1078.6 1160.9,1071.2 1149.8,1065 1139.9,1074.3 1145.4,1081.7 1122.5,1078 
	1122.5,1073 1122.5,1065 1114.5,1046.4 1106.4,1042.7 1099.6,1042.7 1091.6,1042.7 1077.9,1042.7 1067.4,1039.6 1062.5,1047.6 
	1053.8,1044.5 1044.5,1050.1 1029,1057.5 1009.8,1045.8 1002.4,1043.9 993.1,1048.3 983.8,1051.4 980.1,1055.1 963.4,1050.7 
	957.2,1058.8 957.2,1063.7 948.5,1069.3 941.1,1073.6 941.1,1078 929.1,1079.8 934.3,1084.8 940.5,1092.8 948.5,1097.2 944.8,1099 
	948.5,1113.9 944.2,1123.2 946.1,1129.7 954.7,1142.4 968.3,1147.3 980.1,1159.7 980.1,1166.5 977,1188.8 980.1,1191.9 
	980.1,1200.6 983.8,1205.5 993.1,1203.1 991.9,1211.7 1000.5,1213.6 1001.8,1219.8 1009.2,1217.3 1012.3,1227.8 1010.4,1236.5 
	1011.7,1242.1 1004.9,1247.6 992.5,1252 985.7,1257.5 986.9,1265.6 980.1,1268.7 984.4,1274.9 980.1,1282.3 983.8,1286 1007.4,1286 
	1022.8,1308.9 1027.8,1317 1028.4,1323.2 1031.5,1323.2 1037.7,1319.5 1042,1319.5 1042.6,1326.9 1051.9,1326.9 1059.4,1323.2 
	1072.4,1323.8 1074.8,1333.1 1082.3,1333.1 1082.3,1327.5 1089.1,1326.9 1090.3,1315.1 1096.5,1315.7 1096.5,1321.3 1102.1,1323.2 
	1110.8,1318.8 1123.1,1320.7 1123.1,1313.9 1133,1308.3 1138,1313.3 1144.8,1308.9 1144.8,1303.4 1155.3,1299 "/>
<polyline class="st1" points="941.7,1125.7 938,1130 941.7,1134.3 939.9,1139.9 929.1,1147.3 929.1,1156 922.5,1161.6 911.4,1165.3 
	907,1167.8 907,1173.9 886,1173.9 881.7,1178.3 881.7,1186.3 888.5,1194.4 884.8,1200 877.9,1211.1 872.4,1214.8 861.2,1214.8 
	863.7,1224.1 870.5,1229.7 881,1225.3 879.8,1232.8 869.3,1237.1 865.6,1250.1 871.8,1254.4 873,1262.5 877.3,1271.2 874.2,1288.5 
	871.8,1299.6 876.1,1305.2 871.8,1308.9 854.4,1308.9 838.3,1305.8 827.2,1304.6 823.5,1308.9 817.3,1319.5 808.6,1323.8 
	799.3,1323.8 799.3,1333.1 796.8,1339.3 794.4,1344.2 794.4,1348.3 799.9,1348.3 794.4,1354.1 794.4,1362.6 "/>
<polyline class="st1" points="886,1173.9 879.2,1172.7 868,1177 858.7,1172.7 858.7,1165.9 848.2,1161.6 841.4,1163.4 838.3,1157.9 
	820.4,1157.2 817.9,1152.9 813.5,1146.7 801.2,1146.1 794.4,1138.7 785.7,1149.2 781.4,1167.1 778.3,1182.6 778.3,1196.9 
	778.3,1205.5 782,1209.9 782,1222.9 790,1226 794.4,1237.1 797.5,1244.1 794.4,1247.6 794.4,1260 802.4,1263.1 805.5,1272.4 
	812.9,1275.5 812.9,1282.3 821,1282.3 824.7,1292.8 835.2,1297.8 838.3,1305.8 "/>
<polyline class="st1" points="778.3,1201.4 769.8,1205.5 762.4,1203.5 758.2,1211.3 753.3,1211.3 745.9,1222.2 740.9,1232.8 
	735.1,1232.8 721.9,1236.9 721.9,1259.2 728.1,1278.2 721.9,1292.2 717.6,1292.2 710.4,1296.3 710.4,1305.8 717.6,1318.6 
	728.1,1328.5 733.5,1323.6 740.1,1336.8 744.3,1336.8 744.3,1348.3 728.1,1348.3 728.1,1357.4 735.1,1368.2 740.1,1368.2 
	740.1,1373.1 735.1,1373.1 736.4,1379 "/>
<polyline class="st1" points="474.9,1383.8 487.2,1375.2 500.9,1375.2 507.1,1375.2 524.4,1375.2 521.3,1370.2 528.7,1362.6 
	525,1354.1 536.2,1348.3 530,1328.1 536.2,1328.1 536.2,1322.6 543.6,1322.6 552.3,1322.6 559.7,1318.2 559.7,1326.3 564,1329.4 
	577.6,1328.1 582,1333.1 591.3,1328.7 594.4,1343.6 601.2,1342.4 601.2,1354.1 604.3,1365.3 612.9,1370.8 616,1379 608,1388.2 
	611.7,1391.9 612.3,1403 619.7,1403 627.2,1410.5 627.2,1421.4 615.2,1431.5 608,1431.5 608,1439.2 601.2,1446.4 591.3,1438.3 
	577.6,1435.2 560.3,1423.5 554.1,1426 551,1435.9 551,1439 "/>
<polyline class="st1" points="591.3,1328.7 608,1325.6 627.2,1325.6 627.2,1310.8 624.1,1302.1 627.2,1295.9 624.7,1290.2 
	627.2,1281.1 637.7,1284.2 647,1281.1 659.4,1285.4 667.4,1284.2 676.1,1286.6 681,1286.6 686,1295.3 686,1305.8 695.3,1308.9 
	707.1,1309.5 710.4,1305.8 710.4,1296.3 717.6,1292.2 721.9,1292.2 728.1,1278.2 721.9,1259.2 721.9,1248.9 710.4,1248.9 
	705.2,1244.1 694,1238.3 684.8,1227.8 683.5,1222.2 670.5,1222.2 659.7,1218.5 647.6,1208.6 637.1,1205.5 624.1,1205.5 608,1213.6 
	601.2,1222.2 603,1234.6 596.8,1235.9 583.8,1225.3 575.8,1229.1 569.6,1227.8 566.5,1234 570.8,1238.3 562.2,1244.1 559.1,1251.3 
	559.1,1261.9 559.1,1270.5 559.1,1274.9 551,1274.9 544.8,1278.6 541.7,1274.3 541.7,1280.4 530,1286 533.1,1294.7 534.3,1305.8 
	530,1312 530,1318.2 536.2,1322.6 552.3,1322.6 559.7,1318.2 559.7,1326.3 564,1329.4 577.6,1328.1 "/>
<polyline class="st1" points="433.4,1383.8 429,1369 429,1362.6 424.1,1357.8 428.7,1357.8 436.5,1354.1 436.5,1343.6 430.3,1340.5 
	436.5,1333.1 436.5,1320.7 439.6,1318.2 443.3,1303.4 440.2,1297.8 433.7,1283.5 433.7,1279.8 436.5,1277.4 437.1,1267.4 
	445.8,1270.5 456.9,1267.4 456.9,1277.4 460,1276.7 460,1271.8 470.5,1273.6 474.9,1275.5 469.9,1284.2 474.9,1290.2 474.9,1292.8 
	472.4,1299.6 483.5,1299.6 487.9,1302.7 492.8,1300.9 503.3,1300.9 510.8,1301.5 514.5,1294.1 521.3,1290.2 518.2,1287.3 
	526.3,1286.6 530,1286 "/>
<polyline class="st1" points="637.1,1205.5 637.1,1195.6 642,1195.6 650.1,1192.5 655.7,1181.4 659.4,1175.8 659.4,1169.6 
	648.2,1169.6 648.2,1161.6 645.1,1156 634,1151.7 634,1147.9 629,1147.9 634.6,1138.7 634.6,1130.6 644.2,1125.7 653.8,1121.9 
	659.4,1117.6 663.7,1117.6 670.5,1117.6 679.8,1113.9 692.8,1110.8 702.1,1121.3 707.7,1120.1 715.1,1125.7 724.4,1123.2 
	728.1,1118.8 741.7,1115.7 756,1110.8 759.1,1117.6 762.8,1120.1 762.8,1138.7 771.4,1138.7 778.3,1147.9 785.7,1149.2 
	781.4,1167.1 778.3,1186.3 "/>
<polyline class="st1" points="794.4,1138.7 794.4,1131.2 800.5,1125.7 794.4,1118.2 785.7,1107.7 790,1102.7 785.7,1097.2 
	794.4,1081.7 794.4,1068.1 785.7,1065 778.3,1058.8 782.6,1052.6 785.7,1047 794.4,1043.9 794.4,1027.8 789.4,1022.3 789.4,1017.3 
	800.5,1017.3 800.5,1000.6 800.5,995.6 812.9,987 821.6,987 821.6,980.8 832.1,967.8 837.1,960.3 826.6,954.8 822.2,954.8 
	822.8,944.9 827.2,933.1 847,938 868,941.8 868,949.2 879.2,955.4 882.9,964.1 896.5,969.6 902.1,975.8 895.9,991.3 899,999.3 
	912,999.3 912,1006.8 918.2,1013 929.1,1007.4 932.4,1004.9 941.7,1004.3 949.1,1011.1 953.5,1013.6 953.5,1008.6 960.9,1012.3 
	970.8,1013.6 970.8,1009.9 977.6,1009.9 980.7,1014.2 993.1,1014.8 997.4,1024.1 1004.3,1029.1 1004.3,1035.9 1008.6,1042.1 
	1009.8,1045.8 "/>
<path class="st2" d="M345.5,1479.6c0,0-6.6-13.2-13.2-13.2s-28.1,6.6-28.1,6.6v-6.6l-14,6.6l-22.3-18.2l-6.6-8.5l9.1-54.3l8.3-8.3
	l2.5-21.3l-5.8-22.5l-33-57.8l-7.4-32.2l-13.2-12.4h-10.7l-18.2,13.2l-39.6-0.8l-17.3,9.9l-25.6-15.9l-33-6.4l-7.4-5.8l-25.6-14
	H32.6l-19.8-12.4l-14.9-25.6l32.2-41.3h14l-5-13l-6.6-14.9l54.5-44.8c0,0,0-18.2,42.9-9.9l5-9.9l-9.1-23.1l6.6-3.3L120.9,981
	l-0.8-13.2l-1.7-14.9l8.3-27.2l-11.6-13.2l13.2-23.1l26.4-14l-1.7-49.5l-2.5-22.3l3.3-38.8l-25.6-18.2l-28.1-4.1l-42.1-5.8
	l-66.9-24.8"/>
<polyline class="st1" points="393.8,1423.5 385.1,1407.4 385.1,1396.6 371,1389.2 366.5,1379 369.8,1369 374.8,1363.6 351.6,1348.3 
	355.8,1332.3 359.5,1325.6 357.4,1318.2 347.9,1318.2 335.1,1303.8 341.7,1288.1 342.6,1274 329.4,1267.4 333.9,1258.8 
	349.6,1261.7 361.6,1261.3 363.6,1264.1 369,1258.8 371.9,1256.3 375.6,1244.7 388,1239 398.7,1239 408.6,1234 415.4,1234.6 
	415.4,1244.1 424.1,1244.1 427.8,1250.1 431.5,1250.1 437.1,1260 437.1,1267.4 437.1,1260 431.5,1250.1 427.8,1250.1 424.1,1244.1 
	415.4,1244.1 415.4,1234.6 415.4,1231.5 419.1,1219.8 426.3,1219.8 437.1,1219.8 445.1,1225.3 452,1222.2 457.5,1226.6 
	457.5,1219.8 465,1211.7 474.9,1205.5 484.2,1205.5 491,1197.5 497.8,1197.5 504,1188.8 510.2,1186.3 520.1,1192.5 530,1195 
	538.6,1201.4 547.3,1201.4 551,1208.6 564,1211.7 568.4,1217.9 581.4,1222.2 583.8,1225.3 "/>
<polyline class="st1" points="375.6,1391.6 369.8,1395.8 356.6,1391.6 348.3,1391.6 343.4,1386.7 332.7,1386.7 327.7,1379 
	320.7,1383.8 317.8,1395.8 319.9,1406.6 314.1,1413.6 314.1,1418.9 303.4,1421 292.2,1433.8 283.1,1438.7 280.2,1452 267.9,1454.8 
	"/>
<polyline class="st1" points="329.4,1267.4 321.7,1256.3 314.9,1252.6 305.8,1256.3 300.5,1245.2 285.2,1231.9 280.2,1224.5 
	265,1224.5 236.5,1226.6 224.9,1227.4 215.8,1235.7 "/>
<polyline class="st1" points="267,1221.2 263.7,1212.1 258.4,1207.2 262.7,1196 262.7,1182 267,1175.8 279.4,1173.3 286.8,1177.9 
	289.3,1134.5 295.5,1130.4 319.5,1130.4 334.7,1130.4 339.7,1130.4 343.1,1127.8 345.5,1129.2 348.8,1136.2 345.5,1142 
	348.8,1146.9 351.6,1151.5 366.1,1147.3 371.5,1151.9 376,1158.2 376,1170.4 376,1178.3 381.8,1177 387.6,1186.3 395.8,1194.4 
	395.8,1201.4 382.6,1205.5 378.1,1207.6 381,1215 384.7,1216.7 384.7,1224.5 388.4,1229.1 388,1239 "/>
<path class="st1" d="M366.1,1147.3l4.1-8.7l12.8-6.6l5.4-6.4l-3.3-12.6l1.7-17.3l-5.8-8.3l-1.7-12.8l3.3-10.3l-2.9-8.3l4.1-15.7
	l-4.5-7.4l-2.1-7l5.8-3.7l0.8-7l12-4.1l4.5,5l12-2.5l11.8,2.9l4.7,12.8l7-0.4l-3.7,17.3l5.8,6.6v5.4l2.5,9.9l19.8,3.3l2.1,9.5
	l-2.9,6.2l-0.8,6.2l11.6-2.1l10.7,1.7l3.7,9.1l-2.9,8.9l1.7,9.3l3.7,9.5v9.1l-2.9,2.9l-7.1,2.5h-8.2l-2.1,3.3l11.9,14.9l13.3,14.4
	c0,0,16.5,8,18.2,9.7"/>
<polyline class="st1" points="767.1,994.4 773.3,979.7 785.7,972.7 791.3,977.1 803.6,979.7 809.8,975.8 814.2,979.7 821.6,980.8 
	821.6,987 812.9,987 800.5,995.6 800.5,1017.3 789.4,1017.3 789.4,1022.3 794.4,1027.8 794.4,1043.9 785.7,1047 778.3,1058.8 
	788.8,1066.1 794.4,1068.1 794.4,1078 785.7,1097.2 790,1102.7 785.7,1107.7 800.5,1125.7 782.6,1143.6 771.9,1136.2 762.8,1138.7 
	762.8,1120.1 756,1110.8 728.1,1118.8 719.2,1124.6 709.9,1121.3 690.1,1108.1 674.9,1110.8 "/>
<polyline class="st1" points="610.9,999.1 619.2,987.6 632.1,984.5 632.1,977.1 640.2,974 643.9,964.7 656.3,960.3 662.5,963.4 
	667.4,960.3 674.9,964.1 674.9,972.1 678,975.2 "/>
<path class="st2" d="M1093.4,1800.6l7.4,10.5l8.7,7.4v19.8l-8,12.4l8,19.8l6.2,12.4h17.3h18.6l34.7,29.7l20.4,24.8l6.5,5
	c0,0,6.5,13.6,13.9,13.6s32.2,6.2,32.2,6.2l18.6-5l15.5-3.7l10.5-19.8l12.4-3.7l7.4-16.1l23.5-19.8l16.1-12.7l23.5,15.2l-12.4,11.1
	l12.4,13.6c0,0,3.7,9.9,0,14.9c-3.7,5-12.4,7.4-12.4,7.4l14,9.9l25.6,8.7l9.9,12.4l12.4-6.2"/>
<path class="st1" d="M1180.9,1783.4l9.1,5v12.2h16.7l6.5,10.9l-6.5,11.6l6.5,12.4c0,0,2.4,7.4,4.9,7.4s19.8,7.4,19.8,7.4l8.3,10.7
	v9.1h-19c0,0-5.8,6.6,0,6.6s11.6,0,11.6,0l1.7,6.6l5.8,4.2l10.7,6.5l8,6.6l9.3-4.1l9.9,4.1l-6.2,12.4l12.7,9.9l2.8,6.6l-6.8,5.8
	l4,5.8v8.3l2.8,4.1"/>
<polyline class="st1" points="543,880.2 552.9,880.2 560.3,873.7 560.3,868.1 569.6,857.6 569.6,850.7 573.9,840.8 582,837.7 
	591.9,837.7 597.5,842.1 597.5,848.3 610.9,850.1 619.2,855.7 623.5,863.7 623.5,869.9 623.5,877.4 627.2,884.3 630.3,889.1 
	648.8,889.1 651.9,889.1 652.6,895.3 653.2,903.4 658.8,910.2 654.4,918.2 643.3,918.2 636.5,923.8 639.6,930.6 647,933.1 "/>
<polyline class="st1" points="963.8,873.7 982,897.8 982,903.4 1001,914.1 1013.3,931.9 1013.3,938 1009.8,947.1 1009.8,957 
	1004.3,966.9 996,974.4 997.6,985.1 996,995.6 996,1000 990.2,1007.4 993.1,1014.8 "/>
<polyline class="st1" points="868,941.8 872.2,933.1 872.2,916.6 870.1,904.2 886,884.3 900.2,877 911,877 "/>
<polyline class="st1" points="1176,918.2 1182.6,908.3 1179.3,898.4 1179.3,879.4 1176,873.7 1165.3,858.5 1158.5,858.6 
	1148.7,843.9 1138.8,825.8 1122.3,821.6 1128.1,811.7 1133.9,807.6 1143.8,802.7 1147.9,797.7 1156.2,793.6 1152.4,788.6 
	1148.7,788.6 1145.4,777.1 1142.1,772.9 1141.3,764.7 1157.8,769.6 1171.8,764.7 1182.6,768 1189,776.2 1200.4,760.7 1202.4,758.1 
	1210.7,753.1 1227.2,760.5 1237.1,760.5 1242.8,757.2 1242.8,747.3 1256.9,742.4 1264.3,738.3 1272.6,745.7 1276.7,753.9 
	1290.7,754.8 1299,760.5 1303.9,768 1308.1,777.9 1308.1,791.1 1303.1,798.5 1308.1,806 1302.3,807.6 1294.9,806 1286.6,810.1 
	1279.2,808.4 1271.7,810.9 1264.3,808.4 1256.1,815.9 1258.5,823.3 1246.1,823.3 1241.4,830.9 1234.6,828.2 1231.3,837.7 
	1237.9,837.7 1234.6,849.7 1227.2,849.7 1221.4,853.8 1219.7,862.1 1227.2,868.1 1234.6,876.1 1233.8,884.3 1239.5,878.6 
	1244.5,884.3 1251.9,885.4 1251.9,891.8 1242.8,898.4 "/>
<polyline class="st1" points="993.1,849.5 1002.4,845.8 1002.4,840.2 1013.3,834 1029.6,837.7 1035.2,837.7 1035.2,847 
	1044.5,849.5 1060,850.7 1070.5,850.7 1073.6,847 1073.6,837.7 1078.1,834 1092.8,828.2 1099,834 1104.6,833.4 1110.8,828.2 
	1119.4,828.2 1127.3,822.9 1122.3,821.6 1133.9,807.6 1143.8,802.7 "/>
<polyline class="st2" points="592.3,-367.2 584.5,-354.8 564.6,-367.2 564.6,-347.4 554.7,-338.7 542.4,-338.7 542.4,-321.4 
	525,-315.2 525,-295.3 505.2,-279.2 505.2,-264.4 513.9,-252 527.5,-240.9 538.6,-212.4 532.4,-192.6 515.1,-169 505.2,-150.5 
	520.1,-110 531.2,-79.9 532.4,-56.3 520.1,-48.9 516.3,-21.7 520.1,-14.2 518.8,-6.8 511.4,-6.8 513.9,13 521.3,22.9 520.1,37.8 
	527.5,56.3 532.4,70 525,83.6 515.1,91.8 530,114.6 548.8,131.9 554.7,149.2 557.2,156.7 542.4,193.8 533.7,202.5 471.8,273.1 
	447,295.8 439.6,295.8 425.9,302.8 402.4,328.8 "/>
<polyline class="st1" points="538.6,-212.4 551,-201.2 556.6,-183.9 561.2,-157.6 552.6,-141.8 549.2,-129.4 585.7,-123.2 
	585.7,-110 592.3,-104.6 592.3,-98.4 604.3,-98.4 614.2,-115.8 624.7,-118 637.1,-114.2 "/>
<polyline class="st1" points="1117.4,-101.7 1150.4,-131.1 1178.4,-161.6 1183.4,-176.5 1189.2,-176.5 1196.6,-194.6 1213.9,-194.6 
	1284.1,-207.8 1391.4,-237.6 1421.2,-248.3 1421.2,-240.9 1431.9,-248.3 1442.6,-255.7 1461.6,-260.7 1516.9,-323.4 1521.9,-333.3 
	1545,-349 1549.1,-377.9 1540.9,-395.2 1533.4,-417.5 1527.7,-427.4 1524.4,-435.7 1507.8,-435.7 1501.2,-435.7 1496.3,-446.4 
	1504.5,-455.5 1506.2,-459.6 "/>
<path class="st3" d="M1549.1-377.9h6.6l11.6-4.1l5.8,4.1l4.1,18.2v9.1l-5.8,14.9l-2.5,23.1l4.1,21.5l-9.9,10.5l-5,5.1l-9.1,14
	l-13.2,23.9v9.1l-4.1,16.1l5.8,8.7l-10.7,16.5l-8.3,6.6v12.4l-14,35.5v6.6l-6.6,12.4v9.1h-9.1l-5.8-5.3l-5.8,5.3l-11.6,11.6
	l7.4,15.7l-2.5,19h5l5,12.4l7.4,8.3l0.8,8.3l-4.1,14l5,16.5l0.8,14l4.1,16.5l-0.8,17.3l9.1,6.6l0.8,9.1l6.6,12.4l6.6,6.6v16.5
	l-7.4,9.1l-33,13.2l-2.5,4.1l-15.7,4.1h-10.7l-6.6,14.9v19v10.7l-2.1,10.7l-8.3,5l-2.9,16.5v7.4h-11.6v14h-11.6l-4.1,19l-5.8,2.9
	l-41.3,1.2l-6.6,13.2l-13.6-4.1v-7l-19.8-1.8l-0.9,10.5l-12.4-0.8l-2.9,11.6h-15.7l0.8,22.3c0,0,14-4.1,14,0s5,7.4,5,7.4h6.6v6.6
	l-1.9,3.8l-3.1,6.1h-6.6l-14,24.8h-7.4h-6.6l-9.1,8.3l-4.1,5.8l-15.7,9.1l-9.1,4.1l5,4.1l-10.7,4.1v7.4l6.6,14.9l-2.5,5h-4.1
	l-13.2-10.7l-5.8-0.8l-13.2,2.5l-15.7-6.6l-8.3-42.1l4.1-10.3v-5.4l-4.1-6.6v-8.3l-6.6-9.9l-4.5-9.5l-16.1-1.2v-9.9l-32.2-3.7v18.6
	l-1.7,18.5l2.9,8.7l-2.9,4.5l-4.5,15.7l-9.1,3.3v9.9c0,0,12,0.8,13.2,0c1.2-0.8,5-6.6,5-6.6l4.5,30.5l5.8,3.3c0,0,0.4,18.6,0.4,20.6
	s0.8,6.6,0.8,6.6l10.7,2.1l7.4,8.7l4.1,14l3.7,7.8h-6.2h-12.8l-2.5,11.1l-2.1,12.4l-9.1,5l-4.1,11.1l-2.1,6.6l-7,4.1l3.7,2.9
	l-1.2,9.1l5,7h7.8l25.2-6.2l3.3,6.2l16.9,2.5l-4.5,6.6l0.4,18.2v3.3H1150l-3.3,6.2l-15.3,3.3l-6.2,10.3l-10.3,6.2l-7.4,9.9
	l-0.8,20.6l16.5-4.1l28.5-1.2v5.4l13.2-8.3l9.1-11.6l13.2,0.8l4.5-11.1l18.6-4.5c0,0,1.2,6.2,2.5,6.2c1.2,0,5.4-3.7,5.4-3.7l2.5-9.9
	c0,0,5.8-7,7-6.2c1.2,0.8,0.8,9.5,0.8,9.5l0.8,7.4l16.9,1.7l4.5,7.8l15.3,2.9l2.1,7.4l-3.7,8.3l3.7,0.8l14.4-8.3l2.9,8.3l7,9.9
	l4.1,7l7.4-8.3l5.4,9.9l5,8.3l10.7,2.1l5.8-7.8c0,0-3.3-11.1-4.5-12c-1.2-0.8-10.3-6.6-10.7-7.8c-0.4-1.2-2.1-15.7-2.1-15.7l7.4-3.7
	v-13.6l-12-21.5l-5-19l2.9-3.3l10.7,0.4l1.2-8.3c0,0,5.4-6.6,5.8-8.3c0.4-1.7,1.2-14.9,1.2-14.9s-6.6-18.2-7.4-19.8
	s-3.7-9.9-3.7-9.9l4.1-16.9l25.2-1.7l7.8-1.7v-11.1l8.7-1.2l5.8,8.3l5.4,4.1l13.2-2.5l0.4-8.7l6.6-2.1l-3.3-12l0.8-8.3l-6.6-9.1
	c0,0-1.7-12-1.7-13.2s-0.8-5.8-0.8-5.8l-5.4-0.4l-10.3,0.4l-6.6-12.4l2.1-13.6l3.3-19.8l-9.1-23.9l-5.4-4.5l-6.6-1.2l-6.8,4.5
	l-21.3,1.7l-5.8-0.4"/>
<path class="st1" d="M1391.9,435.3l5.4,15.7l13.2,17.3v6.6V498l6.6,5.8l7.4,14l5,5.8v13.2l-6.6,15.7l-3.3,19.8h14.9v8.3l13.2,5
	l-4.1,14.9c0,0-3.3,2.5-4.1,7.4s-7.4,15.7-7.4,15.7l-12.2,5c0,0-5.2-2.5-5.2-5c0-1.1-0.8-12.8-2.9-19.8c-1.2-4-3.1,13-3.1,13
	l-13.8-8.9l-2.9-20.6c0,0-6.2,0-6.2,3.3s-9.1,14.9-7.4,17.3s9.9,4.1,9.9,4.1l-4.1,7.4l-1.7,9.1c0,0-9.9-0.8-12.4,0s-7.4,5.4-7.4,5.4
	l-6.6,8.7h-5.8h-14.7v-11.6l-10.5,2.9"/>
<polyline class="st1" points="1177.7,766.5 1181.3,747.3 1189,747.3 1198.1,750.4 1198.1,741.8 1198.1,738.3 1204.2,738.3 
	1204.2,735.6 1201.8,731.9 1207.3,729.4 1198.1,717.6 1192.5,717.6 1189,718.2 1189,713.3 1189,709 1198.1,703.4 1201.8,694.1 
	1198.1,688.5 1201.2,686 1207.3,676.8 1207.3,666.8 1219.1,666.8 1219.1,655.7 1227.2,650.1 1234.6,642.5 1230.3,633.8 
	1234.6,633.8 1242.6,628.5 1246.4,623.5 1246.4,617.3 1258.1,611.1 1261.8,617.3 1270.5,617.3 1271.3,603.1 "/>
<polyline class="st1" points="1299,760.5 1308.1,760.5 1315.7,760.5 1322.5,766.5 1328.7,763.5 1335.5,763.5 1341.7,756 
	1339.2,747.3 1347.9,741.8 1354.7,738.3 1358.4,743.9 1364,738.3 1380.1,743.9 1380.1,752.4 1389.4,752.4 1393.1,748 1403,741.8 
	1406.7,748 1414.1,747.3 1424.1,747.3 1428.4,743.9 1430.9,752.4 1430.9,759.1 1434,766.5 1442,761.6 1444.5,766.5 1450.7,762.2 
	1445.1,743.9 1442.6,734.3 1442,724.4 1445.1,720.2 1438.9,701.5 1432.1,694.1 1424.1,694.1 1418.5,687.3 1424.1,684.8 
	1426.5,679.2 1439.5,674.9 1438.9,668.1 1447.6,660.7 1447.6,649.5 1450.7,642.5 1450.7,633.8 1444.5,633.8 1434.6,623.5 
	1427.5,625.3 "/>
<polyline class="st1" points="1106.2,513.3 1099,519.5 1093.8,522 1086.6,529.4 1081,529.4 1077.3,525.1 1072.4,524.4 1064.3,525.7 
	1051.7,525.1 1051.7,532.5 1051.7,538.9 1048.8,546.1 1045.1,551.7 1040.8,551.7 1040.8,562.8 1031.5,570.3 1015.4,576.4 
	1009.2,572.1 1002.4,567.2 991.3,563.4 988.2,568.4 988.2,571.5 978.3,570.3 975.2,562.2 969,562.2 964,565.3 952.9,565.9 
	944.2,570.9 938.6,565.9 934.3,564.7 929,562.8 925.6,566.5 925.6,576.4 920,580.8 907.7,589.5 894.7,589.5 877.3,589.5 
	874.2,574.6 882.9,570.9 886,564.1 882.9,551.4 886,544.3 889.7,538.9 892.4,529.4 892.4,522 901.5,513.3 900.9,506.5 897.8,497.2 
	902.1,489.8 903.3,482.3 900.9,473 903.3,468.1 912,468.1 923.1,455.1 929.1,455.1 933.7,449.5 929.1,442.7 933.7,435.3 
	934.3,431.6 944.2,440.2 954.1,435.3 959.7,439 956.6,445.2 965.2,447.7 973.3,443.9 973.9,440.2 978.3,440.9 984.4,439.6 
	990.2,435.3 998.7,435.3 1006.7,438.4 1014.2,438.4 1021,443.3 1032.1,443.3 1035.2,450.8 1038.9,452 1043.3,459.4 1043.3,445.8 
	1048.2,443.3 1051.7,437.8 1069.3,437.8 1069.9,431.6 1074.8,427.8 1089.1,427.8 1100.2,417.3 1101.5,402.3 1109.5,402.3 
	1113.2,398.7 1122.3,398.7 "/>
<path class="st1" d="M1414.1,747.3l-10.3,10.7l-5.8,8.4h8v4.8v6.6v13.2v11.6l-8,11.6l8,7.4v6.6v6.6v14l-11.4,15.5v10.9l-5,9l-3.5,10
	v7.4v8.3l5.2,10.1l-5.2,3.9l-21.8,31.3l5.5,5.1l-9.9-9.1V943l-9.9-2.5l-10.9-1.7l-8.9-7h-5l-8.3-2.5l-10.7-9.3h-5l-9.1-3.5v-5
	l-18.2,5l-5-3.3l-10.7-7.4l-8.3-0.8l-7.4-6.6l-11.6,5l-4.1,5l-3.3-5l-5.8,11.6h-7.3l-12.6,5.1h-18l-11.6-5.1l-17.3,5.1l-9.9,14.3v7
	h-7.4l-7.4-7l-5,7.8l-9.9,5l-10.7-0.8v5h-6.6l-5-9.1h-11.1l-3.7,4.1l-5.8,10.4h-10.7l-8.3-3.7h-8.3c0,0-14,2.4-16.5,0.7
	s-6.6,0-6.6,0h-5l-5.4,6.6"/>
<polyline class="st1" points="1450.7,762.2 1465.7,780.4 1476.5,787.8 1488,802.7 1497.1,802.7 1507,802.7 1512.8,809.3 "/>
<path class="st1" d="M1288.9,1280.3h15l10.7-9.6l5,4.8h35.5l5-31.4c0,0,8-8,14.8-8c6.7,0,8.4-19.8,8.4-19.8l38-29.9v-4.7l14-4.1h5
	l10.5-4.1h6.8v7.4l24.3-1.7l14.6-5.8h4.1v-7.4v-7.4v-19.8v-13h26.4l4.7-5.3l-3.1-21.3l-1.7-8.3l12.4-7.4l19-5v-4.1l8.3-4.1v-9.1
	v-16.5h-6.6l-4.1-12.4l-4.1-6.6v-17.3"/>
<path class="st1" d="M1141.1,761.6l-2.5-5.6l-5.6-8.7v-3.4h-6.2l-4.5-2.2v-6.2V730c0,0,2.1-7,3.3-9.1c1.2-2.1,6.1-6.4,6.1-6.4
	l-9.4-4.3l-6-6.8l-5.6-5.6l8.7-17.3l2.9-9.3l3.6-6.8h12.1l3.1-9.3l8-2.5l13.6-10.1l8,13.2h14.9l5.6,8l3.7,5.6l12.4-2.5"/>
<path class="st1" d="M968,776.9l9-1.3h5.9l4,3.4l6.2-1.7l7.4-8.5l7.4-4.6l8.4,2.4l6.2,5h7.7l5.3,4l6.8,3.4l4.3,5.9h6.5l4.6,5.3h5.6
	l4.3,2.2l1.2-2.2l15.8,0.3v-4.6l-2.5-3.7l-0.6-9.9c0,0,0.6-3.1,1.9-3.1c1.2,0,5.9-2.5,5.9-2.5v-6.8h4.4l-1.3-10.5l4.3-7.4l7.1-5.6
	l3.1,2.1l2.2,9.1l1.5,1.9l8.7-3.4l2.9-4"/>
<path class="st1" d="M1010.8,573.2v6l2.5,3.4v2.8l-2.5,2.8l-7.1,1.2v7.7v5.9h4.8l-0.5,5l-2.5,5.9l-5.3,8h-6.5l-3.1-1.9
	c0,0-4.3,0.9-5.3,1.9c-0.9,0.9-7.1,4.6-7.1,4.6s0.4,2.5,0,4c-0.4,1.5,0,6.8,0,6.8s4.3-0.3,4,1.5c-0.3,1.9-4.1,12.1-4.1,12.1
	l-2.1,1.5H968v4.3h-8.3c0,0-0.9-2.5-2.2-2.5s-8,4.3-9.3,5.6s-8,0-8,0l-7.4-5.3l-16.4,1.2l-9.9-3.7l-8.4-1.5l-9.9-6.5l-8,5.6
	l-3.1,5.3h-13.3l-5.6-8.4v-10.2l-8.4-2.7h-8.7h-1.9l1.9-8.2l3.4-5l-3.4-3.8l5.6-5.8l7.4-3.7l1.9-2.2l5.6-0.3l4.6-1.9l1.5-2.5
	l3.1-3.4l0.6-4l5.6-0.9l0.3-2.8"/>
<path class="st1" d="M978.1,651.1v9.5l-3,11.2l-2.8,6.5v3.7l2.9,4.3c0,0-0.8,2.5,0,3.4c0.8,0.9-2.9,4.3-2.9,4.3l-6.2,2.2l-1.5,4
	l-9,8.7c0,0-2.8,3.7-3.7,5.3c-0.9,1.5-1.5,6-1.5,6l1.5,5.5c0,0-2.5,4.6-1.5,5.6c0.9,0.9-4.3,7-4.3,7s-3.7,7.5-4.3,9.1
	c-0.6,1.5-3.1,6.5-3.1,6.5"/>
<path class="st1" d="M1106.6,607.4l-3.9,7.1l-1.9,13.6c0,0-8-1.2-8.4,0s-1.9,5.7-1.9,5.7s3.6,4.2,3.2,5.5c-0.4,1.2,0,5.6,0,5.6h10.1
	l2.7,2.5v5.6v7.7l4.1,2.9l2.2,5.6l3.7,1.2l8.4-4.3"/>
<path class="st1" d="M897.8,497.2h-14l-7.4,3.3l-14-1.7V491l-6.2-4.1l-5.4-5.8l-5.8-3.3l-5.7-2.1H823v7.8l-4.5,4.5l-7-2.9l-8.7,0.8
	l-5,2.1l-15.3,2.9l-7,6.6l-3.7,0.8l-2.6,7l-5.3,3.3v4.1h-7v10.3l5.8,7l1.7,5.4l-1.2,4.1h-3.7l2.5,8.7l-0.8,11.1l4.1,6.6l7.8,7.1
	l1.7,11.5l9.5,9.1h9.5v4.1l-5,5.2c0,0,1.7-0.2,1.7,4.3s-1.7,9.5-1.7,9.5l-1.7,6.6l0.7,12.2"/>
<polyline class="st1" points="830.9,651.1 835,651.1 836.7,635.7 839.2,633.8 "/>
<path class="st1" d="M830.9,651.1"/>
<path class="st1" d="M801.2,642.5"/>
<line class="st1" x1="795" y1="639" x2="801.2" y2="642.5"/>
<polyline class="st1" points="664.3,695.9 651.3,692.9 642.7,692.9 639.8,694.4 630.3,687.9 623.7,684.2 616.2,686.7 611.3,686.2 
	606.7,690.1 606.7,695.9 598.5,692.9 596,699.5 586.9,697 586.9,693.3 576.2,684.2 576.2,675.9 579.5,675.9 582.4,666.4 
	579.9,660.6 576.2,649.1 579.9,646.6 580.3,623.5 582.4,616.9 576.2,607.8 571.2,607.8 561.8,600.4 555.6,595.4 555.6,592.1 
	560.9,589.5 569.6,581 575.4,581 583.6,581 590.6,583.5 596.4,564.1 601.8,564.1 603.4,555.7 609.9,548 612.5,541.8 607.2,536 
	609.9,531 613.8,527.7 622.8,525.5 634.4,525.5 646,531.9 652.2,533.5 652.2,525.5 657.9,523.2 666.6,525.5 672.8,525.5 674.9,517 
	679.4,513.3 689.3,510.4 694.7,510.4 699.6,512.9 711.2,504.2 714.9,504.2 722.3,501.3 729.3,494.1 729.3,489.8 733.9,489.8 
	733.9,480.7 744.2,480.7 746.7,478.6 751.6,484.4 751.6,489.8 759.1,502.6 767,506.9 "/>
<polyline class="st1" points="582,837.7 584.5,828.2 589,817.1 589,808.8 589,802.7 589,798.9 595.6,796 610.9,799.8 615,802.7 
	617.5,806.4 621.6,806.4 626.1,796 624.1,789.9 631.5,789.9 640.6,789.9 642.7,787.8 642.7,777.9 653.8,770 658.8,760.5 "/>
<polyline class="st1" points="693.4,868.1 691,861.3 691,858 691,851.4 695.1,848.5 695.1,840.9 699.2,837.7 695.1,836.1 
	697.1,828.2 712,824.9 712,822.1 721.9,822.1 725.6,824.5 736.8,822.1 736.8,812.1 733.9,810.5 731,802.7 730.2,796.5 736.8,796.5 
	741.3,798.5 743.8,796.5 745.4,792.2 745.4,788.2 750.4,780.4 "/>
<g>
	<line class="st4" x1="893.6" y1="1633.2" x2="893.6" y2="1644.7"/>
	<polyline class="st4" points="982,1711.6 986.1,1702.5 996.8,1691 996.8,1684.4 996.8,1674.4 996.8,1666.2 1005.1,1662.1 
		1009.2,1651.3 995.6,1648 982,1648 964.6,1638.1 951,1635.2 	"/>
	<polyline class="st4" points="678,975.2 674.9,972.1 674.9,964.1 667.4,960.3 662.5,963.4 656.3,960.3 643.9,964.7 639.6,960.3 
		639.6,950.4 643.9,950.4 646.4,941.1 650.1,938 647,933.1 639.6,930.6 636.5,923.8 643.3,918.2 654.4,918.2 658.8,910.2 
		653.2,903.4 652.6,895.3 663.1,895.3 670.5,890.4 666.8,884.3 673,881.1 673,876.1 	"/>
	<polyline class="st4" points="754.1,894.1 764,897.8 764,907.1 770.8,910.8 778.3,916.4 785.7,916.4 794.4,918.9 794.4,921.9 
		802.4,916.4 809.2,916.4 809.2,913.3 817.9,916.4 821.6,925.7 827.2,933.1 822.8,944.9 822.2,954.8 826.6,954.8 837.1,960.3 
		821.6,980.8 817.3,980.2 809.8,975.8 803.6,979.7 791.3,977.1 785.7,972.7 773.3,979.7 767.1,994.4 	"/>
	<polyline class="st4" points="486,588.8 486,593.2 476.7,593.2 469.3,596.3 465.6,590.7 456.3,591.9 453.8,596.3 448.9,592.5 
		442.7,592.5 440.8,601.8 435.3,607.4 421.6,609.9 414.8,609.9 408.6,609.9 395.6,595 388.2,593.8 384.7,593.8 372,605.1 
		361.4,598.1 357.8,593.2 366.8,570 361.6,558.6 352.5,544.3 359.1,534.3 	"/>
	<polyline class="st4" points="370.2,470.4 368.7,458.1 368.2,453.4 384.7,441.1 397.5,443.9 401.8,455.1 419.1,455.1 423.5,459.4 
		432.1,459.4 435.2,466.9 443.9,471.2 443.9,481.1 452.6,483.6 455,491.6 465.6,494.1 468.1,500.3 460.6,503.4 457.5,511.4 
		454.4,517 454.4,520.7 	"/>
	<polyline class="st4" points="733.9,96.4 733.9,108.8 721.5,116.2 710.4,116.2 710.4,136 722.1,146 722.1,159.6 722.1,172 
		733.9,185.6 754.9,191.8 764.8,191.8 764.8,214.1 764.8,225.2 773.5,233.9 780.9,253.7 773.5,277.2 773.5,293.3 780.9,310.7 
		790.8,321.8 802,314.4 809.4,315.6 809.4,331.7 823,339.1 830.5,339.1 849,339.1 860.2,339.1 876.3,339.1 883.7,330.5 892.4,339.1 
		903.5,339.1 903.5,324.3 918.4,319.3 938.2,325.5 948.1,328 948.1,319.3 960.5,324.3 979.1,321.8 989,306.9 1002.6,304.5 
		1002.6,310.7 1044.7,306.9 1044.7,290.8 1050.9,287.1 1062,289.6 1062,300.7 1095.5,297 1102.9,303.2 1109.1,303.2 1109.1,284.6 
		1141.3,288.4 1141.3,298.3 1157.4,299.5 1157.4,290.8 1174.7,273.5 1183.4,273.5 1183.4,242.5 1172.3,235.1 1172.3,198 
		1183.4,201.7 1174.7,147.2 1147.5,146 1141.3,160.8 1132.6,159.6 1133,178.6 1139.6,188.9 1115.7,190.9 1114.5,201.3 1107.9,201.3 
		1105.8,190.9 1100.8,190.1 1100,175.3 1090.1,157.9 1102.5,143.5 1102.5,133.2 1082.3,120.4 1081.4,103.8 1079,93.5 1061.6,78.3 
		1037.7,75.4 1027,65.5 1026.5,58 1034,51.4 1048.4,51.4 1055.9,48.1 1083.5,41.1 1101.7,37.4 1112.8,37.4 1115.7,42.3 1121.1,42.3 
		1123.5,33.7 1132.6,33.7 1134.3,23.4 1155.7,23.4 1155.7,12.2 1180.9,12.2 1180.9,-7.2 1169.8,-9.7 1145,-43.9 1130.6,-39 
		1117.4,-101.7 1105,-101.7 1090.9,-98.8 1080.6,-86.9 1081.4,-77.8 1076.9,-72.4 1067.4,-70.8 1054.6,-78.2 1033.1,-87.3 
		1023.2,-89.3 1003.4,-93.5 979.1,-101.7 972.9,-107.9 969.6,-110 	"/>
	<polyline class="st4" points="883.1,745.1 879.6,745.5 877.6,742.6 873,742.6 873,747.1 868.9,750.4 858.6,754.1 854.9,762 
		849.1,766.9 	"/>
	<polyline class="st4" points="978.3,807 978.3,800 978.3,787.6 973.1,783 968,776.9 970,766.1 968,760.8 962.2,764.9 957.2,764.5 
		951.5,762.8 947.8,760.8 947.8,756.6 941.6,755 932.9,751.7 925.1,751.7 919.7,748.4 913.5,748.4 911,752.5 901.5,741.8 
		901.5,741.8 897.4,748.8 892.9,749.2 	"/>
	<polyline class="st4" points="828.5,814.8 838,820.2 841.3,823.5 840.4,829.7 838,840.8 840,845.8 847,849.3 854.1,847.4 
		856.5,849.3 856.5,853.6 853.6,858.6 853.6,863.5 849.9,867.9 839.6,867.9 835.9,862.3 830.5,863.1 822.5,864.4 822.5,871.4 
		822.5,874.7 815.7,879.6 813.6,885.2 813.6,890 813.6,892.4 806.6,895.3 806.6,899.9 809.9,902.7 810.3,911 812.6,914 816.9,915.5 
		822.5,925.5 828,932.9 847.9,937.8 855,937.8 862,940.1 866.9,940.1 871.9,934.3 872.3,922.4 871.1,901.7 888.8,881.1 904.1,873.2 
		912.8,877.8 918.1,881.5 927.2,872.8 927.4,864.4 	"/>
	<polyline class="st4" points="851.3,704.6 858.7,707.1 865.6,720.2 868,730 874.2,733.1 873,742.6 873,747.1 	"/>
	<polyline class="st4" points="678,674.3 676.7,665 674.9,661.3 686.6,658.8 692.2,663.1 699.6,666.8 707.1,661.9 716.2,663.1 
		721.9,658.8 733.1,652 743.4,652 743.4,646.4 751.6,639.6 760.3,633.4 762.2,623.5 769.6,623.5 775.8,627.8 783.2,634.7 
		791.3,636.5 795,639 794.4,652 	"/>
	<line class="st4" x1="664.3" y1="695.9" x2="666.2" y2="691.2"/>
	<polyline class="st4" points="822.5,864.4 816.6,856.9 816.6,851.4 806.6,853.8 787.5,853.8 782.6,851.4 778.3,840.9 785.1,834.6 
		800.4,830.9 803,830.9 806.6,822.9 803.6,817.9 800.4,806.2 800.4,798.7 789.4,793.2 778.3,783.3 772.1,783.3 768.3,788.2 
		762.2,789.4 757.2,783.3 750.4,783.3 750.4,774 744.8,764.7 744.8,759.1 	"/>
</g>
<polyline class="st1" points="488.5,586.8 496.5,586.8 499.4,591.7 506.9,589 518.8,589.5 533.7,589.5 533.7,595 531.2,599.2 
	540.7,599.2 544.4,596.3 550.6,596.3 550.6,590.9 558,592.1 "/>
<polyline class="st1" points="596,699.5 591.9,707.3 582,713.9 571.7,711.8 558,711.8 542.4,706.7 540.3,706.7 523.3,702.5 
	518.8,706.7 502.7,702.5 491.6,699.5 480.4,712.7 "/>
<path class="st1" d="M468.1,500.3l7.8-13l-3.9-11.6l3.9-4.2h7.9l4.6,3.7h8.9l2.3-3.7v-7.4c0,0,5.6-2.8,6.5-3.1
	c0.9-0.3,6.5-1.2,6.5-1.2V452h5.6h3.7l1.3,7.4l2.1-4.6l6.2-8.7l5.6-7.7l-1.9-6.8l3.7-5.6l4.6,3.7l1.5,5.3l4.6-3.4l8.3-2.5l2.3,5.3
	l3.7,6.7v3.5l3.1,1.2l3.1,3.7l3.4,1.5l5-5.9l2.2-10.5l9-2.5l2.6-2.8l8.3,4.3l1.9,4l3.4-3.7l12.1,0.3l1.3,2.5l7.3,1.2l7.7,3l2.5,2.6
	l-3.1,4l-1.9,5.3l3.1-0.3l7.7-5.6l4.3,4.3l9.6,4.3l1.9,4.3l2.8,7.7l3.1,1.9l5-1.2c0,0,2.2,2.2,2.2,3.1c0,0.9,0,5.3,0,5.3l4.6,1.9
	h3.7l7.1,1.5l7.4-1.5l2.5,5l7.4,1.5c0,0,1.5,3.1,2.5,3.7c0.9,0.6,5.6,4.6,5.6,4.6l-1.1,10.7"/>
<path class="st1" d="M691.3,320.7l-5,6.2l-9.6,1.9v5v4l1.9,28.8l-3.1,10.8v12.4v2.8h7.9v10.8c0,0,1.1,4,1.4,5
	c0.3,0.9,1.9,6.8,1.9,6.8l-1.2,7.1l-4.3,6.2l0.3,4.3c0,0,1.9,5,2,5.9c0.2,0.9-2.6,4-2.6,4h-9l-3.7,6.2h-6.8l-4.7,6.8"/>
<path class="st1" d="M347.5,545.1l-8.7-5.4l-13.2,5.4l-10.3-12l-5.4-9.5c0,0-6.2-3.7-6.2-5.4s-2.1-7-2.1-7L284,498h-5.8l-2.5-4.1
	l-8.7,4.5l-7.8,2.9l-10.3,0.4l-4.5,2.5"/>
<path class="st1" d="M366.1,655.7l-4.5,4.5c0,0,2.9,4.5,0,4.5s-9.1,3.3-9.1,3.3l-5,12.4l-14.9-2.1l-6.6-5l-11.6,7l-5.6-1.9l-13-4.3
	l-20.6-26l-2.9-9.1h-11.1c0,0-12.4-9.1-12.4-10.3s-4.5-14.9-4.5-14.9l-9.1,5l-9.5,4.5l-9.1-4.5l-9.1,0.4l-2.5-5.4l-27.2-8.3
	l-9.5,2.5v-2.5c0,0-12.8-7-15.7-6.6s-16.1-8.3-16.1-8.3l-13.2,2.1l-8.7,3.3l-6.6-3.3l-12.4,10.3l-9.1,4.5"/>
<path class="st1" d="M302.9,689.6"/>
<path class="st1" d="M68.1,665.6c0,0,9.5,3.3,10.7,2.5s4.5,0.1,4.5,0.1l3.3,8.5l8.3,9.1l11.6,8.7h12.8c0,0,8.7,2.1,9.9,5
	c1.2,2.9,7,12.4,7,12.4v5.4l-6.6,9.1l-3.3,8.3l2.1,12"/>
<polyline class="st1" points="152.3,784 164.7,792.5 182,792.5 188.2,797.7 199.3,792.5 206.8,792.5 210.1,781.6 226.4,783.7 
	233.6,777.5 244.3,777.5 244.3,784.1 250.5,783.7 247.2,771.3 250.5,758.9 257.9,751.9 257.9,737.8 270.3,730.4 281.5,728.4 
	285.2,720.2 285.2,718.4 295.9,718.4 298.8,718.4 305,713.9 312.4,711.8 302.9,706.7 299.2,702.8 298.8,697.4 302.9,689.6 
	307.1,686.7 309.1,680.5 "/>
<polyline class="st1" points="429.7,689.6 431.3,699.5 429.7,704 422.2,709.4 402.8,724.2 405.7,733.7 405.7,743.2 392.1,739.1 
	384.3,743.2 375.6,743.2 369.4,747.3 361.6,743.2 352.5,746.5 345.5,752.7 340.1,755.2 334.3,755.2 331.8,747.3 326.1,746.5 
	326.1,739.1 316.6,726.7 316.6,722.4 312.4,720.2 312.4,713.9 312.4,711.8 "/>
<path class="st1" d="M119.5,962.5l8.4-4.6l9.1,4.6l17.7-8.3v-4.5l5.8-3.7c0,0,12.8-1.7,14,0s15.7-2.9,15.7-2.9s5.8,2.9,7.4,3.7
	S213,955,213,955l6.6-2.2l12.8,1.8l9.1,7.9l8.7,2l22.3,10.3c0,0,19.8,13.6,23.9,13.6c4.1,0,12.8,5.8,12.8,5.8h9.5l8.5-3.7l0,0
	c0,0,8,2.1,9.3,3.7s9.1,3.7,9.1,3.7l7,8.7l5.4-5l8.3-2.1l5.4-3.7l6.2,5.4v9.9l6.2,4.1"/>
<polyline class="st1" points="435.9,1028.9 435.9,1015.2 435.9,1003.3 438.1,992.5 447.4,982.6 457.7,973.5 468.5,973.5 478.4,969 
	489.5,972.7 497.8,972.7 "/>
<path class="st1" d="M571.2,959.5l-4.5,13.6v2.1l4.5,3.9l3.7,2.7l-8.3,5.8l-2.9,6.2l-5.8,1.9l-4.1,5.2v6.2l3.7,4.1l-1.7,10.3v7.4
	l-2.1,5.8h-2.1l-2.9,12.8c0,0-5,2.9-3.7,4.5s3.7,5.4,3.7,5.4l6.2,2.1l1.2,5l-3.7,2.9h-2.9l-2.5,3.7H543l-3.2,4.1v4.5l6.2,2.5h4.1
	l-0.8,8.7l-2.5,5l-7,10.7l-6.2,2.5h-11.6l-8.7-4.5l-6.2,0.8l-9.5-3.7v-5.8l-3.3-9.1l-2.9-0.8l-2.1,2.5c0,0-3.7,1.2-6.2,2.9
	s-2.5,1.7-2.5,1.7"/>
<path class="st1" d="M546.9,1095.7h10.7c0,0,8.3,7.4,9.5,7c1.2-0.4,13.2,0,13.2,0l3.5-4l8,4h9l3,4.5l2.9,3.5l2.5,10.9l4.1,7.4h5.9
	h6.9l8.5,1.4"/>
<path class="st1" d="M369.4,747.3l2.5,7.8v9.9l6.2,4.5h5.8l5-4.5l8.7,0.4v6.6c0,0,5,4.1,6.6,4.5s7.4,1.7,7.4,1.7v5.4
	c0,0-2.9-0.4-2.9,2.5s0,8.3,0,8.3s-4.5,1.7-4.5,3.3s0.8,6.2,0.8,6.2h3.3l5.4-2.1h9.9l7.8,2.1l6.8-4.5l5.2,1.7l5.8,2.9h7.4l5-4.1
	l5.4-2.1h6.2l10.7-2.5"/>
<path class="st1" d="M408.2,803.9l-2.9,9.5l-4.1,6.2v7.8c0,0,5.4,6.6,3.5,8.3s-8,7.4-8,7.4l-7-2.5l-3.7,8.7l-8.7,4.1l-5.4-3.3
	l-8.7-1.7l-2.9,5H357v17.7l-9.1-3.1l-35.5-9.3l-18.6-1.7l-3.7-4.5V832l8.7-19.4l0.4-2.5l-9.1-2.5l-7.4-0.4l-5.8,4.1l-7,1.2h-2.5
	l-8.3,5.4l-5.4-0.8l-5-5.8l-9.1-2.5v-6.6l-5-7l3.7-7.8l2.9-7l0.8-2.9"/>
<polyline class="st1" points="483.7,895.5 474.7,892.6 470.9,885.4 466.8,880.7 460.2,880.7 454,874.1 452.4,868.1 440.4,871.2 
	440.4,881.8 438.1,884.3 433,881.8 426.6,874.9 421.8,874.9 417.3,862.5 417.3,855.5 419.3,849.3 417.3,845.6 411.5,845.6 
	404.1,845.6 399.2,840.7 "/>
<path class="st1" d="M239.8,808.8l-10.3,9.5l-3.3,6h-3.7l-4.5,4.7l-5.8,2.9l-2.9,8.7v2.4l2.1,4.5l1.2,6.6l-0.8,2.9
	c0,0-5,1.7-6.2,1.7s-5.8,0-5.8,0l-2.5,5.6l-5-1.9l-2.5,8.7l-3.3,3.7h-7v7l-3.4,2.4l-3.6-2.8l-4.1-2.1l-6.2-0.8l-2.5-7.4h-3.3"/>
<polyline class="st1" points="197.3,864.4 198.1,874.1 203.5,877 203.5,881.5 208,881.5 210.5,881.5 215,884.3 222.9,891.8 
	232.4,898.8 239.8,895.5 246,891.8 258.4,893.5 268.3,889.3 273.2,893.1 281.1,895.5 283.1,884.3 281.5,871.2 286.4,854.7 
	290.1,852.6 "/>
<polyline class="st1" points="219.5,888.6 213.4,901.3 213.4,905 213.4,910.8 213.4,915.8 208.4,915.8 197.3,915.8 191.5,919.1 
	186.9,925.2 186.9,931.9 189,936 188.8,943.4 "/>
<path class="st1" d="M283.1,895.5l7,5.4l2.5,8.7l1.7,6.4l9.9,3.9l4.5,4.5l-3.3,5.8l-3.3,7.4c0,0,0,7.4,0.4,8.7s-0.8,8.7-0.8,8.7
	l0.8,5.4L298,969c0,0,0.4,9.5,0.4,10.1c0,0.6-2.5,6-2.5,6l-2.1,2.6"/>
<path class="st1" d="M308.7,927.7l12.8,2.1l5.6-7l8,3.5c0,0,12.4,4.7,13.6,3.5s13.6-3.4,13.6-3.4s6.6,4.6,7,5.5s3.3-2.9,6.6-4.5
	s8.7,0.1,9.9,0.1c1.2-0.1,8.3,4.6,8.3,4.6l8.3,1.1c0,0,3.7,1.2,5.8,1.7s9.1-2.9,9.1-2.9l3.7,9.8l3.3,8.8l2.3,9.1l4.7,4.5l-4.7,5
	c0,0,7.2,7.8,7.6,10.1c0.4,2.3,1.7,12.2,1.7,12.2v7.6"/>
<path class="st1" d="M421.8,874.9h-8.3v4.1c0,0-1.2,2.7,0,5.3s2.1,4.3,2.1,4.3h-7.4l-3.3,7v5.4l3.3,5.4v5.4c0,0,2.1,6.2,2.1,7.8
	s-1.2,6.6,0.4,8.7s6.6,3.7,6.6,3.7"/>
<path class="st1" d="M215.8,954v5.5l-9.1,9.5v10.1l-3.5,10.9v5.6l3.5,3.3l9.1-5.2l3.6,1.9v6.4l2.6,6.6l1.7,2.5l-4.2,7l4.2,2.9
	l-4.2,7.8c0,0-1.3,2.1,0,3.3c1.3,1.2,2.6,2.1,2.6,2.1l-6.2,4.1h-2.4l-5,6.2l-5.2,1.7l-7.2-3.7c0,0-5.4,0-7,0s-6.2,1.2-6.2,1.2v5.8
	l-1.7,2.5h-5.8v6.2v6.2l-7,3.7l-2.5-2.5l-3.3-3.3l-7.8-0.8l-7.8-5.8c0,0-2.5-0.4-2.5-3.7s-5.4-12.4-5.4-12.4l-6.6,0.3"/>
<path class="st1" d="M309.1,994.2l-9.9,4.7l-3.3,3.5l-2.9-3.5l-2.5,12.2l-9.7,19.3l-6.4,2.1c0,0-2.5,16.5-1.9,17.7
	c0.6,1.2,1,9.5,0,9.5s-1,0-1,0l1,11.1c0,0,0.6,6.6,1.9,7.4s8.7,12.8,8.7,12.8h4.1l1.4,15.7l-5.6,7.8v7l2.1,4.1l3.5,2.1l6.8,2.5"/>
<path class="st1" d="M168.4,1068.1v5h3.7v10.3c0,0,2.5,3.7,3.3,5c0.8,1.2,2.7,4.5,2.7,4.5l5.6-9.1c0,0,9.9-0.8,12.8-0.4
	c2.9,0.4,12.8-2.9,12.8-2.9l10.2,3.7l6.7-0.8c0,0,5-4.5,7-2.9s8.3-6.2,8.3-6.2l6.2-4.1l4-5c0,0,5-0.8,6.7,0s8.3-2.9,8.3-2.9l6-5"/>
<path class="st1" d="M178.1,1095.7l-1.9,6.6h-10.7l-6.2,8.7l-15.7,10.3c0,0-6.6,3.3-7.4,2.1c-0.8-1.2-8.7-4.1-8.7-4.1s-4.5-7-5.8-7
	s-18.6,0.8-18.6,0.8l-5.4-10.3l-5.8-4l-4.5-5.9l-10.7-7.8v-4.1l-0.7-5.8"/>
<path class="st1" d="M219.5,1084.2l-3.6,14.6v15.2v9.8l-6.2,11.3c0,0,0.8,9.9,0,12c-0.8,2.1,0.8,14.4,0,16.5
	c-0.8,2.1-4.1,7.8-4.1,10.7c0,2.9,2.1,16.1,0,18.2c-2.1,2.1-4.6,6.6-2.3,10.3c2.3,3.7,5.2,8.3,5.2,8.3s8.9-4.1,11.1-4.5
	c2.1-0.4,14.9,2.1,14.9,2.1s0.4,1.7,5,2.5c4.5,0.8,7.8,0,7.8,0l11.1-3.7"/>
<path class="st1" d="M127.5,1119.3l-3.7,6.6v4.5l-4.3,6.2v5.4l4,3.3H94.9h-7l-9.9,7.8v9.9l-5.4,9.5l-8.7-3.7l-5-3.3l-3.7-9.1
	l-9.5-1.2c0,0-0.8-7.8,0-9.3s-1.7-7.2-1.7-7.2"/>
<path class="st1" d="M140.2,1122.8l2.1,7.6l2.9,6.6l-2.5,8.9v9.7c0,0,7.5,9.1,8.7,10.3c1.2,1.2,2.5,9.5,2.5,9.5h6.6v8l7.8-4.3v4.3
	l5.8,8.1l3.9,2.5h2.3l6.6,4.1h5.8c0,0,2.7,4.5,6.6,4.5c3.9,0,5.1,2,5.1,2"/>
<polyline class="st1" points="72.6,1172.5 85.8,1181.2 87.5,1186.3 92,1193.6 97,1193.6 99.4,1204.6 110.6,1206.8 113.9,1214.6 
	113.9,1221.6 113.9,1226.2 117.6,1229.9 113.1,1239 110.2,1244.1 "/>
<path class="st1" d="M174.2,1191.5l-5.8,8.3l2.9,11.5l-2.9,4.6l-10.7-4.6l-9.9,4.6l-5.8,2.1l-5.4,6.6l-6.6,8.3v6.2
	c0,0,0.4,7.8,0,9.1c-0.4,1.2,0,5.4,0,5.4l-0.2,2.9"/>
<path class="st5" d="M723.2,1483.7"/>
<path class="st5" d="M714.5,1489.7"/>
<g>
	<path class="st6" d="M975.9,1642l8.3-19l5-10.7l9.1-8.3h14l10.7,14.9v17.3v5.8l13.2,9.1l13.2-4.1l14.9,11.6l13.2,8.3l14.9,5l11.6,5
		l-4.9,9.9h18l10.1-5.8l17.3-14.9l5-7.4l14.9,5.8l16.5-0.8l14.9-6.6l12.4,6.6l14,6.6l-12.1,10.9l5.5,7.2l-2.5,8.3l-5,9.1l9.9,5
		c0,0,8.3,6.6,12.4,8.3s13.2,0,13.2,0l14.9,8.3c0,0,10.7-5.8,13.2,0s23.9,14.9,23.9,14.9l9.1,6.6l5.8,14.9h11.6l9.9,5.8l14.9-6.6
		l4.1-12.4c0,0,10.7-8.3,14.9-9.9l5.8-14.7l6.6-15.1"/>
	<polyline class="st6" points="1336.8,1368.3 1329.4,1358.4 1318.2,1352.2 1327.5,1344.2 1336.8,1352.2 1339.2,1341.1 
		1312.6,1299.6 1300.9,1300.2 1286,1275.5 1273,1278.6 1263.7,1279.2 1255.1,1275.5 1251.4,1281.7 1251.4,1287.2 1243.9,1283.5 
		1237.1,1275.5 1232.8,1263.7 1235.9,1258.1 1228.4,1248.8 1216.7,1242 1211.1,1245.1 1208,1247.6 1198.1,1246.4 1202.4,1219.1 
		1205.5,1196.8 1219.7,1182.6 1219.7,1168.4 1204.9,1156.6 1203.7,1144.8 1207.4,1123.2 1214.2,1123.2 1222.9,1112 1221,1095.9 
		1227.2,1083.5 1235.3,1080.4 1253.8,1094.7 1261.3,1107.1 1267.4,1116.3 1273,1121.3 1283.5,1118.2 1293.5,1105.8 1295.9,1099.6 
		1286,1080.4 1282.3,1063.7 1279.8,1060 1279.8,1060 1287.3,1060 1295.3,1050.1 1301.5,1041.4 1312,1037.1 1313.9,1032.8 
		1308.9,1024.7 1311.4,1017.9 1323.8,1014.8 1336.8,1001.2 1347.3,995.6 1347.3,985.7 1355.4,973.9 1355.4,965.3 1363.4,969 
		1363.4,960.9 1388.8,960.9 1388.8,967.1 1388.8,970.8 1395,977.6 1406.1,969 1410.5,970.2 1415.4,960.9 1415.4,957.8 1418.5,952.9 
		1428.4,948.5 1435.2,942.4 1440.8,951 1445.8,957.8 1456.9,960.3 1476.1,954.1 1482.9,955.4 1497.8,962.2 1504,970.2 1516.4,969 
		1520.7,972.7 1526.3,981.4 1538,986.9 1546.7,985.7 1551,988.8 1551,996.8 1548.6,1003 1560.9,1002.4 1560.9,995 1556.6,987.6 
		1555.4,980.1 1548.6,975.8 1557.2,971.5 1572.1,974.6 1578.9,978.3 1578.9,986.3 1590.7,987.6 1596.2,987.6 1599.9,989.4 
		1602.4,992.5 1609.2,993.1 1617.9,982 1622.9,972.1 1622.9,962.8 1632.8,959.1 1636.5,951.6 1645.8,954.7 1648.9,949.2 
		1648.9,942.4 1656.9,942.4 1666.2,938.6 1674.9,944.2 1680.4,948.5 1684.8,948.5 1689.7,945.5 1696.5,942.4 1696.5,930.6 
		1696.5,927.5 1705.2,927.5 1710.8,925 1716.3,920.1 1730.6,924.4 1733.7,934.3 1736.8,939.3 1748.5,943 1756.6,945.5 1770.8,943.6 
			"/>
	<polyline class="st7" points="693,300.7 686.4,302.4 686.4,295.8 674.9,295.8 658.3,295.8 653.4,303.2 646.8,295.8 634.4,295.8 
		621,300.6 622.8,305.7 627,313.1 615.4,313.1 609.6,317.2 601.4,333.7 592.3,333.7 	"/>
	<path class="st6" d="M721.9,285c0,0,2.5-7.4,5.8-9.1s19-5,19-5l9.1,7h13.5l8.8-24.4l-8.8-17.3v-9.9h-8.6l0.8-14.9l2.5-19h-5.8
		l-16.5-4.1l-12.4-9.1l-7.4-14v-14.9l-5-4.1v-11.6l-6.6-9.1v-7.4h9.9l9.1-12.4l-0.8-14"/>
	<polyline class="st6" points="371.5,480.7 368.2,453.4 384.7,441.1 391.7,428.7 402.4,421.6 408.6,414.5 402,402.3 	"/>
	<path class="st6" d="M791.9,1366.3v-14.2l5.6-5.8h-5.6v-8.5l7.4-4.7l-2.5-11.4h15.9l6.4-11.1l5.6-8h5l9.3,1.2h7.4l11.1,4.3
		l18.6-2.9l-3.7-7.6l-0.6-11.1l3.1-17.3l-5.6-16.7l-6.2-4.3l3.7-13l10.5-4.3l1.2-7.4l-13,2.3l-6.8-12.8l14.7-0.5l12.6-20l-6.8-8
		c2.5-4.3,2.5-12.6,2.5-12.6h-9.1l-8.3,4.1l-7.4-8.3v-4.1l-18-5.8l-5.2-5.8l-9.9,4.1l-14-11.6h-8.3l-9.7-8.3l-9.3,7.4l-10.7-7.4H762
		l-4.1-18.2l-6.6-9.9l-29.7,10.7l-11.6,2.5l-9.1-5l-10.7-8.3l-16.5,5.8l-10.7-5.8l-5.8-10.7l4.1-15.7l-4.1-16.5l-9.9-9.9l-5-9.9
		l-11.6,5.8l-21.5-5.8l-5-24.8v-7.4l5.8-4.1l0.8-9.9l-6.6-6.6V976l-17.3-16.5h-12.4h-17.3l-5.8,5l-11.6-5l-14.9-4.1v12.4l-14.9,9.9
		l-12.4-5l-9.9-17.3v-15.7l-4.1-9.9l5.8-6.6l-5.8-16.5v-14h17.3l4.1,8.3l12.4,1.7l18.2-16.5h8.3l-1.7-9.9l-13.2-12.4l6.6-4.1l-8.3-5
		l-8.3-5.8h-15.7l5-14l-4.1-9.1l-14.9-11.6l-5.8-13.2v-9.1l-4.1-13.2l-9.1-10.7l5-9.9l5-12.4l-2.5-17.3l2.5-15.7l-9.9-8.3v-10.7
		l-28.1-9.9l-8.3,6.6h-10.7l-5.8-1.7v-12.4l-14-9.1h-8.3l-4.1-9.1h-13.2h-6.6l5-14l-0.8-17.3l-3.6-21.8l-15.4-8.8l7.4-19l4.1-10.7
		l-11.6-14l-4.1-8.3l6.6-9.9"/>
</g>
<path class="st2" d="M55.7,253.7"/>
<g class="st8">
	<polygon class="st9" points="724.4,1490.3 745,1498.6 761.5,1494.5 761.5,1477.1 773.9,1467.2 778.9,1448.2 786.3,1448.2 
		793.7,1448.2 793.7,1440.8 793.7,1433.4 802.8,1443.3 811.9,1445.8 800.3,1433.4 803.6,1429.3 800.3,1425.1 787.1,1416.9 
		778.1,1416.9 769,1397.9 782.2,1397.9 792.9,1392.1 797.9,1397.9 811.9,1398.7 802.8,1392.1 803.6,1383.8 816,1383.8 830.1,1375.6 
		840,1369.8 848.2,1369.8 848.2,1360.7 844.1,1352.5 832.5,1352.5 822.6,1358.3 807.8,1361.6 814.4,1352.5 822.6,1352.5 
		811.9,1348.3 802.8,1359.1 788.8,1364.9 778.1,1365.7 765.7,1365.7 757.4,1366.5 751.6,1377.2 747.5,1381.4 742.6,1376.4 
		726.9,1383 721.9,1391.3 717,1390.5 700.4,1392.1 690.5,1399.5 683.1,1396.2 672.4,1396.2 658.3,1407 646,1414.4 646,1402.8 
		640.2,1414.4 633.6,1417.7 623.7,1423.5 618.7,1428.4 612.1,1434.2 608,1439.2 608,1444.9 608,1457.3 615.4,1465.6 627.8,1469.7 
		629.4,1476.3 626.1,1485.4 648.4,1498.6 666.6,1489.5 673.2,1490.3 683.1,1488.7 704.6,1489.6 707.3,1489.7 	"/>
	<path class="st9" d="M705,1494.1l-4.5,2.5l-3.1,4.3l-1.2,3.4v7.7l1.7,2.5c0,0,1.4,2.5,0.9,2.9c-0.5,0.5-4.2,1.5-4.2,1.5
		s-10.4-0.2-12.4,0c-2,0.2-12.8,1.1-12.8,1.1l-2.8-1.2c0,0-5.3-7.1-6.2-7.4c-0.9-0.3-7.7-1.5-7.7-1.5l-7,1.9l-3.1,5.7v4.8h-7
		c0,0-2.5,4-2.6,4.6c-0.2,0.6-3.6,1.4-3.7,1.9c-0.2,0.5-0.9,4.2-1.2,4.6s-7.4,0-7.4,0l-12.7,0.2c0,0-6.5,1-7.4,1.7
		c-0.9,0.6-8.7,7.1-8.7,7.1l-6.8,8.4l-4.3,4l-8,4l-10.2,3.1h-9l-5.9-5.3l-5.3-3.1l-7.1-5l5.3-3.7c0,0,3.4-3.7,3.4-4.6
		s-0.3-12.2-0.3-12.2l3.7-6l-4.3-16.1l-4.3-7.2l-8.7,3.2l-14.6-15.2h-12.1l-9.6-1.5v-3.4l8.7-7.4l10.8-6.2l13.3-10.8l18.3-5.9
		l6.2-1.9c0,0,7.1-3.4,7.7-3.1c0.6,0.3-2.8-3.1-2.8-3.1l-5-2.5l-7.1-5.3l-9-8.4l-5-1.2l-29.1,5.9l-7.1-2.8l-14.2-5.6l-4.6-8.7
		l-11.5-4.6l11.5-6.2l-4.3-5.9c0,0,10.8,0.6,13,0c2.2-0.6,4.3-3.1,4.3-3.1l-3.4-2.5l-9.6-5.9l-4.3-6.2l-1.2-5.9l-3.7,10.5l-0.9,1.5
		l-13.6-2.8h-3.7l4-9.3l0.9-3.1l-9.6,13.6c0,0-1.2,0-2.8,0.3s-10.2-1.5-10.2-1.5h-10.5l-10.2,6.5l-5,6.8c0,0,0.3,8.4,0,10.2
		c-0.3,1.9-9.3,9-9.3,9l-5.6,7.1l-17,13.6l-14.2,14.2l-12.4,10.5v4.8l3.1,7l-10.5,10.1v14.9l-4.3,9.7l-6.6,5h-18l-3.9-5l-2.5-9.7
		h-6.2v9.7v11.1l-6.2,3.7l-3.7,6.8l-3.7,9.3l-3.1,4.3l-3.1,8.7v14.9l-4.1,11.1l-4.7,11.8v12.4v6.2l-9.5,4.3h-8.3h-9.3l-10.5,12
		l-5,14l-3.1,14.2l-2.5,5.6h-8.7l-6.7,9.5l-8.8,7.8l13.6,3.7l1.9,4.3l2.5,11.8l6.8,5l6.2,10.7l-3.1,10.3l0.6,8.7l3.1,11.8l11.8,16.1
		l8.7,5.6c0,0,9.3,6.8,11.1,8c1.9,1.2,18,7.4,18,7.4l-6.2,5.6l-2.7,8l-17.7,5.6L239,1790c0,0-9.3-5.6-12.4-6.2
		c-3.1-0.6-18,6.2-18,6.2l-13-5l-12.4,1.2c0,0,0,4.3-2.5,8s-12.4,11.1-12.4,11.1s-4.3,5.6-6.2,6.8c-1.9,1.2-14.2,2.5-14.2,2.5
		l-5,11.8l14.9-3.7c0,0,11.1,3.1,10.5,3.7s-3.7,1.9,0,5c3.7,3.1,9.3,5.6,11.1,5.6s8.7,0,8.7,0l5-10.5c0,0-1.2-6.2,3.1-5
		c4.3,1.2,6.2,5,6.2,5l0.6,4.3c0,0-3.1,2.5,0,3.7c3.1,1.2,8,3.7,9.9,2.5c1.9-1.2,3.7,0.1,8,0.3c4.3,0.3,6.2,2.1,13.6,2.8
		c7.4,0.6,11.8,0,11.8,0s3.7-1.3,8,0.3c4.3,1.6,8,0,8,0l-6.2-5.2v-5.6l5-5.6c0,0,5.2,0,6.6,0.6c1.4,0.6,8.9,2.5,8.9,2.5h5.6h7.4
		c0,0,3.1,0,5,0s5.6-1.2,7.4-1.2s-1.2,0,6.2-0.6c7.4-0.6,13.4-2.5,13.4-2.5l-9.1-3.7l-16.1-5h-3.7l-9.3-2.5l-3.1-1.2l-1.2-3.7l3.1-5
		l1.2-4.3l1.2-5c4.3-2.5,9.3-4.3,9.3-4.3l5.6-1.9c0,0,5,2.5,10.5,3.1s5.8-0.6,11.6,1.2c5.8,1.9,0.8,1.2,5.8,1.9
		c5,0.6,10.5,0.6,10.5,0.6l7.4-1.2c0,0,2.3,1.9,7,2.5s4.7,0.6,10.3,3.1s5.6,2.5,5.6,2.5l1.2,3.7h17.3c0,0,0.6,0.6,3.1,0
		s9.3-2.5,9.3-2.5l1.2-3.7l3.7-5.6v-3.7l5-3.7l7.4-0.6c0,0,6-4.3,7.4-4.3s6.3-1.2,6.3-1.2s3.7-1.9,7.4-3.7c3.7-1.9,6.8-5,6.8-5
		l3.7-1.9c0,0,2.5-0.6,4.3-2.5s4-3.7,4-3.7s8.4-3.7,10.2-3.7s10.2-2.5,10.2-2.5l11.5-4.3l8-2.5l9.3-3.1l18.6-6.2
		c0,0-0.6,3.1,5.6,3.7s12.4,0,14.2,0.6c1.9,0.6,0.6,0,6.8,1.2c6.2,1.2,9.9,0.6,11.8,1.2c1.9,0.6,3.1,0,6.2,0.6
		c3.1,0.6,14.9,1.2,14.9,1.2h8c3.7,0,9.9-0.6,9.9-0.6l6.2-3.7l6.8-4.3l4.4,7.4l7.9-0.6l-7.9,4.3v6.8l4.9,5c0,0,3.7,2.5,5,4.3
		c1.2,1.9,3.7,4.3,3.7,4.3l6.2,1.9l5.6,2.5c0,0,2.5,0.6,4.3,0c1.9-0.6,6.2-1.9,6.2-1.9s3.1-3.1,5.6-4.3c2.5-1.2,6.8-3.1,6.8-3.1
		l3.1,1.9c0.6,4.3-0.6,9.9-0.6,9.9v3.1l7.4,9.3c0,0,3.7,3.1,4.3,5c0.6,1.9,3.7,5,3.7,5l5,2.5l5.6,2.5l9.1-1.9v-5l9.4-0.6l3.1,4.3
		l5.6,1.9c-1.2,3.7,0,6.8,0,6.8l5,2.5c0,0,5.6,0,7.4,0.6c1.9,0.6,8.8,3.7,8.8,3.7l6.7,3.7l8-0.6l3.7-2.5v-4.3l6.2,6.8l6.2,4.3
		l3.1,1.2l16.1,3.7l3.7,1.2l14.2,1.9l9.3-3.7l8-3.1l8-3.1l16.1-2.5l9.3-4.3l5,5.6l10.5,2.5l18,3.1l5.6,1.9l11.1-4.3
		c0,0,6.2-4.3,8-4.3c1.9,0,16.1-0.6,16.1-0.6l4.3-9.9l9.7-2.5l12-9.9l14.1-9.9l2.6-4.1l8.7-14.2l3.7-12l-3.1-16.7l-9.3-9.9v-12.4
		l-2.6-15.5l-6.7-12.4l-11.1-3.7l-5.6-7.2l-12.4-5.6l-4.3-8.7h-8.3H920l-4.3-8h-12.4l-0.6-10.1l-16.7-4.3l-8.7-11.1L868,1621
		l-29.7-27.2l-10.5-10.5l-8.7-4l-14.2-5.3l-10.5-6.8l-6.8-8.7l-9.3-6.8l-8-6.8l-6.8,3.7h-6.2l-6.2-3.7l-6.7-6.2l-2.6-9.3l-3.1-6.8
		l-4.3-9.3l-6.2-3.1l-5,8.7l-8.7,3.7l-4.1-6.8l-2.7-6.2l2.7-6.8l4.1-4.1v-5.2"/>
	<path class="st9" d="M506.4,333.7v-13l-9.1-25V285l9.1-10.7v-6.6l16.8-13.2l6.3-8.3l8.7,15.7c0,0,1.2,0,4.5,1.7s14,8.3,12.8,11.6
		s2.5,9.9,2.5,9.9l7.8,5c0,0,6.6,6.6,10.7,11.6c4.1,5,5.4,13.2,5.4,13.2l3.7,6l6.6,18.4l-2.1,20.2l-8.2-7.4v11.6l-5.4,9.1l-8.3,4.1
		l-5.8-8.3l-17.7,1.7l-6.6,12.4v5.8l-4.5,3.3l-14-3.3l-2.5-7.4l2.5-13.2l-0.8-6.6l-1.7-5.8l-2.5-10.7"/>
	<path class="st10" d="M661.3,167.8l8.6,11.6l16.5,9.1l14.9,10.7c0,0,2.5,8.3,2.5,10.7s-2.5,19-2.5,19l-1.3,8.1l7.1,18.3v9.1l7,9.5
		l11.1,11.1c0,0-3.5,5.9-4.5,10.7c-1,4.9,0.4,8.7,0.4,9.9c0,2.5-10.7,5.4-10.7,5.4l-2.9,8.7l-14.2,5l-0.2-9.9l0.2-5.8l-6-23.9
		l-20.6-8.7l-15.7-23.5l5.7-6.6v-7.4l-9-11.9L667,233l1.2-3.3l-21.5-13.2l-10.7-13.2v-9.1l12.4,17.3l8.2,5c3.4,2.5,7.5,1.2,7.5,1.2
		l-2.9-18.6l3.1,9.1l9.6,5v6.6l6.7,4.1l10.6,4.3l5.1-6.3l-3.3-9.1l-3.7-7.8l-8.7-5l-6.7-5.8l-5.7-5.8l-7-5"/>
	<path class="st9" d="M533.7-452.6l10.8-9.8l8.4,2.7c0,0,1.4,14.9,4.7,14.9s13.2,0,13.2,0l5.8,4.1v7.4h11.2l4.4,8.3l5,6.6v6.6
		l-9.4,3.3h-9.6c0,0,2.5,8.3-0.8,9.1s-12,0-12,0l-11.1,0.4c0,0-14.9-5.3-15.7-6.1s-5-3.3-5-3.3l10.7,9.4c0,0,5.8,4.6,5.8,7.1
		s-1.7,9.9-1.7,9.9l16.9,3.3h4.5l9.9,5.8l17.3,11.6h13.2v-5.8c0,0,7.4-2.5,6.6-5s-3.3-9.9-3.3-9.9l18.4,12.4l5,2.5
		c0,0,5.6,5,5.6,5.8s0,6.6,0,6.6l-5.6,3.1l-13.4-3.1l13.4,13l18,6.2c8.3,4.1,4.1,7.2,4.1,7.2s7.9,5.9,8.3,0
		c0.3-4.7,8.4-9.6,13.2,5.8l17.1,2.5l5-3.1l7.6,3.9c0,0,30.5,20,33.8,23.3s26.4,24.6,26.4,24.6l21.9,23.1c0,0,12,9.1,14.4,9.9
		s19.8,13.2,19.8,13.2s2.5,0.8,5.8,0s14.9,19,14.9,19l14,5c0,0,6.6,0.8,6.6,3.3c0,2.5,0,16.5,0,16.5l4.1,9.1v7c0,0,5,6.6,5.8,9.9
		c0.8,3.3-1.9,18.4-4.3,21.7s-19.6,32-19.6,32s1.7-6.2-5,3.3s-18.2,15.3-18.2,15.3h-5c0,0-5,3.3-9.9,5c-5,1.7-15.7,6.6-15.7,6.6
		s-10.7,0-13.2,0s-13.2-4.1-15.7-5c-2.5-0.8-6.6-4.1-6.6-4.1l-14.9-5c0,0-5.8,0-12.4-1.7c-6.6-1.7-18.2-4.1-18.2-4.1l-9.1-4.1
		l-6.8-2.9l-8.9-3.3l-9.1-8.3L674-117l-4.1-2.5l-11.6-4.1l-10.7-4.1l-4.1-2.5l-7.4-7.4l-10.7-5.8l-8.3-7.4l-5-4.5l5,19.4l5,5.8
		l6.6,5l13.2,10.7l1.7,8.3l-3.3,7.8l-4.1,3.7c0,0,5.8,3.3,8.3,3.3s8.3,3.3,8.3,3.3l8.3,3.3l5.8,4.1l8.3,9.1l2.5,5c0,0,5,0.8,3.3,5
		c-1.7,4.1,0.8,5,0,9.1s0.8,5.8,0,8.3c-0.8,2.5,2.5,3.3,0,5.8c-2.5,2.5-5,6.6-5,6.6l-1.7,5l-4.1,4.1l-5,3.7l3.3,9.5l12.4,19.8v6.6
		V25v6.6v9.1l4.1,12.4l9.1,5.8h9.7L715.3,72l5,9.1l1.7,6.6l18.2,7.4h10.7l1.7,8.3c0,0,5,3.3,7.4,0c2.5-3.3,11.6-8.3,11.6-8.3
		l6.6-3.3v-14l-3.3-5.8v-7.4l-4.1-7.4l-8.3,3.3l-8.9-0.4l-5.3-2.5l-5.3-5.3l-8-15.8l-3.4-5l-3.4-1.5l0.3-6.2l-0.9-8.7
		c0,0-0.3-1.2,1.5-0.9c1.9,0.3,8.7,0.3,8.7,0.3s3.1-5.3,3.1-6.2c0-0.9,1.2-8,1.2-8l2.2-2.2c0,0,4.6-0.3,6.2-0.3s9.6,3.4,9.6,3.4l5,4
		l4,3.4c0,0,0.3-0.9,0.3,2.2s0,3.1,0,3.1l7.4,4.3c0,0,4,0.9,5.6,1.5s9.6,2.8,9.6,2.8s2.2,2.5,2.2,3.7s0.3,2.8,0.3,2.8
		s6.2,0.9,7.1,1.2s2.5,0,5,0.9c2.5,0.9,8,1.9,8,1.9s2.2,0.9,3.1,1.5s4.6,0,6.2,1.5s2.8,3.1,5,4s4.3,0.9,5.6,1.5s1.2,0.6,1.2,0.6
		l3.7-5.9l1.5-1.5l4,0.3c0,0,5.3-0.6,6.2-0.3c0.9,0.3,5.3,0.9,5.3,0.9l1.2,5h2.5l2.2-0.9c0,0-0.6-5.9-1.2-7.1
		c-0.6-1.2-2.5-5-3.4-6.2c-0.9-1.2-3.1-5-4.3-7.4s-4.3-8-4.3-8s0.3-3.7-1.2-5.9c-1.5-2.2-3.1-4-4.3-5.3s-4-4.3-4-4.3l-8.4-14.9
		l-1.9-2.5l3.1-14.9l4-4.3l13.3-6.2l3.4-5.6l6.5-11.5l2.8-2.8l11.3-4c0,0,7.6-3.4,8.5-4c0.9-0.6,7.4-6.2,7.4-7.1s6.5-10.8,6.5-10.8
		L907-110h5.9l4.6,4.4v2.5l13.3-0.6l4.6-2.2l4.6,2.5l3.1,5h5.9l2.2,4.6v1.9l-3.1,2.8l-2.8,2.8l1.4,1.2l6-3.7h2.2
		c0,0,3.1,1.2,3.4,2.2s3.7,4.6,4.3,5.6c0.6,0.9,1.5,2.5,1.5,2.5v1.9v-9.9c0,0-1.9-7.4-1.9-9s0-5.9,0-6.8s6.5-11.5,6.8-12.4
		s0-17,0-17l0.1-13.6l-1.7-8.7l-5.6-8l-10.5-2.5h-4.7v-12.7l4.7-17.7l3.7-21.7l-0.6-10.5l1.2-14.9l-0.6-7.4l-5.6-8.7l-9.9-8.7
		l-6.2-6.8L929-278l9.7,0.6l8.3,5.6l15.9-2.5h16.7l11.1-1.2l8.7,1.9l5,6.2v6.8c0,0,6.8,6.8,9.3,7.4s7.4,5.6,7.4,5.6v6.8l5.6,7.4
		l3.1,6.2l-3.7,2.5l-8,0.6c0,0-0.6,0.6-3.1,2.5s-8,5.6-8,5.6l-7.4,0.6l-8.7,3.1l0.6,8l-3.1,1.2l-4.5,1.2c0,0,1,5.6,0,7.4
		c-1,1.9,0,5.6,0,5.6l3.9,6.2l7.2,5.3h10.1l2.5,5.3l0.6,6.8l4.3,5l6.8,8l4.3,5l6.2-2.5l5,1.9v5.6l3.1-5c4.3-2.5,13-5.6,13-5.6
		l9.3-2.5l3.7-3.1c0,0,2.5-6.2,2.5-8s0-10.8,0-10.8v-5.3v-9.9v-6.8v-10.5l9.3-6.8c0,0,2.5-3.7,6.2-3.7c3.7,0,6.8-1.2,6.8-1.2
		l5.4-2.5l-3.5-6.8l-5.6-7.4l6.2,0.6l6.2,0.6l20.2-16.7c0,0,5.2-4.3,7-8c1.9-3.7,8-18.8,8-18.8l10.5-7.2l12.4-5.6l6.8-8l9.3-8.7
		l5,3.7l10.5,12.4l-3.5-14.2l-2.7-8c0,0,4.3-5.6,6.2-8.7c1.9-3.1,6.2-7.4,6.2-7.4l3.1,8l5-8v-8c0,0,3.1-0.6,5.6-3.7s1.2-3.7,5-5.6
		c3.7-1.9,10.5-5,10.5-5l-7.4,12.4c0,0,6.8,7.4,7.4,8s0,3.7,0,3.7s-0.7,3.7,0.3,6.8c1,3.1,0,5.6,0,5.6l3.4,4.3c0,0,0.6,1.2,0,3.1
		c-0.6,1.9-4.3,6.8-4.3,6.8l-9.3,5l-3.1,3.1c0,0-1.9,3.1-0.6,5c1.2,1.9,1.2,1.9,1.2,1.9l9.9-0.6l10.5-2.5c3.7-3.7,6.2-4.3,6.2-4.3
		l3.7-1.2l11.1-0.6c0,0,5-4.3,5-6.8c0-2.5-0.6-8.7,0-11.8s3.7-8.7,4.3-10.5c0.6-1.9,3.1-3.7,8-6.8s5-3.1,5-3.1s8-5.6,10.5-4.3
		s5,1.9,7.4,1.9s9.9-0.6,9.9-0.6l8-2.5l6.2-3.7l3.7-9.3l16.1-22.9l13-9.3l6.2-0.6c0,0-1.9,5.6,0,6.8s8.7-0.6,8.7,3.1s0,5,0,8
		s1.9,8.7,0,11.8s-0.2,5,0.8,7.4c1,2.5,4.1,5,4.1,5l5.6,1.2l6.8-3.1l3.1-4.3l-2.5-9.3c0,0-2.5-9.9-3.1-11.8s5.6-1.9,5.6-1.9l6.8-1.2
		l5.6-7.4l3.1-4.3v-6.8l3.7-3.7c0,0,1.2-4.3,0-6.8c-1.2-2.5-2.5-8.7-2.5-8.7s0-4.3-3.1-3.1c-3.1,1.2-8,0-8,0l-8.7-18l-6.2-7.4
		l-6.8-5.6l8.7-6.2l-0.6-4.5c0,0-3.1-2.9-5.6,3.9s-5.6,5.6-5.6,5.6l-3.1,2.5l-6.2,2.5h-3.1l-2.5-5.6v-3.7l-1.9-5.2h-8l-0.6,8.9
		l-20.4-16.1l-5-5l-1.2-7.4l-0.6-6.8l1.9-4.3l0.6-6.2h5v-6.2l-3.7-4.3h-8.7h-34.7c0,0,3.1,8.7,3.1,10.5c0,1.9-5,5-5,5l-7.4,2.5
		l-15.5-1.9l-9.3,1.2h-14.9c0,0-1.9,1.9-0.6,3.7c1.2,1.9,1.2,6.8,1.2,6.8l-6.8,1.2l-11.8-7.4l-11.1-1.2c0,0-7.6,2.5-10.9,1.9
		s-8.3-5.6-8.3-5.6l-1.9-6.8l-1.2-6.2l-9.3-3.7H731.8H507.1h-32.8v37.8l9.3-6.8l5.6-1.9v5.6c0,0-1.9,3.1-1.9,5.6s0,7.2,0,7.2l-5,5.8
		l-2.5,3.1l6.2,7.4c0,0-9.3,6.2-6.8,6.2s13-6.8,13.6-8.7s4.5-8.7,4.5-8.7v-5.2l6.6-3.5l2.5-5.6l2.5-6.8l6.8-1.9l4.3-5.6l3.7-1.2
		l3.1,0.6l3.1,4.3c3.1,3.7,3.1,3.7,3.1,3.7s1.2,2.5,1.2,5s-2.5,6.2-2.5,6.2l-3.1,4.7c0,0-1.2-0.2-3.1,0c-1.9,0.2-1.9,0.2-1.9,0.2
		l-8,9.9c0,0,9.9-4.3,9.9-1.9s-3.7,5.6-3.7,5.6s-1.2,3.1-2.5,5s-3.7,3.1-3.7,3.1l13-7.4l0,0"/>
	<path class="st9" d="M773.9,465.1l9.1,6.5l6.4,7l8.5,9.5l2.7,10.7l13,5.4c0,0,8.3,1.2,8.3,4.5s-4.7,10.7-4.7,10.7l-5.2,3.3
		l-0.8,11.1l-4.5-7c0,0-8.3-5.8-6,0c2.3,5.8,0,7,0,7l-11.1-7l-15.5-13.2l-6.9-19.6l4.9,4.3l13.6,5.8"/>
	<path class="st9" d="M55.7,253.7l125.5,4.1V271l-5.8,7.4c0,0,19,9.9,22.7,11.6s3.7,1.7,3.7,1.7l6.6,11.6c0,0-0.8,10.7,0,11.6
		s10.7,0,10.7,0l-14,6c0,0-3.3-1.9-3.3,3.9s-3.3,9.1,2.5,9.1s5.8,0,5.8,0l0,0l9.1-5v-8l3.3,3.9l9.9,9.1l-6,5.4l-4.7,7.8h10.7l12-7.8
		v7.8h15.3l8.3-7.8l9.9-5.4c0,0,4.1,0.1,5.8,5.4s8.3,7.8,8.3,7.8l11.1-7.8h9.5h5l7.4-5.4h4.1h16.5v-5c0,0,4.1,0,7,0
		s13.6-4.1,13.6-4.1h9.1h4.1l12.4,4.1c0,0,19-1.7,21.5,0s18.2-8,18.2-8l3.3-1.9c0,0-2.5,5-3.3,9.9s0,10.4,0,10.4l10.2,7.8v7.4l8,5.8
		l7.4,4.1h17.3v7.4c0,0,0.8,4.1,6.2,7.4s13.6,9.1,13.6,9.1s-6.6,4.1-10.3,3.3s-15.7-3.3-15.7-3.3l-13.6-7.4l-8.3-2.5l-4.7,9.9h-14.9
		l-7.1,3.3l-7.1,0.1l-4.1-3.4l-5.8,3.3l5.8,7.2l-11.1,12.6l-27.7-4.1l-9.4-5l-7.5-10.7h-5h-14.4l-20.6-3.3l-16.5,3.3h-13.2l-7.8-3.3
		l-13.6,3.3l-16.9,7.2l-12,3.5l-6,9.1l-4.7,6.6l4.7,8l6,5.2v4.1h-9.9l-1.7,5.8v14.7l5.6,2.7v6.7l8.5,5.7l5,5l4.5-6.6l7.8-4l0.8,4.9
		l-3.3,13.2l-2.5,10.7l-2.9,5.6l-4.5,20v14.4l-5,11.1l-2.5,4.1l-6,6.5l-10.5,7.5h-17.7l-6.2-7.5l-0.8-17.7l-13.2-18.6l-5.8-9.1
		v-10.9l-9.1,4.7l-26.8,3.7h-7.8l-4.1,11.6l-7.4,7.4l-4.1,11.1l-5.8,11.1l-9.9,6.5c-4.1,5-10.3,33.3-10.3,33.3v14l-6.2,20.4
		l0.8,10.3l-1.7,17.2l1.7,9.5H73l1.7,9.7v10.2l-6.6,13.2H59l-13.2-7c0,0-5-0.9-8.3-1.9c-3.3-1-7.4-3.5-9.9-4.3s-10.7-5-10.7-5V493.9
		l5-15.3l8.3-13.5h16.5l3.3-9.4l-4.1-6.4l-8.3,1.7c0,0-4.1-1.7-6.6-1.7s-14,3.3-14,3.3v-85l15.7-6.6l14-5.8h9.1l-9.1-21.5
		c0,0,7.4-4.1,9.1-5c1.7-0.8,5-2.5,8.3-4.1c3.3-1.7,8.3-5.8,8.3-5.8l7.4-4.1l-4.1-19L73.8,285h-5.8l-6.6-11.6"/>
	<path class="st9" d="M1344.8,1366.3l9.9-18l19.8-6.6h21.1v-16.1l9.9-7.4l22.2-8.7l8.7-19.3h12.4h12.4h9.9l13.4,8.2l6.5-8.2h27.2
		h18.6l14.9,5.7c0,0,6.2,5.6,8.7,9c2.5,3.4,6.2,13.3,6.2,13.3s-2.5,5.2,0,10s0,14.7,0,14.7v11.1l18.6,8.4l16.1,5.8l14.9,3.1l9.9,4.4
		l6.2,7.9l8.7,6.2v13l6.2,6.8l-8.7,13.6l-7.4-8.7l-7.4,8.7l-11.1,6.2l-8.7,9.9l1.2,6.8l-6.2,20.4l-7.4,6.2l1.2,10.7l-8.7,8
		l-17.3-12.5v-7.4h14.9l8.7-12.4l3.7-28.5l8.7-7.4l1.2-11.1l-17.3-1.2l-11.1,2.5l-16.1,9.9l-18.6-9.9h-16.1l-11.1,9.9l-17.3-7.4
		l-11.4,12.4c0,0-4.7,2.5-5.9,8.7c-1.2,6.2,5.9,22.3,5.9,22.3v9.9l11.4,14.4h6.2l-12.4,9.7l-17.3-9.7h-7.4h-28.5l-8.7,14.9l8.7,10.3
		l13.6,4.3h8.7l7.4,9.3l18.3,11.1c0,0-5.2,8.7,0,11.1c5.2,2.5,7.7,9.9,11.4,13.6c3.7,3.7,11.1,20.8,11.1,20.8h8.7l3.7-5.9l9.9,17.3
		c0,0,6.2-8.7,8.7,0c2.5,8.7,9.9,13.4,9.9,13.4h11.1l7.4-6l13.6,6l7.4,26.2l-2.5,19.8l-1.2,7l3.7,29.5l19.8,16.1l9.9,8.9l-3.7-25
		l-1.2-18.4l6.2-11.1l11.1-14.4h17.3l11.1-7.4l9.9,7.4l9.9,25.6c0,0,5,10.7,11.1,11.1c6.2,0.4,24.8,7.2,24.8,7.2l13.6,10.5
		c1.2,12.4,0,19.8,0,19.8l0.6,11.1h-14.2h-16.1l-13.6,19.8l-13.6-8.7l-6.2,8.7h-19.8l-9.9-9.9l-6.2,9.9v13.6l-5,7.6l9.9,20.8
		c0,0,2.5,18.6,6.2,18.6c3.7,0,17.3-8,17.3-8h16.1l9.9-5.6l11.1,5.6h9.9l-24.8,8l5,13.6h13.6c0,0-8.7,7.4-13.6,12.4
		c-5,5-11.1,6.6-11.1,6.6l26,13.3l21.1,14l8,12c0,0,4.3,4.3,0,7.1c-4.3,2.8-6.7,13.9-6.7,13.9l1.2,12.4l7.4,12.4v13.6v13.6h-302.2
		l-6.1-44.6l14.9-2.5v-18.9v-10.8l6.2-8.3l3.7-14l2.5-21.3l9.9-9l5-6.2v-11.1v-6.2l-2.5-0.1l-19.8-5.6l-5-11.6
		c0,0-6.3-15.3-8.7-14.2c-2.4,1-13.6-10.1-13.6-10.1l-5-7.4l-14.9-21.1l-9.9-11.1l-22.3-16.7l-33.4-45.6l-16.1-14.4l-4.5-17.7
		l-14.7-20.8l-2.8-36.9l-20.1-22.3l-14.9-6.2l-7.4-8.7l-11-9.9l13.5-30.4c0,0,3.7-16.7,7.4-20.4c3.7-3.7,19.8-29.7,19.8-29.7
		l11-16.1c0,0,18.3-1.2,19.1,0c0.8,1.2,23.1-20.4,23.1-20.4l8-8l14.2-12.7"/>
</g>
</svg>
