<svg xmlns="http://www.w3.org/2000/svg" xmlns:xlink="http://www.w3.org/1999/xlink" version="1.1" preserveAspectRatio="none" x="0px" y="0px" width="4545px" height="2204px" viewBox="0 0 4545 2204">
<defs>
<linearGradient id="Gradient_1" gradientUnits="userSpaceOnUse" x1="2660.275" y1="-179.8125" x2="2228.525" y2="1743.2125" spreadMethod="pad">
<stop offset="0%" stop-color="#000000" stop-opacity="0"/>

<stop offset="100%" stop-color="#000000"/>
</linearGradient>

<image id="plan_jpg" x="0" y="0" width="2000" height="970" xlink:href="images/plan.jpg"/>

<filter id="Filter_1" x="-20%" y="-20%" width="140%" height="140%" color-interpolation-filters="sRGB">
<feColorMatrix in="SourceGraphic" type="matrix" values="0.40832362534682315 0.5073668490362969 0.08430952561688002 0 -0.054901960784313725 0.2647271609800748 0.6699509087556145 0.06532193026431075 0 -0.054901960784313725 0.2501454403542372 0.5297882044072086 0.2200663552385543 0 -0.05490196078431373 0 0 0 1 0 " result="result1"/>
</filter>

<filter id="Filter_2" x="-20%" y="-20%" width="140%" height="140%" color-interpolation-filters="sRGB">
<feColorMatrix in="SourceGraphic" type="matrix" values="1 0 0 0 0 0 1 0 0 0 0 0 1 0 0 0 0 0 0.25 0" result="result1"/>
</filter>

<filter id="Filter_3" x="-20%" y="-20%" width="140%" height="140%" color-interpolation-filters="sRGB">
<feColorMatrix in="SourceGraphic" type="matrix" values="1 0 0 0 0 0 1 0 0 0 0 0 1 0 0 0 0 0 0 0" result="result1"/>
</filter>

<filter id="Filter_4" x="-34.15945238574592%" y="-49.8406374501992%" width="168.31890477149184%" height="199.68127490039842%" color-interpolation-filters="sRGB">
<feFlood flood-color="#000000" flood-opacity="0.6862745098039216" in="SourceGraphic" result="result1"/>

<feComposite in2="SourceGraphic" in="result1" operator="in" result="result2"/>

<feGaussianBlur in="result2" stdDeviation="20,20" result="result3"/>

<feOffset dx="0" dy="0" in="result3" result="result4"/>

<feComposite in2="result4" in="SourceGraphic" operator="over" result="result5"/>
</filter>

<filter id="Filter_5" x="-21.892963330029733%" y="-45.70365962511157%" width="143.78592666005946%" height="191.40731925022314%" color-interpolation-filters="sRGB">
<feFlood flood-color="#000000" flood-opacity="0.6862745098039216" in="SourceGraphic" result="result1"/>

<feComposite in2="SourceGraphic" in="result1" operator="in" result="result2"/>

<feGaussianBlur in="result2" stdDeviation="20,20" result="result3"/>

<feOffset dx="0" dy="0" in="result3" result="result4"/>

<feComposite in2="result4" in="SourceGraphic" operator="over" result="result5"/>
</filter>

<filter id="Filter_6" x="-20%" y="-49.827414537006284%" width="140%" height="199.65482907401258%" color-interpolation-filters="sRGB">
<feFlood flood-color="#000000" flood-opacity="0.6862745098039216" in="SourceGraphic" result="result1"/>

<feComposite in2="SourceGraphic" in="result1" operator="in" result="result2"/>

<feGaussianBlur in="result2" stdDeviation="20,20" result="result3"/>

<feOffset dx="0" dy="0" in="result3" result="result4"/>

<feComposite in2="result4" in="SourceGraphic" operator="over" result="result5"/>
</filter>

<filter id="Filter_7" x="-20%" y="-45.90664272890485%" width="140%" height="191.81328545780968%" color-interpolation-filters="sRGB">
<feFlood flood-color="#000000" flood-opacity="0.6862745098039216" in="SourceGraphic" result="result1"/>

<feComposite in2="SourceGraphic" in="result1" operator="in" result="result2"/>

<feGaussianBlur in="result2" stdDeviation="20,20" result="result3"/>

<feOffset dx="0" dy="0" in="result3" result="result4"/>

<feComposite in2="result4" in="SourceGraphic" operator="over" result="result5"/>
</filter>

<filter id="Filter_8" x="-20%" y="-36.857654431512984%" width="140%" height="173.71530886302597%" color-interpolation-filters="sRGB">
<feFlood flood-color="#000000" flood-opacity="0.6862745098039216" in="SourceGraphic" result="result1"/>

<feComposite in2="SourceGraphic" in="result1" operator="in" result="result2"/>

<feGaussianBlur in="result2" stdDeviation="20,20" result="result3"/>

<feOffset dx="0" dy="0" in="result3" result="result4"/>

<feComposite in2="result4" in="SourceGraphic" operator="over" result="result5"/>
</filter>

<filter id="Filter_9" x="-20%" y="-20%" width="140%" height="140%" color-interpolation-filters="sRGB">
<feColorMatrix in="SourceGraphic" type="matrix" values="0.647386 0.310794 0.04182 0 0 0.157386 0.800794 0.04182 0 0 0.157386 0.310794 0.53182 0 0 0 0 0 1 0 " result="result1"/>
</filter>

<g id="_______9_0_Layer1_0_FILL">
<path fill="#663300" stroke="none" d=" M 4545 2204 L 4545 0 0 0 0 2204 4545 2204 Z"/>
</g>

<g id="_______9_0_Layer0_0_FILL">
<path fill="url(#Gradient_1)" stroke="none" d=" M 4545 2204 L 4545 0 0 0 0 2204 4545 2204 Z"/>
</g>

<g id="Layer5_0_FILL">
<path fill="#F4E721" fill-opacity="0" stroke="none" d=" M 4542.6 2197.65 L 4542.6 0 0 0 0 2197.65 4542.6 2197.65 Z"/>
</g>

<g id="_______6_0_Layer0_0_MEMBER_0_MEMBER_0_FILL">
<path fill="#F4E721" stroke="none" d=" M 2594.1 864.85 L 2594.1 70.45 1963.05 70.45 1963.05 864.85 2594.1 864.85 Z"/>
</g>

<g id="_______7_0_Layer0_0_FILL">
<path fill="#FFFFFF" stroke="none" d=" M 231.15 146.95 Q 233.75 145.9 236.75 145.9 241.15 145.9 243.45 148.05 245.75 150.2 245.75 154.55 L 245.75 155.6 236.9 155.9 Q 232.6 156.3 229.25 157.4 225.95 158.5 224 160.8 222 163.05 222 166.95 222 169.8 223.1 171.7 224.25 173.7 225.95 174.9 227.6 176.15 229.7 176.65 231.75 177.25 233.65 177.25 237.75 177.25 240.7 175.75 243.6 174.3 245.95 170.85 L 246.05 170.85 246.55 176.35 250.95 176.35 250.4 168.8 250.4 154.05 Q 250.4 150.95 249.35 148.65 248.35 146.35 246.55 144.8 244.75 143.3 242.4 142.55 240 141.8 237.3 141.8 232.95 141.8 229.55 143.15 226.1 144.55 224.05 146.6 L 226.75 149.85 Q 228.55 148.05 231.15 146.95 M 232.1 172.85 Q 230.7 172.5 229.6 171.8 228.4 171 227.7 169.8 227.05 168.6 227.05 166.8 227.05 164.4 228.65 162.95 230.2 161.5 232.7 160.8 235.15 160 238.25 159.75 L 245.75 159.5 245.75 162 Q 245.75 164.25 245.05 166.25 244.35 168.3 243 169.85 241.6 171.4 239.55 172.25 237.55 173.2 234.95 173.2 L 232.1 172.85 M 211.9 142.65 L 207.7 142.65 193.2 160 178.4 142.65 174.25 142.65 174.25 176.35 179.1 176.35 179.1 150.15 192.1 165.9 194.1 165.9 207 149.75 207 176.35 211.9 176.35 211.9 142.65 M 164.45 165.3 Q 164.45 162.95 163.75 160.95 163.05 158.9 161.4 157.45 159.8 155.95 157.15 155.15 154.5 154.3 150.8 154.3 L 142.4 154.3 142.4 142.65 137.55 142.65 137.55 176.35 151.05 176.35 Q 154.4 176.35 156.85 175.45 159.35 174.65 161.05 173.1 162.75 171.6 163.6 169.55 164.45 167.55 164.45 165.3 M 153.5 158.55 Q 155.25 158.85 156.55 159.65 157.85 160.45 158.55 161.85 159.3 163.2 159.3 165.3 159.3 167.4 158.6 168.75 157.95 170.15 156.65 170.95 155.4 171.8 153.65 172.15 L 142.4 172.45 142.4 158.2 153.5 158.55 M 129.9 147.65 Q 127.75 144.75 124.25 143.25 120.75 141.8 117.4 141.8 113.3 141.8 110 143.15 106.65 144.45 104.3 146.8 101.95 149.2 100.7 152.45 99.4 155.7 99.4 159.5 99.4 163.3 100.7 166.55 101.95 169.8 104.3 172.15 106.65 174.55 110 175.9 113.3 177.25 117.4 177.25 121.8 177.25 124.9 175.65 128.05 174.05 130.2 171.4 L 126.55 168.65 Q 125.1 170.6 122.85 171.8 120.65 173.05 117.4 173.05 114.45 173.05 112.05 172 109.7 170.95 108 169.1 106.35 167.3 105.5 164.8 104.55 162.4 104.55 159.5 104.55 156.65 105.5 154.15 106.35 151.65 108.05 149.8 109.75 148 112.1 146.9 114.5 145.9 117.45 145.9 120.15 145.9 122.55 147.15 124.9 148.4 126.1 150.35 L 129.9 147.65 M 63.45 142.65 L 58.45 142.65 58.45 176.35 63.45 176.35 84.15 148.95 84.15 176.35 89.2 176.35 89.2 142.65 84.15 142.65 63.45 169.05 63.45 142.65 M 13.95 130.1 L 40.3 130.1 40.3 176.35 45.5 176.35 45.5 125.35 8.8 125.35 8.8 176.35 13.95 176.35 13.95 130.1 M 253.9 41.25 L 253.9 28.3 214.8 28.3 213.3 64.7 Q 216.7 63.5 221.1 62.7 225.45 61.95 228.9 61.95 L 233.55 62.4 Q 235.9 62.8 237.75 63.95 239.6 65.1 240.75 67 241.95 68.9 241.95 71.65 241.95 76.25 239.05 78.6 236.25 80.95 232.4 80.95 228.6 80.95 225.85 78.75 223.1 76.6 222.1 73.3 L 208.35 77.5 Q 209.4 81.3 211.75 84.3 214 87.35 217.25 89.4 220.4 91.45 224.3 92.55 228.25 93.7 232.55 93.7 237.25 93.7 241.65 92.3 246.05 90.9 249.55 88.15 253 85.3 255.05 81.05 257.15 76.8 257.15 70.95 257.15 65.9 255.35 62.1 253.55 58.35 250.4 55.8 247.35 53.2 243.05 51.95 238.85 50.7 234.1 50.7 L 227.7 51.3 228.25 41.25 253.9 41.25 M 165.55 92 L 181.5 92 165 47.2 147.4 47.2 130 92 145.95 92 156.1 64.7 165.55 92 M 103.3 45.75 Q 97.8 45.75 92.55 47.6 87.3 49.5 83.35 53.3 L 90.8 61.35 Q 92.9 59.45 95.8 58.05 98.7 56.7 101.9 56.7 105.25 56.7 107.65 58.3 109.95 59.9 109.95 63.2 L 109.95 63.9 100 64.45 Q 94.85 65 90.7 66.6 86.45 68.25 83.85 71.2 81.2 74.15 81.2 79.05 81.2 83 82.7 85.7 84.2 88.4 86.6 90 89 91.65 91.85 92.35 94.75 93.1 97.45 93.1 101.5 93.1 104.95 91.55 108.45 90 110.15 87.2 L 110.4 87.2 110.4 92 123.9 92 123.9 69.4 Q 123.9 63.3 122.8 58.8 121.65 54.4 119.25 51.45 116.85 48.55 112.9 47.15 108.95 45.75 103.3 45.75 M 103.65 72.7 L 110.4 72.5 110.4 74 Q 110.4 78.25 108.05 80.7 105.65 83.15 101.15 83.15 L 98.9 82.95 96.85 82.2 95.35 80.75 Q 94.75 79.85 94.75 78.6 94.75 76.6 96.05 75.4 97.25 74.15 99.2 73.55 L 103.65 72.7 M 54.4 41.4 Q 56.65 43.4 56.65 46.4 56.65 49.8 54.3 51.9 51.95 53.95 45.85 53.95 L 36.2 53.95 36.2 64.7 45.05 64.7 Q 49.15 64.7 51.9 65.4 54.55 66.05 56.15 67.3 57.75 68.5 58.35 70.1 59 71.75 59 73.65 59 77.05 56.55 78.95 54.1 80.85 49.8 80.85 46.1 80.85 43.35 78.75 40.65 76.7 39.2 72.6 L 25.5 76.8 Q 26.5 80.4 28.45 83.45 30.45 86.6 33.4 88.85 36.4 91.1 40.35 92.35 44.3 93.65 49.15 93.65 54.4 93.65 59.1 92.25 63.75 90.9 67.15 88.35 70.6 85.8 72.6 82.05 74.65 78.35 74.65 73.65 74.65 69.7 73.25 66.95 71.85 64.2 69.75 62.4 67.7 60.6 65.25 59.7 62.75 58.8 60.5 58.5 L 60.5 58.35 Q 62.45 58 64.65 56.95 66.8 55.9 68.6 54.2 70.45 52.5 71.6 50.1 72.85 47.6 72.85 44.4 72.85 39.95 71 36.65 69.15 33.35 65.95 31.15 62.8 28.9 58.5 27.8 54.3 26.65 49.5 26.65 40.55 26.65 34.5 31.15 28.45 35.55 26.15 42.85 L 39.7 47.25 Q 41.5 39.45 48.55 39.45 52.15 39.45 54.4 41.4 Z"/>
</g>

<g id="Layer5_2_MEMBER_0_FILL">
<path fill="#F4E721" fill-opacity="0" stroke="none" d=" M 4451 864.85 L 4451 70.45 2623.5 70.45 2623.5 864.85 4451 864.85 Z"/>
</g>

<g id="_______8_0_Layer0_0_FILL">
<path fill="#FFFFFF" stroke="none" d=" M 495.85 142.85 Q 492.25 142.85 488.75 144.55 485.3 146.2 483.2 149.5 L 483 149.5 483 143.7 478.05 143.7 478.05 194.7 483 194.7 483 171.7 483.2 171.7 Q 485.3 174.85 488.75 176.55 492.25 178.3 495.85 178.3 499.85 178.3 503.05 176.9 506.25 175.55 508.5 173.15 510.75 170.8 512.05 167.5 513.3 164.3 513.3 160.55 513.3 156.8 512.05 153.55 510.75 150.35 508.5 147.95 506.25 145.6 503.05 144.2 499.85 142.85 495.85 142.85 M 495.35 146.95 Q 498.4 146.95 500.75 148 503.15 149.1 504.75 150.95 506.35 152.8 507.25 155.25 508.1 157.75 508.1 160.55 508.1 163.35 507.25 165.85 506.35 168.35 504.75 170.15 503.15 172 500.75 173.05 498.4 174.1 495.35 174.1 492.55 174.1 490.15 173.05 487.8 172 486.1 170.2 484.35 168.4 483.4 165.9 482.4 163.45 482.4 160.55 482.4 157.7 483.4 155.2 484.35 152.7 486.1 150.85 487.8 149.05 490.15 147.95 492.55 146.95 495.35 146.95 M 301.6 147.85 Q 299.25 145.5 295.9 144.2 292.6 142.85 288.65 142.85 284.75 142.85 281.45 144.2 278.15 145.5 275.75 147.85 273.4 150.25 272.1 153.5 270.75 156.75 270.75 160.55 270.75 164.35 272.1 167.6 273.4 170.85 275.75 173.2 278.15 175.6 281.45 176.95 284.75 178.3 288.65 178.3 292.6 178.3 295.9 176.95 299.25 175.6 301.6 173.2 304 170.85 305.35 167.6 306.65 164.35 306.65 160.55 306.65 156.75 305.35 153.5 304 150.25 301.6 147.85 M 288.65 146.95 Q 291.65 146.95 294 148 296.35 149.1 298 150.95 299.7 152.8 300.6 155.25 301.45 157.75 301.45 160.55 301.45 163.35 300.6 165.85 299.7 168.35 298 170.15 296.35 172 294 173.05 291.65 174.1 288.65 174.1 285.7 174.1 283.35 173.05 281.05 172 279.35 170.15 277.7 168.35 276.85 165.85 275.9 163.35 275.9 160.55 275.9 157.75 276.85 155.25 277.7 152.8 279.35 150.95 281.05 149.1 283.35 148 285.7 146.95 288.65 146.95 M 186.4 177.4 L 191.25 177.4 191.25 147.8 209.95 147.8 209.95 177.4 214.85 177.4 214.85 143.7 186.4 143.7 186.4 177.4 M 232.4 143.7 L 227.45 143.7 227.45 194.7 232.4 194.7 232.4 171.7 232.6 171.7 Q 234.7 174.85 238.15 176.55 241.65 178.3 245.25 178.3 249.25 178.3 252.45 176.9 255.65 175.55 257.9 173.15 260.15 170.8 261.45 167.5 262.7 164.3 262.7 160.55 262.7 156.8 261.45 153.55 260.15 150.35 257.9 147.95 255.65 145.6 252.45 144.2 249.25 142.85 245.25 142.85 241.65 142.85 238.15 144.55 234.7 146.2 232.6 149.5 L 232.4 149.5 232.4 143.7 M 232.8 155.2 Q 233.75 152.7 235.5 150.85 237.2 149.05 239.55 147.95 241.95 146.95 244.75 146.95 247.8 146.95 250.15 148 252.55 149.1 254.15 150.95 255.75 152.8 256.65 155.25 257.5 157.75 257.5 160.55 257.5 163.35 256.65 165.85 255.75 168.35 254.15 170.15 252.55 172 250.15 173.05 247.8 174.1 244.75 174.1 241.95 174.1 239.55 173.05 237.2 172 235.5 170.2 233.75 168.4 232.8 165.9 231.8 163.45 231.8 160.55 231.8 157.7 232.8 155.2 M 458.2 147.8 L 470.9 147.8 470.9 143.7 441.3 143.7 441.3 147.8 453.25 147.8 453.25 177.4 458.2 177.4 458.2 147.8 M 402.05 153.5 Q 400.7 156.75 400.7 160.55 400.7 164.35 402.05 167.6 403.35 170.85 405.7 173.2 408.1 175.6 411.4 176.95 414.7 178.3 418.6 178.3 422.55 178.3 425.85 176.95 429.2 175.6 431.55 173.2 433.95 170.85 435.3 167.6 436.6 164.35 436.6 160.55 436.6 156.75 435.3 153.5 433.95 150.25 431.55 147.85 429.2 145.5 425.85 144.2 422.55 142.85 418.6 142.85 414.7 142.85 411.4 144.2 408.1 145.5 405.7 147.85 403.35 150.25 402.05 153.5 M 413.3 148 Q 415.65 146.95 418.6 146.95 421.6 146.95 423.95 148 426.3 149.1 427.95 150.95 429.65 152.8 430.55 155.25 431.4 157.75 431.4 160.55 431.4 163.35 430.55 165.85 429.65 168.35 427.95 170.15 426.3 172 423.95 173.05 421.6 174.1 418.6 174.1 415.65 174.1 413.3 173.05 411 172 409.3 170.15 407.65 168.35 406.8 165.85 405.85 163.35 405.85 160.55 405.85 157.75 406.8 155.25 407.65 152.8 409.3 150.95 411 149.1 413.3 148 M 339.55 144.3 Q 336.05 142.85 332.7 142.85 328.6 142.85 325.3 144.2 321.95 145.5 319.6 147.85 317.25 150.25 316 153.5 314.7 156.75 314.7 160.55 314.7 164.35 316 167.6 317.25 170.85 319.6 173.2 321.95 175.6 325.3 176.95 328.6 178.3 332.7 178.3 337.1 178.3 340.2 176.7 343.35 175.1 345.5 172.45 L 341.85 169.7 Q 340.4 171.65 338.15 172.85 335.95 174.1 332.7 174.1 329.75 174.1 327.35 173.05 325 172 323.3 170.15 321.65 168.35 320.8 165.85 319.85 163.45 319.85 160.55 319.85 157.7 320.8 155.2 321.65 152.7 323.35 150.85 325.05 149.05 327.4 147.95 329.8 146.95 332.75 146.95 335.45 146.95 337.85 148.2 340.2 149.45 341.4 151.4 L 345.2 148.7 Q 343.05 145.8 339.55 144.3 M 390.5 143.7 L 386.3 143.7 371.8 161.05 357 143.7 352.85 143.7 352.85 177.4 357.7 177.4 357.7 151.2 370.7 166.95 372.7 166.95 385.6 150.8 385.6 177.4 390.5 177.4 390.5 143.7 M 171.15 147.85 Q 168.8 145.5 165.45 144.2 162.15 142.85 158.2 142.85 154.3 142.85 151 144.2 147.7 145.5 145.3 147.85 142.95 150.25 141.65 153.5 140.3 156.75 140.3 160.55 140.3 164.35 141.65 167.6 142.95 170.85 145.3 173.2 147.7 175.6 151 176.95 154.3 178.3 158.2 178.3 162.15 178.3 165.45 176.95 168.8 175.6 171.15 173.2 173.55 170.85 174.9 167.6 176.2 164.35 176.2 160.55 176.2 156.75 174.9 153.5 173.55 150.25 171.15 147.85 M 170.15 165.85 Q 169.25 168.35 167.55 170.15 165.9 172 163.55 173.05 161.2 174.1 158.2 174.1 155.25 174.1 152.9 173.05 150.6 172 148.9 170.15 147.25 168.35 146.4 165.85 145.45 163.35 145.45 160.55 145.45 157.75 146.4 155.25 147.25 152.8 148.9 150.95 150.6 149.1 152.9 148 155.25 146.95 158.2 146.95 161.2 146.95 163.55 148 165.9 149.1 167.55 150.95 169.25 152.8 170.15 155.25 171 157.75 171 160.55 171 163.35 170.15 165.85 M 130.05 143.7 L 125.15 143.7 125.15 157.35 105.9 157.35 105.9 143.7 101.05 143.7 101.05 177.4 105.9 177.4 105.9 161.4 125.15 161.4 125.15 177.4 130.05 177.4 130.05 143.7 M 62.95 143.7 L 57.95 143.7 57.95 177.4 62.95 177.4 83.65 150 83.65 177.4 88.7 177.4 88.7 143.7 83.65 143.7 62.95 170.1 62.95 143.7 M 46.5 126.4 L 40.8 126.4 21.45 148.6 13.95 148.1 13.95 126.4 8.8 126.4 8.8 177.4 13.95 177.4 13.95 152.85 Q 20.3 152.7 24.95 154.05 29.65 155.45 33 158.4 36.35 161.4 38.45 166.1 40.6 170.85 41.75 177.4 L 47.4 177.4 Q 45.75 166.45 40.85 159.5 35.95 152.55 26.95 149.85 L 46.5 126.4 M 354.05 79.55 L 354.05 92 368.2 92 368.2 79.55 376.9 79.55 376.9 67.35 368.1 67.35 368.1 28.3 350 28.3 324.1 66.9 324.1 79.55 354.05 79.55 M 353.9 43.75 L 354.15 43.75 354.15 67.35 338.75 67.35 353.9 43.75 M 282.1 47.2 L 264.5 47.2 247.1 92 263.05 92 273.2 64.7 282.65 92 298.6 92 282.1 47.2 M 220.4 45.75 Q 214.9 45.75 209.65 47.6 204.4 49.5 200.45 53.3 L 207.9 61.35 Q 210 59.45 212.9 58.05 215.8 56.7 219 56.7 222.35 56.7 224.75 58.3 227.05 59.9 227.05 63.2 L 227.05 63.9 217.1 64.45 Q 211.95 65 207.8 66.6 203.55 68.25 200.95 71.2 198.3 74.15 198.3 79.05 198.3 83 199.8 85.7 201.3 88.4 203.7 90 206.1 91.65 208.95 92.35 211.85 93.1 214.55 93.1 218.6 93.1 222.05 91.55 225.55 90 227.25 87.2 L 227.5 87.2 227.5 92 241 92 241 69.4 Q 241 63.3 239.9 58.8 238.75 54.4 236.35 51.45 233.95 48.55 230 47.15 226.05 45.75 220.4 45.75 M 227.5 72.5 L 227.5 74 Q 227.5 78.25 225.15 80.7 222.75 83.15 218.25 83.15 L 216 82.95 213.95 82.2 212.45 80.75 Q 211.85 79.85 211.85 78.6 211.85 76.6 213.15 75.4 214.35 74.15 216.3 73.55 L 220.75 72.7 227.5 72.5 M 171.5 41.4 Q 173.75 43.4 173.75 46.4 173.75 49.8 171.4 51.9 169.05 53.95 162.95 53.95 L 153.3 53.95 153.3 64.7 162.15 64.7 Q 166.25 64.7 169 65.4 171.65 66.05 173.25 67.3 174.85 68.5 175.45 70.1 176.1 71.75 176.1 73.65 176.1 77.05 173.65 78.95 171.2 80.85 166.9 80.85 163.2 80.85 160.45 78.75 157.75 76.7 156.3 72.6 L 142.6 76.8 Q 143.6 80.4 145.55 83.45 147.55 86.6 150.5 88.85 153.5 91.1 157.45 92.35 161.4 93.65 166.25 93.65 171.5 93.65 176.2 92.25 180.85 90.9 184.25 88.35 187.7 85.8 189.7 82.05 191.75 78.35 191.75 73.65 191.75 69.7 190.35 66.95 188.95 64.2 186.85 62.4 184.8 60.6 182.35 59.7 179.85 58.8 177.6 58.5 L 177.6 58.35 Q 179.55 58 181.75 56.95 183.9 55.9 185.7 54.2 187.55 52.5 188.7 50.1 189.95 47.6 189.95 44.4 189.95 39.95 188.1 36.65 186.25 33.35 183.05 31.15 179.9 28.9 175.6 27.8 171.4 26.65 166.6 26.65 157.65 26.65 151.6 31.15 145.55 35.55 143.25 42.85 L 156.8 47.25 Q 158.6 39.45 165.65 39.45 169.25 39.45 171.5 41.4 Z"/>
</g>

<g id="_______3_0_Layer0_0_FILL">
<path fill="#F4E721" fill-opacity="0" stroke="none" d=" M 2564.35 1334.6 L 1302.55 1334.6 1302.55 2125.15 2564.35 2125.15 2564.35 1334.6 Z"/>
</g>

<g id="_______4_0_Layer0_0_FILL">
<path fill="#FFFFFF" stroke="none" d=" M 910.55 142.6 L 905.7 142.6 905.7 176.3 910.55 176.3 910.55 160.3 929.8 160.3 929.8 176.3 934.7 176.3 934.7 142.6 929.8 142.6 929.8 156.25 910.55 156.25 910.55 142.6 M 977.85 142.6 L 972.8 142.6 952.1 169 952.1 142.6 947.1 142.6 947.1 176.3 952.1 176.3 972.8 148.9 972.8 176.3 977.85 176.3 977.85 142.6 M 875.35 147.8 Q 876.3 146.75 877.95 145.95 879.6 145.1 882.2 145.1 884.15 145.1 885.55 145.7 887 146.2 887.9 147.1 888.8 147.95 889.25 149.1 889.7 150.25 889.7 151.45 889.7 154.45 887.45 155.95 885.2 157.4 882 157.4 L 878.35 157.4 878.35 161.2 882.7 161.2 Q 887.1 161.2 888.9 162.85 890.75 164.55 890.75 166.95 890.75 169.85 888.5 171.55 886.25 173.3 882.4 173.3 879.6 173.3 877.75 172.45 875.9 171.7 874.9 170.7 873.6 169.55 873.05 168 L 869.1 170.45 Q 869.85 172.4 871.6 173.85 873.05 175.05 875.5 176.1 878 177.2 881.9 177.2 888.25 177.2 891.9 174.3 895.6 171.4 895.6 166.9 895.6 164.85 894.8 163.4 893.95 161.95 892.65 161.05 891.35 160.1 889.55 159.65 887.7 159.25 885.8 159.25 L 885.8 159 Q 887.6 158.95 889.15 158.3 890.75 157.65 891.9 156.6 893.05 155.5 893.7 154.05 894.35 152.6 894.35 150.95 894.35 149.35 893.65 147.7 893 146 891.55 144.6 890.1 143.2 887.8 142.3 885.5 141.45 882.25 141.45 878.6 141.45 876.2 142.5 873.85 143.55 872.4 144.75 870.75 146.2 869.85 148.05 L 873.7 150.4 Q 874.2 148.95 875.35 147.8 M 860.05 142.6 L 855 142.6 834.3 169 834.3 142.6 829.3 142.6 829.3 176.3 834.3 176.3 855 148.9 855 176.3 860.05 176.3 860.05 142.6 M 817.7 142.6 L 812.25 142.6 800.9 156.8 796.15 156.45 796.15 142.6 791.3 142.6 791.3 156.45 786.55 156.8 775.2 142.6 769.75 142.6 782.05 157.8 Q 776.45 159.65 773.15 164.05 769.85 168.45 767.95 176.3 L 773.4 176.3 Q 774.35 171.85 775.95 168.85 777.55 165.85 779.75 164.05 782 162.25 784.9 161.45 787.75 160.7 791.3 160.6 L 791.3 176.3 796.15 176.3 796.15 160.6 Q 799.7 160.7 802.55 161.45 805.4 162.25 807.65 164.05 809.85 165.85 811.4 168.85 813 171.85 814.05 176.3 L 819.5 176.3 Q 817.55 168.55 814.25 164.1 810.95 159.65 805.3 157.8 L 817.7 142.6 M 719.25 144.75 Q 717.6 146.2 716.7 148.05 L 720.55 150.4 Q 721.05 148.95 722.2 147.8 723.15 146.75 724.8 145.95 726.45 145.1 729.05 145.1 731 145.1 732.4 145.7 733.85 146.2 734.75 147.1 735.65 147.95 736.1 149.1 736.55 150.25 736.55 151.45 736.55 154.45 734.3 155.95 732.05 157.4 728.85 157.4 L 725.2 157.4 725.2 161.2 729.55 161.2 Q 733.95 161.2 735.75 162.85 737.6 164.55 737.6 166.95 737.6 169.85 735.35 171.55 733.1 173.3 729.25 173.3 726.45 173.3 724.6 172.45 722.75 171.7 721.75 170.7 720.45 169.55 719.9 168 L 715.95 170.45 Q 716.7 172.4 718.45 173.85 719.9 175.05 722.35 176.1 724.85 177.2 728.75 177.2 735.1 177.2 738.75 174.3 742.45 171.4 742.45 166.9 742.45 164.85 741.65 163.4 740.8 161.95 739.5 161.05 738.2 160.1 736.4 159.65 734.55 159.25 732.65 159.25 L 732.65 159 Q 734.45 158.95 736 158.3 737.6 157.65 738.75 156.6 739.9 155.5 740.55 154.05 741.2 152.6 741.2 150.95 741.2 149.35 740.5 147.7 739.85 146 738.4 144.6 736.95 143.2 734.65 142.3 732.35 141.45 729.1 141.45 725.45 141.45 723.05 142.5 720.7 143.55 719.25 144.75 M 607 142.6 L 601.95 142.6 581.25 169 581.25 142.6 576.25 142.6 576.25 176.3 581.25 176.3 601.95 148.9 601.95 176.3 607 176.3 607 142.6 M 645.8 142.6 L 633 142.6 Q 626.2 142.6 622.6 145.1 619.05 147.65 619.05 152.25 619.05 155.9 621.45 157.75 623.8 159.6 627.5 159.95 L 627.5 160.15 Q 625.15 160.95 623.4 162.5 621.65 164.05 620.4 166.2 619.15 168.3 618.4 170.9 617.7 173.5 617.45 176.3 L 622.95 176.3 Q 623.5 169.55 626.45 165.7 629.45 161.8 635.05 161.8 L 640.85 161.8 640.85 176.3 645.8 176.3 645.8 142.6 M 627 147.7 Q 628.25 147.15 630 147 L 640.85 146.85 640.85 157.6 630.2 157.4 Q 628.5 157.2 627.15 156.7 625.8 156.15 625.05 155.05 624.2 154 624.2 152.25 624.2 150.4 625 149.3 625.75 148.2 627 147.7 M 539.75 146.7 L 551.7 146.7 551.7 176.3 556.65 176.3 556.65 146.7 569.35 146.7 569.35 142.6 539.75 142.6 539.75 146.7 M 706.9 142.6 L 701.85 142.6 681.15 169 681.15 142.6 676.15 142.6 676.15 176.3 681.15 176.3 701.85 148.9 701.85 176.3 706.9 176.3 706.9 142.6 M 503.1 142.6 L 498.25 142.6 498.25 176.3 510.35 176.3 Q 513.65 176.3 516.15 175.4 518.65 174.6 520.3 173.05 521.95 171.55 522.75 169.5 523.6 167.5 523.6 165.25 523.6 162.9 522.9 160.9 522.15 158.85 520.55 157.4 519 155.9 516.4 155.1 513.8 154.25 510.05 154.25 L 503.1 154.25 503.1 142.6 M 512.7 158.5 Q 514.45 158.8 515.7 159.6 517 160.4 517.7 161.8 518.4 163.15 518.4 165.25 518.4 167.35 517.7 168.7 517.05 170.1 515.85 170.9 514.65 171.75 512.95 172.1 L 503.1 172.4 503.1 158.15 512.7 158.5 M 532.85 142.6 L 528 142.6 528 176.3 532.85 176.3 532.85 142.6 M 487.4 129.6 L 487.4 125.4 477.65 125.4 Q 466.4 125.4 460.8 131.7 455.2 138.1 454.05 150.8 L 453.7 158.65 Q 453.7 162.9 454.95 166.3 456.15 169.75 458.35 172.15 460.6 174.6 463.8 175.9 467 177.2 471.05 177.2 474.5 177.2 477.6 176 480.7 174.8 483 172.6 485.3 170.4 486.65 167.25 488.05 164.05 488.05 160.15 488.05 156.35 486.8 153.25 485.6 150.1 483.4 147.85 481.2 145.65 478.1 144.4 475 143.2 471.35 143.2 467.1 143.2 463.65 145 460.15 146.75 458.3 149.8 458.9 145.25 460 141.55 461.1 137.75 463.3 135.15 465.45 132.45 468.85 131 472.3 129.6 477.55 129.6 L 487.4 129.6 M 466.4 148.1 Q 468.6 147.35 471.05 147.35 473.7 147.35 475.9 148.3 478 149.25 479.55 150.95 481.1 152.7 482 155.05 482.9 157.35 482.9 160.15 482.9 162.75 482.1 165.1 481.35 167.45 479.85 169.2 478.35 170.95 476.15 172 473.95 173 471.15 173 468.3 173 466 172 463.7 170.95 462.1 169.2 460.5 167.45 459.55 164.95 458.65 162.5 458.65 159.45 458.65 156.45 459.65 154.15 460.7 151.9 462.4 150.4 464.15 148.9 466.4 148.1 M 419.75 143.1 Q 416.45 144.4 414.05 146.75 411.7 149.15 410.4 152.4 409.05 155.65 409.05 159.45 409.05 163.25 410.4 166.5 411.7 169.75 414.05 172.1 416.45 174.5 419.75 175.85 423.05 177.2 426.95 177.2 430.9 177.2 434.2 175.85 437.55 174.5 439.9 172.1 442.3 169.75 443.65 166.5 444.95 163.25 444.95 159.45 444.95 155.65 443.65 152.4 442.3 149.15 439.9 146.75 437.55 144.4 434.2 143.1 430.9 141.75 426.95 141.75 423.05 141.75 419.75 143.1 M 426.95 145.85 Q 429.95 145.85 432.3 146.9 434.65 148 436.3 149.85 438 151.7 438.9 154.15 439.75 156.65 439.75 159.45 439.75 162.25 438.9 164.75 438 167.25 436.3 169.05 434.65 170.9 432.3 171.95 429.95 173 426.95 173 424 173 421.65 171.95 419.35 170.9 417.65 169.05 416 167.25 415.15 164.75 414.2 162.25 414.2 159.45 414.2 156.65 415.15 154.15 416 151.7 417.65 149.85 419.35 148 421.65 146.9 424 145.85 426.95 145.85 M 273.9 142.6 L 269.05 142.6 269.05 176.3 281.15 176.3 Q 284.45 176.3 286.95 175.4 289.45 174.6 291.1 173.05 292.75 171.55 293.55 169.5 294.4 167.5 294.4 165.25 294.4 162.9 293.7 160.9 292.95 158.85 291.35 157.4 289.8 155.9 287.2 155.1 284.6 154.25 280.85 154.25 L 273.9 154.25 273.9 142.6 M 273.9 172.4 L 273.9 158.15 283.5 158.5 Q 285.25 158.8 286.5 159.6 287.8 160.4 288.5 161.8 289.2 163.15 289.2 165.25 289.2 167.35 288.5 168.7 287.85 170.1 286.65 170.9 285.45 171.75 283.75 172.1 L 273.9 172.4 M 303.65 142.6 L 298.8 142.6 298.8 176.3 303.65 176.3 303.65 142.6 M 230.1 142.6 L 230.1 176.3 245.5 176.3 Q 252.15 176.3 255.5 173.85 258.9 171.4 258.9 167.3 258.9 165.25 258.2 163.75 257.45 162.25 256.2 161.3 254.95 160.3 253.3 159.8 L 249.75 159.2 252.6 158.25 Q 254 157.75 255.05 156.9 256.05 156.1 256.65 154.8 257.25 153.55 257.25 151.7 257.25 147.6 254.15 145.1 251.05 142.6 244.65 142.6 L 230.1 142.6 M 234.95 172.4 L 234.95 161.05 244.1 161.05 Q 248.45 161.05 251 162.15 253.55 163.2 253.55 166.7 253.55 168.8 252.6 169.95 251.7 171.1 250 171.65 248.35 172.2 246.15 172.3 L 234.95 172.4 M 234.95 157.5 L 234.95 146.5 245.55 146.65 Q 247.6 146.75 249.05 147.35 250.5 147.85 251.25 148.95 252.05 150.05 252.05 151.95 252.05 155.3 250 156.4 247.95 157.5 244.35 157.5 L 234.95 157.5 M 176.55 142.6 L 171.65 142.6 171.65 159.65 164.3 159.65 Q 160.65 159.65 158.55 159 156.45 158.35 155.5 156.9 154.55 155.4 154.3 153.15 L 154.1 142.6 149.2 142.6 149.2 150.2 Q 149.2 153.5 149.8 156 150.35 158.6 152 160.3 153.65 162.05 156.6 162.9 159.55 163.8 164.25 163.8 L 171.65 163.8 171.65 176.3 176.55 176.3 176.55 142.6 M 215.8 146.65 Q 213.8 144.4 210.75 143.1 207.75 141.75 203.75 141.75 200.2 141.75 197.1 143.1 193.95 144.4 191.7 146.75 189.35 149.15 188.1 152.4 186.8 155.65 186.8 159.45 186.8 163.25 188.15 166.5 189.45 169.75 191.75 172.1 194.05 174.5 197.25 175.85 200.45 177.2 204.2 177.2 208.4 177.2 212.05 175.5 215.65 173.85 218.7 170.05 L 215 167.15 Q 213.6 169.45 210.8 171.25 208.05 173 204.2 173 201.65 173 199.4 172 197.15 171.05 195.5 169.35 193.8 167.7 192.9 165.5 191.95 163.25 191.9 160.75 L 219.85 160.75 219.9 158.45 Q 219.9 155 218.85 151.95 217.8 148.95 215.8 146.65 M 191.95 156.85 Q 192.1 154.7 193.05 152.7 193.95 150.75 195.6 149.2 197.15 147.65 199.25 146.75 201.3 145.85 203.75 145.85 209 145.85 211.85 149 214.7 152.1 214.9 156.85 L 191.95 156.85 M 342.9 146.65 Q 340.9 144.4 337.85 143.1 334.85 141.75 330.85 141.75 327.3 141.75 324.2 143.1 321.05 144.4 318.8 146.75 316.45 149.15 315.2 152.4 313.9 155.65 313.9 159.45 313.9 163.25 315.25 166.5 316.55 169.75 318.85 172.1 321.15 174.5 324.35 175.85 327.55 177.2 331.3 177.2 335.5 177.2 339.15 175.5 342.75 173.85 345.8 170.05 L 342.1 167.15 Q 340.7 169.45 337.9 171.25 335.15 173 331.3 173 328.75 173 326.5 172 324.25 171.05 322.6 169.35 320.9 167.7 320 165.5 319.05 163.25 319 160.75 L 346.95 160.75 347 158.45 Q 347 155 345.95 151.95 344.9 148.95 342.9 146.65 M 326.35 146.75 Q 328.4 145.85 330.85 145.85 336.1 145.85 338.95 149 341.8 152.1 342 156.85 L 319.05 156.85 Q 319.2 154.7 320.15 152.7 321.05 150.75 322.7 149.2 324.25 147.65 326.35 146.75 M 403.55 147.6 Q 401.4 144.7 397.9 143.2 394.4 141.75 391.05 141.75 386.95 141.75 383.65 143.1 380.3 144.4 377.95 146.75 375.6 149.15 374.35 152.4 373.05 155.65 373.05 159.45 373.05 163.25 374.35 166.5 375.6 169.75 377.95 172.1 380.3 174.5 383.65 175.85 386.95 177.2 391.05 177.2 395.45 177.2 398.55 175.6 401.7 174 403.85 171.35 L 400.2 168.6 Q 398.75 170.55 396.5 171.75 394.3 173 391.05 173 388.1 173 385.7 171.95 383.35 170.9 381.65 169.05 380 167.25 379.15 164.75 378.2 162.35 378.2 159.45 378.2 156.6 379.15 154.1 380 151.6 381.7 149.75 383.4 147.95 385.75 146.85 388.15 145.85 391.1 145.85 393.8 145.85 396.2 147.1 398.55 148.35 399.75 150.3 L 403.55 147.6 M 130.85 143.1 Q 127.55 141.75 123.55 141.75 120.15 141.75 117.1 142.85 114.1 143.9 111.75 145.8 109.45 147.7 107.95 150.4 106.45 153.05 105.9 156.25 L 98.55 156.25 98.55 142.6 93.7 142.6 93.7 176.3 98.55 176.3 98.55 160.3 105.65 160.3 Q 105.8 164 107.15 167.05 108.5 170.1 110.9 172.35 113.25 174.65 116.5 175.9 119.75 177.2 123.55 177.2 127.55 177.2 130.85 175.85 134.15 174.5 136.55 172.1 138.9 169.75 140.25 166.5 141.55 163.25 141.55 159.45 141.55 155.65 140.25 152.4 138.9 149.15 136.55 146.75 134.15 144.4 130.85 143.1 M 123.55 145.85 Q 126.5 145.85 128.9 146.9 131.25 148 132.9 149.85 134.55 151.7 135.5 154.15 136.4 156.65 136.4 159.45 136.4 162.25 135.5 164.75 134.55 167.25 132.9 169.05 131.25 170.9 128.9 171.95 126.5 173 123.55 173 120.6 173 118.3 171.95 115.95 170.9 114.3 169.05 112.65 167.25 111.7 164.75 110.85 162.25 110.85 159.45 110.85 156.65 111.7 154.15 112.65 151.7 114.3 149.85 115.95 148 118.3 146.9 120.6 145.85 123.55 145.85 M 72.3 142.6 L 67.95 142.6 53.2 176.3 58.3 176.3 69.95 148.5 81.15 176.3 86.1 176.3 72.3 142.6 M 46.5 125.3 L 40.8 125.3 21.45 147.5 13.95 147 13.95 125.3 8.8 125.3 8.8 176.3 13.95 176.3 13.95 151.75 Q 20.3 151.6 24.95 152.95 29.65 154.35 33 157.3 36.35 160.3 38.45 165 40.6 169.75 41.75 176.3 L 47.4 176.3 Q 45.75 165.35 40.85 158.4 35.95 151.45 26.95 148.75 L 46.5 125.3 M 584.35 26.55 Q 579.65 26.55 575.45 27.95 571.3 29.4 568.05 32.05 564.8 34.75 562.7 38.5 560.55 42.35 560.05 47.2 L 574.5 49.15 Q 574.95 44.85 577.35 42.15 579.75 39.55 583.5 39.55 587.1 39.55 589.25 41.65 591.4 43.75 591.4 47.2 591.4 50.05 590 52.35 588.55 54.75 586.25 57 L 561.35 79.45 561.35 92 607.45 92 607.45 78.85 581.45 78.85 600.4 61.7 Q 602.4 59.7 604 57.35 605.55 55 606.45 52.25 607.35 49.5 607.35 46.1 607.35 41.15 605.45 37.45 603.5 33.75 600.25 31.35 597 28.9 592.85 27.75 588.75 26.55 584.35 26.55 M 515.5 47.2 L 497.9 47.2 480.5 92 496.45 92 506.6 64.7 516.05 92 532 92 515.5 47.2 M 463.4 47.15 Q 459.45 45.75 453.8 45.75 448.3 45.75 443.05 47.6 437.8 49.5 433.85 53.3 L 441.3 61.35 Q 443.4 59.45 446.3 58.05 449.2 56.7 452.4 56.7 455.75 56.7 458.15 58.3 460.45 59.9 460.45 63.2 L 460.45 63.9 450.5 64.45 Q 445.35 65 441.2 66.6 436.95 68.25 434.35 71.2 431.7 74.15 431.7 79.05 431.7 83 433.2 85.7 434.7 88.4 437.1 90 439.5 91.65 442.35 92.35 445.25 93.1 447.95 93.1 452 93.1 455.45 91.55 458.95 90 460.65 87.2 L 460.9 87.2 460.9 92 474.4 92 474.4 69.4 Q 474.4 63.3 473.3 58.8 472.15 54.4 469.75 51.45 467.35 48.55 463.4 47.15 M 449.7 73.55 L 454.15 72.7 460.9 72.5 460.9 74 Q 460.9 78.25 458.55 80.7 456.15 83.15 451.65 83.15 L 449.4 82.95 447.35 82.2 445.85 80.75 Q 445.25 79.85 445.25 78.6 445.25 76.6 446.55 75.4 447.75 74.15 449.7 73.55 M 416.45 31.15 Q 413.3 28.9 409 27.8 404.8 26.65 400 26.65 391.05 26.65 385 31.15 378.95 35.55 376.65 42.85 L 390.2 47.25 Q 392 39.45 399.05 39.45 402.65 39.45 404.9 41.4 407.15 43.4 407.15 46.4 407.15 49.8 404.8 51.9 402.45 53.95 396.35 53.95 L 386.7 53.95 386.7 64.7 395.55 64.7 Q 399.65 64.7 402.4 65.4 405.05 66.05 406.65 67.3 408.25 68.5 408.85 70.1 409.5 71.75 409.5 73.65 409.5 77.05 407.05 78.95 404.6 80.85 400.3 80.85 396.6 80.85 393.85 78.75 391.15 76.7 389.7 72.6 L 376 76.8 Q 377 80.4 378.95 83.45 380.95 86.6 383.9 88.85 386.9 91.1 390.85 92.35 394.8 93.65 399.65 93.65 404.9 93.65 409.6 92.25 414.25 90.9 417.65 88.35 421.1 85.8 423.1 82.05 425.15 78.35 425.15 73.65 425.15 69.7 423.75 66.95 422.35 64.2 420.25 62.4 418.2 60.6 415.75 59.7 413.25 58.8 411 58.5 L 411 58.35 Q 412.95 58 415.15 56.95 417.3 55.9 419.1 54.2 420.95 52.5 422.1 50.1 423.35 47.6 423.35 44.4 423.35 39.95 421.5 36.65 419.65 33.35 416.45 31.15 Z"/>
</g>

<g id="Layer5_4_MEMBER_0_FILL">
<path fill="#F4E721" fill-opacity="0" stroke="none" d=" M 4451.1 1334.6 L 2606 1334.6 2606 2125.15 4451.1 2125.15 4451.1 1334.6 Z"/>
</g>

<g id="_______5_0_Layer0_0_FILL">
<path fill="#FFFFFF" stroke="none" d=" M 912.35 145.9 Q 916.75 145.9 919.05 148.05 921.35 150.2 921.35 154.55 L 921.35 155.6 912.5 155.9 Q 908.2 156.3 904.85 157.4 901.55 158.5 899.6 160.8 897.6 163.05 897.6 166.95 897.6 169.8 898.7 171.7 899.85 173.7 901.55 174.9 903.2 176.15 905.3 176.65 907.35 177.25 909.25 177.25 913.35 177.25 916.3 175.75 919.2 174.3 921.55 170.85 L 921.65 170.85 922.15 176.35 926.55 176.35 926.15 172.85 926 154.05 Q 926 150.95 924.95 148.65 923.95 146.35 922.15 144.8 920.35 143.3 918 142.55 915.6 141.8 912.9 141.8 908.55 141.8 905.15 143.15 901.7 144.55 899.65 146.6 L 902.35 149.85 Q 904.15 148.05 906.75 146.95 909.35 145.9 912.35 145.9 M 913.85 159.75 L 921.35 159.5 921.35 162 Q 921.35 164.25 920.65 166.25 919.95 168.3 918.6 169.85 917.2 171.4 915.15 172.25 913.15 173.2 910.55 173.2 L 907.7 172.85 Q 906.3 172.5 905.2 171.8 904 171 903.3 169.8 902.65 168.6 902.65 166.8 902.65 164.4 904.25 162.95 905.8 161.5 908.3 160.8 910.75 160 913.85 159.75 M 886.6 142.65 L 881.7 142.65 881.7 171.95 863.6 171.95 863.6 142.65 858.75 142.65 858.75 176.35 887.3 176.35 887.3 186.35 892.2 186.35 892.2 171.95 886.6 171.95 886.6 142.65 M 824 143.5 Q 820.55 145.15 818.45 148.45 L 818.25 148.45 818.25 142.65 813.3 142.65 813.3 193.65 818.25 193.65 818.25 170.65 818.45 170.65 Q 820.55 173.8 824 175.5 827.5 177.25 831.1 177.25 835.1 177.25 838.3 175.85 841.5 174.5 843.75 172.1 846 169.75 847.3 166.45 848.55 163.25 848.55 159.5 848.55 155.75 847.3 152.5 846 149.3 843.75 146.9 841.5 144.55 838.3 143.15 835.1 141.8 831.1 141.8 827.5 141.8 824 143.5 M 830.6 145.9 Q 833.65 145.9 836 146.95 838.4 148.05 840 149.9 841.6 151.75 842.5 154.2 843.35 156.7 843.35 159.5 843.35 162.3 842.5 164.8 841.6 167.3 840 169.1 838.4 170.95 836 172 833.65 173.05 830.6 173.05 827.8 173.05 825.4 172 823.05 170.95 821.35 169.15 819.6 167.35 818.65 164.85 817.65 162.4 817.65 159.5 817.65 156.65 818.65 154.15 819.6 151.65 821.35 149.8 823.05 148 825.4 146.9 827.8 145.9 830.6 145.9 M 787.15 145.9 Q 791.55 145.9 793.85 148.05 796.15 150.2 796.15 154.55 L 796.15 155.6 787.3 155.9 Q 783 156.3 779.65 157.4 776.35 158.5 774.4 160.8 772.4 163.05 772.4 166.95 772.4 169.8 773.5 171.7 774.65 173.7 776.35 174.9 778 176.15 780.1 176.65 782.15 177.25 784.05 177.25 788.15 177.25 791.1 175.75 794 174.3 796.35 170.85 L 796.45 170.85 796.95 176.35 801.35 176.35 800.8 168.8 800.8 154.05 Q 800.8 150.95 799.75 148.65 798.75 146.35 796.95 144.8 795.15 143.3 792.8 142.55 790.4 141.8 787.7 141.8 783.35 141.8 779.95 143.15 776.5 144.55 774.45 146.6 L 777.15 149.85 Q 778.95 148.05 781.55 146.95 784.15 145.9 787.15 145.9 M 796.15 162 Q 796.15 164.25 795.45 166.25 794.75 168.3 793.4 169.85 792 171.4 789.95 172.25 787.95 173.2 785.35 173.2 L 782.5 172.85 Q 781.1 172.5 780 171.8 778.8 171 778.1 169.8 777.45 168.6 777.45 166.8 777.45 164.4 779.05 162.95 780.6 161.5 783.1 160.8 785.55 160 788.65 159.75 L 796.15 159.5 796.15 162 M 620.35 142.65 L 615.3 142.65 594.6 169.05 594.6 142.65 589.6 142.65 589.6 176.35 594.6 176.35 615.3 148.95 615.3 176.35 620.35 176.35 620.35 142.65 M 496.75 176.35 L 501.7 176.35 487.9 142.65 483.55 142.65 468.8 176.35 473.9 176.35 485.55 148.55 496.75 176.35 M 566.35 142.65 L 562.05 142.65 549.65 172.1 544.25 172.1 544.25 186.35 549.05 186.35 549.05 176.35 578.65 176.35 578.65 186.35 583.4 186.35 583.4 172.1 577.8 172.1 566.35 142.65 M 554.6 172.1 L 564.05 148.55 572.9 172.1 554.6 172.1 M 536.15 146.7 Q 534.15 144.45 531.1 143.15 528.1 141.8 524.1 141.8 520.55 141.8 517.45 143.15 514.3 144.45 512.05 146.8 509.7 149.2 508.45 152.45 507.15 155.7 507.15 159.5 507.15 163.3 508.5 166.55 509.8 169.8 512.1 172.15 514.4 174.55 517.6 175.9 520.8 177.25 524.55 177.25 528.75 177.25 532.4 175.55 536 173.9 539.05 170.1 L 535.35 167.2 Q 533.95 169.5 531.15 171.3 528.4 173.05 524.55 173.05 522 173.05 519.75 172.05 517.5 171.1 515.85 169.4 514.15 167.75 513.25 165.55 512.3 163.3 512.25 160.8 L 540.2 160.8 540.25 158.5 Q 540.25 155.05 539.2 152 538.15 149 536.15 146.7 M 519.6 146.8 Q 521.65 145.9 524.1 145.9 529.35 145.9 532.2 149.05 535.05 152.15 535.25 156.9 L 512.3 156.9 Q 512.45 154.75 513.4 152.75 514.3 150.8 515.95 149.25 517.5 147.7 519.6 146.8 M 738.15 146.75 L 750.1 146.75 750.1 176.35 755.05 176.35 755.05 146.75 767.75 146.75 767.75 142.65 738.15 142.65 738.15 146.75 M 659.55 146.7 Q 657.55 144.45 654.5 143.15 651.5 141.8 647.5 141.8 643.95 141.8 640.85 143.15 637.7 144.45 635.45 146.8 633.1 149.2 631.85 152.45 630.55 155.7 630.55 159.5 630.55 163.3 631.9 166.55 633.2 169.8 635.5 172.15 637.8 174.55 641 175.9 644.2 177.25 647.95 177.25 652.15 177.25 655.8 175.55 659.4 173.9 662.45 170.1 L 658.75 167.2 Q 657.35 169.5 654.55 171.3 651.8 173.05 647.95 173.05 645.4 173.05 643.15 172.05 640.9 171.1 639.25 169.4 637.55 167.75 636.65 165.55 635.7 163.3 635.65 160.8 L 663.6 160.8 663.65 158.5 Q 663.65 155.05 662.6 152 661.55 149 659.55 146.7 M 655.6 149.05 Q 658.45 152.15 658.65 156.9 L 635.7 156.9 Q 635.85 154.75 636.8 152.75 637.7 150.8 639.35 149.25 640.9 147.7 643 146.8 645.05 145.9 647.5 145.9 652.75 145.9 655.6 149.05 M 697.3 131.65 Q 693.7 135.25 691.7 140.15 689.7 145.05 689.7 150.85 689.7 156.7 691.65 161.6 693.65 166.45 697.2 170.05 700.7 173.6 705.6 175.65 710.5 177.65 716.25 177.65 719.7 177.65 722.65 176.9 725.55 176.1 727.95 174.8 730.35 173.45 732.2 171.75 734.05 170 735.35 168.05 L 731.3 165.5 Q 728.65 169.4 724.65 171.25 720.7 173.05 716.3 173.05 711.4 173.05 707.5 171.25 703.6 169.45 700.85 166.4 698.1 163.35 696.6 159.35 695.15 155.35 695.15 150.85 695.15 146.4 696.6 142.4 698.05 138.4 700.75 135.3 703.5 132.25 707.45 130.45 711.35 128.7 716.3 128.7 718.75 128.7 720.9 129.3 723 129.85 724.8 130.8 726.6 131.7 727.95 132.95 L 730.1 135.4 734.4 132.25 Q 733.1 130.35 731.15 128.85 729.2 127.4 726.8 126.3 724.45 125.25 721.75 124.65 719.05 124.05 716.25 124.05 710.6 124.05 705.7 126.1 700.85 128.1 697.3 131.65 M 453.45 145.9 Q 456.15 145.9 458.55 147.15 460.9 148.4 462.1 150.35 L 465.9 147.65 Q 463.75 144.75 460.25 143.25 456.75 141.8 453.4 141.8 449.3 141.8 446 143.15 442.65 144.45 440.3 146.8 437.95 149.2 436.7 152.45 435.4 155.7 435.4 159.5 435.4 163.3 436.7 166.55 437.95 169.8 440.3 172.15 442.65 174.55 446 175.9 449.3 177.25 453.4 177.25 457.8 177.25 460.9 175.65 464.05 174.05 466.2 171.4 L 462.55 168.65 Q 461.1 170.6 458.85 171.8 456.65 173.05 453.4 173.05 450.45 173.05 448.05 172 445.7 170.95 444 169.1 442.35 167.3 441.5 164.8 440.55 162.4 440.55 159.5 440.55 156.65 441.5 154.15 442.35 151.65 444.05 149.8 445.75 148 448.1 146.9 450.5 145.9 453.45 145.9 M 404.45 143.15 Q 401 144.55 398.95 146.6 L 401.65 149.85 Q 403.45 148.05 406.05 146.95 408.65 145.9 411.65 145.9 416.05 145.9 418.35 148.05 420.65 150.2 420.65 154.55 L 420.65 155.6 411.8 155.9 Q 407.5 156.3 404.15 157.4 400.85 158.5 398.9 160.8 396.9 163.05 396.9 166.95 396.9 169.8 398 171.7 399.15 173.7 400.85 174.9 402.5 176.15 404.6 176.65 406.65 177.25 408.55 177.25 412.65 177.25 415.6 175.75 418.5 174.3 420.85 170.85 L 420.95 170.85 421.45 176.35 425.85 176.35 425.45 172.85 425.3 154.05 Q 425.3 150.95 424.25 148.65 423.25 146.35 421.45 144.8 419.65 143.3 417.3 142.55 414.9 141.8 412.2 141.8 407.85 141.8 404.45 143.15 M 401.95 166.8 Q 401.95 164.4 403.55 162.95 405.1 161.5 407.6 160.8 410.05 160 413.15 159.75 L 420.65 159.5 420.65 162 Q 420.65 164.25 419.95 166.25 419.25 168.3 417.9 169.85 416.5 171.4 414.45 172.25 412.45 173.2 409.85 173.2 L 407 172.85 Q 405.6 172.5 404.5 171.8 403.3 171 402.6 169.8 401.95 168.6 401.95 166.8 M 97.55 142.65 L 91.3 142.65 103.75 158.9 90.5 176.35 96.4 176.35 106.7 162.3 116.7 176.35 123.05 176.35 109.65 158.7 121.9 142.65 116 142.65 106.8 155.45 97.55 142.65 M 283.35 146.8 Q 281 144.45 277.65 143.15 274.35 141.8 270.4 141.8 266.5 141.8 263.2 143.15 259.9 144.45 257.5 146.8 255.15 149.2 253.85 152.45 252.5 155.7 252.5 159.5 252.5 163.3 253.85 166.55 255.15 169.8 257.5 172.15 259.9 174.55 263.2 175.9 266.5 177.25 270.4 177.25 274.35 177.25 277.65 175.9 281 174.55 283.35 172.15 285.75 169.8 287.1 166.55 288.4 163.3 288.4 159.5 288.4 155.7 287.1 152.45 285.75 149.2 283.35 146.8 M 265.1 146.95 Q 267.45 145.9 270.4 145.9 273.4 145.9 275.75 146.95 278.1 148.05 279.75 149.9 281.45 151.75 282.35 154.2 283.2 156.7 283.2 159.5 283.2 162.3 282.35 164.8 281.45 167.3 279.75 169.1 278.1 170.95 275.75 172 273.4 173.05 270.4 173.05 267.45 173.05 265.1 172 262.8 170.95 261.1 169.1 259.45 167.3 258.6 164.8 257.65 162.3 257.65 159.5 257.65 156.7 258.6 154.2 259.45 151.75 261.1 149.9 262.8 148.05 265.1 146.95 M 164.1 159.5 Q 164.1 155.7 162.8 152.45 161.45 149.2 159.05 146.8 156.7 144.45 153.35 143.15 150.05 141.8 146.1 141.8 142.2 141.8 138.9 143.15 135.6 144.45 133.2 146.8 130.85 149.2 129.55 152.45 128.2 155.7 128.2 159.5 128.2 163.3 129.55 166.55 130.85 169.8 133.2 172.15 135.6 174.55 138.9 175.9 142.2 177.25 146.1 177.25 150.05 177.25 153.35 175.9 156.7 174.55 159.05 172.15 161.45 169.8 162.8 166.55 164.1 163.3 164.1 159.5 M 140.8 146.95 Q 143.15 145.9 146.1 145.9 149.1 145.9 151.45 146.95 153.8 148.05 155.45 149.9 157.15 151.75 158.05 154.2 158.9 156.7 158.9 159.5 158.9 162.3 158.05 164.8 157.15 167.3 155.45 169.1 153.8 170.95 151.45 172 149.1 173.05 146.1 173.05 143.15 173.05 140.8 172 138.5 170.95 136.8 169.1 135.15 167.3 134.3 164.8 133.35 162.3 133.35 159.5 133.35 156.7 134.3 154.2 135.15 151.75 136.8 149.9 138.5 148.05 140.8 146.95 M 198.35 145.15 Q 195.25 142.65 188.85 142.65 L 174.3 142.65 174.3 176.35 189.7 176.35 Q 196.35 176.35 199.7 173.9 203.1 171.45 203.1 167.35 203.1 165.3 202.4 163.8 201.65 162.3 200.4 161.35 199.15 160.35 197.5 159.85 L 193.95 159.25 196.8 158.3 Q 198.2 157.8 199.25 156.95 200.25 156.15 200.85 154.85 201.45 153.6 201.45 151.75 201.45 147.65 198.35 145.15 M 189.75 146.7 Q 191.8 146.8 193.25 147.4 194.7 147.9 195.45 149 196.25 150.1 196.25 152 196.25 155.35 194.2 156.45 192.15 157.55 188.55 157.55 L 179.15 157.55 179.15 146.55 189.75 146.7 M 195.2 162.2 Q 197.75 163.25 197.75 166.75 197.75 168.85 196.8 170 195.9 171.15 194.2 171.7 192.55 172.25 190.35 172.35 L 179.15 172.45 179.15 161.1 188.3 161.1 Q 192.65 161.1 195.2 162.2 M 242.25 142.65 L 237.35 142.65 237.35 156.3 218.1 156.3 218.1 142.65 213.25 142.65 213.25 176.35 218.1 176.35 218.1 160.35 237.35 160.35 237.35 176.35 242.25 176.35 242.25 142.65 M 328.35 170.1 L 324.65 167.2 Q 323.25 169.5 320.45 171.3 317.7 173.05 313.85 173.05 311.3 173.05 309.05 172.05 306.8 171.1 305.15 169.4 303.45 167.75 302.55 165.55 301.6 163.3 301.55 160.8 L 329.5 160.8 329.55 158.5 Q 329.55 155.05 328.5 152 327.45 149 325.45 146.7 323.45 144.45 320.4 143.15 317.4 141.8 313.4 141.8 309.85 141.8 306.75 143.15 303.6 144.45 301.35 146.8 299 149.2 297.75 152.45 296.45 155.7 296.45 159.5 296.45 163.3 297.8 166.55 299.1 169.8 301.4 172.15 303.7 174.55 306.9 175.9 310.1 177.25 313.85 177.25 318.05 177.25 321.7 175.55 325.3 173.9 328.35 170.1 M 308.9 146.8 Q 310.95 145.9 313.4 145.9 318.65 145.9 321.5 149.05 324.35 152.15 324.55 156.9 L 301.6 156.9 Q 301.75 154.75 302.7 152.75 303.6 150.8 305.25 149.25 306.8 147.7 308.9 146.8 M 386.75 142.65 L 381.85 142.65 381.85 156.3 362.6 156.3 362.6 142.65 357.75 142.65 357.75 176.35 362.6 176.35 362.6 160.35 381.85 160.35 381.85 176.35 386.75 176.35 386.75 142.65 M 60.85 142.65 L 55.4 142.65 69.8 176.3 67.1 183.35 Q 66 186.25 64.55 187.8 63.1 189.3 60.6 189.3 58.7 189.3 57 188.75 L 56.45 193.2 Q 58.65 193.65 60.85 193.65 65.25 193.65 67.6 191.3 69.95 188.95 71.45 185.05 L 88.25 142.65 82.9 142.65 72.45 171.1 72.3 171.1 60.85 142.65 M 30.7 125.35 L 25.7 125.35 8.35 171.6 2 171.6 2 186.35 7.15 186.35 7.15 176.35 49.05 176.35 49.05 186.35 54.3 186.35 54.3 171.6 47.95 171.6 30.7 125.35 M 13.55 171.6 L 28.05 131.15 42.6 171.6 13.55 171.6 M 578.4 36.65 Q 576.45 33.25 573.3 31 570.2 28.7 566.2 27.65 562.15 26.55 557.9 26.55 553.95 26.55 550.2 27.6 546.4 28.65 543.2 30.65 540.05 32.65 537.65 35.7 535.35 38.75 534.2 42.8 L 548.2 46 Q 548.9 42.8 551.35 40.85 553.7 38.9 556.95 38.9 560.05 38.9 562.55 40.7 564.95 42.5 564.95 45.95 564.95 48.3 564 49.75 563.05 51.2 561.5 52.1 559.9 52.95 557.9 53.25 L 549.4 53.6 549.4 64.55 558.1 64.95 Q 560.45 65.35 562.3 66.3 564.1 67.25 565.25 68.9 566.4 70.5 566.4 72.95 566.4 75.15 565.5 76.7 564.7 78.25 563.35 79.15 562.05 80.15 560.45 80.55 L 557.15 81 Q 552.8 81 550 78.65 547.2 76.25 546.3 73.1 L 532.3 76.8 Q 533.55 81.3 536.1 84.5 538.6 87.7 541.95 89.7 545.3 91.75 549.45 92.7 553.55 93.7 557.85 93.7 562.25 93.7 566.55 92.5 570.8 91.3 574.2 88.8 577.65 86.35 579.75 82.5 581.85 78.7 581.85 73.5 581.85 70.75 581 68.4 580.05 66.05 578.45 64.1 576.8 62.15 574.6 60.75 572.35 59.4 569.6 58.75 L 569.6 58.45 Q 574.3 57.2 577.35 53.55 580.35 49.9 580.35 44.6 580.35 40 578.4 36.65 M 490.2 92 L 506.15 92 489.65 47.2 472.05 47.2 454.65 92 470.6 92 480.75 64.7 490.2 92 M 427.95 45.75 Q 422.45 45.75 417.2 47.6 411.95 49.5 408 53.3 L 415.45 61.35 Q 417.55 59.45 420.45 58.05 423.35 56.7 426.55 56.7 429.9 56.7 432.3 58.3 434.6 59.9 434.6 63.2 L 434.6 63.9 424.65 64.45 Q 419.5 65 415.35 66.6 411.1 68.25 408.5 71.2 405.85 74.15 405.85 79.05 405.85 83 407.35 85.7 408.85 88.4 411.25 90 413.65 91.65 416.5 92.35 419.4 93.1 422.1 93.1 426.15 93.1 429.6 91.55 433.1 90 434.8 87.2 L 435.05 87.2 435.05 92 448.55 92 448.55 69.4 Q 448.55 63.3 447.45 58.8 446.3 54.4 443.9 51.45 441.5 48.55 437.55 47.15 433.6 45.75 427.95 45.75 M 428.3 72.7 L 435.05 72.5 435.05 74 Q 435.05 78.25 432.7 80.7 430.3 83.15 425.8 83.15 L 423.55 82.95 421.5 82.2 420 80.75 Q 419.4 79.85 419.4 78.6 419.4 76.6 420.7 75.4 421.9 74.15 423.85 73.55 L 428.3 72.7 M 379.05 41.4 Q 381.3 43.4 381.3 46.4 381.3 49.8 378.95 51.9 376.6 53.95 370.5 53.95 L 360.85 53.95 360.85 64.7 369.7 64.7 Q 373.8 64.7 376.55 65.4 379.2 66.05 380.8 67.3 382.4 68.5 383 70.1 383.65 71.75 383.65 73.65 383.65 77.05 381.2 78.95 378.75 80.85 374.45 80.85 370.75 80.85 368 78.75 365.3 76.7 363.85 72.6 L 350.15 76.8 Q 351.15 80.4 353.1 83.45 355.1 86.6 358.05 88.85 361.05 91.1 365 92.35 368.95 93.65 373.8 93.65 379.05 93.65 383.75 92.25 388.4 90.9 391.8 88.35 395.25 85.8 397.25 82.05 399.3 78.35 399.3 73.65 399.3 69.7 397.9 66.95 396.5 64.2 394.4 62.4 392.35 60.6 389.9 59.7 387.4 58.8 385.15 58.5 L 385.15 58.35 Q 387.1 58 389.3 56.95 391.45 55.9 393.25 54.2 395.1 52.5 396.25 50.1 397.5 47.6 397.5 44.4 397.5 39.95 395.65 36.65 393.8 33.35 390.6 31.15 387.45 28.9 383.15 27.8 378.95 26.65 374.15 26.65 365.2 26.65 359.15 31.15 353.1 35.55 350.8 42.85 L 364.35 47.25 Q 366.15 39.45 373.2 39.45 376.8 39.45 379.05 41.4 Z"/>
</g>

<g id="Layer5_5_MEMBER_0_MEMBER_0_FILL">
<path fill="#F4E721" fill-opacity="0" stroke="none" d=" M 1260.1 1346.85 L 90.8 1346.85 90.8 2141.25 1260.1 2141.25 1260.1 1346.85 Z"/>
</g>

<g id="_______2_0_Layer0_0_FILL">
<path fill="#FFFFFF" stroke="none" d=" M 618.95 215.45 L 614.75 215.45 600.25 232.8 585.45 215.45 581.3 215.45 581.3 249.15 586.15 249.15 586.15 222.95 599.15 238.7 601.15 238.7 614.05 222.55 614.05 249.15 618.95 249.15 618.95 215.45 M 662.05 215.45 L 657 215.45 636.3 241.85 636.3 215.45 631.3 215.45 631.3 249.15 636.3 249.15 657 221.75 657 249.15 662.05 249.15 662.05 215.45 M 569.2 245.65 L 569.05 226.85 Q 569.05 223.75 568 221.45 567 219.15 565.2 217.6 563.4 216.1 561.05 215.35 558.65 214.6 555.95 214.6 551.6 214.6 548.2 215.95 544.75 217.35 542.7 219.4 L 545.4 222.65 Q 547.2 220.85 549.8 219.75 552.4 218.7 555.4 218.7 559.8 218.7 562.1 220.85 564.4 223 564.4 227.35 L 564.4 228.4 555.55 228.7 Q 551.25 229.1 547.9 230.2 544.6 231.3 542.65 233.6 540.65 235.85 540.65 239.75 540.65 242.6 541.75 244.5 542.9 246.5 544.6 247.7 546.25 248.95 548.35 249.45 550.4 250.05 552.3 250.05 556.4 250.05 559.35 248.55 562.25 247.1 564.6 243.65 L 564.7 243.65 565.2 249.15 569.6 249.15 569.2 245.65 M 546.35 242.6 Q 545.7 241.4 545.7 239.6 545.7 237.2 547.3 235.75 548.85 234.3 551.35 233.6 553.8 232.8 556.9 232.55 L 564.4 232.3 564.4 234.8 Q 564.4 237.05 563.7 239.05 563 241.1 561.65 242.65 560.25 244.2 558.2 245.05 556.2 246 553.6 246 L 550.75 245.65 Q 549.35 245.3 548.25 244.6 547.05 243.8 546.35 242.6 M 508.7 215.45 L 503.85 215.45 503.85 249.15 508.7 249.15 508.7 233.45 Q 512.7 233.55 515.8 234.3 518.9 235.05 521.25 236.9 523.55 238.7 525.1 241.7 526.65 244.7 527.65 249.15 L 533.15 249.15 Q 531.2 241.6 527.9 237.1 524.6 232.6 518.6 230.75 L 531.7 215.45 526.25 215.45 514.15 229.7 Q 511.6 229.3 508.7 229.3 L 508.7 215.45 M 424.2 215.45 L 419.35 215.45 419.35 249.15 424.2 249.15 424.2 233.15 443.45 233.15 443.45 249.15 448.35 249.15 448.35 215.45 443.45 215.45 443.45 229.1 424.2 229.1 424.2 215.45 M 465.75 241.85 L 465.75 215.45 460.75 215.45 460.75 249.15 465.75 249.15 486.45 221.75 486.45 249.15 491.5 249.15 491.5 215.45 486.45 215.45 465.75 241.85 M 406.95 227.65 Q 407.55 226.4 407.55 224.55 407.55 220.45 404.45 217.95 401.35 215.45 394.95 215.45 L 380.4 215.45 380.4 249.15 395.8 249.15 Q 402.45 249.15 405.8 246.7 409.2 244.25 409.2 240.15 409.2 238.1 408.5 236.6 407.75 235.1 406.5 234.15 405.25 233.15 403.6 232.65 L 400.05 232.05 402.9 231.1 Q 404.3 230.6 405.35 229.75 406.35 228.95 406.95 227.65 M 385.25 219.35 L 395.85 219.5 Q 397.9 219.6 399.35 220.2 400.8 220.7 401.55 221.8 402.35 222.9 402.35 224.8 402.35 228.15 400.3 229.25 398.25 230.35 394.65 230.35 L 385.25 230.35 385.25 219.35 M 385.25 233.9 L 394.4 233.9 Q 398.75 233.9 401.3 235 403.85 236.05 403.85 239.55 403.85 241.65 402.9 242.8 402 243.95 400.3 244.5 398.65 245.05 396.45 245.15 L 385.25 245.25 385.25 233.9 M 368.3 245.65 L 368.15 226.85 Q 368.15 223.75 367.1 221.45 366.1 219.15 364.3 217.6 362.5 216.1 360.15 215.35 357.75 214.6 355.05 214.6 350.7 214.6 347.3 215.95 343.85 217.35 341.8 219.4 L 344.5 222.65 Q 346.3 220.85 348.9 219.75 351.5 218.7 354.5 218.7 358.9 218.7 361.2 220.85 363.5 223 363.5 227.35 L 363.5 228.4 354.65 228.7 Q 350.35 229.1 347 230.2 343.7 231.3 341.75 233.6 339.75 235.85 339.75 239.75 339.75 242.6 340.85 244.5 342 246.5 343.7 247.7 345.35 248.95 347.45 249.45 349.5 250.05 351.4 250.05 355.5 250.05 358.45 248.55 361.35 247.1 363.7 243.65 L 363.8 243.65 364.3 249.15 368.7 249.15 368.3 245.65 M 356 232.55 L 363.5 232.3 363.5 234.8 Q 363.5 237.05 362.8 239.05 362.1 241.1 360.75 242.65 359.35 244.2 357.3 245.05 355.3 246 352.7 246 L 349.85 245.65 Q 348.45 245.3 347.35 244.6 346.15 243.8 345.45 242.6 344.8 241.4 344.8 239.6 344.8 237.2 346.4 235.75 347.95 234.3 350.45 233.6 352.9 232.8 356 232.55 M 335.1 219.55 L 335.1 215.45 305.5 215.45 305.5 219.55 317.45 219.55 317.45 249.15 322.4 249.15 322.4 219.55 335.1 219.55 M 303.35 220.45 Q 301.2 217.55 297.7 216.05 294.2 214.6 290.85 214.6 286.75 214.6 283.45 215.95 280.1 217.25 277.75 219.6 275.4 222 274.15 225.25 272.85 228.5 272.85 232.3 272.85 236.1 274.15 239.35 275.4 242.6 277.75 244.95 280.1 247.35 283.45 248.7 286.75 250.05 290.85 250.05 295.25 250.05 298.35 248.45 301.5 246.85 303.65 244.2 L 300 241.45 Q 298.55 243.4 296.3 244.6 294.1 245.85 290.85 245.85 287.9 245.85 285.5 244.8 283.15 243.75 281.45 241.9 279.8 240.1 278.95 237.6 278 235.2 278 232.3 278 229.45 278.95 226.95 279.8 224.45 281.5 222.6 283.2 220.8 285.55 219.7 287.95 218.7 290.9 218.7 293.6 218.7 296 219.95 298.35 221.2 299.55 223.15 L 303.35 220.45 M 249.1 218.7 Q 253.5 218.7 255.8 220.85 258.1 223 258.1 227.35 L 258.1 228.4 249.25 228.7 Q 244.95 229.1 241.6 230.2 238.3 231.3 236.35 233.6 234.35 235.85 234.35 239.75 234.35 242.6 235.45 244.5 236.6 246.5 238.3 247.7 239.95 248.95 242.05 249.45 244.1 250.05 246 250.05 250.1 250.05 253.05 248.55 255.95 247.1 258.3 243.65 L 258.4 243.65 258.9 249.15 263.3 249.15 262.75 241.6 262.75 226.85 Q 262.75 223.75 261.7 221.45 260.7 219.15 258.9 217.6 257.1 216.1 254.75 215.35 252.35 214.6 249.65 214.6 245.3 214.6 241.9 215.95 238.45 217.35 236.4 219.4 L 239.1 222.65 Q 240.9 220.85 243.5 219.75 246.1 218.7 249.1 218.7 M 258.1 232.3 L 258.1 234.8 Q 258.1 237.05 257.4 239.05 256.7 241.1 255.35 242.65 253.95 244.2 251.9 245.05 249.9 246 247.3 246 L 244.45 245.65 Q 243.05 245.3 241.95 244.6 240.75 243.8 240.05 242.6 239.4 241.4 239.4 239.6 239.4 237.2 241 235.75 242.55 234.3 245.05 233.6 247.5 232.8 250.6 232.55 L 258.1 232.3 M 224.2 215.45 L 219.3 215.45 219.3 229.1 200.05 229.1 200.05 215.45 195.2 215.45 195.2 249.15 200.05 249.15 200.05 233.15 219.3 233.15 219.3 249.15 224.2 249.15 224.2 215.45 M 848.85 143.5 L 843.8 143.5 823.1 169.9 823.1 143.5 818.1 143.5 818.1 177.2 823.1 177.2 843.8 149.8 843.8 177.2 848.85 177.2 848.85 143.5 M 625.5 147.65 Q 623.15 145.3 619.8 144 616.5 142.65 612.55 142.65 608.65 142.65 605.35 144 602.05 145.3 599.65 147.65 597.3 150.05 596 153.3 594.65 156.55 594.65 160.35 594.65 164.15 596 167.4 597.3 170.65 599.65 173 602.05 175.4 605.35 176.75 608.65 178.1 612.55 178.1 616.5 178.1 619.8 176.75 623.15 175.4 625.5 173 627.9 170.65 629.25 167.4 630.55 164.15 630.55 160.35 630.55 156.55 629.25 153.3 627.9 150.05 625.5 147.65 M 612.55 146.75 Q 615.55 146.75 617.9 147.8 620.25 148.9 621.9 150.75 623.6 152.6 624.5 155.05 625.35 157.55 625.35 160.35 625.35 163.15 624.5 165.65 623.6 168.15 621.9 169.95 620.25 171.8 617.9 172.85 615.55 173.9 612.55 173.9 609.6 173.9 607.25 172.85 604.95 171.8 603.25 169.95 601.6 168.15 600.75 165.65 599.8 163.15 599.8 160.35 599.8 157.55 600.75 155.05 601.6 152.6 603.25 150.75 604.95 148.9 607.25 147.8 609.6 146.75 612.55 146.75 M 503.65 143.5 L 499.35 143.5 486.95 172.95 481.55 172.95 481.55 187.2 486.35 187.2 486.35 177.2 515.95 177.2 515.95 187.2 520.7 187.2 520.7 172.95 515.1 172.95 503.65 143.5 M 491.9 172.95 L 501.35 149.4 510.2 172.95 491.9 172.95 M 564 143.5 L 557.75 143.5 570.2 159.75 556.95 177.2 562.85 177.2 573.15 163.15 583.15 177.2 589.5 177.2 576.1 159.55 588.35 143.5 582.45 143.5 573.25 156.3 564 143.5 M 554.7 143.5 L 549.35 143.5 538.9 171.95 538.75 171.95 527.3 143.5 521.85 143.5 536.25 177.15 533.55 184.2 Q 532.45 187.1 531 188.65 529.55 190.15 527.05 190.15 525.15 190.15 523.45 189.6 L 522.9 194.05 Q 525.1 194.5 527.3 194.5 531.7 194.5 534.05 192.15 536.4 189.8 537.9 185.9 L 554.7 143.5 M 755.7 143.5 L 750.85 143.5 750.85 177.2 755.7 177.2 755.7 143.5 M 805.75 143.5 L 801.55 143.5 787.05 160.85 772.25 143.5 768.1 143.5 768.1 177.2 772.95 177.2 772.95 151 785.95 166.75 787.95 166.75 800.85 150.6 800.85 177.2 805.75 177.2 805.75 143.5 M 664.8 146 Q 661.7 143.5 655.3 143.5 L 640.75 143.5 640.75 177.2 656.15 177.2 Q 662.8 177.2 666.15 174.75 669.55 172.3 669.55 168.2 669.55 166.15 668.85 164.65 668.1 163.15 666.85 162.2 665.6 161.2 663.95 160.7 L 660.4 160.1 663.25 159.15 Q 664.65 158.65 665.7 157.8 666.7 157 667.3 155.7 667.9 154.45 667.9 152.6 667.9 148.5 664.8 146 M 656.2 147.55 Q 658.25 147.65 659.7 148.25 661.15 148.75 661.9 149.85 662.7 150.95 662.7 152.85 662.7 156.2 660.65 157.3 658.6 158.4 655 158.4 L 645.6 158.4 645.6 147.4 656.2 147.55 M 663.25 170.85 Q 662.35 172 660.65 172.55 659 173.1 656.8 173.2 L 645.6 173.3 645.6 161.95 654.75 161.95 Q 659.1 161.95 661.65 163.05 664.2 164.1 664.2 167.6 664.2 169.7 663.25 170.85 M 725.95 143.5 L 721.1 143.5 721.1 177.2 733.2 177.2 Q 736.5 177.2 739 176.3 741.5 175.5 743.15 173.95 744.8 172.45 745.6 170.4 746.45 168.4 746.45 166.15 746.45 163.8 745.75 161.8 745 159.75 743.4 158.3 741.85 156.8 739.25 156 736.65 155.15 732.9 155.15 L 725.95 155.15 725.95 143.5 M 725.95 173.3 L 725.95 159.05 735.55 159.4 Q 737.3 159.7 738.55 160.5 739.85 161.3 740.55 162.7 741.25 164.05 741.25 166.15 741.25 168.25 740.55 169.6 739.9 171 738.7 171.8 737.5 172.65 735.8 173 L 725.95 173.3 M 708.7 143.5 L 703.8 143.5 703.8 157.15 684.55 157.15 684.55 143.5 679.7 143.5 679.7 177.2 684.55 177.2 684.55 161.2 703.8 161.2 703.8 177.2 708.7 177.2 708.7 143.5 M 449.65 146.75 Q 452.35 146.75 454.75 148 457.1 149.25 458.3 151.2 L 462.1 148.5 Q 459.95 145.6 456.45 144.1 452.95 142.65 449.6 142.65 445.5 142.65 442.2 144 438.85 145.3 436.5 147.65 434.15 150.05 432.9 153.3 431.6 156.55 431.6 160.35 431.6 164.15 432.9 167.4 434.15 170.65 436.5 173 438.85 175.4 442.2 176.75 445.5 178.1 449.6 178.1 454 178.1 457.1 176.5 460.25 174.9 462.4 172.25 L 458.75 169.5 Q 457.3 171.45 455.05 172.65 452.85 173.9 449.6 173.9 446.65 173.9 444.25 172.85 441.9 171.8 440.2 169.95 438.55 168.15 437.7 165.65 436.75 163.25 436.75 160.35 436.75 157.5 437.7 155 438.55 152.5 440.25 150.65 441.95 148.85 444.3 147.75 446.7 146.75 449.65 146.75 M 137.7 143.5 L 132.85 143.5 132.85 177.2 137.7 177.2 137.7 161.5 Q 141.7 161.6 144.8 162.35 147.9 163.1 150.25 164.95 152.55 166.75 154.1 169.75 155.65 172.75 156.65 177.2 L 162.15 177.2 Q 160.2 169.65 156.9 165.15 153.6 160.65 147.6 158.8 L 160.7 143.5 155.25 143.5 143.15 157.75 Q 140.6 157.35 137.7 157.35 L 137.7 143.5 M 281.7 142.65 Q 277.6 142.65 274.3 144 270.95 145.3 268.6 147.65 266.25 150.05 265 153.3 263.7 156.55 263.7 160.35 263.7 164.15 265 167.4 266.25 170.65 268.6 173 270.95 175.4 274.3 176.75 277.6 178.1 281.7 178.1 286.1 178.1 289.2 176.5 292.35 174.9 294.5 172.25 L 290.85 169.5 Q 289.4 171.45 287.15 172.65 284.95 173.9 281.7 173.9 278.75 173.9 276.35 172.85 274 171.8 272.3 169.95 270.65 168.15 269.8 165.65 268.85 163.25 268.85 160.35 268.85 157.5 269.8 155 270.65 152.5 272.35 150.65 274.05 148.85 276.4 147.75 278.8 146.75 281.75 146.75 284.45 146.75 286.85 148 289.2 149.25 290.4 151.2 L 294.2 148.5 Q 292.05 145.6 288.55 144.1 285.05 142.65 281.7 142.65 M 200.6 147.65 Q 198.25 145.3 194.9 144 191.6 142.65 187.65 142.65 183.75 142.65 180.45 144 177.15 145.3 174.75 147.65 172.4 150.05 171.1 153.3 169.75 156.55 169.75 160.35 169.75 164.15 171.1 167.4 172.4 170.65 174.75 173 177.15 175.4 180.45 176.75 183.75 178.1 187.65 178.1 191.6 178.1 194.9 176.75 198.25 175.4 200.6 173 203 170.65 204.35 167.4 205.65 164.15 205.65 160.35 205.65 156.55 204.35 153.3 203 150.05 200.6 147.65 M 182.35 147.8 Q 184.7 146.75 187.65 146.75 190.65 146.75 193 147.8 195.35 148.9 197 150.75 198.7 152.6 199.6 155.05 200.45 157.55 200.45 160.35 200.45 163.15 199.6 165.65 198.7 168.15 197 169.95 195.35 171.8 193 172.85 190.65 173.9 187.65 173.9 184.7 173.9 182.35 172.85 180.05 171.8 178.35 169.95 176.7 168.15 175.85 165.65 174.9 163.15 174.9 160.35 174.9 157.55 175.85 155.05 176.7 152.6 178.35 150.75 180.05 148.9 182.35 147.8 M 220 143.5 L 215.85 143.5 215.85 177.2 220.7 177.2 220.7 151 233.7 166.75 235.7 166.75 248.6 150.6 248.6 177.2 253.5 177.2 253.5 143.5 249.3 143.5 234.8 160.85 220 143.5 M 356.9 146 Q 353.8 143.5 347.4 143.5 L 332.85 143.5 332.85 177.2 348.25 177.2 Q 354.9 177.2 358.25 174.75 361.65 172.3 361.65 168.2 361.65 166.15 360.95 164.65 360.2 163.15 358.95 162.2 357.7 161.2 356.05 160.7 L 352.5 160.1 355.35 159.15 Q 356.75 158.65 357.8 157.8 358.8 157 359.4 155.7 360 154.45 360 152.6 360 148.5 356.9 146 M 348.3 147.55 Q 350.35 147.65 351.8 148.25 353.25 148.75 354 149.85 354.8 150.95 354.8 152.85 354.8 156.2 352.75 157.3 350.7 158.4 347.1 158.4 L 337.7 158.4 337.7 147.4 348.3 147.55 M 346.85 161.95 Q 351.2 161.95 353.75 163.05 356.3 164.1 356.3 167.6 356.3 169.7 355.35 170.85 354.45 172 352.75 172.55 351.1 173.1 348.9 173.2 L 337.7 173.3 337.7 161.95 346.85 161.95 M 325.95 147.6 L 325.95 143.5 296.35 143.5 296.35 147.6 308.3 147.6 308.3 177.2 313.25 177.2 313.25 147.6 325.95 147.6 M 400.5 147.65 Q 398.15 145.3 394.8 144 391.5 142.65 387.55 142.65 383.65 142.65 380.35 144 377.05 145.3 374.65 147.65 372.3 150.05 371 153.3 369.65 156.55 369.65 160.35 369.65 164.15 371 167.4 372.3 170.65 374.65 173 377.05 175.4 380.35 176.75 383.65 178.1 387.55 178.1 391.5 178.1 394.8 176.75 398.15 175.4 400.5 173 402.9 170.65 404.25 167.4 405.55 164.15 405.55 160.35 405.55 156.55 404.25 153.3 402.9 150.05 400.5 147.65 M 382.25 147.8 Q 384.6 146.75 387.55 146.75 390.55 146.75 392.9 147.8 395.25 148.9 396.9 150.75 398.6 152.6 399.5 155.05 400.35 157.55 400.35 160.35 400.35 163.15 399.5 165.65 398.6 168.15 396.9 169.95 395.25 171.8 392.9 172.85 390.55 173.9 387.55 173.9 384.6 173.9 382.25 172.85 379.95 171.8 378.25 169.95 376.6 168.15 375.75 165.65 374.8 163.15 374.8 160.35 374.8 157.55 375.75 155.05 376.6 152.6 378.25 150.75 379.95 148.9 382.25 147.8 M 101.35 147.8 Q 103.95 146.75 106.95 146.75 111.35 146.75 113.65 148.9 115.95 151.05 115.95 155.4 L 115.95 156.45 107.1 156.75 Q 102.8 157.15 99.45 158.25 96.15 159.35 94.2 161.65 92.2 163.9 92.2 167.8 92.2 170.65 93.3 172.55 94.45 174.55 96.15 175.75 97.8 177 99.9 177.5 101.95 178.1 103.85 178.1 107.95 178.1 110.9 176.6 113.8 175.15 116.15 171.7 L 116.25 171.7 116.75 177.2 121.15 177.2 120.75 173.7 120.6 154.9 Q 120.6 151.8 119.55 149.5 118.55 147.2 116.75 145.65 114.95 144.15 112.6 143.4 110.2 142.65 107.5 142.65 103.15 142.65 99.75 144 96.3 145.4 94.25 147.45 L 96.95 150.7 Q 98.75 148.9 101.35 147.8 M 115.95 162.85 Q 115.95 165.1 115.25 167.1 114.55 169.15 113.2 170.7 111.8 172.25 109.75 173.1 107.75 174.05 105.15 174.05 L 102.3 173.7 Q 100.9 173.35 99.8 172.65 98.6 171.85 97.9 170.65 97.25 169.45 97.25 167.65 97.25 165.25 98.85 163.8 100.4 162.35 102.9 161.65 105.35 160.85 108.45 160.6 L 115.95 160.35 115.95 162.85 M 57.9 143.5 L 53.05 143.5 53.05 177.2 57.9 177.2 57.9 161.2 77.15 161.2 77.15 177.2 82.05 177.2 82.05 143.5 77.15 143.5 77.15 157.15 57.9 157.15 57.9 143.5 M 12.25 136.05 Q 13.75 133.1 16.45 131.2 19.1 129.3 22.9 129.3 27.75 129.3 30.8 131.75 33.8 134.15 33.8 138.9 33.8 141.4 32.65 143.2 31.55 145.05 29.65 146.1 27.85 147.25 25.5 147.75 23.1 148.25 20.65 148.25 L 18.4 148.25 18.4 152.75 20.65 152.75 Q 23.95 152.75 26.9 153.2 29.8 153.65 32 154.85 34.15 156.05 35.45 158.05 36.7 160.1 36.7 163.1 36.7 168.05 33.3 171.05 29.95 174.05 23.65 174.05 20.9 174.05 18.75 173.35 16.65 172.75 15.05 171.6 13.45 170.45 12.35 168.8 L 10.35 165.2 5.9 167.85 Q 7.05 170.2 8.55 172.2 10.1 174.2 12.25 175.6 14.3 177 17.05 177.75 19.8 178.5 23.25 178.5 27.15 178.5 30.55 177.4 33.95 176.3 36.5 174.3 39 172.3 40.45 169.45 41.9 166.6 41.9 163.1 41.9 159.7 40.65 157.4 39.35 155.1 37.45 153.65 35.55 152.2 33.2 151.45 L 28.7 150.4 28.7 150.25 Q 30.6 149.8 32.4 148.7 34.25 147.65 35.7 146.15 37.2 144.65 38.1 142.75 39 140.85 39 138.6 39 135.3 37.85 132.75 36.75 130.2 34.65 128.45 32.6 126.7 29.65 125.85 26.8 124.9 23.3 124.9 18.3 124.9 14.4 126.9 10.6 128.9 8.2 133 L 12.25 136.05 M 340.45 41.4 Q 342.7 43.4 342.7 46.4 342.7 49.8 340.35 51.9 338 53.95 331.9 53.95 L 322.25 53.95 322.25 64.7 331.1 64.7 Q 335.2 64.7 337.95 65.4 340.6 66.05 342.2 67.3 343.8 68.5 344.4 70.1 345.05 71.75 345.05 73.65 345.05 77.05 342.6 78.95 340.15 80.85 335.85 80.85 332.15 80.85 329.4 78.75 326.7 76.7 325.25 72.6 L 311.55 76.8 Q 312.55 80.4 314.5 83.45 316.5 86.6 319.45 88.85 322.45 91.1 326.4 92.35 330.35 93.65 335.2 93.65 340.45 93.65 345.15 92.25 349.8 90.9 353.2 88.35 356.65 85.8 358.65 82.05 360.7 78.35 360.7 73.65 360.7 69.7 359.3 66.95 357.9 64.2 355.8 62.4 353.75 60.6 351.3 59.7 348.8 58.8 346.55 58.5 L 346.55 58.35 Q 348.5 58 350.7 56.95 352.85 55.9 354.65 54.2 356.5 52.5 357.65 50.1 358.9 47.6 358.9 44.4 358.9 39.95 357.05 36.65 355.2 33.35 352 31.15 348.85 28.9 344.55 27.8 340.35 26.65 335.55 26.65 326.6 26.65 320.55 31.15 314.5 35.55 312.2 42.85 L 325.75 47.25 Q 327.55 39.45 334.6 39.45 338.2 39.45 340.45 41.4 M 408.85 58.8 Q 407.7 54.4 405.3 51.45 402.9 48.55 398.95 47.15 395 45.75 389.35 45.75 383.85 45.75 378.6 47.6 373.35 49.5 369.4 53.3 L 376.85 61.35 Q 378.95 59.45 381.85 58.05 384.75 56.7 387.95 56.7 391.3 56.7 393.7 58.3 396 59.9 396 63.2 L 396 63.9 386.05 64.45 Q 380.9 65 376.75 66.6 372.5 68.25 369.9 71.2 367.25 74.15 367.25 79.05 367.25 83 368.75 85.7 370.25 88.4 372.65 90 375.05 91.65 377.9 92.35 380.8 93.1 383.5 93.1 387.55 93.1 391 91.55 394.5 90 396.2 87.2 L 396.45 87.2 396.45 92 409.95 92 409.95 69.4 Q 409.95 63.3 408.85 58.8 M 389.7 72.7 L 396.45 72.5 396.45 74 Q 396.45 78.25 394.1 80.7 391.7 83.15 387.2 83.15 L 384.95 82.95 382.9 82.2 381.4 80.75 Q 380.8 79.85 380.8 78.6 380.8 76.6 382.1 75.4 383.3 74.15 385.25 73.55 L 389.7 72.7 M 432 92 L 442.15 64.7 451.6 92 467.55 92 451.05 47.2 433.45 47.2 416.05 92 432 92 M 517.5 28.3 L 496.55 43.65 504.4 54.4 516.3 45.2 516.3 92 531.3 92 531.3 28.3 517.5 28.3 Z"/>
</g>

<g id="Mask________10_________0_1_MASK_0_FILL">
<path fill="#FFFFFF" stroke="none" d=" M 3210.7 72.1 L 2619.9 72.15 2619.9 863.25 3210.7 863.25 3210.7 72.1 M 4462.65 863.25 L 4462.65 72.1 3252.75 72.1 3252.75 863.25 4462.65 863.25 Z"/>
</g>

<g id="Mask________10_0_1_MASK_0_FILL">
<path fill="#FFFFFF" stroke="none" d=" M 2585.85 72.15 L 1962.95 72.15 1962.95 863.25 2585.85 863.25 2585.85 72.15 Z"/>
</g>

<g id="Mask________10_________4_0_1_MASK_0_FILL">
<path fill="#FFFFFF" stroke="none" d=" M 1261.85 1346.05 L 84.2 1346.05 84.2 2139.15 1261.85 2139.15 1261.85 1346.05 Z"/>
</g>

<g id="Mask________10_________3_0_1_MASK_0_FILL">
<path fill="#FFFFFF" stroke="none" d=" M 2555.7 1326 L 1297.95 1326 1297.95 2129.1 2555.7 2129.1 2555.7 1326 Z"/>
</g>

<g id="Mask________10_________2_0_1_MASK_0_FILL">
<path fill="#FFFFFF" stroke="none" d=" M 3773.5 1326 L 2611.9 1326 2611.9 2129.1 3773.45 2129.1 3773.5 1326 M 3829.6 1326 L 3829.6 2129.1 4448.5 2129.1 4448.5 1326 3829.6 1326 Z"/>
</g>
</defs>

<g filter="url(#Filter_1)" transform="matrix( 1, 0, 0, 1, 0,0) " style="&#10;" class="hall-background">
<g transform="matrix( 1, 0, 0, 1, 0,0) ">
<g transform="matrix( 2.2725067138671875, 0, 0, 2.27215576171875, 0,0) ">
<use xlink:href="#plan_jpg"/>
</g>
</g>
</g>

<g transform="matrix( 1, 0, 0, 1, 0,0) " class="hall-background">
<g transform="matrix( 1, 0, 0, 1, 0,0) ">
<use filter="url(#Filter_2)" xlink:href="#_______9_0_Layer1_0_FILL"/>
</g>

<g transform="matrix( 1, 0, 0, 1, 0,0) ">
<use filter="url(#Filter_2)" xlink:href="#_______9_0_Layer0_0_FILL"/>
</g>
</g>

<g transform="matrix( 1, 0, 0, 1, 0,0) " class="hall-background">
<use xlink:href="#Layer5_0_FILL"/>
</g>

<g transform="matrix( 1, 0, 0, 1, 1955.05,70.45) " class="hall-5 hall-hover">
<g transform="matrix( 1, 0, 0, 1, -1963.05,-70.45) ">
<use filter="url(#Filter_3)" xlink:href="#_______6_0_Layer0_0_MEMBER_0_MEMBER_0_FILL"/>
</g>
</g>

<g filter="url(#Filter_4)" transform="matrix( 1, 0, 0, 1, 0,0) " class="hall-text">
<g transform="matrix( 1, 0, 0, 1, 2141.3,330.7) ">
<g transform="matrix( 1, 0, 0, 1, 0,0) ">
<use xlink:href="#_______7_0_Layer0_0_FILL"/>
</g>
</g>
</g>

<g transform="matrix( 1, 0, 0, 1, 0,0) " class="hall-4 hall-hover">
<use xlink:href="#Layer5_2_MEMBER_0_FILL"/>
</g>

<g filter="url(#Filter_5)" transform="matrix( 1, 0, 0, 1, 0,0) " class="hall-text">
<g transform="matrix( 1, 0, 0, 1, 3609.3,327.45) ">
<g transform="matrix( 1, 0, 0, 1, 0,0) ">
<use xlink:href="#_______8_0_Layer0_0_FILL"/>
</g>
</g>
</g>

<g transform="matrix( 1, 0, 0, 1, 1302.55,1334.6) " class="hall-2 hall-hover">
<g transform="matrix( 1, 0, 0, 1, -1302.55,-1334.6) ">
<use xlink:href="#_______3_0_Layer0_0_FILL"/>
</g>

<g filter="url(#Filter_6)" transform="matrix( 1, 0, 0, 1, -1302.55,-1334.6) ">
<g transform="matrix( 1, 0, 0, 1, 1440.3,1607.1) ">
<g transform="matrix( 1, 0, 0, 1, 0,0) ">
<use xlink:href="#_______4_0_Layer0_0_FILL"/>
</g>
</g>
</g>
</g>

<g transform="matrix( 1, 0, 0, 1, 0,0) " class="hall-3 hall-hover">
<use xlink:href="#Layer5_4_MEMBER_0_FILL"/>
</g>

<g filter="url(#Filter_7)" transform="matrix( 1, 0, 0, 1, 0,0) " class="hall-text">
<g transform="matrix( 1, 0, 0, 1, 2713.65,1607.1) ">
<g transform="matrix( 1, 0, 0, 1, 0,0) ">
<use xlink:href="#_______5_0_Layer0_0_FILL"/>
</g>
</g>
</g>

<g transform="matrix( 1, 0, 0, 1, 0,0) " class="hall-1 hall-hover">
<use xlink:href="#Layer5_5_MEMBER_0_MEMBER_0_FILL"/>
</g>

<g filter="url(#Filter_8)" transform="matrix( 1, 0, 0, 1, 0,0) " class="hall-text">
<g transform="matrix( 1, 0, 0, 1, 246.7,1607.1) ">
<g transform="matrix( 1, 0, 0, 1, 0,0) ">
<use xlink:href="#_______2_0_Layer0_0_FILL"/>
</g>
</g>
</g>

<g transform="matrix( 1, 0, 0, 1, 0,0) " class="hall-4 hall-color">
<mask id="Mask_Mask_1">
<g transform="matrix( 1, 0, 0, 1, 0,0) ">
<use xlink:href="#Mask________10_________0_1_MASK_0_FILL"/>
</g>
</mask>

<g mask="url(#Mask_Mask_1)">
<g filter="url(#Filter_9)" transform="matrix( 1, 0, 0, 1, 0,0) ">
<g transform="matrix( 1, 0, 0, 1, 0,0) ">
<g transform="matrix( 2.2725067138671875, 0, 0, 2.27215576171875, 0,0) ">
<use xlink:href="#plan_jpg"/>
</g>
</g>
</g>
</g>
</g>

<g transform="matrix( 1, 0, 0, 1, 0,0) " class="hall-5 hall-color">
<mask id="Mask_Mask_2">
<g transform="matrix( 1, 0, 0, 1, 0,0) ">
<use xlink:href="#Mask________10_0_1_MASK_0_FILL"/>
</g>
</mask>

<g mask="url(#Mask_Mask_2)">
<g filter="url(#Filter_9)" transform="matrix( 1, 0, 0, 1, 0,0) ">
<g transform="matrix( 1, 0, 0, 1, 0,0) ">
<g transform="matrix( 2.2725067138671875, 0, 0, 2.27215576171875, 0,0) ">
<use xlink:href="#plan_jpg"/>
</g>
</g>
</g>
</g>
</g>

<g transform="matrix( 1, 0, 0, 1, 0,0) " class="hall-1 hall-color">
<mask id="Mask_Mask_3">
<g transform="matrix( 1, 0, 0, 1, 0,0) ">
<use xlink:href="#Mask________10_________4_0_1_MASK_0_FILL"/>
</g>
</mask>

<g mask="url(#Mask_Mask_3)">
<g filter="url(#Filter_9)" transform="matrix( 1, 0, 0, 1, 0,0) ">
<g transform="matrix( 1, 0, 0, 1, 0,0) ">
<g transform="matrix( 2.2725067138671875, 0, 0, 2.27215576171875, 0,0) ">
<use xlink:href="#plan_jpg"/>
</g>
</g>
</g>
</g>
</g>

<g transform="matrix( 1, 0, 0, 1, 0,0) " class="hall-2 hall-color">
<mask id="Mask_Mask_4">
<g transform="matrix( 1, 0, 0, 1, 0,0) ">
<use xlink:href="#Mask________10_________3_0_1_MASK_0_FILL"/>
</g>
</mask>

<g mask="url(#Mask_Mask_4)">
<g filter="url(#Filter_9)" transform="matrix( 1, 0, 0, 1, 0,0) ">
<g transform="matrix( 1, 0, 0, 1, 0,0) ">
<g transform="matrix( 2.2725067138671875, 0, 0, 2.27215576171875, 0,0) ">
<use xlink:href="#plan_jpg"/>
</g>
</g>
</g>
</g>
</g>

<g transform="matrix( 1, 0, 0, 1, 0,0) " class="hall-3 hall-color">
<mask id="Mask_Mask_5">
<g transform="matrix( 1, 0, 0, 1, 0,0) ">
<use xlink:href="#Mask________10_________2_0_1_MASK_0_FILL"/>
</g>
</mask>

<g mask="url(#Mask_Mask_5)">
<g filter="url(#Filter_9)" transform="matrix( 1, 0, 0, 1, 0,0) ">
<g transform="matrix( 1, 0, 0, 1, 0,0) ">
<g transform="matrix( 2.2725067138671875, 0, 0, 2.27215576171875, 0,0) ">
<use xlink:href="#plan_jpg"/>
</g>
</g>
</g>
</g>
</g>
</svg>