
<svg xmlns="http://www.w3.org/2000/svg" version="1.1" xmlns:xlink="http://www.w3.org/1999/xlink" preserveAspectRatio="none" x="0px" y="0px" width="1112px" height="518px" viewBox="0 0 1112 518">
<defs>
<g id="Layer1_0_FILL">
<path fill="#FFFFFF" stroke="none" d="
M 476.35 440
L 471.35 440 471.2 467.8 476.75 467.9 476.35 440
M 278.35 443.3
L 272.7 443.25 272.7 472.4 277.35 472.55
Q 277.35 470 277.6 462.4
L 278.35 443.3
M 279.35 416.15
L 273.5 416 272.6 425.4 272.7 442.05 278.35 442.25 279.35 416.15
M 284.1 369.75
L 284 370.25 283.25 390.75
Q 283.15 394.25 282.2 411.25
L 282 414 314.85 413.65
Q 319.35 413.65 321.6 413.75
L 322.85 388.4 323.1 388.4 323.1 386.8
Q 322.9369140625 386.8240234375 322.75 386.8 314.991015625 386.88359375 310.6 386.8
L 310.2 386.8 284.1 369.75
M 257.25 387.15
L 259.5 387.15 258.6 414.75 271 414.4 275.1 370.5 257.25 387.15
M 282.25 368.55
L 278.1 365.8 273.7 414.4 274.35 414.3 279.45 414.05 279.5 411.15
Q 280.45 394 280.7 390.55
L 282.25 368.55
M 284.85 329.05
L 285.6 309 282.6 307.4 278.35 362.75 282.75 362.8 282.75 362.65 283.7 349.65
Q 284.45 338.2 284.85 329.05
M 112.9 367.55
L 114.9 366.15 126.05 380.4 126.05 396 196 391.5 196.6 384.15 198.4 384.15 198.85 389.3 243.85 388.9 269.85 367.5 244.1 367.5 228.1 376.25 211 370.65 197.4 376.55 180.6 365.25 147.9 365.5 147.85 365.4 111.8 362.5 97.5 375.65 96.7 375 96.15 375.75 96.55 397.25 123.4 397.9 123.5 382 112.9 367.55
M 5.9 378.3
L 7.5 378.5 7.55 397.75 95.05 397.5 95.05 376
Q 84.8 366.95 78.25 361.05
L 78.4 360.9 77.8 360.15 53.5 380.25 27.25 360 5.9 378.3
M 589.5 387.8
L 589.25 387.9 587.75 387.9 588.45 412.15 609.9 411.75 610.4 384 589.5 387.8
M 583.9 390.25
Q 583.8 392.15 583.8 394.55
L 584.65 404.4 583.3 404.4
Q 581.05 404.7 578.65 404.55 576.3 404.55 573.95 404.4 572.95 404.4 569.2 404.05
L 568.25 404 568.15 412 586.7 412.3 587.3 387.9 584 387.8 583.9 390.25
M 582.9 394.55
Q 582.9 392.15 582.8 390.25
L 582.75 387.8 568.45 387.75 568.25 402.5 573.95 402.05
Q 576.3 401.9 578.65 401.9 581.1 401.9 582.3 402
L 582.55 398.9
Q 582.8 397.05 582.9 394.55
M 581.95 376.8
Q 581.9115234375 375.7603515625 581.85 374.85 581.75 371.159375 581.75 370.15
L 566.3 380.75 575.75 380.9 581.95 376.8
M 565.65 383.25
L 565.65 384.9 582.5 384.8 582.05 379.15 576.45 383.15 565.65 383.25
M 519.45 340.15
L 517.9 341.2
Q 519.76328125 343.7826171875 523 348.5
L 540.5 374.25
Q 546.8 374.45 557.05 375
L 530.45 340.5 519.45 340.15
M 515.25 343.9
L 516.05 344.5 505.75 358.75
Q 497.65 370.05 495.75 372.9
L 496.35 410 503.45 410 503 403.9
Q 502.5 399.75 502.5 396.65
L 503.1 385.65
Q 503.6 382.5 503.7 382
L 504 382 504.6 385.65 505.2 396.65
Q 505.2 399.7 504.7 403.9
L 504.25 410 509.7 409.9 509.1 396.65
Q 509.1 392.6 509.25 389.3
L 509.75 382.75 505.5 382.15 505.5 381.9
Q 506.25 381.75 510.7 381.15
L 511.45 381.05 511.5 382
Q 512 386.4 512.05 389.3 512.35 393.4 512.25 396.65 512.25 399.65 512.05 403.9
L 511.75 409.9 535.95 409.65 536 374 538.4 372.15 515.7 341.9 489.5 374.9 489.95 375.3 515.25 343.9
M 437 387.65
Q 439.1 387.65 444.6 387.9
L 452.35 388.25 452.5 384.4 438.1 368.9 429.6 378.65
Q 433 382.65 437 387.65
M 419.35 389.15
L 419 389.4 418.75 389.4 412.75 388.75 412.75 388.5 418.35 387.9 426.25 378.05 415.75 366.25 388.35 394.55 390 396.15 390.95 414.55 422.1 413.9
Q 427.35 413.75 437.95 413.75
L 452.25 413.55 452.35 388.65 436.25 389.25 428.2 380.25 425.85 382.55
Q 421.9 386.75 419.35 389.15
M 443.45 362.55
L 439.25 367.65 455.1 383.25 457.4 383.25
Q 457.5189453125 381.537109375 457.7 379.65 455.8 376.85 454.35 375.05
L 452.5 372.75
Q 451.6 371.5 450.6 370.4 448.9 368.35 443.45 362.55
M 436.1 366.8
L 436.1 366.75 434.45 364.9 421 364.4 419.05 366.05 427.75 376.4 436.1 366.8
M 469.1 309.5
Q 469.1478515625 315.984765625 469.2 321.45 469.3197265625 327.405078125 469.45 332.15
L 470.2 354.75
Q 470.85 375.25 470.85 377.4
L 468.55 377.4 468.7 400.05
Q 468.8 408.85 469.2 422.75
L 469.75 437.3 476.35 437.15 475.55 377.4 476.25 297.4 469 288.9 469.1 309.5
M 338.35 389.05
L 338.2 388.9 307.35 365.4 284.25 365.65 284.25 366.3 311.2 383.65 329 383.65 328.75 413.9 362.85 414.4 363.45 388.9 338.35 389.05
M 333 377.25
L 332.95 377.25 310.55 360.3 308.2 363 338.75 387.8
Q 342.3 387.9 354.5 387.9
L 369.35 388 333.6 354.9 311.35 355 334.35 375.75 333 377.3 333 377.25
M 706.75 414.15
L 699.7 414.25 698.7 458.25 707.5 458.05
Q 707.15 448.25 707.15 442.25
L 706.75 414.15
M 773.75 322.5
L 774.05 315.85 722.55 310.55 773.75 322.5
M 779.95 326.25
L 775.5 325.95 773 363.5 770.8 413.35 776.2 413.7 779.95 326.25
M 787.5 330
L 782.35 329.75 778.5 413.85 786.3 414.4 805.5 414.5 805.55 415.8 807.85 415.8 807.75 411.55 803.2 411.55 803 333.55 802.5 329.65 789 331.4 789.05 411.65 786.35 411.65 787.5 330
M 787 327.8
L 787.15 327.9 808.5 327.65 808.5 325.85 808.75 324.85 782.8 317.9 782.55 324.5 781.25 325.35 782.5 326.8 787 327.8
M 699.75 370.4
L 699.9 383
Q 699.9 391.4 699.8 398.05
L 699.7 411.9 705.25 411.9 706.15 374.3 699.75 370.4
M 714.75 379.55
L 709.35 379.55 708.95 412.9 710.25 412.9 723.5 409.5 723.15 373.4 714.75 379.55
M 706.5 355.5
L 699.45 349.9 699.7 367 706.5 371.05 706.5 355.5
M 724.7 366
L 728.75 369.25 724.65 372.3 724.25 410.15 769.1 413.2 773.55 324.75 725.15 313.75 724.7 366
M 723.15 369.5
L 723.15 368.8 709.5 357.9 709.45 372.8 714.55 375.9 723.15 369.5
M 678.75 357.4
Q 665.3 349.05 661.25 346.5
L 644.2 335.75 610.4 358.9 584.75 377.15 584.25 384.75 589.15 384.75 613.7 380.15 612.5 412.55 654.05 412
Q 662.1 411.75 671.5 411.75
L 697.5 411.9 697.3 368.9 678.75 357.4
M 655.75 363.4
L 656.15 370.5
Q 656.15 372.55 655.7 376.5 655.25 379.5 655.25 382.5
L 655.7 389.15 651.5 389.55
Q 650.25 389.75 648.25 389.8
L 646.95 389.9 646.65 382.5
Q 646.55 379.25 646.75 376.5
L 647.25 370.5
Q 647.5 367.65 648.05 364.55
L 648.15 364.4 648.25 364.4 655.75 363.4
M 653.7 365.55
L 651.5 365.25
Q 649.85 365.05 648.45 364.75 648.9 367.2 649.25 370.5
L 649.75 376.5
Q 649.9 379.45 649.8 382.5
L 649.65 387.15 654.05 387.55 654.3 382.5
Q 654.35 380.05 653.9 376.5 653.45 373 653.45 370.5
L 653.7 365.55
M 652.3 327.5
L 650.8 317.55
Q 648.65 317.55 634.65 317.25
L 633.65 326.75 636.65 331.35 636.7 331.35 644 326.55 644.25 326.8
Q 642.59375 328.0240234375 641.05 329.15 640.9748046875 329.2009765625 640.9 329.25 640.8501953125 329.288671875 640.8 329.3 640.76328125 329.3515625 640.7 329.35 639.0359375 330.5982421875 637.5 331.7 637.3060546875 331.822265625 637.1 331.95
L 637.1 331.95
Q 635.5470703125 333.052734375 634.15 334
L 585 367.9 584.9 374.8 644.05 334.25 644.5 334.4 697.4 365.65 697.7 348.5 697.6 348.45 679.7 334.05 652.3 327.5
M 702.95 327.3
L 699 329.4 696.15 333.9 699 337.25 699.2 337.4 699.25 337.65 699.4 346.25 706.5 351.75 706.5 329.15 702.95 327.3
M 704.5 293.5
L 700.2 293.5 699.05 327.15 702.95 327.3 704.5 293.5
M 783.25 258.7
L 779.25 258.5 775.75 322.9 780 323.9 783.25 258.7
M 1055.95 80.4
Q 1056.0212890625 80.274609375 1056.1 80.15
L 1052.1 89.2 1053.8 89.95 1077.3 54.55 960.45 1.65 950.45 1.65 854 54.6 856.05 58.3 872.55 58.3
Q 872.2849609375 58.5900390625 872 58.9 870.9380859375 60.0869140625 869.4 62.1 869.3533203125 62.1384765625 869.3 62.15 868.81953125 62.2486328125 868.35 62.35 865.1166015625 63.2271484375 863.1 65.2 861.3 66.95 860.3 69.9 859.55 71.9 858.95 75.45 858.472265625 78.169921875 858 80.95 857.8263671875 81.4890625 857.65 82 857.3998046875 82.71953125 857.15 83.45 855.60625 88.7197265625 855.3 95.5 855.22890625 96.977734375 855.2 99.15 855.2248046875 99.378515625 855.2 99.6 855.2294921875 100.4646484375 855.25 101.45 855.220703125 101.7056640625 855.2 101.95 854.780078125 105.6421875 854.4 109.45 854.33359375 110.11953125 854.25 110.8 853.359375 120.196875 852.7 130.3 851.6083984375 146.3693359375 850.6 176.55 850.445703125 180.926171875 850.3 185.6 849.8841796875 198.907421875 849.65 209.15 849.494921875 217.3591796875 849.45 223.6 849.446484375 224.805859375 849.45 225.95 849.4451171875 227.460546875 849.45 228.85 849.55 252.85 851.6 272 851.701171875 272.9193359375 851.8 274
L 851.05 291.55
Q 850.9880859375 292.826171875 850.95 293.95 850.849609375 297.369140625 851 299.4 851.3046875 303.1427734375 852.5 305.95
L 832.45 481.4 820.05 496.9 825.05 506.25 835.3 494.1
Q 834.80078125 495.977734375 834.25 498 833.9146484375 499.4267578125 833.6 500.8 831.9298828125 508.9767578125 831.95 515.35 831.973828125 516.061328125 832 516.75 832.0359375 517.609765625 832.1 518.4
L 832.1 518.45
Q 832.1068359375 518.525390625 832.1 518.6
L 859.9 518.6
Q 859.9533203125 518.5244140625 859.95 518.45
L 1065.2 518.45
Q 1065.248828125 518.52578125 1065.25 518.6
L 1097.1 518.6
Q 1097.2859375 518.5240234375 1097.45 518.45
L 1112.05 518.45 1112.05 502.05
Q 1112.5322265625 498.7455078125 1112.35 494.25 1112.2576171875 491.69375 1112.05 489 1110.9107421875 474.1466796875 1106.3 454.9 1104.0974609375 446.664453125 1102.25 439.7 1099.118359375 427.6666015625 1097.1 419.55 1096.6880859375 417.72734375 1096.3 416.1 1094.414453125 408.104296875 1092.95 400.3 1089.3634765625 380.9771484375 1088.45 363 1088.4626953125 362.71875 1088.45 362.45 1088.15 353.25 1087.85 348.6 1087.35 340.65 1086.1 334.9 1085.45 331.8 1083.35 324.75 1081.4 318.25 1080.75 314.55 1079.7 309.1 1079.5 301.2 1079.5 292.2 1079.35 287.7 1079 277.2 1077.05 263.9 1076.1 257.5 1072.95 240.3 1070.2615234375 225.5728515625 1067.8 210.8 1065.359765625 196.05 1063.15 181.25 1057.4251953125 142.7294921875 1053.3 103.85 1052.65 97.8 1052.05 94.95 1051.98515625 94.647265625 1051.9 94.35 1051.7470703125 93.58203125 1051.55 92.85
L 1051.55 90.3 1051.5 90.15 1051.4 88.7
Q 1051.9287109375 87.5541015625 1052.5 86.45 1053.6 84.4 1055.95 80.4
M 1056.5 61.25
Q 1056.266796875 61.0412109375 1056 60.85 1054.2255859375 59.4578125 1051.55 58.8 1050.0705078125 58.455859375 1047.95 58.25
L 1065.75 58.25 1059.05 73.4
Q 1059.946875 70.2390625 1059.5 67.2 1059.432421875 66.7775390625 1059.35 66.35 1058.6296875 63.2021484375 1056.5 61.25
M 1029.55 157.55
L 1029.5 155.15
Q 1029.602734375 155.661328125 1029.7 156.15 1029.808984375 156.71484375 1029.9 157.3 1029.73203125 157.431640625 1029.55 157.55
M 885.55 83.75
Q 885.56484375 82.243359375 885.55 80.85
L 885.95 80.85 885.95 83.95
Q 885.783203125 83.8396484375 885.55 83.75 Z"/>

<path fill="#FF0000" stroke="none" d="
M 476.35 440
L 476.35 439.8 471.35 440 476.35 440
M 489.95 375.3
L 489.5 374.9 489.2 375.3 489.95 375.3
M 1096.3 416.1
Q 1096.6880859375 417.72734375 1097.1 419.55 1096.786328125 417.895703125 1096.4 416.15
L 1092.95 400.3
Q 1094.414453125 408.104296875 1096.3 416.1
M 832.1 518.45
L 832.1 518.4
Q 831.72890625 518.4396484375 831.4 518.45
L 832.1 518.45
M 855.2 99.6
Q 855.2248046875 99.378515625 855.2 99.15
L 854.45 99.75 855.2 99.6
M 856.05 58.3
L 854 54.6 853.75 54.75 856.05 58.3 Z"/>

<path fill="#522810" stroke="none" d="
M 885.55 80.85
Q 885.56484375 82.243359375 885.55 83.75 885.783203125 83.8396484375 885.95 83.95
L 885.95 80.85 885.55 80.85
M 1029.5 155.15
L 1029.55 157.55
Q 1029.73203125 157.431640625 1029.9 157.3 1029.808984375 156.71484375 1029.7 156.15 1029.602734375 155.661328125 1029.5 155.15 Z"/>
</g>

<g id="Layer0_0_MEMBER_0_MEMBER_0_MEMBER_0_FILL">
<path fill="#522810" stroke="none" d="
M 7.5 378.5
L 5.9 378.3 27.25 360 53.5 380.25 77.8 360.15 97.5 375.65 111.8 362.5 147.85 365.4 147.9 365.5 180.6 365.25 197.4 376.55 211 370.65 228.1 376.25 244.1 367.5 269.85 367.5 243.85 388.9 198.85 389.3 198.4 384.15 196.6 384.15 196 391.5 126.05 396 126.05 380.4 114.9 366.15 112.9 367.55 123.5 382 123.4 397.9 96.55 397.25 96.15 375.75 96.05 375.5 95.9 375.4 78.4 360.9 78.25 361.05
Q 84.8 366.95 95.05 376
L 95.05 398.75 125.8 400 125.8 398.75 197.75 393.25 197.9 391 244.1 389.8 244.25 389.75 272.85 366.4 243.65 366.25 227.9 374.5 210.9 368.65 197.65 374.15 181.35 362.9 148.1 362.75 110.8 359.4 97.4 371.65 77.8 356.15 53.45 376.3 27.1 356.25 0 380.05 5.05 380.75 5.3 400.05 91.75 397.75 91.75 397.5 7.55 397.75 7.5 378.5
M 516.55 339.3
L 515.75 338.05 484 377.75 491 377.65 494.5 373.15 493.85 412.5 539 412.8 539 377.15
Q 545.55 377.5 559.9 377.8
L 562.75 377.9 530.9 339.5 519.45 339.8 519.45 340.15 530.45 340.5 557.05 375
Q 546.8 374.45 540.5 374.25
L 523 348.5
Q 518.3 341.65 516.55 339.3
M 516.05 344.5
L 515.25 343.9 489.95 375.3 489.2 375.3 515.7 341.9 539.9 374.15 536 374 535.95 409.65 511.75 409.9 512.05 403.9
Q 512.25 399.65 512.25 396.65 512.35 393.4 512.05 389.3 512 386.4 511.5 382
L 511.45 381.05 510.7 381.15
Q 506.25 381.75 505.5 381.9
L 505.5 382.15 509.75 382.75 509.25 389.3
Q 509.1 392.6 509.1 396.65
L 509.7 409.9 504.25 410 504.7 403.9
Q 505.2 399.7 505.2 396.65
L 504.6 385.65 504 382 503.7 382
Q 503.6 382.5 503.1 385.65
L 502.5 396.65
Q 502.5 399.75 503 403.9
L 503.45 410 496.35 410 495.75 372.9
Q 497.65 370.05 505.75 358.75
L 516.05 344.5
M 434.95 363.5
L 427.85 363.75
Q 424.45 363.85 421 364.05
L 421 364.4 434.45 364.9 436.1 366.75 436.1 366.8 427.75 376.4 415.85 362.25 384.6 397.15 389.1 397.15 389.75 415.75 422.1 416.5 455.35 416.75 455.1 383.25 439.25 367.65 443.45 362.55
Q 448.9 368.35 450.6 370.4 451.6 371.5 452.5 372.75
L 454.35 375.05
Q 455.8 376.85 457.7 379.65 457.35 383.3 457.35 386.3
L 457.45 393.25
Q 457.45 394.15 457.75 400.25 458.05 403.8 458.5 407.15
L 458.85 407.15
Q 459.4 402.7 459.5 400.25 459.75 397.5 459.85 393.25
L 460 389.75
Q 460.1 388.1 460 386.3 460 383.7 459.6 379.4
L 459.6 378.9 451.35 369.8
Q 450 368.1 444.25 360.15
L 443.5 359.15 437.2 365.65 434.95 363.5
M 444.6 387.9
Q 439.1 387.65 437 387.65 433 382.65 429.6 378.65
L 438.1 368.9 452.5 384.4 452.35 388.25 444.6 387.9
M 418.35 387.9
L 412.75 388.5 412.75 388.75 418.75 389.4 419 389.4 419.35 389.15
Q 421.9 386.75 425.85 382.55
L 428.2 380.25 436.25 389.25 452.35 388.65 452.25 413.55 437.95 413.75
Q 427.35 413.75 422.1 413.9
L 390.95 414.55 390 396.15 386.85 396.15 415.75 366.25 426.25 378.05 418.35 387.9
M 695.4 447.55
L 695.4 447.3
Q 692.85 446.8 687.75 446
L 649.25 440.25
Q 640.7 439.05 633.8 438.3
L 602.9 435.15 571.2 430.75 571.3 434.9 478.1 437.05 478.75 361.25 478.2 296.65 467.45 284.8 468.1 309.5
Q 468.35 322.05 468.35 332.15
L 468.7 400.05
Q 468.8 408.85 469.2 422.75
L 469.75 437.3 442.25 437.9 442.7 441.75 306.1 442.5 306 442.55 305.1 442.8 279.85 442.25 281.85 416.25 306.75 416.75 324.35 416.5 323.1 388.4 322.85 388.4 321.6 413.75
Q 319.35 413.65 314.85 413.65
L 282 414 282.2 411.25
Q 283.15 394.25 283.25 390.75
L 284 370.25 284.1 369.75 310.2 386.8 310.6 386.8
Q 315.85 386.9 325.95 386.8
L 326.25 416.5 364.35 415.9 363.75 392 363.45 392 362.85 414.4 328.75 413.9 329 383.65 311.2 383.65 284.25 366.3 284.25 365.65 307.35 365.4 338.2 388.9 338.35 389.05 371.75 388.9 334.5 352.5 304.25 352.4 317.35 363.9 307.45 357 307.25 357.05 299.95 360.5 300 360.75 307.35 357.9 332.95 377.25 333 377.25 333 377.3 334.35 375.75 311.35 355 333.6 354.9 369.35 388 354.5 387.9
Q 342.3 387.9 338.75 387.8
L 308.2 363 284.35 362.8 287 308.25 281.25 304.65 275.85 362.75 273.35 362.75 275.7 364.25 275.2 369.75
Q 273.1 371.2 270.45 373.25 267 375.75 264.5 377.9
L 249.85 389.75 256.85 389.75 257.7 415.15 257.75 415.65 270.85 416 270 425.15 270.75 442 184.3 439.65 184.4 442.15 84.8 443.15 84.8 443.5 184.6 444.5 184.65 446.65 184.75 446.75 187.65 470.5 192.3 467.55 189.4 442.4 270.75 443.25 272 473.05 277.6 472.9 277.6 472.75 279.85 443.3 303 443.75 305.35 468 305.35 468.4 305.75 468.5 308.5 468.9 306.7 444.05 443 444.9 444.95 462.8 448.95 461.15 447.75 441.75 445.85 441.75 445.75 440.9 469.85 440 470.85 468.15 477.1 468.55 477.35 468.65 477.45 468.25 478.1 439.75 571.3 436.3 572.7 455.4 576.25 455.3 575.95 437.5 575.65 437.5 575.4 454.5 573.5 454.5 572.75 436.5
Q 579.55 437.1 579.8 437.15
L 587.5 438
Q 593.8 438.75 602.9 439.75
L 633.7 443 687.65 447.15
Q 691.65 447.45 695.4 447.55
M 469.45 332.15
Q 469.2 323.05 469.1 309.5
L 469 288.9 476.25 297.4 475.5 382.65 476.35 437.15 471.35 437.25 470.85 377.4
Q 470.85 375.25 470.2 354.75
L 469.45 332.15
M 285.6 309
L 284.85 329.05
Q 284.45 338.2 283.7 349.65
L 282.75 362.8 278.35 362.75 282.6 307.4 285.6 309
M 304.5 444.5
L 305.75 444.15 307.35 467.65 306.45 467.5 304.5 444.5
M 573.05 434.75
L 572.9 432.55 615.25 438 573.05 434.75
M 471.35 440
L 476.35 439.8 476.75 467.9 471.2 467.8 471.35 440
M 278.1 365.8
L 282.25 368.55 280.7 390.55
Q 280.45 394 279.5 411.15
L 279.45 414.05 274.35 414.3 273.7 414.4 278.1 365.8
M 259.5 387.15
L 257.25 387.15 275.1 370.5 271 414.4 258.6 414.75 259.5 387.15
M 273.5 416
L 279.35 416.15 278.35 442.25 272.7 442.05 272.6 425.4 273.5 416
M 272.7 443.25
L 278.35 443.3 277.6 462.4
Q 277.35 470 277.35 472.55
L 272.7 472.4 272.7 443.25
M 714.75 192.7
Q 716.9 193.15 722 193.75
L 742.9 196.6
Q 744.05 196.7 756 198.15 767.75 199.4 768.3 199.45
L 845.95 207.2 845.95 207.15 768.45 198.9 743 195.85
Q 739.35 195.45 729.25 193.95
L 722.15 192.95
Q 718.25 192.55 714.9 191.9
L 651.9 180.9
Q 644.9 179.6 617.5 175
L 467.45 150.75 350.35 133.2
Q 342.9 132 311.75 126.75 291.85 118.9 279.6 113.95
L 29.95 14.1 29.95 14.15 153 64.1 309.6 126.45 11.85 74.45 11.85 74.6 204.75 108.95 275.1 121
Q 287.6 123.2 311.6 127.2
L 332.7 135.4
Q 337.3 137.25 350.95 142.4 355.9 144.3 369.45 148.95
L 555.45 213.25
Q 561.65 215.4 573.25 219.2
L 586.5 223.6 608.45 229.9
Q 626.15 234.05 642.7 237.65 672.85 244.3 696.8 248.5 680 249.7 667.15 250.25 633.85 251.7 606.75 251.4 588.05 251.15 573.9 250
L 565.45 249.2
Q 563.55 249.1 556.95 248.2 552.1 247.6 539.75 245.65 508.65 240.35 469.1 231.35 451.25 227.25 433.1 222.65 429.8 221.85 396.95 213.35 368.9 205.95 325.1 193.7 276.45 180.15 255.6 174.65 234 168.9 191.05 155.4
L 133.55 136.95
Q 109.4 129.2 47.75 108.6
L 15.25 97.7 15.15 97.85 133.3 137.85
Q 165.15 148.3 190.8 156.4 231.6 169.15 255.35 175.6 276.55 181.15 324.95 194.5 367.15 206 396.85 213.75 431.85 222.95 469.1 231.65 509.95 241.2 539.7 246.25 551.2 248.2 556.8 248.95
L 573.8 250.75
Q 588.5 252.05 606.75 252.25 633.4 252.65 667.2 250.95 682.95 250.2 699.65 249
L 705.75 250.1
Q 722.95 252.85 734.15 254 740.5 254.7 747.3 255.1 755.1 255.35 759.9 254.65
L 771.5 253.1 771.65 253.1 771.5 260.9 776.75 261 773.75 322.5 722.55 310.55 723.05 364.75 709.5 354.15 709.3 329.75 715.75 324.65 705.5 324.8 706 292 698.95 292.15 698.9 292.75
Q 698.9 297.35 698.75 301.9
L 698 329 694.65 333.9 697.9 337.9 697.75 345 680.75 331.65 654 325.9 652.2 316 633.9 316.4 633.3 326.75 633.65 326.75 634.65 317.25
Q 648.65 317.55 650.8 317.55
L 652.3 327.5 679.7 334.05 697.7 348.5 697.4 365.65 644.5 334.4 644.05 334.25 584.9 374.8 585 367.9 634.15 334
Q 638.5 331.05 644.25 326.8
L 644 326.55 582.7 366.9 569.25 367 564.5 367.5 564.5 367.75
Q 566.2 368.2 569.2 368.65
L 578.5 369.65 557.95 383.3 576.45 383.15 582.05 379.15 582.5 384.8 565.65 384.9 565.9 402.9 564.5 403.05 564.5 403.4 565.9 403.65 566 414.15 586.65 413.75 586.65 413.9 612.4 414.3 612.45 413.5 619.25 413.5
Q 623.8 413.5 636.7 413.75
L 697.5 414.25 698.4 458.55 708.4 458.9 709.4 376.3 714.75 379.55 723.15 373.4 723.5 409.5 710.25 412.9 710.25 413.15 724.25 410.15 724.65 372.3 728.75 369.25 724.7 366 725.15 313.75 773.55 324.75 769 415.25 757 415 756.95 415.3 768.95 416 768.2 426.65 777.8 426.8 778.4 416.5 807.9 418.15 806.2 333.5 803 333.55 803.2 411.55 789.05 411.65 789 331.4 819.25 327.5 825.2 327.5 823.4 327 824.5 326.9 801.25 321.3
Q 795.45 319.85 790.5 318.75
L 782.9 316.8 783.95 289.3 784.75 250.85
Q 799.9 247.7 801.2 247.4
L 836.65 238.7 836.65 238.65 809.15 245.25
Q 807.95 245.6 801.05 247
L 784.75 250.25 784.75 244.2 792.05 243.1 791.95 237.65 786.5 237.5 786.65 231.15 786.2 231.1 779.95 230.9 779.75 241.6 757.25 243.7
Q 727.35 246.45 700.5 248.25 676.35 244 642.9 236.7 625.75 232.95 608.65 228.9
L 586.75 222.65 555.75 212.4 369.6 148.65
Q 355.75 143.9 351 142.1
L 313.6 127.5 350.35 133.5 447.75 148.4
Q 452 149 467.35 151.45
L 617.3 175.95
Q 643.95 180.4 651.75 181.85
L 714.75 192.7
M 759.8 254
Q 754.7 254.75 747.4 254.4 741.7 254.2 734.2 253.35 723 252.1 705.95 249.2 704.75 249.05 703.25 248.75
L 718.15 247.65
Q 740.75 245.85 757.3 244.15
L 779.75 241.7 779.65 249.4 771.7 249.25 771.65 252.35 759.8 254
M 778.5 251.35
L 773.75 252 773.75 251.4 778.5 251.35
M 709.5 357.9
L 723.15 368.8 723.15 369.5 714.55 375.9 709.45 372.8 709.5 357.9
M 706.5 355.5
L 706.5 371.05 699.7 367 699.45 349.9 706.5 355.5
M 782.5 326.8
L 787 327.8 787.15 327.9 808.5 327.65 787.5 330 786.3 414.4 805.5 414.5 805.55 415.8 778.45 415.4 782.5 326.8
M 787.25 325.55
L 782.55 324.5 782.8 317.9 812.65 325.9 787.25 325.55
M 770.7 416.05
L 776.05 416.4 775.75 424.65 770.25 424.75 770.7 416.05
M 581.95 376.8
L 575.75 380.9 566.3 380.75 581.75 370.15
Q 581.75 371.4 581.95 376.8
M 589.25 387.9
L 589.5 387.8 610.4 384 609.9 411.75 588.45 412.15 587.75 387.9 589.25 387.9
M 781.2 232.15
L 785.7 232.1 785.8 238.15 791.65 237.95 791.5 242.65 783.8 243.4 783.7 250.5 781.5 250.9 781.4 241.6 791.45 240.45 791.45 240.4 781.4 241.4 781.2 232.15
M 773.9 258.55
L 773.75 252.7 783.65 251 780 323.9 775.75 322.9 779.25 258.5 773.9 258.55
M 700.2 293.5
L 704.5 293.5 702.95 327.3 708 327.4 706.55 328.5 706.5 329.15 706.5 351.75 699.4 346.25 699.25 337.65 699.2 337.4 699 337.25 696.15 333.9 699 329.4 700.2 293.5
M 661.25 346.5
Q 665.3 349.05 678.75 357.4
L 697.3 368.9 697.5 411.9 671.5 411.75
Q 662.1 411.75 654.05 412
L 612.5 412.55 613.7 380.15 589.15 384.75 584.25 384.75 584.75 377.15 610.4 358.9 644.2 335.75 661.25 346.5
M 699.9 383
L 699.75 370.4 706.15 374.3 705.25 411.9 699.7 411.9 699.8 398.05
Q 699.9 391.4 699.9 383
M 775.55 325.25
L 779.95 326.25 776.15 415.4 770.75 415.25 773 363.5 775.55 325.25
M 699.7 414.25
L 706.75 414.15 707.15 442.25
Q 707.15 448.25 707.5 458.05
L 698.7 458.25 699.7 414.25
M 582.8 390.25
Q 582.9 392.15 582.9 394.55 582.8 397.05 582.55 398.9
L 582.3 402
Q 581.1 401.9 578.65 401.9 576.3 401.9 573.95 402.05
L 568.25 402.5 568.45 387.75 582.75 387.8 582.8 390.25
M 583.8 394.55
Q 583.8 392.15 583.9 390.25
L 584 387.8 587.3 387.9 586.7 412.3 568.15 412 568.25 404 569.2 404.05
Q 572.95 404.4 573.95 404.4 576.3 404.55 578.65 404.55 581.05 404.7 583.3 404.4
L 584.65 404.4 583.8 394.55
M 648.15 364.4
L 648.05 364.55
Q 647.5 367.65 647.25 370.5
L 646.75 376.5
Q 646.55 379.25 646.65 382.5
L 646.95 389.9 648.25 389.8
Q 650.25 389.75 651.5 389.55
L 655.7 389.15 655.25 382.5
Q 655.25 379.5 655.7 376.5 656.15 372.55 656.15 370.5
L 655.75 363.4 648.25 364.4 648.15 364.4
M 653.7 365.55
L 653.45 370.5
Q 653.45 373 653.9 376.5 654.35 380.05 654.3 382.5
L 654.05 387.55 649.65 387.15 649.8 382.5
Q 649.9 379.45 649.75 376.5
L 649.25 370.5
Q 648.9 367.2 648.45 364.75 649.85 365.05 651.5 365.25
L 653.7 365.55
M 1054.05 90.1
L 1078.05 54.55 1078.3 54.25 960.7 0.1 950 0 850.5 54 856.2 62.5 854.15 97.1 844.65 104.1 871.4 98.7 871.4 60.75 1061.75 60.85 1053.25 80.35 1052 65 884.25 65.45 884.4 97.2 870.5 100.75 856.45 206.65 850.75 206.65 850.25 110.85 857.7 110.75 857.55 164.35 858 164.35 859 109.45 848.8 109.45 848.25 209.15 855.65 209.15 855.9 210.75 855.65 212.4 856.05 212.4 856.45 215.1 855.15 220.5 859.4 221.65 857.7 236.15 857.95 227.5 857.2 226.15 856.4 225.2 855.45 224.4 854.3 223.7 853.15 223.35
Q 852.35 223.15 851.9 223.15
L 850.65 223.25 849.5 223.6 849.3 223.6 849.25 223.65 846.5 224.9
Q 845.75 225.35 845.5 225.6
L 844.65 226.25 843.2 228 842.65 229.15 842.55 229.25 842.65 229.4
Q 843.8 240.3 843.95 253.45
L 844.05 265.5 846 301.65 847.9 319.8 829.15 480 816.05 496.55 824.5 511.9 825.75 510.4 825.5 511.05
Q 824.9 512.75 823.9 516.55
L 823.45 518.15 830.45 518.45
Q 832.15 518.45 835.55 518.25 838.65 518.2 840.75 518 842.35 518 845.95 517.55
L 846.75 517.5 846.7 516.85
Q 846.4 514.9 846.4 513
L 846.45 509.25
Q 847.05 504.1 847.2 501.65 847.35 498.7 847.05 494
L 846.75 490.25
Q 846.3 487.3 846.05 486.4
L 845.75 486.4
Q 845.35 488.25 845.15 490.25
L 844.75 494
Q 844.5 499.8 844.65 501.65
L 845 505.4
Q 845.1 505.95 845.45 509.25 845.55 511.15 845.45 513
L 845.25 516.05 840.75 515.6
Q 840.2 515.55 835.55 515.35
L 827 515.35 827.55 508.15 852.3 478.25 852.15 484.65 852.25 485.3
Q 852.35 485.8 852.5 485.9 852.65 486.4 853.25 487
L 853.75 487.4 855.3 488.15 857.65 488.65
Q 858.95 488.75 859.75 488.65
L 867.3 490 868.05 484.5 868.05 495 881.2 496.75 891.5 493.15 891.4 483.25 922 484.15 922.25 496.15 931.55 498.9 931.55 478.9 932.3 447.3 937 444.25 938 408.55 938.25 374.5 938.3 374.4 962.75 344.8 961.65 346.8 1073.3 463.75 1077.05 506.15 1077.55 506.25 1077.9 506.4 1078.9 506.5 1082.8 506.25 1085.3 505.5 1097.3 500.5 1097.3 498.55 1097.8 501.15 1104 501.15 1105.25 499.3 1105.25 499.25 1105.15 499 1105.15 498.4
Q 1105.15 497.5 1105.25 497.25 1105.25 496.4 1105.4 496
L 1105.65 494.75 1108 486.8 1108.15 482.15
Q 1109.75 489.65 1110.9 494.5
L 1106.55 498.15 1106.8 498.4 1112.05 494.9 1112 494.55
Q 1110.65 484.35 1108.65 472 1106.9 461.95 1106.65 460.75 1105.7 455 1104.4 449.5
L 1099.55 427.15 1087.9 359.65 1085.55 348.4
Q 1084 340.75 1083.15 337.25
L 1077.9 315 1077.65 315.05 1084.8 360.25
Q 1085.5 364.6 1086.9 371.4
L 1089.15 382.65
Q 1090.6 390 1091.55 393.8
L 1096.4 416.15
Q 1097.75 422.25 1098.65 427.3 1099.6 432.3 1100.55 438.55
L 1102.3 449.9
Q 1103.55 458.45 1104.05 461.15
L 1105.3 467.75 1104.65 467.05
Q 1102.45 465.45 1099.4 464.25
L 1093.65 462.5 1068.8 240.15
Q 1068.2 235.7 1067.05 231.2 1066.3 228.4 1065.75 226.85 1064.65 223.9 1063.55 222.4 1063.1 221.75 1062.65 221.35
L 1062.05 220.85 1060.9 220.15 1060.9 218.7
Q 1060.45 216.75 1059.55 215.85 1058.4 214.7 1056.65 214.4 1053.9 214.1 1050.8 215.4 1049.7 215.9 1049.5 216.1
L 1049.25 216.2 1048.4 217.15
Q 1047.65 217.85 1046.5 219.2
L 1037.55 229.6
Q 1034.7 228.1 1032.8 226.65
L 1031.65 225.65 1031.15 225.1
Q 1030.8 224.6 1030.8 224.4
L 1029.55 221 941.7 219.75 942.75 303.65 938.25 300.25 931.2 292.5
Q 931.15 285.75 931.2 279
L 931.2 278.4 917.95 278.3 915 275.15 933.2 275.4 933 253.45 895.55 253.1 895.7 250.75
Q 898.8 251 903.7 251.2
L 935 251.85 934.65 235 918.5 235.6 896 235.35 896.15 230.9
Q 899.25 231.1 904.5 231.15
L 937.3 231.45 937.25 220 905.95 220.9
Q 898.4 221.25 896.05 221.4
L 896.05 218.85 896 218.4 896 218.1 895.9 217.6
Q 895.8 217.15 895.5 216.85
L 895.5 216.75 895 216.25 893.8 215.85 892.75 215.65
Q 890.5 215.5 889.45 215.5
L 886.2 215.65
Q 884.05 215.65 880 215.95
L 870.9 215.4
Q 868.95 215 866.5 214.85 864.4 214.7 862.25 214.9
L 862.3 219 870 219.45 872.05 220.25 872.4 220.45 872.5 220.6 872.55 220.65 872.65 220.65 872.75 220.7 872.9 220.9 869.9 254.4 843.7 467.5 950.5 337.9 950.75 338.15 961.4 325.5 961 325.15 1016 258.4 1049.9 217.9 1050.15 217.65 1050.3 217.6 1050.4 217.5 1051.5 216.9
Q 1052.6 216.4 1053.9 216.15 1055.2 216 1056.4 216 1057.7 216.3 1058.4 216.95 1058.95 217.55 1059.3 218.95
L 1059.4 219.9
Q 1058.55 219.95 1057.65 220.45 1056.55 221.15 1055.65 222.45 1054.95 223.35 1054.3 224.6 1052.7 227.75 1051.05 233.15 1050.9 233.45 1050.9 233.75
L 1048.5 236.9
Q 1039.85 248.15 1021.15 271.4
L 993.3 305.55
Q 980.9 320.75 970.45 333.3
L 969.45 332.15 966 338.65 907.15 409.15 906.95 409.15 901.65 415.3 901.95 415.3 825.05 506.25 820.05 496.9 832.45 481.4 862.4 219.6 858.4 218.6 859.15 215.2 859.15 214.95 858.75 212.4 1068 212.4 1054.05 92.85 888.8 92.5 874.4 208.45 891.5 208.5 897.15 150 894.8 208.7 930.05 208.75 929.5 99.35 1039.05 99.25 1047.4 205.75 1036.5 205.75 1031.65 134.45 1029.15 134.6 1030.4 206.1 1016.5 206.15 1011.9 106.35 1010.25 106.35 1010.05 206.7 990.75 206.75 988.45 201.5 986.25 206.85 971.25 207.15 968.75 164.9 968.2 164.95 968.25 206.95 950.2 207 951.05 200.95 950.8 200.9 949.75 207.15 949.75 207.35 968.7 207.4 968.75 174.35 970.65 207.45 970.7 207.75 986.7 207.5 988.5 203.4 990.2 207.6 1011 207.65 1011.65 138.95 1014.45 208.2 1032.55 208.25 1032.3 183.1 1033.9 208.6 1050.5 208.6 1041.9 96.2 926.45 96.2 926.95 205.6 898.05 205.65 902.05 97.85 899.2 97.6 889.05 205.85 877.4 205.9 890.75 94.7 1052.75 94.35 1066.75 211.25 858.55 211.25 857.9 206.65 857.5 206.65 871.9 101.95 885.95 98.35 886 67.1 1049.65 67.5 1051.55 90.45 1065.75 58.25 856.05 58.3 853.75 54.75 950.45 1.65 960.45 1.65 1077.3 54.55 1053.8 89.95 1054.05 90.1
M 934.25 223.1
L 934.2 228.25 904.5 228.65
Q 899 228.65 896.15 228.85
L 896.05 221.65
Q 898.35 221.85 905.95 222.2
L 934.25 223.1
M 896 236.9
L 923.55 236.7 932.65 237.1 932.3 249.15 903.7 249.75
Q 898.8 249.95 895.7 250.2 895.8 243.55 896 236.9
M 903.05 279.4
L 906.55 283.75 917.9 299.65 893.95 299.3 894.65 279.25 903.05 279.4
M 902.5 278.65
L 894.7 278.8 895 269.4 902.5 278.65
M 929.95 291.15
L 919.25 279.75 929.95 279.65 929.95 291.15
M 931 273.3
L 913.5 273.55 897.75 256.65 930.25 256.25 931 273.3
M 921 301.75
Q 921.2 302.1 921.45 302.25
L 894.65 302.5 894.65 301.9 920.8 301.5 921 301.75
M 922.8 305.4
L 921.8 320.15
Q 909.45 320.25 893.2 320.25
L 893.75 305.15 922.8 305.4
M 892.4 344
L 893 327 922.75 326.75 923.5 344.65 907.65 344.3
Q 902.45 344.3 892.4 344
M 922.2 350.15
L 921.4 366.65 891.65 364.4 892.2 350 922.2 350.15
M 891.5 369.05
L 891.5 367.05 921 368.65 918 372.15 891.5 369.05
M 921.5 394.75
L 924.55 394.8 924.2 409.5 909.5 409.15 921.5 394.75
M 891.4 371.75
L 916.2 374.4 890.2 405.4 891.4 371.75
M 1060.8 224.35
Q 1061.7 225.5 1062.55 227.95
L 1063.75 232.1
Q 1064.7 236.6 1065.3 240.65
L 1091.9 479.9 1095.4 479.65 1095.4 466.4 1098.3 467.3
Q 1101.15 468.45 1102.65 469.55 1103.75 470.45 1103.8 471 1103.9 471.05 1103.9 471.25
L 1104 471.4 1104.05 473.25
Q 1104.45 476.6 1104.8 478.65 1105.15 481.3 1105.15 483.9 1105.15 485.6 1105.05 486.4
L 1103.75 491.4
Q 1103.5 492 1102.9 494.15
L 1102.65 495.5 1102.4 498.5 1099.9 498.5 1096.8 485.65 1094.55 485.9 1095.25 499.25 1091.4 501
Q 1089 502.1 1086.9 502.9
L 1083.55 504.25 1082 504.65 1080.15 504.9 1078.55 504.8 1073.75 463.65 1046.65 433.8 965.75 346.25 970.2 338.15 1020.5 393.5 1075.05 452.75 1069.4 423.9
Q 1067.95 416.2 1064.8 398.25
L 1058.65 359.5 1057.15 346.5
Q 1056.65 342.25 1056.55 340.05
L 1056.25 333.55 1056.4 320.5 1056 307.4 1051.9 242.35
Q 1052.8 238.2 1054.05 234.15 1054.45 232.65 1055.3 230.35
L 1056.3 228.95
Q 1058.9 225.4 1059.5 224.4
L 1060.15 223.5 1060.3 223.65 1060.8 224.35
M 1029.9 224.9
Q 1029.9 225.15 1030.4 225.65
L 1031 226.35 1032.3 227.35
Q 1034.55 228.75 1037.3 229.9
L 959.15 323.05 944.25 306.75 945.25 223.35 1028.75 222.2 1029.9 224.9
M 1048.8 241.95
L 1048.8 242.4 1054.05 307.5 1054.65 320.5
Q 1054.75 323.4 1054.75 333.55
L 1055.65 346.65 1059.3 372.65
Q 1061 383.55 1063.55 398.4 1066.1 413.85 1068 424.15
L 1072.15 446.9 1022.9 391.4 971.4 334.3 994.25 306.3
Q 1005.25 293.1 1022.2 272.25 1038.65 251.95 1049.65 237.75 1049.7 237.75 1049.9 237.4
L 1048.8 241.95
M 858.45 61.8
L 856.5 59 869 62.55 869 96.75 854.45 99.75 856.3 98.35 858.45 61.8
M 895.05 268
L 895.4 259.4 956 325.65 950.75 332.15 926.15 303.5 926.2 302.25 925.05 302.25 895.05 268
M 892.05 219.65
L 891.75 253 889.45 252.95 891.7 255.4
Q 891 284.65 890.4 304.65
L 887.4 404.9 869.5 426.55 873.5 268.55 873.05 268.55 866.75 433.65 849.2 454.8 860.75 366.15 874.05 254.9 877 222.85
Q 877.05 221.8 877 220.65
L 877 219.9 879.9 220 880 220.1 880.2 220 892.05 219.65
M 851.75 225.65
L 852.5 225.75 853.9 226.45 854.5 227 855 227.65 855.25 228.15 855.8 250.4 855.95 251.25 849 310.65 846.65 265.4 845.5 253.4
Q 844.05 240.05 844.05 229.5
L 844.5 228.9
Q 844.8 228.45 845.05 228.2
L 846.55 227.15
Q 846.6 227.1 847.4 226.7
L 849.95 225.75 849.9 225.85 849.95 225.85 850 225.75 850.05 225.75 851.75 225.65
M 939.25 325.55
L 939 325.55 938.45 347.8 923.3 365.9 923.5 348.8 922.8 348.9 892.2 349 892.3 345
Q 907.15 345.6 907.55 345.65
L 925.25 346.4 925 324.4 893.05 324.15 893.05 323.25
Q 910.15 323.25 923.3 323.4
L 924.8 323.3 925.8 307.75 948.65 335.55 939.8 346.15 939.25 325.55
M 925.25 394.5
L 925.2 394.25 921.8 394.3 937.9 375 935 426
Q 934.75 431.8 934.7 434.75
L 934.5 442.9 929.8 446 930.55 497.65 923.45 495.25 923.7 482.5 906.5 481.4
Q 900.9 481.05 890.05 480.4
L 888.65 480.3 888.5 491 880.9 493.65 871.25 492.25 871 461.65 868.25 461.5 865.75 488 860 487.25 859.75 487.25
Q 858.8 487.35 857.75 487.25
L 855.7 486.9
Q 855.15 486.9 854.75 486.65
L 853.95 486.15
Q 853.7 485.95 853.4 485.5
L 853.2 485.05 853.15 484.8
Q 853.05 484.8 853.05 484.65
L 852.75 480.25
Q 852.7 479.35 852.75 477.8
L 904.4 415.4 919.9 415.55 920.2 430.65 893.7 430.65 893.75 437.4 895.25 437.4
Q 904.6 437.2 918.15 437.15
L 918.7 440.15 923.75 440.15 924 453.5 889.5 450.8 889.5 455.4 888.9 455.3 889.25 473.5 890.75 473.5 891.05 457.65 907.3 459.05
Q 910 459.35 923.65 460.25
L 923.75 475 890 475.9 890 476.25 926 477.25 926.2 457.9 907.5 456.4
Q 900.45 455.95 898.8 455.9 897.1 455.75 890.5 455.4
L 890.45 451.8 925.75 455.4 925.75 454.4
Q 926.05 444.05 926.05 438.9
L 926.05 437.75 920.8 437.75 920.3 434.65 896.75 434.4 896.75 433.75 923.45 433.75 922.7 412.65 906.8 412.9 908 411.4 925.7 411 925.7 410.25
Q 925.35 399.75 925.25 394.5 Z"/>
</g>
</defs>

<g transform="matrix( 1, 0, 0, 1, 0,0) ">
<use xlink:href="#Layer1_0_FILL"/>
</g>

<g transform="matrix( 1, 0, 0, 1, 0,0) ">
<use xlink:href="#Layer0_0_MEMBER_0_MEMBER_0_MEMBER_0_FILL"/>
</g>
</svg>
