
<svg xmlns="http://www.w3.org/2000/svg" version="1.1" xmlns:xlink="http://www.w3.org/1999/xlink" preserveAspectRatio="none" x="0px" y="0px" width="1112px" height="518px" viewBox="0 0 1112 518">
<defs>
<g id="Layer0_0_FILL">
<path fill="#522810" stroke="none" d="
M 695.4 447.55
L 695.4 447.3
Q 691.6 446.55 687.75 445.95
L 649.3 440.2
Q 640.7 439.05 633.85 438.3
L 602.9 435.1
Q 595.55 434.25 587.5 433.15
L 571.2 430.75 571.35 434.85 478.15 437.05
Q 478.25 429.85 478.3 425.4
L 478.75 361.2 478.2 296.6 467.45 284.8 468.1 309.45
Q 468.4 324.55 468.4 332.1
L 468.35 377.4
Q 468.4 381.15 468.5 388.7
L 468.7 400.05
Q 468.8 407.6 469.2 422.7
L 469.75 437.3 442.3 437.9 442.7 441.75 306.1 442.5 306 442.55 305.15 442.8
Q 289.3 442.4 279.9 442.25
L 281.85 416.2 306.8 416.75 324.4 416.5 324.2 408.45
Q 324.2 408.35 323.9 401.8 323.6 395.2 323.6 395.1
L 323.15 388.4 322.85 388.4
Q 322.85 388.55 322.4 395.1
L 321.75 408.45
Q 321.7 410.3 321.65 413.7 318.25 413.6 314.9 413.6
L 282.5 413.95
Q 282.25 413.95 282 413.95
L 282.2 411.25
Q 283 397.55 283.3 390.7 283.8 377 284.05 370.2
L 284.1 369.7 310.2 386.8 310.65 386.8
Q 315.9 386.85 325.95 386.8
L 326.25 416.45 364.35 415.85 363.75 392 363.45 392 362.9 414.4 345.55 414.1
Q 334.7 413.95 328.8 413.9
L 329.05 383.65 311.2 383.6 284.25 366.3 284.25 365.6 307.4 365.35 338.2 388.9 338.35 389.05 338.55 389.05
Q 343.9 388.95 354.55 388.9
L 371.75 388.9 334.55 352.45 304.3 352.35 317.4 363.85 307.45 356.95 307.25 357.05
Q 302.4 359.35 299.95 360.5
L 300.05 360.75 307.35 357.9 332.95 377.25 333 377.25 333.05 377.3 334.35 375.7
Q 325.8 368 321.55 364.15
L 311.35 355 333.6 354.9 369.4 387.95 354.55 387.9
Q 344.1 387.9 338.8 387.8
L 308.2 363 284.4 362.8 285.8 329.1
Q 286.35 318.8 287 308.6
L 287.05 308.2 281.25 304.65 275.85 362.75 273.4 362.7 275.7 364.2 275.2 369.7
Q 273.55 370.85 270.45 373.2 267.15 375.65 264.5 377.85
L 249.9 389.75 256.9 389.75 257.35 401.8
Q 257.6 407.3 257.6 408.45 257.7 410.7 257.7 415.15
L 257.75 415.6 270.9 415.95 270.05 425.1 270.75 442 184.3 439.65 184.45 442.1 110.65 442.7
Q 93.4 442.95 84.8 443.15
L 84.8 443.45 184.6 444.5 184.7 446.6 184.75 446.7 187.7 470.45 192.3 467.55 189.45 442.35 270.8 443.2 272.05 473.05 277.65 472.85 277.65 472.7 279.85 443.3
Q 296.35 443.55 303 443.7
L 305.35 467.95 305.35 468.35 305.8 468.45 308.55 468.85 306.7 444.05 443 444.85 444.95 462.8 448.95 461.15 447.8 441.7 445.85 441.7 445.75 440.9 469.85 440 470.9 468.1 477.1 468.55 477.4 468.6 477.45 468.25 477.95 446.85
Q 478.05 443 478.1 439.7
L 571.35 436.3 572.7 455.35 576.25 455.3 575.95 437.45 575.65 437.45 575.4 454.5 573.55 454.45 572.8 436.5
Q 578.75 436.95 579.85 437.1 582.4 437.45 587.55 438 592.4 438.6 602.9 439.75
L 633.7 442.95 687.65 447.15
Q 692.95 447.45 695.4 447.55
M 469.45 332.1
Q 469.2 322.05 469.1 309.45
L 469 288.85 476.25 297.35 475.55 382.6 476.35 437.1 471.4 437.25 470.9 377.35
Q 470.85 373.6 470.2 354.7 469.45 332.6 469.45 332.1
M 285.6 309
L 284.9 329.05
Q 284.4 339.35 283.7 349.6 283.65 350 282.75 362.8
L 278.4 362.75 282.6 307.35 285.6 309
M 282.3 368.55
Q 282.25 369.25 282.2 370.05
L 280.7 390.55
Q 280.25 397.4 279.55 411.1
L 279.45 414.05
Q 277.3 414.15 274.4 414.3
L 273.7 414.35 278.15 365.8 282.3 368.55
M 259.55 387.1
L 257.25 387.1 275.15 370.45 271.05 414.4 258.6 414.7 258.7 408.45
Q 258.7 408.35 259 401.8
L 259.55 387.1
M 304.55 444.5
L 305.8 444.15 307.4 467.6 306.45 467.45 304.55 444.5
M 273.55 416
L 279.35 416.15 278.4 442.2
Q 277.2 442.15 276.1 442.15
L 272.7 442.05 272.65 425.35 273.55 416
M 272.7 443.25
L 276.05 443.25
Q 277.2 443.25 278.35 443.3
L 277.6 462.4
Q 277.4 469.2 277.4 472.55
L 272.7 472.4 272.7 443.25
M 573.1 434.75
L 572.9 432.55 615.25 438 573.1 434.75
M 471.4 439.95
L 476.35 439.8 476.75 467.9 471.2 467.8 471.4 439.95
M 1078.1 54.55
L 1078.35 54.25 960.85 0.1 960.7 0.05 950 0 850.55 54 856.2 62.5 854.15 97.1 844.65 104.1 871.4 98.7 871.4 60.75 1061.75 60.85 1053.25 80.3 1052 65 884.3 65.4 884.4 97.15 870.55 100.75 856.45 206.6 850.8 206.6 850.25 110.85 857.7 110.75 857.6 164.3 858 164.3 859 109.45 848.85 109.4 848.3 209.15 855.65 209.15 855.9 210.75 855.65 212.35 856.1 212.35 856.45 215.05 855.15 220.5 859.4 221.6 857.7 236.1 857.95 227.5 857.2 226.15 856.4 225.2
Q 856.05 224.8 855.45 224.35
L 854.35 223.7 853.15 223.3
Q 852.3 223.15 851.9 223.15
L 850.65 223.25
Q 849.9 223.45 849.5 223.55
L 849.35 223.55 849.3 223.6 849.25 223.6 846.5 224.9
Q 845.8 225.3 845.55 225.55
L 844.65 226.25 843.2 228 842.65 229.1 842.6 229.25 842.65 229.4
Q 843.8 240.05 843.95 253.45 843.95 259.5 844.1 265.5
L 844.55 277.55
Q 844.8 283.55 845.15 289.55
L 846.05 301.6
Q 846.35 305.6 847.15 313.6
L 847.9 319.8 829.15 480 816.1 496.55 824.5 511.9 825.75 510.4 825.5 511.05
Q 824.8 513.15 823.9 516.55
L 823.45 518.15 830.45 518.45
Q 833.05 518.45 835.6 518.3 839.05 518.2 840.8 518.05 842.4 517.95 845.95 517.55
L 846.75 517.5 846.7 516.85
Q 846.45 514.9 846.4 513 846.4 509.85 846.45 509.2 847.05 504.15 847.2 501.6 847.4 498.65 847.1 494
L 846.75 490.2
Q 846.3 487.15 846.1 486.4
L 846.1 486.35 845.8 486.35
Q 845.4 488.15 845.15 490.2
L 844.95 492.1
Q 844.8 493.9 844.8 494 844.5 499.05 844.65 501.6 844.75 502.75 845.05 505.4 845.35 507.85 845.45 509.2 845.55 511.15 845.45 513 845.4 514.85 845.3 516.05 842.25 515.7 840.8 515.6 839.05 515.45 835.6 515.35 830.5 515.2 830.45 515.2
L 827 515.35
Q 827.25 513.3 827.4 511.45
L 827.6 508.15 852.35 478.25 852.15 484.65 852.25 485.3
Q 852.35 485.7 852.5 485.9 852.7 486.4 853.25 486.95
L 853.75 487.35 854.25 487.65 855.35 488.1 857.65 488.6
Q 858.95 488.7 859.75 488.65
L 859.8 488.65 867.35 490 868.1 484.45 868.1 495 881.2 496.75 881.55 496.6 891.5 493.1 891.4 483.2
Q 896.75 483.4 906.35 483.65 911.65 483.85 922.05 484.1
L 922.25 496.1 922.65 496.25 931.6 498.9 931.6 478.9 932.35 447.3 937 444.25 938.05 408.55 938.25 374.5 938.35 374.35
Q 951.2 358.75 962.75 344.8
L 961.65 346.8 990.05 376.85
Q 990.2 377 1017.75 405.9 1040.95 430.25 1045.5 434.95
L 1073.35 463.75 1077.05 506.1 1077.55 506.2 1077.95 506.35 1078.95 506.5 1082.85 506.25 1085.3 505.5 1097.3 500.45 1097.3 498.55 1097.8 501.1 1104 501.15 1105.25 499.3 1105.25 499.2 1105.2 498.95 1105.15 498.4
Q 1105.15 497.65 1105.25 497.2 1105.25 496.6 1105.4 496 1105.55 495.15 1105.7 494.75 1106.1 493.15 1106.45 492.3
L 1108 486.8
Q 1108.2 484.8 1108.2 483.9 1108.2 483.15 1108.2 482.1 1109.6 488.8 1110.95 494.45
L 1106.6 498.15 1106.8 498.35
Q 1107.5 497.95 1111.8 495.05
L 1112.05 494.9 1112 494.55
Q 1110.85 485.5 1108.7 471.95 1107.05 462.4 1106.7 460.7 1105.7 454.95 1104.45 449.5
L 1101.95 438.3
Q 1101.2 435 1099.6 427.15 1098.2 419.65 1097.6 415.9
L 1087.9 359.6 1085.6 348.4
Q 1084.4 342.45 1083.2 337.25
L 1077.95 315 1077.65 315.05 1084.8 360.2
Q 1085.5 364.3 1086.95 371.4
L 1089.2 382.6
Q 1090.7 390.1 1091.55 393.8
L 1096.45 416.1
Q 1097.75 422.1 1098.7 427.3 1099.85 433.55 1100.6 438.55
L 1102.3 449.85
Q 1103.35 457.25 1104.1 461.15
L 1105.35 467.7
Q 1105 467.35 1104.65 467.05 1102.7 465.5 1099.45 464.25
L 1093.65 462.45 1069.9 249.05
Q 1069.05 241.7 1068.8 240.15 1068.2 235.55 1067.1 231.2 1066.25 228.1 1065.75 226.8 1064.75 224.05 1063.6 222.4 1063.1 221.7 1062.7 221.3
L 1062.1 220.8 1060.95 220.1 1060.9 218.7
Q 1060.5 216.7 1059.55 215.8 1058.4 214.65 1056.65 214.4 1053.9 214.1 1050.85 215.35 1049.95 215.75 1049.5 216.05
L 1049.25 216.2 1048.4 217.1
Q 1047.7 217.8 1046.5 219.2
L 1042.85 223.35
Q 1040.5 226.1 1037.6 229.55 1035 228.25 1032.85 226.65
L 1031.65 225.6 1031.15 225.05
Q 1030.85 224.65 1030.8 224.4
L 1030.5 223.7 1029.6 221 941.7 219.75 942.75 303.65 938.25 300.2 931.2 292.5
Q 931.15 285.75 931.2 278.95
L 931.2 278.35 917.95 278.3 915 275.1 933.2 275.35 933 253.45 895.6 253.05
Q 895.65 251.9 895.7 250.75 898.8 250.95 903.7 251.2
L 935.05 251.8 934.65 235 918.55 235.55 896.05 235.3
Q 896.1 233.1 896.15 230.9 898.7 231 904.55 231.15 904.65 231.15 914.95 231.3
L 937.35 231.45 937.25 220 905.95 220.85
Q 899.25 221.15 896.1 221.35
L 896.1 218.8 896.05 218.35 896.05 218.05 895.9 217.55
Q 895.85 217.2 895.55 216.8
L 895.55 216.75 895 216.25 893.85 215.8 892.8 215.65
Q 891.6 215.5 889.45 215.5
L 886.2 215.6
Q 884.1 215.65 880 215.95
L 870.9 215.4
Q 869.15 215 866.55 214.8 864.1 214.7 862.25 214.9
L 862.35 219 870.05 219.45 871.8 220.1 872.1 220.25 872.4 220.45 872.5 220.55 872.6 220.6 872.65 220.6 872.75 220.7 872.9 220.9 869.9 254.4 852.6 397.35 843.7 467.45 950.55 337.85 950.75 338.1 961.4 325.5 961.05 325.1 1016 258.35
Q 1038.3 231.55 1044.2 224.55
L 1049.95 217.85 1050.2 217.65 1050.3 217.55
Q 1050.35 217.55 1050.4 217.5 1050.65 217.35 1051.5 216.9 1052.7 216.35 1053.95 216.15 1055.2 215.95 1056.4 216 1057.7 216.25 1058.4 216.95 1059 217.5 1059.3 218.95
L 1059.4 219.9
Q 1058.5 219.95 1057.7 220.45 1056.6 221.1 1055.65 222.45 1054.8 223.6 1054.35 224.55 1052.75 227.75 1051.05 233.15 1050.95 233.45 1050.9 233.75 1049.75 235.25 1048.5 236.85 1038.75 249.55 1021.15 271.35
L 993.35 305.55
Q 982.3 319 970.45 333.3
L 969.45 332.15 966 338.65
Q 952.1 355.4 937.15 373.35 924.8 388.2 908.85 407.1
L 907.15 409.1 906.95 409.1 901.65 415.3 901.95 415.3 825.1 506.25 820.1 496.85 832.45 481.35 862.4 219.55 858.4 218.55 859.15 215.2 859.15 214.95 858.8 212.35 1068 212.35 1054.1 92.85 888.85 92.5 874.4 208.45 891.55 208.5 897.15 150 894.85 208.7 930.1 208.75 929.55 99.3 1039.1 99.25 1047.45 205.75 1036.5 205.75 1031.7 134.45 1029.2 134.55 1030.4 206.05 1016.5 206.1 1011.9 106.3 1010.3 106.35 1010.1 206.7 990.75 206.75 988.45 201.5 986.25 206.8 971.3 207.1 968.75 164.9 968.2 164.95 968.25 206.95 950.2 207 951.1 200.95 950.85 200.9 949.8 207.1 949.75 207.3 968.7 207.35 968.75 174.3 970.65 207.45 970.7 207.75 986.7 207.5 988.5 203.35 990.2 207.55 1011.05 207.6 1011.65 138.95 1014.45 208.2 1032.6 208.25 1032.3 183.05 1033.9 208.55 1050.5 208.55 1041.95 96.2 926.45 96.15 926.95 205.55 898.1 205.6 902.1 97.8 899.2 97.6 889.1 205.8 877.4 205.85 890.8 94.7 1052.75 94.35 1066.75 211.25 858.6 211.25 857.9 206.6 857.55 206.6 871.9 101.95 885.95 98.35 886.05 67.1 1049.7 67.5 1051.55 90.45 1065.75 58.25 856.1 58.3 853.75 54.75 950.45 1.65 960.45 1.65 1077.3 54.55 1053.8 89.9 1054.05 90.05 1078.1 54.55
M 1054.05 234.1
Q 1054.7 232 1055.35 230.3 1055.9 229.55 1056.35 228.95 1058.6 225.85 1059.5 224.4 1059.85 224 1060.15 223.5
L 1060.35 223.65 1060.85 224.3
Q 1061.75 225.6 1062.55 227.95 1063.2 229.75 1063.75 232.05 1064.65 235.9 1065.3 240.65
L 1091.95 479.85 1095.45 479.65 1095.4 466.35 1095.85 466.45 1098.3 467.3
Q 1101.15 468.4 1102.65 469.55 1103.7 470.35 1103.85 470.95 1103.95 471.05 1103.95 471.25
L 1104 471.4 1104.1 473.2
Q 1104.25 475.1 1104.8 478.65 1105.2 481.45 1105.2 483.85 1105.2 485.15 1105.05 486.4
L 1104.6 488.85 1103.75 491.35
Q 1103.45 492.2 1102.95 494.1
L 1102.7 495.5 1102.45 498.5 1099.9 498.5 1096.85 485.6 1094.6 485.9 1095.25 499.2 1091.4 500.95
Q 1089.35 501.95 1086.95 502.9
L 1083.6 504.25 1082 504.65 1081.4 504.7
Q 1080.2 504.85 1080.15 504.85
L 1078.55 504.8 1073.75 463.6 1046.7 433.8
Q 1028.55 414.1 1019.5 404.25 1001.4 384.55 992.25 374.75
L 965.75 346.25 970.2 338.1 1020.5 393.5 1075.05 452.7 1074.45 449.55
Q 1073.2 443.6 1071.9 436.75
L 1069.45 423.9
Q 1067.2 411.85 1064.8 398.2 1062.95 387.45 1062.6 385.3
L 1058.7 359.45 1057.15 346.5
Q 1056.65 342.2 1056.55 340.05
L 1056.3 336.8
Q 1056.3 334.65 1056.25 333.55 1056.45 324.85 1056.4 320.5 1056.2 311.75 1056 307.4
L 1051.9 242.3
Q 1052.95 237.75 1054.05 234.1
M 1029.9 224.9
Q 1029.95 225.1 1030.4 225.65
L 1031 226.3 1032.35 227.3
Q 1034.45 228.7 1037.3 229.9 1028.4 240.35 1014.4 257
L 959.15 323.05 944.25 306.7 945.25 223.3 986.35 222.95
Q 993.45 222.85 1007.75 222.65
L 1028.75 222.2 1029.9 224.9
M 1049.65 237.75
Q 1049.8 237.6 1049.95 237.4 1049.4 239.55 1048.85 241.95
L 1048.8 242.15 1048.8 242.4 1053.25 294.45 1054.05 307.5
Q 1054.05 307.7 1054.65 320.5 1054.8 324.85 1054.75 333.55 1054.75 335.8 1054.85 336.85
L 1055.05 340.15
Q 1055.2 342.35 1055.7 346.65
L 1057.35 359.65
Q 1059.1 371.5 1059.3 372.6 1060.65 381.2 1063.55 398.4 1066.45 415.6 1068 424.15
L 1072.15 446.85 1022.9 391.35 971.4 334.3
Q 983.7 319.3 994.3 306.3 1009.7 287.65 1022.2 272.2 1038.65 251.9 1049.65 237.75
M 858.45 61.8
L 856.55 59 869 62.55 869 96.75 854.45 99.75 856.35 98.35 858.4 62.2 858.45 61.8
M 934.25 223.05
L 934.2 228.25 904.55 228.6
Q 899.4 228.65 896.15 228.8
L 896.1 221.65
Q 899.35 221.9 905.95 222.2
L 934.25 223.05
M 892.1 219.65
L 892.15 229.15
Q 892 241.1 891.75 253
L 889.45 252.95 891.7 255.4
Q 891.25 277.45 890.4 304.6
L 887.4 404.85 869.5 426.55 873.5 268.55 873.1 268.55 866.75 433.65 849.2 454.8 860.75 366.1 874.1 254.85 877.05 222.8
Q 877.1 221.8 877.05 220.6
L 877 219.85 879.9 220 880.05 220.05 880.2 220
Q 884.3 219.7 886.35 219.65
L 889.45 219.55
Q 891.2 219.55 892.1 219.65
M 896 236.9
L 923.6 236.7 932.65 237.05 932.35 249.15 903.7 249.75
Q 898.8 249.95 895.7 250.2 895.85 243.55 896 236.9
M 895.1 268
L 895.4 259.4 956.05 325.6 950.75 332.15 937.7 316.9
Q 929.95 307.85 926.15 303.45
L 926.2 302.2 925.1 302.2
Q 923.8 300.7 923.1 299.95
L 895.1 268
M 894.65 279.2
L 903.1 279.4 906.6 283.7 917.9 299.6 893.95 299.3 894.65 279.2
M 902.5 278.6
L 894.7 278.8 895.05 269.35 902.5 278.6
M 931.05 273.3
L 913.55 273.55 897.75 256.6 930.3 256.25 931.05 273.3
M 929.95 291.15
L 919.3 279.7 929.95 279.6 929.95 291.15
M 851.75 225.65
L 852.55 225.75
Q 853.2 226 853.25 226.05
L 853.9 226.45 854.5 227 855 227.65 855.25 228.15 855.85 250.35
Q 855.9 250.75 855.95 251.25
L 849 310.6
Q 848.95 306.95 848.8 301.4
L 846.65 265.35
Q 846.5 263.35 845.5 253.35 844.1 240.25 844.1 229.5
L 844.5 228.9
Q 844.65 228.65 845.1 228.2
L 845.8 227.6 846.6 227.1
Q 846.8 226.95 847.4 226.7
L 848.2 226.3 849.95 225.75 849.9 225.8 849.95 225.8 850 225.75 850.1 225.75
Q 850.85 225.65 850.95 225.65 851.4 225.6 851.75 225.65
M 939.3 325.55
L 939 325.55 938.45 347.8 923.35 365.85 923.5 348.8 922.85 348.85 892.2 349 892.35 345
Q 904.95 345.45 907.6 345.6
L 925.25 346.4 925 324.4 893.1 324.1 893.1 323.2
Q 903.6 323.2 923.35 323.35
L 924.85 323.3 925.85 307.7
Q 929.4 312.05 935.15 319.05
L 948.65 335.55 939.85 346.1 939.3 325.55
M 920.85 301.5
L 921 301.7
Q 921.2 301.95 921.45 302.25
L 894.65 302.45 894.65 301.85 920.85 301.5
M 922.85 305.35
L 921.85 320.15
Q 903.3 320.25 893.2 320.25
L 893.75 305.15 922.85 305.35
M 892.4 344
L 893 327 922.75 326.75 923.5 344.6 907.65 344.3
Q 902.5 344.25 892.4 344
M 922.2 350.15
L 921.4 366.65 891.65 364.4 892.2 350 922.2 350.15
M 891.5 369.05
L 891.55 367.05 921 368.6 918.05 372.15 891.5 369.05
M 921.5 394.7
L 924.6 394.8 924.2 409.5 909.5 409.15 921.5 394.7
M 925.25 394.5
L 925.2 394.2 921.85 394.3 937.9 374.95 935 426
Q 934.7 434.65 934.7 434.75
L 934.5 442.85 929.85 446 930.6 497.6 923.45 495.25 923.7 482.5 906.5 481.35
Q 895.2 480.65 890.1 480.35
L 888.65 480.3 888.55 491 880.9 493.6 871.3 492.2 871.05 461.6 868.3 461.45 865.8 487.95 860 487.2 859.8 487.2
Q 858.8 487.3 857.75 487.2
L 855.7 486.9
Q 855.2 486.85 854.75 486.6
L 854.35 486.4 853.95 486.1
Q 853.55 485.75 853.4 485.45
L 853.2 485.05 853.15 484.8
Q 853.1 484.8 853.1 484.6
L 852.85 482.4
Q 852.8 480.95 852.75 480.25 852.7 479.3 852.75 477.8
L 904.4 415.35 919.9 415.55 920.2 430.6 908.55 430.6
Q 899.7 430.65 895.25 430.65
L 893.7 430.65 893.75 437.35 895.25 437.35
Q 902.95 437.25 918.15 437.1
L 918.7 440.15 923.8 440.1 924.05 453.45 889.55 450.8 889.55 455.35 888.9 455.3 889.3 473.45 890.75 473.45 891.1 457.65 907.35 459.05
Q 910.05 459.3 923.65 460.25
L 923.8 475 898.75 475.6
Q 894.35 475.7 890 475.9
L 890 476.2 926 477.2 926.2 457.85 907.55 456.4
Q 901.75 456 898.85 455.85 896 455.65 890.5 455.4
L 890.45 451.8 925.8 455.35 925.8 454.4
Q 926.05 444.05 926.1 438.9
L 926.1 437.75 920.85 437.7 920.35 434.6 896.8 434.4 896.8 433.7 923.45 433.75 922.7 412.65 906.85 412.85 908.05 411.4 925.7 411 925.7 410.25
Q 925.35 399.75 925.25 394.5
M 891.4 371.75
L 916.2 374.35 890.2 405.4 891.4 371.75
M 5.95 378.3
L 27.25 360 53.55 380.2 77.85 360.15 97.5 375.65 111.85 362.5 147.9 365.4 147.95 365.45 180.65 365.25 197.45 376.55 211 370.6 228.1 376.2 244.15 367.5 269.9 367.45 243.85 388.9 198.85 389.3 198.45 384.1 196.65 384.1 196 391.45 178.75 392.5
Q 166.75 393.2 160.75 393.65
L 126.1 395.95 126.05 380.4 114.95 366.15 114.9 366.1 112.95 367.55 123.5 381.95 123.45 397.85 96.6 397.25
Q 96.5 393.8 96.15 375.75
L 96.1 375.5 95.95 375.35 78.45 360.85 78.25 361.05
Q 83.85 366.05 95.1 375.95 95.1 383.3 95.05 398
L 95.05 398.75 125.8 399.95 125.8 398.7 197.75 393.25 197.95 390.95 198.1 390.95
Q 205.75 390.75 221.05 390.3
L 244.15 389.8 244.25 389.7 272.85 366.4 243.85 366.2 243.7 366.25 227.95 374.5 210.95 368.6 197.7 374.15 181.4 362.85 148.15 362.7 110.85 359.4 97.4 371.6 77.8 356.1 53.45 376.3 27.15 356.25 0 380.05 5.05 380.7 5.3 400.05 91.75 397.75 91.75 397.45 7.55 397.75 7.5 378.5 5.95 378.3
M 519.45 339.8
L 519.45 340.1 530.45 340.45 557.1 375
Q 546.9 374.45 540.55 374.2
L 523 348.5
Q 518.05 341.3 516.6 339.3
L 515.75 338.05 514.8 339.25
Q 508.75 346.6 500.15 357.4
L 484.05 377.75 491.05 377.65 494.5 373.1 493.9 412.45 539.05 412.8 539.1 393.4
Q 539.05 383 539.05 377.15 546.45 377.45 559.9 377.8
L 562.8 377.9 530.9 339.45 519.45 339.8
M 516.1 344.5
L 515.3 343.9 489.95 375.3 489.2 375.3 515.7 341.85 539.9 374.15
Q 538.65 374.1 537.55 374.05
L 536 374 535.95 409.65 511.75 409.9
Q 511.9 407.65 511.9 407.55
L 512.1 403.9
Q 512.3 399.1 512.3 396.6 512.35 393.6 512.1 389.3 511.95 386.1 511.55 382
L 511.45 381.05 510.7 381.15
Q 507.35 381.55 505.5 381.85
L 505.5 382.15
Q 507.1 382.4 509.8 382.75 509.45 386.4 509.3 389.3 509.1 392.55 509.1 396.6 509.1 399.1 509.3 403.9
L 509.7 409.9 504.3 409.95
Q 504.3 408.65 504.4 407.55
L 504.7 403.9
Q 505.25 399.45 505.2 396.6
L 504.6 385.65
Q 504.35 383.75 504 382
L 503.7 382
Q 503.45 383.15 503.15 385.65
L 502.5 396.6
Q 502.5 399.5 503.05 403.9
L 503.35 407.55
Q 503.4 408.95 503.45 409.95
L 496.35 410 495.75 372.9
Q 497.55 370.3 505.8 358.75
L 516.1 344.5
M 434.7 363.5
L 427.85 363.75
Q 424.5 363.8 421 364.05
L 421 364.35 434.45 364.9 436.15 366.75 436.1 366.8 427.8 376.35
Q 427.45 375.95 427.1 375.55
L 415.85 362.2 392.7 388
Q 387.95 393.45 385.35 396.25
L 384.6 397.15 389.15 397.1 389.8 415.7 422.1 416.45
Q 427.4 416.55 437.95 416.6
L 455.4 416.75 455.15 383.2 439.25 367.65
Q 442.05 364.25 443.45 362.55 449.15 368.6 450.65 370.4 451.95 371.9 452.55 372.7
L 454.4 375.05
Q 455.6 376.55 457.7 379.65 457.35 383.5 457.35 386.3
L 457.45 393.25
Q 457.5 395.65 457.8 400.2 458.05 403.75 458.55 407.15
L 458.85 407.15
Q 459.35 403.35 459.55 400.2 459.8 397.15 459.9 393.25
L 460 389.75
Q 460.1 388.05 460 386.3 460 383.4 459.65 379.35
L 459.6 378.9 459.45 378.75
Q 456.15 375.35 455.3 374.35
L 451.4 369.8
Q 450.15 368.25 444.25 360.1
L 443.5 359.1 442.55 360.1
Q 441.9 360.75 437.2 365.65
L 434.95 363.45 434.7 363.5
M 419.05 389.4
L 419.35 389.15
Q 422.15 386.5 425.9 382.55 427.3 381.15 428.2 380.2
L 436.25 389.25 444.65 388.95
Q 447.25 388.85 452.4 388.6
L 452.25 413.55 437.95 413.7
Q 427.4 413.75 422.1 413.85
L 390.95 414.55 390 396.15 386.9 396.15 415.8 366.2 426.3 378.05 423.9 380.75
Q 420.35 385.2 418.4 387.9 417.05 388 415.75 388.15
L 412.75 388.45 412.75 388.75 418.75 389.4 419.05 389.4
M 444.65 387.9
Q 439.65 387.65 437 387.6 433.45 383.15 429.65 378.6
L 438.15 368.9 452.5 384.35 452.4 388.25 444.65 387.9
M 722.15 192.95
Q 717.3 192.35 714.9 191.9
L 651.9 180.85
Q 644 179.4 617.5 175
L 467.45 150.75
Q 454.45 148.65 447.9 147.7
L 350.4 133.2
Q 329.65 129.75 311.75 126.75 293.1 119.4 279.6 113.95
L 29.95 14.05 29.95 14.15 153 64.05 279.4 114.5
Q 290.45 118.9 309.65 126.4 290.8 123.2 275.2 120.45
L 11.9 74.45 11.85 74.55 204.75 108.95 275.1 121
Q 289.55 123.5 311.6 127.15 313.1 127.75 314.7 128.35
L 332.7 135.4
Q 338.7 137.75 350.95 142.35 355.75 144.2 369.45 148.95
L 555.45 213.25
Q 559.95 214.8 573.3 219.2
L 586.55 223.55 608.45 229.85
Q 625.25 233.8 642.7 237.65 671.9 244.1 696.85 248.5 680.9 249.6 667.15 250.25 632.95 251.7 606.8 251.35 589.55 251.2 573.9 250
L 565.45 249.2
Q 564.15 249.1 556.95 248.2 549.75 247.25 539.8 245.6 509.35 240.45 469.15 231.3 451.25 227.2 433.15 222.6 422.25 219.9 396.95 213.3 368.9 205.9 325.15 193.7 275.5 179.9 255.65 174.65 232.85 168.5 191.05 155.4
L 133.55 136.95
Q 103.9 127.35 47.75 108.6
L 15.25 97.7 15.2 97.8 133.3 137.8
Q 162.55 147.45 190.8 156.35 231.45 169.05 255.4 175.55 278 181.5 324.95 194.5 368.7 206.4 396.85 213.75 430.35 222.5 469.1 231.65 510.2 241.2 539.7 246.25 551.2 248.15 556.85 248.95
L 573.85 250.75
Q 588.5 252 606.8 252.25 632.65 252.6 667.2 250.95 682.85 250.15 699.65 249 702.75 249.55 705.8 250.05 722.75 252.8 734.15 254 740.9 254.75 747.35 255.05 755.1 255.3 759.9 254.6
L 768.75 253.5
Q 769.7 253.4 771.55 253.05
L 771.65 253.05 771.55 260.9 776.8 260.95 773.75 322.45 722.6 310.55 723.1 364.75 709.5 354.1 709.35 329.75 715.75 324.65 705.55 324.8 706 292 698.95 292.1 698.9 292.75
Q 698.9 297.3 698.75 301.85
L 698.05 329 694.65 333.9 697.9 337.9 697.8 344.95 680.8 331.6 654 325.9 652.2 316 633.9 316.4 633.35 326.7 633.65 326.7 634.65 317.2
Q 645.2 317.5 650.85 317.55
L 652.35 327.45 679.7 334.05 697.7 348.45 697.4 365.6
Q 683 357 680.05 355.3
L 644.5 334.4 644.1 334.2 584.9 374.8
Q 585 370.75 585 368.5
L 585 367.9 634.15 334
Q 638.8 330.8 644.25 326.8
L 644.05 326.55 633.6 333.2
Q 626.65 337.6 623.2 339.9
L 582.7 366.85 569.25 367 564.5 367.45 564.5 367.75
Q 566.15 368.15 569.2 368.6
L 578.5 369.65 557.95 383.3 576.45 383.1 582.1 379.1 582.5 384.8 565.65 384.9 565.9 402.85
Q 565.15 402.95 564.5 403.05
L 564.5 403.4
Q 565.15 403.5 565.9 403.65
L 566 414.1 586.65 413.7 586.65 413.85 612.4 414.3 612.45 413.45 619.3 413.5
Q 625.1 413.5 636.7 413.7
L 697.5 414.25 697.65 428.25
Q 697.75 433.25 697.95 443.35 698.1 448.35 698.4 458.45
L 698.4 458.55 708.4 458.85 708.4 458.45
Q 708.7 447.65 708.75 442.25
L 709.4 376.3
Q 711.6 377.65 713.9 379.05
L 714.8 379.55 723.15 373.35 723.5 409.5 710.25 412.85 710.3 413.15 724.3 410.15 724.65 372.3 728.8 369.2 724.7 366 725.15 313.75 773.6 324.75 769 415.2 757 415 756.95 415.3 768.95 415.95 768.2 426.65 777.85 426.8 778.4 416.5 807.9 418.1 806.2 333.5 803.05 333.55 803.2 411.55 789.1 411.6 789.05 331.35
Q 799.55 330.05 819.3 327.5
L 825.2 327.45 823.4 327 824.55 326.85 801.3 321.3
Q 795.25 319.8 790.55 318.7
L 782.9 316.8 783.95 289.3
Q 784.25 281.6 784.65 266.55
L 784.75 250.8
Q 797.45 248.25 801.2 247.4
L 816.3 243.9
Q 820.7 242.85 827.45 241.1
L 836.65 238.7 836.65 238.6 809.15 245.25
Q 807.3 245.7 801.1 247 799.75 247.3 784.75 250.25
L 784.75 244.2 792.1 243.05 791.95 237.65 786.5 237.5 786.65 231.1 786.2 231.05 779.95 230.9 779.95 231.55
Q 779.9 233.7 779.75 241.55
L 757.3 243.7
Q 726.2 246.5 700.55 248.25 676.35 243.95 642.9 236.7 625.45 232.85 608.65 228.9
L 586.8 222.65 573.6 218.3
Q 560.25 213.9 555.75 212.35
L 369.6 148.6
Q 355.15 143.65 351.05 142.05
L 314.85 127.95
Q 314.25 127.7 313.65 127.5 326.15 129.5 350.35 133.5
L 447.8 148.35
Q 454.35 149.3 467.35 151.45
L 617.35 175.95
Q 642.55 180.15 651.75 181.8
L 714.75 192.7
Q 717.05 193.15 722 193.75
L 729.15 194.75
Q 733.85 195.35 742.9 196.55 745.55 196.85 756 198.1 763.75 199 768.35 199.45
L 836.5 206.25
Q 840.7 206.6 843.5 206.95
L 845.95 207.2 845.95 207.1 768.45 198.85
Q 763.75 198.35 743 195.8 741.1 195.6 729.25 193.95
L 722.15 192.95
M 781.2 232.15
L 785.7 232.05 785.85 238.15 791.65 237.95 791.55 242.6 783.85 243.35 783.85 243.75
Q 783.75 247.85 783.7 250.5 782.95 250.6 782.25 250.75
L 781.5 250.85 781.5 250.35
Q 781.45 245.45 781.4 241.55
L 791.45 240.45 791.45 240.4 781.4 241.4
Q 781.3 235.8 781.2 232.15
M 747.4 254.4
Q 741.75 254.15 734.2 253.3 722.75 252.05 705.95 249.2 704.65 249 703.3 248.75 710.6 248.2 718.15 247.6 739.55 245.9 757.35 244.1
L 779.75 241.7
Q 779.7 245.05 779.65 249.4
L 771.7 249.25 771.65 252.3 759.85 254
Q 754.85 254.75 747.4 254.4
M 782.35 251.25
Q 783 251.1 783.65 251 783.55 255.05 783.55 255.1
L 782.85 266.45
Q 781.7 285.65 781.55 289.2
L 780.05 323.9 775.75 322.9 779.3 258.5 773.9 258.55
Q 773.8 254.7 773.8 252.7
L 782.35 251.25
M 773.8 252
Q 773.8 251.65 773.8 251.4
L 778.5 251.3 773.8 252
M 700.2 293.45
L 704.55 293.5 702.95 327.3 708 327.35 706.6 328.45 706.55 329.15 706.5 351.75 699.4 346.2 699.25 337.65 699.2 337.4 699.05 337.25 696.15 333.85 699 329.4 699.05 329.3 700.2 293.45
M 723.15 368.8
L 723.15 369.5 714.6 375.9
Q 711.9 374.3 709.45 372.8
L 709.55 357.9 723.15 368.8
M 706.5 355.5
L 706.5 371.05
Q 702.85 368.85 699.7 367
L 699.45 349.85 706.5 355.5
M 705.85 382.75
Q 705.55 392.75 705.55 392.85
L 705.25 411.85 699.7 411.85 699.85 398.05
Q 699.95 388 699.9 382.95
L 699.75 370.35
Q 702.8 372.2 706.15 374.3
L 705.85 382.75
M 697.35 368.85
Q 697.2 375.95 697.2 382.95
L 697.5 411.85 671.5 411.7
Q 663.75 411.7 654.1 411.95
L 612.5 412.55 613.7 380.1 589.15 384.7 584.3 384.75 584.8 377.15 610.4 358.9 644.2 335.75 661.3 346.45
Q 669.3 351.55 678.8 357.4 685.9 361.8 697.35 368.85
M 775.6 325.2
L 779.95 326.2 776.15 415.35 770.75 415.25 773.05 363.45
Q 773.85 349.65 774.35 342.75
L 775.6 325.2
M 787.3 325.55
L 782.6 324.5 782.85 317.9 812.65 325.85 787.3 325.55
M 782.55 326.8
L 787 327.8 787.15 327.85 808.55 327.65 787.5 330 786.35 414.4 805.55 414.45 805.6 415.8 778.45 415.35 782.55 326.8
M 770.7 416.05
L 776.1 416.35 775.75 424.6 770.3 424.7 770.7 416.05
M 699.7 414.2
L 706.75 414.15 707.15 442.25
Q 707.2 447.55 707.5 458.05
L 698.7 458.25 699.2 443.35
Q 699.4 433.25 699.5 428.25
L 699.7 414.2
M 582.85 390.2
Q 582.95 393.1 582.9 394.55 582.85 396.75 582.6 398.9
L 582.35 402
Q 580.5 401.85 578.65 401.9 576.3 401.9 573.95 402.05 572.45 402.1 569.2 402.4 568.7 402.45 568.25 402.5
L 568.45 387.7 582.75 387.8
Q 582.8 389 582.85 390.2
M 583.9 390.2
Q 583.95 389 584.05 387.8
L 587.35 387.85
Q 587.15 392.15 587 399.65
L 586.7 412.3 568.15 412 568.25 403.95
Q 568.7 404 569.2 404.05 572.45 404.35 573.95 404.4 576.3 404.55 578.65 404.55 581.05 404.65 583.35 404.4
L 584.65 404.35 584.15 398.9
Q 583.95 396.75 583.85 394.55 583.8 393.1 583.9 390.2
M 581.95 376.8
L 575.75 380.9 566.35 380.75 581.75 370.15
Q 581.8 372.7 581.95 376.8
M 589.3 387.85
L 589.5 387.8 610.4 383.95 609.9 411.75 588.45 412.1 587.75 387.85 589.3 387.85
M 651.55 363.8
Q 649.9 364.05 648.25 364.4
L 648.15 364.4 648.1 364.55
Q 647.6 367.1 647.25 370.5
L 646.75 376.5
Q 646.6 379.75 646.65 382.45
L 646.95 389.85 648.25 389.8
Q 650.45 389.7 651.55 389.55
L 655.7 389.15 655.25 382.45
Q 655.25 380 655.7 376.5 656.2 372.5 656.15 370.5
L 655.8 363.35 651.55 363.8
M 653.7 365.55
L 653.45 370.5
Q 653.45 372.9 653.9 376.5 654.4 379.85 654.35 382.45 654.35 384.45 654.25 385.45
L 654.1 387.55 651.55 387.25
Q 650.85 387.2 649.65 387.15
L 649.85 382.45
Q 649.9 379.75 649.75 376.5
L 649.3 370.5
Q 648.8 366.5 648.45 364.7 649.45 364.95 651.55 365.25
L 653.7 365.55 Z"/>
</g>
</defs>

<g transform="matrix( 1, 0, 0, 1, 0,0) ">
<use xlink:href="#Layer0_0_FILL"/>
</g>
</svg>
