
<svg xmlns="http://www.w3.org/2000/svg" version="1.1" xmlns:xlink="http://www.w3.org/1999/xlink" preserveAspectRatio="none" x="0px" y="0px" width="1094px" height="727px" viewBox="0 0 1094 727">
<defs>
<g id="Layer1_0_FILL">
<path fill="#FFFFFF" stroke="none" d="
M 976.95 204.15
L 974.15 201.4
Q 973.9 201.15 971.05 198.9
L 967.75 196.65
Q 965.65 195.4 964.3 194.75 963.8 194.5 960.75 193.15 958.45 192.2 957.05 191.85 955.8 191.4 953.25 190.85 952.15 190.5 951 190.4
L 949.65 190.1 948.5 185.15 944.05 184 943.25 181.15 943.15 180.9 941.15 180.9 941.25 170.6 943.3 169.95 943.55 169.9 943.5 167 939 164.9 937.8 162.95 938 162.75 938.4 161.9 938.5 161.15 938.5 160.85 938.4 160 938.25 159.65 937.7 158.7 937.25 158.4 937.5 151.2
Q 937.65 147.95 937.55 144.5
L 939.45 145.2 939.4 142.1 939.3 141.85 939.15 141.65 937.5 140.75 937.55 136 935.2 136.1 935.15 139.9 932.7 138.65 932.55 141.85 932.75 141.9 935 143.4 935.4 158.35 935 158.4
Q 934.4 158.8 933.9 159.45
L 933.65 160.2 933.65 160.95
Q 933.7 161.45 934 162.15
L 933.65 164.4 929.05 167.25 928.9 167.4 928.95 167.6 929 169.75 929.2 169.9 930 170.15 929.8 182.6 925.25 184.35 925.25 190.9
Q 917.45 192.5 911.25 196.15 904.6 200.1 899.75 206.2 895 212.2 892.25 219.5 890.9 223.05 889.95 226.75 888.95 230.8 888.65 234.25
L 886.65 235.7 886.15 235.85 886.15 239.6 882.9 240.65 884.9 243.6 885 243.6 886.25 243.85 886.25 275 882.5 275 882.45 275.15 879.2 289.75 862.9 298.65 862.95 298.65 831.7 304.15 830.3 304.25 830.3 304.4 828.8 304.65 833.05 308.65 833.5 315.25 787.4 317.05 763.8 327.55 760.75 330 760.75 339.1 695.4 339.4 619.5 162.65 627.05 160.25 615.45 152.85 614.4 111.35 625.2 112.2 611.4 103.2
Q 606.15 96 599.55 86.2 592.1 75.15 588.15 68.7 581.1 57.3 577.75 50.6 576.6 48.2 575.75 45.95
L 575 43.5
Q 574.6 42 574.75 41.25
L 574.8 40.95 574.9 40.8 575 40.75 575.05 40.55 576 39.5
Q 577.05 37.8 577.25 36.85 577.85 35.25 577 33.7 576.4 32.9 575.95 32.5
L 575.05 31.9 574.9 29.55 603.45 29.55 597.75 15.65 573.65 14.65 570.55 0 570 29.05 551.95 30.9 552 32.45 570.5 32.55 570.5 41.25 537.45 109 526.05 115.6 526.05 115.85 525.75 118.5 537.3 118.85 537.4 155 520.9 161.65 531.25 164 470.5 323.15 301.95 318.15 288.5 310.9 286 310.8 285.1 270.8 306.7 270.4 278.25 258.5 197 138.9 197.8 138 198.05 137.5 198.1 137.35
Q 198.1 137 197.8 136.6 197.1 135.75 196.3 135.35
L 196 131.65 210.55 132.2 203.6 120.1 195.9 120.1 194.3 109.2 191.9 109.35 192.05 135.4 191.65 135.5 190.9 136.15
Q 190.75 136.25 190.6 136.65
L 190.4 137.15 190.5 137.2 190.5 137.45 190.75 137.9 191.5 138.45 111.15 257.65 93.15 265.65 88.65 266.4 88.3 266.55
Q 88.05 266.65 87.8 266.9 87.4 267.25 87.55 268
L 88.05 268.65
Q 88.25 268.75 88.3 268.75
L 88.4 268.75 88.65 268.9
Q 89.75 269.4 90.55 269.65 95.2 271.45 98.75 271.05 100.2 270.9 101.4 270.4
L 100.65 331.8 98.25 382.15 77.4 382.15
Q 73.95 381.9 72.4 381.9
L 64.9 382.15
Q 62.75 382.4 62.45 382.5
L 54.25 384.05
Q 50.1 385.25 46.25 386.65 40.7 388.55 30.75 392.9 15.35 399.95 1 408
L 0 408 0 408.9 1.1 408.9
Q 15.95 413.6 33.4 418.55 53.05 424.25 66 427.15 71.7 428.4 74.3 428.75
L 76.5 428.9
Q 77.25 429 78.55 428.9 79.65 429 80.05 429.4 80.7 429.85 80.8 430.8 81 432.05 80.65 434.75 80.05 438.35 80.05 439 80.05 439.7 80.15 440.25 80.3 441.05 80.8 441.55 81.3 442.05 82.25 442.15 82.75 442.2 83.5 442.05
L 87.55 440.75
Q 91.7 439.55 95.65 438.9 98.2 438.6 99.65 438.65
L 101.25 438.65 101.4 438.75 101.65 438.75 103.55 439.3 107.3 441.05
Q 109.3 442.1 111.15 442.8 115.25 444.4 119.4 445.25 126.85 446.85 136.35 446.75 140.95 446.75 144.8 446.4
L 153.1 446.25
Q 156.65 446.35 161.35 447.15 165.95 448 169.35 449.25 173.45 450.65 176.85 452.55 180.05 454.3 183.8 457.05 195 465.7 205.1 482.4 209.1 489 213.3 497.05
L 237.35 541.5 319.25 688.7
Q 322.95 695.2 323.45 696 325.6 699.65 328.75 702.75 333.65 707.9 342 713.25 348.2 717.25 356.85 721.45 364.8 725.25 372.5 727.75
L 372.5 727.8 372.7 727.8 476.25 714.25 476.35 715.2 548.75 684.05 548.75 682 571.8 672.75
Q 572.85 672.5 576.8 671.25
L 591.45 666.2
Q 610.15 659.55 630.2 651.95
L 642.45 647.25 642.4 647.7 649.4 644.5
Q 661 639.9 668.5 636.6
L 687.3 628
Q 695.85 623.6 705.15 617.5 709.15 614.85 722.15 605.75 730.75 599.65 739.5 594.75 747.55 590.2 758.05 586
L 892.75 533.8
Q 918.7 523.95 931.4 519.5 951.65 512.55 971.15 508.75 989.25 505.4 1012 503.75 1020.55 503.1 1032.55 502.4
L 1053.15 501.3
Q 1076.9 500 1094.4 499.15
L 1094.4 361.6 1059.45 366 1059.3 364.5 1057.55 320.15 1058.3 319 1060.65 320.55 1060.75 320.5 1052.9 314.25
Q 1051.2 312.9 1048.75 311.5 1046.3 310.1 1044.3 309.15 1042.25 308.2 1039.65 307.25
L 1040.3 305.55 1041.25 305.65 1029.8 301 1029.55 297.4 1021.8 296.05 1022 292.15 1007.75 290.15 1008.25 270.5 1010.5 270.5 1012.05 268.15 1008.4 268.15 1008.5 262.75 1006.5 262.75 1006.5 268.15 1003.05 268.15 1003.05 270.15 1005.9 270.15 1005.9 289.5 996.4 288.4 996 292.55 996.8 292.8 996.95 293.15 992.2 292.8 992.2 296.65 988.5 296.25 988.5 292.4 995.25 292.4 995.25 291.4 991.25 291.4 991.65 282.15 992.55 279.9 990.75 277.15 990.45 241.65 992.25 241.15 992.25 241 994.15 239.15 995.25 238.7 994.7 238.6 995.25 237.95 991 235.35 990.9 232.85 990.8 232.5 990.5 232.4 989.2 232.15 988.75 229.45 988.75 229.15
Q 988.35 226.3 988.15 225.25 987.75 223.2 986.75 220.4 985.85 217.5 984.45 214.85 983.4 212.85 982.3 211.25
L 981.75 210.35
Q 980.95 209 979.5 207.15 978.3 205.6 976.95 204.15 Z"/>
</g>

<g id="Layer0_0_MEMBER_0_MEMBER_0_MEMBER_0_FILL">
<path fill="#522810" stroke="none" d="
M 1041.9 344.75
L 1041.9 344.8
Q 1042.45 344.9 1046.65 345.15
L 1047.05 345.15 1047.15 342.75 1040.55 342.65 1040.9 354.15 1041.05 354.15
Q 1042.8 354.1 1044.5 354.15
L 1048.25 354.3 1048.25 353.9
Q 1048.35 352.1 1048.25 348.55
L 1047.9 343.25 1047.8 343.25 1047.4 348.55
Q 1047.4 351.95 1047.5 353.65
L 1041.3 353.75 1041.65 343.75 1046.3 343.65 1046.3 344.5
Q 1044.3 344.5 1041.9 344.75
M 976.95 204.15
L 974.15 201.4
Q 973.9 201.15 971.05 198.9
L 967.75 196.65
Q 965.65 195.4 964.3 194.75 963.8 194.5 960.75 193.15 958.45 192.2 957.05 191.85 955.8 191.4 953.25 190.85 952.15 190.5 951 190.4
L 949.65 190.1 948.5 185.15 944.05 184 943.25 181.15 943.15 180.9 941.15 180.9 941.25 170.6 943.3 169.95 943.55 169.9 943.5 167 939 164.9 937.8 162.95 938 162.75 938.4 161.9 938.5 161.15 938.5 160.85 938.4 160 938.25 159.65 937.7 158.7 937.25 158.4 937.5 151.2
Q 937.65 147.95 937.55 144.5
L 939.45 145.2 939.4 142.1 939.3 141.85 939.15 141.65 937.5 140.75 937.55 136 935.2 136.1 935.15 139.9 932.7 138.65 932.55 141.85 932.75 141.9 935 143.4 935.4 158.35 935 158.4
Q 934.4 158.8 933.9 159.45
L 933.65 160.2 933.65 160.95
Q 933.7 161.45 934 162.15
L 933.65 164.4 929.05 167.25 928.9 167.4 928.95 167.6 929 169.75 929.2 169.9 930 170.15 929.8 182.6 925.25 184.35 925.25 190.9
Q 917.45 192.5 911.25 196.15 904.6 200.1 899.75 206.2 895 212.2 892.25 219.5 890.9 223.05 889.95 226.75 888.95 230.8 888.65 234.25
L 886.65 235.7 886.15 235.85 886.15 239.6 882.9 240.65 884.9 243.6 885 243.6 886.25 243.85 886.25 275 882.5 275 882.45 275.15 879.2 289.75 862.9 298.65 862.95 298.65 831.7 304.15 830.3 304.25 830.3 304.4 828.8 304.65 833.05 308.65 833.5 315.25 787.4 317.05 763.8 327.55 760.75 330 763 329.9 766.75 333.8 766.7 333.8 769.8 339.05 695.4 339.4 619.5 162.65 627.05 160.25 615.45 152.85 614.4 111.35 625.2 112.2 611.4 103.2
Q 606.15 96 599.55 86.2 592.1 75.15 588.15 68.7 581.1 57.3 577.75 50.6 576.6 48.2 575.75 45.95
L 575 43.5
Q 574.6 42 574.75 41.25
L 574.8 40.95 574.9 40.8 575 40.75 575.05 40.55 576 39.5
Q 577.05 37.8 577.25 36.85 577.85 35.25 577 33.7 576.4 32.9 575.95 32.5
L 575.05 31.9 574.9 29.55 603.45 29.55 597.75 15.65 573.65 14.65 570.55 0 570 29.05 551.95 30.9 552 32.45 570.5 32.55 570.5 41.25 537.45 109 526.05 115.6 526.05 115.85 525.75 118.5 537.3 118.85 537.4 155 520.9 161.65 531.25 164 470.5 323.15 301.95 318.15 288.5 310.9 286 310.8 285.1 270.8 306.7 270.4 278.25 258.5 197 138.9 197.8 138 198.05 137.5 198.1 137.35
Q 198.1 137 197.8 136.6 197.1 135.75 196.3 135.35
L 196 131.65 210.55 132.2 203.6 120.1 195.9 120.1 194.3 109.2 191.9 109.35 192.05 135.4 191.65 135.5 190.9 136.15
Q 190.75 136.25 190.6 136.65
L 190.4 137.15 190.5 137.2 190.5 137.45 190.75 137.9 191.1 138.2 191.55 138.4 111.15 257.65 93.15 265.65 88.65 266.4 88.3 266.55
Q 88.05 266.65 87.8 266.9 87.4 267.25 87.55 268
L 88.05 268.65
Q 88.25 268.75 88.3 268.75
L 88.4 268.75 88.65 268.9
Q 89.75 269.4 90.55 269.65 95.2 271.45 98.75 271.05 100.2 270.9 101.4 270.4
L 100.65 331.8 96.8 413.65
Q 96.95 414.75 97.25 415.15 97.85 416.4 99.15 417.25 101 418.35 103.55 419.15 106.95 420.1 112.55 420.9 117.2 421.45 121.55 421.65
L 157.55 422.25 202.35 421.55
Q 214.55 421.75 220.1 422.25
L 229.1 423 233.75 423
Q 234.45 423 236.1 422.75
L 238.55 422.4 239.5 422.15 239.5 421.4
Q 248.55 421.85 256.5 424.5 260.85 425.95 264.85 428.4 266.95 429.75 268.5 431.25 269.35 432 270.2 432.9
L 271.75 434.65
Q 276.4 439.7 283.95 448.8
L 307.35 478.15
Q 313.6 486.05 318.75 493
L 341.1 523.05
Q 361.35 549.5 387 582.45 401.7 601.15 410.35 611.8 418.95 622.4 422.25 626.3
L 425.5 629.8
Q 426.25 630.55 427.5 631.35
L 429.1 632.8
Q 430.45 634.05 432 636.25
L 433.5 638.55 431.1 700.45 432.25 700.5 432.25 700.6 465 714.5 467.35 692.7 475.6 693 476.25 713.3 372.75 726.8
Q 365.4 724.3 357.35 720.35 348.95 716.35 342.7 712.25 334.4 706.8 329.7 701.8 326.5 698.5 324.6 695.25 322.2 690.9 320.5 688
L 215.1 496.05
Q 210.7 487.8 206.85 481.3 202.1 473.55 197.1 467.4 193.95 463.6 191.4 461.05 188.8 458.45 185.05 455.5 181.9 453.05 177.85 450.75 174.1 448.75 170 447.3 166.8 446.15 161.65 445.15 156.8 444.35 153.15 444.25
L 144.65 444.5
Q 140.75 444.8 136.35 444.8 127 444.95 119.75 443.5 115.2 442.55 111.8 441.15 111.25 440.95 108.05 439.5
L 104.15 437.65 102 437.05 99.8 436.9
Q 98.05 436.9 95.4 437.25 91.8 437.8 87.15 439.25
L 84.05 440.25
Q 83.6 440.55 83.15 440.55 82.15 440.85 81.9 440.5 81.45 440.05 81.55 439
L 82.05 435
Q 82.5 432.25 82.25 430.5 81.85 429 81.05 428.3 80.1 427.6 78.65 427.5 77.15 427.6 76.55 427.5
L 74.5 427.4
Q 71.2 426.95 66.3 425.9 55.15 423.45 33.7 417.5 14.7 412.1 2.45 408.4 7.65 405.4 16.1 400.9 24.1 396.8 31.1 393.55 39.1 389.85 46.45 387.15 49.95 385.85 54.3 384.5
L 62.5 382.9
Q 63.35 382.65 64.9 382.5
L 72.4 382.15
Q 73.75 382.15 77.4 382.4
L 82.3 382.75 82.4 382.55 77.4 382.15
Q 73.95 381.9 72.4 381.9
L 64.9 382.15
Q 62.75 382.4 62.45 382.5
L 54.25 384.05
Q 50.1 385.25 46.25 386.65 40.7 388.55 30.75 392.9 15.35 399.95 1 408
L 0 408.55 1.1 408.9
Q 15.95 413.6 33.4 418.55 53.05 424.25 66 427.15 71.7 428.4 74.3 428.75
L 76.5 428.9
Q 77.25 429 78.55 428.9 79.65 429 80.05 429.4 80.7 429.85 80.8 430.8 81 432.05 80.65 434.75 80.05 438.35 80.05 439 80.05 439.7 80.15 440.25 80.3 441.05 80.8 441.55 81.3 442.05 82.25 442.15 82.75 442.2 83.5 442.05
L 87.55 440.75
Q 91.7 439.55 95.65 438.9 98.2 438.6 99.65 438.65
L 101.25 438.65 101.4 438.75 101.65 438.75 103.55 439.3 107.3 441.05
Q 109.3 442.1 111.15 442.8 115.25 444.4 119.4 445.25 126.85 446.85 136.35 446.75 140.95 446.75 144.8 446.4
L 153.1 446.25
Q 156.65 446.35 161.35 447.15 165.95 448 169.35 449.25 173.45 450.65 176.85 452.55 180.05 454.3 183.8 457.05 195 465.7 205.1 482.4 209.1 489 213.3 497.05
L 237.35 541.5 319.25 688.7
Q 322.95 695.2 323.45 696 325.6 699.65 328.75 702.75 333.65 707.9 342 713.25 348.2 717.25 356.85 721.45 364.8 725.25 372.5 727.75
L 372.6 727.8 372.7 727.8 476.25 714.25 476.35 715.2 548.75 684.05 548.75 682 571.8 672.75
Q 572.85 672.5 576.8 671.25
L 591.45 666.2
Q 610.15 659.55 630.2 651.95
L 642.45 647.25 642.4 647.7 649.4 644.5
Q 661 639.9 668.5 636.6
L 687.3 628
Q 695.85 623.6 705.15 617.5 709.15 614.85 722.15 605.75 730.75 599.65 739.5 594.75 747.55 590.2 758.05 586
L 892.75 533.8
Q 918.7 523.95 931.4 519.5 951.65 512.55 971.15 508.75 989.25 505.4 1012 503.75 1020.55 503.1 1032.55 502.4
L 1053.15 501.3
Q 1076.9 500 1094.4 499.15
L 1094.4 499
Q 1089.55 499.15 1053.15 500.65 1039.3 501.35 1032.55 501.55 1020.25 502.15 1011.9 502.75 988.25 504.4 970.9 507.55 951.95 511.05 930.95 518.05 921 521.45 892.15 532.3
L 776.7 577 747.95 588.6 738.75 593.35
Q 730.1 598.2 721.25 604.5 710.15 612.6 704.45 616.35 694.8 622.75 686.75 626.95
L 682.2 629.25 644.3 645.1 654.5 572.25 691.2 579.35 717.25 561.75 733.5 561.6 733.8 561.3 776.45 531.75 787.9 531.75 788.05 548 793 547.75 792.5 531.95 802.2 531.55 850 488.55 866.5 488.55 866.65 503.75 871.15 503.75 870.95 488.65 884.4 488.15 902.65 469.5 930.45 469.5 930.5 485.55 934.45 485.15 934.15 469.3 942.4 469.15 1000.65 415 1030.5 414.5 1030.55 439.75 1034.65 439.75 1034.55 414.4 1072.8 413.65 1089.4 396.55 1072.65 413.15 1033.65 413.65 1033.55 438.65 1031.65 438.65 1031.8 413.05 1000 413.4 941.55 467.15 901.65 467.05 883.3 485.65 869.15 486.25 869.15 486 849 485.9 801.05 528.85 790.7 529.25 790.7 528.85 775.5 528.95 732.65 558.6 716.3 558.75 690.5 576.25 641 566.7 688.25 526.1 731.7 532.2 772.5 507.5 804.05 505 858 457.55 899.45 453.9 899.65 453.8 899.8 453.75 959.25 414.25 981.45 409.9 981.45 410.65 997.2 399.3 997.5 399.15 997.5 398.75 1038.65 368.9 1064.25 365.5 1038.55 368.4 1038.4 368.4 997.45 397.55 994.55 322.4 1056.8 321 1059.15 364.5 1059.3 364.5 1057.55 320.15 993.15 321.05 995.95 398.3 982.8 407.75 978.2 321.3
Q 985.3 321.45 990.25 321.25
L 990.7 321.25 990.95 321
Q 992.25 319.05 994 317.15
L 997.5 313.75
Q 999.4 312.1 1001.4 310.75
L 1005.55 308.25
Q 1007.45 307.25 1010.15 306.3
L 1014.95 305.15
Q 1015.1 305.1 1017.4 304.75 1018.25 304.65 1019.9 304.65 1021.95 304.6 1024.8 304.8
L 1032.05 306.25 1039.15 308.5
Q 1041.85 309.45 1043.75 310.3 1046.65 311.65 1048.15 312.5 1050.75 313.9 1052.3 315
L 1060.65 320.55 1060.75 320.5 1052.9 314.25
Q 1051.2 312.9 1048.75 311.5 1046.3 310.1 1044.3 309.15 1042.25 308.2 1039.65 307.25 1037.1 306.35 1034.8 305.75
L 1024.9 304.15
Q 1021.1 304.1 1019.8 304.15 1018.65 304.15 1017.3 304.3 1015.5 304.45 1014.8 304.65
L 1010 305.75
Q 1006.75 306.75 1005.25 307.5 1004.9 307.6 1003 308.55
L 1000.75 309.8 996.7 312.75
Q 994.75 314.2 992.95 316.15 991 318.25 989.95 319.75
L 978.5 319.75 978.25 302.4 979.25 302.4 980.5 298.25 980.55 298.25 980.5 298.75 1041.25 305.65 1029.8 301 1029.55 297.4 1021.8 296.05 1022 292.15 1007.75 290.15 1008.25 270.5 1010.5 270.5 1012.05 268.15 1008.4 268.15 1008.5 262.75 1006.5 262.75 1006.5 268.15 1003.05 268.15 1003.05 270.15 1005.9 270.15 1005.9 289.5 996.4 288.4 996 292.55 996.8 292.8 996.95 293.15 992.2 292.8 992.2 296.65 988.5 296.25 988.5 292.4 995.25 292.4 995.25 291.4 987.5 291.4 987.5 297.15 993.2 297.8 993.2 293.9 998.3 294.25 997.65 292.05 997 291.9 997.25 289.5 1006.75 290.65 1006.75 291 1020.95 293 1020.75 296.9 1028.55 298.25 1028.9 301.65 1034.25 303.9 980.65 297.75 980.55 298 980.4 298 977.75 297.75 977.75 297.4 884 301.75 942.05 297.75 942.25 297.75 942.4 293.5 942.45 293.4 924.9 293.55 924.9 291 909.7 291.5 909.7 291.55 924.7 291.15 924.7 293.75 942.15 293.65 941.95 297.5 867.55 302.4 867.55 297.3 881.3 297.4 881.3 291.4 904.25 291.4 904.25 290.65 920.4 290.3 991.25 287.25 991.65 282.15 992.55 279.9 990.75 277.15 990.45 241.65 992.25 241.15 992.25 241 994.15 239.15 995.25 238.7 994.7 238.6 995.25 237.95 991 235.35 990.9 232.85 990.8 232.5 990.5 232.4 989.2 232.15 988.75 229.45 988.75 229.15
Q 988.35 226.3 988.15 225.25 987.75 223.2 986.75 220.4 985.85 217.5 984.45 214.85 983.4 212.85 982.3 211.25
L 981.75 210.35
Q 980.95 209 979.5 207.15 978.3 205.6 976.95 204.15
M 705.25 362.5
L 701 352.65 774.65 354 774.3 363.3 706.75 365.05 705.25 362.5
M 701 369.25
L 701 369 549 363.9 565.15 156 563.5 154.4
Q 567.5 154.8 577.15 156.15
L 592.75 157.9
Q 596.5 158.35 600.55 158.65
L 620.3 159.75 616.05 161.1 704.95 369.5 729.4 377.15 713.15 378 539.8 374.55 547.75 367.05 554.15 366.75 701 369.25
M 700.95 352.3
L 695.45 339.5 770.25 339.75 770.25 339.8 781.65 339.8 795.8 353.5 700.95 352.3
M 904 267.55
L 904.4 267.55 904.4 272.4 909.15 272.4 909.15 272.5 904 272.5 904 267.55
M 856.55 339.75
L 868.05 339.8 869.05 348.05 874.55 348.25 875 405.9 867.7 406 868.4 403.55 868.45 403.5 868.95 376.4
Q 869.2 358.3 869.4 349.3
L 869.25 349.3 867.65 403.3 866.8 406.05 856.5 406.15 856.55 339.75
M 876.4 339.55
L 876.5 339.15 898.45 338.8 899.65 341.05 900.75 347.05 899 402.15 897.5 405.55 891.15 405.75 891.15 369.25 895.25 369.25 893.05 370.05 893.5 405.4 893.8 370.55 899.8 368.5 890.25 368.4 890.25 405.75 875.95 405.9 875.55 347.8 876.4 339.55
M 868.9 339.25
L 874.7 339.15 874.65 347.4 869.9 347.25 868.9 339.25
M 941 337.65
L 937.5 336.65 937.45 336.55 937.3 336.55 936.05 336.65 935.95 322.9 957.5 322.9 958.65 413 958.55 413 944.15 422.5 942.95 405 941.55 405 940.7 402.4 938.65 346.65 940.7 341.15 940.7 341 941 337.65
M 857 425.9
L 856.5 425.8 856.5 408 857 425.9
M 959.3 412.75
L 958 322.5 977.4 322 981.4 408.75 959.3 412.75
M 558.75 114.35
L 561.7 116.7 561.8 130.45 551 133.4 554.25 132.15 554.45 120.2 558.75 114.35
M 344.75 360.4
L 330.45 349.75 457.75 354.25 457.2 358.15 456.35 360.25 344.75 360.4
M 329.25 348.75
L 324.75 338.5 462.85 343.25 458.25 355.5 458.5 353.65 329.25 348.75
M 469.25 325.4
L 463.35 340.75 446.7 340.15
Q 435.85 339.75 429.1 339.65
L 324 337.25 319.75 327.9 319.7 327.75 319.6 327.65 303.95 319.25 469.25 325.4
M 432.1 378.3
L 454 371 543.15 367.25 534.4 375.5 432.1 378.3
M 194.25 122.5
L 202.25 122.5 206.1 129.45 194.25 128.95 194.25 122.5
M 191.6 137.25
L 191.65 137.35 192.05 137.2 192.05 137.65 191.85 137.9 191.6 137.65 191.5 137.4 191.55 137.35 191.55 137.4 191.6 137.25
M 197.55 136.9
Q 197.95 137.05 197.85 137.35
L 197.85 137.45
Q 197.85 137.7 197.55 137.75 197.25 137.9 196.85 137.9
L 196.4 137.85 196.35 136.85 196.8 136.75
Q 197.25 136.7 197.55 136.9
M 102.05 267
L 101.5 267.65
Q 100.35 268.65 98.5 268.8 96 269.1 92.3 268
L 94 267.65 102.75 266.55 102.05 267
M 130.35 270.25
L 129.65 270.15 129.85 263.65 130.55 263.55 130.35 270.25
M 183.1 261.9
L 182.8 269.15 181.1 269.05 181.1 262
Q 181.7 262 183.1 261.9
M 285.2 311.75
L 285.25 311.8 285.2 311.8 259 324.65 248.8 326.25 248.85 326.65 227.1 326.65 255.1 309.55 285.2 311.75
M 974.45 202.75
L 978.9 207.6 981.05 210.75
Q 981.75 211.75 983 214.15
L 985.95 221.25 987 224.95
Q 987.3 225.9 987.8 228.75
L 988.45 232.9 990.05 233.2 990.2 235.75 990.4 235.9 993.95 238.15 993.75 238.35 987.5 236.5
Q 984.75 235.65 980.75 235.2
L 967.25 234.65
Q 960.5 234.6 953.75 234.65
L 906.5 236.15
Q 902.2 236.55 899.75 237.1
L 886.9 239.25 886.9 236.4
Q 890.15 235.75 892.25 235.4
L 915.15 232.4
Q 916.1 232.35 920.9 231.9
L 938.2 230.9
Q 942.35 230.65 943.95 230.65
L 948.3 230.5 929.5 230.7 920.8 231.4
Q 918.55 231.5 915.05 231.9
L 903.55 233.15 887.7 235.6 889 234.5 889.15 234.45 889.15 234.4
Q 889.35 231.3 890.45 226.9 891.3 223.35 892.75 219.65 895.65 212.2 900.2 206.6 904.9 200.55 911.5 196.65 917.95 192.9 925.65 191.4
L 925.9 191.35 925.9 184.75 930.45 182.95 930.5 182.75 930.7 169.7 929.65 169.35 929.5 167.7 934.05 164.85 934.25 164.75 934.25 164.65 934.55 162.85 935.75 163.6 936.05 163.65 936.5 163.65
Q 936.9 163.65 937.25 163.4
L 938.4 165.35 938.5 165.45 942.8 167.4 942.9 169.4 940.75 169.95 940.5 170.1 940.45 181.65 942.65 181.65 943.5 184.65 947.9 185.7 948.8 189.9
Q 946.6 189.5 945.15 189.35 942.5 189.05 940 189.15 937.95 189.3 936.15 189.7
L 932.8 190.45 932.8 190.6 936.25 190.15
Q 940.15 189.55 945 190.25 948.45 190.75 950.8 191.4 951.7 191.6 954 192.2
L 963.75 195.9
Q 966.95 197.4 970.15 199.4 972.45 201.05 974.45 202.75
M 977.3 235.85
L 980.7 236.1
Q 984.65 236.45 987.25 237.35
L 992.5 238.85 988.45 240.25 988.95 277.25 982.4 277.25 981.9 250.15
Q 981.75 248 982.7 246.45 983.25 245.6 984.2 245.6 985 245.4 985.5 246.5 986 248 986 250.35
L 986.3 262.85 986.25 250.35
Q 986.25 247.6 985.75 246.4 985.65 245.85 985.2 245.5 984.75 245.15 984.15 245.2 983.15 245.2 982.4 246.2 981.45 247.65 981.45 250.15
L 981.75 277.9 989.55 277.9 989.2 240.85 992.4 239.7 991.75 240.4 989.55 241 989.8 277.4 989.95 277.5 991.65 280 990.75 281.9 990.5 286.5 925.75 289.4 904.5 290 904.45 273.15 909.8 273.15 909.8 271.65 905 271.65 905 266.9 903.4 266.9 903.4 271.9 898.25 271.9 898.25 273.15 903.55 273.15 903.55 290.8 880.75 290.8 880.75 296.75 867 296.8 867.05 302.5 834.05 304.05 863 298.9 879.45 290 879.5 289.9 882.75 275.4 886.7 275.4 886.75 243.45 885.15 243.15 883.65 240.9 886.15 240.1 886.15 240.15 899.9 237.85
Q 901.55 237.5 906.5 237
L 913.25 236.6
Q 918.65 236.25 926.75 236.1
L 940.25 235.75
Q 956.9 235.5 967.25 235.5
L 974 235.65
Q 975.35 235.65 977.3 235.85
M 1010.25 269.15
L 1010 269.5 1007.25 269.5 1006.9 286 1006.9 269.15 1010.25 269.15
M 977.75 298.4
L 977.75 297.9 980.05 298.3 978.75 301.65 977.4 301.65 977 321.15 956.3 321.75 902.05 306 882.55 305.9 882.5 306 839.65 323.75 841 323.75 840.8 339.25 838.65 339.15 838.9 339.55 839.8 340.75 839.95 425.15 832.5 424.8 832.25 332.4 831.7 330.05 832.5 329.5 832.5 327.55 762.2 329.5 764.15 327.9 764.05 327.9 787.5 317.5 833.9 315.65 833.9 315.5 833.45 308.55 833.45 308.5 829.5 304.9 830.4 304.75 830.4 305.25 977.75 298.4
M 937 136.65
L 936.7 140.95 936.7 141.2 936.9 141.4 938.45 142.35 938.45 143.75 936.55 143 936.5 143.75 936.8 158.35 936.5 158.2
Q 936.2 158.15 935.5 158.25
L 935.75 142.95 933.05 141.6 933 139.15 935.45 140.45 935.65 136.6 937 136.65
M 934.65 159.95
Q 935.15 159.45 935.45 159.4 935.9 159.2 936.4 159.2 936.6 159.2 936.75 159.35
L 937.2 159.4 937.9 159.9 938.25 160.4 938.4 160.85 938.4 161.15 938.25 161.6 937.9 162.15 937.2 162.5
Q 936.65 162.75 936.4 162.75
L 936.2 162.85 936 162.85 934.25 161.9
Q 934.05 161.45 934.2 160.95
L 934.4 160.4 934.65 159.95
M 707.25 367
L 706.55 365.5 793.5 363.9 794 363.8 794 363.75 795.15 363.75 795.05 373.5 760 376.25 760.05 377.25 795.05 375.65 796.5 423.25 755.15 432 722.7 434.25 722.7 434.3 755.2 432.5 755.25 432.5 797.3 423.9 796 374.65 788.3 375 796 374.3 796 362.75 793.95 362.8 793.65 354.3 798 354.4 783.25 339.25 783.2 339.15 783 339.05 782 339.05 782 339 770.75 339 767.15 333.5 767.05 333.5 763.25 329.9 831.95 328.15 831.95 329.25 831.2 329.65 831 329.8 831.65 332.5 831.75 424.8 800 423.5 800 424.25 929.95 430 930 429 858 425.55 857.5 407.15 942 406.15 941.9 405.8 942.25 405.8 943.4 423 899 452.05 857.5 455.5 857.15 455.5 856.9 455.75 803.05 502.65 772 504.9 771.75 504.9 731.15 529.5 722.95 528.3 720 473.25 713.5 381.15 747.25 379.4 707.25 367
M 884.75 308.3
L 884.7 308.25 854.95 318.65 855 318.75 884.75 309.05 929.2 320.4 845.05 322.55 882.75 306.5 901.95 306.5
Q 908.85 308.45 929 314.5
L 955.55 322.4 935.5 322.4 935.65 336.25 864.8 339.05 855.9 339.05 856 425.75 840.65 424.5 840.65 403.75
Q 840.65 392.1 840.55 382.75
L 840.25 340.5 839.55 339.65 841.25 339.65 841.05 323.75 937.8 321.4 884.75 308.3
M 937.25 337.55
L 939.95 338.4 939.7 340.9 937.75 346.15 937.15 346.05 937.05 347.05 937.7 347.15 939.7 402.5 940.55 405 928.9 405
Q 929.2 403.8 930.75 402.8
L 931.15 402.65
Q 931.5 402.4 931.55 402
L 931.9 401.05 932.15 399.15
Q 932.55 395.15 932.55 391.55 932.8 386.35 932.8 376.5 932.8 358.35 932.5 346.25
L 932.5 346.15 930.5 338.9 930.5 338.75 930.45 338.75 929.75 338 937.25 337.55
M 900.2 340.9
L 899.05 338.75 906.45 338.65 905.25 345.75 904.05 346.9 904.15 347 905.3 345.8 905.4 345.8 906.25 341.4 906.45 402.75 907.45 405.15 898.55 405 899.9 402.4 899.95 402.25 901.5 346.9 900.25 341 900.25 340.9 900.2 340.9
M 907.05 338.25
L 907.05 337.8 928.25 337 927.75 337.05 929.65 339.25 931.55 346.4
Q 931.95 365.1 931.95 376.5 931.95 384.85 931.75 391.55 931.6 396 931.3 399.05
L 930.8 401.75 930.75 401.9 930.3 402.15
Q 928.3 403.3 928 405.25
L 912.9 405.5 912.5 368.75 907.9 368.9 912.4 368.9 912 405.05 908.05 405.15 907 402.65
Q 906.8 395.45 906.8 386.5
L 907.05 354.3
Q 907.2 346.3 907.05 338.25
M 718.25 473.4
Q 719 483.95 719.7 492.15
L 722.25 528.25 687.4 523.25 634.75 568.3 652.5 571.8
Q 651.7 577 650.05 589.35
L 642.55 646.25 629.95 651.2
Q 613.55 657.5 591.25 665.5
L 581.5 668.95
Q 573.4 671.65 571.75 672.1
L 548.75 681.3 547.9 491.3 548.5 377.75 713.25 381.15 718.25 473.4
M 571.95 14.85
L 572.25 16.25 596.65 17.3 600.9 27.8 572.95 27.8 573.45 33 573.95 33.25
Q 574.9 33.75 575.45 34.55 575.85 35.25 575.5 36.45 575.35 37.35 574.5 38.5
L 573.75 39.45 573.5 39.7 573.25 40.1 572.95 41
Q 572.8 42.3 573.2 44 573.75 46 574 46.55 574.95 48.85 576.15 51.45 577.55 54.45 581.05 60.75 584.25 66.2 586.5 69.7 591.9 78.5 597.9 87.35 604.2 96.75 609.75 104.6
L 609.9 104.75 610 104.95 616.8 109.35 612.05 108.95 613 154.15 621 159.35 600.75 156.65
Q 597.15 156.2 592.95 155.9
L 577.25 154.65
Q 566.8 154.15 563 153.75
L 567 148.5 566.9 109.35 566.7 108.85 564.4 105.6 609.25 109.95 609.3 134.95 572.25 131.4 572.15 117.85 579 112 585.2 119.45 584.8 131.6 585.15 131.6 592.7 132.4 593 132.4 593.2 119.1 599.05 115.1 604.05 119.6 603.95 131.65 604.25 131.65 604.5 119.45 599.15 114.45 592.75 118.7 592.7 118.75 592.45 131.7 585.5 130.95 586 119.2 585.9 119.1 579.05 110.7 571.3 117.2 571.2 117.35 571.15 132.35 610.75 136.5 610.8 108.45 565.15 103.75 568 100.6 568 100.25
Q 568.6 94.95 569.25 86.2
L 571.75 43.75 571.55 43.75 567.5 86.1
Q 566.95 92.65 566.5 99.95
L 563.75 103.2 563 103.5 560.5 103.25 561.2 104.2 527.3 117.45 527 117.45 527.15 116.35 538.25 109.75 538.4 109.6 571.95 41.75 572 41.55 572 31.05 565.9 31 571.55 30.4 571.95 14.85
M 562 105.35
L 564.95 109.6 564.8 147.75 560.25 153.85 546.75 155.9 527.05 160.15 538.4 155.65 538.4 117.95 540.55 117.95 541.55 137.75 564 132.1 563.75 115.6 558.3 111.6 552.75 119.7 552.9 131.2 551.75 131.7 551.25 119.95 551.2 119.95 546.9 116.7 546.75 116.85 550.7 120.2 550.7 120.1 550.8 120.35 550.7 120.2 550.55 133.5 543.25 135.45 541.75 116.7 531.2 116.85 562 105.35
M 560.5 154.45
L 562.8 156.9 546 363.9 455.25 367.8 464.5 343.25 465 343.25 472.5 323.25 472.1 323.25 532.5 163.35 524.25 161.45
Q 528.25 161 532.4 160.25
L 544.65 158.15 560.5 154.45
M 351.6 365.5
L 351.5 365.4 345.2 360.75 456.1 360.9 453.5 367.9 440.6 372.25 408.6 381.15 413.85 381.15 411 382.05 443.7 381.25 441.25 443.75 402.2 418.15 393.95 406 393.75 405.8 362.75 383 351.6 365.55 351.6 365.5
M 328.5 349.5
L 328.6 349.65 328.7 349.65 350.85 366.25 361.85 383.65 361.85 383.75 361.95 383.8 392.75 406.9 401.1 419.3 439.6 445.15 439.2 494.55 432.5 492.4 417.5 477.65 417.5 478.25 411.5 471.4 398 470.65 369.75 437.9 355.2 437.15 330.2 400.4 329.85 399.75 317.95 398.25 292.45 360.9 279.35 358.15 260.25 327.05 285.35 314.65 304.5 343.65 318 347.4 346.25 381.15 346.45 381.15 359 386.65 384 417.9 384 418 397.5 423.15 397.45 423 421.6 445.15 421.85 444.9 397.95 422.4 397.85 422.4 384.75 417.15 360.1 385.5 360 385.3 347.25 379.65 319.45 345.65 319.2 345.4 305.95 341.65 286.95 312.5 301.6 319.15 301.7 319.15 319 328.4 322.95 337.15 322.75 337.15 328.5 349.5
M 539.5 377.55
L 546.3 377.75 546.65 568.05 546.05 682.3 495.5 704 478.25 712.1 477.25 691.25 465.85 691 464 712.75 432.75 700.5 433.5 700.55 436.45 639.45 436 638.45 441.35 497.75 441.85 497.9 441.75 486.55 445.85 380.9 539.5 377.55
M 193.6 139.25
L 194.1 139.4 276.2 260.9 276.6 261.15 291.5 267.4 265.85 263.75 264.35 263.4 264.35 263.65 234.85 261.05 219.1 260.5
Q 211.45 260.25 203.4 260.25
L 183.1 259.65 183.1 260.4 181.1 260.4 181.1 259.75 130.55 261.25 130.55 261.65 129.9 261.65 129.9 261.3 128.6 261.4
Q 119.55 262.1 112.8 263.25
L 112.4 263.4 94.55 265.4 111.5 258.15 111.55 258.15 111.65 258.05 193.6 139.25
M 102.9 269.4
L 104.3 268.25 105.9 267.5
Q 108.6 266.45 113.25 265.65 118.55 264.65 127.4 264
L 127.05 272.5 132.85 272.9 133.1 263.8 178.3 262.65 178.25 271.75 185.5 272.15 185.9 262.65 231.1 264.4 230.9 273.15 234.75 273.65 235.6 264.9 261.6 266.55 261.25 276.15 266.75 276.15 267.35 267.3 284.1 270.75 285.1 310.75 255 308.4 254.8 308.4 221.55 328.15 237.6 328.3 235.1 328.65 236.85 420 229.3 420.4 220.35 419.65
Q 215.1 419.05 202.35 418.9
L 139.6 419.9 121.65 419.3
Q 117.15 419.1 112.8 418.55 108.4 418.05 104.15 417 102.05 416.35 100.4 415.4 99.55 414.85 99.25 414.15 99.15 414.1 99.05 413.55
L 102.15 322.9 101.65 270.25
Q 102.3 270 102.9 269.4
M 287.2 267.65
L 284.85 267.65 278.5 266.4 287.2 267.65
M 251.85 328.8
L 257.35 328.15 277.45 360.9 290.6 363.65 316.1 401.15 328 402.75 353.5 440.15 368.35 440.9 396.6 473.4 410.1 474.25 415.35 480.15 415 494.9 420.1 499.25 420.1 483.9 431.25 494.65 431.5 494.65 439.1 497.05 433.6 634.5
Q 432.5 632.95 430.75 631.2
L 427.1 628.2
Q 426.2 627.3 424 624.75 422 622.45 412.1 610.45
L 388.6 581.1
Q 363.45 549.3 342.45 522.05
L 319.85 492.15
Q 317.1 488.45 308.35 477.3
L 284.6 448.25
Q 276.8 439 272.25 434.15
L 269 430.75
Q 267.3 429.2 265.25 427.9 261.4 425.45 256.6 424 248.6 421.55 239.5 421
L 237.1 330.4 247.1 328.9 247.1 329 248.05 337.75 252.3 338.3 251.85 328.8
M 208.3 336.55
L 208.6 336.4 209.5 336.4 210.35 336.75
Q 210.8 337 211.5 337.75
L 211.1 339.75
Q 211 340.45 211.1 341.75
L 211.85 346 212.1 346
Q 212.5 344.75 212.6 343.9
L 212.85 341.75
Q 212.95 340.45 212.85 339.75
L 212.5 337.65 212.4 337.3 212.35 337.25 209.65 335.8
Q 209.5 335.75 208.6 335.55
L 208.05 335.55 207.4 335.75
Q 206.8 336 206.4 336.4
L 205.6 337.25 205.15 338.15 204.8 339.15 204.6 340.25
Q 204.35 341.55 204.55 342.3 204.55 343.05 205 344.4
L 206.1 346.65 206.4 346.65
Q 207.9 346.35 208.8 346.05
L 208.8 345.9
Q 207.9 345.65 207 345.5
L 206.6 340.5 206.85 338.9 207.15 338 207.55 337.3
Q 207.7 336.95 208 336.75
L 208.3 336.55
M 125.15 302.05
Q 125.5 301.8 125.65 301.8 125.9 301.9 126.25 302.25
L 126.9 303.5
Q 126.85 304.85 126.9 306.05 127 307.65 127.25 308.65
L 127.3 308.65
Q 127.55 307.65 127.65 306.05 127.8 304.3 127.65 303.4
L 127.65 303.25
Q 126.95 302.3 126.55 302 126.15 301.6 125.8 301.5 125.3 301.35 124.9 301.9 124.65 302.25 124.55 302.65
L 123.9 305 123.65 308.25 124.05 311.5 124.15 311.8 124.5 311.75
Q 126.25 311.65 127.3 311.4
L 127.3 311.3 124.9 311 124.75 303.5 125 302.4 125.15 302.05
M 477.35 455.3
Q 477.25 454.3 476.95 453.65
L 476.45 452.8 475.75 452.25
Q 475.25 451.9 474.85 451.9 474.8 451.8 474 451.65
L 473.25 451.65
Q 472.75 451.65 472.35 451.75 471.85 451.85 471.5 452.15 471.1 452.45 470.85 452.9 470.5 453.45 470.6 454.55
L 470.85 456.15 471 456.15 471.1 454.55
Q 471.2 453.5 471.45 453.15
L 471.85 452.75 473.2 452.55 474.6 452.8 475.6 453.5 476 454.05 476.25 454.75 476.35 455.4
Q 476.5 456.15 476.35 456.8
L 476.35 456.9
Q 476.35 458.6 476.5 460.25
L 476.7 463.5 476.35 469.4
Q 472.9 468.05 470.95 467.65
L 470.85 467.75
Q 473.1 468.95 476.6 470.5
L 477.25 470.75 477.25 470
Q 477.25 467.9 477.1 466.75
L 477.25 457
Q 477.35 456.65 477.35 455.3
M 512.65 509
L 512.25 508.55 511.2 508 510.6 507.8
Q 510.2 507.8 510 507.9 509.85 507.9 509.35 508.15
L 508.45 508.9 507.1 510.8 507.1 511
Q 506.95 514.7 506.95 518.25
L 507 525.5 507.1 526.25 512.25 522.75 512.2 522.6 507.85 524.85
Q 508 521.55 508 518.25
L 507.75 511.15 508.25 510.15 509.2 508.8 509.6 508.5
Q 509.85 508.25 510.1 508.25
L 510.6 508.15 510.85 508.15 511.6 508.5
Q 512.1 508.85 512.45 509.25 513.05 510 513.55 511.05
L 513.4 514.6
Q 513.35 516.45 513.4 518.25
L 513.75 525.5 513.8 525.5 514.15 521.85 514 510.9
Q 513.55 509.95 512.65 509
M 523.4 386.5
Q 523.15 386.15 522.65 385.75
L 520.7 385.15
Q 519.9 385.15 519.7 385.25 519.55 385.25 518.65 385.55
L 517.75 386.3 517.25 387.25
Q 516.95 388 516.8 389.25 516.7 390.45 516.9 391.25
L 517 404 517.25 404.05 522.15 404.65 522.2 404.55 517.65 403.5 517.8 397.4
Q 517.9 394.65 517.9 391.15
L 517.9 391
Q 517.75 390.5 517.75 389.25 517.95 388.05 518.15 387.55
L 518.25 387.15 518.5 386.9
Q 518.55 386.7 519.05 386.3
L 519.75 386
Q 520.15 385.9 520.7 385.9
L 521.5 386 522.3 386.3 523 386.8 523.5 387.5
Q 524.25 388.9 524 391.05
L 524 391.15
Q 524 393.65 523.75 398.25
L 523.75 405 520 405.15
Q 518.9 405.15 515.75 405.4
L 515.75 405.5 524.5 405.8 524.5 398.25
Q 524.25 393 524.25 391.15 524.5 390.4 524.4 389.25 524.25 388.1 523.95 387.3 523.7 386.8 523.4 386.5
M 457.6 387.8
Q 457.95 387.1 458.25 387 458.9 387 459.5 387.15 460.5 387.55 461 389 461.4 390.2 461.25 391.4
L 461.2 406.4 455.1 406.65 455.1 406.75
Q 458.4 407.05 461.5 407.05
L 461.85 407.05 461.95 401.65
Q 462.05 399.05 461.95 396.5
L 461.75 391.4
Q 461.75 390.1 461.25 388.8 460.7 387.25 459.6 386.9 459 386.65 458.25 386.65 457.8 386.8 457.25 387.65 457.05 388.25 456.6 390.15 456.15 392.65 456.1 395.3
L 455.35 406.05 460.95 406 460.75 405.4
Q 460.05 401.6 459.75 399.25 459.5 397.25 459.5 396.05
L 459.6 394.5
Q 459.65 393.6 460 393
L 459.85 393
Q 459.4 393.65 459.25 394.5
L 459.1 396.05
Q 459.05 397.2 459.1 399.25 459.25 401.65 459.75 405
L 456.5 405 456.7 395.3
Q 456.8 392 457 390.25 457.2 388.8 457.6 387.8
M 493.95 387.9
Q 493.25 387.1 492.25 386.8 491.25 386.6 490.25 386.75 489 386.9 488.35 387.3 487.4 387.95 486.95 388.8 486.6 389.65 486.35 390.75 486.25 391.75 486.25 394.75
L 486.25 398.65
Q 486.35 399.95 486.25 402.5
L 486.1 406.4 486 407 488.75 406.65 494.95 407.05 495.25 407.15 495.25 393.65
Q 495.35 392.7 495.25 391.65 495.2 390.55 494.95 389.65 494.3 388.25 493.95 387.9
M 492.1 387.15
Q 493.05 387.4 493.7 388.15 494.15 388.75 494.5 389.75 494.9 391.4 494.6 393.55
L 494.5 406.4 490.85 406.3 493.85 405.9 493.85 405.4
Q 493.45 395.4 493.2 391.9
L 493.6 390.3 493.5 390.3 492.95 391.75 492.95 391.8
Q 492.85 394.8 492.85 405
L 487.2 405.8 487.2 398.65
Q 487.1 395.75 487 394.65 486.85 391.85 486.95 390.8 487.05 389.55 487.35 389 487.7 388.2 488.5 387.65 489.4 387.1 490.25 387.05 491.2 386.9 492.1 387.15
M 595.55 461.4
Q 596.25 460.2 596.9 460 597.5 459.8 597.75 459.8
L 598.8 459.9
Q 599.8 460.05 600.25 460.9 600.55 461.65 600.7 462.8
L 601.4 476 601.5 476 601.75 465
Q 601.9 463.75 601.75 462.75 601.6 461.2 601.05 460.4 600.8 459.85 600.2 459.4 599.45 459.05 599 459 598.35 458.95 597.75 459 597.25 459 596.5 459.25 595.5 459.85 595 461.15 594.65 462.1 594.5 463.3 594.3 464.4 594.4 465.55 594.4 468.5 594.25 470
L 594.05 474.8 594.5 474.9 596.95 474.9 596.9 474.4
Q 596.9 471.4 596.75 469.9 596.75 467.9 596.5 465.25
L 596.4 465.25
Q 596.25 466.45 596.15 469.9
L 596 474 595 474 594.7 465.55
Q 594.7 463.35 595.55 461.4
M 573.45 389.75
Q 573.75 389.35 574.8 388.4 576.6 387 578.45 386.9
L 579.45 387 580.4 387.3 582.05 388.3 583.5 389.8
Q 584.3 390.9 584.65 391.5
L 584 408.4 571.9 408.75 571.9 408.9 584.8 409.25 584.9 408.8 585 391.25 583.75 389.55 581.45 387.5 580.5 387 579.5 386.65 578.45 386.5
Q 577.5 386.5 576.4 386.9 575.6 387.25 574.5 388 573.55 388.65 572.95 389.3 572.15 390.15 571.5 391
L 571.4 406.5 578.8 406.5 578.55 394.65
Q 578.7 394.25 578.55 393.4 578.4 392.7 578.2 392.25 577.6 391.4 577.4 391.25
L 576.4 390.5 576.3 390.65
Q 577 391.05 577.25 391.4 577.65 391.8 577.9 392.3 578.2 392.9 578.2 393.4
L 577.8 405.5 572.4 405.5 572.25 391.25 573.45 389.75
M 653.25 393.65
Q 654.4 391 656.65 390 658.75 388.9 661.75 389.15 664.7 389.25 666.55 390.9 668.3 392.5 669 395.5 669.25 396.7 669.25 398.15 669.3 398.65 669.2 400.9
L 668.8 406.3
Q 668.4 412.5 668.25 417.25 668.1 419.7 668 427.4
L 656 427.9
Q 652.85 428 651.75 428.15
L 651.75 428.3 666.7 428.9
Q 667.6 429 668.75 429
L 669.55 429.15 670 417.3 670.05 398.15
Q 670.05 397.15 669.7 395.4 668.85 392.15 667 390.5 665.8 389.45 664.55 389 663.55 388.6 661.8 388.4 658.65 388.2 656.25 389.15 653.5 390.4 652.25 393.25 651.05 395.5 651.05 398.75
L 651 404.25
Q 650.8 409.1 650.8 415.15
L 650.75 427.15 661.5 427.15 661 405.05
Q 660.95 401 660.75 398.05
L 660.75 398
Q 660.35 396.65 659.75 395.9 659.45 395.45 658.9 395.15 658.3 394.85 657.75 395
L 657.75 395.15
Q 658.35 395.15 658.75 395.4
L 659.45 396.15
Q 659.9 397 660.15 398.15
L 659.65 412.05
Q 659.45 419.5 659.45 425.05
L 652.9 425 652.5 398.75
Q 652.45 395.8 653.25 393.65
M 896.5 251.75
Q 896.5 250 896.4 249.65 896.15 249.15 895.95 249 895.55 248.85 895.5 248.9
L 895.2 248.9
Q 894.6 248.9 894 249.25 893.05 249.95 892.9 251.35 892.75 251.85 892.65 253.4
L 892.5 259.65
Q 892.5 261.85 892.75 268 892.9 272.15 893.2 276.25
L 893.2 276.4 893.4 276.4 895.75 276.25 895.75 276.15 893.5 276.05 893.55 253.45 893.75 251.45
Q 893.9 250.4 894.5 249.95
L 895.25 249.65 895.5 249.65
Q 895.5 249.3 895.7 249.9 896 251 896 251.85 896.1 252.85 896 253.9 896.1 257.8 896 259.75
L 895.8 265.75
Q 895.7 269.35 895.75 271.65 895.75 275.35 895.9 277.3
L 890.7 278.15 890.7 278.25 896.25 277.9 896.5 277.9 896.65 271.65
Q 896.65 268.4 896.55 265.75
L 896.4 253.9
Q 896.5 253.2 896.5 251.75
M 938.05 246.4
Q 939.7 245.7 942.25 245.9 944.6 246.2 945.9 247.65 947.25 249.15 947.3 251.45
L 947.55 278 929.7 277.9 912 277.25 911.45 257.4
Q 911.3 256.05 911.4 255.4
L 911.55 253.4
Q 911.95 251.35 912.8 249.75 913.9 247.9 915.5 247.6
L 916.45 247.45 916.9 247.5 917.25 247.65
Q 918.1 247.8 918.75 248.45 919.85 249.6 920.3 251.85 920.75 253.75 920.7 255.75
L 920.8 275.65 914 275.65 912.7 255.15 912.55 255.15 913.3 276.3 921.55 276.4 921.75 255.75
Q 921.75 253.45 921.3 251.65 920.8 249.1 919.5 247.75 918.65 246.8 917.55 246.6
L 916.5 246.4
Q 915.85 246.4 915.3 246.6 913.15 247 911.9 249.2 911 250.9 910.55 253.2
L 910.4 255.35
Q 910.3 256.15 910.45 257.4
L 911.25 278 947.9 278.3 948.15 251.4
Q 948 248.8 946.5 247.1 945 245.4 942.3 245 939.5 244.75 937.75 245.5 935.4 246.55 934.75 249.15 934.25 250.6 934.25 253.65
L 935.25 276.15 946 276 946 275.9 935.75 275.65 935.05 253.65
Q 935 251.2 935.5 249.4 936.2 247.25 938.05 246.4
M 972.65 258.15
L 972.5 251.7
Q 972.4 250.5 972 249.6 971.25 247.25 969.5 246.15 967.65 245.05 965.25 245.25 964.2 245.35 963.25 246.1 962.5 246.55 961.75 247.7 961.3 248.65 961 249.75
L 960.7 277.9 961 277.9
Q 966.8 277.9 973.9 277.65
L 973.9 277.5 961.4 277.25 961.5 249.9
Q 961.75 248.65 962.2 247.9 963.2 245.85 965.3 245.6 967.65 245.4 969.3 246.4 970.95 247.45 971.75 249.65 972.15 251.1 972.15 251.7
L 972.05 274.75 970.7 274.75 970.25 251.45 970.15 250.5
Q 969.8 249.6 969.2 248.9 968.6 248.3 967.65 247.75 966.35 247.35 965.8 247.25
L 965.8 247.4
Q 967.2 247.75 967.5 247.95 968.4 248.4 968.95 249.1 969.4 249.55 969.75 250.65
L 969.65 274.05 963 274.65 963 275.75 973 275.65 973 275.15
Q 972.9 267.45 972.65 258.15
M 974.9 231.25
L 972.75 230.9
Q 969.5 230.4 967 230.25
L 963.05 230.3 967 230.4
Q 969.9 230.6 972.75 230.95
L 974.9 231.25 Z"/>
</g>
</defs>

<g transform="matrix( 1, 0, 0, 1, 0,0) ">
<use xlink:href="#Layer1_0_FILL"/>
</g>

<g transform="matrix( 1, 0, 0, 1, 0,0) ">
<use xlink:href="#Layer0_0_MEMBER_0_MEMBER_0_MEMBER_0_FILL"/>
</g>
</svg>
