
<svg xmlns="http://www.w3.org/2000/svg" version="1.1" xmlns:xlink="http://www.w3.org/1999/xlink" preserveAspectRatio="none" x="0px" y="0px" width="1094px" height="727px" viewBox="0 0 1094 727">
<defs>
<g id="Layer0_0_FILL">
<path fill="#522810" stroke="none" d="
M 976.95 204.1
L 975.55 202.7
Q 974.4 201.55 974.15 201.35 973.55 200.8 971.1 198.85
L 967.8 196.65
Q 965.9 195.5 964.35 194.75 963.2 194.15 960.8 193.15 958.75 192.3 957.1 191.8 956 191.45 953.3 190.8 952.1 190.5 951.05 190.35 950.35 190.15 949.65 190.05
L 948.5 185.1 944.1 184 943.25 181.15 943.15 180.9 941.15 180.9 941.25 170.55 943.35 169.95 943.6 169.85 943.55 167.2 943.5 167 943.35 166.9 939 164.9 937.85 162.95 938.05 162.75 938.4 161.9 938.5 161.1 938.5 160.8 938.4 160 938.25 159.6
Q 938.1 159.2 937.7 158.7
L 937.25 158.4
Q 937.45 154.8 937.5 151.2 937.65 147.55 937.6 144.5
L 939.45 145.2 939.4 142.05 939.35 141.8 939.15 141.65 937.55 140.75 937.6 136 935.2 136.05 935.15 139.9 932.7 138.6 932.6 141.8 932.75 141.85 935.05 143.35 935.4 158.3
Q 935.2 158.3 935.05 158.4 934.35 158.8 933.9 159.45
L 933.65 160.2 933.65 160.95
Q 933.75 161.6 934.05 162.1
L 933.65 164.35 929.1 167.25 928.9 167.35 928.95 167.55 929 169.75 929.2 169.85 930.05 170.15 929.85 182.55 925.5 184.25 925.3 184.3 925.3 190.85
Q 917.5 192.45 911.25 196.15 904.65 200.05 899.8 206.2 895.1 212.05 892.25 219.5 891.05 222.7 889.95 226.75 889 230.65 888.65 234.25
L 886.65 235.7 886.15 235.8 886.15 239.55 882.9 240.6 884.85 243.45 884.9 243.55 885 243.55 886.3 243.8 886.3 275 882.5 275 882.45 275.15 879.2 289.7 862.9 298.6 862.95 298.6 831.7 304.15 830.35 304.2 830.35 304.35 828.85 304.65 829.1 304.85 833.1 308.65 833.55 315.25 787.4 317.05 763.9 327.5 763.85 327.55 760.8 329.95 763.05 329.9 766.75 333.8 766.7 333.8 769.85 339.05 695.4 339.35 619.5 162.65 627.1 160.25 615.45 152.8 614.4 111.35 625.2 112.15 611.4 103.2
Q 606.4 96.3 599.6 86.2 592.55 75.7 588.15 68.7 581.1 57.3 577.8 50.6 576.5 47.95 575.75 45.9
L 575 43.5
Q 574.65 42.05 574.75 41.25
L 574.85 40.9
Q 574.9 40.85 574.9 40.8
L 575 40.7 575.1 40.55 576 39.5
Q 577 37.9 577.3 36.85 577.85 35.15 577 33.65 576.45 32.85 575.95 32.45 575.5 32.1 575.1 31.85
L 574.9 29.55 603.45 29.55 597.8 15.6 573.65 14.6 570.6 0 570.05 29.05 551.95 30.9 552.05 32.4 570.55 32.55 570.55 41.25 537.45 109 526.1 115.6 526.1 115.85 525.75 118.5 537.35 118.85 537.4 155 520.9 161.65 531.3 164 470.55 323.15 301.95 318.1 301.8 318.05 288.5 310.85 286.05 310.8 285.1 270.8 306.7 270.35 278.25 258.45 197 138.85
Q 197.45 138.45 197.8 138 198.05 137.65 198.05 137.5
L 198.1 137.3
Q 198.1 136.95 197.8 136.55 197.05 135.7 196.3 135.3
L 196 131.6 210.55 132.2 203.65 120.05 195.95 120.1 194.3 109.2 191.95 109.35 192.05 135.35
Q 191.85 135.4 191.7 135.5 191.2 135.8 190.95 136.1 190.8 136.2 190.6 136.6
L 190.45 137.15 190.5 137.2 190.5 137.45 190.75 137.9 191.15 138.2 191.55 138.4 111.2 257.65 93.2 265.6 88.7 266.4 88.3 266.55
Q 88 266.7 87.85 266.85 87.4 267.3 87.6 267.95 87.7 268.25 88.1 268.65 88.394921875 268.7482421875 88.3 268.75
L 88.4 268.75 88.7 268.9
Q 89.8 269.4 90.6 269.65 95.25 271.4 98.75 271.05 100.2 270.9 101.4 270.4
L 100.7 331.8 96.85 413.65
Q 96.95 414.6 97.25 415.15 97.9 416.4 99.15 417.2 100.9 418.3 103.6 419.1 107.2 420.15 112.55 420.85 117.2 421.4 121.6 421.6
L 157.55 422.2 166.5 422
Q 172.5 421.9 184.45 421.65 194.4 421.5 202.35 421.55 214.95 421.75 220.15 422.25
L 229.1 423 233.75 422.95
Q 234.6 422.95 236.1 422.75
L 238.55 422.35 239.5 422.1 239.5 421.35
Q 248.65 421.85 256.5 424.5 261.1 426 264.9 428.4 267 429.8 268.55 431.25 269.15 431.75 270.2 432.9
L 271.8 434.6
Q 277.1 440.45 283.95 448.8
L 307.4 478.1
Q 313.6 486 318.75 492.95
L 341.15 523.05
Q 364.9 554.05 387.05 582.4 399.45 598.25 410.35 611.8 419.3 622.75 422.3 626.3 425.1 629.4 425.55 629.8 426.25 630.5 427.5 631.35
L 429.1 632.8
Q 430.7 634.3 432 636.25 432.85 637.4 433.5 638.55
L 431.1 700.4 432.3 700.5 432.25 700.6 465 714.45 467.35 692.65 475.6 693 476.3 713.3 372.75 726.8
Q 365.5 724.25 357.35 720.35 349.05 716.35 342.7 712.2 334.6 706.9 329.7 701.8 326.6 698.55 324.65 695.25 321.95 690.4 320.55 687.95
L 215.1 496.05
Q 210.6 487.55 206.9 481.3 202 473.35 197.15 467.4 194.6 464.25 191.45 461.05 188.65 458.25 185.05 455.45 181.75 452.9 177.85 450.75 174.2 448.8 170 447.3 166.75 446.1 161.7 445.1 156.8 444.3 153.2 444.25 150.35 444.25 148.95 444.2
L 144.7 444.45
Q 140.8 444.8 136.35 444.8 127.25 444.95 119.75 443.45 115.5 442.6 111.85 441.15 110.55 440.65 108.05 439.45 105 438 104.15 437.65 103.25 437.3 102 437.05
L 101.5 436.95 99.8 436.9
Q 98.25 436.85 95.45 437.25 91.55 437.85 87.15 439.25
L 84.1 440.25
Q 83.65 440.5 83.2 440.55 82.15 440.8 81.9 440.45 81.5 440.05 81.6 439 81.6 438.45 82.1 434.95 82.5 432.15 82.25 430.5 81.95 429 81.05 428.3 80.1 427.55 78.65 427.45 77.15 427.55 76.55 427.5
L 74.5 427.35
Q 71.1 426.9 66.3 425.85 55.1 423.4 33.7 417.45 18.4 413.15 2.45 408.35 7.65 405.4 16.15 400.9 23.3 397.2 31.1 393.55 39.5 389.65 46.45 387.1 50.85 385.5 54.35 384.5
L 62.5 382.85 62.55 382.85
Q 63.25 382.65 64.95 382.45
L 72.4 382.15
Q 74.1 382.15 77.4 382.35
L 82.35 382.75 82.4 382.55 77.4 382.1
Q 73.3 381.85 72.4 381.85
L 64.95 382.1
Q 62.85 382.35 62.45 382.45
L 54.25 384.05
Q 50.3 385.15 46.25 386.6 39.5 389 30.8 392.9 15.7 399.75 1 408
L 0 408.55 1.1 408.9
Q 16.5 413.7 33.4 418.55 53.35 424.25 66 427.15 71.5 428.35 74.35 428.7
L 76.5 428.9
Q 77.3 428.95 78.6 428.85 79.6 428.95 80.1 429.35 80.7 429.85 80.85 430.8 81.05 432 80.65 434.75 80.1 438.3 80.1 439 80.05 439.4 80.15 440.2 80.35 441.1 80.85 441.55 81.35 442.05 82.25 442.15 82.9 442.2 83.5 442.05
L 87.6 440.75
Q 91.9 439.45 95.7 438.9 98.05 438.55 99.7 438.6
L 100.75 438.6 101.25 438.65 101.4 438.7 101.45 438.7 101.7 438.75
Q 102.45 438.9 103.55 439.3 104.7 439.75 107.3 441.05 109.8 442.25 111.2 442.8 115 444.3 119.4 445.25 126.85 446.8 136.35 446.7 140.7 446.7 144.8 446.4
L 149 446.2
Q 152.45 446.2 153.15 446.25 156.65 446.3 161.35 447.1 165.9 447.95 169.35 449.2 173.3 450.55 176.9 452.55 180.15 454.3 183.8 457.05 195 465.65 205.1 482.4 209.05 488.85 213.3 497.05
L 237.4 541.45 319.3 688.65
Q 322 693.55 323.45 696 325.6 699.55 328.75 702.75 333.65 707.8 342 713.25 348.55 717.4 356.85 721.4 364.75 725.15 372.5 727.8
L 372.6 727.85 372.7 727.85 476.3 714.2 476.35 715.15 548.75 684.05 548.75 682
Q 550.75 681.1 552.75 680.3
L 569.5 673.55
Q 571.4 672.85 571.85 672.75 573.95 672.15 576.85 671.2 578.45 670.65 581.7 669.5
L 591.45 666.15
Q 610.6 659.35 630.2 651.9 636.5 649.55 642.45 647.25
L 642.4 647.65 649.4 644.5
Q 659.5 640.5 668.55 636.6 674.45 634.1 678 632.45
L 687.35 627.95
Q 695.85 623.6 705.15 617.45 710.95 613.65 722.15 605.7 731.05 599.45 739.55 594.75 747.8 590.1 758.1 586
L 892.75 533.8
Q 919.8 523.5 931.4 519.5 951.55 512.55 971.15 508.75 989.45 505.35 1012 503.7 1020.55 503.05 1032.6 502.4 1039.45 502 1053.2 501.3 1080.3 499.8 1094.4 499.15
L 1094.4 498.95
Q 1080.65 499.45 1053.15 500.65 1039.4 501.25 1032.55 501.55 1020.35 502.1 1011.9 502.7 988.35 504.35 970.9 507.55 951.45 511.15 930.95 518.05 921.3 521.35 892.15 532.3
L 776.7 576.95 747.95 588.6 738.75 593.35
Q 730.1 598.2 721.3 604.5 710.15 612.55 704.45 616.35 694.7 622.8 686.75 626.9 683.7 628.4 682.2 629.2
L 644.35 645.1 654.5 572.2 691.2 579.35 717.3 561.7 733.5 561.6 733.85 561.3 776.45 531.75 787.9 531.7 788.1 547.95 793.05 547.75 792.55 531.9 802.2 531.55 850.05 488.55 866.55 488.55 866.65 503.75 871.15 503.75 870.95 488.65 884.4 488.1 902.65 469.45 930.45 469.45 930.5 485.55 934.45 485.1 934.15 469.3 942.4 469.15 1000.65 414.95 1030.5 414.45 1030.6 439.75 1034.65 439.75 1034.55 414.4 1072.85 413.6 1089.4 396.55 1072.7 413.15 1033.7 413.6 1033.6 438.65 1031.7 438.65 1031.85 413.05 1000 413.4 941.6 467.15 901.65 467.05 883.35 485.6 869.15 486.2 869.15 485.95 849.05 485.9 801.1 528.85 790.7 529.25 790.7 528.85 775.55 528.9 732.65 558.6 716.35 558.75 690.55 576.25 641.05 566.65 688.25 526.1 731.7 532.15 732.1 531.95 772.5 507.45 804.1 505 858.05 457.55 899.45 453.85 899.65 453.8 899.85 453.7 959.3 414.25 981.45 409.9 981.45 410.6 997.2 399.3 997.55 399.1 997.5 398.75 1038.65 368.85 1064.25 365.45 1038.55 368.35 1038.45 368.35 1038.4 368.4 997.45 397.55 994.6 322.4 1056.85 320.95 1059.15 364.5 1059.3 364.5 1057.6 320.15 993.15 321.05 995.95 398.3 982.85 407.75 978.2 321.3
Q 984.9 321.4 990.3 321.25
L 990.7 321.25 990.95 320.95
Q 992.3 319 994 317.15
L 997.5 313.75
Q 999.4 312.1 1001.4 310.75 1002.1 310.3 1003.45 309.4
L 1005.6 308.2
Q 1007.55 307.2 1010.15 306.3
L 1014.95 305.1
Q 1015.3 305 1017.4 304.75 1018.7 304.6 1019.9 304.6 1022 304.55 1024.8 304.8
L 1029.7 305.65
Q 1030.1 305.7 1032.1 306.2
L 1039.15 308.45
Q 1041.8 309.4 1043.75 310.3 1046.4 311.45 1048.15 312.45 1050.8 313.9 1052.35 315
L 1058.5 319.3 1060.65 320.55 1060.75 320.45 1052.95 314.25
Q 1051.05 312.75 1048.75 311.45 1046.45 310.1 1044.3 309.1 1041.7 307.95 1039.65 307.2 1037.2 306.3 1034.8 305.7
L 1032.35 305.15
Q 1030.05 304.7 1029.9 304.7
L 1024.9 304.15
Q 1021.1 304.05 1019.85 304.15 1018.65 304.15 1017.35 304.3 1015.7 304.45 1014.85 304.6
L 1010 305.7
Q 1007.15 306.6 1005.25 307.45 1004.5 307.75 1003 308.55
L 1000.8 309.8 996.7 312.75
Q 994.75 314.25 992.95 316.15 991.05 318.2 989.95 319.75 984.25 319.7 978.55 319.75 978.45 314.15 978.4 311.25 978.4 308.3 978.25 302.4
L 979 302.4 979.25 302.35 980.55 298.2 980.6 298.2 980.55 298.7 1041.25 305.65 1029.85 300.95 1029.55 297.4 1021.85 296.05 1022 292.15 1007.8 290.1 1008.25 270.45 1010.55 270.45 1012.1 268.1 1008.4 268.1 1008.55 262.75 1006.5 262.75 1006.5 268.1 1003.1 268.1 1003.1 270.15 1005.9 270.15 1005.9 289.5 996.4 288.35 996 292.55 996.85 292.8 996.95 293.1 992.2 292.8 992.2 296.65 988.55 296.2 988.55 292.4 995.3 292.4 995.3 291.4 987.55 291.4 987.55 297.1 993.2 297.8 993.2 293.85 998.35 294.2 997.65 292.05 997.05 291.85 997.3 289.45 1006.8 290.65 1006.8 290.95 1020.95 293 1020.8 296.9 1028.6 298.25 1028.9 301.65 1034.25 303.85 980.65 297.7 980.6 297.95 980.4 297.95 977.8 297.75 977.8 297.9 980.1 298.3 978.75 301.65 977.4 301.6 977 321.15 956.35 321.75 929.2 313.9
Q 911.1 308.65 902.1 305.95
L 882.6 305.9 882.55 305.95 839.65 323.7 841 323.7 840.85 339.2 838.65 339.15 838.9 339.55 839.85 340.75 839.95 425.1 832.5 424.8 832.25 332.4 831.7 330.05 832.55 329.45 832.55 327.55 762.2 329.5 764.15 327.9 764.1 327.9 787.5 317.45 833.9 315.6 833.9 315.45 833.45 308.55 833.45 308.5 829.5 304.85 830.4 304.7 830.4 305.2 977.8 298.35 977.8 297.9 977.75 297.35 884 301.7 942.1 297.75 942.25 297.75 942.4 293.45 942.45 293.35 924.9 293.55 924.9 291 909.7 291.45 909.7 291.55 924.7 291.15 924.7 293.75 942.15 293.6 941.95 297.5 867.6 302.35 867.6 297.3 881.35 297.35 881.35 291.35 904.25 291.4 904.25 290.65 920.4 290.3
Q 922.25 290.3 925.85 290.1
L 991.3 287.25 991.65 282.1 992.6 279.9 990.75 277.15 990.45 241.65 992.25 241.1 992.3 241 994.15 239.1 995.25 238.7 994.7 238.55 995.25 237.95 994.85 237.65 991.05 235.3 990.9 232.8 990.85 232.5 990.55 232.4 989.2 232.15 988.8 229.45
Q 988.75 229.25 988.75 229.1 988.6 227.5 988.15 225.25 987.7 222.95 986.8 220.35 985.75 217.25 984.45 214.8 983.5 212.95 982.35 211.25 981.95 210.6 981.75 210.3 981.1 209.2 979.5 207.1 978.3 205.55 976.95 204.1
M 1007.5 264.7
L 1007.5 263.75 1007.5 263.75 1007.5 264.7
M 1006.9 269.15
L 1004.1 269.15 1004.1 269.1 1010.25 269.1 1010 269.45 1007.25 269.45 1006.9 285.95 1006.9 269.15
M 706.8 365.05
L 705.3 362.45 701.05 352.6 774.65 353.95
Q 774.45 358.7 774.35 363.3
L 706.8 365.05
M 701 369.25
L 701 368.95 549.05 363.9 565.15 156 563.55 154.4
Q 568.1 154.85 577.15 156.1
L 592.75 157.9
Q 596.7 158.35 600.6 158.65
L 620.35 159.75 616.1 161.05 704.95 369.5 729.4 377.15 713.15 378 539.85 374.55 547.8 367.05 554.15 366.75 701 369.25
M 707.25 366.95
L 706.6 365.45 793.5 363.85 794 363.8 794 363.75
Q 794.55 363.7 795.15 363.7
L 795.1 373.5 760.05 376.25 760.1 377.2 795.1 375.65 796.55 423.2 755.15 432 722.7 434.2 722.7 434.3 755.2 432.5 755.25 432.5 797.35 423.85 796 374.6 788.35 374.95 796 374.3 796.05 362.75 793.95 362.8 793.65 354.3 798.05 354.35 783.25 339.2 783.2 339.1 783.05 339.05 782.05 339.05 782 339 770.75 339
Q 769.4 336.9 769 336.35
L 767.15 333.5 767.15 333.45 767.1 333.45 763.25 329.9 831.95 328.1 831.95 329.2 831.2 329.65 831.05 329.8 831.1 329.95 831.65 332.5 831.75 424.8 800.05 423.45 800 424.25 929.95 429.95 930 429 858 425.55 857.55 407.1 942 406.1 941.9 405.8 942.25 405.8 943.4 422.95 899.05 452.05 857.5 455.5 857.15 455.5 856.9 455.75 803.1 502.65 772.05 504.9 771.75 504.9 731.15 529.45 722.95 528.3 721 492
Q 720.4 479.5 720 473.25 719.3 460.75 718.85 454.5
L 713.5 381.15 747.25 379.4 707.25 366.95
M 700.95 352.3
L 695.45 339.45 770.3 339.75 770.3 339.8 781.65 339.8 795.85 353.5 700.95 352.3
M 782.8 339.75
L 782.9 339.75 784.25 341.15 782.8 339.75
M 882.75 306.45
L 882.65 306.5 901.95 306.45
Q 911 309.05 929.05 314.45
L 955.6 322.35 935.5 322.35 935.65 336.25 864.85 339.05 855.9 339.05 856 425.7 840.65 424.5 840.65 403.75
Q 840.7 396.75 840.6 382.7
L 840.3 340.55 840.25 340.5 839.6 339.65 841.25 339.6 841.1 323.7 937.85 321.35 884.8 308.3 884.7 308.25 884.6 308.3 854.95 318.6 855 318.75 884.75 309.05 929.2 320.4 845.1 322.55 882.75 306.45
M 876.4 339.55
L 876.5 339.15 898.45 338.8 899.65 341.05 900.8 347.05 899.05 402.15 897.5 405.55 891.15 405.7 891.15 369.25 895.25 369.25 893.1 370.05 893.5 405.4 893.85 370.55 899.85 368.45 890.25 368.4 890.25 405.7 875.95 405.9 875.6 347.8 876.4 339.55
M 868.9 339.25
L 874.7 339.15 874.65 347.35 869.9 347.25 868.9 339.25
M 937.55 336.6
L 937.45 336.55 937.35 336.55 936.1 336.65 935.95 322.85 957.55 322.85 958.65 412.95 958.6 412.95 944.15 422.45 942.95 405 941.6 405 940.7 402.4 938.65 346.65 940.7 341.1 940.7 341 941.05 337.6 937.55 336.6
M 937.3 337.55
L 939.95 338.35 939.7 340.9 937.8 346.15 937.15 346.05 937.1 347.05 937.7 347.1 939.7 402.5 939.75 402.6 940.6 405 928.9 405
Q 929.25 403.75 930.75 402.8
L 931.15 402.6
Q 931.45 402.45 931.6 402
L 931.9 401.05 932.15 399.1
Q 932.55 395.35 932.6 391.55 932.85 385.25 932.85 376.45 932.85 361.35 932.55 346.25
L 932.55 346.2 932.5 346.15 930.55 338.85 930.5 338.75 930.45 338.7 929.8 337.95 937.3 337.55
M 900.25 340.9
L 900.2 340.85 899.1 338.75 906.45 338.6 905.25 345.75 905.25 345.7 904.1 346.9 904.15 347 905.35 345.8 905.4 345.8 906.3 341.35
Q 906.25 347.85 906.3 354.3
L 906.45 402.75 907.45 405.1 898.6 405 899.9 402.4 899.9 402.35 899.95 402.25 901.5 346.9 900.25 340.95 900.25 340.9
M 857.05 425.85
L 856.55 425.8 856.55 407.95 857.05 425.85
M 718.3 473.35
Q 718.7 479.6 719.7 492.1
L 722.3 528.2 687.4 523.2 634.75 568.3 652.5 571.8
Q 651.6 578 650.1 589.35
L 642.6 646.2
Q 636.55 648.6 629.95 651.15 612.6 657.85 591.25 665.5
L 581.5 668.9
Q 573.4 671.65 571.75 672.1 571.5 672.15 569.25 672.95
L 552.5 679.75
Q 550.6 680.55 548.75 681.3
L 547.9 491.3 548.5 377.75 713.25 381.15 718.3 473.35
M 958.05 322.45
L 977.4 322 981.4 408.75 959.35 412.75 958.05 322.45
M 571.95 14.8
L 572.25 16.2 596.65 17.3 600.9 27.8 572.95 27.8 573.45 33 573.95 33.25
Q 575 33.75 575.45 34.55 575.9 35.25 575.55 36.4 575.35 37.35 574.5 38.45
L 573.75 39.4 573.5 39.65 573.25 40.1 572.95 41
Q 572.8 42.15 573.2 43.95 573.65 45.6 574.05 46.55 574.65 48.2 576.15 51.4 578.25 55.7 581.1 60.7 583.75 65.3 586.5 69.7 592.25 78.95 597.9 87.35 604.2 96.7 609.8 104.6
L 609.9 104.75 610.05 104.9 616.85 109.35 612.1 108.95 613 154.15 621 159.3 608.6 157.5
Q 604.7 157 600.8 156.6 597 156.15 592.95 155.85
L 577.25 154.65
Q 568.15 154.2 563.05 153.75
L 567 148.5 566.9 109.35 566.85 109.05 566.7 108.8 564.4 105.55 609.25 109.9 609.35 134.95 572.25 131.35 572.15 117.8 579 112 585.2 119.45 584.85 131.55 585.15 131.55 592.7 132.35 593.05 132.35 593.2 119.05 599.1 115.05 604.1 119.6 603.95 131.6 604.25 131.65 604.5 119.4 604.4 119.35 599.15 114.45 592.8 118.7 592.7 118.75 592.45 131.7 585.55 130.95 586 119.15 585.9 119.05 579.1 110.7 571.35 117.15 571.2 117.3 571.15 132.3 610.75 136.5 610.85 108.45 565.15 103.75 568.05 100.55 568.05 100.25
Q 568.7 94.2 569.3 86.15
L 571.8 43.75 571.6 43.75 570.8 50.8
Q 570.35 54.45 570.05 57.8
L 568.7 71.9
Q 568.65 72.65 567.5 86.05 566.8 95.2 566.55 99.95
L 563.8 103.2 563 103.5 560.55 103.25 561.2 104.2 527.35 117.45 527 117.45 527.15 116.3 538.3 109.75 538.4 109.6 571.95 41.7 572 41.55 572.05 31.05 565.9 31 571.6 30.4 571.95 14.8
M 562 105.3
L 564.95 109.6 564.85 147.75 560.25 153.8 551.65 155.15
Q 546.95 155.85 546.75 155.9
L 532.15 158.95
Q 529.9 159.45 527.1 160.15
L 538.4 155.6 538.4 117.9 540.6 117.95 541.6 137.75 564 132.05 563.75 115.6 558.35 111.55 552.9 119.4 552.75 119.65 552.75 119.9
Q 552.8 123.7 552.9 131.2
L 551.8 131.7 551.3 119.95 551.2 119.9 546.9 116.65 546.75 116.8 550.7 120.2 550.7 120.1 550.85 120.3 550.7 120.2 550.6 133.5 543.3 135.45 541.8 116.65 531.2 116.85
Q 533.8 115.8 537.85 114.25
L 562 105.3
M 558.75 114.35
L 561.7 116.65 561.85 130.45 551 133.4 554.25 132.1 554.45 120.2 558.75 114.35
M 560.55 154.45
L 562.85 156.85 546 363.9 455.3 367.8 464.55 343.25 465.05 343.25 472.55 323.2 472.15 323.2 532.55 163.3 524.25 161.45
Q 528.3 160.95 532.4 160.25
L 542.2 158.55
Q 543 158.45 544.65 158.1
L 560.55 154.45
M 328.6 349.6
L 328.7 349.6 350.85 366.25 361.85 383.65 361.9 383.75 361.95 383.8 392.8 406.9 401.1 419.3 439.65 445.1 439.2 494.55 432.55 492.4 417.5 477.65 417.5 478.25 411.5 471.4 398 470.6 369.8 437.9 355.2 437.1 330.2 400.35 329.85 399.75 317.95 398.2 292.45 360.9 279.4 358.15 260.25 327.05 285.35 314.6 304.3 343.25 304.5 343.6 318 347.4 346.3 381.1 346.45 381.15 359.05 386.6 384 417.85 384.05 418 397.55 423.1 397.45 423 421.65 445.1 421.85 444.85 397.95 422.35 397.85 422.35 384.75 417.1 360.15 385.45 360.05 385.3 347.3 379.65 319.45 345.65 319.2 345.4 305.95 341.6 286.95 312.45 301.65 319.1 301.7 319.1 319 328.4 322.95 337.15 322.75 337.15 328.5 349.45 328.55 349.5 328.6 349.6
M 344.8 360.4
L 330.45 349.7 457.8 354.25 457.2 358.1 456.4 360.25 344.8 360.4
M 329.25 348.7
L 324.8 338.5 462.9 343.2 458.25 355.45 458.5 353.6 329.25 348.7
M 463.4 340.7
L 446.7 340.1
Q 435 339.7 429.15 339.6
L 324 337.2 319.8 327.9 319.7 327.75 319.6 327.65 303.95 319.2 469.3 325.35 463.4 340.7
M 432.1 378.3
L 454 371 543.15 367.25 534.4 375.5 432.1 378.3
M 539.5 377.55
L 546.35 377.7 546.65 568.05 546.1 682.3 527.75 690.25
Q 521.1 692.9 514.5 695.75 505.55 699.55 495.55 704
L 478.3 712.1 477.25 691.25 465.85 691 464 712.75
Q 438.6 702.8 432.75 700.5
L 433.5 700.55 436.45 639.4 436.35 639.2
Q 436.2 638.8 436 638.4
L 441.4 497.75 441.85 497.9 441.8 486.55 445.9 380.85 539.5 377.55
M 194.25 122.5
L 202.25 122.5 206.1 129.45 194.25 128.95 194.25 122.5
M 191.6 137.25
L 191.65 137.25 191.7 137.3 192.05 137.2 192.05 137.65 191.9 137.85
Q 191.75 137.75 191.65 137.6 191.55 137.45 191.5 137.4
L 191.55 137.3 191.55 137.35 191.6 137.25
M 197.55 136.85
Q 197.95 137.05 197.9 137.3 197.9 137.35 197.85 137.45 197.85 137.6 197.55 137.75 197.3 137.9 196.85 137.85
L 196.45 137.8 196.4 136.8 196.8 136.75
Q 197.3 136.65 197.55 136.85
M 193.6 139.25
L 194.15 139.4 276.2 260.9 276.6 261.1 291.55 267.35
Q 287.45 266.6 281.75 265.7 275.2 264.8 273.95 264.7
L 265.85 263.75 264.4 263.4 264.4 263.6 234.85 261.05
Q 229.65 260.75 227 260.65 221.8 260.45 219.15 260.45 212.2 260.25 203.45 260.25 201.95 260.25 200.45 260.25
L 183.15 259.6 183.15 260.35
Q 182.1 260.35 181.1 260.35
L 181.1 259.7 130.55 261.25 130.55 261.6 129.95 261.6 129.95 261.3 128.6 261.4
Q 119.9 262 112.85 263.25 112.65 263.3 112.45 263.35
L 109.3 263.65
Q 101.2 264.5 94.6 265.4
L 111.5 258.15 111.6 258.15 111.65 258.05 193.6 139.25
M 104.35 268.2
L 105.9 267.45
Q 108.4 266.5 113.25 265.6 119.2 264.55 127.4 263.95
L 127.1 272.5 132.9 272.9 133.15 263.8 178.3 262.6 178.25 271.75 185.5 272.1 185.95 262.6 231.15 264.4 230.95 273.1 234.75 273.65 235.65 264.9 261.65 266.55 261.25 276.15 266.8 276.15 267.35 267.3 284.15 270.75 285.1 310.7 255 308.35 254.8 308.35 221.55 328.1 237.65 328.3 235.1 328.6 236.85 420 229.3 420.35 220.4 419.6
Q 214.35 419 202.35 418.9 196.3 418.85 184.4 419.05 184.25 419.05 166.45 419.5
L 139.6 419.85 121.7 419.3
Q 117.15 419.05 112.85 418.55 108.05 418 104.2 416.95 102 416.3 100.4 415.35 99.6 414.85 99.25 414.15 99.15 414.05 99.05 413.55
L 102.15 322.85 101.7 270.25
Q 102.4 269.9 102.95 269.4
L 103.75 268.65 104.35 268.2
M 102.75 266.55
L 102.1 267 101.5 267.65
Q 100.3 268.65 98.5 268.8 95.9 269.05 92.35 267.95
L 94 267.65
Q 97.2 267.2 102.75 266.55
M 130.4 270.2
L 129.7 270.15 129.9 263.6 130.55 263.55 130.4 270.2
M 278.5 266.35
L 281.6 266.75
Q 284.6 267.2 287.2 267.6
L 284.9 267.65 278.5 266.35
M 183.1 261.9
L 182.8 269.15 181.1 269.05 181.1 261.95
Q 182.1 261.95 183.1 261.9
M 288.35 311.9
L 288.3 311.9 289.1 312.35 288.1 311.9 288.3 311.9 288.1 311.8 288.35 311.9
M 285.2 311.75
L 285.3 311.8 285.2 311.8 259 324.6 248.8 326.2 248.85 326.6 227.15 326.6 255.1 309.55 285.2 311.75
M 247.15 328.9
L 247.15 329 248.05 337.7 252.3 338.3 251.9 328.8 257.35 328.1 277.45 360.85 290.6 363.65 316.1 401.1 328.05 402.7 353.5 440.1 368.35 440.9 396.6 473.4 410.15 474.2 415.4 480.1 415 494.9 420.15 499.2 420.1 483.9 431.05 494.35 431.25 494.6 431.55 494.65 439.1 497.05 433.65 634.5
Q 432.5 632.9 430.75 631.15
L 428.9 629.5
Q 427.55 628.55 427.15 628.15 425.85 626.9 424.05 624.75 420.9 621.1 412.1 610.4
L 388.65 581.1
Q 363.7 549.55 342.45 522.05
L 319.9 492.15
Q 315.25 485.95 308.35 477.3 304.5 472.4 296.6 462.7 292.65 457.85 284.65 448.25 277.05 439.25 272.3 434.1
L 270.7 432.4
Q 269.3 431 269 430.75 267.35 429.15 265.25 427.85 261.45 425.5 256.65 424 248.6 421.45 239.5 421
L 237.1 330.35 247.15 328.9
M 856.6 339.75
L 868.1 339.8 869.1 348.05 874.6 348.25 875.05 405.9 867.7 406 868.4 403.55 868.45 403.5 868.95 376.35
Q 869.25 358.3 869.4 349.3
L 869.3 349.3 867.65 403.3 866.85 406.05 856.55 406.15 856.6 339.75
M 907.1 338.2
L 907.1 337.8 904 337.85 928.25 337 927.8 337.05 929.65 339.25 931.6 346.4
Q 931.95 363.9 931.95 376.45 931.95 386.5 931.75 391.55 931.65 395.95 931.35 399.05
L 930.85 401.7
Q 930.8 401.8 930.75 401.85
L 930.35 402.1
Q 928.35 403.25 928 405.25
L 912.9 405.45 912.55 368.75 907.9 368.85 912.4 368.9 912.05 405.05 908.1 405.15 907 402.6
Q 906.85 394.55 906.85 386.5
L 907.1 354.3
Q 907.2 346.25 907.1 338.2
M 351.6 365.45
L 351.5 365.4 345.2 360.7 456.15 360.85 453.5 367.9 453.3 367.95 440.6 372.2 408.6 381.1 413.85 381.15 411.05 382.05 443.7 381.2 441.25 443.75 402.2 418.1 393.95 406 393.85 405.9 393.8 405.8 362.75 383 351.65 365.55 351.6 365.45
M 974.45 202.75
L 976.35 204.6
Q 976.75 205.05 978.9 207.55 980.8 210.2 981.1 210.75 981.8 211.8 983 214.1 983.25 214.55 983.85 215.8
L 985.35 219.4
Q 985.45 219.7 985.95 221.25 986.2 221.95 987.05 224.95 987.4 226.2 987.85 228.75
L 988.45 232.9 990.1 233.2 990.2 235.75 990.4 235.85 993.95 238.1 993.75 238.3 987.5 236.5
Q 984.9 235.65 980.8 235.2
L 977.45 234.9
Q 976.35 234.8 974.05 234.7
L 967.3 234.6
Q 960.5 234.55 953.75 234.6 947 234.6 940.25 234.75
L 926.75 235.1
Q 920 235.35 913.25 235.7
L 906.5 236.15
Q 902.45 236.5 899.75 237.05
L 886.9 239.25 886.9 236.4
Q 889.45 235.85 892.25 235.4
L 915.15 232.4
Q 917.05 232.25 920.9 231.9
L 938.2 230.85
Q 942 230.65 943.95 230.6
L 955.5 230.3
Q 957.4 230.3 961.25 230.25
L 967.05 230.4
Q 970.35 230.6 972.8 230.95
L 975.65 231.4 972.8 230.85
Q 970 230.4 967.05 230.25 966.05 230.15 961.25 230.05
L 929.5 230.7 920.85 231.35
Q 918.9 231.45 915.1 231.85
L 903.6 233.1
Q 903.35 233.15 897.85 233.85 895 234.25 892.15 234.75
L 887.7 235.55 889.05 234.5 889.15 234.45 889.15 234.35
Q 889.4 231.15 890.45 226.9 891.3 223.45 892.75 219.65 895.65 212.25 900.2 206.55 905.05 200.45 911.55 196.65 917.95 192.9 925.65 191.35
L 925.9 191.3 925.9 184.75 930.45 182.95 930.5 182.75 930.7 169.7 929.65 169.3 929.55 167.7 934.1 164.8 934.25 164.75 934.25 164.6 934.6 162.8
Q 934.85 163.05 935.15 163.25 935.35 163.4 935.8 163.55
L 936.1 163.65 936.5 163.65
Q 936.95 163.6 937.3 163.4
L 938.4 165.3 938.55 165.45 942.85 167.4 942.9 169.35 940.8 169.95 940.55 170.05 940.45 181.6 942.65 181.6 943.5 184.6 947.9 185.7 948.85 189.9
Q 946.9 189.5 945.15 189.3 942.35 189.05 940.05 189.15 937.85 189.3 936.15 189.7
L 932.85 190.45 932.85 190.55 936.25 190.1
Q 940.25 189.55 945.05 190.25 948.05 190.65 950.85 191.35 952.95 191.85 954 192.2 956.3 192.85 957.2 193.2 959.4 193.9 960.5 194.4
L 963.75 195.85
Q 967 197.35 970.15 199.4 972.2 200.75 974.45 202.75
M 936.7 140.95
L 936.7 141.2 936.9 141.35 938.45 142.3 938.45 143.75 936.6 143 936.55 143.75 936.6 151.2
Q 936.7 155.8 936.85 158.3
L 936.5 158.2
Q 936.05 158.1 935.5 158.25
L 935.8 142.95 933.1 141.55 933 139.15 935.45 140.45 935.65 136.55 937.05 136.6 936.7 140.95
M 934.65 159.95
Q 935.05 159.5 935.45 159.35 936 159.2 936.4 159.2 936.6 159.2 936.8 159.3
L 937.2 159.4 937.6 159.6 937.9 159.85 938.25 160.35 938.4 160.8 938.4 161.1 938.3 161.55 937.9 162.1 937.2 162.5
Q 936.6 162.75 936.4 162.75
L 936.2 162.8 936.05 162.8 934.3 161.9
Q 934.1 161.5 934.2 160.95
L 934.4 160.4 934.65 159.95
M 904.05 267.55
L 904.4 267.55 904.4 272.35 909.15 272.35 909.15 272.45 904.05 272.45 904.05 267.55
M 977.35 235.8
L 980.7 236.05
Q 984.9 236.5 987.25 237.3
L 992.55 238.8 988.45 240.25 988.95 277.25 982.4 277.25 981.9 250.1
Q 981.8 247.9 982.7 246.45 983.35 245.55 984.2 245.55 985.05 245.4 985.5 246.5 986 247.8 986 250.3
L 986.4 267 986.3 250.3
Q 986.3 247.65 985.8 246.35 985.6 245.75 985.2 245.5 984.8 245.1 984.15 245.2 983.15 245.2 982.4 246.2 981.45 247.7 981.45 250.1
L 981.8 277.85 989.6 277.85 989.2 240.8 992.4 239.7 991.8 240.35 989.6 241 989.85 277.4 989.95 277.5 991.65 280 990.8 281.85 990.8 281.95 990.75 282 990.55 286.45 925.8 289.35
Q 922.2 289.55 920.4 289.55
L 904.5 289.95 904.45 273.15 909.85 273.15 909.85 271.65 905.05 271.65 905.05 266.9 903.4 266.9 903.4 271.85 898.25 271.85 898.25 273.1 903.6 273.1 903.6 290.8 880.75 290.8 880.8 296.75 867.05 296.8 867.1 302.5 834.1 304.05 863 298.9 863.05 298.9 879.45 289.95 879.55 289.85 882.8 275.4 886.7 275.4 886.75 243.45 885.15 243.1 883.65 240.85 886.15 240.05 886.15 240.1 899.9 237.8
Q 902.05 237.4 906.55 237
L 913.3 236.55
Q 919.3 236.2 926.8 236.05 933.45 235.85 940.25 235.75 955.25 235.5 967.25 235.5
L 974 235.6
Q 975.15 235.6 977.35 235.8
M 896.55 251.75
Q 896.55 250.15 896.4 249.6 896.2 249.15 895.95 249 895.6 248.8 895.5 248.9
L 895.2 248.9
Q 894.55 248.9 894.05 249.25 893.1 249.9 892.9 251.3 892.75 252 892.65 253.4
L 892.55 259.65
Q 892.55 262.45 892.75 267.95 892.9 272.1 893.2 276.2
L 893.2 276.4 893.4 276.4 895.75 276.25 895.75 276.15 893.55 276.05 893.6 253.45
Q 893.75 251.55 893.75 251.45 893.9 250.35 894.5 249.95 894.8 249.75 895.3 249.65
L 895.55 249.65
Q 895.55 249.4 895.7 249.85 896 250.7 896 251.8 896.1 252.8 896 253.85 896.1 257.8 896.05 259.75
L 895.85 265.7
Q 895.7 268.35 895.8 271.65 895.8 275.35 895.9 277.3
L 890.7 278.1 890.7 278.2 896.25 277.9 896.5 277.85 896.55 277.55 896.65 271.65
Q 896.7 269.7 896.6 265.7
L 896.4 253.85
Q 896.55 252.8 896.55 251.75
M 938.1 246.35
Q 939.75 245.65 942.25 245.9 944.6 246.15 945.9 247.65 947.2 249.05 947.35 251.45
L 947.45 260.35
Q 947.6 269.2 947.6 278
L 929.7 277.85 912.05 277.2 911.45 257.35
Q 911.35 255.95 911.4 255.35
L 911.6 253.4
Q 912.05 251.15 912.85 249.75 913.85 247.9 915.55 247.55
L 916.45 247.45 916.9 247.5 917.3 247.6
Q 918.15 247.8 918.8 248.45 919.9 249.65 920.35 251.8 920.8 253.65 920.7 255.75
L 920.85 275.6 914 275.65 912.7 255.1 912.6 255.1 913.35 276.3 921.6 276.35 921.75 255.75
Q 921.75 253.4 921.35 251.6 920.8 249.05 919.55 247.75 918.75 246.85 917.6 246.55
L 916.5 246.4
Q 915.9 246.4 915.35 246.55 913.15 247 911.9 249.2 911.05 250.8 910.6 253.2 910.4 254.6 910.4 255.3 910.35 256.05 910.45 257.35
L 911.3 277.95 947.9 278.3 948.15 251.4
Q 948.05 248.85 946.55 247.05 945.05 245.35 942.35 245 939.55 244.7 937.75 245.5 935.45 246.5 934.75 249.1 934.25 250.6 934.25 253.65
L 935.3 276.1 946.05 276 946.05 275.9 935.75 275.65 935.1 253.65
Q 935 251.15 935.55 249.35 936.2 247.2 938.1 246.35
M 972.15 251.7
L 972.1 258.1
Q 972.05 266.4 972.1 274.7
L 970.7 274.7 970.25 251.45
Q 970.25 250.8 970.15 250.5 969.9 249.6 969.2 248.85 968.6 248.2 967.65 247.75 966.95 247.45 965.85 247.25
L 965.85 247.35
Q 967.05 247.65 967.55 247.95 968.4 248.35 968.95 249.05 969.5 249.65 969.75 250.6
L 969.8 251.45 969.65 274.05 963 274.65 963.05 275.7 973.05 275.65 973.05 275.15
Q 972.85 263.75 972.65 258.1
L 972.5 251.7
Q 972.45 250.6 972.05 249.55 971.3 247.25 969.5 246.1 967.7 245 965.3 245.25 964.2 245.3 963.25 246.05 962.4 246.65 961.8 247.7 961.3 248.65 961.05 249.75
L 960.7 277.9 961.05 277.9
Q 967.55 277.85 973.9 277.6
L 973.9 277.5
Q 973.8 277.5 961.4 277.2
L 961.55 249.85
Q 961.75 248.7 962.2 247.9 963.2 245.85 965.35 245.55 967.7 245.4 969.35 246.4 970.95 247.4 971.75 249.65 972.15 250.95 972.15 251.7
M 208.65 336.4
Q 209.1 336.35 209.5 336.4
L 210.35 336.75
Q 210.95 337.05 211.5 337.75 211.2 339.05 211.15 339.7 211.05 340.4 211.15 341.75 211.25 343.15 211.4 343.85 211.55 345 211.9 345.95
L 212.1 345.95
Q 212.45 345 212.6 343.85 212.75 343.15 212.85 341.75 212.95 340.4 212.85 339.7 212.8 339 212.5 337.6
L 212.45 337.3 212.35 337.25 210.6 336.2 209.7 335.8
Q 209.35 335.65 208.65 335.55
L 208.05 335.55 207.45 335.7
Q 206.85 335.95 206.45 336.35
L 205.65 337.25 205.2 338.1 204.8 339.15 204.6 340.2
Q 204.4 341.45 204.55 342.3 204.6 343.05 205 344.35
L 206.1 346.65 206.45 346.6
Q 207.95 346.35 208.8 346.05
L 208.8 345.85
Q 208.1 345.65 207 345.45
L 206.8 343.9
Q 206.8 343.85 206.65 342.15
L 206.65 340.45 206.9 338.85 207.2 337.95 207.55 337.3
Q 207.7 336.95 208 336.75
L 208.3 336.55 208.65 336.4
M 125.7 301.8
Q 126.05 301.95 126.25 302.25 126.5 302.6 126.9 303.5 126.85 304.8 126.9 306.05 127 307.45 127.25 308.65
L 127.35 308.65
Q 127.6 307.45 127.7 306.05 127.8 304.3 127.7 303.4
L 127.7 303.25 127.65 303.2
Q 127.1 302.4 126.6 301.95 126.1 301.55 125.8 301.5 125.3 301.35 124.95 301.85 124.75 302.1 124.55 302.6
L 123.9 304.95 123.65 308.2 124.1 311.45 124.2 311.8 124.5 311.75
Q 126.1 311.65 127.3 311.4
L 127.3 311.3 124.9 311 124.75 303.45 125 302.35 125.2 302.05
Q 125.45 301.75 125.7 301.8
M 476.95 453.6
L 476.45 452.8 475.75 452.2
Q 475.25 451.9 474.9 451.85 474.75 451.75 474.05 451.65
L 473.25 451.65
Q 472.65 451.65 472.35 451.75 472 451.8 471.5 452.1 471.1 452.4 470.85 452.85 470.55 453.5 470.65 454.55
L 470.9 456.1 471 456.1 471.1 454.55
Q 471.2 453.5 471.45 453.15 471.8 452.8 471.9 452.75
L 472.5 452.6 473.2 452.55 473.95 452.65
Q 474.15 452.7 474.6 452.8
L 475.15 453.1 475.65 453.5 476 454.05 476.25 454.7 476.4 455.4
Q 476.5 456.1 476.4 456.8
L 476.4 456.9
Q 476.4 458.55 476.55 460.2 476.6 461.3 476.7 463.45
L 476.55 466.75
Q 476.4 468.35 476.4 469.4 473.05 468.1 470.95 467.6
L 470.9 467.7
Q 472.75 468.75 476.65 470.45
L 477.3 470.7 477.3 470
Q 477.3 468.4 477.15 466.75 477 465.1 477 463.45 477 461.85 477.15 460.2
L 477.3 457
Q 477.4 456.4 477.4 455.3 477.3 454.25 476.95 453.6
M 511.6 508.45
Q 512.1 508.8 512.45 509.2 513.15 510.05 513.6 511.05
L 513.4 514.6
Q 513.35 516.4 513.4 518.25
L 513.75 525.5 513.85 525.5
Q 514.05 523.75 514.15 521.85
L 514.05 510.85
Q 513.5 509.85 512.65 508.95
L 512.25 508.55 511.75 508.2 511.2 507.95 510.9 507.85 510.6 507.8
Q 510.2 507.8 510 507.9 509.8 507.9 509.4 508.1
L 508.45 508.85 507.15 510.8 507.1 510.85 507.1 510.95
Q 506.95 514.65 506.95 518.25 506.95 519.5 507.05 525.5
L 507.1 526.2 512.25 522.7 512.2 522.6 507.9 524.85
Q 508 521.55 508 518.25
L 507.8 511.1 508.25 510.1 508.85 509.2 509.2 508.8 509.65 508.45
Q 509.85 508.25 510.1 508.25 510.25 508.15 510.6 508.15
L 510.85 508.15 511.6 508.45
M 522.65 385.75
Q 522.3 385.55 521.7 385.35
L 520.7 385.15
Q 519.9 385.15 519.7 385.2 519.35 385.25 518.65 385.55 518.15 385.9 517.8 386.3
L 517.5 386.7 517.3 387.2
Q 516.95 388 516.85 389.2 516.75 390.25 516.9 391.2
L 517.05 404 517.3 404.05
Q 521.95 404.65 522.15 404.65
L 522.2 404.55 517.65 403.45 517.85 397.4
Q 517.95 393.2 517.9 391.1
L 517.9 391
Q 517.8 390.45 517.8 389.25 517.9 388.2 518.15 387.55
L 518.3 387.15 518.5 386.85
Q 518.6 386.65 519.1 386.3 519.4 386.1 519.8 386 520.05 385.9 520.7 385.9
L 521.55 386
Q 522 386.1 522.35 386.3 522.5 386.35 523.05 386.8
L 523.55 387.5
Q 524.25 388.9 524 391.05
L 524 391.1
Q 524.05 392.65 523.8 398.25
L 523.75 405 520 405.1
Q 518.6 405.15 515.8 405.35
L 515.8 405.45
Q 518.6 405.65 520 405.7
L 524.55 405.8 524.5 398.25
Q 524.3 393.45 524.3 391.1 524.5 390.35 524.4 389.2 524.3 388 523.95 387.3 523.65 386.7 523.4 386.45 523.05 386 522.65 385.75
M 494.95 389.65
Q 494.5 388.45 493.95 387.85 493.3 387.1 492.25 386.8 491.45 386.6 490.25 386.7 489 386.9 488.35 387.3 487.45 387.85 486.95 388.8 486.6 389.6 486.4 390.75 486.3 391.45 486.3 394.7
L 486.3 398.6
Q 486.35 399.9 486.25 402.5 486.25 402.6 486.1 406.35
L 486.05 407 488.8 406.65 494.95 407.05 495.3 407.1 495.3 393.65
Q 495.35 392.65 495.3 391.6 495.2 390.5 494.95 389.65
M 493.7 388.1
Q 494.25 388.8 494.5 389.75 494.95 391.5 494.6 393.55
L 494.55 406.35 490.9 406.3 493.85 405.85 493.85 405.4
Q 493.55 396.35 493.2 391.85
L 493.65 390.3 493.55 390.3 492.95 391.75 492.95 391.8
Q 492.85 396.25 492.85 405
L 487.2 405.8 487.2 398.6
Q 487.15 396 487.05 394.65 486.85 392.1 486.95 390.8 487.05 389.65 487.35 389 487.75 388.15 488.5 387.6 489.4 387.1 490.3 387.05 491.3 386.9 492.15 387.1 493.15 387.45 493.7 388.1
M 458.3 387
Q 458.9 386.95 459.5 387.15 460.55 387.5 461 388.95 461.4 390.1 461.3 391.4
L 461.2 406.4
Q 455.25 406.65 455.15 406.65
L 455.15 406.75
Q 458.4 407 461.55 407.05
L 461.85 407.05 461.85 406.7
Q 461.9 403.3 461.95 401.6 462.05 399.05 461.95 396.5
L 461.75 391.4
Q 461.75 390.1 461.3 388.8 460.75 387.3 459.6 386.85 458.85 386.6 458.25 386.65 457.8 386.75 457.3 387.65 456.95 388.45 456.65 390.15 456.25 392.3 456.1 395.3
L 455.4 406.05 460.95 406 460.8 405.4
Q 460.15 402.05 459.8 399.2 459.55 397.45 459.55 396.05
L 459.6 394.5
Q 459.7 393.45 460 393
L 459.9 392.95
Q 459.45 393.5 459.3 394.45
L 459.1 396.05
Q 459.05 397.15 459.15 399.25 459.25 401.3 459.8 405
L 456.55 404.95 456.7 395.3
Q 456.8 391.9 457.05 390.25 457.25 388.75 457.6 387.8 458.05 387.05 458.3 387
M 595 461.1
Q 594.65 462.15 594.5 463.3 594.35 464.55 594.4 465.55 594.4 468.5 594.3 470
L 594.1 474.8 594.55 474.85 596.95 474.85 596.9 474.4
Q 596.9 471.35 596.8 469.85 596.75 467.6 596.5 465.25
L 596.4 465.25
Q 596.25 466.85 596.15 469.85 596.15 469.95 596.05 473.95
L 595 473.95 594.7 465.55
Q 594.7 463.3 595.6 461.35 596.25 460.25 596.9 459.95 597.35 459.8 597.8 459.8
L 598.85 459.9
Q 599.8 460.05 600.25 460.85 600.6 461.65 600.7 462.8 600.75 463.15 600.75 464.95
L 601.4 476 601.5 476 601.7 471.55
Q 601.8 470.1 601.8 467.15
L 601.8 464.95
Q 601.9 463.75 601.75 462.7 601.65 461.3 601.1 460.35 600.75 459.75 600.2 459.4 599.6 459.05 599 458.95 598.35 458.9 597.8 458.95 597.15 458.95 596.55 459.25 595.6 459.75 595 461.1
M 576.4 386.9
Q 575.6 387.2 574.55 387.95 573.6 388.6 572.95 389.3 572.3 389.95 571.55 390.95
L 571.5 391 571.4 406.5 578.85 406.45 578.6 394.65
Q 578.7 394.2 578.6 393.35 578.4 392.55 578.2 392.2 577.7 391.5 577.4 391.2
L 576.4 390.5 576.35 390.6
Q 577.05 391.1 577.25 391.35 577.6 391.7 577.9 392.3 578.2 392.85 578.2 393.4 578.25 393.85 578.15 394.55
L 577.85 405.5 572.4 405.45 572.3 391.2
Q 572.75 390.55 573.45 389.75 573.95 389.1 574.85 388.4 576.6 386.95 578.45 386.9
L 579.45 387
Q 580 387.1 580.4 387.3
L 581.3 387.75 582.1 388.3
Q 582.6 388.75 583.5 389.8 584.2 390.65 584.65 391.45
L 584.05 408.4 571.9 408.75 571.9 408.85 584.85 409.2 584.9 408.8 585 391.25 583.75 389.55 583.05 388.8
Q 582.45 388.2 582.3 388.1
L 581.45 387.45 580.55 386.95 579.55 386.65 578.45 386.5
Q 577.45 386.5 576.4 386.9
M 656.3 389.15
Q 653.6 390.3 652.25 393.2 651.1 395.5 651.1 398.75
L 651 404.2
Q 650.85 409.7 650.85 415.15
L 650.75 427.15 661.5 427.1 661.05 405.05
Q 660.9 400.4 660.75 398.05
L 660.75 398
Q 660.4 396.7 659.8 395.9 659.45 395.4 658.9 395.1 658.35 394.85 657.75 394.95
L 657.8 395.15
Q 658.45 395.15 658.75 395.4 659.1 395.65 659.45 396.15 660 397.1 660.15 398.1
L 659.65 412.05
Q 659.45 420.45 659.45 425.05
L 652.9 425 652.55 398.75
Q 652.4 395.75 653.3 393.65 654.35 391.05 656.65 389.95 658.75 388.95 661.8 389.1 664.75 389.2 666.6 390.9 668.35 392.55 669.05 395.5 669.3 396.9 669.3 398.15 669.35 399 669.2 400.85
L 668.85 406.3
Q 668.45 411.85 668.25 417.2 668.1 420.65 668 427.4 667.2 427.4 666.7 427.45
L 656.05 427.85
Q 653.25 427.95 651.8 428.1
L 651.8 428.3 666.7 428.9
Q 667.4 428.95 668.8 429
L 669.6 429.15 670.05 417.3
Q 670.1 415.5 670.1 406.35
L 670.1 398.1
Q 670.05 396.85 669.7 395.35 668.9 392.15 667 390.45 665.95 389.5 664.6 388.95 663.25 388.5 661.85 388.4 658.65 388.15 656.3 389.15
M 1041.1 342.65
L 1040.55 342.65 1040.95 354.1 1041.1 354.1
Q 1042.8 354.05 1044.5 354.1
L 1048.25 354.3 1048.25 353.9
Q 1048.35 352.1 1048.25 348.55
L 1047.9 343.2 1047.8 343.2 1047.45 348.55
Q 1047.45 352.35 1047.5 353.6
L 1041.3 353.75
Q 1041.45 350.3 1041.5 348.55
L 1041.65 343.7
Q 1044.55 343.7 1046.3 343.65
L 1046.3 344.45
Q 1044.1 344.5 1041.9 344.7
L 1041.9 344.8
Q 1042.7 344.9 1046.7 345.15
L 1047.05 345.15 1047.15 342.75 1046.7 342.75
Q 1044.85 342.65 1041.1 342.65 Z"/>
</g>
</defs>

<g transform="matrix( 1, 0, 0, 1, 0,0) ">
<use xlink:href="#Layer0_0_FILL"/>
</g>
</svg>
