
<svg xmlns="http://www.w3.org/2000/svg" version="1.1" xmlns:xlink="http://www.w3.org/1999/xlink" preserveAspectRatio="none" x="0px" y="0px" width="923px" height="483px" viewBox="0 0 923 483">
<defs>
<g id="Layer1_0_FILL">
<path fill="#FFFFFF" stroke="none" d="
M 798.75 194.2
L 798.25 194.35
Q 795.8 194.95 795 195 793.3 195.15 791.7 194.7
L 791 194.5 790 198.45
Q 789.8 199.35 789.95 201.35 790 202.7 790.45 204.15
L 790.8 205.5 791.5 206.95 791.65 206.95
Q 790.85 207.05 790.45 207.5 789.9 208 789.9 208.75 789.9 209.55 790.45 210.1
L 790.8 210.4 770.25 252.1 756 262.4 762.25 262.25
Q 762.9287109375 262.2416015625 763.6 262.2
L 763.55 262.3 763.55 292.8 741 292.75 718.45 296.9 578.25 293.3 577.4 229.25 576.75 207.05 585.15 207.1 576.45 203.1 576.2 195.7 572.05 195.85 571.7 195.9 571.25 195.9 570.25 148.9 572.75 148.75 572.7 146.35 572.25 146.35 572.2 144.6 577.25 144.45 557.3 136.95 552.2 141
Q 549.35 140.8 541.3 140.45 541.16328125 140.44453125 541 140.45
L 541 138.85 541.7 138.85
Q 542.35 138.85 543.15 138.45
L 544.25 137.65
Q 544.9 136.75 545.05 135.5
L 545.05 133.15 545.15 132.85 545.05 130.1
Q 544.95 128.75 544.25 127.95 543.6 127.15 543.2 126.95 542.35 126.45 541.7 126.45
L 541.5 126.35 542.95 126.6 543.8 127 544.65 127.7
Q 545.1 127.9 545.4 128.4
L 546 129.35 547 131.4 547.3 132.25 553.45 131.85 553.15 133.25 563.3 133.7 563 131.4 562.75 130.35 561.65 128.35 560.8 127.45
Q 560.55 127.2 559.8 126.75
L 558.75 126.25 557.5 126 550.4 125.75 545.15 120.1 545.25 110.2 547.75 105.85 541.65 105.7 535.5 103 535.5 102.95 534.95 102.75 534.5 102.35 533.95 101.35
Q 533.75 100.6 533.75 100
L 533.7 99.35 533.75 98.7 533.75 77.2 531.7 43.25
Q 532.1 43.15 532.4 42.7
L 532.65 42 532.7 41.35 532.4 40.25 532.4 40 532.7 38.75
Q 532.75 38 532.45 37.45
L 531.8 36.8 531.75 36.8
Q 532.05 36.2 532.2 35.5
L 532.45 34.25 532.5 34.25 534.5 30.65 534.4 30.65
Q 533.7 30.05 532.4 29.5
L 532.25 28.65 531.55 26.4 529.75 26.3 528.75 29.5 528.55 29.9 528.7 30.05 528.3 31.75 529 32.25 528.95 32.5 528.9 34 529.15 35.5 529.5 36.6 529.2 36.75
Q 528.35 37.35 527.95 38.25 527.75 38.65 527.75 39.25
L 528 40 528 40.1 528.05 40.1 528.05 40.2 528.15 40.25 528.25 40.45 528.9 41.25 529.55 42.35 526 99.85 525.75 100.6 525.45 101.1
Q 525.25 101.45 525 101.6
L 524.8 101.7 524.75 101.85 524.5 101.95 511.85 108.35 515 108.25 516.15 110.35 516.25 112.2 515.8 113.45 515.75 114.1 515.8 114.6 515.75 114.45
Q 515.75 115.45 516.3 117.1 516.5 117.7 517 119.5
L 515.8 120.45 510.95 122.95 509.75 123.75
Q 507.65 123.75 505.7 124.2 505.45 124.2 503.35 124.7
L 501.45 125.5 501.35 125.5 501.35 125.6 501.25 125.6 500.5 125.7
Q 499.8 126.05 499.35 126.5
L 498.95 127.1 498.7 127.6
Q 498.35 128.5 498.35 128.65 498.15 129.25 498 130.75 497.95 131.65 498.1 132.65
L 496.5 133.45 496.6 133.85 498.85 133.15 498.85 133 499.1 134.25 499.15 134.35 498.2 134.9 497.75 134.9 497.45 142.5 487.25 145 487.7 147.15 476.6 148.15 490.5 150.95 490.1 200.45 464.35 209.2 482 208.15 482.85 259.4 456.35 283.4 447.5 282
Q 447.95 281 448.25 279.5
L 448.6 276.65
Q 448.7 274.8 448.6 273.8 448.55 272.85 448.1 271 447.4 268.95 447.25 268.25 447 266.6 447.1 265.4 447.1 264.2 447.35 262.55
L 447.6 260.55 453.75 260.75 444.85 254.2 431.2 228.75 431 228.5 436.6 228.75 432.5 224.75
Q 431.25 223.55 429.75 222.6
L 429.35 220.6 428.25 217.45 420.35 217.85
Q 421.76875 217.75625 424 217.45
L 428.25 217.15
Q 430.55 217 432.35 217.35
L 436.2 217.85 430.2 214.75
Q 429.65 212.8 429.2 211.75
L 427.75 208.5 424.2 202.4 424 202.15 423.85 202.4
Q 422.8 203.95 422 205.4
L 417.6 214.25 406.75 218.65 415.7 218.15
Q 418.15 218.05 419.1 217.95
L 418.6 219.35
Q 418.35 220.05 418.2 221.15 417.85 222.65 417.85 223.75 416.8 224.7 416.25 225.35
L 413.35 228.7 418.75 227.15
Q 419.75 226.95 420.5 226.95 421.85 226.95 424 227.45
L 425.1 227.7 424.5 227.65
Q 420.55 227.35 418.6 227.35
L 418.5 227.35 418.45 227.4
Q 416.95 229.5 414.1 234.4 412.1 237.5 410 241.4
L 402.6 255.25 394.1 259.15 394.2 258.9
Q 394.45 257.25 394.6 254.9 394.75 252.7 394.35 250.9
L 393.5 246.9
Q 393.35 244.7 393.6 242.9
L 394.35 238.9
Q 394.6 237.75 394.6 236.9
L 395 230.95 398.1 231 389.35 221.7 386.85 221.7 384.35 220.7 384.35 218.4 383 218.4 382.75 197.1
Q 382.5 183.5 382.1 174.4
L 387.1 174.45 382.35 169.4 382.45 154.1 385.45 152.25 385.5 146.4 382.75 146.4 382.75 145.9 365.85 143.9 367.2 143.45
Q 367.35 143.45 367.5 143.25
L 367.75 143.15 368.1 142.65 368.1 142.35 368.5 137.15
Q 368.75 134.3 368.75 131.9 368.95 127.9 368.85 121.6
L 367.75 102.5 368.1 102.7 368.5 103 369.25 102.1 369.6 102.2 371.45 99.85
Q 371.85 99.25 372.25 98.35 373.05 96.95 373.35 94.95 373.75 93.45 373.5 91.35 373.5 91.1 373.2 89.5
L 372.6 87.85
Q 371.8 85.9 370.85 84.85 370.55 84.2 369.85 83.45
L 368.7 82.2 359.6 74.2 357.85 72.1 357.75 71.95 357.75 71.85 357.5 71.6 352.45 59.25 352.75 58.85
Q 352.85 58.65 352.85 58.25
L 352.85 57.75 352.5 56.75 352.5 56.5 352.75 55.95 352.85 55.5
Q 353 54.8 352.75 54.25
L 352.5 54
Q 352.75 53.75 352.85 53.3 353.1 52.85 353 52.5 352.9 52.25 352.25 51.5 351.75 51 351.75 50.5
L 352.25 50.3 353.35 49.7 353.6 49.3 353.6 49.1 353.75 48.1 353.7 47.5 353.35 46.8
Q 353.25 46.2 353 45.7
L 352.5 44.95 351.6 44 351.35 43.95 351 43.95 350.35 44.35 349.85 44.95 349.45 45.6 348.85 46 348.5 46.5 348.35 47.2
Q 348.2 47.85 348.45 48.25 348.6 48.5 348.75 48.5 348.85 48.6 349.35 48.25
L 349.45 48.5
Q 349.45 48.65 350.1 49.5 350.6 50.15 350.6 50.5 350.6 51.05 350.1 51.5 349.45 52.3 349.45 52.5 349.35 52.75 349.5 53.3 349.6 53.65 349.7 53.75 349.05 54.35 348.75 55 348.6 55.4 348.7 55.95
L 342.1 58.5 341.1 57.1 340.5 56.6 340.1 56.6 339.95 56.75 339.5 57.1 338.5 58.5
Q 337.95 59.5 338.25 60.35
L 338.5 61.3
Q 338.4 61.45 338.5 61.55 338.6 61.85 338.7 61.85
L 338.75 61.8 339.2 62.55
Q 339.7 63.3 339.7 63.7 339.7 64.15 339.25 64.75
L 338.5 65.75 338.6 66.7 338.7 66.95 338.35 67.2
Q 337.95 65.35 337.85 65.2 337.5 63.5 336.1 60.95 334.8 58.7 333.5 57.25
L 324.5 47.35
Q 321.7 44.2 321.6 44.05
L 318.7 40.25 318.75 40.25 317.85 38.85
Q 317.1 37.45 317 37.05 316.25 35.05 315.7 33.1 314.75 29.4 314.7 28.9 314.15 26.8 313.95 24.65 313.55 22.2 313.45 20.4
L 313.25 18.65 312.95 18.65
Q 312.9 18.45 312.95 18.4
L 312.95 18 313.1 16.4 313 15.6 312.6 14.75
Q 312.05 14.2 311.75 14.1
L 312 13.25
Q 312.15 12.6 312 12.15 312 11.9 311.35 10.75 310.85 9.95 310.85 9.4 310.85 8.85 311.25 8.15
L 311.35 8.15 311.85 7.95 312.95 7.2 313.1 6.85 313.1 5.6
Q 313.1 5.35 312.95 4.95 312.75 4.55 312.45 4.25 312.35 3.35 312.1 2.5
L 311.1 0.65 311.1 0 309.5 0 309.5 0.65 308.5 2.5 308.25 3.25 307.35 3.95 307.2 4.45 307.2 4.95
Q 307.2 5.75 307.45 6 307.6 6.35 307.85 6.35
L 308.45 6.1 308.5 6.45 309.2 7.85
Q 309.7 8.85 309.7 9.4 309.7 10 309.25 10.75 308.7 11.6 308.5 12.15 308.5 12.7 308.6 13.25
L 308.75 13.9 308.45 14.1
Q 307.35 14.7 306.75 15.9 306.5 16.55 306.5 17.15 306.5 17.8 306.75 18.25
L 307.25 19.15 305.85 26.5
Q 305.25 29.3 304.45 32.5 304 34.05 303.5 35.35
L 302.45 38.05 299.1 43 290.5 52.2
Q 288.45 54.55 288.45 54.7 287.25 56.3 286.6 57.5
L 284.1 63.45 282.9 63.85 280.6 57.55
Q 280.85 57.45 280.95 57.3
L 281.1 56.7 281.1 56.1 280.75 55.1 280.75 54.95 280.85 54.6 281 54.35 281.1 53.95
Q 281.25 53.35 281 52.75
L 280.85 52.5 281.1 52
Q 281.2 51.5 281.2 51
L 280.5 49.95
Q 280 49.3 280 48.8
L 280 48.7 280.1 48.7 281.25 48.35 281.85 48.05 282.1 47.75 282.25 47.1 282.35 45.85
Q 282.15 45.15 281.7 45
L 281.5 45
Q 281.65 44.25 281.2 43.3
L 280.75 42.5 280.25 41.85 279.75 41.5 279.6 41.35 279.25 41.35 279 41.5 278.1 42.5 277.6 43.3 277.5 43.5 277.25 43.6 276.85 44.05 276.6 44.75
Q 276.55 45.5 276.7 45.85 276.85 46.2 277 46.25
L 277.5 46.1 277.6 46.5
Q 277.9 47.1 278.35 47.6 278.8 48.5 278.85 48.8 278.85 49.2 278.35 49.95
L 277.6 51 273 53.2 272.5 52.45 271.45 51.35 271 51.35 269.95 52.45 269.45 53.2
Q 269.2 53.7 269.1 54.2
L 269.1 54.25 269 54.75
Q 268.75 55.35 269 55.75 269.05 56.05 269.25 56.05 269.3 56.1 269.5 56
L 269.5 56.05
Q 269.5 56.25 270.1 57.1 270.6 57.65 270.6 58.25 270.7 58.7 270.2 59.25 269.55 60 269.5 60.25 269.45 60.45 269.5 61.05
L 269.6 61.3
Q 269.05 61.85 268.85 62.45 268.7 62.9 268.75 63.3 268.75 63.65 268.85 63.75
L 269 63.95 269 64.1 269.75 64.95 270 65.35 269.6 66.2 268.75 67.35 267.6 69.85 267.35 71.75 267.35 72.45 267.6 73.85
Q 267.7 74.5 267.95 75
L 266.45 76.2
Q 265.05 77.05 263.85 77.95 262.1 79.35 261.35 80.1 259.85 81.75 259.2 82.95
L 258.6 84.2 258.2 85.95 255.8 87.6
Q 255.05 88.05 254.75 88.6 253.9 89.55 253.85 89.7 253.45 90.3 253.25 91.1
L 252.65 93.25
Q 252.65 93.85 252.55 94.1
L 252 96.95
Q 251.45 98.85 251.35 99.95
L 251.35 101.45 251.65 103.1
Q 252.2 104.5 252.25 104.6
L 253.1 106.1 252.75 106.35 250.9 106.85 254.9 108.45 255.25 108.35 255.3 108.6 255.05 108.6 255.1 108.95
Q 255.1 109.75 255.35 110.5
L 255.9 112.1
Q 256.3 113 256.35 113.7
L 256.25 115.25
Q 256.1 116.35 255.5 118.45
L 255.15 120 255.05 121.6
Q 254.85 123.5 255.05 124.85 255.2 126.15 255.65 127.95 256.05 129.35 256.7 130.65
L 234.15 136.4 200.4 146.15 209.6 146.1 207.75 150.75
Q 206.75 153.2 205.55 154.95
L 205.35 155.2 206.05 156.9 206.1 157 207.15 158.5
Q 206.75 160.65 206.75 161.95 206.7 163.35 206.85 165.65 206.9 167.35 207.35 169.25
L 207.75 171.1
Q 208 172.2 208.35 172.9
L 208.55 172.9 205.25 176.75 208.1 179.35 208.5 178.9 209.85 180.1 208.6 207.15 209.15 243.25
Q 209.3 247.65 209.6 252.15
L 174.1 264.65 174.05 266.9 173.6 267.05 169 267.15 171.25 268.05 161.25 272.75
Q 160 273.35 155.4 275.9
L 149.65 279.25
Q 147.25 280.6 143.75 282.25
L 126.8 289.15 125.15 289.25 124.15 290.15 121.95 291.05 124.1 276.1 125.15 276.15 124.3 274.75
Q 121.8 270 117.65 262.4
L 110.3 250.5
Q 109.45 249 106.55 244.7
L 102.65 238.9
Q 97.35 231.5 95.4 228.95
L 95.8 228.15 96.15 222.2
Q 97.85 222.55 101 222.9
L 102.65 223.15 100.65 218.75 108.65 217.65 103.3 214.95
Q 97.9 212.35 95.05 211.15
L 92.05 209.9 92.05 213.15
Q 92.05 216.05 92.25 220.4
L 92.55 227.6 91.75 230.95 72.3 262.25 69.05 268.25
Q 68.3 269.45 65.8 274.15
L 64.05 277.25 68.3 277.25 67.75 303.4 67.55 303.4 67.55 303 55.75 301.65 55.5 301.65 45.9 306.05 37.3 306.05 28.6 314.3
Q 26.1 316.8 24.75 318.3
L 19.2 324.15 21.45 324
Q 25.3 323.75 26.45 323.75
L 26.6 323.75 30.2 321.3 30.35 321.5 28.6 340.9 28.6 340.65
Q 24.2 355 20.85 366.65 19.05 372.6 17.1 379.65
L 0 445.8 32.25 472.25 32.7 470.4 68.8 463.3 68.9 461.25 144.05 461.25 151.35 457.15
Q 157.5306640625 461.93984375 165 465
L 170.6 466.9 177.75 468.65 177.85 468.65 188 469.8
Q 193.55 470.5 211 472.4 218.5 473.2 234.05 474.65
L 257.1 476.65
Q 261.25 476.95 280.25 478.5
L 280.25 483 279.15 483.05 395.95 483.05 395.95 483
Q 423.8 482.85 442.25 482.3
L 488.5 480.9
Q 508.6 480.1 534.8 478.8
L 581.05 476.25
Q 602.8 474.85 627.25 472.75
L 661.9 468.5 673.3 466.65
Q 693.5 463.65 719.15 460.25
L 753.5 455.3 773.5 451.5
Q 776.2 450.85 776.4 450.75 782.65 449 787.5 446.9 794.05 444.05 797.65 440.75 800.3 438.25 801.2 435.65 801.65 434 801.65 432.5 801.45 430.95 800.9 429.4 799.85 426.9 797.45 424.4
L 793 420.5
Q 788.9 417.55 783.15 414.25 773.9 409.3 763.65 405.4
L 780.3 401.15 785.25 403.3 785.25 403.9 786.7 403.9 835.5 420.8
Q 837.3 421.35 844 422.75
L 912.75 432.9 923.2 434 923.4 423.3 923.45 426.1 923.5 405.5 882.95 396.5 882.9 396.05
Q 882.7 394.6 882.5 393.9
L 881.8 391.75 880.75 389.75 879.25 388.05 878.4 387.3 875.5 385.65 873.5 384.9 873.25 384.9 859.05 382.8 858.95 382.75 846.7 383.4 846.5 358.4 829.45 358.65 829.2 310.5 843.2 310.55 818.45 297.7 818.5 265.25 803.75 263.3 803.75 262.25 817.25 262.25 817.25 261.2 822.9 261.4 812.55 252.6 810.65 247.4 798.75 220.9
Q 795.5 214.4 793.4 210.45
L 793.25 210.4 792.65 210.3 793 210.1
Q 793.5 209.45 793.5 208.75 793.5 208.1 793 207.5 792.45 207.05 791.75 206.95
L 791.9 206.95 792.5 205.5
Q 792.8 204.9 792.95 204.15 793 203.45 793.25 202.75 794.4 203.3 795.05 203.45 795.9 203.75 797.25 204 799.5 204.5 801.65 204.6
L 805 204.7 803.5 201.45
Q 802.85 200.05 801.7 198.2
L 798.75 194.2 Z"/>
</g>

<g id="Layer0_0_MEMBER_0_MEMBER_0_MEMBER_0_FILL">
<path fill="#522810" stroke="none" d="
M 245.1 218.75
Q 247.35 219 250.3 218.45
L 255.3 216.9 255.3 216.45
Q 254.9 216.25 253.85 215.9
L 250.3 214.9
Q 247.35 214.35 245.1 214.6
L 242.25 214.9
Q 240.95 215.05 239.25 215.6 237.4 216.1 236.25 216.1 235.25 216.1 233.35 215.65 231.1 214.95 230.6 214.9 229.4 214.8 228.15 214.95 226.1 215.2 224.6 215.85
L 223.15 216.45 223.15 216.9 224.6 217.5
Q 225.95 218.1 228.15 218.4 230.1 218.5 230.6 218.4 231.3 218.35 233.35 217.7 234.95 217.25 236.25 217.25 237.4 217.25 239.25 217.75 241.5 218.4 242.25 218.4
L 245.1 218.75
M 290.6 218.45
Q 292.1 218.2 292.7 217.95
L 295.6 216.9 295.6 216.45 294.25 215.9 290.6 214.9
Q 287.8 214.35 285.6 214.6
L 282.7 214.9
Q 281.55 215.05 279.75 215.6 277.85 216.1 276.75 216.1 275.8 216.1 273.85 215.65 271.95 215 271.25 214.9 270.05 214.8 268.85 214.95 266.75 215.2 265.25 215.85
L 263.85 216.45 263.85 216.9 265.25 217.5
Q 266.5 218.1 268.85 218.4 270.65 218.5 271.25 218.4 271.95 218.35 273.85 217.7 275.6 217.25 276.75 217.25 277.85 217.25 279.75 217.75 282 218.4 282.7 218.4
L 285.6 218.75
Q 287.8 219 290.6 218.45
M 108.65 217.65
L 103.3 214.95
Q 97.9 212.35 95.05 211.15
L 92.05 209.9 92.05 213.15
Q 92.05 216.05 92.25 220.4
L 92.55 227.6 91.75 230.95 72.3 262.25 69.05 268.25
Q 68.3 269.45 65.8 274.15
L 64.05 277.25 68.3 277.25 67.5 316.5
Q 64.35 315.75 62.5 315.4
L 46.75 313.05 46.25 313.4
Q 44.25 314.6 42.7 315.75
L 39.45 318.15 31.85 318.75 31.6 318.75 31.5 318.9 26.25 322.4 24 322.3 38.95 310.3
Q 43.4 310.4 46.25 310.25
L 46.9 310.25 56.25 304.75 61.7 304.15
Q 63.4 304 67.55 303.4
L 67.55 303 55.75 301.65 55.5 301.65 45.9 306.05 37.3 306.05 28.6 314.3
Q 26.1 316.8 24.75 318.3
L 19.2 324.15 21.45 324
Q 25.3 323.75 26.45 323.75
L 26.6 323.75 32 320.15 40 320.8 40.25 320.9 44.5 318.65
Q 46.65 317.45 47.75 316.75
L 62.4 317.25 67.5 316.9 66.55 369.55 67 443
Q 66.5 453.15 66.3 461.25
L 32.8 469.8
Q 39.6 445.25 40.8 440.4
L 56.2 379.75 63.55 347.75 45.75 343.5 46.55 331
Q 47.1 324 47.4 317.4
L 47 317.4 43.2 345.25 59.7 350.05 44.65 409.15 37.45 439.55
Q 36.05 445.3 30.95 468.5 21.05 461.05 16.6 457.4
L 1.5 445.3
Q 4.3 435.5 5.15 432.75
L 23.95 367.5
Q 26.45 357.95 30.6 341.15
L 30.75 321.5 30.35 321.5 28.6 340.9 28.6 340.65
Q 24.2 355 20.85 366.65 19.05 372.6 17.1 379.65
L 0 445.8 32.25 472.25 32.7 470.4 68.8 463.3 68.8 462.3
Q 69.3 456.55 70.4 439.15
L 72.9 392.9 74.4 346.5
Q 75 333.8 75.65 323.3 76.4 310.7 77.15 300.15
L 78.9 277 81.55 276.9
Q 86.15 276.85 95.55 276.3
L 102.55 276
Q 107.25 275.8 109.55 275.8
L 125.15 276.15 124.3 274.75
Q 121.8 270 117.65 262.4
L 110.3 250.5
Q 109.45 249 106.55 244.7
L 102.65 238.9
Q 97.35 231.5 95.4 228.95
L 95.8 228.15 96.15 222.2
Q 97.85 222.55 101 222.9
L 102.65 223.15 100.65 218.75 108.65 217.65
M 96.15 221.65
L 96.3 217.35 99.15 221.15
Q 96.8 221.5 96.15 221.65
M 93.05 234
L 95.05 229.9
Q 97.1 234.15 100.5 240.25
L 111.05 258.3
Q 112.8 261.25 114.8 264.15
L 121.9 274.4 95.55 274
Q 81.6 273.4 81.55 273.4
L 78.75 273.4 83.15 263.9
Q 84.5 260.7 85.4 258 86.15 256.05 87.15 251.9 88.05 247.85 88.65 245.75 89.2 243.45 90.65 239.85 91.35 237.8 93.05 234
M 89.4 239.4
Q 88.15 243.35 87.25 245.25
L 84.55 250.95
Q 82.75 254.75 82.05 256.75 81.55 258.05 80.15 262.75
L 78.5 268.9
Q 77.95 270.9 77.55 273.4
L 71.05 273.25 76.05 264.4 90.3 236.7 89.4 239.4
M 71.3 278.5
L 76.05 278.4 74.4 323.25
Q 73.6 338.85 73.05 346.4
L 70.5 381.55 70.75 369.65
Q 71.05 354.2 71.05 346.5
L 71.3 278.5
M 282.75 179.7
L 281.35 179.65 279.25 180.15 279 180.15
Q 277.65 180.7 276.75 180.75
L 272.85 180.95
Q 271.95 181.3 271.6 181.5 270.9 182.05 270.5 182.65 270.15 183.25 270.1 183.45
L 269.75 183.6
Q 268.95 183.85 268.2 184.45
L 268.2 184.9
Q 268.7 185.3 269.75 185.75
L 270.25 185.9 271.35 198.2
Q 271.35 200.75 271 203.9
L 270.45 208.9 267.85 212.6 271 212.75
Q 273.1 212.9 275.1 212.75
L 279.1 212.65 289.1 211.4 285.75 209.4 285.5 209.65 285.85 210.15 285.1 210 285.2 209.5 285.45 207.4
Q 285.45 207.85 285.6 208.15
L 286 208.15 286.85 202.85 287.75 192.2
Q 287.95 188.8 287.95 186.9
L 287.95 185.9 288.45 185.75 290.2 184.9 290.2 184.45
Q 288.95 183.75 288.45 183.6
L 288.1 183.4 287.6 182.45
Q 287.45 182.2 286.6 181.25
L 285.45 180.4 284.1 179.95
Q 283.95 179.9 282.75 179.7
M 273.1 190.15
L 273.25 188.5 274.75 188.65
Q 274.2 188.9 273.5 189.5
L 273.1 190.15
M 279.6 189.15
Q 280.4 189.3 281.2 189.7 281.75 190.05 282 190.7 282.15 191.3 282 192.1
L 281.75 193.9 281.35 201.7
Q 281.35 204.3 281.5 205.65
L 281.75 208.1 279.5 208.4
Q 278.05 208.6 275.75 209.2 275.45 209.3 275.1 209.2
L 273.5 209.25 273.45 208.7 273.5 208.9 273.95 208.9
Q 274.3 207.8 274.5 206.75
L 274.95 204.65
Q 275.35 202.1 275.45 200.4
L 275.5 196.15
Q 275.45 195 274.95 191.9
L 274.95 191.7 274.85 191.2
Q 274.85 190.75 275 190.6 275.15 189.95 276 189.5 276.65 189.15 277.75 189.1 278.2 189.05 279.6 189.15
M 274.35 183.65
L 275 182.9 275.85 182.25 276.85 181.9
Q 278.05 181.9 279 182.2
L 279 182.25 279.1 182.25 279.25 182.4 281.1 183.1 284 184.6 284.35 184.75 272.45 185.4 272.85 185.15 273 185 273.25 184.85 273.75 184.35
Q 274.05 184.15 274.35 183.65
M 242.05 179.7
L 240.65 179.65 238.55 180.15 238.35 180.15
Q 236.9 180.7 236.05 180.75
L 232.15 180.95
Q 231.2 181.3 230.85 181.5 230.15 182.1 229.85 182.65
L 229.35 183.45 229.1 183.6
Q 228.35 183.8 227.5 184.45
L 227.5 184.9
Q 227.9 185.2 229.1 185.75
L 230.1 186.1 231.05 195.4 231.1 198.2
Q 231.15 201 230.8 203.9
L 230.25 208.9 227.6 212.6 230.8 212.75
Q 232.85 212.9 234.85 212.75
L 238.9 212.65 248.9 211.4 245.55 209.4 245.3 209.65 245.6 210.15 244.85 210 245.15 207.15 245.35 208.15 245.8 208.15
Q 246.45 204.55 246.6 202.85
L 247.6 192.2
Q 247.75 187.1 247.75 186.9
L 247.65 185.75 247.75 185.75
Q 249.2 185.1 249.5 184.9
L 249.5 184.45
Q 248.45 183.8 247.75 183.6
L 247.35 183.4
Q 247.15 182.85 246.9 182.45
L 246 181.25 244.75 180.4
Q 244.45 180.25 243.4 179.95 243.25 179.9 242.05 179.7
M 239.35 189.15
Q 240.3 189.35 241 189.7 241.6 190.1 241.75 190.7 241.85 191.35 241.8 192.1
L 241.1 201.7
Q 241.1 203.9 241.3 205.65
L 241.5 208.1 239.35 208.4
Q 237.95 208.65 235.6 209.2 235.25 209.3 234.85 209.2
L 233.3 209.25 233.15 208.45
Q 233.25 208.8 233.35 208.9
L 233.75 208.9 234.75 204.65 235.15 200.4
Q 235.3 198.8 235.3 196.15 235.25 195 234.75 191.9
L 234.65 191.7 234.6 191.2
Q 234.6 190.85 234.75 190.6 234.95 190 235.85 189.5 236.5 189.15 237.55 189.1 238 189.05 239.35 189.15
M 233.1 188.5
L 234.55 188.65
Q 233.9 188.95 233.35 189.5
L 232.9 189.95 233.1 188.5
M 233.1 184.35
Q 233.45 184.1 233.65 183.65
L 234.35 182.9 235.15 182.25 236.15 181.9
Q 237.1 181.9 238.35 182.2
L 238.3 182.2 238.3 182.25 238.35 182.25 238.55 182.4 240.4 183.1 243.65 184.75 231.65 185.4 232.15 185.15 233.1 184.35
M 531.5 218.5
L 529.65 218.25 528.05 218.25 527.95 218.35
Q 525.45 218.45 523.25 219.75 521.15 221.2 520.25 223.5 519.4 225.6 519.5 228 519.7 233.7 519.7 236.45 519.5 242.15 519.3 244.9
L 519.25 245.75 527.75 246.4
Q 531.5 246.7 535.05 246.7
L 535.25 250.4 520.9 251.4 520.5 247.85 520.05 247.85 519.5 252.7 520.25 252.85 528.7 253.45
Q 531.8 253.7 532.9 253.7
L 538.75 253.95 539.05 246.75 545.4 246.75 539.15 244.45
Q 539.25 240.7 539.25 235.25
L 538.95 226.6
Q 538.5 223.7 537 221.85 535.25 219.65 532.75 218.9
L 531.5 218.5
M 528.15 221.9
L 527.45 221.85 526.2 221.9 526.15 222.25 528.45 223 529.3 223.65
Q 529.85 224.15 530.05 224.45
L 530.45 224.9 531.15 226.4 531.45 227.5 531.55 228.5 531 243.2
Q 528.8 243.3 527.75 243.4
L 521.2 243.9
Q 521 240.45 520.9 236.45
L 521 228
Q 521.15 226.05 522 224.4 522.95 222.7 524.55 221.95 526 221.25 528 221.4
L 529.5 221.5 531.5 222.1
Q 532.95 222.75 534 224 534.95 225.3 535 227.1
L 535.05 227.9 535 242.9 534.55 242.75 534 228.25 533 225.6 532.25 224.4 531.25 223.4 529.45 222.25 528.15 221.9
M 567.75 235.25
L 567.45 226.6
Q 567 223.7 565.5 221.85 563.75 219.65 561.25 218.9
L 560 218.5 558.15 218.25 556.55 218.25 556.45 218.35
Q 553.95 218.45 551.75 219.75 549.65 221.2 548.75 223.5 547.9 225.6 548 228 548.2 233.7 548.2 236.45 548 242.15 547.8 244.9
L 547.75 245.75 556.25 246.4
Q 560 246.7 563.55 246.7
L 563.75 250.4 549.4 251.4 549 247.85 548.55 247.85 548 252.7 548.75 252.85 557.2 253.45
Q 560.3 253.7 561.4 253.7
L 567.25 253.95 567.55 246.75 573.9 246.75 567.65 244.45
Q 567.75 240.7 567.75 235.25
M 554.65 222.25
L 555.25 222.4 556.95 223 557.8 223.65
Q 558.35 224.15 558.55 224.45
L 558.95 224.9 559.65 226.4 559.95 227.5 560.05 228.5 559.5 243.2
Q 557.3 243.3 556.25 243.4
L 549.7 243.9
Q 549.5 240.45 549.4 236.45
L 549.5 228
Q 549.65 226.05 550.5 224.4 551.4 222.75 553 221.95 554.55 221.25 556.5 221.4
L 556.9 221.4 559.25 221.75 560 222.1
Q 561.45 222.75 562.5 224 563.45 225.3 563.5 227.1
L 563.55 227.9 563.5 242.9 563.05 242.75 562.5 228.25 561.5 225.6 560.75 224.4 559.75 223.4 557.95 222.25 556.65 221.9 555.95 221.85 554.7 221.9 554.65 222.25
M 326.75 183.25
Q 326.7 183.1 325.75 182
L 324.6 181.15 323.25 180.7 321.85 180.45 320.5 180.4
Q 319.65 180.45 318.25 180.9
L 318.1 180.9 317 181.35 314.7 181.65 312 181.7
Q 311.1 182.05 310.75 182.25 309.9 183.05 309.7 183.4
L 309.25 184.2 308.85 184.35
Q 308.1 184.65 307.35 185.2
L 307.35 185.65
Q 307.8 186 308.85 186.5
L 309.7 186.75 310.6 198.2
Q 310.6 201.45 310.35 203.9
L 309.75 208.9 307.2 212.6 310.35 212.75
Q 312.4 212.9 314.35 212.75
L 318.5 212.65 328.45 211.4 325.1 209.4 324.75 209.65 325.1 210.15 324.35 210 324.6 206.75 324.85 208.15 325.25 208.15
Q 325.6 206.65 326.2 202.85
L 327.1 192.2
Q 327.25 187.1 327.25 186.9
L 327.25 186.65 327.6 186.5
Q 328.9 185.95 329.25 185.65
L 329.25 185.2
Q 328.45 184.65 327.6 184.35
L 327.25 184.2 326.75 183.25
M 312.45 190.1
L 312.6 188.5 314 188.65
Q 313.4 188.95 312.85 189.5
L 312.45 190.1
M 315 183
L 316 182.65 317.1 182.7 318 182.95 318.1 182.95
Q 318.7 183.3 320.25 183.85
L 321 184.2
Q 321.6 184.45 321.75 184.6
L 322.25 184.85 312.6 185.35 312.95 185.1 314.2 183.65 315 183
M 320.5 189.7
Q 321.1 190.05 321.25 190.7 321.4 191.2 321.35 192.1
L 321.1 193.9 320.75 205.65 321 208.1 318.85 208.4
Q 316.6 208.8 314.85 209.35
L 312.85 209.25 312.75 208.65 312.85 208.9 313.25 208.9 314.25 204.65 314.85 196.15 314.25 191.9 314.25 191.7 314.1 191.2
Q 314.1 190.85 314.25 190.6 314.45 189.95 315.35 189.5 316 189.15 317 189.1 317.6 189.05 318.85 189.15 319.85 189.3 320.5 189.7
M 549.45 171.95
L 549.5 169.1 549.05 165.9
Q 548.6 164.25 547.9 162.75
L 546.95 161.4 545.75 160.15
Q 544.35 159.05 542.8 158.65 541.2 158.1 539.75 158.4
L 539.7 158.85
Q 541.1 159.25 542.15 160.15 543.3 161.05 544 161.9
L 544.65 162.95 545.15 164.1
Q 545.55 165.45 545.7 166.5
L 545.9 169.15
Q 545.9 171.35 546 171.95 546 172.9 546.65 177.85 547.05 180.9 547.05 183.65 547.05 187.1 546.75 189.4
L 546.15 195.25
Q 546 196.55 545.9 199.15 543.8 199 541.75 199
L 537.5 199.1 537 194.4 531.7 195.1 532.55 202.4 533 202.4 533.7 197.1 534.25 197.15 533.55 202.85 541.75 203.15
Q 545.05 203.15 547.7 202.95
L 549.7 202.9 549.55 201.1
Q 549.5 197.8 549.25 195.25
L 548.55 189.4
Q 548.25 186.55 548.25 183.65 548.25 181.6 548.75 177.85
L 549.45 171.95
M 534.5 30.65
L 534.4 30.65
Q 533.7 30.05 532.4 29.5
L 532.25 28.65 531.55 26.4 529.75 26.3 528.75 29.5 528.55 29.9 528.7 30.05 528.3 31.75 529 32.25 528.95 32.5 528.9 34 529.15 35.5 529.5 36.6 529.2 36.75
Q 528.35 37.35 527.95 38.25 527.75 38.65 527.75 39.25
L 528 40 528 40.1 528.05 40.1 528.05 40.2 528.15 40.25 528.25 40.45 528.9 41.25 529.55 42.35 526 99.85 525.75 100.6 525.45 101.1
Q 525.25 101.45 525 101.6
L 524.8 101.7 524.75 101.85 524.5 101.95 511.85 108.35 515 108.25 516.15 110.35 516.25 112.2 515.8 113.45 515.75 114.1 515.8 114.6 515.75 114.45
Q 515.75 115.45 516.3 117.1 516.5 117.7 517 119.5
L 515.8 120.45 510.95 122.95 509.75 123.75
Q 507.65 123.75 505.7 124.2 505.45 124.2 503.35 124.7
L 501.45 125.5 501.35 125.5 501.35 125.6 501.25 125.6 500.5 125.7
Q 499.8 126.05 499.35 126.5
L 498.95 127.1 498.7 127.6
Q 498.35 128.5 498.35 128.65 498.15 129.25 498 130.75 497.95 131.65 498.1 132.65
L 496.5 133.45 496.6 133.85 498.85 133.15 498.85 133 499.1 134.25 499.35 134.7
Q 499.9 135.9 499.95 136.5 500 137 499.95 138.45 499.8 139.2 500.2 139.85
L 500.35 140.1 500.6 140.35 501.25 140.65 501.35 140.65
Q 502.35 140.9 503.1 140.2 503.8 139.65 504 138.95 504.1 138.75 504.1 138 504.05 137.5 503.6 136.6
L 503.2 135.5 503.1 134.7
Q 503.1 134.25 503.25 133.9 503.35 133.4 503.7 132.9
L 503.85 132.45 504 132.65 504.6 132.9 505.1 133 535 132.25 535.45 129.95
Q 535.55 129.55 535.8 129.1
L 536.4 128.25 536.7 127.95 538.3 126.85 539.4 126.5 538.4 127
Q 537.05 127.85 536.15 129.6
L 535.9 130.4 535.75 131.25 535.75 131.7 535.8 132.1 536 132.65 536 132.95 536.05 133.15 536.25 133.5
Q 536.3 133.85 536.5 134.15 536.65 134.65 537.2 135.4
L 538.3 137.15 538.8 137.65
Q 539.1 137.95 539.5 138.15
L 540.25 138.6 540.75 138.75 540.8 138.75 541 138.85 541.7 138.85
Q 542.35 138.85 543.15 138.45
L 544.25 137.65
Q 544.9 136.75 545.05 135.5
L 545.05 133.15 545.15 132.85 545.05 130.1
Q 544.95 128.75 544.25 127.95 543.6 127.15 543.2 126.95 542.35 126.45 541.7 126.45
L 541.5 126.35 542.95 126.6 543.8 127 544.65 127.7
Q 545.1 127.9 545.4 128.4
L 546 129.35 547 131.4 547.3 132.25 553.45 131.85 553.15 133.25 563.3 133.7 563 131.4 562.75 130.35 561.65 128.35 560.8 127.45
Q 560.55 127.2 559.8 126.75
L 558.75 126.25 557.5 126 550.4 125.75 545.15 120.1 545.25 110.2 547.75 105.85 541.65 105.7 535.5 103 535.5 102.95 534.95 102.75 534.5 102.35 533.95 101.35
Q 533.75 100.6 533.75 100
L 533.7 99.35 533.75 98.7 533.75 77.2 531.7 43.25
Q 532.1 43.15 532.4 42.7
L 532.65 42 532.7 41.35 532.4 40.25 532.4 40 532.7 38.75
Q 532.75 38 532.45 37.45
L 531.8 36.8 531.75 36.8
Q 532.05 36.2 532.2 35.5
L 532.45 34.25 532.5 34.25 534.5 30.65
M 525.45 113.5
L 525.4 113.45 525.3 113.45 525.3 113.6 525.25 113.45
Q 525.15 113.35 525.25 113.35 525.25 113.25 525.5 113.25
L 525.75 113.35 525.8 113.45
Q 526.1 113.55 526.2 113.7
L 526.25 113.85 526.15 113.95 526 113.95
Q 525.9 114.05 525.7 113.85
L 525.7 113.75 525.65 113.75 525.45 113.5
M 500.75 132.2
L 500.6 132.15 500.5 132.1 500.45 131.9 500.45 131.85 500.5 131.9 501.1 132.4 500.75 132.2
M 502.7 134.5
L 502.7 134.7 502.5 135.5
Q 502.35 135.9 501.95 136.35
L 501.25 136.95 501.1 136.4
Q 501.1 135.75 501.5 134.7
L 502.25 133.45 502.5 133.9 502.7 134.5
M 532 40
L 532 40.2
Q 532 40.35 531.75 40.45
L 531.25 40.5
Q 531 40.4 530.95 40.3
L 530.9 40.6
Q 530.8 40.75 530.65 40.7 530.75 40.7 530.75 40.6
L 530.5 40.5
Q 530.05 40.95 529.9 40.55
L 529.95 40.3 530.15 40.1 530.2 40.1 530.25 40.05 530.25 40.25 530.5 40 530.65 40 530.65 39.85 530.7 39.85 530.7 39.95 530.8 40 530.8 39.95 531.2 39.75
Q 531.5 39.65 531.75 39.75
L 532 40
M 530.5 43.25
L 530.75 43.25 530.8 43.3 531 43.3
Q 531.1 43.4 531.15 43.3
L 531.05 77.35 532.4 98.7 532.4 98.6 532.5 100.2 532.8 101.7 533.2 102.45 533.75 103.1
Q 534.1 103.5 534.45 103.6 534.5 103.8 535.25 103.95
L 539.15 105.6 537.2 105.6 537.2 106.35 522.55 105.95 525.7 104.45
Q 526.25 104.25 526.8 103.85 527.4 103.4 527.75 102.85
L 528.4 101.7
Q 528.7 101.25 528.75 100.6 528.85 100.45 529.15 98.35
L 529.95 80.7 530.2 43 530.5 43.25
M 534.75 111.5
L 534.5 111.5 534.5 111.6 534.4 111.6 533.45 112.45 533 113.1
Q 532.9 113.3 532.9 113.7
L 532.9 114.2
Q 532.85 114.4 532.9 114.7
L 532.8 114.5
Q 532.75 114.95 532.05 115.85 531.75 116.35 531.55 117.2 531.35 117.95 531.4 118.5 531.4 119 531.5 119.25
L 526.55 119.45 526.55 119.2 526.4 119
Q 526.788671875 117.9310546875 526.7 116.9 526.722265625 117 526.8 117
L 527.25 117
Q 527.7 116.7 528.15 116.1 528.45 115.5 528.55 115.1
L 528.8 114.2 528.8 113.7 528.65 112.95 528.25 112.2
Q 528.05 111.85 527.55 111.7 527.35 111.6 526.95 111.6
L 526.5 111.6 525.9 111.85 525.75 111.95 525.5 111.95 525.3 112.1
Q 524.95 112.1 524.65 112.35 524.5 112.35 524.25 112.5
L 523.55 113.6 523.45 114.45 523.4 114.1
Q 522.9 115 522.75 115.45
L 522.5 116.75
Q 522.2 117.7 522.9 119.45
L 522.95 119.5 521.95 119.6 521.25 108.1 537.2 107.6 537.15 112.2 536.9 111.95 536.4 111.6 535.55 111.35
Q 535.25 111.35 535 111.45
L 534.75 111.45 534.75 111.5
M 534.25 113.95
L 534.3 114 534.4 113.95 534.45 113.95 534.8 114.6 534.7 114.6 534.7 114.7 534.75 114.7 534.9 114.85 535 114.85 535.2 115.1 536.75 115.1 536.75 115 537 114.85 537.05 114.7 537.15 114.6
Q 537.1 116.3 537.15 119.2
L 535.5 119.2 535.7 118.5 535.5 117.2 534.2 114.5 534.2 114.35 534.05 114.2 534.05 113.95 534.25 113.95
M 541.3 121.2
Q 541.4 120.75 541.3 120.2
L 541.4 120.2 541.5 119.95 541.55 121.5 544.2 124 544 123.95 543.25 123.6 541.3 123.35 541.25 123.35 541.3 121.2
M 539.25 131.4
Q 539.7 130.8 540.25 130.7
L 542.25 130.6
Q 543.05 130.7 543.5 130.9
L 544.45 131.75 544.7 132.5 544.75 132.75 544.7 133.1 544.45 133.85 544.15 134.25 543.55 134.65
Q 543.1 134.95 542.25 135.1
L 541.75 135.15 541.25 135.4 541.05 135.4 541 135.45 541.15 135.45 540.2 135.7
Q 540 135.8 539.8 135.75 538.75 135.9 538.25 134.85 537.9 134.3 538 133.85 537.95 133.65 538 133.25
L 538.05 133 538.15 132.9 538.15 132.85 538.2 132.85 538.2 132.9 538.45 132.35 538.5 132 538.75 131.9 538.95 131.65 539.25 131.4
M 532.8 127.25
L 532.05 128.9 506.45 130.1 506.1 130.15 505.6 130.35 505.5 130.2 505.25 129.2
Q 505.05 128.25 504.6 127.45
L 505.7 127.7
Q 508.15 128.15 510.25 128
L 511.2 127.95 513.3 125.85
Q 514.3 124.85 514.9 123.95
L 516.3 121.95 518 120.2 518.25 120.1 518.25 119.75
Q 518.25 118.95 518.9 117.1
L 519 116.7 518.75 122.7 539.45 123.35 537.2 123.85 536.45 124.1
Q 535.75 124.4 535 124.95
L 533.8 126 532.8 127.25
M 558.7 128.95
L 559.8 129.85 560.7 131.15 560.8 131.65 554.7 131.9 554.8 130.5 554.15 130.6 548.9 130.15 548.75 129.5 548.2 128.15 547.9 127.7 549.05 128.85 557.25 128.65 558 128.75 558.7 128.95
M 517.7 111.35
L 517.3 111.35 517.05 111.45 517.25 110.1 517 109.45 519.4 109.6 519.25 111.7
Q 518.8 111.35 518.5 111.35
L 518.15 111.25 518 111.25 517.7 111.35
M 501.6 128.2
L 501.5 128.2 501.35 128.25
Q 501.2 128.25 500.75 128.4
L 500.25 128.65 499.75 129.15 500.1 128.35 500.6 127.75 501.1 127.5 501.7 127.5 501.95 127.6 502.35 127.95 502.5 128.15 502.6 128.4 502.35 128.35 502.1 128.25 502 128.25 501.6 128.2
M 501.85 137.45
Q 502.05 137.45 502.25 137.65
L 502.35 137.7 502.35 137.75 502.45 137.9
Q 502.4 138.05 501.95 137.75 501.7 137.7 501.5 137.4
L 501.85 137.4 501.85 137.45
M 809.95 293.25
L 809.65 293 741 292.75 718.45 296.9 578.25 293.3 577.4 229.25 576.75 207.4 576.3 207.4 574.75 293.05 534.3 292.5 534.25 290.5 527.15 290.65 527.15 292.4 509.1 292.15 509.1 206.6 585.15 207.1 576.45 203.1 576.2 195.7 572.05 195.85 571.7 195.9 571.9 202.4 572.25 202.4 572.5 196.65 575.2 196.75 575 203.9 577.3 205.15 509.6 202.65 509.35 196.15 509.75 196.15
Q 510.05 199.3 510.45 201.85
L 510.85 201.85
Q 511.25 198.85 511.6 195.1
L 511.7 194.15 507.75 193.9 506.6 168
Q 506.65 165.05 506.35 162.15 506.15 160.45 505.75 159.15
L 504.95 157.65
Q 504.35 157 504.1 156.9
L 503.5 156.65 503.2 156.6 503 156.5 502.7 156.5 501.6 156.85
Q 501.05 157.05 500.7 157.5 500.35 157.85 499.6 159.1 498.9 160.7 498.6 162 497.95 164.35 497.75 167.95
L 497.35 179.5
Q 497.3 185.25 497.45 190.95
L 497.7 198.5 497.45 195.4 494.35 195.65 494 149.9 512 147.75 512.75 202 513.3 201.95 531.25 202 531.95 166.7
Q 532.2 165.15 532.7 163.9 533.75 160.95 535.75 159.4
L 536.95 158.65 538.15 158.15 540.95 157.75
Q 544.05 157.7 546.05 158.95 548.3 160.25 549.5 162.9 550.55 165.55 550.55 168.35
L 550.55 174.65
Q 550.55 188.75 550.65 200
L 550.65 201.7 571.4 201.5 570.25 148.9 572.75 148.75 572.7 146.35 572.25 146.35 572.25 148.2 569.45 148.15 568.3 198.45 554.05 198.4
Q 554.15 187.9 554.15 174.65
L 554.15 168.35
Q 554.15 164.95 552.55 161.45 551.05 157.9 547.75 156.1 546.25 155.2 544.25 154.9 543.7 154.7 542.5 154.7
L 541.05 154.65 539.05 154.9 537.25 155.4 535.55 156.15 534 157.15
Q 531.3 159.45 530.25 163 529.95 163.9 529.5 166.4
L 529.95 200.7 514 200.75 514.75 145.9 542.3 145.7 577.25 144.45 557.3 136.95 552.2 141
Q 549.35 140.8 541.3 140.45 538.8 140.35 535.7 140.35
L 530.45 140.35 518.65 134.9 509.45 141.4 507 141.7 506.35 134.1 505.95 134.1
Q 505.6 137.5 505.25 142.5
L 499 143.4 499 143.15 498.2 134.9 497.75 134.9 497.45 142.5 487.25 145 487.7 147.15 476.6 148.15 490.5 150.95 490.1 200.45 464.35 209.2 482 208.15 482.85 259.4 456.35 283.4 447.5 282
Q 447.95 281 448.25 279.5
L 448.6 276.65
Q 448.7 274.8 448.6 273.8 448.55 272.85 448.1 271 447.4 268.95 447.25 268.25 447 266.6 447.1 265.4 447.1 264.2 447.35 262.55
L 447.6 260.55 453.75 260.75 444.85 254.2 431.2 228.75 431 228.5 436.6 228.75 432.5 224.75
Q 431.25 223.55 429.75 222.6
L 429.35 220.6 428.25 217.45 427.85 217.45 426.75 220.6 426.1 224.25 426.5 224.7 424 225.25
Q 422.6 225.65 421.25 225.75
L 421.35 225.65 421.35 224.7
Q 421.35 223.05 421 221.15
L 420.5 219.35
Q 420.3 218.45 420 217.9 421.45 217.8 424 217.45
L 428.25 217.15
Q 430.55 217 432.35 217.35
L 436.2 217.85 430.2 214.75
Q 429.65 212.8 429.2 211.75
L 427.75 208.5 424.2 202.4 424 202.15 423.85 202.4
Q 422.8 203.95 422 205.4
L 417.6 214.25 406.75 218.65 415.7 218.15
Q 418.15 218.05 419.1 217.95
L 418.6 219.35
Q 418.35 220.05 418.2 221.15 417.85 222.65 417.85 223.75 416.8 224.7 416.25 225.35
L 413.35 228.7 418.75 227.15
Q 419.75 226.95 420.5 226.95 421.85 226.95 424 227.45
L 425.1 227.7 424.5 227.65
Q 420.55 227.35 418.6 227.35
L 418.5 227.35 418.45 227.4
Q 416.95 229.5 414.1 234.4 412.1 237.5 410 241.4
L 402.6 255.25 394.1 259.15 394.2 258.9
Q 394.45 257.25 394.6 254.9 394.75 252.7 394.35 250.9
L 393.5 246.9
Q 393.35 244.7 393.6 242.9
L 394.35 238.9
Q 394.6 237.75 394.6 236.9
L 395 230.95 398.1 231 389.35 221.7 386.85 221.7 384.35 220.7 384.35 218.4 383 218.4 382.75 197.1
Q 382.5 183.5 382.1 174.4
L 387.1 174.45 382.35 169.4 382.45 154.1 385.45 152.25 385.5 146.4 382.75 146.4 382.75 145.9 365.85 143.9 367.2 143.45
Q 367.35 143.45 367.5 143.25
L 367.75 143.15 368.1 142.65 368.1 142.35 368.5 137.15
Q 368.75 134.3 368.75 131.9 368.95 127.9 368.85 121.6
L 367.75 102.85 367.75 102.5 368.1 102.7 368.5 103 369.25 102.1 369.6 102.2 371.45 99.85
Q 371.85 99.25 372.25 98.35 373.05 96.95 373.35 94.95 373.75 93.45 373.5 91.35 373.5 91.1 373.2 89.5
L 372.6 87.85
Q 371.8 85.9 370.85 84.85 370.55 84.2 369.85 83.45
L 368.7 82.2 359.6 74.2 357.85 72.1 357.75 71.95 357.75 71.85 357.5 71.6 352.45 59.25 352.75 58.85
Q 352.85 58.65 352.85 58.25
L 352.85 57.75 352.5 56.75 352.5 56.5 352.75 55.95 352.85 55.5
Q 353 54.8 352.75 54.25
L 352.5 54
Q 352.75 53.75 352.85 53.3 353.1 52.85 353 52.5 352.9 52.25 352.25 51.5 351.75 51 351.75 50.5
L 352.25 50.3 353.35 49.7 353.6 49.3 353.6 49.1 353.75 48.1 353.7 47.5 353.35 46.8
Q 353.25 46.2 353 45.7
L 352.5 44.95 351.6 44 351.35 43.95 351 43.95 350.35 44.35 349.85 44.95 349.45 45.6 348.85 46 348.5 46.5 348.35 47.2
Q 348.2 47.85 348.45 48.25 348.6 48.5 348.75 48.5 348.85 48.6 349.35 48.25
L 349.45 48.5
Q 349.45 48.65 350.1 49.5 350.6 50.15 350.6 50.5 350.6 51.05 350.1 51.5 349.45 52.3 349.45 52.5 349.35 52.75 349.5 53.3 349.6 53.65 349.7 53.75 349.05 54.35 348.75 55 348.6 55.4 348.7 55.95 348.7 56.45 349 56.6
L 349.75 57.55 350.35 58.6
Q 350.35 58.75 350.45 58.75 349.35 62.35 348.6 64.2
L 347.6 66.85
Q 346.9 68.55 346.35 69.5 345.7 70.95 345 71.95
L 344 73.25 344 73.35 343.95 73.35 343.85 73.5 342.75 74.5
Q 342.85 74.25 342.85 73.7
L 342.5 73.2 341.5 72.25
Q 341.6 72.25 341.85 71.95
L 342 71.35 341.95 70.75 341.85 70.35 341.6 69.75 341.6 69.6 342 68.6
Q 342.1 67.8 341.85 67.35
L 341.75 67.2 342 66.7
Q 342.15 66.2 342 65.75 342 65.6 341.35 64.75 340.85 64.2 340.85 63.7
L 340.85 63.6 341.1 63.55 342.25 63 342.5 62.75 343 61.7 343.1 61.1
Q 343.2 60.45 342.75 60.45
L 342.35 60.35
Q 342.55 59.65 342.1 58.5
L 341.1 57.1 340.5 56.6 340.1 56.6 339.95 56.75 339.5 57.1 338.5 58.5
Q 337.95 59.5 338.25 60.35
L 338.5 61.3
Q 338.4 61.45 338.5 61.55 338.6 61.85 338.7 61.85
L 338.75 61.8 339.2 62.55
Q 339.7 63.3 339.7 63.7 339.7 64.15 339.25 64.75
L 338.5 65.75 338.6 66.7 338.7 66.95 338.35 67.2
Q 337.95 65.35 337.85 65.2 337.5 63.5 336.1 60.95 334.8 58.7 333.5 57.25
L 324.5 47.35
Q 321.7 44.2 321.6 44.05
L 318.7 40.25 318.75 40.25 317.85 38.85
Q 317.1 37.45 317 37.05 316.25 35.05 315.7 33.1 314.75 29.4 314.7 28.9 314.15 26.8 313.95 24.65 313.55 22.2 313.45 20.4
L 313.25 18.65 312.95 18.65
Q 312.9 18.45 312.95 18.4
L 312.95 18 313.1 16.4 313 15.6 312.6 14.75
Q 312.05 14.2 311.75 14.1
L 312 13.25
Q 312.15 12.6 312 12.15 312 11.9 311.35 10.75 310.85 9.95 310.85 9.4 310.85 8.85 311.25 8.15
L 311.35 8.15 311.85 7.95 312.95 7.2 313.1 6.85 313.1 5.6
Q 313.1 5.35 312.95 4.95 312.75 4.55 312.45 4.25 312.35 3.35 312.1 2.5
L 311.1 0.65 310.5 0 310.1 0 309.5 0.65 308.5 2.5 308.25 3.25 307.35 3.95 307.2 4.45 307.2 4.95
Q 307.2 5.75 307.45 6 307.6 6.35 307.85 6.35
L 308.45 6.1 308.5 6.45 309.2 7.85
Q 309.7 8.85 309.7 9.4 309.7 10 309.25 10.75 308.7 11.6 308.5 12.15 308.5 12.7 308.6 13.25
L 308.75 13.9 308.45 14.1
Q 307.35 14.7 306.75 15.9 306.5 16.55 306.5 17.15 306.5 17.8 306.75 18.25
L 307.25 19.15 305.85 26.5
Q 305.25 29.3 304.45 32.5 304 34.05 303.5 35.35
L 302.45 38.05 299.1 43 290.5 52.2
Q 288.45 54.55 288.45 54.7 287.25 56.3 286.6 57.5
L 284.1 63.45 284.45 63.55 287.85 58.3 289.85 56 299.45 47.6
Q 300.25 46.95 301.75 45.3 302.95 44.1 304 42.75
L 305.95 39.95 307.35 36.8
Q 307.85 35.7 308.45 33.7
L 310.25 26.25 311 29.75
Q 311.55 31.95 312.35 34.2 313.1 36.45 314.1 38.45 314.5 39.4 315.35 40.55
L 316.35 41.95 316.45 42 319.85 45.7 326.45 51.7
Q 329 54.1 329.6 54.75
L 332.6 58
Q 333.5 59.1 334.95 61.5 336 63.85 336.35 65.5
L 336.6 67.6 336.5 70.75 336.25 71.75
Q 336.15 72.55 335.75 73.75 335.2 75.6 334.1 77.6
L 333.1 79.45 332.75 79.95 331.6 79.45 321.6 78.25 311.85 78.35
Q 309.95 78.35 309.45 78.45
L 297.25 80 296.35 80.25 296 79.85 287.75 73
Q 287.65 72.95 286.85 72
L 286 70.95 285.7 70.45 285.6 70.35 284.2 67.35 280.6 57.55
Q 280.85 57.45 280.95 57.3
L 281.1 56.7 281.1 56.1 280.75 55.1 280.75 54.95 280.85 54.6 281 54.35 281.1 53.95
Q 281.25 53.35 281 52.75
L 280.85 52.5 281.1 52
Q 281.2 51.5 281.2 51
L 280.5 49.95
Q 280 49.3 280 48.8
L 280 48.7 280.1 48.7 281.25 48.35 281.85 48.05 282.1 47.75 282.25 47.1 282.35 45.85
Q 282.15 45.15 281.7 45
L 281.5 45
Q 281.65 44.25 281.2 43.3
L 280.75 42.5 280.25 41.85 279.75 41.5 279.6 41.35 279.25 41.35 279 41.5 278.1 42.5 277.6 43.3 277.5 43.5 277.25 43.6 276.85 44.05 276.6 44.75
Q 276.55 45.5 276.7 45.85 276.85 46.2 277 46.25
L 277.5 46.1 277.6 46.5
Q 277.9 47.1 278.35 47.6 278.8 48.5 278.85 48.8 278.85 49.2 278.35 49.95
L 277.6 51
Q 277.55 51.35 277.75 52
L 277.85 52.25
Q 277.3 52.75 277 53.45 276.85 53.75 276.85 54.35 276.85 54.85 277.2 55
L 278 56 278.45 56.8 275.7 65.25 274.35 68.35 274.1 66.95 273.75 66.2
Q 273.5 66 272.85 65.2
L 272.85 65.1 272.75 64.7 272.6 64.35 272.6 63.95 272.95 62.95
Q 273.05 62.1 272.75 61.7
L 272.75 61.55 272.95 61.05
Q 273.1 60.55 273 60.25 272.95 60 272.25 59.25 271.8 58.55 271.85 58.25
L 271.85 58.05
Q 271.95 58.15 272 58.05
L 273.45 57.45 273.85 57 274.1 55.75 274.1 55.2
Q 273.95 54.45 273.5 54.45
L 273.35 54.35
Q 273.25 53.7 273 53.2
L 272.5 52.45 271.45 51.35 271 51.35 269.95 52.45 269.45 53.2
Q 269.2 53.7 269.1 54.2
L 269.1 54.25 269 54.75
Q 268.75 55.35 269 55.75 269.05 56.05 269.25 56.05 269.3 56.1 269.5 56
L 269.5 56.05
Q 269.5 56.25 270.1 57.1 270.6 57.65 270.6 58.25 270.7 58.7 270.2 59.25 269.55 60 269.5 60.25 269.45 60.45 269.5 61.05
L 269.6 61.3
Q 269.05 61.85 268.85 62.45 268.7 62.9 268.75 63.3 268.75 63.65 268.85 63.75
L 269 63.95 269 64.1 269.25 64.35 269.75 64.95 270 65.35 269.6 66.2 268.75 67.35 267.6 69.85 267.35 71.75 267.35 72.45 267.6 73.85
Q 267.7 74.5 267.95 75
L 266.45 76.2
Q 265.05 77.05 263.85 77.95 262.1 79.35 261.35 80.1 259.85 81.75 259.2 82.95
L 258.6 84.2 258.2 85.95 255.8 87.6
Q 255.05 88.05 254.75 88.6 253.9 89.55 253.85 89.7 253.45 90.3 253.25 91.1
L 252.65 93.25
Q 252.65 93.85 252.55 94.1
L 252 96.95
Q 251.45 98.85 251.35 99.95
L 251.35 101.45 251.65 103.1
Q 252.2 104.5 252.25 104.6
L 253.1 106.1 252.75 106.35 250.9 106.85 254.9 108.45 255.25 108.35 255.3 108.6 255.05 108.6 255.1 108.95
Q 255.1 109.75 255.35 110.5
L 255.9 112.1
Q 256.3 113 256.35 113.7
L 256.25 115.25
Q 256.1 116.35 255.5 118.45
L 255.15 120 255.05 121.6
Q 254.85 123.5 255.05 124.85 255.2 126.15 255.65 127.95 256.05 129.35 256.7 130.65
L 234.15 136.4 200.4 146.15 209.6 146.1 207.75 150.75
Q 206.75 153.2 205.55 154.95
L 205.35 155.2 206.05 156.9 206.1 157 207.15 158.5
Q 206.75 160.65 206.75 161.95 206.7 163.35 206.85 165.65 206.9 167.35 207.35 169.25
L 207.75 171.1
Q 208 172.2 208.35 172.9
L 208.55 172.9 205.25 176.75 208.1 179.35 214.55 172.25 298.35 172.95 372.35 174.2 372.2 176.75 373.85 176.9 374 174.5 380.45 174.75
Q 380.1 181.35 379.75 197.1
L 379.5 218.85 365.6 213.4
Q 365.7 209.65 365.5 207.7
L 365.1 201.85 366.6 200.7 363.85 198.9 364.35 198.4 365 197.15
Q 365.3 196.6 365.35 195.85 365.55 195.25 365.45 194.4
L 364.95 192.65 364.1 191.45 363.1 190.4 360.45 188.25
Q 359.85 187.95 359.75 187.75 359.2 187.4 359.1 187.2
L 358.45 186.4 358.1 185.7 358.1 185.4
Q 358 183.85 357.85 183.35
L 357.5 180.9 357.2 180.35 356.75 179.9 356.35 179.65 355.85 179.65 355.35 179.9 355 180.25
Q 354.85 180.55 354.85 180.9
L 354.85 182.75 354.5 185.4 354.5 186.15 354.1 186.75 353.1 187.65
Q 351.35 188.6 350.6 189.15
L 348.35 191 347.25 192.25 346.35 193.9
Q 346.1 194.55 346.1 195.9
L 346.2 196.85 346.5 197.7
Q 346.95 198.5 347.6 199.15
L 343.5 202.15 347.25 202.5 347.5 207.65
Q 347.6 208.75 348 210.95 348.15 211.75 348.5 213.1
L 340.75 216.65
Q 335.7 219 333 220.45
L 333.1 220.85 349.25 215.65 361.35 216 363.25 216.2 372.75 219.65 369.25 219.9
Q 364.25 220.25 358.1 220.45 356.3 220.6 352.5 220.6
L 335.5 220.4 331.95 222.15 332 223.15
Q 332.7 229.55 333.6 235.65
L 333.75 237.15 335.35 237.15
Q 336.55 237.55 337.25 237.7
L 337.7 237.9
Q 337.25 240.6 337.25 243.1
L 337.35 244.2 336.75 242.75 336.35 242.85
Q 335.85 244.75 335.6 247.65
L 335.6 250.4 325 250.4 324.95 250.15 324.5 250.15 324.5 250.4 322.45 250.4
Q 320.8 250.05 318.85 249.9
L 315.75 249.6
Q 316.05 249.05 316.45 247.85
L 316.95 245.65 317.2 241.4 316.2 237.15
Q 315.8 235.05 316.25 232.9
L 316.25 232.75 316.6 231.9
Q 317 231.4 317.2 231.35 317.4 231.15 317.75 231.15
L 318.7 231.15 319.35 231.35 319.45 231.4 319.6 231.5
Q 319.85 231.75 320 232.1 320.1 232.35 320.1 232.65
L 321.2 238.65
Q 321.7 240.3 322.1 241.1
L 322.5 241.1 322.95 239.75 323.5 244.25
Q 323.8 246.65 324.35 249.15
L 324.75 249.15
Q 325.4 246.25 325.6 244.25 325.9 242.7 326.2 239.45
L 326.75 229.85
Q 326.75 228.4 326.35 226.9 326 225.25 324.95 223.95 323.6 222.45 322 222.1 321.2 221.8 320.45 221.7
L 319 221.7
Q 317.15 221.9 316 222.45 314.5 223.15 313.7 224.6 312.95 225.75 312.7 227.35 312.55 228.85 312.75 230.1
L 312.75 229.95 313 234.9
Q 313 236.65 312.7 239.75
L 312 244.65
Q 311.75 247.4 311.75 249.25
L 311.35 250.4 285.35 250.4 285.35 250.15 284.95 250.15 284.85 250.4 282.95 250.4
Q 281.25 250.05 279.25 249.9
L 276.2 249.6 276.85 247.85
Q 277.2 246.9 277.35 245.65
L 277.6 243.5
Q 277.7 242.15 277.6 241.4 277.4 240.15 277.1 239.25
L 276.6 237.15
Q 276.2 234.95 276.7 232.9
L 276.7 232.75 277 231.9
Q 277.35 231.45 277.6 231.35 277.85 231.15 278.1 231.15
L 279.1 231.15 279.25 231.2 279.6 231.25 279.75 231.35 279.85 231.4 280 231.5
Q 280.25 231.65 280.45 232.1
L 280.6 232.65 281 236.2 281.6 238.65
Q 282.1 240.25 282.5 241.1
L 282.85 241.1
Q 283.3 240.05 283.35 239.7 283.85 243.65 283.95 244.25 284.2 246.7 284.75 249.15
L 285.2 249.15 286.1 244.25 287 234.65
Q 287.1 233 287.1 229.85 287.25 228.5 286.85 226.9 286.4 225.15 285.35 223.95 284 222.45 282.5 222.1 281.65 221.8 280.85 221.7
L 279.45 221.7
Q 277.6 221.95 276.45 222.45 274.9 223.25 274.1 224.6 273.35 225.8 273.1 227.35 273.0521484375 228.3533203125 273.1 229.95 273.35 232.25 273.35 234.9 273.35 237.8 273.1 239.75
L 272.45 244.65
Q 272.2 246.3 272.2 249.25
L 271.75 250.45 245.75 251 245.55 250.15 245.1 250.15 245.05 250.7
Q 242.6 250.25 239.5 249.9
L 236.35 249.6 237.1 247.85
Q 237.2 247.45 237.55 245.65
L 237.8 243.5
Q 237.9 242.15 237.8 241.4 237.75 240.7 237.35 239.25
L 236.8 237.15
Q 236.4 235 236.85 232.9
L 236.85 232.75
Q 237.1 232.15 237.25 231.9 237.45 231.55 237.8 231.35 238.05 231.15 238.35 231.15
L 239.35 231.15 239.5 231.2 239.8 231.25
Q 239.9 231.25 239.9 231.35
L 240.05 231.4 240.25 231.5
Q 240.5 231.75 240.6 232.1
L 240.8 232.65 240.85 233.75
Q 241.05 235.35 241.3 236.2 241.45 237.45 241.85 238.65 242.15 239.95 242.65 241.1
L 243.1 241.1 243.6 239.7 245 249.15 245.35 249.15
Q 245.7 247.75 246.3 244.25
L 247.15 234.65
Q 247.35 232.45 247.35 229.85 247.45 228.4 247.05 226.9 246.6 225.2 245.6 223.95 244.35 222.5 242.65 222.1 241.85 221.8 241.05 221.7
L 239.6 221.7
Q 237.8 221.9 236.65 222.45 235.1 223.25 234.3 224.6 233.4 225.95 233.35 227.35 233.2 228.4 233.35 230.1
L 233.35 229.95
Q 233.6 232.3 233.6 234.9 233.6 237.45 233.3 239.75 233.15 240.85 232.65 244.65 232.35 247.85 232.35 249.25
L 231.6 251.4 217.15 252 216.65 233.1
Q 216.65 230.55 216.8 229.2 216.8 226.5 217.15 221.6
L 217.15 221.5 217.1 221.35 216.55 217.25 217.55 214.5 217.6 214.4 217.85 204.6 217.3 185.7 216.6 176.25 216.55 176 214.25 173.85 213.9 174.1 215.55 176.45
Q 215.15 179.65 214.8 185.7
L 214.25 204.6 214.4 213.9 213.6 217.1 213.65 217.35 214.9 221.75 215.3 244.65 215 251.1 212.55 250.95 212.85 225.15 210.3 180.1 209.85 180.1 208.6 207.15 209.15 243.25
Q 209.3 247.65 209.6 252.15
L 174.1 264.65 174.05 266.9 173.6 267.05 169 267.15 171.25 268.05 161.25 272.75
Q 160 273.35 155.4 275.9
L 149.65 279.25
Q 147.25 280.6 143.75 282.25
L 126.8 289.15 125.15 289.25 124.15 290.15 118.65 292.5 121.75 292.65 119.25 295.15
Q 118.5 295.85 114.05 300.75
L 112.05 303 114.75 302.75
Q 118.1 302.35 122.3 302.25 125.8 302.2 129.85 302.5
L 137.35 303.25
Q 140.2 303.55 144.9 303.3
L 145.65 303.3 145.85 303.15 145.6 313.9 139.85 320.65 145.5 320.55 143.4 351.25 141.5 401.15 148.1 414.3
Q 153.1 424.1 154.8 427.25 159.1 435.15 162.1 440
L 164.1 443.05
Q 165.4 445 166.35 446.15
L 168.85 449 170.35 450.4 171.3 451 172.5 451.5 172.6 451.55 303.1 454.65 303.1 454.25 270.7 451.25 221.85 449 173.35 448.15 172.9 448 171.75 447.15 168.8 444.15 164.4 438.5
Q 160.1 432.25 156.55 426.3 152.2 419.05 149.3 413.65
L 142.75 400.9 146.85 351.4 148.6 320.55 155.1 320.5 155.1 327.15 161.9 327.05 161.9 320.4 184.85 320.25 184.85 325.75 190.3 331 190.15 319.55 216.55 321 216.6 328.05 221.85 328 221.8 321 333 320.5 331.75 347.9 325.45 382.15
Q 324.25 389.1 323.7 393.75
L 322 405.3
Q 320.65 415.45 320.35 416.9
L 316.6 439.9 303 461.4 298.25 470.9 298.2 475.3 348 475.75 349.35 467.75 353.6 459.15 433.6 460.25 465.75 460
Q 472.4 460 480.75 459.75
L 487.85 476.65 546.3 472.15 605.25 468.8 602.75 441.9 677.65 433.9 677.8 433.9 700.95 419.65 735.5 416.8 735.75 416.75 757.25 406.65 760.05 406.75 760.05 406.65 763.65 406.75 763.65 405.9
Q 774.25 410.45 782.55 415.25 787.8 418.35 792.05 421.65
L 796.25 425.5
Q 798.3 427.7 799.25 430 800.3 432.7 799.4 435 798.65 437.15 796.25 439.25 792.8 442.3 786.55 444.8 782.3 446.6 775.75 448.4
L 770.15 449.55
Q 766.9 450.25 764.5 450.65
L 718.7 456.9
Q 688.5 460.55 672.7 462.75
L 649.9 466.15 626.95 468.5
Q 606.15 470.3 580.75 472
L 534.55 474.9
Q 506.9 476.45 488.35 477.25
L 395.85 480.8
Q 384.55 481.15 372.75 481.15
L 349.6 481
Q 348.65 481 343.85 480.8
L 326.5 480.05
Q 320.45 479.9 314.95 479.55 309.4 479.35 303.35 478.9
L 280.35 477.15 211.3 469.9
Q 195.95 468.05 188.35 466.9
L 178.3 465.55 178.1 465.5 178.05 465.5 177.75 465.4 177.05 465.25
Q 172.4 464.05 171.6 463.75
L 166.3 461.9
Q 155.75 457.5 147.85 449.3
L 144.15 445.05 141.05 440.5
Q 140.25 439.25 139.65 438 139 436.9 138.4 435.55 137.2 432.95 136.4 430.5
L 136.4 430.4 136.35 430.3 131.1 418.5 124.55 407.4 119.65 400.4 114.25 393.65 103 382.55 124.9 390.5 122.9 302.65 122.5 302.65
Q 122.3 317.05 122.3 324.15
L 122.25 386.65 84.65 372.5 98.3 382.75
Q 99.1 383.35 99.9 384.15
L 107.55 391.15 116.9 402.4
Q 118.35 404.2 119.4 405.75
L 129.8 423.9 133 431.4
Q 133.6 433.85 135.1 437.05
L 138 442.3
Q 138.75 443.7 141.35 447.25
L 145.35 451.75
Q 153.65 460.35 165 465
L 170.6 466.9 177.75 468.65 177.85 468.65 188 469.8
Q 193.55 470.5 211 472.4 218.5 473.2 234.05 474.65
L 257.1 476.65
Q 261.25 476.95 280.25 478.5
L 303.35 480.05
Q 308.3 480.5 314.85 480.8 316.7 480.95 326.45 481.4
L 343.85 482.25
Q 346.1 482.4 349.6 482.4
L 372.75 482.9
Q 387.2 483.15 395.95 483 423.8 482.85 442.25 482.3
L 488.5 480.9
Q 508.6 480.1 534.8 478.8
L 581.05 476.25
Q 602.8 474.85 627.25 472.75
L 661.9 468.5 673.3 466.65
Q 693.5 463.65 719.15 460.25
L 753.5 455.3 773.5 451.5
Q 776.2 450.85 776.4 450.75 782.65 449 787.5 446.9 794.05 444.05 797.65 440.75 800.3 438.25 801.2 435.65 801.65 434 801.65 432.5 801.45 430.95 800.9 429.4 799.85 426.9 797.45 424.4
L 793 420.5
Q 788.9 417.55 783.15 414.25 773.9 409.3 763.65 405.4
L 764 382.3
Q 764.5 380.8 765.05 379.5 765.8 377.9 766.75 376.75
L 767.75 375.55 770.15 373.75 770.65 373.5 771.8 373.9 772.5 374.4
Q 773.05 374.8 773.5 375.55
L 774.15 377
Q 774.55 378.5 774.45 380.15
L 773.8 398.3 785.25 403.3 785.25 403.9 786.7 403.9 835.5 420.8
Q 837.3 421.35 844 422.75
L 912.75 432.9 923.2 434 923.5 405.5 882.95 396.5 882.9 396.05
Q 882.7 394.6 882.5 393.9
L 881.8 391.75 880.75 389.75 879.25 388.05 878.4 387.3 875.5 385.65 873.5 384.9 873.25 384.9 859.05 382.8 858.95 382.75 846.7 383.4 846.5 358.4 829.45 358.65 829.2 310.5 843.2 310.55 809.95 293.25
M 724.8 310.25
L 724.8 309.8 707.55 309.9 702.45 311.5 670.7 311.4 670.7 311.75 641.3 312.4 641.3 312.15 600.15 313.75 600.15 313.9 563.05 314.05 563.05 314.25 562.5 314.25 534 301.5 532 302.5 529.4 303.05 529.3 303.05 506.75 315 505.75 315.25 436.1 316.65 436.1 316.5 400.25 316.65 400.25 316.9 366.75 318.4 366.5 318.15
Q 364.85 316 363 314.15
L 355.35 306.8 354.6 306.25 445.75 306 472.75 298.05 595.5 299.25 719 301.4 741.5 297 808.8 296.15 832.45 308 764.25 308.5 764.25 308.4 751.2 308.4 751 308.5 738.25 310 738.25 310.25 724.8 310.25
M 825.3 383.25
L 824.95 384 816.8 397.75 823.15 360.3 844.4 360.55 844.2 383.15 825.3 383.25
M 553.9 142.45
L 557.7 138.85 569.7 143.15 553.9 142.45
M 518.8 138.45
L 525.5 141.85 513.15 141.85 518.8 138.45
M 494.6 197.15
L 495.5 197.25 495.1 203.2 494.35 203.25 494.35 199.15 494.6 197.15
M 352.1 56.6
L 352.1 56.7 351.95 56.85 351.7 56.85 351.75 57
Q 351.85 57.35 351.6 57.5 351.35 57.8 351.1 57.55 351.45 57.55 350.95 57.45 350.85 57.35 350.85 57.05
L 350.95 57
Q 350.75 57 350.75 56.95 350.75 56.8 350.85 56.75 350.95 56.6 351.2 56.6 350.95 56.45 350.95 56.25 350.85 56.05 351 56 351 55.9 351.1 56
L 351.2 56 351.2 56.05 351.35 56.05 351.35 56.1 351.1 56.3 351.2 56.5 351.2 56.6 351.35 56.5
Q 351.75 56.35 351.95 56.45
L 352.1 56.6
M 372.85 176.15
L 372.75 174.2 373 174.2 373.1 176.15 372.85 176.15
M 410.5 293.3
L 411.5 293.5 414.45 299.65 407 299.75 395.6 265.4 398.85 266.3 401 271 399.6 270.65 408.45 286.8 408.25 286.5 410.5 293.3
M 415 294
Q 418.55 294.6 422.7 295.05
L 432.85 296.25 434.25 299.55 418 299.65 415 294
M 471.5 291.75
L 469.5 292.3 455.25 290.25 483.75 263.9 471.5 291.75
M 382.5 230.65
L 383.85 230.7 384 230.75
Q 385.55 231.35 386.85 231.7 389.15 232.4 390.75 232.7
L 390.85 234.9 392.1 242.9
Q 392.35 245.15 392.2 246.9 392.05 248.05 391.35 250.9 390.95 252.95 391.1 254.9 391.1 256.65 391.5 258.9
L 391.75 260.05
Q 388.9 258.4 381.95 254.15
L 382.5 230.65
M 336.35 261.25
L 336.35 261.4 337.95 265.5 278.6 266.65
Q 273.55 266.75 268.35 266.65
L 179.25 265.75 193.15 259.9
Q 205.75 254.5 209.6 252.65
L 209.75 253.75 217.25 253.4 217.15 252.45 231.1 252.9 231.1 253.1 233.6 252.95 276.45 254.15
Q 286.55 254.35 291.5 254.35 303.55 254.5 306.6 254.4
L 335.25 254.25 336.35 261.25
M 386.35 269.4
Q 387.45 269.5 388.6 269.05
L 389.45 268.55
Q 389.6 268.55 390.1 268.05
L 390.6 267.65 390.75 267.5 390.75 267.05 390.6 266.9 390.1 266.5
Q 389.85 266.25 389.6 266.15
L 391.1 266.15 391.7 266.9 403.1 299.75 383.2 299.8 378.85 269 378.95 269
Q 379.7 269.1 380 269 380.35 268.95 381.2 268.3 381.9 267.85 382.45 267.9 383.1 267.9 383.75 268.4 384.85 269 385 269
L 386.35 269.4
M 380.45 265.75
L 384.25 265.9 383.75 266.15
Q 383.1 266.65 382.45 266.65 382 266.7 381.2 266.25
L 380.45 265.75
M 378.6 265.65
L 378.1 265.9 377.85 265.65 378.6 265.65
M 334.6 314.65
L 331.75 318.9 219.3 318 186.55 315.65 186.55 316.3 159.6 316.15 159.6 316 150.1 316 160.8 303.9 342.45 306.15 342.1 306.4
Q 340.55 307.85 338.2 310.4
L 334.6 314.65
M 529.5 303.5
L 530.8 303.25 510.6 314.65 509.85 314.65 529.5 303.5
M 562.7 327.5
L 562.8 340.25 595.4 438 595.45 438.25 595.65 438.3 598 440 494.25 443.9 495.6 442.4 512.3 338 512.25 318.25 561.75 318.65 561.7 327.5 562.7 327.5
M 534.05 304
L 555.95 314.25 514.45 314.55 534.05 304
M 271.85 70.75
L 271.85 70.2 272.35 70.7 272.7 70.95 271.2 72.6 271.45 72.1 271.85 70.75
M 270.35 97.95
L 272.35 97.2
Q 274 96.6 275.95 96.35 277.1 96.3 279.75 96.7
L 283.5 97.45 284.1 97.45 281.35 97.7
Q 280.8 97.7 278.5 98.25 277 98.75 275.7 98.75 274.45 98.85 272.95 98.45
L 271.6 98 270.35 97.95
M 213.85 170.5
L 214.85 169.5 267.1 170.75 213.85 170.5
M 264.6 99.95
L 264.25 100.2
Q 264.2 99.45 264 99.2
L 264.75 99.2 266.1 98.95 266 99
Q 265.1 99.45 264.6 99.95
M 133.4 293.3
Q 135.9 293.3 140.85 293
L 148.25 292.4
Q 151.65 292.1 154.85 291.5
L 144.35 299.9
Q 140.15 299.7 137.35 299.9
L 129.85 300.65
Q 126.2 301.1 122.3 301 119.25 300.9 117.65 300.75 120.2 298.8 121.55 297.65
L 126.8 293.3
Q 129.85 293.45 133.4 293.3
M 161.05 299
L 158.6 299 148.35 310.75 148.25 302.05 155.65 294.4 161.05 299
M 319 225.35
Q 319.9 225.35 320 225.45
L 320.75 225.65
Q 321.35 226.05 321.75 226.5 322.1 227.1 322.25 227.9
L 322.35 228.35
Q 321.8 227.95 321.25 227.75
L 320.35 227.5 319.35 227.4 317.75 227.6
Q 316.65 227.85 316.1 228.35 315.35 228.85 314.85 229.75 314.5 230.5 314.45 231.4 314.45 232.15 314.6 232.9 314.95 235.15 314.6 237.15
L 314.35 238.35
Q 314.2 236.65 314.2 234.9 314.2 231.7 314.45 229.95
L 314.45 229.9
Q 314.45 229 314.85 227.9 315.25 227 315.85 226.25 316.6 225.65 317.25 225.5 317.85 225.35 319 225.35
M 280.75 227.5
L 279.75 227.4 278.25 227.6
Q 277.1 227.85 276.5 228.35 275.75 228.85 275.25 229.75 274.85 230.7 274.85 231.4 274.85 232.35 275 232.9 275.4 234.9 275.1 237.15
L 274.75 238.4
Q 274.6 237.25 274.6 234.9 274.6 232.25 274.85 229.95
L 274.85 229.9
Q 274.9 228.8 275.25 227.9 275.65 226.95 276.35 226.25 276.9 225.75 277.75 225.45 278.05 225.35 279.5 225.35 280.3 225.35 280.45 225.45
L 281.2 225.65
Q 281.8 225.95 282.2 226.5 282.55 227.15 282.7 227.9
L 282.75 228.35 281.7 227.75 280.75 227.5
M 240.65 225.45
L 241.35 225.65
Q 242.05 226.05 242.35 226.5 242.8 227.1 242.85 227.9
L 242.9 228.35
Q 242.45 228 241.85 227.75
L 240.9 227.5 240 227.4 238.4 227.6
Q 237.45 227.85 236.75 228.35 235.9 228.85 235.5 229.75 235.15 230.6 235.1 231.4 235 232.15 235.15 232.9 235.65 234.85 235.3 237.15
L 234.9 238.4
Q 234.8 237.25 234.8 234.9 234.9 231.25 235.05 229.95
L 235.05 229.9
Q 235.1 228.75 235.5 227.9 235.85 226.95 236.55 226.25 237.05 225.65 237.9 225.5 238.45 225.35 239.65 225.35 240.55 225.35 240.65 225.45
M 491.6 440.5
L 489.35 443 484.1 437.3 506.1 353.65 491.6 440.5
M 708.25 314.9
L 708 314.9 708.7 314.75 708.25 314.9 720 314.65 720 323.3 726.55 323.3 726.55 314.9 736.75 314.8 736.75 320.5 742.75 320.5 742.7 313.9 751.55 312.65 760.25 312.5 760.25 320 765.55 319.9 765.55 312.4 788.5 312.25 788.5 318.3 792.9 317.8 792.75 311.75 817.05 311.55 817.25 317.75 821.5 317.75 821 311.05 827 311 828.25 358.65 821.7 358.75 816.05 399.05 814.95 401 788.5 400.65 788.5 380.75
Q 788.3 378.2 787.7 376.75 786.85 374.5 785.5 373.15 784.15 371.6 782.15 370.55 780.65 369.85 778.25 369.3
L 774.5 369 774.25 369.05 773.4 369.15
Q 772.7 369.15 772.45 369.25
L 770.3 369.75 767.5 371.05 766.7 371.75
Q 766.1 372.15 765.15 373.05
L 763.8 374.65
Q 762.8 375.95 761.8 378
L 760.75 380.55
Q 761.1 379.2 761.65 377.8 762.2 376.1 763.45 374.05 764.9 372 766.15 371
L 768.55 369.25 770.5 368.5 773.55 367.8 775.2 367.65 777.95 367.75
Q 780.35 367.95 782 368.5
L 782.55 368.65 784.9 369.9 785.75 370.5
Q 787.15 371.7 787.4 372
L 788.75 373.65
Q 789.9 375.25 790.75 377.65 791.5 379.85 791.8 382.15
L 792.25 382.15
Q 792.4 379.75 791.8 377.4 791.35 375.05 790.25 372.8 789.65 371.7 788.95 370.75 788.7 370.35 787.25 368.8 785.95 367.65 784.7 366.9 785.05 361.7 785.25 356.65
L 789.9 356.9 786.4 352.65 785.95 348.25 785.95 347.25 785.8 346.15
Q 785.55 344.75 785 343.75
L 784.2 342.65 783.55 342.15
Q 783.4 341.9 782.95 341.75
L 781.5 341.25 779.7 341 779.25 340.8 779.2 340.75 779 340.65
Q 778.85 340.5 778.75 340.15
L 778.45 339 778.4 338.9 777.75 338.05 777.8 337.25 777.4 337.5 775.25 329.3 774 338.05 773.65 339.3
Q 773.2 340.5 772.65 340.9
L 772.5 341 771.8 341.15
Q 771.75 341.2 770.5 341.3 769 341.45 768.5 341.75 767.35 342.2 766.65 343.4 766.15 344.25 765.95 345.25
L 765.9 345.4 765.9 345.55 765.8 345.65 765.25 349.8
Q 765.1 351.2 764.7 352.5 764.5 353.05 764.15 353.4 763.9 353.65 763.4 353.75
L 761.45 354 764 356.75 764 367.9 762.25 369.15 760.5 371.05
Q 759.6 372.2 759.05 373.15
L 757.95 375.4
Q 756.95 377.6 756.4 380.25
L 755.45 395.05
Q 755.25 398.85 755.2 403.8
L 734.95 413.75 734.75 413.75 700.45 417.15 700.15 417.15 677.2 431.9 602.65 440.65 602.55 439.8 600 439.9 596.5 437.5 565.05 339.8 565.2 327.5 568.3 327.5 568.05 318.9 598.15 319 598.05 326.9 605.45 326.9 605.5 318.8 636 317.75 636 326.4 643.5 326.4 643.5 317.75 668.9 317.05 668.9 324.8 675.95 324.75 675.95 316.65 700 316.55 700 321.25 705 321.25 705.05 315.9 708.25 314.9
M 769.7 344.75
Q 769.85 344.65 770.65 344.65 771.7 344.65 772.3 344.5 772.85 344.5 773.3 344.3
L 773.5 344.25 773.75 344.25 774.45 343.9
Q 775.2 343.35 776 342.4 776.15 342.7 776.25 342.75 776.9 343.55 777.55 343.8
L 778 344 778.95 344.3 781.5 344.75 781.7 344.8 782.2 345.4
Q 782.55 346 782.7 346.75
L 783.75 353.8 784.25 354.4 784.2 354.4 783 354.5 784 366.5 783.05 366 780.7 365.15 778.55 364.65 781.5 364.75 781.5 364.05
Q 781.6 361.9 782.2 358.75
L 782.8 352.05 782.4 349.15 781.75 347.65 780.7 346.3 779.25 345.25
Q 778.9 345 778.5 344.9
L 777.7 344.65
Q 776.65 344.4 776.15 344.4
L 774.9 344.4 773.2 344.75 771.75 345.4
Q 770.95 345.85 770.5 346.3 770.25 346.5 770 346.9 769.75 347.25 769.5 347.55
L 769 349
Q 768.8 350.45 769.25 351.65
L 769.7 351.65 770.05 350.5 770.65 349.55
Q 771.1 349 771.3 348.9
L 772.05 348.4 772.9 348.15 773.75 348.05 775.25 348.15 775.75 348.25
Q 776 348.25 776.5 348.5
L 777.4 349 777.75 349.55
Q 777.85 349.6 778 349.9
L 778.4 350.55 778.7 351.4 779 353.3 779 353.5 780.2 363.5
Q 778.75 363.5 778 363.4
L 772.3 362.5
Q 771.95 362.4 771.25 362.4
L 770.9 358.75 769.7 353.5 769.25 353.5
Q 768.9 354.4 768.5 356.15
L 768 358.75
Q 767.7 361.85 767.7 364.05
L 767.65 365.65 767 365.9 765.25 366.9 765.7 356.15 765 355.25 765.4 355
Q 765.95 354.65 766.65 353.5 767.35 352 767.75 350.3
L 768.7 346.25 768.75 346.15 768.75 346 769.25 345
Q 769.5 344.75 769.7 344.75
M 780.65 373.75
Q 782.1 374.5 782.95 375.4 783.95 376.65 784.45 377.9 784.9 379.05 785.05 380.9
L 785.2 399.9 776.5 396.55 775.9 380.25
Q 775.9 378.5 775.2 376.65
L 774.75 375.75 774.25 375
Q 773.7 374.15 772.95 373.75
L 772.15 373.25 771.5 373.05 772.8 372.75
Q 773.1 372.65 773.65 372.65
L 774.5 372.65 774.75 372.55 774.8 372.65 777.7 372.8
Q 779.6 373.2 780.65 373.75
M 846.75 385.75
L 846.75 385.4 858.65 385.65 872.5 388.3 874 388.9 875.45 389.75 877.15 391.25
Q 877.45 391.55 877.55 391.9
L 878.25 393.25 878.75 394.75 878.95 396.25 878.95 397.05 878.55 399.65 919.5 408.75 919.75 430.3 904.4 429.15
Q 892.85 428.35 887.15 427.65 882.8 427.3 878.5 426.75
L 861.4 424.3
Q 859.4 424 852.9 422.75
L 844.5 420.8
Q 838.35 419.15 836.25 418.5
L 816.15 410.5 797.45 404 816.65 404.15 827 386.15 846.75 385.75
M 503 158.9
L 503.25 159
Q 503.7 159.45 503.85 159.9 504.4 160.8 504.75 162.45
L 505.35 168
Q 505.45 170.9 505.35 173.75
L 505 179.5
Q 504.35 188.45 504.25 190.95 504.1 193.85 504.25 202.4
L 504.25 202.65 501 202.9 501.1 202.4
Q 501.3 198.55 501.5 190.95 501.7 185.3 501.6 179.5
L 501.35 168.15
Q 501.35 164.9 501.6 162.65 502.05 160.5 502.2 160.15
L 502.75 158.95 502.7 158.95 503 158.9
M 351.35 59.5
L 351.6 59.5
Q 351.8 61.45 352.45 64.7
L 354 70.75 355 73.25 355 73.35 355.1 73.45 355.1 73.6 357.1 76.45 365.7 85.2
Q 367.1 86.8 367.35 87.25 367.75 87.75 368.7 89.45
L 369.35 91.85
Q 369.55 93.5 369.35 94.25 369.3 95.3 368.7 96.7
L 368.1 97.85 368 98.1 358 97.2 344.6 97.6 340.25 98.1
Q 338.9 98.15 338 98.35
L 334.1 98.85 333.6 97.95 333.2 96.7
Q 332.85 95.5 332.85 93.95
L 332.85 92.6 333.5 90 334 88.6
Q 334.15 88.05 335.25 86.45 335.5 86 337 84.45
L 345.75 76.2 346.2 75.6 346.35 75.45 346.35 75.35 346.5 75.2 347.6 73.45
Q 348.05 72.55 348.85 70.5
L 349.75 67.6 350.75 61.55 350.85 59.25 351 59.35 351 59.45 351.25 59.45 351.35 59.5
M 338.6 70.35
L 338.95 70.7 338.7 70.95 338.6 70.35
M 340.5 69.5
Q 340.9 69.4 341 69.45 341.25 69.6 341.25 69.7
L 341 69.85 340.75 69.95 340.85 70
Q 340.9 70.3 340.7 70.5 340.55 70.7 340.45 70.7 340.35 70.75 340.25 70.6 340.45 70.6 340 70.45
L 340 69.95
Q 339.85 70.1 339.85 69.95 339.8 69.9 339.95 69.75
L 340.1 69.7 340.25 69.7
Q 340.05 69.35 340 69.25 340 69.1 340.1 69.1 340.1 69 340.25 69
L 340.25 69.1 340.45 69.1 340.25 69.25 340.25 69.7 340.5 69.5
M 339.35 77.1
L 339.85 76.85 340.5 76.2 340.75 76.35 336.5 79.95 337 78.95 337.75 76.7 337.95 75.85 338.25 76.35 339 77.1 339.35 77.1
M 326.85 83
Q 324.9 82.45 324.35 82.35 323.35 82 321.5 82
L 318.45 81.95
Q 316.9 82.05 315.25 82.35 313.6 82.8 312.1 82.7 311.25 82.7 309.1 82.2 307.35 81.6 306.25 81.5 305.2 81.4 303.6 81.7
L 301.5 82.25 299.85 83 299 83.6 297.75 81.7 297.1 81 302.25 80.85
Q 303.55 80.85 304.6 80.95
L 319 81.5 330.7 82.95 332.1 83.35 333.35 83.2
Q 332.8 83.85 332.45 84.6 331.4 86.1 331.1 87.7
L 330.5 90.95 330.7 94.2
Q 330.85 95.5 331.5 97.25 331.65 97.8 332.25 98.7
L 332.75 99.5 332.1 99.95 331.75 100.5 331.6 101.25
Q 331.75 102 332.2 102.45
L 332.35 102.6 332.45 102.6 332.85 102.85 333.5 102.95 334.25 102.95 334.35 103 334.35 103.45 334.25 104.35 334.2 104.45 334.2 104.75
Q 333.8 114.6 334 121.2 334.1 128.75 334.35 137.65
L 334.45 138.1 334.5 138.25 335.25 139.5 336.1 140.45
Q 336.85 141.4 337.95 141.95 338.7 142.55 339.95 143.1
L 342 143.9 346.6 144.65 318.6 144.15 265.35 144.65
Q 261.75 144.75 254.65 144.65 244.8 144.3 244 144.25 238.45 144.1 233.35 143.75
L 222.85 143.15 223.8 142.9
Q 228.55 141.45 229.4 141.15
L 235.05 139.35
Q 235.25 139.25 240.6 137.5
L 257.25 131.75 263 131.4 263.6 137.4
Q 263.6 138.85 264.25 139.95 264.95 141.2 266.25 141.9 267.15 142.35 268.75 142.5
L 285.5 144.4 291.2 144.2 293.1 143.9
Q 295.05 143.35 296 142.4 296.9 141.65 297.25 140.7 297.45 140.25 297.6 138.95
L 297.6 136.45
Q 297.7 136.1 297.6 135.7
L 299.25 136.65
Q 301.4 137.55 301.6 137.6 304.25 138.15 304.5 138.15 305.05 138.25 307.85 137.95
L 309.6 137.75
Q 310.85 137.75 311.35 137.9 312.7 137.95 314.95 138.65 317.7 139.3 318.5 139.4 321.05 139.7 322.1 139.7 323.35 139.85 325.5 139.6
L 328.5 138.85
Q 331.4 137.85 332.7 136.25 333.2 135.6 333.35 134.9
L 333.25 134.25 332.85 134.35 332.6 134.6
Q 332.35 134.8 331.7 134.95
L 330.1 135.2 325.1 135.4
Q 323.95 135.4 322 135.6
L 313.25 136.65
Q 312.4 136.8 311.5 136.65 309.75 136.6 308.1 135.85 306.35 135.05 305.1 134.7 304.3 134.45 302.25 134.2
L 297.7 134.1 297.6 129.65 301.75 129 301.35 128.5 300.5 127.7 300.25 127.85 300.45 128.35 299.25 128.15 299.6 122.2
Q 299.9 124.7 300.2 126.1
L 300.5 126.1
Q 301.1 122.8 301.35 119.95 301.7 117.15 301.85 113.75
L 301.6 100.25
Q 301.3 99.25 300.75 98.7 300.5 98.45 300.1 98.35
L 299.75 98.2 299.25 98.2 299 98.25 298.45 98.5
Q 297.6 99.05 297.45 100 297.2 100.9 297.45 102.35
L 297.75 108.25
Q 297.85 109.7 297.6 112.25
L 297.1 116.25 297.1 116.5 295.35 98.45 295.5 98.45 295.85 98.6 297.35 98.7
Q 298 98.55 298.1 98.45 298.25 98.45 298.5 98.1
L 298.6 97.6 298.5 97.2 298.35 96.95 299.6 94.85
Q 300.4 92.75 300.6 91.5 300.9 89.9 300.6 87.95
L 300.25 86.2 299.6 84.6 299.6 84.5 303.95 85.1
Q 305.75 85.1 306.35 85 307.3 84.9 309.1 84.35 309.85 84.05 310.6 83.95 311.2 83.8 312.1 83.95 313.4 83.95 315.1 84.6 315.35 84.65 318.1 85.5
L 321 86.1
Q 323.35 86.6 326.25 86.6
L 330.1 86.2 331.7 85.75 331.75 85.35
Q 331 84.85 330.45 84.6
L 328.85 83.85
Q 328.05 83.4 326.85 83
M 366.5 102.6
L 366.35 103.35 365.35 121.6
Q 365.25 127.9 365.45 131.9 365.55 134.6 365.75 137.15
L 366.1 141.9 365 142.4 363.1 142.9 356.95 143.65 350.7 143.5
Q 350.1 143.5 348.7 143.25 348.2 143.25 346.7 142.9
L 342.85 141.65
Q 341.45 141 341.2 140.75
L 339.7 139.65
Q 339.1 139.15 338.45 138.4
L 337.75 137.4 337.75 137.35
Q 338.2 121.5 338.2 121.2 338.35 114.9 338 104.95 338.15 104.05 338 103.1 338 102.5 337.7 101.7
L 351.85 99.6 351.85 99.5 367 101.7 366.95 101.75
Q 366.65 102.15 366.5 102.6
M 364.85 144.2
L 369.35 145.25
Q 365.45 145.2 361.25 144.95
L 353 144.85 361.2 144.6 364.85 144.15 364.85 144.2
M 356.25 159.45
L 355.6 158.65 354.1 157.15 353.1 156.5 352.2 156.1
Q 350.9 155.55 350.1 155.4
L 349.6 155.35 349.5 155.35 349.5 155.25 349.25 155.25 349 155.2 346.85 155.15 345.7 155.25
Q 344.85 155.4 344.5 155.6
L 343.45 156 342.35 156.65 340.6 158.4 340 159.4
Q 339.5 160.45 339.25 161.65
L 339.1 162.9 339.5 165.95
Q 339.7 167.65 340.1 169
L 335.1 168.9 335.6 166.25
Q 335.85 165.15 335.85 164.35 336.05 163.2 335.85 162.15 335.8 161.05 335.45 159.9 334.9 158.4 334.45 157.75
L 333.7 156.75 332.75 155.9
Q 331.85 155 330.6 154.65 329.9 154.4 329.35 154.2
L 328.1 154 326.75 153.95 323.7 154.45
Q 322.05 155 321.5 155.4 321.3 155.45 320.45 156
L 319.5 156.85
Q 318.85 157.4 318.1 158.7
L 317.85 159.25 317.85 159.2
Q 317.25 158.4 316.5 157.65
L 315.25 156.65 314.75 156.4
Q 314.15 155.95 313.85 155.9
L 311.85 155.15 310.85 154.9
Q 309.65 154.85 308.7 154.65 306.7 154.8 306.5 154.9 305.4 155.05 304.35 155.65
L 303.25 156.25 302.35 157.15
Q 301.45 158.25 301 159.15 300.55 159.95 300.25 161.35
L 300.2 163.15 301 167.9 295.5 167.75
Q 295.75 166.95 296 165.5
L 296.25 163.6
Q 296.4 162.1 296.25 161.35
L 295.85 159.15
Q 295.35 157.8 294.85 156.95
L 294.1 155.95 293.1 155.1
Q 292.25 154.3 290.95 153.75
L 289 153.25 287 153.15 286.75 153.2 286.2 153.25 284 153.65
Q 282.4 154.2 281.75 154.6 281.45 154.7 280.75 155.25 280.2 155.6 279.85 156.1 279 156.85 278.35 158
L 278.1 158.65 278.1 158.5 276.75 156.9 275.95 156.2 274.1 155.15 273.1 154.75 271.1 154.2
Q 269.2 154 268.95 153.95
L 266.75 154.15
Q 265.8 154.3 264.5 154.9
L 262.6 156.4
Q 261.65 157.4 261.2 158.4 260.75 159.1 260.5 160.65
L 260.35 161.75 260.7 164.85
Q 261 166.55 261.2 167.25
L 255.6 167.2
Q 256.1 165.3 256.25 163.9
L 256.6 161.85
Q 256.7 160.45 256.35 159.5 256.15 158.35 255.6 157.2 254.9 156.1 254.05 155.25 252.9 154.25 252 153.85 251.35 153.5 250.85 153.4 249.95 153.05 249.65 153
L 247.4 152.7 244.05 153 242.9 153.25 240.75 154.2
Q 238.4 155.5 237.35 157.5 237.05 158 237 158.25
L 236.35 157.35 235.1 156.1
Q 233.85 155.15 233.65 155.15
L 232.1 154.4
Q 231 154 230.5 153.9
L 229.65 153.75 229.35 153.65 228.85 153.65 227.1 153.5 225.3 153.7
Q 224.55 153.9 223.5 154.35 222.55 154.8 221.85 155.4 221.25 155.95 220.6 156.7 219.9 157.6 219.6 158.35 219.3 158.85 218.85 160 218.6 161.1 218.6 161.9
L 218.6 162.1 219.4 167 213.65 167 208.8 172.65 209.3 171.1 209.65 169.25
Q 210 167.75 210.15 165.65 210.3 164.25 210.3 161.95 210.25 160.7 209.8 158.35
L 209.6 157.6 207.3 156 206.85 155.25
Q 208 153.1 209.3 151.65
L 210.8 149.9 212.05 150.7 211.9 153.9 212.85 162.4
Q 212.9 163.4 213.3 164.45
L 213.85 166.6 214.3 166.6
Q 214.75 165.3 214.85 164.45
L 216.25 153.9 216.05 148.4 213.1 147 212.15 146.1 244 145.85
Q 246.65 145.8 249.35 145.85
L 234.75 145.95
Q 213.55 146.25 213.5 146.25
L 213.5 146.65 340.85 150.1
Q 351.4 150.35 362.1 150.4
L 380.2 150.6 378.25 151.7 378.35 170.4
Q 376.2 170.35 373.75 170.15 374.15 168.85 374.5 166.65
L 374.85 164.65
Q 374.9 163.5 374.75 162.4 374.65 161.55 374.25 160.15
L 373.75 159 373.1 157.95
Q 372.4 156.85 371.35 156.15
L 370.25 155.4 369.1 154.9 367.35 154.5 367.1 154.5 366.6 154.45 364.25 154.6 362 155.15
Q 361.05 155.5 359.75 156.25
L 358 157.9 357.25 158.9
Q 357.1 159.15 356.75 159.95
L 356.6 160.2 356.25 159.45
M 361.75 159.45
L 363.2 158.95 364.75 158.7 367.1 158.85 367.25 158.9 367.75 158.95 369 159.5
Q 369.45 159.75 370.1 160.4
L 370.6 160.9 371 161.6
Q 371.3 162.1 371.7 163.1
L 372.2 164.7 372.5 166.65
Q 372.85 168.95 373.2 170.15
L 340.95 169.1
Q 341.3 167.8 341.6 165.95
L 342 163.2 342.25 162.45
Q 342.6 161.65 343 161.15
L 343.45 160.5 343.95 160 345.75 158.85 346.5 158.5 349.25 157.7 349.35 157.7 349.35 157.65 351.7 157.65 352.5 157.85 353.35 158.2 354 158.7 354.7 159.4
Q 355.25 160.15 355.5 160.9 355.9 161.95 355.95 162.7
L 356 163
Q 355.85 163.65 355.95 164.4
L 355.95 164.45 358.1 164.5 358.7 162.9 359.5 161.45 360.5 160.35 361.1 159.85 361.75 159.45
M 324.6 158.4
L 326.2 158.2 326.95 158.2 328.5 158.4 329.1 158.65
Q 329.65 158.75 330.25 159.15 330.7 159.45 330.75 159.6
L 331.25 160
Q 331.75 160.6 332.1 161.25 332.65 162.35 332.75 162.7 332.85 162.95 333.25 164.4
L 334 168.85 302.2 167.9 303.1 162.85 303.35 162.1
Q 303.55 161.45 304 160.7 304.25 160.3 304.95 159.65
L 305.45 159.15 306.1 158.75
Q 306.7 158.35 307.45 158.1 307.85 157.85 309 157.5
L 311.7 157 312.5 157.1
Q 313 157.1 313.35 157.2
L 314.2 157.45 315 157.9 315.6 158.45
Q 316.2 159 316.6 159.9 317.05 160.75 317.2 161.6
L 317.25 162.1
Q 317.15 162.65 317.25 163.2
L 319.45 163.2
Q 319.6 162.55 320 161.7
L 320.85 160.4 321.85 159.4 322.5 159.1
Q 322.7 158.85 323.1 158.75 323.8 158.5 324.6 158.4
M 348.75 196.15
L 349.25 195.25 352.85 191.5 355 188.25 355.1 188.5 355.85 189.85 356.85 190.9
Q 357.15 191.3 357.85 191.75
L 358.6 192.25 358.7 192.35 358.75 192.35 358.85 192.4 360.75 193.65 361.35 194.15
Q 361.65 194.2 362 194.65
L 362.1 194.7 362.2 194.7 362.35 195 362.75 196.7 362.75 197.65 362.5 198.65 359.5 199.1
Q 358 199.25 356.1 199.25 354.15 199.25 352.6 199
L 349.1 198.4 348.75 198.4 348.6 197.15
Q 348.6 196.6 348.75 196.15
M 426.7 212.75
Q 427.25 214.25 428.2 215.95
L 428.35 216.15 428.25 216.15
Q 426.5 216.15 424 215.85
L 420.6 215.45 423.5 206
Q 423.85 204.5 424 203.2
L 425 207.7 426.7 212.75
M 418.75 227.7
Q 420.75 228.35 424.25 229.15
L 429.35 230.35 441.2 256.5 434.6 256.65 434.6 256.8 421.2 257.5 421.25 258 410.35 258 410.35 257.4 408.95 257.3 408.75 256.4 408.6 256.4 408.45 256.5 406.6 257.15 405.75 257.15 415.85 235.2
Q 418.2 229.2 418.75 227.7
M 433.5 260.5
L 433.6 263.25 438.5 263.3 438.5 262 443.35 263.5 445.35 264.5 445.7 264.75 445.75 265.5
Q 445.9 267.3 445.85 268.25
L 445.25 271.15
Q 445 272.8 445 274 445 275.05 445.25 276.8 445.65 278.7 445.95 279.65 446.15 280.5 446.75 281.9
L 444 281.5
Q 439.75 280.85 437.2 280.3 434.45 279.85 430.35 278.9
L 404.2 271.8 404.85 270
Q 405.1 269.35 405.2 268.4 405.35 267.5 405.2 266.65
L 404.75 264.9 404.6 264.5 405 264.55 406.85 262.25 408 261.3 408 263.15 411.25 263 411.2 259.4 421 259.4 420.85 262.25 423.25 262.4 423.25 259.5 428.75 259.8
Q 430.95 260 432.1 260
L 433.5 260.5
M 412.2 284.9
L 406.75 275.8 430.1 280.05
Q 434.15 280.95 436.85 281.75
L 453.25 286.25 448 291 437.7 296 445.1 299.25 445.35 299.4 444.85 299.5 439.5 299.5 436.5 298.4 435 293.5 413.75 289.5 412.25 285.15 412.2 284.9
M 449.85 293.75
L 459.85 295.15 447.25 298.8 443.25 296.25 449.85 293.75
M 369.35 221.85
L 380.75 222.15 380.75 225.35 387.95 225.25 390.35 227.75 379.95 228 380.1 233.6 372.5 233.6 372.1 230.85
Q 372.05 229.55 371.7 228.4
L 371 227.2
Q 370.4 226.6 369.85 226.25
L 368.5 225.65
Q 367.65 225.6 367.1 225.4
L 365.85 225.45 365 225.65 363.6 226.4 363 226.9 362.5 227.5 361.75 229.4
Q 361.6 229.85 361.6 230.65 361.6 231.25 361.85 231.9 361.85 232.2 362.25 233
L 362.35 233.15 362.5 233.2 363.1 233.65 355.85 233.65 356.25 233.6 355.85 230.85
Q 355.6 229 355.35 228.4
L 355.1 227.85 354.7 227.2
Q 353.95 226.45 353.6 226.25
L 352.25 225.65
Q 351.4 225.6 350.85 225.4
L 349.6 225.45 348.75 225.65 347.35 226.4 346.75 226.9 346.25 227.5 345.95 228.15
Q 345.6 228.75 345.5 229.4 345.35 229.9 345.35 230.65 345.35 231.25 345.5 231.9
L 346 233 346.2 233.2 346.85 233.65 336.85 233.65 334.75 223.6 336.1 222.7 358.1 221.7
Q 365.2 221.7 369.35 221.85
M 367.1 229.6
L 368 229.5 368.85 229.65 369.5 229.95 370.25 230.45 370.75 231.2
Q 370.95 231.5 371.1 232.1
L 371.1 232.15 369.45 231.5
Q 368.5 231.15 367.1 231.2 366.05 231.25 364.75 231.65 363.35 232.3 363.1 232.45
L 363.95 231.35 365.1 230.25 365.6 229.95 366.45 229.7
Q 367.2 229.7 367.1 229.6
M 379.6 238.85
L 380.2 238.85 380.6 254.9 391.6 261.4 391.75 261.9 378.45 261.5 379.6 238.85
M 361.85 201
L 361.45 207.7
Q 361.3 210 361.35 212.45
L 360.1 212.65 349.6 212.95 350 210.95
Q 350.35 209.6 350.5 207.65 350.7 206.3 350.75 204.25 350.9 202.15 350.75 201.1
L 352.6 200.7
Q 354.2 200.45 356.1 200.45 357.5 200.45 359.5 200.65
L 361.85 201
M 340.6 246.15
Q 340.85 244.9 340.85 243.1 340.85 240.15 340.35 237.2
L 376 237.4 377.2 261.5 368.35 261.3 375 268.25 380.85 299.8 350.2 300 349.35 289.15
Q 349.05 285.6 348.6 282.15 348.1 277.75 347.6 275.15
L 347.25 275.15
Q 347 277.05 346.6 282.25
L 346.1 300 327.75 300 326.25 287.3
Q 325.85 281.55 325.85 279.15
L 326 272.5 330.35 272.8
Q 332.9 272.9 336.1 272.9 338.9 272.9 341.75 272.75 344.95 272.65 347.45 272.4
L 349.2 272.3 346.85 264.9 346.2 265
Q 344.5 265.15 341.75 265.5
L 340.35 261.5 340.85 261.5 340.75 261.15 340.85 261.15
Q 340.85 258.8 340.5 256.5
L 339.7 252.45 339.7 252.25
Q 339.7 250.3 339.95 249.15
L 340.6 246.15
M 354.5 231.2
L 354.85 232.1 354.85 232.15
Q 354 231.95 353.2 231.5 352.15 231.15 350.85 231.2 349.6 231.35 348.5 231.65 347.8 231.9 346.85 232.45
L 347 232.15 348.25 230.7
Q 348.5 230.4 348.85 230.25
L 349.35 229.95 349.75 229.85 350.1 229.7
Q 350.85 229.7 350.85 229.6
L 351.75 229.5 352.6 229.65 353.25 229.95 354 230.45 354.5 231.2
M 345.35 266.75
L 345.85 269.65 341.75 269.5
Q 337.95 269.3 336.1 269.3 332.5 269.2 330.35 269.4
L 323.2 269.9 323.35 271.15
Q 324.25 277.15 324.5 279.25 324.85 283.25 325 287.4 325.1 290.15 325 291.5
L 324.95 300 295.1 299.8 294.75 294.75 296.7 295.25 298.7 295.25 298.6 293.4
Q 298.6 292.85 297.95 291.5 297.35 290.55 297.45 289.55 297.45 288.9 298 287.65 298.5 286.7 298.7 285.75
L 299 283.75
Q 299 283.25 298.75 282.4 298.5 281.55 297.85 280.8 297.25 280.2 296.35 279.9 295.75 279.75 295 279.8
L 293.6 280.15 292.85 269.5 279.85 270
Q 279 270 268.45 270.65
L 266.7 267.9 319.85 268.65
Q 328 268.9 340.5 269.05
L 343.1 269.05 342.1 266.3 345.35 266.75
M 393.35 262.15
L 393.75 260.9 393.85 260.3 402.85 260
Q 403.35 261.6 403.1 263.15 402.95 264.3 401.85 266.5 401.6 267.25 401.6 268.15
L 401.6 268.5 399.85 265.05 399.5 265 394.5 263.75 393.35 262.15
M 399.35 326.75
L 402.25 326.75 402.25 318.65 433.95 318.8 434.25 326.3 437.35 326.65 437.25 319.15 503.5 318.9 503.5 324.65 506.25 324.75 506.6 318.75 507.25 318.65 506.5 337.15 480.1 435.9 439.1 437.4
Q 429.6 437.7 425 438
L 369.85 437.65 368.7 408.75 366 365.3
Q 365.2 354.9 364.75 350.9
L 363.25 321.9 362.85 321.9 361.95 351 362.35 365.5
Q 362.5 367.75 362.6 372
L 360.95 347.8 360.5 321.4 369.5 321.75 368.2 320.15 399.5 318.9 399.35 326.75
M 344.5 308.8
L 346.5 306.25 348.6 306.25
Q 349.25 306.8 350.35 308
L 353.6 312.25
Q 354.2 313.05 356.75 316.65
L 358.25 318.65 345.35 318.65 345.35 319 333 318.9
Q 334.5 317.9 336.45 316.4 338.55 314.75 340.6 312.75 343 310.65 344.5 308.8
M 350.35 306.25
L 352.2 306.25 353.6 308.4
Q 354.1 309.25 355.85 311.65 355.15 311.1 355 311
L 350.35 306.25
M 359.6 320.25
L 360 320.8 358.1 347.9 359.6 382.55 364 444.75 364.35 457.65 352.75 457.8 349.85 464.5 351.6 454.4 355.25 439.65 318 439.9 318.6 434.4 328.85 382.75 334.6 348.15 333.5 320.5 344.25 320.9 344.25 327.9 346.75 327.9 347.1 320.5 359.6 320.25
M 363.5 390.4
L 363.7 394.5
Q 364.05 401.75 364.5 409
L 366.5 437.75 365.6 446 364 417 363.5 390.4
M 491.5 219.85
L 490.6 219.9 489.7 220.4
Q 489.15 220.7 488.6 221.45 488.1 222.2 487.6 223.6 487.05 225.35 486.85 227.4
L 486.75 231.1
Q 486.6 235.1 486.75 238.15 487 242.9 487.2 245.2
L 487.25 245.65 486.25 246.9 484.95 210.35 507.1 208.5 507.1 292.15 506.5 292.15 496.35 259 486.75 259.4 486.25 247.25 487.35 247.2
Q 487.45 248.45 487.85 252.25
L 488 253.4 488.85 253.25
Q 493.3 252.6 493.95 252.45
L 493.95 252.1 489.95 251.45 490.35 246.95 495.25 246.4 495.1 245.4
Q 494.6 240.75 494.5 238.35 494.5 234.7 494.75 231.25
L 495 227.65
Q 495.15 225.5 494.85 223.9 494.7 222.75 494.25 221.85 493.9 221.1 493.45 220.65 492.65 219.85 491.5 219.85
M 491.6 224.7
L 491.75 224.2 491.85 224.15 492 224.6
Q 492.45 226.15 492.75 227.85
L 493.1 231.25
Q 493.4 234.55 493.25 238.35 493.25 240.85 492.85 244.15
L 491.85 244
Q 492 241.9 491.85 239.15
L 491.25 228.5
Q 491.25 226.55 491.35 225.95 491.4 225.25 491.6 224.7
M 488.1 262.8
L 494 262.4 504.25 292.05 475.95 291.65 488.1 262.8
M 310.1 17.9
L 310.5 17.9 310.5 17.75 310.7 17.55
Q 311.15 17.35 311.6 17.4 312.05 17.4 312.25 17.65 312.5 17.8 312.5 18
L 312.5 18.4 312.35 18.65 308.7 18.5 309.2 18
Q 309.35 17.8 309.45 17.9
L 309.75 17.8
Q 310.05 17.8 310.1 17.9
M 279.6 54.5
L 279.35 54.7 279.35 55 279.35 55.1 279.45 55.05 279.6 54.95
Q 279.85 54.8 280.1 54.8
L 280.35 55 280.35 55.1
Q 280.3 55.25 280.2 55.25 280.05 55.3 279.85 55.25
L 279.95 55.35
Q 280.05 55.65 279.75 55.95 279.6 56.2 279.35 56
L 279.1 55.8 279.1 55.5 279.2 55.35 279.1 55.35
Q 279 55.45 279 55.3 278.95 55.25 279 55.1
L 279.35 55 279.1 54.7
Q 279.1 54.45 279.2 54.45 279.2 54.3 279.35 54.45
L 279.45 54.5 279.6 54.5
M 279 57.5
L 279.1 57.6 279.25 57.8 279.45 57.8 279.5 57.85 279.75 57.95
Q 279.85 58.8 280.35 62.45
L 281.6 68.25 282.75 71.7 282.85 71.85 282.95 71.95 283.25 72.6 284.1 74 286.1 76.5 293.2 82.95 294.45 84.35 295.75 86.45 296.2 87.5 296.45 88.6 296.5 90.95
Q 296.4 91.9 295.85 93.2
L 295.35 94.45 290.1 93.85 289.85 93.85
Q 288.6 93.7 287.35 93.7
L 277 94.2
Q 275 94.45 274.85 94.45
L 271.45 95
Q 268.8 94.9 268.35 94.95 267.9 94.95 265.25 95.7
L 263.35 96.45 263.25 96.45 263.25 96.5 263.2 96.5 262.35 97 262.1 96.7 261.35 95.45
Q 260.65 93.85 260.5 92.7
L 260.25 91.2
Q 260.25 90.15 260.35 89.75 260.35 88.9 260.5 88.35
L 260.75 87.1 261.5 85.35 261.5 85.25 261.95 84.6
Q 262.65 83.55 263.75 82.7 264.9 81.55 268.5 79.1
L 271 77.1
Q 272 76.45 273.5 74.85 274.65 73.6 275.6 72.1
L 277 69.1
Q 277.6 67.1 277.85 65.95
L 278.5 62.8 279 57.5
M 271.2 63.75
L 271.2 63.8 271.25 64
Q 271 63.85 271 63.6 270.85 63.25 271.2 63.35
L 271.25 63.45 271.25 63.5 271.35 63.5 271.2 63.75
M 271 64.1
L 271.1 64 271.2 64 271.2 64.1 271.25 64.1 271.45 63.85
Q 271.75 63.7 272 63.8
L 272.2 64 272.2 64.1 272.1 64.1 271.75 64.25 271.6 64.1
Q 271.5 63.95 271.45 64
L 271.35 64.1 271.5 64.2 271.7 64.25 270.95 64.45 271 64.35
Q 270.8 64.4 270.75 64.35
L 270.85 64.1 271 64.1
M 256.7 91.85
L 258 89.95 258.35 92.35 258.7 93.1
Q 259.05 94.35 260 96.1
L 261 97.5 261.25 97.75 260.75 98.35 260.6 98.85
Q 260.5 99.15 260.75 99.5
L 261.1 99.75
Q 261.2 99.85 261.5 99.85 261.75 100.05 261.95 99.85
L 263 99.6
Q 263.1 100.3 262.85 101.85
L 262.75 103.5 260.95 102.85 259.85 102.6
Q 259 102.35 258.75 102.35 257.25 102.3 256.5 102.35
L 255.75 102.45 255.3 101.7 253.8 98.35 253.4 97
Q 253.35 96.4 253.5 95.7 253.5 95.3 253.85 94.5
L 254.75 93.5 256.7 91.85
M 287.5 97.75
L 293.5 98.25 294.25 98.25 294.95 98.35 293.5 117.35 293.35 126.95
Q 293.35 132.35 293.5 136.45
L 293.5 139.4
Q 293.5 139.5 293.35 139.65 293.2 140 292.1 140.35
L 290.6 140.7 285.5 141.35
Q 281.4 141.65 280.75 141.65 276.6 141.8 276 141.75 274.65 141.8 271.25 141.65
L 268.95 141.35
Q 267.5 141.15 266.75 140.75 265.9 140.3 265.5 139.4 265.05 138.35 265.25 137.45
L 265.85 127.2
Q 266.1 122.95 265.75 117.1
L 264.6 101.85 264.5 101.5 270.6 101.45
Q 271.5 101.2 273 100.5 274.65 99.95 275.75 99.95 276.85 99.95 278.5 100.45
L 283.95 101.6
Q 285.2 101.85 286.45 101.85
L 291.95 101.35
Q 292.25 101.2 292.6 101.2 292.75 100.75 292.75 101.1
L 292.75 101.2 293 101.5 293.25 101.25 293.35 100.95
Q 293.25 100.55 292.45 99.75 291.65 99.2 291 98.95 290.25 98.5 289 98.2 288.75 98.1 287.5 97.75
M 235.9 159.35
Q 236.15 159.95 236.25 160.7
L 236.3 160.95
Q 236.15 161.5 236.15 162
L 236.15 162.1 238.35 162.15 239 160.65 239.9 159.35 241.1 158.35
Q 241.8 157.85 242.4 157.6
L 243.9 157.15
Q 244.1 157.1 244.75 157.1
L 245.55 156.95 248.1 157.1 250.3 157.6 251.55 158.2
Q 252.35 158.75 252.6 159.15 253.15 159.85 253.35 160.45 253.75 161.1 253.9 161.95
L 254.9 167.2 220.5 167 221.35 162.1 221.35 162.2 222.5 159.95 223.25 158.95 225.1 157.45 226.3 156.9
Q 226.45 156.8 227.55 156.45
L 229.1 156.1 229.1 156 231.8 155.9
Q 232.8 156.15 233.1 156.35 233.55 156.45 234.35 157
L 235.35 158.1
Q 235.75 158.75 235.9 159.35
M 261 105
L 262.75 104.2 262.25 117.1
Q 262.25 122.65 262.6 127.2
L 263 130.95 257.6 130.6
Q 258.25 129.35 258.6 127.95 259.05 126.35 259.2 124.75 259.35 123.45 259.1 121.6
L 258.85 120
Q 258.75 119.2 258.5 118.45
L 257.6 115.25 257.5 113.7 257.85 112.1
Q 258.3 110.7 258.35 110.45 258.6 109.7 258.6 108.85 258.6 108.05 258.5 107.7 258.1 106.75 257.6 106.25
L 257.5 106.1 261 105
M 273.6 156.5
L 274.45 156.75 275.25 157.2 275.85 157.75
Q 276.45 158.35 276.95 159.15
L 277.5 160.9 277.6 161.35
Q 277.5 161.7 277.5 162.5
L 279.75 162.5
Q 279.85 161.85 280.25 161
L 281.1 159.65 282.2 158.65 282.75 158.25 283.45 157.95
Q 284.2 157.7 284.85 157.6
L 286.5 157.4 287.25 157.4 288.85 157.65 290.1 158 291.2 158.75 291.7 159.2 292.5 160.45
Q 292.9 161.1 293.2 161.95
L 294.35 167.75 262.35 167.25
Q 262.55 166.55 262.85 164.85
L 263.2 162.4 263.5 161.4
Q 263.75 160.65 264.2 160 264.4 159.6 265.1 158.9
L 265.6 158.45 266.25 158.1
Q 266.85 157.7 267.6 157.4 268.2 157.05 269.25 156.85
L 270.95 156.4 271.95 156.35 273.6 156.5
M 155.65 292.4
L 153.9 293.9
Q 154.95 292.65 155.8 291.4
L 156 291.05 155.6 291
Q 154 290.7 148.25 290
L 139.4 289.3 142.1 288.15
Q 147.5 285.85 153 283.05
L 163.6 277.55
Q 170.55 273.7 174.05 271.5
L 173.85 271.15
Q 171.75 271.8 170.1 272.4
L 173.9 270.4 176.55 271.9 177.6 282.05 178 282.05 179.05 271.5 179.4 271.75 179.6 278.4
Q 179.7 283.05 179.85 285.3
L 179.8 285.25
Q 179.65 285.05 179.05 284.65
L 178.3 284.4 175.6 284
Q 174.15 284.25 173.85 284.4 172.95 284.8 172.5 285.65
L 172.3 286.15 172.1 287 172.1 287.4
Q 172.25 288.75 172.6 289.75 172.7 290.25 173.05 290.9
L 173.75 292 174 292 173.85 292.15 174.15 293.15 174.6 293.25
Q 175.35 293.7 176.85 294.15
L 180.3 294.75 180.55 299.05 161.85 299 161.85 298.75 155.65 292.4
M 264.1 269.9
L 264.75 271.4 268.6 299.65 181.3 299.05
Q 181.75 292.8 182.05 286.15
L 182.55 270.4 198.6 270.3
Q 204.35 270.2 220.8 269.5
L 231.85 269.25 264.1 269.9
M 266 267.9
L 266.1 267.9 267.75 271.3 267.85 271.55 290 272.55 290.85 299.75 272.5 299.65 267.35 270.65 266 267.9
M 293.75 282
L 294.6 282.75 294.75 283
Q 294.85 283.15 294.75 283.25 294.6 283.4 294.7 283.4
L 294.7 283.9 295 285.75
Q 295.05 286.2 295.6 287.65 296.2 288.8 296.25 289.55 296.25 290.5 295.75 291.5
L 295.75 291.65 294.5 291.8 293.75 282
M 177.8 286.8
L 177.4 288 177.05 290.9 176.85 290.9
Q 175.3 291.45 174.6 291.8
L 175.1 292 174.25 291.9 175.35 289.75
Q 175.7 288.3 175.75 287.4
L 175.75 287 175.65 286.9 175.6 286.4 175.65 286.05 176 285.75 176.6 285.4 177.4 285.5 177.85 285.65 178.1 285.9 178.1 286.15 177.8 286.8
M 317.85 440.5
L 318 440.4 335.25 441.75
Q 338.3 441.9 344.2 442.25
L 351.1 442.75 347.85 453.65 347.85 453.75 344.45 471.5 301.6 471.9 301.6 471.5 305.35 462.8 317.85 440.5
M 599.75 443.15
L 602.55 466.5 531.8 471.8
Q 520.95 472.5 517.45 472.65
L 489.5 474.05 482.85 456.75 433.6 456.75 366.75 457.65 369.95 438.15 423.2 440.75 423.45 440.8 425 440.75
Q 430.85 440.75 439.25 440.55
L 480.75 439.9 489.25 449.25 489.35 449.4 490.35 448.25 599.75 443.15
M 221.35 282
Q 220.15 282.7 219.6 283.9 219.25 284.5 219.1 285.25
L 219.1 286.25
Q 219.25 288.3 219.6 290 219.7 290.9 220.05 291.8 220.3 292.85 220.75 293.65
L 221 293.65 220.85 293.8 221.6 295.15 222.1 295.25
Q 224 295.85 225.65 296.15
L 231.25 296.75 231.35 294.5
Q 231.6 292.7 231.35 290.8
L 230.65 285.25
Q 230.35 283.8 229.8 283 229.15 282.15 227.75 281.75 226.9 281.55 225.75 281.5
L 223.65 281.4
Q 222.3 281.5 221.35 282
M 222.5 293.9
L 221.15 293.55
Q 221.55 292.8 221.85 291.8
L 222.35 290
Q 222.7 287.75 222.75 286.25
L 222.75 285.5 222.8 285.05
Q 222.9 284.4 223.1 284 223.45 283.35 224.1 283.05
L 224.85 282.75 225.65 282.65
Q 226.5 282.65 227.35 283 228.05 283.3 228.1 283.9
L 227.25 290.8
Q 227.1 291.7 227.1 292.65
L 225.65 292.9
Q 224.3 293.15 222.1 293.75
L 222.5 293.9
M 198.4 286.05
L 198.35 286.3 198.35 287.25
Q 198.4 288.8 198.8 290.9
L 199.1 292.75 199.75 294.65 200.1 294.65 200.85 292.8 201.3 291
Q 201.8 288.6 201.85 287.3
L 201.9 286.9 201.9 286.65 202.1 286.15 202.6 285.4
Q 203 284.9 203.5 284.65 203.65 284.5 204.15 284.3
L 204.35 284.25 204.4 284.25 204.55 284.15 205.05 284.15
Q 205.85 283.95 206.6 284.15 207.35 284.4 207.6 285 207.85 285.4 207.75 286.5
L 207.35 288.3 206.65 293.5 201.3 293.8 201.05 293.8 201.3 297.5 204.85 297.75
Q 206.25 297.8 208.55 297.65
L 210.75 297.5 210.25 292
Q 210.1 290.5 209.6 288.3
L 209.3 286.5
Q 208.95 284.85 208.8 284.4 208.25 283.55 207.1 282.9 206.4 282.6 205.1 282.3
L 204.6 282.25 204.5 282.15 204.1 282.15 202.9 282
Q 201.45 282.15 200.55 282.75 199.35 283.45 198.8 284.75 198.55 285.2 198.4 286.05
M 254.6 282.4
Q 254.55 281.75 253.85 281 253.4 280.55 252.65 280.15
L 251.4 279.65 249.75 279.4 249.05 279.4
Q 248.65 279.4 247.8 279.65 246.25 280.05 245.3 281 244.35 282 243.9 283.4
L 243.75 284.9 243.85 285.9
Q 243.95 287.45 244.35 289.75 244.35 289.85 244.65 291.75
L 244.9 292.8 239.1 292.5 238.85 298.65 241.05 298.75
Q 243.7 298.9 246.3 298.75 249.2 298.65 251.55 298.4 254.2 298.25 256.75 297.8 260.2 297.3 262 296.8
L 262 296.4
Q 259.7 295.9 256.75 295.5
L 254.6 295.25 254.55 294.65
Q 254.4 293.65 254.3 290.65 254.3 288.35 254.5 286.75
L 254.75 284.8
Q 254.85 283 254.6 282.4
M 247.1 284.5
Q 247.4 283.85 247.75 283.55 248.35 283.2 248.65 283.15
L 249.6 283 251.5 283
Q 252.1 283.25 252.25 283.4 252.5 283.8 252.65 284.8
L 252.9 286.75
Q 253.1 288.55 253.1 290.65 253.1 292.25 252.9 293.65
L 247.35 293
Q 246.65 292.9 245.8 292.9
L 246.35 289.75
Q 246.75 287.15 246.85 285.9
L 246.9 284.9 247.1 284.5
M 271.7 108
L 271.2 107.5 270.75 107.35 270.6 107.25 270.1 107.25 269.6 107.45 269.2 107.85 269 108.2
Q 268.75 108.7 268.75 110
L 269.1 114.45
Q 269.1 115.95 268.95 117.45
L 268.5 120.35
Q 268.25 122 268.25 123.25 268.1 124.2 268.25 126.2 268.3 129.05 268.75 132.1
L 268.6 133.6 271.25 133 271.25 132.7 270.1 132.45 270.25 132.25 270.25 132.1 270.6 129.85 270.85 130.9 271.1 130.9
Q 271.7 128.75 272.1 125.1 272.5 122.35 272.6 119.2 272.65 117.65 272.5 113.35
L 272.25 109.6 272 108.6 271.7 108
M 289.95 107.95
Q 289.4 108.35 289.2 108.75
L 289 109.35
Q 288.85 109.5 288.75 110.2
L 288.5 113.95
Q 288.3 117.85 288.35 119.85 288.5 123.15 288.85 125.6 289.15 128.75 289.85 131.45
L 290.1 131.45 290.25 130.85 290.5 132.65 290.5 132.85 290.7 133.1 289.75 133.25 289.75 133.6 292 134.1 291.95 132.6 292.5 126.75
Q 292.6 125.5 292.6 123.85
L 292.25 120.95
Q 291.65 116.85 291.7 115.1 291.7 113.4 291.85 112.2
L 292 110.7
Q 292 109.25 291.85 108.85 291.6 108.35 291.35 108.1 291.15 107.9 290.6 107.85
L 290.35 107.85 289.95 107.95
M 284 109.1
L 283.75 107.95
Q 283.45 107.15 283 106.6 282.25 105.8 281.2 105.7
L 280.6 105.7 280.35 105.75
Q 279.85 105.9 279.5 106.2 278.9 106.65 278.6 107.45 278.35 108.1 278.35 108.6
L 278.35 109.5 278.5 110.35
Q 278.75 111.8 278.85 113.5 278.9 115.2 278.75 116.7 278.75 117.4 278.35 119.95
L 277.85 123.1
Q 277.6 124.6 277.7 126.25 277.8 130.05 278.25 132.6
L 278.1 132.95 277.5 134.85 279 134.6
Q 281.7 134 282.6 133.65
L 282.6 133.25 280.75 132.7 280.75 132.65 281.25 128.2
Q 281.55 130.05 282 131.4
L 282.35 131.4
Q 283.1 129 283.7 125.1 284 122.2 284 121.85
L 284.35 115.5 284 109.1
M 279.45 55.05
L 279.6 55.2 279.85 55.25 279.75 55.05
Q 279.75 54.85 279.6 55
L 279.45 55.05
M 501.25 219.2
L 500.2 219.5 499.75 219.75
Q 499.1 220.25 498.7 220.9 498.3 221.4 497.7 222.95 497.15 224.65 497 226.85
L 496.85 237.6 497.25 244.65 497.35 245 496 246.7 497.45 246.65
Q 497.6 248.6 498 251.65
L 498.1 252.75 504 251.9 504 251.45 500 250.9 500.5 246.4
Q 501.65 246.25 504 245.95
L 505.25 245.85 505.2 244.85
Q 504.7 241.1 504.6 237.7 504.6 234.1 504.85 230.65 505.1 228.05 505.1 227.1 505.1 224.2 505 223.35 504.8 222.15 504.35 221.2 503.9 220.35 503.5 220 502.7 219.2 501.6 219.2
L 501.25 219.2
M 501.35 227.9
Q 501.35 225.9 501.45 225.4
L 501.6 224.15 501.85 223.65 501.95 223.6 502.1 223.95
Q 502.55 225.4 502.85 227.2
L 503.2 230.65
Q 503.45 234.65 503.35 237.7 503.35 240.7 503 243.5
L 502 243.4
Q 502.1 241.25 502 238.6
L 501.35 227.9
M 317.25 280.15
L 316.25 280
Q 315.65 279.9 315 280 313.55 280.1 312.5 280.9 311.3 281.8 310.85 283.25 310.6 284.35 310.6 284.75
L 310.7 285.65
Q 310.9 288.25 311.1 289.55
L 312 292.8 311.25 292.9 307.2 293.8 307.35 294.4
Q 307.6 295.6 307.95 296.4
L 308.35 296.4 308.7 295.4 314.5 296.3
Q 317.9 296.65 320.75 296.5
L 323 296.3 321.6 284.65
Q 321.45 283.15 321.1 282.5 320.65 281.4 319.35 280.8 318.95 280.6 317.25 280.15
M 316.75 281.9
L 317.25 281.9
Q 318.2 281.7 318.95 282 319.8 282.25 319.95 282.9 320.1 283.55 319.95 284.65
L 318.85 292.25
Q 316.5 292.25 314.5 292.5
L 313 292.75 313.75 289.55 314.25 284.75 314.35 284.25 314.75 283.25
Q 314.95 282.85 315.6 282.4
L 316.75 281.9
M 359.35 279.75
L 358.35 279.75 357.35 280
Q 356.55 280.4 355.85 281.4
L 355.6 282.25 355.5 283.25 355.5 283.05 355.2 287.55
Q 355.2 289.9 355.35 291.75
L 354.85 291.75 354.85 292.05
Q 354.4 293.35 354.25 294.5
L 354.6 294.75 355.6 293.9 355.6 294.15 358 294
Q 358.75 294.15 359.35 294.15 361.1 294.4 363 294.4
L 364.95 294.3 364.75 290.25 363 290.3 362.35 290.4
Q 362.1 289.3 362 288.3 361.65 286.4 361.95 284.5
L 362.1 282.5
Q 362.1 281.7 361.6 281
L 361 280.4 360.35 280 359.7 279.8 359.35 279.75
M 359.1 282.9
L 358.95 282.9
Q 358.75 282.9 358.75 282.8
L 359.25 282.75 359.35 282.65 359.75 282.5 359.95 282.5 360.25 282.8 360.45 283.55 360.5 284.5
Q 360.75 286.3 360.5 288.3
L 360 290.65 359.45 290.5 359.2 283.05 359.2 283 359.1 282.9
M 362 275.4
L 360.5 275.55 359 275.9 357.45 276.55
Q 356.85 276.8 355.95 276.9 355.1 276.9 354.45 276.55
L 352 275.55 351.1 278.3 351.35 281 352.95 280.9
Q 354.3 280.65 354.85 280.3
L 356.45 279.65 355.75 278.3 355.6 278.15 355.95 278.15
Q 356.6 278.15 357.45 278.5
L 358.95 279.05
Q 359.05 279.15 360.5 279.4 361.6 279.65 362 279.65 363.1 279.75 364.25 279.4
L 364.35 279.5 365.7 279.75 367 276.5 365 275.8
Q 363.2 275.35 362 275.4
M 359.75 246.75
Q 359.25 246.4 358.6 246.4 357.85 246.35 357.2 246.65 356.35 247.05 356.1 247.65 355.65 248.35 355.5 248.9
L 355.25 250
Q 354.75 252 354.75 254.1 354.9 256.3 355.25 258.15 355.4 259.35 355.7 260.15 355.9 261.05 356.35 262.25
L 354.85 262.65 354.85 263.05 356.75 263.65
Q 356.9 263.7 358.5 264.15
L 358.5 264.5 359.85 264.4 363.95 264.9 364.45 260.5 362.6 260.3
Q 362.6 258.95 362.5 258.15
L 362.2 254.1 361.2 248.9 360.75 247.7
Q 360.2 247 359.75 246.75
M 359.6 248.35
Q 359.7 248.55 359.7 249.1
L 358.45 258.15
Q 358.3 260.35 358.35 261.65
L 356.85 262
Q 357.2 261.35 357.5 260.15
L 358 258.15
Q 358.35 255.45 358.35 254.1 358.5 252.15 357.95 250
L 357.75 249.15
Q 357.6 248.65 357.7 248.4
L 357.85 247.9
Q 358.05 247.7 358.5 247.65
L 359.2 247.75 359.6 248.35
M 341.5 110.95
L 341.35 111.35 341 115.7
Q 340.8 119.1 340.85 121.35 340.9 123.55 341.25 126.95 341.9 130.95 342.35 132.5
L 342.6 133.65 342.6 133.7 342.75 134.15 342.35 134.25 342.35 134.6 343.25 134.85 343.6 134.9 343.75 133.65
Q 344.1 131.8 344.2 130.85
L 344.5 125.2
Q 344.5 124.1 344.25 122.45
L 344 121.2
Q 344.1 119.75 343.95 115.7
L 343.75 113.5 344 110.95 343.85 110.35 343.6 110.1 343.45 109.85 342.95 109.7 342.5 109.7 342.35 109.75 342 110 341.85 110.2
Q 341.65 110.5 341.5 110.95
M 355.25 110
Q 355.05 109.65 354.75 109.45
L 354.35 109.2
Q 354.05 109.1 353.75 109.1
L 353 109.1
Q 352.4 109.5 352.25 109.6 351.95 109.9 351.7 110.7
L 351.6 112.45 351.95 116.2 351 127.95
Q 351.1 131.1 351.5 133.9
L 351 135.65 354.85 134.85 354.85 134.6 353.25 134.15 353.25 133.9
Q 353.6 131.7 353.75 128.9 354.05 131.25 354.45 132.75
L 354.75 132.75
Q 355.15 131.05 355.7 126.85 356.1 122.6 356.1 120.95 356.25 119.25 356 115
L 355.85 112.1
Q 355.8 110.75 355.25 110
M 364.6 110.85
L 364.6 110.6 364.5 110.25 364.35 109.95 364.1 109.75 363.6 109.6 363.1 109.6 362.7 109.85 362.5 110.1 362.2 110.75 361.85 112.75 361.7 115.6
Q 361.5 118.85 361.5 121.2 361.75 125.1 362 126.85 362.45 130.45 363 132.4
L 363.1 132.4 363.25 133.5 363.25 133.65 363.45 134 363 134.15 363 134.4 364.25 134.75 364.35 133.4 364.35 133.5
Q 364.7 132.25 364.85 130.7
L 365.2 125.1 364.5 113.6
Q 364.65 111.8 364.6 110.85
M 313.6 96.5
Q 312.65 97.05 312.2 98.2 312 99 312 99.7
L 312 100.1 312.1 100.35 312.35 103
Q 312.6 105 312.7 107.35 312.7 109.7 312.45 111.7
L 311.85 116
Q 311.5 118.45 311.5 120.35 311.5 124.9 312 128.75
L 311.95 128.75 310.45 131.1 317.5 129.85 315.85 128.4 315.5 128.65 315.6 128.9 314.6 128.65
Q 314.8 127.2 315 124.2
L 315.5 126.7 315.95 126.7
Q 316.4 124.6 317.1 120
L 317.7 113.35
Q 317.95 110.1 317.85 106.7
L 317.5 100.1
Q 317.48125 99.26875 317.35 98.7 317.1 97.45 316.25 96.75
L 315.5 96.35 315.1 96.25 314.95 96.25
Q 314.15 96.25 313.6 96.5
M 328.5 98.25
L 328 98.25 327.25 98.5 326.85 98.95
Q 326.5 99.45 326.35 100.45
L 326.6 104.7
Q 326.75 106.05 326.75 108.7 326.75 110.9 326.5 112.75
L 326.1 116.85
Q 325.85 118.85 325.85 120.95
L 326.35 128.9 325.6 130.45 330.1 129.75 329.1 128.45 328.75 128.65 328.95 129.1 328.1 128.9
Q 328.35 126.8 328.45 124.95
L 328.45 124.85 328.75 126.85 329.1 126.85
Q 329.7 123.75 330 120.45
L 330.45 114.2
Q 330.6 111.05 330.5 107.85
L 330.2 100.35 330 99.7
Q 329.95 99.55 329.45 98.75
L 329.1 98.5 328.5 98.25
M 340.75 69.95
L 340.7 69.7
Q 340.65 69.6 340.5 69.6
L 340.35 69.7 340.5 69.85 340.75 69.95
M 791.15 210.15
L 790.95 210.15 790.8 210.4 770.25 252.1 756 262.4 762.25 262.25
Q 770.3 262.15 776.7 261.9 779.95 261.9 783.95 261.65
L 798.4 261
Q 800.75 260.9 805.65 260.9
L 822.9 261.4 812.55 252.6 810.65 247.4 798.75 220.9
Q 795.5 214.4 793.4 210.45
L 793.25 210.4 791.15 210.15
M 793 210.75
Q 795.3 217.85 796.7 221.7
L 798.7 227.15
Q 799 228.1 800.75 232.65
L 810 254.5 810.25 254.7 817.15 259.4 805.65 259.65
Q 800.75 259.65 798.4 259.5
L 768.5 258.4 773.7 254.9 791.45 210.95 793 210.75
M 791.7 194.7
L 791 194.5 790 198.45
Q 789.8 199.35 789.95 201.35 790 202.7 790.45 204.15
L 790.8 205.5 791.5 206.95 791.9 206.95 792.5 205.5
Q 792.8 204.9 792.95 204.15 793 203.45 793.25 202.75 794.4 203.3 795.05 203.45 795.9 203.75 797.25 204 799.5 204.5 801.65 204.6
L 805 204.7 803.5 201.45
Q 802.85 200.05 801.7 198.2
L 798.75 194.2 798.25 194.35
Q 795.8 194.95 795 195 793.3 195.15 791.7 194.7
M 795 196.25
L 797.25 196.7 797.55 198.15 798.5 200.6
Q 797.65 200.7 797.25 200.85
L 795.05 201.4
Q 794.15 201.7 793.3 202.1
L 793.4 201.35
Q 793.55 199.65 793.4 198.45
L 792.75 196.4
Q 793.45 196.25 795 196.25
M 101.55 343.65
Q 101.25 344.3 101.25 345 101.15 345.75 101.5 346.15 101.85 347.15 102.55 348
L 103.8 349.65 104.3 350.05 105.15 350.55 105.8 350.65
Q 107.05 350.65 107.75 349.8
L 108.15 349 108.3 348.15 108.3 347
Q 108.25 346.5 108.3 346.4
L 108.4 344.15 108.25 343.3 107.8 342.5
Q 107.35 341.9 106.9 341.75 106.75 341.6 105.8 341.3 104.65 341.1 103.3 341.75 102.2 342.4 101.55 343.65
M 105.65 345.4
L 105.9 345.25
Q 106.55 345.1 106.9 345.15
L 107.3 345.25 107.65 345.5 107.8 346 107.9 346.15 107.9 346.3 107.65 346.8 107.4 347.05 106.9 347.25
Q 106.45 347.35 106 347.15 105.55 347.1 105.4 347.15
L 105.4 347.25 105.05 347.4 104.9 347.5 104.8 347.55 104.65 347.75
Q 103.85 348 103.55 347.4 103.15 346.8 103.65 346.15
L 103.9 345.9
Q 104.05 345.65 104.15 345.75
L 104.5 345.65
Q 104.75 345.45 105.05 345.55 105.15 345.65 105.4 345.5
L 105.65 345.5 105.65 345.4
M 106.4 318
Q 104.75 318.4 104.5 318.5 103.4 318.8 102.55 319.25
L 102.4 319.3 102.3 319.5
Q 101.6 321.25 101.15 323
L 100.55 326.5
Q 100.4 328.15 100.4 330
L 100.9 335.4 107.65 334.25 107.5 333.5
Q 107 331.55 107 330 107 328.45 107.55 326.5 108.25 324.25 108.15 323 108.15 320.95 107.8 319.5
L 107.55 317.75 106.4 318
M 104.5 320.4
L 104.8 320.5 104.55 323
Q 104.55 324.4 105.15 326.5 105.8 328.5 105.8 330 105.8 330.9 105.55 332.15
L 104.55 331.9 104.65 330
Q 104.8 328.25 104.55 326.5
L 103.9 323
Q 103.65 321.6 102.9 319.8 103.85 320.25 104.5 320.4
M 100.8 290
L 100.8 290.05
Q 100.15 291.3 99.55 293.4 99.05 295.1 99 296.65 98.8 298.05 98.8 299.9
L 99.4 305.15 101 305
Q 102.05 304.85 104.15 304.25
L 105.4 303.9 105.25 303.15
Q 104.75 301.5 104.75 299.9 104.75 298.6 105.4 296.65 105.95 294.6 105.9 293.4 105.8 291.35 105.55 290.05
L 105.15 288.5 102.55 289.15
Q 101.4 289.6 101 289.9
L 100.8 290
M 101.3 290.5
L 102.55 291 102.3 293.25
Q 102.05 291.95 101.3 290.5
M 103.3 301.9
L 102.9 301.75 103.05 299.9
Q 103.3 298.6 103.05 297.25 103.55 298.8 103.55 299.9 103.55 300.75 103.3 301.9
M 329.6 218.45
Q 331.1 218.2 331.6 217.95
L 334.6 216.9 334.6 216.45
Q 334.25 216.25 333.2 215.9
L 329.6 214.9
Q 326.7 214.4 324.45 214.6
L 321.5 214.9
Q 320.25 215.05 318.5 215.6 316.65 216.1 315.5 216.1 314.55 216.1 312.6 215.65 310.6 215 309.95 214.9 308.65 214.8 307.5 214.95 305.45 215.15 303.85 215.85
L 302.5 216.45 302.5 216.9 303.85 217.5
Q 305.3 218.1 307.5 218.4 309.35 218.5 309.95 218.4 310.6 218.35 312.6 217.7 314.35 217.25 315.5 217.25 316.65 217.25 318.5 217.75 320.8 218.4 321.5 218.4
L 324.45 218.75
Q 326.7 218.95 329.6 218.45 Z"/>
</g>

<path id="Layer0_0_MEMBER_1_MEMBER_0_1_STROKES" stroke="#522810" stroke-width="4" stroke-linejoin="miter" stroke-linecap="butt" stroke-miterlimit="10" fill="none" d="
M 790.8 210.4
L 790.45 210.1
Q 789.9 209.55 789.9 208.75 789.9 208 790.45 207.5 790.85 207.05 791.65 206.95
L 791.75 206.95
Q 792.45 207.05 793 207.5 793.5 208.1 793.5 208.75 793.5 209.45 793 210.1
L 792.65 210.35
M 763.55 292.8
L 763.55 262.3 817.25 262.25
M 803.75 270.65
L 805.8 270.65 805.8 276.75 803.75 276.75 803.75 270.65 Z
M 773.55 265.5
Q 778.25 264.2 787.45 263.15 792.6 262.55 795.9 262.3
L 818.5 265.25 818.5 297.65
M 705.5 315.75
L 705.5 330.65 734.8 413.75
M 54.5 415.75
L 59.2 415.75 59.2 424.75 54.5 424.75 54.5 415.75 Z
M 489.25 449.3
L 488.7 472.05
M 481.75 441
L 481.75 456.75
M 353.25 447.8
L 353.25 457.8"/>
</defs>

<g transform="matrix( 1, 0, 0, 1, 0,0) ">
<use xlink:href="#Layer1_0_FILL"/>
</g>

<g transform="matrix( 1, 0, 0, 1, 0,0) ">
<use xlink:href="#Layer0_0_MEMBER_0_MEMBER_0_MEMBER_0_FILL"/>
</g>

<g transform="matrix( 1, 0, 0, 1, 0,0) ">
<use xlink:href="#Layer0_0_MEMBER_1_MEMBER_0_1_STROKES"/>
</g>
</svg>
