
<svg xmlns="http://www.w3.org/2000/svg" version="1.1" xmlns:xlink="http://www.w3.org/1999/xlink" preserveAspectRatio="none" x="0px" y="0px" width="923px" height="483px" viewBox="0 0 923 483">
<defs>
<g id="Layer1_0_FILL">
<path fill="#FFFFFF" stroke="none" d="
M 798.75 194.2
L 798.25 194.4
Q 795.4 195 795 195 793.3 195.15 791.7 194.7
L 791 194.5 790 198.45
Q 789.8 199.35 789.95 201.4 789.95 202.8 790.45 204.15
L 790.75 205.5 791.5 206.95 791.65 206.95
Q 790.8 207.1 790.45 207.5 789.9 208 789.9 208.75 789.9 209.6 790.45 210.15
L 790.75 210.4 770.25 252.15 756 262.4 763.55 262.25 763.5 262.3 763.5 292.8 741 292.75 718.45 296.9 578.25 293.3 577.4 229.25 576.75 207.1 585.15 207.15 576.45 203.15 576.2 195.7 571.25 195.9 570.25 148.9 572.75 148.75 572.7 146.4 572.25 146.4 572.2 144.65 577.25 144.45 557.25 136.95 552.2 141 541 140.45 541 138.9 541.7 138.9
Q 542.35 138.9 543.15 138.45
L 544.25 137.65
Q 544.95 136.7 545 135.5
L 545 133.15 545.15 132.9 545 130.15
Q 544.95 128.8 544.25 127.95 543.55 127.15 543.2 126.95 542.2 126.45 541.7 126.45
L 541.5 126.35 542.95 126.6 543.75 127 544.65 127.7
Q 545.1 127.9 545.4 128.4
L 547 131.4 547.25 132.25 553.45 131.9 553.15 133.25 563.25 133.7 563 131.4 562.75 130.4 561.65 128.4 560.75 127.45 559.75 126.75 558.75 126.25 557.5 126 550.4 125.75 545.15 120.1 545.25 110.2 547.75 105.85 541.65 105.7 535.5 103 535.5 102.95 534.95 102.75 534.5 102.35 533.95 101.35
Q 533.75 100.7 533.75 100
L 533.7 99.35 533.75 98.7 533.75 77.2 531.7 43.25
Q 532.05 43.2 532.4 42.75
L 532.65 42 532.7 41.35 532.4 40.25 532.4 40 532.7 38.75
Q 532.7 38.1 532.45 37.5
L 531.75 36.8
Q 532.05 36.15 532.2 35.5
L 532.45 34.25 532.5 34.25 534.5 30.65 534.4 30.65
Q 533.75 30.15 532.4 29.5
L 532.25 28.65 531.5 26.4 529.75 26.3 528.75 29.5 528.5 29.9 528.7 30.05 528.25 31.75 529 32.25 528.95 32.5 528.9 34 529.15 35.5 529.5 36.6 529.2 36.75
Q 528.35 37.35 527.95 38.25 527.75 38.65 527.75 39.25
L 528 40 528 40.25 528.15 40.25 528.25 40.5 528.9 41.25 529.5 42.35 526 99.85 525.75 100.6 525.45 101.1
Q 525.25 101.45 525 101.6
L 524.75 101.7 524.75 101.85 524.5 101.95 511.85 108.35 515 108.25 516.15 110.35 516.25 112.2 515.75 113.45 515.75 114.6
Q 515.78359375 115.654296875 516.25 117.1
L 517 119.5 515.75 120.45 510.95 122.95 509.75 123.75
Q 508.05 123.75 505.7 124.2
L 503.35 124.7 501.45 125.5 501.35 125.5 501.35 125.6 501.25 125.6 500.5 125.7
Q 499.8 126.05 499.35 126.5
L 498.95 127.1 498.7 127.6 498.35 128.65
Q 498.15 129.25 498 130.75 497.95 131.55 498.1 132.65
L 496.5 133.45 496.6 133.9 498.85 133.15 498.85 133 499.1 134.25 499.1 134.4 498.2 134.9 497.75 134.9 497.45 142.5 487.25 145 487.7 147.15 476.6 148.15 490.5 150.95 490.1 200.45 464.35 209.2 482 208.15 482.85 259.4 456.35 283.4 447.5 282
Q 447.95 281.05 448.25 279.5
L 448.6 276.65
Q 448.7 274.85 448.6 273.8 448.55 273.3 448.1 271 447.45 269.25 447.25 268.25 446.95 266.6 447.1 265.4 447.1 263.95 447.35 262.55
L 447.6 260.55 453.75 260.75 444.85 254.2 431.2 228.75 431 228.5 436.6 228.75 432.5 224.75
Q 431.2 223.5 429.75 222.65
L 429.35 220.65 428.25 217.45 420.35 217.9
Q 423.2 217.6 424 217.45
L 428.25 217.15
Q 430.7 217.05 432.35 217.4
L 436.2 217.9 430.2 214.75
Q 429.45 212.4 429.2 211.75
L 427.75 208.5 424.2 202.4 424 202.15 423.85 202.4
Q 422.8 203.85 422 205.4
L 417.6 214.25 406.75 218.65 415.7 218.15
Q 418.35 218.05 419.1 217.95
L 418.6 219.4
Q 418.4 219.9 418.2 221.15 417.85 222.55 417.85 223.75 416.9 224.6 416.25 225.4
L 413.35 228.7 418.75 227.15
Q 420.05 226.95 420.5 226.95 421.6 226.95 424 227.45
L 425.1 227.7 424.5 227.65
Q 421.2 227.4 418.6 227.4
L 418.45 227.4
Q 416.75 229.85 414.1 234.4 411.85 237.9 410 241.4
L 402.6 255.25 394.1 259.15 394.2 258.9
Q 394.45 257.05 394.6 254.9 394.7 252.5 394.35 250.9
L 393.5 246.9
Q 393.3 244.8 393.6 242.9
L 394.35 238.9
Q 394.6 237.65 394.6 236.9
L 395 230.95 398.1 231 389.35 221.7 386.85 221.7 384.35 220.7 384.35 218.4 383 218.4 382.75 197.15
Q 382.45 182.3 382.1 174.4
L 387.1 174.45 382.35 169.4 382.45 154.15 385.45 152.25 385.5 146.4 382.75 146.4 382.75 145.9 365.85 143.9 367.2 143.45
Q 367.3 143.45 367.5 143.25
L 367.75 143.15 368.1 142.65 368.1 142.4 368.5 137.15
Q 368.75 134 368.75 131.9 368.9 127.4 368.85 121.6
L 367.75 102.5 368.1 102.7 368.5 103 369.25 102.1 369.6 102.2 371.45 99.85
Q 371.75 99.45 372.25 98.35 372.95 97.1 373.35 94.95 373.75 93.45 373.5 91.35
L 373.2 89.5 372.6 87.85
Q 371.8 85.95 370.85 84.85 370.25 83.9 369.85 83.45
L 368.7 82.2 359.6 74.2 357.85 72.1 357.75 71.95 357.75 71.85 357.5 71.6 352.45 59.25 352.75 58.85
Q 352.85 58.65 352.85 58.25
L 352.85 57.75 352.5 56.75 352.5 56.5 352.75 56 352.85 55.5
Q 352.95 54.75 352.75 54.25
L 352.5 54
Q 352.7 53.8 352.85 53.3 353.05 52.85 353 52.5
L 352.25 51.5
Q 351.75 51.05 351.75 50.5
L 353.35 49.75 353.6 49.3 353.6 49.1 353.75 48.1 353.7 47.5 353.35 46.8 353 45.75 352.5 45 351.6 44 351 44 350.35 44.35 349.45 45.6 348.85 46 348.5 46.5 348.35 47.25
Q 348.2 47.9 348.45 48.25 348.6 48.5 348.75 48.5 348.8 48.65 349.35 48.25
L 349.45 48.5
Q 349.45 48.7 350.1 49.5 350.6 50.25 350.6 50.5 350.6 51.1 350.1 51.5 349.45 52.3 349.45 52.5 349.3 52.8 349.5 53.3 349.6 53.7 349.7 53.75 349 54.4 348.75 55 348.55 55.4 348.7 56
L 342.1 58.5 341.1 57.1 340.5 56.6 340.1 56.6 339.95 56.75 339.5 57.1 338.5 58.5
Q 337.95 59.5 338.25 60.35
L 338.5 61.3
Q 338.35 61.45 338.5 61.55 338.6 61.85 338.7 61.85
L 338.75 61.8 339.2 62.55
Q 339.7 63.4 339.7 63.75 339.7 64.15 339.25 64.75
L 338.5 65.75 338.6 66.7 338.7 66.95 338.35 67.2 337.85 65.2
Q 337.45 63.5 336.1 61 334.7 58.65 333.5 57.25
L 321.6 44.05 318.7 40.25 318.75 40.25 317.85 38.85
Q 317.05 37.45 317 37.05 316.2 35 315.7 33.1 314.7 29.35 314.7 28.9 314.1 26.8 313.95 24.65 313.55 22.4 313.45 20.4
L 313.25 18.65 312.95 18.65
Q 312.85 18.5 312.95 18.4
L 312.95 18 313.1 16.4 313 15.65 312.6 14.75
Q 312 14.25 311.75 14.15
L 312 13.25
Q 312.15 12.6 312 12.15 312 12.05 311.35 10.75 310.85 10.05 310.85 9.4 310.85 8.8 311.25 8.15
L 311.35 8.15 311.85 7.95 312.95 7.2 313.1 6.85 313.1 5.6 312.95 4.95 312.45 4.25 312.1 2.5 311.1 0.65 311.1 0 309.5 0 309.5 0.65 308.5 2.5 308.25 3.25 307.35 4 307.2 4.45 307.2 4.95
Q 307.2 5.8 307.45 6 307.6 6.35 307.85 6.35
L 308.45 6.1 308.5 6.45 309.2 7.85
Q 309.7 9 309.7 9.4 309.7 10 309.25 10.75 308.65 11.65 308.5 12.15 308.5 12.9 308.6 13.25
L 308.75 13.9 308.45 14.15
Q 307.3 14.7 306.75 15.9 306.5 16.45 306.5 17.15 306.5 17.9 306.75 18.25
L 307.25 19.15 304.45 32.5 302.45 38.05 299.1 43 290.5 52.25
Q 288.45 54.5 288.45 54.75 287.35 56.15 286.6 57.5
L 284.1 63.5 282.85 63.85 280.6 57.55 280.95 57.3 281.1 56.75 281.1 56.1 280.75 55.1 280.75 55 280.85 54.6 281 54.35 281.1 54
Q 281.2 53.25 281 52.75
L 280.85 52.5 281.1 52 281.2 51 280.5 50
Q 280 49.35 280 48.8
L 280 48.75 280.1 48.75 281.25 48.35 281.85 48.05 282.1 47.75 282.25 47.1 282.35 45.85
Q 282.15 45.2 281.7 45
L 281.5 45
Q 281.65 44.25 281.2 43.3
L 280.75 42.5 280.25 41.85 279.75 41.5 279.6 41.35 279.25 41.35 279 41.5 278.1 42.5 277.6 43.3 277.5 43.5 277.25 43.6 276.85 44.05 276.6 44.75
Q 276.55 45.5 276.7 45.85 276.85 46.25 277 46.25
L 277.5 46.1 277.6 46.5
Q 277.95 47.2 278.35 47.6
L 278.85 48.8
Q 278.85 49.15 278.35 50
L 277.6 51 273 53.25 272.5 52.5 271.45 51.35 271 51.35 269.95 52.5 269.45 53.25
Q 269.2 53.65 269.1 54.25
L 269 54.75
Q 268.7 55.35 269 55.75 269 56.05 269.25 56.05 269.25 56.15 269.5 56
L 269.5 56.05
Q 269.5 56.35 270.1 57.1 270.6 57.75 270.6 58.25 270.7 58.7 270.2 59.25 269.5 60.05 269.5 60.25 269.45 60.45 269.5 61.05
L 269.6 61.3
Q 269 61.9 268.85 62.5 268.7 62.95 268.75 63.3 268.75 63.7 268.85 63.75
L 269 64 269 64.1 269.75 64.95 270 65.35 269.6 66.2 268.75 67.35 267.6 69.85 267.35 71.75 267.35 72.45 267.6 73.85
Q 267.7 74.6 267.95 75
L 266.45 76.2
Q 264.5 77.45 263.85 77.95 262.15 79.3 261.35 80.1 259.7 82 259.2 82.95
L 258.6 84.2 258.2 85.95 255.8 87.6
Q 254.9 88.2 254.75 88.6 253.85 89.6 253.85 89.7 253.4 90.3 253.25 91.1
L 252.6 93.25 252.55 94.1 252 96.95
Q 251.45 98.8 251.35 99.95
L 251.35 101.45 251.6 103.1 253.1 106.1 252.75 106.35 250.85 106.85 254.85 108.45 255.25 108.35 255.3 108.6 255.05 108.6 255.1 108.95
Q 255.1 109.9 255.35 110.5
L 255.85 112.1
Q 256.3 113 256.35 113.7
L 256.25 115.25
Q 255.85 117.15 255.5 118.45
L 255.1 120 255.05 121.6
Q 254.8 123.55 255.05 124.85 255.25 126.45 255.6 127.95 256.1 129.5 256.7 130.65
L 234.1 136.4 200.35 146.15 209.6 146.15 207.75 150.75
Q 206.75 153.1 205.55 154.95
L 205.35 155.2 206.05 156.9 206.1 157 207.1 158.5
Q 206.75 160.55 206.75 161.95 206.7 163.2 206.85 165.65 206.85 167.15 207.35 169.25
L 207.75 171.15
Q 208 172.25 208.35 172.9
L 208.55 172.9 205.25 176.75 208.1 179.4 208.5 178.9 209.85 180.15 208.6 207.15 209.1 243.25 209.6 252.15 174.1 264.65 174.05 266.9 173.6 267.05 169 267.15 171.25 268.05 155.35 275.9 149.6 279.25
Q 147.65 280.4 143.75 282.25
L 126.8 289.15 125.15 289.25 124.15 290.15 121.9 291.05 124.05 276.15 125.15 276.15 117.65 262.4 102.65 238.9 95.4 228.95 95.8 228.15 96.15 222.2
Q 97.95 222.6 101 222.9
L 102.65 223.15 100.65 218.75 108.65 217.65 103.3 214.95
Q 96.9 211.95 95.05 211.15
L 92.05 209.9 92.05 213.15
Q 92.05 216.55 92.25 220.4
L 92.55 227.65 91.75 230.95 72.3 262.25 69.05 268.25
Q 67.9 270.2 65.8 274.15
L 64.05 277.25 68.3 277.25 67.75 303.4 67.55 303.4 67.55 303 55.75 301.65 55.5 301.65 45.9 306.05 37.25 306.05 28.6 314.3
Q 25.6 317.3 24.75 318.3
L 19.2 324.15 21.45 324
Q 25.7 323.75 26.45 323.75
L 26.6 323.75 30.2 321.3 30.35 321.5 28.6 340.9 28.6 340.65
Q 23.75 356.4 20.85 366.65 18.9 372.95 17.1 379.65
L 0 445.8 32.25 472.25 32.7 470.4 68.8 463.3 68.9 461.25 144.05 461.25 151.35 457.15
Q 157.65 462.05 165 465
L 170.6 466.9 177.75 468.65 177.85 468.65 188 469.8
Q 192.45 470.4 211 472.4 218.75 473.25 234.05 474.65
L 280.25 478.5 280.25 483 395.95 483
Q 425.55 482.85 442.25 482.3
L 488.5 480.9
Q 508.7 480.15 534.75 478.8
L 581 476.25
Q 600.85 475 627.25 472.75
L 661.9 468.5 673.25 466.65
Q 690.65 464.05 719.15 460.25
L 753.5 455.3 773.5 451.5
Q 776.2 450.9 776.4 450.75 782.9 448.95 787.5 446.9 794.05 444.05 797.65 440.75 800.3 438.25 801.2 435.65 801.65 434.1 801.65 432.5 801.4 430.95 800.9 429.4 799.95 427.15 797.45 424.4
L 793 420.5
Q 788.8 417.5 783.15 414.25 773.85 409.3 763.65 405.4
L 780.25 401.15 785.25 403.3 785.25 403.9 786.7 403.9 835.5 420.8
Q 837.4 421.45 844 422.75
L 912.75 432.9 923.2 434 923.4 423.3 923.45 426.15 923.5 405.5 882.95 396.5 882.5 393.9 881.75 391.75 880.75 389.75 879.25 388.05 878.4 387.3 875.5 385.65 873.5 384.9 873.25 384.9 859 382.8 858.95 382.75 846.7 383.4 846.5 358.4 829.45 358.65 829.2 310.5 843.2 310.55 818.45 297.75 818.5 265.25 803.75 263.3 803.75 262.25 817.25 262.25 817.25 261.25 822.9 261.4 812.5 252.65 810.65 247.4 798.75 220.9 793.4 210.45 793.25 210.4 792.65 210.35 793 210.15
Q 793.5 209.4 793.5 208.75 793.5 208.25 793 207.5 792.5 207.1 791.75 206.95
L 791.9 206.95 792.5 205.5
Q 792.8 204.9 792.95 204.15 792.95 203.5 793.25 202.75 794.2 203.25 795 203.45 795.7 203.75 797.25 204 799.35 204.5 801.65 204.65
L 805 204.7 803.5 201.45
Q 802.75 199.95 801.7 198.2
L 798.75 194.2 Z"/>
</g>

<g id="Layer0_0_FILL">
<path fill="#522810" stroke="none" d="
M 61.2 413.75
L 52.5 413.75 52.5 426.75 61.2 426.75 61.2 413.75
M 57.2 417.75
L 57.2 422.75 56.5 422.75 56.5 417.75 57.2 417.75
M 250.3 214.9
Q 247.25 214.35 245.1 214.65
L 242.25 214.9
Q 240.9 215.05 239.25 215.65 237.15 216.15 236.25 216.15 235.45 216.15 233.35 215.65
L 230.6 214.9
Q 229.25 214.8 228.1 214.95 226.05 215.25 224.6 215.9
L 223.1 216.45 223.1 216.9 224.6 217.5
Q 225.75 218.1 228.1 218.4 230.05 218.55 230.6 218.4 231.15 218.4 233.35 217.7 235.25 217.25 236.25 217.25 237.15 217.25 239.25 217.75 241.4 218.4 242.25 218.4
L 245.1 218.75
Q 247.3 219.05 250.3 218.45
L 255.3 216.9 255.3 216.45 250.3 214.9
M 290.6 218.45
Q 292.15 218.2 292.7 217.95
L 295.6 216.9 295.6 216.45 294.25 215.9 290.6 214.9
Q 287.7 214.35 285.6 214.65
L 282.7 214.9
Q 281.45 215.05 279.75 215.65 277.6 216.15 276.75 216.15 275.95 216.15 273.85 215.65
L 271.25 214.9
Q 269.85 214.8 268.85 214.95 266.7 215.25 265.25 215.9
L 263.85 216.45 263.85 216.9 265.25 217.5
Q 266.3 218.1 268.85 218.4 270.65 218.55 271.25 218.4 271.85 218.4 273.85 217.7 275.9 217.25 276.75 217.25 277.6 217.25 279.75 217.75 281.9 218.4 282.7 218.4
L 285.6 218.75
Q 287.75 219.05 290.6 218.45
M 101.55 343.65
Q 101.25 344.2 101.25 345 101.1 345.75 101.5 346.15 101.8 347.15 102.55 348
L 103.8 349.65 104.3 350.05 105.15 350.55 105.8 350.65
Q 107.05 350.65 107.75 349.8
L 108.15 349 108.3 348.15 108.3 347
Q 108.25 346.55 108.3 346.4
L 108.4 344.15 108.25 343.3 107.8 342.5
Q 107.35 342 106.9 341.75
L 105.8 341.3
Q 104.65 341.15 103.3 341.75 102.15 342.45 101.55 343.65
M 105.05 345.55
Q 105.15 345.7 105.4 345.5
L 105.65 345.5 105.65 345.4 105.9 345.25
Q 106.3 345.15 106.9 345.15
L 107.3 345.25 107.65 345.5 107.8 346 107.9 346.15 107.9 346.3 107.65 346.8 107.4 347.05 106.9 347.25
Q 106.4 347.4 106 347.15
L 105.4 347.15 105.4 347.25 105.05 347.4 104.9 347.5 104.8 347.55 104.65 347.75
Q 103.85 348.05 103.55 347.4 103.1 346.85 103.65 346.15
L 103.9 345.9
Q 104.05 345.7 104.15 345.75
L 104.5 345.65
Q 104.75 345.5 105.05 345.55
M 107.55 317.75
L 104.5 318.5
Q 103.4 318.8 102.55 319.25
L 102.4 319.3 102.3 319.5
Q 101.65 321 101.15 323
L 100.55 326.5
Q 100.4 328.25 100.4 330
L 100.9 335.4 107.65 334.25 107.5 333.5
Q 107 331.65 107 330 107 328.35 107.55 326.5 108.25 324.25 108.15 323 108.15 321.25 107.8 319.5
L 107.55 317.75
M 104.5 320.4
L 104.8 320.5 104.55 323
Q 104.55 324.5 105.15 326.5 105.8 328.7 105.8 330 105.8 330.8 105.55 332.15
L 104.55 331.9 104.65 330
Q 104.8 328.4 104.55 326.5
L 103.9 323
Q 103.5 321.3 102.9 319.8 103.8 320.3 104.5 320.4
M 100.8 290
L 100.8 290.05
Q 100.15 291.25 99.55 293.4 99 295.2 99 296.65 98.8 297.9 98.8 299.9
L 99.4 305.15 101 305
Q 102.05 304.85 104.15 304.25
L 105.4 303.9 105.25 303.15
Q 104.75 301.65 104.75 299.9 104.75 298.55 105.4 296.65 105.9 294.7 105.9 293.4 105.75 291.15 105.55 290.05
L 105.15 288.5 102.55 289.15
Q 101.4 289.6 101 289.9
L 100.8 290
M 101.3 290.5
L 102.55 291 102.3 293.25
Q 101.95 291.85 101.3 290.5
M 103.05 297.25
Q 103.55 299 103.55 299.9 103.55 300.65 103.3 301.9
L 102.9 301.75 103.05 299.9
Q 103.3 298.6 103.05 297.25
M 108.65 217.65
L 103.3 214.95
Q 96.9 211.95 95.05 211.15
L 92.05 209.9 92.05 213.15
Q 92.05 216.55 92.25 220.4
L 92.55 227.65 91.75 230.95 72.3 262.25 69.05 268.25
Q 67.9 270.2 65.8 274.15
L 64.05 277.25 68.3 277.25 67.5 316.5 62.5 315.4 46.75 313.05 46.25 313.4
Q 44.25 314.6 42.7 315.75
L 39.45 318.15 31.85 318.75 31.6 318.75 31.5 318.9 26.25 322.4 24 322.3 38.95 310.3
Q 43.6 310.45 46.25 310.25
L 46.9 310.25 56.25 304.75 61.7 304.15
Q 63.35 304.1 67.55 303.4
L 67.55 303 55.75 301.65 55.5 301.65 45.9 306.05 37.25 306.05 28.6 314.3
Q 25.6 317.3 24.75 318.3
L 19.2 324.15 21.45 324
Q 25.7 323.75 26.45 323.75
L 26.6 323.75 32 320.15 40 320.8 40.25 320.9 44.5 318.65
Q 46.55 317.55 47.75 316.75
L 62.4 317.25 67.5 316.9 66.55 369.55 67 443
Q 66.45 453.95 66.3 461.25
L 32.75 469.8
Q 39.85 444.2 40.75 440.4
L 56.2 379.75 63.5 347.75 45.75 343.5 46.5 331
Q 47.1 323.95 47.4 317.4
L 47 317.4 43.2 345.25 59.7 350.05 44.65 409.15 37.45 439.55
Q 36.25 444.4 30.95 468.5 20.8 460.9 16.6 457.4
L 1.5 445.3
Q 4.5 434.7 5.15 432.75
L 23.95 367.5 30.6 341.15 30.75 321.5 30.35 321.5 28.6 340.9 28.6 340.65
Q 23.75 356.4 20.85 366.65 18.9 372.95 17.1 379.65
L 0 445.8 32.25 472.25 32.7 470.4 68.8 463.3 68.8 462.3
Q 69.35 455.1 70.4 439.15
L 72.9 392.9 74.4 346.5
Q 74.85 335.95 75.65 323.3
L 78.9 277 81.55 276.9
Q 86.1 276.9 95.55 276.3
L 102.55 276 125.15 276.15 117.65 262.4 110.3 250.5 95.4 228.95 95.8 228.15 96.15 222.2
Q 97.95 222.6 101 222.9
L 102.65 223.15 100.65 218.75 108.65 217.65
M 99.15 221.15
L 96.15 221.65 96.3 217.4 99.15 221.15
M 89.4 239.4
Q 88.25 242.95 87.25 245.25
L 84.55 250.95
Q 82.9 254.35 82.05 256.75 81.45 258.35 80.15 262.75
L 78.5 268.9
Q 77.95 270.75 77.55 273.4
L 71.05 273.25 76.05 264.4 90.3 236.7 89.4 239.4
M 93.05 234
L 95.05 229.9
Q 97.2 234.45 100.5 240.25
L 111.05 258.3
Q 112.8 261.3 114.8 264.15
L 121.9 274.4 78.75 273.4 83.15 263.9
Q 84.5 260.6 85.4 258 86.05 256.35 87.15 251.9 87.95 248.25 88.65 245.75 89.25 243.2 90.65 239.9 91.3 237.9 93.05 234
M 71.3 278.5
L 76.05 278.4 74.4 323.25
Q 73.55 339.05 73.05 346.4
L 70.5 381.55 70.75 369.65
Q 71.05 354.3 71.05 346.5
L 71.3 278.5
M 281.35 179.65
L 279.25 180.15 279 180.15
Q 277.65 180.75 276.75 180.75
L 272.85 180.95 271.6 181.5
Q 270.85 182.1 270.5 182.65
L 270.1 183.45 269.75 183.65
Q 269.1 183.85 268.2 184.45
L 268.2 184.9
Q 268.55 185.25 269.75 185.75
L 270.25 185.9 271.35 198.2
Q 271.35 200.3 271 203.9
L 270.45 208.9 267.85 212.65 271 212.75
Q 273.05 212.9 275.1 212.75
L 279.1 212.65 289.1 211.4 285.75 209.4 285.5 209.65 285.85 210.15 285.1 210 285.2 209.5 285.45 207.4
Q 285.45 207.85 285.6 208.15
L 286 208.15 286.85 202.9 287.75 192.2
Q 287.95 187.7 287.95 186.9
L 287.95 185.9 288.45 185.75 290.2 184.9 290.2 184.45
Q 288.8 183.7 288.45 183.65
L 288.1 183.4 287.6 182.45 286.6 181.25 285.45 180.4 284.1 179.95 282.75 179.7 281.35 179.65
M 273.75 184.4
L 275 182.9 275.85 182.25 276.85 181.9
Q 278.05 181.9 279 182.2
L 279 182.25 279.1 182.25 279.25 182.4 284 184.65 284.35 184.75 272.45 185.4 272.85 185.15 273 185 273.25 184.9 273.75 184.4
M 273.1 190.15
L 273.25 188.5 274.75 188.65
Q 274.1 189 273.5 189.5
L 273.1 190.15
M 279.6 189.15
Q 280.3 189.3 281.2 189.7 281.65 190.05 282 190.7 282.15 191.3 282 192.15
L 281.75 193.9 281.35 201.7
Q 281.35 204.75 281.5 205.65
L 281.75 208.15 279.5 208.4
Q 278.6 208.55 275.75 209.2 275.45 209.35 275.1 209.2
L 273.5 209.25 273.45 208.7 273.5 208.9 273.95 208.9 274.95 204.65
Q 275.25 202.5 275.45 200.4
L 275.5 196.15 274.95 191.9 274.95 191.7 274.85 191.2
Q 274.85 190.7 275 190.65 275.15 190 276 189.5 276.7 189.15 277.75 189.15 278.2 189.1 279.6 189.15
M 242.05 179.7
L 240.6 179.65 238.55 180.15 238.35 180.15
Q 236.85 180.75 236.05 180.75
L 232.1 180.95 230.85 181.5
Q 230.15 182.15 229.85 182.65
L 229.35 183.45 229.1 183.65
Q 228.4 183.8 227.5 184.45
L 227.5 184.9
Q 227.9 185.25 229.1 185.75
L 230.1 186.15 231.05 195.4 231.1 198.2
Q 231.1 201.05 230.8 203.9
L 230.25 208.9 227.6 212.65 230.8 212.75
Q 232.85 212.9 234.85 212.75
L 238.85 212.65 248.85 211.4 245.55 209.4 245.3 209.65 245.6 210.15 244.85 210 245.1 207.15 245.35 208.15 245.8 208.15
Q 246.5 203.9 246.6 202.9
L 247.75 186.9 247.6 185.75 247.75 185.75
Q 249.15 185.15 249.5 184.9
L 249.5 184.45
Q 248.3 183.8 247.75 183.65
L 247.35 183.4 246.85 182.45 246 181.25 244.75 180.4 243.35 179.95 242.05 179.7
M 233.1 184.4
Q 233.5 184.05 233.6 183.65
L 235.1 182.25 236.1 181.9
Q 237.1 181.9 238.35 182.2
L 238.3 182.2 238.3 182.25 238.35 182.25 238.55 182.4 243.6 184.75 231.6 185.4 232.1 185.15 233.1 184.4
M 239.35 189.15
Q 240.1 189.35 241 189.7 241.6 190.15 241.75 190.7
L 241.8 192.15 241.1 201.7
Q 241.1 204.1 241.3 205.65
L 241.5 208.15 235.6 209.2
Q 235.25 209.35 234.85 209.2
L 233.3 209.25 233.1 208.45
Q 233.25 208.85 233.35 208.9
L 233.75 208.9 234.75 204.65 235.1 200.4
Q 235.3 199 235.3 196.15
L 234.75 191.9 234.6 191.7 234.6 191.2
Q 234.6 190.9 234.75 190.65 234.9 190.05 235.85 189.5 236.55 189.15 237.55 189.15 237.95 189.1 239.35 189.15
M 234.55 188.65
Q 233.9 188.95 233.35 189.5
L 232.85 189.95 233.1 188.5 234.55 188.65
M 531.5 218.5
L 529.65 218.25 528 218.25 527.95 218.4
Q 525.45 218.5 523.25 219.75 521.15 221.25 520.25 223.5 519.35 225.7 519.5 228
L 519.7 236.45
Q 519.45 242.25 519.25 244.9
L 519.25 245.75 527.75 246.4
Q 531.5 246.7 535 246.7
L 535.25 250.4 520.9 251.4 520.5 247.9 520 247.9 519.5 252.7 520.25 252.9 528.7 253.45
Q 531.25 253.7 532.9 253.7
L 538.75 253.95 539 246.75 545.4 246.75 539.15 244.45 538.95 226.65
Q 538.4 223.6 537 221.9 535.2 219.65 532.75 218.9
L 531.5 218.5
M 529.45 222.25
L 528.15 221.9 526.2 221.9 526.15 222.25 528.45 223 529.25 223.65
Q 529.85 224.2 530 224.45
L 530.45 224.9 531.15 226.4 531.45 227.5 531.5 228.5 531 243.2 521.2 243.9
Q 521 240.45 520.9 236.45
L 521 228
Q 521.15 225.95 522 224.4 522.95 222.7 524.5 221.95 525.9 221.3 528 221.4
L 529.5 221.5 531.5 222.15
Q 532.75 222.7 534 224 534.95 225.4 535 227.15
L 535 242.9 534.5 242.75 534 228.25 533 225.65 532.25 224.4 531.25 223.4 529.45 222.25
M 567.65 244.45
L 567.45 226.65
Q 566.9 223.6 565.5 221.9 563.7 219.65 561.25 218.9
L 560 218.5 558.15 218.25 556.5 218.25 556.45 218.4
Q 553.95 218.5 551.75 219.75 549.65 221.25 548.75 223.5 547.85 225.7 548 228
L 548.2 236.45
Q 547.95 242.25 547.75 244.9
L 547.75 245.75 556.25 246.4
Q 560 246.7 563.5 246.7
L 563.75 250.4 549.4 251.4 549 247.9 548.5 247.9 548 252.7 548.75 252.9 557.2 253.45
Q 559.75 253.7 561.4 253.7
L 567.25 253.95 567.5 246.75 573.9 246.75 567.65 244.45
M 554.65 222.25
L 555.25 222.4 556.95 223 557.75 223.65
Q 558.35 224.2 558.5 224.45
L 558.95 224.9 559.65 226.4 559.95 227.5 560 228.5 559.5 243.2 549.7 243.9
Q 549.5 240.45 549.4 236.45
L 549.5 228
Q 549.65 225.95 550.5 224.4 551.45 222.7 553 221.95 554.4 221.3 556.5 221.4
L 556.9 221.4 559.25 221.75 560 222.15
Q 561.25 222.7 562.5 224 563.45 225.4 563.5 227.15
L 563.5 242.9 563 242.75 562.5 228.25 561.5 225.65 560.75 224.4 559.75 223.4 557.95 222.25 556.65 221.9 554.7 221.9 554.65 222.25
M 329.6 218.45
Q 331.15 218.2 331.6 217.95
L 334.6 216.9 334.6 216.45 333.2 215.9 329.6 214.9
Q 326.6 214.45 324.45 214.65
L 321.5 214.9
Q 320.25 215.05 318.5 215.65 316.4 216.15 315.5 216.15 314.7 216.15 312.6 215.65
L 309.95 214.9
Q 308.5 214.8 307.5 214.95 305.35 215.2 303.85 215.9
L 302.5 216.45 302.5 216.9 303.85 217.5
Q 305.05 218.1 307.5 218.4 309.35 218.55 309.95 218.4 310.5 218.4 312.6 217.7 314.65 217.25 315.5 217.25 316.4 217.25 318.5 217.75 320.65 218.4 321.5 218.4
L 324.45 218.75
Q 326.7 218.95 329.6 218.45
M 326.75 183.25
L 325.75 182 324.6 181.15 323.25 180.7 321.85 180.45 320.5 180.4
Q 319.5 180.5 318.25 180.9
L 318.1 180.9 317 181.4 312 181.7 310.75 182.25
Q 309.85 183.05 309.7 183.4
L 309.25 184.2 308.85 184.4
Q 308 184.75 307.35 185.2
L 307.35 185.65
Q 307.75 186.05 308.85 186.5
L 309.7 186.75 310.6 198.2
Q 310.6 201.25 310.35 203.9
L 309.75 208.9 307.2 212.65 310.35 212.75
Q 312.4 212.9 314.35 212.75
L 318.5 212.65 328.45 211.4 325.1 209.4 324.75 209.65 325.1 210.15 324.35 210 324.6 206.75 324.85 208.15 325.25 208.15
Q 325.8 205.4 326.2 202.9
L 327.25 186.9 327.25 186.65 327.6 186.5
Q 328.8 186 329.25 185.65
L 329.25 185.2
Q 328.5 184.75 327.6 184.4
L 327.25 184.2 326.75 183.25
M 318 182.95
L 318.1 182.95
Q 318.65 183.3 320.25 183.9
L 321 184.2
Q 321.7 184.6 321.75 184.65
L 322.25 184.9 312.6 185.4 312.95 185.15 314.2 183.65 315 183 316 182.65 317.1 182.7 318 182.95
M 312.45 190.15
L 312.6 188.5 314 188.65
Q 313.4 188.95 312.85 189.5
L 312.45 190.15
M 320.5 189.7
Q 321 190.05 321.25 190.7 321.35 191.05 321.35 192.15
L 321.1 193.9 320.75 205.65 321 208.15 318.85 208.4
Q 316.2 208.95 314.85 209.4
L 312.85 209.25 312.75 208.65 312.85 208.9 313.25 208.9 314.25 204.65 314.85 196.15 314.25 191.9 314.25 191.7 314.1 191.2
Q 314.1 190.8 314.25 190.65 314.4 190.05 315.35 189.5 316.05 189.15 317 189.15 317.55 189.05 318.85 189.15 319.75 189.3 320.5 189.7
M 547.9 162.75
L 546.95 161.4 545.75 160.15
Q 544.35 159.1 542.75 158.65 541.15 158.1 539.75 158.4
L 539.7 158.9
Q 541.05 159.25 542.15 160.15 543.1 160.9 544 161.9
L 544.65 162.95 545.15 164.15
Q 545.55 165.5 545.7 166.5
L 545.9 169.15
Q 545.9 171.6 546 171.95 546 173.15 546.65 177.9 547 180.7 547 183.65 547 187.55 546.75 189.4
L 546.15 195.25
Q 546 196.25 545.9 199.15 543.1 199 541.75 199
L 537.5 199.15 537 194.4 531.7 195.15 532.5 202.4 533 202.4 533.7 197.15 534.25 197.15 533.5 202.9 541.75 203.15
Q 545.3 203.15 547.7 202.95
L 549.7 202.9 549.5 201.15
Q 549.5 198.1 549.25 195.25
L 548.5 189.4
Q 548.25 186.25 548.25 183.65 548.25 181.45 548.75 177.9
L 549.45 171.95 549.5 169.15 549 165.9
Q 548.65 164.4 547.9 162.75
M 532.4 29.5
L 532.25 28.65 531.5 26.4 529.75 26.3 528.75 29.5 528.5 29.9 528.7 30.05 528.25 31.75 529 32.25 528.95 32.5 528.9 34 529.15 35.5 529.5 36.6 529.2 36.75
Q 528.35 37.35 527.95 38.25 527.75 38.65 527.75 39.25
L 528 40 528 40.25 528.15 40.25 528.25 40.5 528.9 41.25 529.5 42.35 526 99.85 525.75 100.6 525.45 101.1
Q 525.25 101.45 525 101.6
L 524.75 101.7 524.75 101.85 524.5 101.95 511.85 108.35 515 108.25 516.15 110.35 516.25 112.2 515.75 113.45 515.75 114.6
Q 515.78359375 115.654296875 516.25 117.1
L 517 119.5 515.75 120.45 510.95 122.95 509.75 123.75
Q 508.05 123.75 505.7 124.2
L 503.35 124.7 501.45 125.5 501.35 125.5 501.35 125.6 501.25 125.6 500.5 125.7
Q 499.8 126.05 499.35 126.5
L 498.95 127.1 498.7 127.6 498.35 128.65
Q 498.15 129.25 498 130.75 497.95 131.55 498.1 132.65
L 496.5 133.45 496.6 133.9 498.85 133.15 498.85 133 499.1 134.25 499.35 134.7
Q 499.9 135.9 499.95 136.5
L 499.95 138.45
Q 499.8 139.3 500.2 139.9
L 500.35 140.15 500.6 140.4 501.25 140.65 501.35 140.65
Q 502.35 140.95 503.1 140.2 503.8 139.65 504 138.95 504.1 138.75 504.1 138 504.05 137.6 503.6 136.65
L 503.2 135.5 503.1 134.7
Q 503.1 134.15 503.25 133.9 503.35 133.4 503.7 132.9
L 503.85 132.45 504 132.65 504.6 132.9 505.1 133 535 132.25 535.45 129.95 535.75 129.15 536.4 128.25 536.7 127.95 538.25 126.85 539.4 126.5 538.4 127
Q 537 127.95 536.15 129.65
L 535.9 130.4 535.75 131.25 535.75 132.15 536 132.65 536 133.15 536.25 133.5
Q 536.25 133.8 536.5 134.15 536.65 134.75 537.2 135.4
L 538.25 137.15 538.75 137.65
Q 539.3 138.1 539.5 138.15
L 540.25 138.65 540.75 138.75 541 138.9 541.7 138.9
Q 542.35 138.9 543.15 138.45
L 544.25 137.65
Q 544.95 136.7 545 135.5
L 545 133.15 545.15 132.9 545 130.15
Q 544.95 128.8 544.25 127.95 543.55 127.15 543.2 126.95 542.2 126.45 541.7 126.45
L 541.5 126.35 542.95 126.6 543.75 127 544.65 127.7
Q 545.1 127.9 545.4 128.4
L 547 131.4 547.25 132.25 553.45 131.9 553.15 133.25 563.25 133.7 563 131.4 562.75 130.4 561.65 128.4 560.75 127.45 559.75 126.75 558.75 126.25 557.5 126 550.4 125.75 545.15 120.1 545.25 110.2 547.75 105.85 541.65 105.7 535.5 103 535.5 102.95 534.95 102.75 534.5 102.35 533.95 101.35
Q 533.75 100.7 533.75 100
L 533.7 99.35 533.75 98.7 533.75 77.2 531.7 43.25
Q 532.05 43.2 532.4 42.75
L 532.65 42 532.7 41.35 532.4 40.25 532.4 40 532.7 38.75
Q 532.7 38.1 532.45 37.5
L 531.75 36.8
Q 532.05 36.15 532.2 35.5
L 532.45 34.25 532.5 34.25 534.5 30.65 534.4 30.65
Q 533.75 30.15 532.4 29.5
M 531.75 39.75
L 532 40 532 40.25 531.75 40.5 531.25 40.5
Q 530.95 40.45 530.95 40.3
L 530.9 40.6
Q 530.8021484375 40.746875 530.65 40.75 530.75 40.7453125 530.75 40.6
L 530.5 40.5
Q 530.05 40.95 529.9 40.55
L 529.95 40.3 530.15 40.1 530.2 40.1 530.25 40.05 530.25 40.25 530.5 40 530.65 40 530.65 39.85 530.7 39.85 530.7 40 530.75 40 531.2 39.75
Q 531.45 39.65 531.75 39.75
M 530.75 43.3
L 531 43.3
Q 531.1 43.45 531.15 43.3
L 531 77.35 532.4 98.7 532.4 98.6 532.75 101.7 533.2 102.45 533.75 103.1
Q 534.05 103.5 534.45 103.6 534.45 103.8 535.25 103.95
L 539.15 105.6 537.2 105.6 537.2 106.35 522.5 105.95 525.7 104.45
Q 526.25 104.3 526.75 103.85 527.4 103.4 527.75 102.85
L 528.4 101.7
Q 528.65 101.35 528.75 100.6
L 529.15 98.35 529.95 80.7 530.2 43 530.5 43.25 530.75 43.25 530.75 43.3
M 534.75 111.5
L 534.5 111.5 534.5 111.6 534.4 111.6 533.45 112.45 533 113.1
Q 532.9 113.25 532.9 113.7
L 532.9 114.2
Q 532.85 114.4 532.9 114.7
L 532.75 114.5
Q 532.75 114.95 532 115.85 531.65 116.7 531.5 117.2 531.35 118.05 531.4 118.5 531.4 119.1 531.5 119.25
L 526.5 119.45 526.5 119.2 526.4 119
Q 526.8 117.95 526.7 116.95
L 526.75 117 527.25 117
Q 527.8 116.55 528.15 116.1 528.4 115.65 528.5 115.1
L 528.75 114.2 528.75 113.7 528.65 112.95 528.25 112.2
Q 528 111.85 527.5 111.7 527.3 111.6 526.95 111.6
L 526.5 111.6 525.9 111.85 525.75 111.95 525.5 111.95 525.25 112.1
Q 525 112.1 524.65 112.35 524.4 112.45 524.25 112.5
L 523.5 113.6 523.45 114.45 523.4 114.1 522.75 115.45 522.5 116.75
Q 522.15 117.7 522.9 119.45
L 522.95 119.5 521.95 119.6 521.25 108.1 537.2 107.6 537.15 112.2 536.9 111.95 536.4 111.6 535.5 111.35 535 111.45 534.75 111.45 534.75 111.5
M 534.25 113.95
L 534.25 114 534.4 113.95 534.45 113.95 534.75 114.6 534.7 114.6 534.7 114.7 534.75 114.7 534.9 114.85 535 114.85 535.2 115.1 536.75 115.1 536.75 115 537 114.85 537 114.7 537.15 114.6
Q 537.1 116.35 537.15 119.2
L 535.5 119.2 535.7 118.5 535.5 117.2 534.2 114.5 534.2 114.35 534 114.2 534 113.95 534.25 113.95
M 541.25 120.2
L 541.4 120.2 541.5 119.95 541.5 121.5 544.2 124 544 123.95 543.25 123.6 541.25 123.35 541.25 121.2
Q 541.4 120.8 541.25 120.2
M 539.25 131.4
Q 539.6 130.85 540.25 130.7
L 542.25 130.65 543.5 130.9 544.45 131.75 544.7 132.5 544.75 132.75 544.7 133.15 544.45 133.9 544.15 134.25 543.5 134.65
Q 543.2 134.9 542.25 135.15
L 541.75 135.15 541.25 135.4 541 135.4 541 135.45 541.15 135.45 540.2 135.7
Q 540 135.85 539.75 135.75 538.7 135.9 538.25 134.9 537.85 134.3 538 133.9 537.95 133.7 538 133.25
L 538 133 538.15 132.9 538.2 132.9 538.45 132.4 538.5 132 538.75 131.9 538.95 131.65 539.25 131.4
M 533.75 126
L 532.75 127.25 532 128.9 506.1 130.15 505.6 130.4 505.5 130.2 505.25 129.2
Q 505.05 128.5 504.6 127.45
L 505.7 127.7
Q 508.1 128.15 510.25 128
L 511.2 127.95 513.25 125.85
Q 514.25 124.9 514.9 123.95
L 516.25 121.95 518 120.2 518.25 120.1 518.25 119.75
Q 518.25 118.9 518.9 117.1
L 519 116.7 518.75 122.7 539.45 123.35 537.2 123.85 536.45 124.1
Q 535.9 124.3 535 124.95
L 533.75 126
M 558.7 128.95
L 559.75 129.9 560.7 131.15 560.75 131.65 554.7 131.9 554.75 130.5 554.15 130.65 548.9 130.15 548.75 129.5 548.2 128.15 547.9 127.7 549 128.9 557.25 128.65 558 128.75 558.7 128.95
M 517 109.45
L 519.4 109.6 519.25 111.7
Q 518.75 111.35 518.5 111.35
L 518.15 111.25 518 111.25 517.7 111.35 517.25 111.35 517 111.45 517.25 110.1 517 109.45
M 525.75 113.35
L 525.75 113.45 526.2 113.7 526.25 113.85 526.15 113.95 526 113.95
Q 525.85 114.1 525.7 113.85
L 525.7 113.75 525.65 113.75 525.45 113.5 525.4 113.45 525.25 113.45
Q 525.05 113.35 525.25 113.35 525.25 113.25 525.5 113.25
L 525.75 113.35
M 501.95 127.6
L 502.35 127.95 502.5 128.15 502.6 128.4 502.35 128.4 502.1 128.25 502 128.25 501.6 128.2 501.5 128.2 501.35 128.25 500.75 128.4 500.25 128.65 499.75 129.15 500.1 128.4 500.6 127.75 501.1 127.5 501.7 127.5 501.95 127.6
M 501.1 132.4
L 500.75 132.2 500.6 132.15 500.5 132.15 500.45 131.9 500.5 131.9 501.1 132.4
M 502.7 134.5
L 502.7 134.7 502.5 135.5
Q 502.2 136.1 501.95 136.4
L 501.25 136.95 501.1 136.4
Q 501.1 135.7 501.5 134.7
L 502.25 133.45 502.5 133.9 502.7 134.5
M 502.35 137.75
L 502.45 137.9
Q 502.4 138.05 501.95 137.75 501.7 137.75 501.5 137.4
L 501.85 137.4 501.85 137.45 502.35 137.7 502.35 137.75
M 807.75 268.65
L 801.75 268.65 801.75 278.75 807.75 278.75 807.75 268.65
M 791.7 194.7
L 791 194.5 790 198.45
Q 789.8 199.35 789.95 201.4 789.95 202.8 790.45 204.15
L 790.65 205.1
Q 789.493359375 205.4478515625 788.95 206.15
L 788.95 206.15
Q 787.9005859375 207.2248046875 787.9 208.75 787.89453125 210.4703125 789 211.55
L 789.3 211.8 790.75 210.4 770.25 252.15 756 262.4 761.5 262.25 761.5 292.8 765.5 292.8 765.5 264.3 773.15 264.3 774 267.4
Q 778.3412109375 266.254296875 787.7 265.1 790.68828125 264.7896484375 795.9 264.3
L 816.5 267 816.5 296.65 809.95 293.25 809.65 293 741 292.75 718.45 296.9 578.25 293.3 577.4 229.25 576.75 207.4 576.25 207.4 574.75 293.05 534.25 292.5 534.25 290.5 527.15 290.65 527.15 292.4 509.1 292.15 509.1 206.65 585.15 207.15 576.45 203.15 576.2 195.7 571.7 195.9 571.9 202.4 572.25 202.4 572.5 196.65 575.2 196.75 575 203.9 577.25 205.15 509.6 202.65 509.35 196.15 509.75 196.15
Q 509.95 199.15 510.45 201.9
L 510.85 201.9 511.7 194.15 507.75 193.9 506.6 168
Q 506.6 164.6 506.35 162.15 506.15 160.5 505.75 159.15
L 504.95 157.65 504.1 156.9 503.5 156.65 503.2 156.65 503 156.5 502.7 156.5 501.6 156.9
Q 501 157.05 500.7 157.5 500.4 157.8 499.6 159.15 498.95 160.5 498.6 162 497.9 164.5 497.75 167.95
L 497.35 179.5
Q 497.3 184.7 497.45 190.95
L 497.7 198.5 497.45 195.4 494.35 195.65 494 149.9 512 147.75 512.75 202 513.25 201.95 531.25 202 531.95 166.7
Q 532.2 165.15 532.7 163.9 533.65 161.05 535.75 159.4
L 536.95 158.65 538.15 158.15 540.95 157.75
Q 544.05 157.75 546 158.95 548.35 160.35 549.5 162.9 550.5 165.45 550.5 168.4
L 550.5 174.65
Q 550.5 188.75 550.65 200
L 550.65 201.7 571.4 201.5 570.25 148.9 572.75 148.75 572.7 146.4 572.25 146.4 572.25 148.2 569.45 148.15 568.25 198.45 554 198.4
Q 554.15 187.9 554.15 174.65
L 554.15 168.4
Q 554.15 165 552.5 161.45 551 157.9 547.75 156.15 546.3 155.2 544.25 154.9 543.45 154.7 542.5 154.7
L 541 154.65 539 154.9 537.25 155.4 535.5 156.15 534 157.15
Q 531.3 159.5 530.25 163 529.9 163.9 529.5 166.4
L 529.95 200.7 514 200.75 514.75 145.9 542.25 145.7 577.25 144.45 557.25 136.95 552.2 141 530.45 140.4 518.65 134.9 509.45 141.4 507 141.7 506.35 134.15 505.95 134.15
Q 505.5 138 505.25 142.5
L 499 143.4 499 143.15 498.2 134.9 497.75 134.9 497.45 142.5 487.25 145 487.7 147.15 476.6 148.15 490.5 150.95 490.1 200.45 464.35 209.2 482 208.15 482.85 259.4 456.35 283.4 447.5 282
Q 447.95 281.05 448.25 279.5
L 448.6 276.65
Q 448.7 274.85 448.6 273.8 448.55 273.3 448.1 271 447.45 269.25 447.25 268.25 446.95 266.6 447.1 265.4 447.1 263.95 447.35 262.55
L 447.6 260.55 453.75 260.75 444.85 254.2 431.2 228.75 431 228.5 436.6 228.75 432.5 224.75
Q 431.2 223.5 429.75 222.65
L 429.35 220.65 428.25 217.45 427.85 217.45 426.75 220.65 426.1 224.25 426.5 224.7 424 225.25
Q 422.7 225.65 421.25 225.75
L 421.35 225.65 421.35 224.7
Q 421.35 223.45 421 221.15
L 420.5 219.4
Q 420.4 218.95 420 217.9 421.45 217.8 424 217.45
L 428.25 217.15
Q 430.7 217.05 432.35 217.4
L 436.2 217.9 430.2 214.75
Q 429.45 212.4 429.2 211.75
L 427.75 208.5 424.2 202.4 424 202.15 423.85 202.4
Q 422.8 203.85 422 205.4
L 417.6 214.25 406.75 218.65 415.7 218.15
Q 418.35 218.05 419.1 217.95
L 418.6 219.4
Q 418.4 219.9 418.2 221.15 417.85 222.55 417.85 223.75 416.9 224.6 416.25 225.4
L 413.35 228.7 418.75 227.15
Q 420.05 226.95 420.5 226.95 421.6 226.95 424 227.45
L 425.1 227.7 424.5 227.65
Q 421.2 227.4 418.6 227.4
L 418.45 227.4
Q 416.75 229.85 414.1 234.4 411.85 237.9 410 241.4
L 402.6 255.25 394.1 259.15 394.2 258.9
Q 394.45 257.05 394.6 254.9 394.7 252.5 394.35 250.9
L 393.5 246.9
Q 393.3 244.8 393.6 242.9
L 394.35 238.9
Q 394.6 237.65 394.6 236.9
L 395 230.95 398.1 231 389.35 221.7 386.85 221.7 384.35 220.7 384.35 218.4 383 218.4 382.75 197.15
Q 382.45 182.3 382.1 174.4
L 387.1 174.45 382.35 169.4 382.45 154.15 385.45 152.25 385.5 146.4 382.75 146.4 382.75 145.9 365.85 143.9 367.2 143.45
Q 367.3 143.45 367.5 143.25
L 367.75 143.15 368.1 142.65 368.1 142.4 368.5 137.15
Q 368.75 134 368.75 131.9 368.9 127.4 368.85 121.6
L 367.75 102.5 368.1 102.7 368.5 103 369.25 102.1 369.6 102.2 371.45 99.85
Q 371.75 99.45 372.25 98.35 372.95 97.1 373.35 94.95 373.75 93.45 373.5 91.35
L 373.2 89.5 372.6 87.85
Q 371.8 85.95 370.85 84.85 370.25 83.9 369.85 83.45
L 368.7 82.2 359.6 74.2 357.85 72.1 357.75 71.95 357.75 71.85 357.5 71.6 352.45 59.25 352.75 58.85
Q 352.85 58.65 352.85 58.25
L 352.85 57.75 352.5 56.75 352.5 56.5 352.75 56 352.85 55.5
Q 352.95 54.75 352.75 54.25
L 352.5 54
Q 352.7 53.8 352.85 53.3 353.05 52.85 353 52.5
L 352.25 51.5
Q 351.75 51.05 351.75 50.5
L 353.35 49.75 353.6 49.3 353.6 49.1 353.75 48.1 353.7 47.5 353.35 46.8 353 45.75 352.5 45 351.6 44 351 44 350.35 44.35 349.45 45.6 348.85 46 348.5 46.5 348.35 47.25
Q 348.2 47.9 348.45 48.25 348.6 48.5 348.75 48.5 348.8 48.65 349.35 48.25
L 349.45 48.5
Q 349.45 48.7 350.1 49.5 350.6 50.25 350.6 50.5 350.6 51.1 350.1 51.5 349.45 52.3 349.45 52.5 349.3 52.8 349.5 53.3 349.6 53.7 349.7 53.75 349 54.4 348.75 55 348.55 55.4 348.7 56 348.7 56.45 349 56.6
L 349.75 57.55 350.35 58.6
Q 350.35 58.75 350.45 58.75 349.2 62.8 348.6 64.2
L 347.6 66.85
Q 346.75 68.85 346.35 69.5 345.7 70.95 345 71.95
L 344 73.25 344 73.35 343.95 73.35 343.85 73.5 342.75 74.5
Q 342.85 74.2 342.85 73.7
L 342.5 73.2 341.5 72.25
Q 341.6 72.25 341.85 71.95
L 342 71.35 341.95 70.75 341.85 70.35 341.6 69.75 341.6 69.6 342 68.6
Q 342.05 67.85 341.85 67.35
L 341.75 67.2 342 66.7
Q 342.15 66.25 342 65.75
L 341.35 64.75
Q 340.85 64.25 340.85 63.75
L 340.85 63.6 341.1 63.55 342.25 63 342.5 62.75 343 61.75 343.1 61.1
Q 343.2 60.5 342.75 60.5
L 342.35 60.35
Q 342.5 59.75 342.1 58.5
L 341.1 57.1 340.5 56.6 340.1 56.6 339.95 56.75 339.5 57.1 338.5 58.5
Q 337.95 59.5 338.25 60.35
L 338.5 61.3
Q 338.35 61.45 338.5 61.55 338.6 61.85 338.7 61.85
L 338.75 61.8 339.2 62.55
Q 339.7 63.4 339.7 63.75 339.7 64.15 339.25 64.75
L 338.5 65.75 338.6 66.7 338.7 66.95 338.35 67.2 337.85 65.2
Q 337.45 63.5 336.1 61 334.7 58.65 333.5 57.25
L 321.6 44.05 318.7 40.25 318.75 40.25 317.85 38.85
Q 317.05 37.45 317 37.05 316.2 35 315.7 33.1 314.7 29.35 314.7 28.9 314.1 26.8 313.95 24.65 313.55 22.4 313.45 20.4
L 313.25 18.65 312.95 18.65
Q 312.85 18.5 312.95 18.4
L 312.95 18 313.1 16.4 313 15.65 312.6 14.75
Q 312 14.25 311.75 14.15
L 312 13.25
Q 312.15 12.6 312 12.15 312 12.05 311.35 10.75 310.85 10.05 310.85 9.4 310.85 8.8 311.25 8.15
L 311.35 8.15 311.85 7.95 312.95 7.2 313.1 6.85 313.1 5.6 312.95 4.95 312.45 4.25 312.1 2.5 311.1 0.65 310.5 0 310.1 0 309.5 0.65 308.5 2.5 308.25 3.25 307.35 4 307.2 4.45 307.2 4.95
Q 307.2 5.8 307.45 6 307.6 6.35 307.85 6.35
L 308.45 6.1 308.5 6.45 309.2 7.85
Q 309.7 9 309.7 9.4 309.7 10 309.25 10.75 308.65 11.65 308.5 12.15 308.5 12.9 308.6 13.25
L 308.75 13.9 308.45 14.15
Q 307.3 14.7 306.75 15.9 306.5 16.45 306.5 17.15 306.5 17.9 306.75 18.25
L 307.25 19.15 304.45 32.5 302.45 38.05 299.1 43 290.5 52.25
Q 288.45 54.5 288.45 54.75 287.35 56.15 286.6 57.5
L 284.1 63.5 284.45 63.55 287.85 58.3 289.85 56 299.45 47.6
Q 300.2 47 301.75 45.3 302.95 44.1 304 42.75
L 305.95 40 307.35 36.8
Q 307.9 35.45 308.45 33.75
L 310.25 26.25 311 29.75
Q 311.55 32 312.35 34.25 313.15 36.7 314.1 38.5 314.55 39.5 315.35 40.55
L 316.35 42 316.45 42 319.85 45.75 332.6 58
Q 333.7 59.5 334.95 61.5 336.05 64.15 336.35 65.5
L 336.6 67.6 336.5 70.75 336.25 71.75
Q 336.05 72.85 335.75 73.75 335.15 75.7 334.1 77.6
L 333.1 79.45 332.75 79.95 331.6 79.45 321.6 78.25 311.85 78.35
Q 310.05 78.35 309.45 78.45
L 297.25 80 296.35 80.25 296 79.85 287.75 73
Q 287.6 73 286.85 72
L 286 70.95 285.7 70.45 285.6 70.35 284.2 67.35 280.6 57.55 280.95 57.3 281.1 56.75 281.1 56.1 280.75 55.1 280.75 55 280.85 54.6 281 54.35 281.1 54
Q 281.2 53.25 281 52.75
L 280.85 52.5 281.1 52 281.2 51 280.5 50
Q 280 49.35 280 48.8
L 280 48.75 280.1 48.75 281.25 48.35 281.85 48.05 282.1 47.75 282.25 47.1 282.35 45.85
Q 282.15 45.2 281.7 45
L 281.5 45
Q 281.65 44.25 281.2 43.3
L 280.75 42.5 280.25 41.85 279.75 41.5 279.6 41.35 279.25 41.35 279 41.5 278.1 42.5 277.6 43.3 277.5 43.5 277.25 43.6 276.85 44.05 276.6 44.75
Q 276.55 45.5 276.7 45.85 276.85 46.25 277 46.25
L 277.5 46.1 277.6 46.5
Q 277.95 47.2 278.35 47.6
L 278.85 48.8
Q 278.85 49.15 278.35 50
L 277.6 51
Q 277.5 51.4 277.75 52
L 277.85 52.25
Q 277.2 52.8 277 53.5 276.85 53.65 276.85 54.35 276.85 54.85 277.2 55
L 278 56 278.45 56.8 275.7 65.25 274.35 68.35 274.1 66.95 273.75 66.2
Q 273.5 66.05 272.85 65.2
L 272.85 65.1 272.75 64.7 272.6 64.35 272.6 64 272.95 63
Q 273 62.2 272.75 61.75
L 272.75 61.55 272.95 61.05
Q 273.1 60.65 273 60.25 272.9 60 272.25 59.25 271.75 58.65 271.85 58.25
L 271.85 58.05
Q 271.95 58.2 272 58.05
L 273.45 57.5 273.85 57 274.1 55.75 274.1 55.25
Q 273.95 54.5 273.5 54.5
L 273.35 54.35
Q 273.15 53.55 273 53.25
L 272.5 52.5 271.45 51.35 271 51.35 269.95 52.5 269.45 53.25
Q 269.2 53.65 269.1 54.25
L 269 54.75
Q 268.7 55.35 269 55.75 269 56.05 269.25 56.05 269.25 56.15 269.5 56
L 269.5 56.05
Q 269.5 56.35 270.1 57.1 270.6 57.75 270.6 58.25 270.7 58.7 270.2 59.25 269.5 60.05 269.5 60.25 269.45 60.45 269.5 61.05
L 269.6 61.3
Q 269 61.9 268.85 62.5 268.7 62.95 268.75 63.3 268.75 63.7 268.85 63.75
L 269 64 269 64.1 269.75 64.95 270 65.35 269.6 66.2 268.75 67.35 267.6 69.85 267.35 71.75 267.35 72.45 267.6 73.85
Q 267.7 74.6 267.95 75
L 266.45 76.2
Q 264.5 77.45 263.85 77.95 262.15 79.3 261.35 80.1 259.7 82 259.2 82.95
L 258.6 84.2 258.2 85.95 255.8 87.6
Q 254.9 88.2 254.75 88.6 253.85 89.6 253.85 89.7 253.4 90.3 253.25 91.1
L 252.6 93.25 252.55 94.1 252 96.95
Q 251.45 98.8 251.35 99.95
L 251.35 101.45 251.6 103.1 253.1 106.1 252.75 106.35 250.85 106.85 254.85 108.45 255.25 108.35 255.3 108.6 255.05 108.6 255.1 108.95
Q 255.1 109.9 255.35 110.5
L 255.85 112.1
Q 256.3 113 256.35 113.7
L 256.25 115.25
Q 255.85 117.15 255.5 118.45
L 255.1 120 255.05 121.6
Q 254.8 123.55 255.05 124.85 255.25 126.45 255.6 127.95 256.1 129.5 256.7 130.65
L 234.1 136.4 200.35 146.15 209.6 146.15 207.75 150.75
Q 206.75 153.1 205.55 154.95
L 205.35 155.2 206.05 156.9 206.1 157 207.1 158.5
Q 206.75 160.55 206.75 161.95 206.7 163.2 206.85 165.65 206.85 167.15 207.35 169.25
L 207.75 171.15
Q 208 172.25 208.35 172.9
L 208.55 172.9 205.25 176.75 208.1 179.4 214.55 172.25 298.35 172.95 372.35 174.2 372.2 176.75 373.85 176.9 374 174.5 380.45 174.75
Q 380.05 182.1 379.75 197.15
L 379.5 218.9 365.6 213.4
Q 365.65 209.9 365.5 207.7
L 365.1 201.9 366.6 200.7 363.85 198.9 364.35 198.4 365 197.15
Q 365.3 196.45 365.35 195.9 365.5 195.15 365.45 194.4
L 364.95 192.65 364.1 191.45 363.1 190.4 360.45 188.25
Q 359.85 188 359.75 187.75 359.2 187.45 359.1 187.2
L 358.45 186.4 358.1 185.7 358.1 185.4 357.5 180.9 357.2 180.4 356.75 179.9 356.35 179.65 355.85 179.65 355.35 179.9 355 180.25
Q 354.85 180.45 354.85 180.9
L 354.85 182.75 354.5 185.4 354.5 186.15 354.1 186.75 353.1 187.65
Q 351.5 188.5 350.6 189.15
L 348.35 191 347.25 192.25 346.35 193.9
Q 346.1 194.45 346.1 195.9
L 346.2 196.9 346.5 197.7
Q 347 198.6 347.6 199.15
L 343.5 202.15 347.25 202.5 347.5 207.65
Q 347.6 208.95 348 210.95
L 348.5 213.15 340.75 216.65
Q 335.7 219.05 333 220.45
L 333.1 220.9 349.25 215.65 361.35 216 363.25 216.2 372.75 219.65 369.25 219.9
Q 363.75 220.3 358.1 220.45 356.45 220.65 352.5 220.65
L 335.5 220.4 331.95 222.15 332 223.15
Q 332.6 228.95 333.6 235.65
L 333.75 237.15 335.35 237.15
Q 336.2 237.5 337.25 237.7
L 337.7 237.9
Q 337.25 240.2 337.25 243.15
L 337.35 244.2 336.75 242.75 336.35 242.9
Q 335.85 244.75 335.6 247.65
L 335.6 250.4 325 250.4 324.95 250.15 324.5 250.15 324.5 250.4 322.45 250.4
Q 320.35 250 318.85 249.9
L 315.75 249.65 316.45 247.9 316.95 245.65 317.2 241.4 316.2 237.15
Q 315.75 235 316.25 232.9
L 316.25 232.75 316.6 231.9
Q 317 231.4 317.2 231.4 317.35 231.15 317.75 231.15
L 318.7 231.15 319.35 231.4 319.45 231.4 319.6 231.5 320 232.15 321.2 238.65
Q 321.65 240.35 322.1 241.15
L 322.5 241.15 322.95 239.75 323.5 244.25
Q 323.7 246.5 324.35 249.15
L 324.75 249.15
Q 325.4 246.1 325.6 244.25 325.9 242.75 326.2 239.45
L 326.75 229.9
Q 326.75 228.5 326.35 226.9 326 225.4 324.95 223.95 323.6 222.45 322 222.15
L 320.45 221.7 319 221.7
Q 317.15 221.95 316 222.45 314.4 223.25 313.7 224.65 312.9 225.85 312.7 227.4 312.55 229 312.75 230.15
L 312.75 229.95 313 234.9
Q 313 235.65 312.7 239.75
L 312 244.65
Q 311.75 246.95 311.75 249.25
L 311.35 250.4 285.35 250.4 285.35 250.15 284.95 250.15 284.85 250.4 282.95 250.4
Q 280.75 250 279.25 249.9
L 276.2 249.65 276.85 247.9
Q 277.25 246.65 277.35 245.65
L 277.6 243.5
Q 277.7 242.15 277.6 241.4 277.3 239.9 277.1 239.25
L 276.6 237.15
Q 276.15 235.05 276.7 232.9
L 276.7 232.75 277 231.9
Q 277.3 231.5 277.6 231.4 277.85 231.15 278.1 231.15
L 279.1 231.15 279.25 231.2 279.6 231.25 279.75 231.4 279.85 231.4 280 231.5
Q 280.2 231.65 280.45 232.15
L 280.6 232.65 281 236.2 281.6 238.65
Q 282 240.2 282.5 241.15
L 282.85 241.15 283.35 239.7
Q 283.8 243.65 283.95 244.25 284.2 246.9 284.75 249.15
L 285.2 249.15 286.1 244.25 287.1 229.9
Q 287.2 228.35 286.85 226.9 286.4 225.15 285.35 223.95 283.9 222.45 282.5 222.15
L 280.85 221.7 279.45 221.7
Q 277.6 222 276.45 222.45 274.8 223.3 274.1 224.65 273.3 225.9 273.1 227.4 273.05 228.4 273.1 229.95 273.35 232.55 273.35 234.9 273.35 237.6 273.1 239.75
L 272.45 244.65
Q 272.2 246.05 272.2 249.25
L 271.75 250.45 245.75 251 245.55 250.15 245.1 250.15 245.05 250.7 236.35 249.65 237.1 247.9 237.8 243.5
Q 237.9 242.15 237.8 241.4
L 236.8 237.15
Q 236.4 235.2 236.85 232.9
L 236.85 232.75 237.25 231.9
Q 237.45 231.55 237.8 231.4 238.05 231.15 238.35 231.15
L 239.35 231.15 239.5 231.2 239.8 231.25 239.85 231.4 240.05 231.4 240.25 231.5 240.6 232.15 240.8 232.65 240.85 233.75
Q 241 235.35 241.3 236.2 241.45 237.65 241.85 238.65 242.1 239.9 242.6 241.15
L 243.1 241.15 243.6 239.7 245 249.15 245.35 249.15
Q 245.85 246.9 246.3 244.25
L 247.1 234.65
Q 247.35 232.25 247.35 229.9 247.45 228.4 247.05 226.9 246.6 225.25 245.6 223.95 244.35 222.55 242.6 222.15 241.9 221.85 241.05 221.7
L 239.6 221.7
Q 237.8 221.95 236.6 222.45 235 223.35 234.3 224.65 233.35 225.9 233.35 227.4 233.2 228.45 233.35 230.15
L 233.35 229.95
Q 233.6 232.6 233.6 234.9 233.6 237.5 233.3 239.75
L 232.6 244.65
Q 232.35 247.35 232.35 249.25
L 231.6 251.4 217.1 252 216.6 233.15
Q 216.6 230.4 216.8 229.2 216.8 226.55 217.1 221.65
L 217.1 221.4 216.55 217.25 217.55 214.5 217.6 214.4 217.85 204.65 217.3 185.7 216.6 176.25 216.55 176 214.25 173.9 213.85 174.15 215.55 176.45
Q 215.1 179.65 214.8 185.7
L 214.35 213.9 213.6 217.15 213.6 217.4 214.85 221.75 215.3 244.65 215 251.15 212.55 250.95 212.85 225.15 210.3 180.15 209.85 180.15 208.6 207.15 209.1 243.25 209.6 252.15 174.1 264.65 174.05 266.9 173.6 267.05 169 267.15 171.25 268.05 155.35 275.9 149.6 279.25
Q 147.65 280.4 143.75 282.25
L 126.8 289.15 125.15 289.25 124.15 290.15 118.65 292.5 121.75 292.65 119.25 295.15
Q 118 296.4 114.05 300.75
L 112.05 303 114.75 302.75
Q 117.7 302.4 122.3 302.25 125.35 302.25 129.85 302.5
L 137.35 303.25
Q 140.5 303.6 144.85 303.3
L 145.6 303.3 145.85 303.15 145.6 313.9 139.85 320.65 145.5 320.55 143.35 351.25 141.5 401.15 148.1 414.3
Q 152.6 423.25 154.8 427.25 158.9 434.9 162.1 440
L 164.1 443.05
Q 165.25 444.9 166.35 446.15
L 168.85 449 170.35 450.4 171.3 451 172.5 451.5 172.6 451.55 303.1 454.65 303.1 454.25 270.7 451.25 221.85 449 173.35 448.15 172.85 448 171.75 447.15 168.8 444.15 164.35 438.5
Q 159.95 432.15 156.55 426.3 152 418.8 149.3 413.65
L 142.75 400.9 146.85 351.4 148.6 320.55 155.1 320.5 155.1 327.15 161.85 327.05 161.85 320.4 184.85 320.25 184.85 325.75 190.3 331 190.1 319.55 216.55 321 216.6 328.05 221.85 328 221.8 321 333 320.5 331.75 347.9 325.45 382.15
Q 324.3 388.45 323.7 393.75
L 322 405.3
Q 320.65 415.45 320.35 416.9
L 316.6 439.9 303 461.4 298.25 470.9 298.2 475.3 348 475.75 349.35 467.75 353.6 459.15 433.6 460.25 465.75 460
Q 473.75 460 480.75 459.75
L 487.85 476.65 546.25 472.15 605.25 468.8 602.75 441.9 677.65 433.9 677.75 433.9 700.95 419.65 735.5 416.8 735.75 416.75 757.25 406.65 760 406.75 760 406.65 763.65 406.75 763.65 405.9
Q 773.95 410.35 782.5 415.25 788.25 418.7 792 421.65
L 796.25 425.5
Q 798.3 427.75 799.25 430 800.3 432.75 799.4 435 798.65 437.25 796.25 439.25 792.8 442.35 786.5 444.8 782.35 446.6 775.75 448.4
L 770.15 449.55
Q 767.1 450.25 764.5 450.65
L 718.7 456.9
Q 688.25 460.6 672.7 462.75
L 649.9 466.15 626.95 468.5
Q 603.75 470.5 580.75 472
L 534.5 474.9
Q 505.45 476.55 488.35 477.25
L 395.85 480.8
Q 385.3 481.15 372.75 481.15
L 349.6 481 326.5 480.05
Q 319.85 479.9 314.95 479.55 310.35 479.45 303.35 478.9
L 280.35 477.15 211.3 469.9
Q 195.95 468.1 188.35 466.9
L 178.3 465.55 178.1 465.5 178.05 465.5 177.75 465.4 177.05 465.25
Q 172.4 464.05 171.6 463.75
L 166.3 461.9
Q 155.75 457.55 147.85 449.3
L 144.1 445.05 141.05 440.5
Q 140.5 439.7 139.6 438
L 138.35 435.55
Q 137.25 433.25 136.35 430.5
L 136.35 430.3 131.1 418.5 124.55 407.4 119.65 400.4 114.25 393.65 103 382.55 124.9 390.5 122.9 302.65 122.5 302.65
Q 122.3 315.45 122.3 324.15
L 122.25 386.65 84.65 372.5 98.3 382.75 107.55 391.15 119.4 405.75 129.8 423.9 133 431.4
Q 133.6 433.95 135.1 437.05
L 138 442.3
Q 138.8 443.85 141.35 447.25
L 145.35 451.75
Q 153.55 460.35 165 465
L 170.6 466.9 177.75 468.65 177.85 468.65 188 469.8
Q 192.45 470.4 211 472.4 218.75 473.25 234.05 474.65
L 303.35 480.05
Q 308.2 480.6 314.85 480.8 318.3 481.1 326.45 481.4
L 343.85 482.25
Q 345.35 482.4 349.6 482.4
L 372.75 482.9
Q 387.95 483.15 395.95 483 425.55 482.85 442.25 482.3
L 488.5 480.9
Q 508.7 480.15 534.75 478.8
L 581 476.25
Q 600.85 475 627.25 472.75
L 661.9 468.5 673.25 466.65
Q 690.65 464.05 719.15 460.25
L 753.5 455.3 773.5 451.5
Q 776.2 450.9 776.4 450.75 782.9 448.95 787.5 446.9 794.05 444.05 797.65 440.75 800.3 438.25 801.2 435.65 801.65 434.1 801.65 432.5 801.4 430.95 800.9 429.4 799.95 427.15 797.45 424.4
L 793 420.5
Q 788.8 417.5 783.15 414.25 773.85 409.3 763.65 405.4
L 764 382.3
Q 764.3 381.3 765 379.5 765.7 378.05 766.75 376.75
L 767.75 375.55 770.15 373.75 770.65 373.5 771.75 373.9 772.5 374.4
Q 773.15 374.95 773.5 375.55
L 774.15 377
Q 774.55 378.5 774.45 380.15
L 773.75 398.3 785.25 403.3 785.25 403.9 786.7 403.9 835.5 420.8
Q 837.4 421.45 844 422.75
L 912.75 432.9 923.2 434 923.5 405.5 882.95 396.5 882.5 393.9 881.75 391.75 880.75 389.75 879.25 388.05 878.4 387.3 875.5 385.65 873.5 384.9 873.25 384.9 859 382.8 858.95 382.75 846.7 383.4 846.5 358.4 829.45 358.65 829.2 310.5 843.2 310.55 818.4 297.65 820.5 297.65 820.5 263.5 817.25 263.05 817.25 261.3 822.9 261.4 812.5 252.65 810.65 247.4 798.75 220.9 794.1 211.8 794.5 211.5 794.65 211.25
Q 795.558984375 209.9203125 795.5 208.75 795.59921875 207.78984375 794.65 206.4
L 794.5 206.15 794.25 205.95
Q 793.5921875 205.4013671875 792.65 205.1 792.844921875 204.675390625 792.95 204.15 792.95 203.5 793.25 202.75 794.2 203.25 795 203.45 795.7 203.75 797.25 204 799.35 204.5 801.65 204.65
L 805 204.7 803.5 201.45
Q 802.75 199.95 801.7 198.2
L 798.75 194.2 798.25 194.4
Q 795.4 195 795 195 793.3 195.15 791.7 194.7
M 795 196.25
L 797.25 196.7 797.5 198.15 798.5 200.65
Q 797.55 200.75 797.25 200.9
L 795 201.4 793.25 202.15 793.4 201.4
Q 793.55 199.65 793.4 198.45
L 792.75 196.4
Q 794.1 196.25 795 196.25
M 791.5 208.75
L 791.45 208.7
Q 791.4693359375 208.74140625 791.5 208.75
L 791.5 208.75
M 791.75 208.6
L 791.85 208.8
Q 791.8080078125 208.8951171875 791.75 208.95
L 791.75 208.95 791.65 208.9 791.45 208.9 791.75 208.6
M 791.9 208.9
L 791.8 208.95 791.95 208.8
Q 791.9298828125 208.9158203125 791.95 208.9
L 791.9 208.9
M 791 210.15
L 792 209.1 792.6 210.3 791.15 210.15 791 210.15
M 792.85 210.75
L 793.3 211.65
Q 795.2130859375 217.7501953125 796.7 221.7
L 798.7 227.15
Q 798.9 228.05 800.75 232.65
L 810 254.5 810.25 254.7 817.15 259.4 805.65 259.65
Q 799.95 259.65 798.4 259.5
L 768.5 258.4 773.7 254.9 791.45 210.95 792.85 210.75
M 724.75 310.25
L 724.75 309.8 707.5 309.9 702.45 311.5 670.7 311.4 670.7 311.75 641.25 312.4 641.25 312.15 600.15 313.75 600.15 313.9 563 314.05 563 314.25 562.5 314.25 534 301.5 532 302.5 529.4 303.05 529.25 303.05 506.75 315 505.75 315.25 436.1 316.65 436.1 316.5 400.25 316.65 400.25 316.9 366.75 318.4 366.5 318.15
Q 364.5 315.7 363 314.15
L 355.35 306.8 354.6 306.25 445.75 306 472.75 298.05 595.5 299.25 719 301.4 741.5 297 808.75 296.15 832.45 308 764.25 308.5 764.25 308.4 751.2 308.4 751 308.5 738.25 310 738.25 310.25 724.75 310.25
M 708.7 314.75
L 708.25 314.9 720 314.65 720 323.3 726.5 323.3 726.5 314.9 736.75 314.8 736.75 320.5 742.75 320.5 742.7 313.9 751.5 312.65 760.25 312.5 760.25 320 765.5 319.9 765.5 312.4 788.5 312.25 788.5 318.3 792.9 317.8 792.75 311.75 817 311.55 817.25 317.75 821.5 317.75 821 311.05 827 311 828.25 358.65 821.7 358.75 816 399.05 814.95 401 788.5 400.65 788.5 380.75
Q 788.25 378.15 787.7 376.75 786.9 374.7 785.5 373.15 784.1 371.6 782.15 370.55 780.8 369.95 778.25 369.3
L 774.5 369 774.25 369.05 773.4 369.15
Q 772.75 369.15 772.45 369.25
L 770.25 369.75 767.5 371.05 766.7 371.75
Q 765.95 372.25 765.15 373.05
L 763.75 374.65
Q 762.8 375.95 761.75 378
L 760.75 380.55
Q 761.05 379.25 761.65 377.8 762.2 376.15 763.45 374.05 764.85 372.1 766.15 371
L 768.5 369.25 770.5 368.5 773.5 367.8 775.2 367.65 777.95 367.75
Q 780.3 368 782 368.5
L 782.5 368.65 784.9 369.9 785.75 370.5 787.4 372 788.75 373.65
Q 789.8 375.2 790.75 377.65 791.55 380 791.75 382.15
L 792.25 382.15
Q 792.4 379.75 791.75 377.4 791.4 375.3 790.25 372.8
L 788.95 370.75 787.25 368.8
Q 785.8 367.6 784.7 366.9
L 785.25 356.65 789.9 356.9 786.4 352.65 785.95 348.25 785.95 347.25 785.75 346.15
Q 785.55 344.8 785 343.75
L 784.2 342.65 783.5 342.15
Q 783.45 342 782.95 341.75
L 781.5 341.25 779.7 341 779.25 340.8 779.2 340.75 779 340.65
Q 778.85 340.6 778.75 340.15
L 778.45 339 778.4 338.9 777.75 338.05 777.75 337.25 777.4 337.5 775.25 329.3 774 338.05 773.65 339.3
Q 773.25 340.5 772.65 340.9
L 772.5 341 771.75 341.15
Q 771.75 341.2 770.5 341.3 769.15 341.45 768.5 341.75 767.35 342.25 766.65 343.4 766.1 344.35 765.95 345.25
L 765.9 345.4 765.9 345.55 765.75 345.65 765.25 349.8
Q 764.95 351.6 764.7 352.5 764.5 353.05 764.15 353.4 763.9 353.65 763.4 353.75
L 761.45 354 764 356.75 764 367.9 762.25 369.15 760.5 371.05
Q 759.95 371.75 759 373.15
L 757.95 375.4
Q 756.95 377.6 756.4 380.25
L 755.45 395.05
Q 755.2 399.3 755.2 403.8
L 736.55 412.95 707.5 330.3 707.5 315.75 705.5 315.75 708.25 314.9 708 314.9 708.7 314.75
M 700 321.25
L 703.5 321.25 703.5 331 732.7 413.95 700.45 417.15 700.15 417.15 677.2 431.9 602.65 440.65 602.5 439.8 600 439.9 596.5 437.5 565 339.8 565.2 327.5 568.25 327.5 568 318.9 598.15 319 598 326.9 605.45 326.9 605.5 318.8 636 317.75 636 326.4 643.5 326.4 643.5 317.75 668.9 317.05 668.9 324.8 675.95 324.75 675.95 316.65 700 316.55 700 321.25
M 771.75 345.4
Q 770.85 345.9 770.5 346.3 770.25 346.5 770 346.9
L 769.5 347.55 769 349
Q 768.8 350.45 769.25 351.65
L 769.7 351.65 770 350.5 770.65 349.55 771.25 348.9 772 348.4 772.9 348.15 773.75 348.05 775.25 348.15 775.75 348.25
Q 775.9 348.25 776.5 348.5
L 777.4 349 778.4 350.55 778.7 351.4 779 353.3 779 353.5 780.2 363.5
Q 778.5 363.5 778 363.4
L 771.25 362.4 770.9 358.75 769.7 353.5 769.25 353.5
Q 768.85 354.55 768.5 356.15
L 768 358.75
Q 767.7 361.25 767.7 364.05
L 767.65 365.65 767 365.9 765.25 366.9 765.7 356.15 765 355.25 765.4 355
Q 765.9 354.7 766.65 353.5 767.3 352.1 767.75 350.3
L 768.7 346.25 768.75 346.15 768.75 346 769.25 345
Q 769.5 344.75 769.7 344.75 769.8 344.65 770.65 344.65 771.85 344.65 772.25 344.5 772.9 344.5 773.25 344.3
L 773.5 344.25 773.75 344.25 774.45 343.9
Q 775.15 343.4 776 342.4 776.15 342.75 776.25 342.75 776.85 343.55 777.5 343.8
L 778.95 344.3 781.5 344.75 781.7 344.8 782.2 345.4
Q 782.6 346.35 782.7 346.75
L 783.75 353.8 784.25 354.4 784.2 354.4 783 354.5 784 366.5 783 366 780.7 365.15 778.5 364.65 781.5 364.75 781.5 364.05
Q 781.6 361.7 782.2 358.75
L 782.75 352.05 782.4 349.15 781.75 347.65 780.7 346.3 779.25 345.25 778.5 344.9 777.7 344.65 776.15 344.4 774.9 344.4 773.2 344.75 771.75 345.4
M 784.45 377.9
Q 784.95 379.2 785 380.9
L 785.2 399.9 776.5 396.55 775.9 380.25
Q 775.9 378.6 775.2 376.65
L 774.75 375.75 774.25 375
Q 773.65 374.15 772.95 373.75
L 772.15 373.25 771.5 373.05 772.75 372.75
Q 773.25 372.65 773.65 372.65
L 774.5 372.65 774.75 372.55 774.75 372.65 777.7 372.8
Q 779.7 373.3 780.65 373.75 781.85 374.35 782.95 375.4 783.9 376.65 784.45 377.9
M 825.25 383.25
L 824.95 384 816.75 397.75 823.15 360.3 844.4 360.55 844.2 383.15 825.25 383.25
M 846.75 385.75
L 846.75 385.4 858.65 385.65 872.5 388.3 874 388.9 875.45 389.75 877.15 391.25
Q 877.4 391.5 877.5 391.9
L 878.25 393.25 878.75 394.75 878.95 396.25 878.95 397.05 878.5 399.65 919.5 408.75 919.75 430.3 904.4 429.15
Q 892.85 428.4 887.15 427.65 882.75 427.35 878.5 426.75
L 861.4 424.3
Q 859.9 424.15 852.9 422.75
L 844.5 420.8
Q 837.9 419.05 836.25 418.5
L 816.15 410.5 797.45 404 816.65 404.15 827 386.15 846.75 385.75
M 734.75 413.75
L 735.5 413.45 734.95 413.75 734.75 413.75
M 553.9 142.45
L 557.7 138.9 569.7 143.15 553.9 142.45
M 518.75 138.45
L 525.5 141.9 513.15 141.9 518.75 138.45
M 502.75 158.95
L 502.7 158.95 503 158.9 503.25 159
Q 503.75 159.55 503.85 159.9 504.4 160.8 504.75 162.45
L 505.35 168
Q 505.45 170.9 505.35 173.75
L 505 179.5
Q 504.35 188.5 504.25 190.95 504.05 193.85 504.25 202.4
L 504.25 202.65 501 202.9 501.1 202.4 501.5 190.95
Q 501.65 184.7 501.6 179.5
L 501.35 168.15
Q 501.35 164.55 501.6 162.65 501.9 160.85 502.2 160.15
L 502.75 158.95
M 494.6 197.15
L 495.5 197.25 495.1 203.2 494.35 203.25 494.35 199.15 494.6 197.15
M 352.1 56.75
L 351.95 56.85 351.7 56.85 351.75 57
Q 351.8 57.35 351.6 57.5 351.3 57.85 351.1 57.55
L 351.2 57.55 350.95 57.5
Q 350.85 57.4 350.85 57.05
L 350.95 57 350.75 57
Q 350.75 56.8 350.85 56.75 350.95 56.6 351.2 56.6 350.95 56.5 350.95 56.25 350.8 56.1 351 56 351 55.95 351.1 56
L 351.2 56 351.2 56.05 351.35 56.05 351.35 56.1 351.1 56.3 351.2 56.5 351.2 56.6 351.35 56.5
Q 351.75 56.35 351.95 56.5
L 352.1 56.6 352.1 56.75
M 351 59.5
L 351.6 59.5
Q 351.75 61.3 352.45 64.7
L 354 70.75 355 73.25 355 73.35 355.1 73.45 355.1 73.6 357.1 76.45 365.7 85.2 367.35 87.25 368.7 89.45 369.35 91.85
Q 369.5 93.5 369.35 94.25 369.25 95.4 368.7 96.7
L 368.1 97.85 368 98.1 358 97.2 344.6 97.6 340.25 98.1
Q 339.15 98.15 338 98.35
L 334.1 98.85 333.6 97.95 333.2 96.7
Q 332.85 95.65 332.85 93.95
L 332.85 92.6 333.5 90 334 88.6
Q 334.15 88.05 335.25 86.45 335.5 86 337 84.45
L 345.75 76.2 346.2 75.6 346.35 75.45 346.35 75.35 346.5 75.2 347.6 73.45 349.75 67.6 350.75 61.55 350.85 59.25 351 59.35 351 59.5
M 338.6 70.35
L 338.95 70.7 338.7 70.95 338.6 70.35
M 340.5 69.5
L 341 69.45 341.25 69.7 341 69.85 340.75 69.95 340.85 70
Q 340.85 70.35 340.7 70.5 340.55 70.7 340.45 70.7 340.3 70.75 340.25 70.6 340.45 70.6 340 70.45
L 340 69.95
Q 339.85 70.05 339.85 69.95 339.75 69.95 339.95 69.75
L 340.1 69.7 340.25 69.7
Q 340 69.35 340 69.25 340 69.1 340.1 69.1 340.1 69 340.25 69
L 340.25 69.1 340.45 69.1 340.25 69.25 340.25 69.7 340.5 69.5
M 340.5 76.2
L 340.75 76.35 336.5 79.95 337 78.95 337.75 76.7 337.95 75.85 338.25 76.35 339 77.1 339.35 77.1 339.85 76.85 340.5 76.2
M 328.85 83.85
Q 328.5 83.65 326.85 83
L 324.35 82.35
Q 323.15 82 321.5 82
L 318.45 81.95 315.25 82.35
Q 313.6 82.85 312.1 82.7 311.1 82.7 309.1 82.2 307.55 81.7 306.25 81.5 305.1 81.4 303.6 81.7
L 301.5 82.25 299.85 83 299 83.6 297.75 81.7 297.1 81 319 81.5 330.7 82.95 332.1 83.35 333.35 83.2
Q 332.75 83.9 332.45 84.6 331.4 86.1 331.1 87.7
L 330.5 90.95 330.7 94.2
Q 330.85 95.6 331.5 97.25 331.65 97.75 332.25 98.7
L 332.75 99.5 332.1 99.95 331.75 100.5 331.6 101.25
Q 331.7 102.1 332.2 102.45
L 332.35 102.6 332.45 102.6 332.85 102.85 333.5 102.95 334.25 102.95 334.35 103 334.35 103.45 334.25 104.35 334.2 104.45 334.2 104.75
Q 333.75 114.3 334 121.2 334.1 129.85 334.35 137.65
L 334.45 138.15 334.5 138.25 335.25 139.5 336.1 140.45
Q 336.85 141.45 337.95 141.95 338.75 142.6 339.95 143.15
L 342 143.9 346.6 144.65 318.6 144.15 265.35 144.65
Q 261.7 144.8 254.6 144.65 245.1 144.35 244 144.25 239.3 144.2 233.35 143.75
L 222.85 143.15 235.05 139.4
Q 235.15 139.35 240.6 137.5
L 257.25 131.75 263 131.4 263.6 137.4
Q 263.6 138.95 264.25 139.95 264.95 141.25 266.25 141.9 267.3 142.45 268.75 142.5
L 285.5 144.4 291.2 144.2 293.1 143.9
Q 295.05 143.35 296 142.4 296.9 141.65 297.25 140.7 297.45 140.15 297.6 138.95
L 297.6 136.45
Q 297.7 136.15 297.6 135.7
L 299.25 136.65 301.6 137.65
Q 304.1 138.15 304.5 138.15 305.1 138.3 307.85 137.95
L 309.6 137.75
Q 310.3 137.75 311.35 137.9 312.7 138 314.95 138.65 317.65 139.3 318.5 139.4 321 139.7 322.1 139.7 323.15 139.9 325.5 139.65
L 328.5 138.9
Q 331.4 137.85 332.7 136.25 333.2 135.55 333.35 134.9
L 333.25 134.25 332.85 134.4 332.6 134.65 331.7 134.95 330.1 135.2 325.1 135.4
Q 324.15 135.4 322 135.65
L 313.25 136.65
Q 312.4 136.8 311.5 136.65 309.7 136.65 308.1 135.9 306.3 135.1 305.1 134.7 304.5 134.55 302.25 134.2
L 297.7 134.15 297.6 129.65 301.75 129 301.35 128.5 300.5 127.7 300.25 127.85 300.45 128.4 299.25 128.15 299.6 122.2
Q 299.9 124.75 300.2 126.1
L 300.5 126.1
Q 301.05 122.6 301.35 119.95 301.75 116.4 301.85 113.75
L 301.6 100.25
Q 301.2 99.2 300.75 98.7
L 299.75 98.2 299.25 98.2 299 98.25 298.45 98.5
Q 297.6 99.05 297.45 100 297.15 100.9 297.45 102.35
L 297.75 108.25
Q 297.8 109.7 297.6 112.25
L 297.1 116.25 297.1 116.5 295.35 98.45 295.5 98.45 295.85 98.6 297.35 98.7
Q 298 98.55 298.1 98.45 298.2 98.45 298.5 98.1
L 298.6 97.6 298.5 97.2 298.35 96.95 299.6 94.85
Q 300.4 92.75 300.6 91.5 300.9 89.9 300.6 87.95
L 300.25 86.2 299.6 84.6 299.6 84.5 303.95 85.1
Q 305.9 85.1 306.35 85 307.3 84.9 309.1 84.35
L 310.6 83.95
Q 311.2 83.8 312.1 83.95 313.25 83.95 315.1 84.6
L 321 86.1
Q 323.2 86.6 326.25 86.6
L 330.1 86.2 331.7 85.75 331.75 85.35 328.85 83.85
M 367 101.7
L 366.95 101.75
Q 366.6 102.25 366.5 102.6
L 366.35 103.35 365.35 121.6
Q 365.2 127.6 365.45 131.9 365.55 134.6 365.75 137.15
L 366.1 141.9 365 142.4 363.1 142.9 356.95 143.65 350.7 143.5
Q 349.85 143.5 348.7 143.25 348.1 143.25 346.7 142.9
L 342.85 141.65
Q 341.45 141.05 341.2 140.75
L 339.7 139.65
Q 339.1 139.2 338.45 138.4
L 337.75 137.4 338.2 121.2
Q 338.35 115.85 338 104.95 338.15 104.05 338 103.1 338 102.8 337.7 101.7
L 351.85 99.6 351.85 99.5 367 101.7
M 364.85 144.2
L 369.35 145.25
Q 365.45 145.25 361.25 144.95
L 353 144.9 361.2 144.65 364.85 144.15 364.85 144.2
M 356.25 159.45
L 355.6 158.65 354.1 157.15 353.1 156.5 352.2 156.15
Q 350.85 155.55 350.1 155.4
L 349.5 155.4 349.5 155.25 349.25 155.25 349 155.2 346.85 155.15 345.7 155.25
Q 344.85 155.4 344.5 155.65
L 343.45 156 342.35 156.65 340.6 158.4 340 159.4
Q 339.5 160.45 339.25 161.65
L 339.1 162.9 339.5 165.95
Q 339.65 167.65 340.1 169
L 335.1 168.9 335.6 166.25
Q 335.85 165.1 335.85 164.4 336 163.2 335.85 162.15 335.8 161.25 335.45 159.9 334.8 158.3 334.45 157.75
L 333.7 156.75 332.75 155.9
Q 331.65 155 330.6 154.65
L 329.35 154.2 328.1 154 326.75 153.95 323.7 154.45
Q 321.95 155.1 321.5 155.4
L 320.45 156 319.5 156.9
Q 318.85 157.4 318.1 158.7
L 317.85 159.25 317.85 159.2
Q 317 158.15 316.5 157.65
L 315.25 156.65 314.75 156.4
Q 314.2 156 313.85 155.9
L 311.85 155.15 310.85 154.9
Q 309.7 154.9 308.7 154.65 306.7 154.8 306.5 154.9 305.4 155.05 304.35 155.65
L 303.25 156.25 302.35 157.15
Q 301.55 158.15 301 159.15 300.5 160 300.25 161.4
L 300.2 163.15 301 167.9 295.5 167.75 296.25 163.65
Q 296.4 162.15 296.25 161.4
L 295.85 159.15
Q 295.5 158.25 294.85 156.95
L 294.1 155.95 293.1 155.15
Q 292.25 154.35 290.95 153.75
L 289 153.25 287 153.15 286.75 153.2 286.2 153.25 284 153.65
Q 282.2 154.3 281.75 154.65 281.4 154.75 280.75 155.25 280.15 155.65 279.85 156.15 278.95 156.9 278.35 158
L 278.1 158.65 278.1 158.5 276.75 156.9 275.95 156.2 274.1 155.15 273.1 154.75 271.1 154.2
Q 269.3 154.05 268.95 153.95
L 266.75 154.15
Q 265.8 154.3 264.5 154.9
L 262.6 156.4
Q 261.65 157.4 261.2 158.4 260.75 159.05 260.5 160.65
L 260.35 161.75 260.7 164.9
Q 260.9 166.35 261.2 167.25
L 255.6 167.2
Q 256 165.65 256.25 163.9
L 256.6 161.9
Q 256.65 160.55 256.35 159.5 256.15 158.4 255.6 157.2 254.75 156.05 254.05 155.25 252.9 154.3 252 153.9
L 249.6 153 247.35 152.7 244.05 153 242.85 153.25 240.75 154.2
Q 238.4 155.5 237.35 157.5 237 158.1 237 158.25
L 236.35 157.4 235.1 156.15
Q 233.8 155.15 233.6 155.15
L 232.1 154.4 230.5 153.9 229.6 153.75 229.35 153.65 228.85 153.65 227.1 153.5 225.3 153.7 223.5 154.4
Q 222.4 154.9 221.85 155.4 221.1 156.05 220.6 156.7 219.95 157.55 219.6 158.4 219.35 158.8 218.85 160 218.6 160.95 218.6 161.9
L 218.6 162.15 219.35 167 213.6 167 208.8 172.65 209.3 171.15 209.6 169.25
Q 210.05 167.5 210.1 165.65 210.3 164.45 210.3 161.95 210.25 161.2 209.8 158.4
L 209.6 157.65 207.3 156 206.85 155.25
Q 208 153.1 209.3 151.65
L 210.8 149.9 212.05 150.7 211.85 153.9 212.85 162.4
Q 212.85 163.4 213.3 164.45
L 213.85 166.65 214.3 166.65
Q 214.75 165 214.85 164.45
L 216.25 153.9 216.05 148.4 213.1 147 212.1 146.15 218.7 146.15 213.5 146.25 213.5 146.65 340.85 150.15
Q 352.5 150.4 362.1 150.4
L 380.2 150.65 378.25 151.7 378.35 170.4
Q 376.4 170.4 373.75 170.15 374.15 168.85 374.5 166.65
L 374.85 164.65
Q 374.85 163.15 374.75 162.4
L 374.25 160.15 373.75 159 373.1 157.95
Q 372.3 156.85 371.35 156.15
L 370.25 155.4 369.1 154.9 367.35 154.5 367.1 154.5 366.6 154.45 364.25 154.65 362 155.15
Q 360.9 155.55 359.75 156.25
L 358 157.9 357.25 158.9
Q 357.1 159.15 356.75 159.95
L 356.6 160.2 356.25 159.45
M 360.5 160.4
L 361.75 159.45 363.2 158.95 364.75 158.7 367.1 158.9 367.25 158.9 367.75 158.95 369 159.5 370.1 160.4 370.6 160.9 371.7 163.15 372.2 164.7 372.5 166.65
Q 372.8 168.8 373.2 170.15
L 340.95 169.15 342 163.2 342.25 162.45
Q 342.55 161.65 343 161.15
L 343.45 160.5 343.95 160 346.5 158.5 349.25 157.7 349.35 157.7 349.35 157.65 351.7 157.65 353.35 158.2 354 158.7 354.7 159.4
Q 355.15 160.05 355.5 160.9 355.9 161.95 355.95 162.7
L 356 163
Q 355.8 163.6 355.95 164.4
L 355.95 164.45 358.1 164.5 358.7 162.9 359.5 161.45 360.5 160.4
M 326.95 158.2
L 328.5 158.4 329.1 158.65
Q 329.75 158.85 330.25 159.15 330.7 159.45 330.75 159.65
L 331.25 160 332.1 161.25 332.75 162.7 333.25 164.4 334 168.9 302.2 167.9 303.1 162.9 303.35 162.15
Q 303.5 161.4 304 160.7 304.25 160.3 304.95 159.65
L 305.45 159.15 306.1 158.75
Q 306.7 158.4 307.45 158.15 307.8 157.9 309 157.5
L 311.7 157 312.5 157.15
Q 313.1 157.15 313.35 157.2
L 314.2 157.45 315 157.9 315.6 158.45
Q 316.05 158.9 316.6 159.9 317.1 161.15 317.2 161.65
L 317.25 162.15
Q 317.1 162.7 317.25 163.2
L 319.45 163.2
Q 319.65 162.4 320 161.7
L 320.85 160.4 321.85 159.4 322.5 159.15
Q 322.6 158.9 323.1 158.75
L 326.2 158.2 326.95 158.2
M 348.6 197.15
Q 348.6 196.45 348.75 196.15
L 349.25 195.25 352.85 191.5 355 188.25 355.1 188.5 355.85 189.9 356.85 190.9
Q 357.15 191.3 357.85 191.75
L 358.6 192.25 358.7 192.4 358.85 192.4 360.75 193.65 361.35 194.15
Q 361.65 194.25 362 194.65
L 362.1 194.7 362.2 194.7 362.35 195 362.75 196.7 362.75 197.65 362.5 198.65 359.5 199.15 356.1 199.25
Q 353.85 199.25 352.6 199
L 349.1 198.4 348.75 198.4 348.6 197.15
M 373.1 176.15
L 372.85 176.15 372.75 174.2 373 174.2 373.1 176.15
M 426.7 212.75
Q 427.25 214.35 428.2 215.95
L 428.35 216.15 428.25 216.15
Q 426.05 216.15 424 215.9
L 420.6 215.45 423.5 206 424 203.2 425 207.7 426.7 212.75
M 418.75 227.7
Q 420.85 228.45 424.25 229.15
L 429.35 230.4 441.2 256.5 434.6 256.65 434.6 256.8 421.2 257.5 421.25 258 410.35 258 410.35 257.4 408.95 257.3 408.75 256.4 408.6 256.4 408.45 256.5 406.6 257.15 405.75 257.15 415.85 235.2 418.75 227.7
M 432.1 260
L 433.5 260.5 433.6 263.25 438.5 263.3 438.5 262 443.35 263.5 445.35 264.5 445.7 264.75 445.75 265.5
Q 445.85 266.7 445.85 268.25
L 445.25 271.15
Q 445 272.55 445 274 445 275.35 445.25 276.8 445.6 278.55 445.95 279.65 446.05 280.35 446.75 281.9
L 444 281.5
Q 439.6 280.9 437.2 280.3 434.05 279.8 430.35 278.9
L 404.2 271.8 404.85 270
Q 405.05 269.55 405.2 268.4 405.35 267.55 405.2 266.65
L 404.75 264.9 404.6 264.5 405 264.55 406.85 262.25 408 261.3 408 263.15 411.25 263 411.2 259.4 421 259.4 420.85 262.25 423.25 262.4 423.25 259.5 428.75 259.8
Q 430.7 260 432.1 260
M 410.5 293.3
L 411.5 293.5 414.45 299.65 407 299.75 395.6 265.4 398.85 266.3 401 271 399.6 270.65 408.45 286.8 408.25 286.5 410.5 293.3
M 415 294
Q 418.55 294.6 422.7 295.05
L 432.85 296.25 434.25 299.55 418 299.65 415 294
M 412.2 284.9
L 406.75 275.8 430.1 280.05
Q 433.25 280.75 436.85 281.75
L 453.25 286.25 448 291 437.7 296 445.1 299.25 445.35 299.4 444.85 299.5 439.5 299.5 436.5 298.4 435 293.5 413.75 289.5 412.25 285.15 412.2 284.9
M 449.85 293.75
L 459.85 295.15 447.25 298.8 443.25 296.25 449.85 293.75
M 471.5 291.75
L 469.5 292.3 455.25 290.25 483.75 263.9 471.5 291.75
M 369.35 221.9
L 380.75 222.15 380.75 225.4 387.95 225.25 390.35 227.75 379.95 228 380.1 233.65 372.5 233.65 372.1 230.9
Q 372.05 229.75 371.7 228.4
L 371 227.2 369.85 226.25 368.5 225.65
Q 367.7 225.65 367.1 225.4
L 365.85 225.45 365 225.65 363.6 226.4 363 226.9 362.5 227.5 361.75 229.4
Q 361.6 229.7 361.6 230.65 361.6 231.4 361.85 231.9 361.85 232.35 362.25 233
L 362.35 233.15 362.5 233.2 363.1 233.65 356.25 233.65 355.85 230.9
Q 355.55 229 355.35 228.4
L 354.7 227.2
Q 354.2 226.7 353.6 226.25
L 352.25 225.65
Q 351.45 225.65 350.85 225.4
L 349.6 225.45 348.75 225.65 347.35 226.4 346.75 226.9 346.25 227.5 345.95 228.15
Q 345.55 228.85 345.5 229.4 345.35 229.75 345.35 230.65 345.35 231.5 345.5 231.9
L 346 233 346.2 233.2 346.85 233.65 336.85 233.65 334.75 223.65 336.1 222.7 358.1 221.7
Q 365.6 221.7 369.35 221.9
M 383.85 230.7
L 384 230.75
Q 385.4 231.4 386.85 231.7 388.75 232.35 390.75 232.7
L 390.85 234.9 392.1 242.9
Q 392.35 245.3 392.2 246.9 392.1 247.75 391.35 250.9 390.95 252.8 391.1 254.9 391.1 256.9 391.5 258.9
L 391.75 260.05
Q 387.5 257.6 381.95 254.15
L 382.5 230.65 383.85 230.7
M 369.45 231.5
Q 368.5 231.2 367.1 231.2 366.05 231.25 364.75 231.65
L 363.1 232.45 365.1 230.25 365.6 229.95 366.45 229.7
Q 367.15 229.7 367.1 229.65
L 368 229.5 368.85 229.65 369.5 229.95 370.25 230.45 370.75 231.2
Q 371.05 232 371.1 232.15
L 369.45 231.5
M 379.6 238.9
L 380.2 238.9 380.6 254.9 391.6 261.4 391.75 261.9 378.45 261.5 379.6 238.9
M 361.85 201
L 361.45 207.7
Q 361.3 210.3 361.35 212.45
L 360.1 212.65 349.6 212.95 350 210.95
Q 350.25 209.95 350.5 207.65 350.7 205.95 350.75 204.25 350.9 202.2 350.75 201.15
L 352.6 200.7
Q 354.35 200.45 356.1 200.45 356.8 200.45 359.5 200.65
L 361.85 201
M 340.6 246.15
Q 340.85 244.8 340.85 243.15 340.85 240.55 340.35 237.2
L 376 237.4 377.2 261.5 368.35 261.3 375 268.25 380.85 299.8 350.2 300 348.6 282.15
Q 348.15 278.2 347.6 275.15
L 347.25 275.15
Q 347 276.8 346.6 282.25
L 346.1 300 327.75 300 326.25 287.3
Q 325.85 282.25 325.85 279.15
L 326 272.5 330.35 272.8
Q 332.05 272.9 336.1 272.9 339.85 272.9 341.75 272.75 345.15 272.65 347.45 272.4
L 349.2 272.3 346.85 264.9 341.75 265.5 340.35 261.5 340.85 261.5 340.75 261.15 340.85 261.15
Q 340.85 259.2 340.5 256.5
L 339.7 252.45 339.7 252.25
Q 339.7 250.15 339.95 249.15
L 340.6 246.15
M 354.5 231.2
L 354.85 232.15
Q 353.9 232 353.2 231.5 352.15 231.2 350.85 231.2 348.8 231.55 348.5 231.65 347.6 232 346.85 232.45
L 347 232.15 348.25 230.7
Q 348.5 230.4 348.85 230.25
L 349.35 229.95 349.75 229.9 350.1 229.7 351.75 229.5 352.6 229.65 353.25 229.95 354 230.45 354.5 231.2
M 345.35 266.75
L 345.85 269.65 336.1 269.3
Q 332.7 269.25 330.35 269.4
L 323.2 269.9 324.5 279.25 325 287.4
Q 325.1 290.2 325 291.5
L 324.95 300 295.1 299.8 294.75 294.75 296.7 295.25 298.7 295.25 298.6 293.4
Q 298.6 292.95 297.95 291.5 297.3 290.55 297.45 289.55 297.45 288.8 298 287.65 298.5 286.7 298.7 285.75
L 299 283.75
Q 299 283.4 298.75 282.4 298.45 281.55 297.85 280.8 297.35 280.35 296.35 279.9
L 295 279.8 293.6 280.15 292.85 269.5 268.45 270.65 266.7 267.9 319.85 268.65
Q 325.95 268.9 340.5 269.05
L 343.1 269.05 342.1 266.3 345.35 266.75
M 336.35 261.25
L 336.35 261.4 337.95 265.5 278.6 266.65
Q 273.5 266.8 268.35 266.65
L 179.25 265.75 193.1 259.9
Q 204.35 255.15 209.6 252.65
L 209.75 253.75 217.25 253.4 217.1 252.45 231.1 252.9 231.1 253.15 233.6 252.95 276.45 254.15
Q 287.6 254.4 291.5 254.4 304.9 254.5 306.6 254.4
L 335.25 254.25 336.35 261.25
M 393.35 262.15
L 393.75 260.9 393.85 260.3 402.85 260
Q 403.3 261.7 403.1 263.15 402.95 264.2 401.85 266.5 401.6 267.15 401.6 268.15
L 401.6 268.5 399.85 265.05 399.5 265 394.5 263.75 393.35 262.15
M 385 269
L 386.35 269.4
Q 387.45 269.55 388.6 269.05
L 389.45 268.55
Q 389.6 268.55 390.1 268.05
L 390.6 267.65 390.75 267.5 390.75 267.05 390.6 266.9 389.6 266.15 391.1 266.15 391.7 266.9 403.1 299.75 383.2 299.8 378.85 269 378.95 269
Q 379.7 269.15 380 269 380.25 269 381.2 268.3 381.8 267.9 382.45 267.9 383 267.9 383.75 268.4 384.7 269 385 269
M 380.45 265.75
L 384.25 265.9 383.75 266.15
Q 383.1 266.65 382.45 266.65 381.9 266.75 381.2 266.25
L 380.45 265.75
M 378.6 265.65
L 378.1 265.9 377.85 265.65 378.6 265.65
M 399.35 326.75
L 402.25 326.75 402.25 318.65 433.95 318.8 434.25 326.3 437.35 326.65 437.25 319.15 503.5 318.9 503.5 324.65 506.25 324.75 506.6 318.75 507.25 318.65 506.5 337.15 480.1 435.9 425 438 369.85 437.65 368.7 408.75 366 365.3
Q 365.1 354.15 364.75 350.9
L 363.25 321.9 362.85 321.9 361.95 351 362.6 372 360.95 347.8 360.5 321.4 369.5 321.75 368.2 320.15 399.5 318.9 399.35 326.75
M 350.35 306.25
L 352.2 306.25 353.6 308.4
Q 354.1 309.35 355.85 311.65
L 355 311 350.35 306.25
M 348.6 306.25
L 350.35 308 358.25 318.65 345.35 318.65 345.35 319 333 318.9
Q 333.6 318.5 336.45 316.4 338.1 315.15 340.6 312.75 343.05 310.65 344.5 308.8
L 346.5 306.25 348.6 306.25
M 359.6 320.25
L 360 320.8 358.1 347.9 359.6 382.55 364 444.75 364.35 457.65 355.25 457.75 355.25 447.8 353.2 447.8 355.25 439.65 318 439.9 318.6 434.4 328.85 382.75 334.6 348.15 333.5 320.5 344.25 320.9 344.25 327.9 346.75 327.9 347.1 320.5 359.6 320.25
M 334.6 314.65
L 331.75 318.9 219.3 318 186.55 315.65 186.55 316.3 159.6 316.15 159.6 316 150.1 316 160.8 303.9 342.45 306.15 342.1 306.4
Q 340.2 308.25 338.2 310.4
L 334.6 314.65
M 363.5 390.4
L 363.7 394.5
Q 364.05 402.6 364.5 409
L 366.5 437.75 365.6 446 364 417 363.5 390.4
M 489.7 220.4
Q 489.15 220.7 488.6 221.45 488.05 222.25 487.6 223.65 487 225.4 486.85 227.4
L 486.75 231.15
Q 486.55 235.15 486.75 238.15 487 242.95 487.2 245.2
L 487.25 245.65 486.25 246.9 484.95 210.4 507.1 208.5 507.1 292.15 506.5 292.15 496.35 259 486.75 259.4 486.25 247.25 487.35 247.2
Q 487.45 248.95 487.85 252.25
L 488 253.4 488.85 253.25
Q 493.4 252.65 493.95 252.45
L 493.95 252.15 489.95 251.45 490.35 246.95 495.25 246.4 495.1 245.4
Q 494.6 240.85 494.5 238.4 494.5 234.2 494.75 231.25
L 495 227.65
Q 495.15 225.55 494.85 223.9 494.7 222.7 494.25 221.9 493.8 221 493.45 220.65 492.65 219.9 491.5 219.9
L 490.6 219.9 489.7 220.4
M 491.35 225.95
Q 491.35 225.35 491.6 224.7
L 491.75 224.2 491.85 224.15 492 224.65
Q 492.45 226.1 492.75 227.9
L 493.1 231.25
Q 493.4 234.55 493.25 238.4 493.25 240.65 492.85 244.15
L 491.85 244
Q 491.95 241.9 491.85 239.15
L 491.25 228.5
Q 491.25 226.35 491.35 225.95
M 488.1 262.8
L 494 262.4 504.25 292.05 475.95 291.65 488.1 262.8
M 529.5 303.5
L 530.75 303.25 510.6 314.65 509.85 314.65 529.5 303.5
M 561.7 327.5
L 562.7 327.5 562.75 340.25 595.4 438 595.45 438.25 595.65 438.3 598 440 494.25 443.9 495.6 442.4 512.25 338 512.25 318.25 561.75 318.65 561.7 327.5
M 534 304
L 555.95 314.25 514.45 314.55 534 304
M 310.5 17.75
L 310.7 17.55
Q 311.15 17.4 311.6 17.4 312 17.4 312.25 17.65 312.5 17.8 312.5 18
L 312.5 18.4 312.35 18.65 308.7 18.5 309.2 18
Q 309.35 17.85 309.45 17.9
L 309.75 17.8 310.1 17.9 310.5 17.9 310.5 17.75
M 279.1 54.75
Q 279.1 54.5 279.2 54.5 279.2 54.35 279.35 54.5
L 279.6 54.5 279.35 54.75 279.35 55 279.35 55.1 279.45 55.05 279.6 55.25 279.85 55.25 279.75 55.05
Q 279.75 54.95 279.7 54.95
L 279.65 54.95
Q 279.9244140625 54.8 280.1 54.8
L 280.35 55 280.35 55.1
Q 280.3 55.25 280.2 55.25 280.05 55.35 279.85 55.25
L 279.95 55.35
Q 280 55.6 279.75 56 279.55 56.2 279.35 56
L 279.1 55.8 279.1 55.5 279.2 55.35 279.1 55.35
Q 279 55.45 279 55.3 278.95 55.3 279 55.1
L 279.35 55 279.1 54.75
M 279.5 57.85
L 279.75 58 281.6 68.25 282.75 71.7 282.85 71.85 282.95 71.95 283.25 72.6 284.1 74 286.1 76.5 293.2 82.95 294.45 84.35 295.75 86.45 296.2 87.5 296.45 88.6 296.5 90.95
Q 296.35 92 295.85 93.2
L 295.35 94.45 290.1 93.85 289.85 93.85
Q 288.6 93.7 287.35 93.7
L 277 94.2
Q 275.3 94.45 274.85 94.45
L 271.45 95 268.35 94.95
Q 267.9 94.95 265.25 95.7
L 263.35 96.45 263.25 96.45 263.25 96.5 263.2 96.5 262.35 97 262.1 96.7 261.35 95.45
Q 260.65 94 260.5 92.7
L 260.25 91.2
Q 260.25 90.05 260.35 89.75 260.35 88.75 260.5 88.35
L 260.75 87.1 261.5 85.35 261.5 85.25 261.95 84.6
Q 262.65 83.55 263.75 82.7 264.8 81.65 268.5 79.1
L 271 77.1
Q 272.05 76.45 273.5 74.85 274.5 73.75 275.6 72.1
L 277 69.1 278.5 62.8 279 57.5 279.1 57.6 279.25 57.8 279.45 57.8 279.5 57.85
M 271.35 63.5
L 271.2 63.75 271.2 63.8 271.25 64
Q 271 63.9 271 63.6 270.75 63.25 271.2 63.35
L 271.25 63.5 271.35 63.5
M 270.85 64.1
L 271 64.1 271.1 64 271.2 64 271.2 64.1 271.25 64.1 271.45 63.85
Q 271.65 63.7 272 63.8
L 272.2 64 272.2 64.1 272.1 64.1 271.75 64.25 271.6 64.1 271.45 64 271.35 64.1 271.5 64.2 271.7 64.25 270.95 64.45 271 64.35
Q 270.75 64.45 270.75 64.35
L 270.85 64.1
M 271.85 70.75
L 271.85 70.2 272.35 70.7 272.7 70.95 271.2 72.6 271.45 72.1 271.85 70.75
M 256.7 91.85
L 258 89.95 258.35 92.35 258.7 93.1
Q 259 94.3 260 96.1
L 261 97.5 261.25 97.75 260.75 98.35 260.6 98.85
Q 260.45 99.2 260.75 99.5
L 261.1 99.75
Q 261.15 99.85 261.5 99.85 261.75 100.1 261.95 99.85
L 263 99.6
Q 263.1 100.35 262.85 101.85
L 262.75 103.5 260.95 102.85 258.75 102.35 256.5 102.35 255.75 102.45 255.3 101.7 253.8 98.35 253.35 97 253.5 95.7
Q 253.5 95.25 253.85 94.5
L 254.75 93.5 256.7 91.85
M 271.6 98
L 270.35 97.95 272.35 97.2
Q 273.7 96.7 275.95 96.35 277.25 96.35 279.75 96.7
L 283.5 97.45 284.1 97.45 281.35 97.7
Q 280.85 97.7 278.5 98.25 277.05 98.75 275.7 98.75 274.45 98.9 272.95 98.45
L 271.6 98
M 287.5 97.75
L 293.5 98.25 294.25 98.25 294.95 98.35 293.5 117.35 293.35 126.95
Q 293.35 133.75 293.5 136.45
L 293.5 139.4
Q 293.5 139.5 293.35 139.65 293.2 140 292.1 140.4
L 285.5 141.4
Q 282.05 141.65 280.75 141.65 276.4 141.8 276 141.75 274.9 141.8 271.25 141.65
L 268.95 141.4
Q 267.45 141.2 266.75 140.75 265.9 140.3 265.5 139.4 265 138.45 265.25 137.45
L 265.85 127.2
Q 266.05 123.2 265.75 117.1
L 264.6 101.85 264.5 101.5 270.6 101.45
Q 271.7 101.15 273 100.5 274.75 99.95 275.75 99.95 276.6 99.95 278.5 100.45
L 283.95 101.6
Q 284.95 101.85 286.45 101.85
L 291.95 101.35
Q 292.2 101.2 292.6 101.2 292.75 100.45 292.75 101.1
L 292.75 101.2 293 101.5 293.25 101.25 293.35 100.95
Q 293.2 100.6 292.45 99.75
L 291 98.95
Q 290.35 98.6 289 98.2
L 287.5 97.75
M 235.35 158.15
Q 235.8 158.85 235.85 159.4 236.05 159.8 236.25 160.7
L 236.3 160.95
Q 236.1 161.5 236.1 162
L 236.1 162.15 238.35 162.15 239 160.65 239.85 159.4 241.1 158.4
Q 241.7 157.9 242.35 157.65
L 243.85 157.15 244.75 157.15 245.55 156.95 248.1 157.15 250.3 157.65 251.55 158.2
Q 252.35 158.85 252.6 159.15 253.1 159.85 253.35 160.45 253.8 161.25 253.85 161.95
L 254.85 167.2 220.5 167 221.35 162.15 221.35 162.2 222.5 159.95 223.25 158.95 225.1 157.45 227.55 156.45 229.1 156.15 229.1 156 231.8 155.9
Q 232.9 156.25 233.1 156.4 233.5 156.45 234.35 157
L 235.35 158.15
M 213.85 170.5
L 214.85 169.5 267.1 170.75 213.85 170.5
M 264.6 99.95
L 264.25 100.2
Q 264.2 99.6 264 99.2
L 264.75 99.2 266.1 98.95 266 99
Q 265.15 99.4 264.6 99.95
M 261 105
L 262.75 104.2 262.25 117.1
Q 262.25 123 262.6 127.2
L 263 130.95 257.6 130.65
Q 258.25 129.25 258.6 127.95 259.1 125.85 259.2 124.75 259.35 123.6 259.1 121.6
L 258.85 120 257.6 115.25 257.5 113.7 258.35 110.45
Q 258.6 109.6 258.6 108.85
L 258.5 107.7
Q 258 106.75 257.6 106.25
L 257.5 106.1 261 105
M 275.25 157.2
L 275.85 157.75 276.95 159.15 277.5 160.9 277.6 161.4
Q 277.5 161.6 277.5 162.5
L 279.75 162.5
Q 279.85 161.85 280.25 161
L 281.1 159.65 282.2 158.65 282.75 158.25 283.45 157.95 286.5 157.4 287.25 157.4 288.85 157.65 290.1 158 291.2 158.75 291.7 159.2 292.5 160.45
Q 292.95 161.25 293.2 161.95
L 294.35 167.75 262.35 167.25 263.2 162.4 263.5 161.4
Q 263.75 160.6 264.2 160 264.35 159.65 265.1 158.9
L 265.6 158.45 266.25 158.15
Q 266.7 157.75 267.6 157.4 268.35 157.05 269.25 156.9
L 270.95 156.4 273.6 156.5 274.45 156.75 275.25 157.2
M 126.8 293.3
Q 129.8 293.45 133.35 293.3 135.9 293.3 140.85 293
L 148.25 292.4
Q 151.65 292.1 154.85 291.5
L 144.35 299.9
Q 140.15 299.75 137.35 299.9
L 129.85 300.65
Q 125.85 301.15 122.3 301 118.8 300.9 117.65 300.75 121.3 297.9 121.55 297.65
L 126.8 293.3
M 153.85 293.9
Q 154.8 292.8 155.8 291.4
L 156 291.05 139.35 289.3 142.1 288.15
Q 147.55 285.85 153 283.05
L 163.6 277.55
Q 171 273.45 174.05 271.5
L 173.85 271.15
Q 171.3 271.95 170.1 272.4
L 173.85 270.4 176.55 271.9 177.6 282.05 178 282.05 179.05 271.5 179.35 271.75 179.6 278.4
Q 179.65 282.55 179.85 285.3
L 179.8 285.25 179.05 284.65 178.3 284.4 175.6 284 173.85 284.4
Q 172.95 284.85 172.5 285.65
L 172.3 286.15 172.1 287 172.1 287.4
Q 172.15 288.6 172.6 289.75 172.7 290.3 173.05 290.9
L 173.75 292 174 292 173.85 292.15 174.1 293.15 174.6 293.25
Q 175.35 293.8 176.85 294.15
L 180.3 294.75 180.55 299.05 161.85 299 161.85 298.75 155.6 292.4 153.85 293.9
M 161.05 299
L 158.6 299 148.35 310.75 148.25 302.05 155.6 294.4 161.05 299
M 319 225.4
Q 319.9 225.4 320 225.45
L 320.75 225.65 321.75 226.5 322.25 227.9 322.35 228.4
Q 321.8 228 321.25 227.75
L 320.35 227.5 319.35 227.4 317.75 227.65
Q 316.65 227.9 316.1 228.4 315.35 228.85 314.85 229.75 314.45 230.55 314.45 231.4 314.45 232.15 314.6 232.9 314.9 235.2 314.6 237.15
L 314.35 238.4
Q 314.2 236.7 314.2 234.9 314.2 231.45 314.45 229.95
L 314.45 229.9
Q 314.45 228.9 314.85 227.9 315.35 226.8 315.85 226.25 316.6 225.65 317.25 225.5 317.95 225.4 319 225.4
M 280.75 227.5
L 279.75 227.4 278.25 227.65
Q 277 227.9 276.5 228.4 275.75 228.85 275.25 229.75 274.85 230.6 274.85 231.4 274.85 232.55 275 232.9 275.4 235 275.1 237.15
L 274.75 238.4
Q 274.6 237.65 274.6 234.9 274.6 231.9 274.85 229.95
L 274.85 229.9
Q 274.85 228.85 275.25 227.9 275.65 226.95 276.35 226.25 276.85 225.85 277.75 225.45
L 279.5 225.4
Q 280.35 225.4 280.45 225.45
L 281.2 225.65
Q 281.7 225.9 282.2 226.5 282.6 227.4 282.7 227.9
L 282.75 228.4 281.7 227.75 280.75 227.5
M 267.75 271.3
L 267.85 271.55 290 272.55 290.85 299.75 272.5 299.65 267.35 270.65 266 267.9 266.1 267.9 267.75 271.3
M 264.1 269.9
L 264.75 271.4 268.6 299.65 181.3 299.05 182.55 270.4 198.6 270.3
Q 205.1 270.2 220.8 269.5
L 231.85 269.25 264.1 269.9
M 294.7 283.4
L 294.7 283.9 295 285.75
Q 295 286.25 295.6 287.65 296.2 288.8 296.25 289.55 296.25 290.4 295.75 291.5
L 295.75 291.65 294.5 291.8 293.75 282 294.6 282.75 294.75 283
Q 294.8 283.2 294.75 283.25 294.6 283.4 294.7 283.4
M 240.6 225.45
L 241.35 225.65
Q 242.15 226.15 242.35 226.5 242.8 227.15 242.85 227.9
L 242.85 228.4
Q 242.4 228.05 241.85 227.75
L 240.85 227.5 240 227.4 238.35 227.65
Q 237.4 227.9 236.75 228.4 235.95 228.8 235.5 229.75 235.1 230.7 235.1 231.4 235 231.9 235.1 232.9 235.6 234.8 235.3 237.15
L 234.85 238.4 234.8 234.9
Q 234.9 230.95 235.05 229.95
L 235.05 229.9
Q 235.05 228.8 235.5 227.9 235.8 227 236.55 226.25 237 225.65 237.85 225.5 238.65 225.4 239.6 225.4 240.55 225.4 240.6 225.45
M 178.1 286.15
L 177.35 288 177.05 290.9 176.85 290.9 174.6 291.8 175.1 292 174.25 291.9 175.35 289.75
Q 175.7 288.15 175.75 287.4
L 175.75 287 175.6 286.9 175.6 286.05 176 285.75 176.6 285.4 177.35 285.5 177.85 285.65 178.1 285.9 178.1 286.15
M 317.85 440.5
L 318 440.4 335.25 441.75
Q 337.15 441.9 344.2 442.25
L 351.1 442.75 347.85 453.65 347.85 453.75 344.45 471.5 301.6 471.9 301.6 471.5 305.35 462.8 317.85 440.5
M 599.75 443.15
L 602.5 466.5 531.75 471.8
Q 520.45 472.6 517.45 472.65
L 489.5 474.05 488.7 472.05 490.7 472.1 491.25 449.35 489.4 449.3 490.35 448.25 599.75 443.15
M 491.6 440.5
L 489.35 443 484.1 437.3 506.1 353.65 491.6 440.5
M 489.25 449.3
L 487.25 449.25 486.8 467.05 482.85 456.75 483.75 456.75 483.75 443.2 489.25 449.25 489.25 449.3
M 481.75 441
L 479.75 441 479.75 456.75 433.6 456.75 366.75 457.65 369.95 438.15 423.2 440.75 423.45 440.8 425 440.75
Q 431.7 440.75 439.25 440.55
L 480.75 439.9 481.75 441
M 351.25 456.4
L 351.25 457.8 352.75 457.8 349.85 464.5 351.25 456.4
M 221.35 282
Q 220.15 282.75 219.6 283.9 219.15 284.7 219.1 285.25
L 219.1 286.25
Q 219.15 288.1 219.6 290 219.65 290.9 220.05 291.8 220.3 293.05 220.75 293.65
L 221 293.65 220.85 293.8 221.6 295.15 222.1 295.25
Q 223.9 295.85 225.6 296.15
L 231.25 296.75 231.35 294.5
Q 231.6 292.75 231.35 290.8
L 230.6 285.25
Q 230.3 283.75 229.8 283 229.15 282.2 227.75 281.75 226.6 281.55 225.75 281.5
L 223.6 281.4
Q 222.25 281.55 221.35 282
M 221.1 293.55
Q 221.6 292.75 221.85 291.8
L 222.35 290
Q 222.7 287.45 222.75 286.25
L 222.75 285.5 222.8 285.05
Q 222.9 284.45 223.1 284 223.45 283.35 224.1 283.05
L 224.85 282.75 225.6 282.65
Q 226.3 282.65 227.35 283 228.05 283.3 228.1 283.9
L 227.25 290.8
Q 227.1 291.7 227.1 292.65
L 222.1 293.75 222.5 293.9 221.1 293.55
M 198.35 286.05
L 198.35 287.25
Q 198.35 288.8 198.8 290.9
L 199.1 292.75 199.75 294.65 200.1 294.65 200.85 292.8 201.3 291
Q 201.8 288.4 201.85 287.3
L 201.85 286.65 202.1 286.15 202.6 285.4
Q 203 284.95 203.5 284.65
L 204.1 284.3 204.35 284.25 204.55 284.15 205.05 284.15
Q 205.85 284 206.6 284.15 207.25 284.4 207.6 285 207.85 285.45 207.75 286.5
L 206.6 293.5 201.05 293.8 201.3 297.5 204.85 297.75
Q 206 297.8 208.55 297.65
L 210.75 297.5 210.25 292
Q 210.15 291.1 209.6 288.3
L 208.8 284.4
Q 208.2 283.55 207.1 282.9 206.3 282.6 205.1 282.3
L 204.6 282.25 204.5 282.15 204.1 282.15 202.85 282
Q 201.45 282.2 200.55 282.75 199.3 283.55 198.8 284.75 198.6 285.05 198.35 286.05
M 254.6 282.4
Q 254.5 281.75 253.85 281 253.6 280.75 252.6 280.15
L 251.35 279.65 249.75 279.4 249.05 279.4
Q 248.7 279.4 247.8 279.65 246.2 280.1 245.3 281 244.3 282.1 243.85 283.4
L 243.75 284.9 243.85 285.9
Q 243.95 287.65 244.35 289.75
L 244.6 291.75 244.85 292.8 239.1 292.5 238.85 298.65 241.05 298.75
Q 243.7 299 246.3 298.75 249.4 298.65 251.55 298.4 254.2 298.35 256.75 297.8 260.05 297.35 262 296.8
L 262 296.4 254.6 295.25 254.55 294.65
Q 254.4 293.9 254.3 290.65 254.3 288.2 254.5 286.75
L 254.75 284.8
Q 254.85 283.1 254.6 282.4
M 247.1 284.5
Q 247.45 283.8 247.75 283.55
L 248.6 283.15 249.6 283 251.5 283 252.25 283.4
Q 252.55 283.95 252.6 284.8
L 252.85 286.75
Q 253.1 288.75 253.1 290.65 253.1 292.15 252.85 293.65
L 247.35 293
Q 246.35 292.9 245.8 292.9
L 246.85 285.9 246.85 284.9 247.1 284.5
M 271.7 108
L 271.2 107.5 270.75 107.35 270.6 107.25 270.1 107.25 269.6 107.45 269.2 107.85 269 108.2
Q 268.75 108.65 268.75 110
L 269.1 114.45
Q 269.1 115.95 268.95 117.45
L 268.5 120.35
Q 268.25 121.8 268.25 123.25 268 124.25 268.25 126.2 268.25 129.2 268.75 132.15
L 268.6 133.65 271.25 133 271.25 132.7 270.1 132.45 270.25 132.25 270.25 132.15 270.6 129.9 270.85 130.9 271.1 130.9
Q 271.6 129.15 272.1 125.1 272.45 122.7 272.6 119.2 272.6 116.25 272.5 113.35
L 272.25 109.6 272 108.6 271.7 108
M 289.95 107.95
Q 289.35 108.4 289.2 108.75
L 289 109.35
Q 288.85 109.55 288.75 110.2
L 288.5 113.95
Q 288.3 117.85 288.35 119.85 288.4 122.85 288.85 125.6 289.2 129.1 289.85 131.45
L 290.1 131.45 290.25 130.9 290.5 132.65 290.5 132.9 290.7 133.15 289.75 133.25 289.75 133.65 292 134.15 291.95 132.65 292.6 123.85 292.25 120.95
Q 291.65 116.75 291.7 115.1 291.7 113.4 291.85 112.2
L 292 110.7
Q 292 109.75 291.85 108.85
L 291.35 108.1
Q 291.1 107.9 290.6 107.85
L 290.35 107.85 289.95 107.95
M 284 109.1
L 283.75 107.95
Q 283.45 107.2 283 106.6 282.25 105.85 281.2 105.7
L 280.6 105.7 280.35 105.75
Q 279.8 105.9 279.5 106.2 278.95 106.65 278.6 107.45 278.35 108 278.35 108.6
L 278.35 109.5 278.85 113.5
Q 278.85 115.7 278.75 116.7 278.75 117.25 278.35 119.95
L 277.85 123.1
Q 277.55 124.65 277.7 126.25 277.8 130.35 278.25 132.65
L 278.1 132.95 277.5 134.9 279 134.65
Q 282 133.9 282.6 133.65
L 282.6 133.25 280.75 132.7 280.75 132.65 281.25 128.2
Q 281.45 130.05 282 131.4
L 282.35 131.4
Q 283.1 129.1 283.7 125.1
L 284.35 115.5 284 109.1
M 501.25 219.2
L 500.2 219.5 499.75 219.75
Q 499.1 220.25 498.7 220.9 498.35 221.3 497.7 222.95 497.15 224.5 497 226.9
L 496.85 237.65 497.25 244.65 497.35 245 496 246.7 497.45 246.65
Q 497.65 249.4 498 251.65
L 498.1 252.75 504 251.9 504 251.45 500 250.9 500.5 246.4
Q 501.6 246.35 504 245.95
L 505.25 245.9 505.2 244.9
Q 504.7 241.15 504.6 237.7 504.6 233.55 504.85 230.65
L 505.1 227.15
Q 505.1 224.5 505 223.4 504.8 222.4 504.35 221.2 503.95 220.45 503.5 220 502.6 219.2 501.6 219.2
L 501.25 219.2
M 502.1 223.95
L 502.85 227.2 503.2 230.65
Q 503.45 234.7 503.35 237.7 503.35 240.25 503 243.5
L 502 243.4
Q 502.1 241.3 502 238.65
L 501.35 227.9
Q 501.35 225.75 501.45 225.4
L 501.6 224.15 501.85 223.65 501.95 223.65 502.1 223.95
M 316.25 280
Q 315.65 279.9 315 280 313.45 280.15 312.5 280.9 311.25 281.8 310.85 283.25 310.6 284.2 310.6 284.75
L 310.7 285.65
Q 310.85 288.05 311.1 289.55
L 312 292.8 311.25 292.9 307.2 293.8 307.35 294.4
Q 307.6 295.7 307.95 296.4
L 308.35 296.4 308.7 295.4 314.5 296.3
Q 318.15 296.7 320.75 296.5
L 323 296.3 321.6 284.65
Q 321.45 283.35 321.1 282.5 320.65 281.4 319.35 280.8
L 317.25 280.15 316.25 280
M 315.6 282.4
L 316.75 281.9 317.25 281.9
Q 318.15 281.75 318.95 282 319.8 282.3 319.95 282.9 320.1 283.6 319.95 284.65
L 318.85 292.25
Q 316.65 292.25 314.5 292.5
L 313 292.75 313.75 289.55 314.25 284.75 314.35 284.25 314.75 283.25
Q 314.9 282.85 315.6 282.4
M 359.35 279.75
L 358.35 279.75 357.35 280
Q 356.5 280.45 355.85 281.4
L 355.6 282.25 355.5 283.25 355.5 283.05 355.2 287.55
Q 355.2 289.95 355.35 291.75
L 354.85 291.75 354.85 292.05
Q 354.4 293.4 354.25 294.5
L 354.6 294.75 355.6 293.9 355.6 294.15 358 294
Q 358.5 294.15 359.35 294.15 360.8 294.4 363 294.4
L 364.95 294.3 364.75 290.25 363 290.3 362.35 290.4
Q 362.1 289.45 362 288.3 361.65 286.5 361.95 284.5
L 362.1 282.5
Q 362.1 281.85 361.6 281
L 361 280.4 360.35 280 359.7 279.8 359.35 279.75
M 359.1 282.9
L 358.95 282.9
Q 358.75 282.9 358.75 282.8
L 359.25 282.75 359.35 282.65 359.75 282.5 359.95 282.5 360.25 282.8 360.45 283.55 360.5 284.5
Q 360.75 286.35 360.5 288.3
L 360 290.65 359.45 290.5 359.2 283 359.1 282.9
M 362 275.4
L 360.5 275.55 359 275.9 357.45 276.55
Q 356.9 276.8 355.95 276.9 355 276.9 354.45 276.55
L 352 275.55 351.1 278.3 351.35 281 352.95 280.9
Q 354.25 280.7 354.85 280.3
L 356.45 279.65 355.75 278.3 355.6 278.15 355.95 278.15
Q 356.4 278.15 357.45 278.5
L 358.95 279.05
Q 359 279.2 360.5 279.4 361.4 279.65 362 279.65 363 279.8 364.25 279.4
L 364.35 279.5 365.7 279.75 367 276.5 365 275.8
Q 363.4 275.4 362 275.4
M 359.75 246.75
Q 359.15 246.4 358.6 246.4 357.7 246.4 357.2 246.65 356.3 247.1 356.1 247.65 355.65 248.4 355.5 248.9
L 355.25 250
Q 354.75 251.95 354.75 254.15 354.9 256.55 355.25 258.15 355.4 259.4 355.7 260.15 355.8 260.8 356.35 262.25
L 354.85 262.65 354.85 263.05 356.75 263.65
Q 357.15 263.85 358.5 264.15
L 358.5 264.5 359.85 264.4 363.95 264.9 364.45 260.5 362.6 260.3 362.2 254.15 361.2 248.9 360.75 247.7
Q 360.15 247 359.75 246.75
M 359.6 248.4
Q 359.7 248.6 359.7 249.15
L 358.45 258.15
Q 358.3 260.6 358.35 261.65
L 356.85 262
Q 357.25 261.25 357.5 260.15
L 358 258.15
Q 358.35 255.1 358.35 254.15 358.45 252 357.95 250
L 357.75 249.15
Q 357.55 248.75 357.7 248.4
L 357.85 247.9
Q 358.05 247.7 358.5 247.65
L 359.2 247.75 359.6 248.4
M 344 110.95
L 343.85 110.35 343.6 110.1 343.45 109.85 342.95 109.7 342.5 109.7 342.35 109.75 342 110 341.85 110.2 341.35 111.35 341 115.7
Q 340.8 119.15 340.85 121.35 340.85 123.35 341.25 126.95 341.8 130.65 342.35 132.5
L 342.6 133.65 342.6 133.7 342.75 134.15 342.35 134.25 342.35 134.65 343.25 134.9 343.6 134.9 344.5 125.2
Q 344.5 124.3 344.25 122.45
L 344 121.2
Q 344.1 119.5 343.95 115.7
L 343.75 113.5 344 110.95
M 355.25 110
L 354.75 109.45 354.35 109.2 353.75 109.1 353 109.1 352.25 109.6
Q 351.95 109.9 351.7 110.7
L 351.6 112.45 351.95 116.2 351 127.95
Q 351.1 131.3 351.5 133.9
L 351 135.65 354.85 134.9 354.85 134.65 353.25 134.15 353.25 133.9
Q 353.5 132.1 353.75 128.9 353.95 131.1 354.45 132.75
L 354.75 132.75
Q 355.05 131.35 355.7 126.85 356.1 122.35 356.1 120.95 356.2 118.8 356 115
L 355.85 112.1
Q 355.75 110.75 355.25 110
M 364.6 110.6
L 364.5 110.25 364.35 109.95 364.1 109.75 363.6 109.6 363.1 109.6 362.7 109.85 362.5 110.1 362.2 110.75 361.85 112.75 361.7 115.6
Q 361.5 118.55 361.5 121.2 361.75 125.35 362 126.85 362.5 130.7 363 132.4
L 363.1 132.4 363.25 133.5 363.25 133.65 363.45 134 363 134.15 363 134.4 364.25 134.75 364.35 133.4 364.35 133.5
Q 364.75 132 364.85 130.7
L 365.2 125.1 364.5 113.6
Q 364.6 112.45 364.6 110.85
L 364.6 110.6
M 313.6 96.5
Q 312.65 97.1 312.2 98.2 312 98.95 312 99.7
L 312 100.1 312.1 100.35 312.7 107.35
Q 312.7 109.55 312.45 111.7
L 311.85 116
Q 311.5 118.3 311.5 120.35 311.5 125.1 312 128.75
L 311.95 128.75 310.45 131.15 317.5 129.9 315.85 128.4 315.5 128.65 315.6 128.9 314.6 128.65 315 124.2 315.5 126.7 315.95 126.7
Q 316.25 125.4 317.1 120
L 317.7 113.35
Q 317.95 110.15 317.85 106.7
L 317.35 98.7
Q 317.05 97.45 316.25 96.75
L 315.5 96.35 315.1 96.25 314.95 96.25
Q 314.2 96.25 313.6 96.5
M 327.25 98.5
L 326.85 98.95
Q 326.4 99.55 326.35 100.45
L 326.6 104.7
Q 326.75 107.4 326.75 108.7 326.75 110.75 326.5 112.75
L 326.1 116.85
Q 325.85 118.55 325.85 120.95
L 326.35 128.9 325.6 130.45 330.1 129.75 329.1 128.45 328.75 128.65 328.95 129.15 328.1 128.9 328.45 124.95 328.45 124.85 328.75 126.85 329.1 126.85
Q 329.7 123.75 330 120.45
L 330.45 114.2
Q 330.6 111.4 330.5 107.85
L 330.2 100.35 330 99.7 329.45 98.75 329.1 98.5 328.5 98.25 328 98.25 327.25 98.5
M 340.75 69.95
L 340.7 69.7 340.5 69.6 340.35 69.7 340.5 69.85 340.75 69.95 Z"/>
</g>
</defs>

<g transform="matrix( 1, 0, 0, 1, 0,0) ">
<use xlink:href="#Layer1_0_FILL"/>
</g>

<g transform="matrix( 1, 0, 0, 1, 0,0) ">
<use xlink:href="#Layer0_0_FILL"/>
</g>
</svg>
