<?xml version="1.0" encoding="utf-8"?>
<!-- Generator: Adobe Illustrator 24.1.0, SVG Export Plug-In . SVG Version: 6.00 Build 0)  -->
<svg version="1.1" id="Слой_1" xmlns="http://www.w3.org/2000/svg" xmlns:xlink="http://www.w3.org/1999/xlink" x="0px" y="0px"
	 viewBox="0 0 308.7 439.2" style="enable-background:new 0 0 308.7 439.2;" xml:space="preserve">
<style type="text/css">
	.st0{fill:#FFFFFF;}
</style>
<g>
	<path class="st0" d="M283.8,223.4c-0.8,0.1-1.7,0.1-2.5,0.2c-0.7,0-1.4,0-2,0c-0.6,0-1.1,0.3-1.6,0.7c-1,0.9-2,1.8-3.1,2.6
		c-0.5,0.3-1.2,0.5-1.8,0.5c-1,0.1-2.1,0-3.1,0c-0.3,0-0.7-0.1-0.7,0.4c0,0.1-0.5,0.3-0.8,0.3c-1.2,0-2.3,0-3.5,0
		c-2.2-0.1-4.4,0.5-6.5,0.7c-1.3,0.1-2.6,0.4-3.9,0.7c-0.9,0.2-1.7,0.5-2.5,0.9c-1,0.6-2.2,0.8-3.3,1c-4.1,0.9-8.1,1.7-12.2,2.6
		c-3,0.6-6,1.2-9,1.8c-1,0.2-1.8,0.7-2.1,1.7c-0.3,1-0.5,2.1-0.7,3.1c-0.1,0.3,0,0.7-0.1,1.2c-0.6,0.1-1.2,0.2-1.9,0.3
		c-0.4-1.6-0.7-3.1-1.1-4.5c-1.1-0.1-1.8,0.5-2.7,0.7c0.2,0.5,0.3,1,0.5,1.4c0.9,1.7,1.1,3.5,1.2,5.3c0.1,2.5,0,5,0,7.4
		c0,0.8-0.2,1.7-0.3,2.6c-1.6,0.1-3.1,0.2-4.7,0.3c-1.5,0.2-3.1,0.5-4.6,0.7c-1.5,0.2-3.1,0.3-4.8,0.5c0-0.5-0.1-0.9-0.1-1.3
		c0-1.3,0-2.6,0-4c0-1-0.8-1.5-1.6-0.9c-0.9,0.7-1.9,0.7-2.9,0.8c-4,0.1-7.9,0.1-11.9,0.3c-1.9,0.1-3.8,0.4-5.7,0.6
		c-1.8,0.2-3.6,0.5-5.3,0.7c-2.1,0.3-4.2,0.7-6.2,1.1c-2.2,0.5-4.4,1-6.6,1.5c-2.8,0.6-4.2,2.6-4.9,5.2c-0.2,0.8-0.3,1.6-0.4,2.4
		c-0.2,0.1-0.5,0.2-0.8,0.2c-1,0-1.2-0.2-1.3-1.2c-0.1-1.3-0.1-2.6-0.8-3.8c-0.5-1-0.5-1-1.7-0.8c-1.6,0.3-3.1,0.6-4.7,0.9
		c-0.2,0-0.4,0.1-0.8,0.3c1.7,2.2,2.3,4.7,2.8,7.4c0.4,0,0.8,0.1,1.1,0.1c0.6,0,0.9,0.3,0.9,0.9c0,1.3,0,2.6,0,4
		c0,0.6-0.4,0.9-0.9,1.2c-1.7,1-3.4,1.9-5.1,2.9c-0.9,0.5-1.8,1.2-2.7,1.7c-1.6,0.9-3.3,1.8-4.9,2.7c-0.7,0.4-1.4,0.3-2.1,0.2
		c-0.2,0-0.5-0.4-0.6-0.7c-0.1-0.3-0.1-0.6-0.1-1c0-4.8,0-9.7,0-14.5c0-0.1,0-0.2-0.1-0.4c-1.1-0.2-2.3-0.2-3.4,0.2
		c-0.4,0.2-0.8,0.3-1.2,0.4c-0.9,0.1-1.8,0.2-2.7,0.2c-1.8,0.1-3.7,0.2-5.5,0.3c-3.8,0-7.7,0-11.5,0c-2.7,0-5.4,0.1-8.1,0.2
		c-2.1,0.1-4.2,0.2-6.3,0.5c-2.5,0.3-5,0.7-7.6,1.1c-3.1,0.4-6.2,0.8-9.2,1.3c-2.1,0.3-4.2,0.7-6.2,1.3c-0.7,0.2-1.3,0.8-1.7,1.4
		c-1,1.5-1.9,3-2.8,4.6c-0.5,0.8-0.9,1.7-1.4,2.5c-0.1,0.2-0.3,0.3-0.6,0.5c-0.1-0.3-0.3-0.5-0.3-0.7c-0.1-1.4-0.2-2.7-0.3-4.1
		c0-0.1,0-0.2,0-0.4c-0.2-1.5-0.6-1.8-2-1.4c-0.5,0.2-1,0.4-1.5,0.5c0.3,1.1,0.6,2.1,0.9,3.1c0.2,0.6,0.1,1.1,0,1.6
		c-0.1,0.6,0,1.2,0,1.7c0.1,0.1,0.2,0.2,0.3,0.2c1.5,0.2,1.6,0.3,1.1,1.7c-1,2.9-2,5.7-2.9,8.6c-0.9,2.7-1.7,5.4-2.6,8.1
		c-0.7,2.1-1.5,4.3-2.2,6.4c-0.3,0.9-0.6,1.8-0.9,2.7c-0.2,0.1-0.4,0.1-0.5,0.1c-1.5,0.1-2-0.3-2-1.8c0-2.3,0.1-4.6,0.2-6.9
		c0-0.1,0-0.2,0-0.4c0.1-2.3,0.1-4.5,0.3-6.8c0.3-4,0.5-8,0.5-12.1c0-0.9,0.3-1.8,0.4-2.7c0-0.2,0-0.5,0-0.8
		c-0.8,0.2-1.4,0.4-2.2,0.7c-0.1-0.6-0.1-1-0.1-1.5c0-2.7,0-5.4,0-8c0-0.3,0-0.6,0-1c-0.1-0.7-0.2-0.7-1.2-0.6c0,0.4,0,0.8,0,1.3
		c0,9.9,0,19.8,0,29.6c0,2.3,0.1,4.5,0.2,6.8c0,0.2,0,0.6,0.1,0.7c0.9,0.7,0.5,1.6,0.5,2.6c-0.9,0-1.8,0.2-2.6,0.1
		c-1.7-0.2-2.8,0.3-3.6,1.9c-0.3,0.7-0.9,1.2-1.4,1.8c-0.2,0.2-0.5,0.5-0.6,0.7c-0.4,0.6-0.8,1.3-1.2,2c0.2,0.1,0.3,0.1,0.4,0.1
		c0.5,0.1,0.7,0.5,0.6,1c-0.1,0.5-0.4,0.7-0.9,0.7c-1.5,0-3,0-4.6,0c-1,0-2,0-3,0c0-0.6,0-1,0-1.5c0.6-0.1,1.1-0.1,1.7-0.2
		c0-0.2,0.1-0.5,0-0.6c-1-1.3-0.5-2.8-0.5-4.2c0-0.3,0.1-0.5,0.1-0.8c0-0.5-0.2-0.8-0.7-0.8c-1.8,0-3.6,0-5.5,0
		c-0.1,1.1-0.1,2.2,0,3.3c0.2,1.2,0.3,2.4,0.4,3.7c0,0.9-0.2,1.1-1,1.1c-1,0-2.1,0-3.1,0c-0.1,0.9-0.2,1.7-0.4,2.5
		c-0.1,0.6-0.3,1.2-0.5,1.7c-0.1,0.3-0.4,0.6-0.6,0.7c-0.8,0.3-1.6,0.4-2.5,0.6c-0.4-1.1-0.3-2.1-0.1-3.1c0.4-3,1-6.1,1.5-9.1
		c0.1-0.5,0.4-1.1-0.3-1.4c-0.7-0.3-1.6,0-2,0.6c-0.8,1.3-1.5,2.5-2.3,3.8c-0.4,0.6-0.7,1.3-1.1,2c-0.4,0.7-1,1.1-1.8,1.1
		c-1.6-0.1-3.3-0.2-4.9-0.2c-0.9,0-1.7,0.1-2.7,0.2c0-0.7,0-1.4,0-2.1c1.5-0.3,1.6-0.3,1.8-1.8c0.2-1.8,0.7-3.6,0.4-5.5
		c0-0.2,0-0.3,0-0.5c0.4-2,0.8-3.9,1.1-5.9c0.3-1.6,0.5-3.1,0.7-4.7c0-0.3,0.1-0.5,0.2-0.9c0.6,0.4,0.6,1,0.7,1.5c0.8,3,1.5,6,2.3,9
		c0.1,0.3,0.1,0.6,0.2,0.9c0.1,1.7,0.1,3.5,0.3,5.2c0,0.7,0.2,1.5,0.3,2.4c0.5-0.4,0.7-0.8,0.9-1.3c1.1-2.1,2.2-4.2,3.3-6.2
		c0.1-0.3,0.2-0.6,0.2-0.9c0-0.4,0-0.8,0-1.2c0-12.5,0-25,0-37.4c0-1.5,0.1-2.9,0.8-4.3c0.3-0.6,0-1.2-0.6-1.7
		c-0.5-0.3-1.4-0.4-1.8,0c-0.5,0.4-0.9,0.8-1.1,1.5c-0.5,1.7-0.6,3.4-0.6,5.1c0,8.4,0,16.7,0,25.1c0,0.5,0,1,0,1.5
		c-1,0.2-1.9,0.5-2.5-0.5c-0.1-0.1-0.3-0.2-0.4-0.2c-1,0-2.1,0-3.1,0c-0.1,0-0.3,0.1-0.4,0.2c-0.4,1.1-1.3,0.5-2.1,0.7
		c0-0.7-0.1-1.3-0.1-1.9c0-11.1,0-22.2,0-33.2c0-0.4,0-0.8,0-1.2c0-0.2-0.1-0.6-0.2-0.7c-0.8-0.3-0.9-1-1.2-1.7
		c-0.1-0.3-0.5-0.5-0.8-0.6c-0.3-0.1-0.6,0-1,0c-2.6,0-5.3,0-7.9,0c-0.7,0-1.5,0.2-2.2,0.3c0-0.2,0-0.5,0-0.7
		c3.4-1.2,6.8-2.4,10.2-3.6c2.6-0.9,5.2-1.9,7.9-2.8c2.1-0.7,4.2-1.4,6.3-2.1c1.2-0.4,2.4-0.2,3.5-0.1c0.9,0.1,1.7,0.2,2.7,0.3
		c0-0.7,0.1-1.2,0.1-1.8c0-15.5,0-31,0-46.6c0-0.9,0.1-1.8,0.2-2.7c0-0.3,0-0.6,0-1c-0.1-1.3-0.1-2.5-0.2-3.8c0-0.3,0.1-0.6,0.1-0.9
		c0-0.8,0-1.7,0-2.5c0-0.4-0.2-0.8-0.1-1.2c0.4-1.3-0.1-2.5-0.2-3.8c-0.3-0.1-0.6-0.2-0.8-0.2c-1.7,0-3.3-0.1-5,0.3
		c-0.7,0.2-1.5,0.2-2.2,0.3c-2.2,0.3-4.3,0.5-6.5,0.8c-0.4,0-0.7,0.2-1.1,0.2c-0.2,0-0.5-0.1-0.9-0.2c7.6-7.1,14.1-14.9,21.9-21.5
		c-0.4-0.9-1.5-1-1.8-1.9c0.1-0.1,0.2-0.2,0.2-0.2c2.6,0,5.2,0.1,7.8,0.2c1.3,0,2.6,0,3.8,0c0.9,0,1-0.1,1-1c0-0.8-0.1-1.6-0.2-2.4
		c0-0.5-0.1-1-0.1-1.6c0-7,0-14,0-21c0-0.8-0.1-1.6-0.2-2.4c0-0.1,0-0.2,0-0.4c0-0.8,0.8-1.1,1.1-1.7c0.3-0.6,0.5-1.3,1.4-1.3
		c0.1,0,0.1-0.1,0.2-0.2c-0.1-0.7-0.7-1-1.2-1.4c-0.6-0.5-1.3-0.8-1.9-1.2c-0.7-0.4-1-1-1-1.8c-0.1-1.8-0.5-3.6,0.2-5.3
		c0.6-1.6,1.4-3.1,2.2-4.6c1.3-2.3,2.8-4.5,4-6.9c1-2,1.7-4.2,2.6-6.3c1-2.6,1.8-5.4,1.9-8.2c0-0.4,0.1-0.7,0.2-1.1
		c0.1-0.6,0.2-1.2-0.2-1.9c-0.5-1-0.2-2.1-0.1-3.2c0.1-0.6,0.3-1.1,0.5-1.8c0.9,0.5,1.8,0.7,2.7,0.4c-0.8-0.5-1.7-0.6-2.1-1.7
		c0.5-0.7,0.2-1.4-0.1-2.1c-0.2-0.5-0.2-0.9-0.1-1.5c0.3-1.6,0.6-3.1,0.2-4.7c-0.1-0.6-0.1-1.3-0.1-1.9c0-0.6-0.2-1-0.8-1.2
		c-0.2,0-0.3-0.1-0.4-0.2c-0.6-0.4-0.7-0.9-0.3-1.5c0.1-0.2,0.2-0.3,0.3-0.5c0.1-0.1,0.1-0.3,0.2-0.5c0.2,0,0.4,0,0.6,0
		c0.1,0,0.3,0,0.6,0.1c0-2.1,0.2-4.2-0.1-6.3c-1.1,0-2,0-3,0c-0.5,0-0.5,0-1.5-0.8c0-0.1,0-0.2,0-0.2c0.3-1.4,1.5-1.3,2.5-1.5
		c0.6-0.1,1.2,0,1.9,0c0-0.5,0.1-0.9,0.1-1.2c0-0.5-0.2-0.7-0.6-0.9c-1.2-0.5-1.2-0.5-0.8-1.7c0.1-0.2,0.1-0.4,0.2-0.6
		c0.4-0.1,0.8-0.2,1.2-0.3c0.1-0.3,0.1-0.7,0.2-1c0.1-0.5,0.5-0.7,1-0.7c0.5,0,0.8,0.3,0.9,0.8c0.1,0.5,0.2,1,0.2,1.5
		c0.6,0,1.1-0.1,1.4,0c0.2,0.1,0.3,0.6,0.4,1c0.1,0.9-0.3,1.1-1.7,1.3c0,0.1-0.1,0.2-0.1,0.3c-0.2,1.6,0.4,2.1,2,1.8
		c0.8-0.1,1.6-0.1,2.4-0.2c0.1,0.8,0.2,1.4,0.2,2c0,0.5-0.3,0.7-0.8,0.8c-0.6,0-1.2,0-1.8,0c-0.5,0-1.1-0.1-1.8-0.1
		c0,2.4,0,4.7,0,7.1c0.4,0.2,1.2-0.2,1.5,0.5c0.2,0.5,0.4,1.1,0.3,1.6c-0.1,0.7-0.9,1-1.9,0.7c0,1.3,0,2.7,0,4
		c0,0.6,0.1,1.1,0.1,1.7c0,1.1,0.4,1.9,1.4,2.4c1.5,0.8,1.6,2.2,0.3,3.2c-0.8,0.6-0.9,1.3-0.7,2.2c0.1,0.5,0.2,1,0.2,1.5
		c0,0.3,0,0.6-0.1,0.9c-0.1,0.2-0.2,0.4-0.4,0.6c-0.9,1-0.8,2.2-0.4,3.4c0.8,2.4,1.5,4.9,2.3,7.3c0.6,1.9,1.3,3.7,2,5.6
		c1.1,2.9,2.9,5.5,4.5,8.1c1.1,1.7,2.1,3.5,2.4,5.6c0.2,1.3,0.1,2.6,0.1,3.9c-0.1,1.8-1,3.1-2.5,4.1c-0.1,0.1-0.2,0.2-0.3,0.3
		c0.2,0.5,0.2,1,0.9,1.2c0.1,0,0.2,0.2,0.3,0.3c0.3,0.6,0.6,1.2,0.9,1.8c-1,0.6-0.6,1.8-0.8,2.7c-0.3,1-0.3,2-0.6,3.1
		c-0.1-0.3-0.3-0.6-0.4-0.9c-0.2-0.5-0.4-1-0.6-1.4c-0.7-1.3-1.7-1.9-3.2-1.8c-1.4,0.1-2.9,0-4.3,0c-0.9,0-1.7,0.1-2.6,0.3
		c-0.3,0.1-0.7,0.3-0.9,0.5c-2.1,1.7-3.2,4-3.9,6.7c-0.6,2.3-0.4,4.6-0.4,6.9c0,1.1,0.3,2.3,0.4,3.4c0,0.2,0,0.3,0.1,0.5
		c0.1,2.2,0.1,4.4,0.3,6.6c0.1,1.5,0,3.1,0.8,4.5c0.8,1.5,1.9,2.5,3.6,2.9c0.8,0.2,1.7,0.6,2.5,0.8c2.3,0.6,4.5,0.5,6.5-0.8
		c0.3-0.2,0.6-0.4,0.8-0.7c0.6-0.8,1.4-1.3,2.4-1.3c0.5,0,1-0.1,1.5-0.2c0.8-0.1,1.6-0.2,2.4-0.3c1.7-0.2,3.3-0.3,5-0.6
		c0.4-0.1,0.7-0.1,1.1,0.2c0.8,0.6,1.7,1.2,2.6,1.8c2-1.6,4.3-2.8,6.1-4.8c0.5-0.6,1-1.2,1.4-1.8c1.4-2.4,2.7-4.9,3.6-7.5
		c0.1-0.3,0.1-0.6,0.2-0.9c0.2-1.9,0.8-3.8,0.7-5.8c0-0.2,0-0.4,0-0.6c0.2-1.4,0.1-1.4-1.2-2.2c-0.4-0.3-0.8-0.6-1.1-1.1
		c-0.4-0.6-0.3-1.4,0.3-1.7c1.3-0.6,1.3-1.8,1.5-2.9c0.3-2,0.5-4.1,0.4-6.2c0-0.6-0.2-1.1-0.8-1.3c-0.3-0.1-0.5-0.3-0.8-0.6
		c-0.6-0.7-0.3-1.7,0.5-1.9c0.3-0.1,0.7-0.1,1.1-0.2c0.1-0.2,0.2-0.5,0.2-0.7c0-1.5,0-3,0-4.4c0-0.9-0.2-1.1-1.1-1
		c-0.5,0-1,0.2-1.5,0.3c-0.9,0.2-1.1,0.1-1.6-0.7c-0.2-0.2-0.4-0.4-0.5-0.5c0.3-1.4,1.2-1.7,2.5-1.5c0.5,0.1,0.9-0.1,1.4-0.2
		c1.1-0.1,1.2-0.2,1.1-1.2c0-0.2-0.1-0.3-0.1-0.6c-0.3-0.1-0.7-0.1-1-0.2c-1-0.2-1.1-0.4-1.2-1.5c0-0.8,0.1-0.8,1.1-1.1
		c0.1,0,0.2-0.1,0.2-0.1c0.5-0.6,0.8-1.2,1.3-1.7c0.3-0.4,0.7-0.4,1.1-0.3c0.4,0.1,0.6,0.4,0.7,0.9c0,0.4,0.1,0.9,0.1,1.3
		c0.9,0.1,1.9,0,1.9,1.2c0.1,1.5-1.3,1-2.1,1.5c0.1,0.6,0.2,1.2,0.3,1.8c1,0,1.9,0.1,2.9,0c1.1-0.1,1.4,0,1.4,1.1c0,0.5,0,0.9,0,1.6
		c-1.5,0-2.8,0-4.3,0c0,0.6,0,1.1,0,1.5c0,1.7-0.1,3.4-0.1,5.1c0,0.3,0.2,0.6,0.4,0.8c0.3,0.3,0.6,0.5,0.9,0.8
		c0.7,0.7,0.4,1.5-0.6,1.8c-0.3,0.1-0.5,0.1-1,0.1c0.1,1.2,0.2,2.3,0.3,3.5c0.1,1.1,0.2,2.2,0.4,3.3c0.1,0.5,0.1,1.1,0.3,1.5
		c0.8,1.4,0.8,2.8-0.8,4.1c0.1,1.2,0.2,2.5,0.4,3.7c0.1,0.6,0.5,1.2,0.7,1.9c1,3,1.9,6,2.9,8.9c0.6,1.8,1.5,3.4,3.2,4.5
		c1.4,1,2.7,2.1,4.1,3.1c2,1.6,4,3.3,5.1,5.8c0.5,1.1,1,2.3,0.9,3.6c-0.1,0.9,0,1.9-0.1,2.7c-0.4,2.2-1.8,3.8-3.5,5.1
		c-0.7,0.5-1.4,1-2.2,1.6c2.3,2.6,4.6,5,7,7.7c-0.8,0.1-1.2,0.1-1.7,0.2c-1,0.1-2.1,0.1-3.1,0.3c-0.5,0.1-0.9,0.3-1.4,0.6
		c-0.5,0.4-1.2,0.5-2,0.7c0.1-0.1,0-0.1,0,0c0.3,0.4,0.2,0.7-0.2,0.8c-0.7,0.2-1.4,0.3-2.1,0.5c-0.4,0.1-0.8,0.2-1.3,0.3
		c1.8,1.4,2.1,3.2,1.6,5.2c0,0.1,0,0.2,0,0.4c-0.1,2.3-0.1,4.5-0.3,6.8c-0.1,1.7-0.3,3.5-0.5,5.3c-1.7,0-3.3,0-4.9,0
		c-0.5,0-0.8-0.4-0.8-0.9c0-0.4,0-0.7,0-1.1c0-3.6,0-7.1,0-10.7c0-1.6,0.2-3.2,1.4-4.7c-1.8,0.1-3.4,0.2-5.2,0.4
		c1.4,1.8,1,3.8,0.7,5.7c-0.2,1.2-0.2,2.4-0.3,3.6c-0.1,1.4-0.3,2.8-0.4,4.3c-0.1,0.8,0,1.6-0.1,2.4c0,0.6-0.2,1-0.8,1
		c-2.1,0.1-4.3,0.1-6.6,0c0-4.9,0-9.7,0-14.6c-1.8,0.3-2.2,0.7-2.2,2.2c0,0.2,0,0.3,0,0.5c-0.1,2.8-0.1,5.7-0.3,8.5
		c0,0.9-0.1,1.8-0.3,2.7c0,0.2-0.2,0.6-0.4,0.7c-0.7,0.1-1.3,0.2-2,0.1c-0.1,0-0.4-0.3-0.4-0.5c-0.1-0.3-0.1-0.7-0.1-1.1
		c0-3.2,0-6.4,0-9.6c0-0.7,0-1.4-0.4-1.9c-0.2-0.2-0.2-0.5-0.2-0.8c-0.1-1.2-0.2-2.5-0.3-3.7c0-0.7-0.2-1.2-0.9-1.6
		c-0.3-0.2-0.6-0.5-0.9-0.8c-0.6-0.6-1.1-1.3-2.1-1.1c-0.1,0-0.2-0.2-0.5-0.3c1.9-2.6,4.1-4.9,6.1-7.4c-1.2-1.7-2.9-1.7-4.6-1.5
		c-0.4,0-0.8,0.2-1.2,0.2c-4.2,0.1-8.3,0.2-12.5,0.3c-0.5,0-0.9,0-1.5,0.1c0.1,1.2,0.2,2.2,0.3,3.3c0,0.5,0.1,1,0.1,1.6
		c0,13.4,0,26.9,0,40.3c0,0.5,0,1,0,1.7c1-0.4,1.7-0.6,2.4-0.9c3.2-1.6,6.3-3.2,9.5-4.7c2-1,3.3-2.7,4.4-4.5c0.6-1-0.1-2.9-1.2-3.6
		c-0.3-0.2-0.8-0.3-1-0.6c-0.2-0.3-0.4-0.7-0.3-1.1c0-0.2,0.5-0.4,0.9-0.4c0.3-0.1,0.6,0,0.8,0c9.2,0,18.5,0,27.7,0
		c1.6,0,3.2,0.2,4.8,0.4c0.1,0,0.2,0.1,0.3,0.1c0.6,0.4,1.2,0.8,1.9,1.2c-0.3,0.6-0.7,1.1-1.4,1.4c-0.3,0.1-0.6,0.4-0.9,0.7
		c-0.6,0.5-0.5,1-0.2,1.7c1,2.3,2.7,3.8,4.8,4.9c0.9,0.5,1.9,1,2.9,1.5c0.1-0.2,0.2-0.3,0.1-0.4c-0.5-2.9,0.5-5.2,2.4-7.3
		c1.7-1.8,3.8-3.1,5.9-4.3c3.1-1.8,6.2-3.5,9.2-5.3c2.6-1.5,5.1-3,7.6-4.5c1.4-0.8,1.9-2.2,2.3-3.7c0.1-0.3-0.1-0.9-0.4-1
		c-0.6-0.3-0.6-0.7-0.6-1.2c0-0.6-0.1-1.2-0.6-1.5c0.3-1.8,0-1.9,2.2-1.9c1.1,0,2.2,0,3.4,0c0.7,0,1.3,0.2,2,0.2c0.6,0,1.3,0,1.9,0
		c0.5,0,0.9-0.2,1.4-0.2c7.3,0,14.6,0,22,0c1,0,2,0.1,3,0.3c0.6,0.2,1.2,0.1,1.7-0.4c1,0.5,1.9,1.1,2.9,1.6c1.5,0.7,3,1.4,4.6,2
		c3.3,1.2,6.5,2.5,9.9,3.5c3.8,1.1,7.5,2.2,11.4,2.8c0.8,0.1,1.6,0.3,2.4,0.5c2.7,0.5,5.4,1.1,8.2,1.6c2.1,0.3,4.2,0.5,6.3,0.8
		c1.9,0.3,3.8,0.6,5.8,0.9c1,0.1,2,0.2,3,0.3c0.7,0.1,1.5,0.2,2.2,0.2c1.7,0.2,3.4,0.3,5.1,0.5c0.4,0,0.9,0.2,1.3,0.2
		c2,0.3,4.1,0.5,6.1,0.7c1.5,0.2,3,0.5,4.5,0.7c1.4,0.2,2.8,0.3,4.2,0.5c1,0.1,2,0.3,2.9,0.6c0.7,0.2,1.1,0.7,1.1,1.4
		c-0.1,0.7-0.5,1.2-1.2,1.3c-1.4,0.3-2.7,0.6-4.1,0.8c-2.1,0.3-4.2,0.5-6.3,0.8c-0.7,0.1-1.4,0.1-2.1,0.2c-2.2,0.3-4.4,0.6-6.6,0.9
		c-1.7,0.2-3.4,0.5-5.1,0.7c-2,0.3-4,0.6-6,1c-2.7,0.6-5.5,1.2-8.1,1.9c-5.1,1.4-10,3.4-15,5.3c-0.1,0.1-0.3,0.1-0.7,0.4
		c0.7,0,1.1,0.1,1.5,0.1c7,0,14,0,21,0c1.6,0,3.2,0.2,4.8,0.2c0.7,0,1.4-0.2,2.1-0.2c5.2,0,10.5,0,15.7,0c1.4,0.5,2.8-0.1,4.1,0
		c5.3,0.4,10.7,0.2,16,0.2c0.4,0,0.9,0,1.3,0c0-0.1,0.1-0.2,0.1-0.2c-0.6-0.4-1.2-0.9-1.8-1.3c-1.8-1.4-3.7-2.7-5.4-4.2
		c-1.2-1-1.7-2.4-1.9-3.9c-0.2-1.3,0.3-2.4,1.1-3.5c0.9-1.3,1.8-2.5,2.6-3.8c1.2-2,1.7-4.2,1.7-6.5c0-1.1-0.2-2.3-0.5-3.4
		c-0.8-2.8-2.4-5.1-5-6.4c-3.3-1.6-6.7-3.2-10.1-4.6c-3.8-1.6-7.7-3.2-11.2-5.4c-1.8-1.1-3.4-2.5-5.1-3.7c-0.1-0.1-0.2-0.2-0.4-0.5
		c0.9,0.1,1.4,0.7,2,1c2.4,1.7,4.8,3.2,7.5,4.4c1,0.4,2.1,0.6,3.2,0.9c3.5,1.1,7,2.1,10.5,3.4c2.2,0.8,4.4,1.7,6.2,3.2
		c2.2,1.8,4.1,4,4.9,6.8c0.7,2.6,0.8,5.2,0.3,7.8c-0.7,3.1-2.1,5.7-4.1,8.1c-1.4,1.7-0.9,2.9,0.3,4.4c0.5,0.7,1.3,1.2,2,1.7
		c3.6,2.5,7.1,4.9,10.7,7.4c0.2,0.1,0.4,0.2,0.5,0.2C283.8,223,283.8,223.2,283.8,223.4z M198.6,245.2c0,0.1,0,0.3,0,0.4
		c-0.4,0.1-0.7,0.3-1.1,0.3c-0.6,0.1-1.3,0.1-1.9,0.1c-5.2,0.1-10.3,0.3-15.5,0.4c-3,0.1-6,0.1-9,0.1c-0.4,0-0.9,0.1-1.3,0.1
		c-0.8,0.1-1.6,0.2-2.4,0.2c-9.7,0-19.4,0-29,0c-1.5,0-1.9,0.3-2.4,1.9c0.6,0,1.1,0,1.6,0c18.1,0,36.2,0,54.4,0c0.5,0,1,0,1.4,0
		c1.5,0.1,3,0.1,4.5,0.2c0.6,0,1.1,0,1.7,0.1c0.5,0,1,0.2,1.5,0.2c1.4,0,2.9,0,4.3,0c0.8,0,1.5-0.2,2.2-0.7c1.4-0.9,2.8-1.8,4.2-2.7
		c0.5-0.3,1.1-0.7,1.8-0.4c-0.8-0.8-1.6-1.6-2.5-2.3c-2-1.6-4.2-3.1-6.1-4.8c-2.5-2.3-3.1-4.8-1.1-7.8c0.9-1.4,1.8-2.8,2.6-4.1
		c0.4-0.6,0.8-0.9,1.5-0.6c0.4,0.1,1,0.1,1.4,0.1c15.5,0,31,0,46.4,0c2.6,0,5.3-0.1,7.9,0.2c2.7,0.3,5.4,0.2,8.1,0.3
		c1.2,0.1,2.3-0.3,3.2-1c0.7-0.6,1.4-1.2,2.2-1.9c-1,0-1.7,0.1-2.3,0c-1.8-0.3-3.7-0.3-5.5,0c-0.5,0.1-1,0-1.4,0
		c-1.4-0.1-2.8-0.2-4.1-0.2c-17.9,0-35.8,0-53.6,0c-0.4,0-0.9,0-1.3,0c-0.3,0-0.6-0.1-0.9-0.2c0.1-0.3,0.1-0.4,0.1-0.6
		c0.7-1.9,0.7-3.9,0.7-5.9c-0.1-1.6-0.5-3.1-1.4-4.5c-1.2-1.7-2.7-3-4.5-3.9c-3.6-1.7-7.1-3.4-10.7-5.2c-2.2-1.1-4.3-2.4-6.3-3.7
		c-1.8-1.1-3-2.7-3.8-4.6c-0.1-0.2-0.3-0.5-0.4-0.6c-0.7,0-1.3,0.1-1.9,0.1c-2,0-4.1,0-6.1,0c-0.4,0-0.9,0-1.3,0.2
		c-2.4,0.9-4.9,1.8-7.3,2.6c-3.1,1.1-6.3,2.1-9.4,3.1c-2.2,0.6-4.4,1.1-6.6,1.7c-3.2,0.8-6.4,1.7-9.6,2.6c-1.6,0.4-3.1,0.9-4.6,1.7
		c-2.2,1.2-4.4,2.3-6.6,3.4c-1.1,0.6-1.2,1.1-0.9,2.3c0.3,1.1,1.1,1.8,2,2.3c2.6,1.7,5.4,3.1,8.3,4.2c2.6,0.9,5.2,1.9,7.9,2.7
		c1.7,0.5,3.4,1,5.1,1.4c3.1,0.7,6.1,1.4,9.2,1.8c2,0.3,4.1,0.6,6.2,0.6c0.4,0,0.8,0,1.2,0c1.5,0.1,3,0.3,4.5,0.4
		c1.9,0.1,3.8,0.2,5.7,0.3c0.1,0,0.2,0,0.2,0c1.8,0.2,3.5,0.5,5.3,0.7c0.6,0.1,1.3,0.2,1.9,0.2c2,0.3,4.1,0.5,6.1,0.9
		c1.9,0.3,3.8,0.7,5.7,1.1c0.5,0.1,1.2,0.2,1.7,0.8c-0.6,0-1.1,0.1-1.6,0.1c-1.6,0-3.1,0-4.7,0.1c-1.6,0.1-3.2,0.3-4.8,0.4
		c-2.3,0.2-4.6,0.4-6.9,0.6c-1.4,0.1-2.8,0.3-4.3,0.6c-1.8,0.3-3.6,0.5-5.4,0.9c-2.3,0.5-4.7,1-7,1.6c-4.8,1.1-9.5,2.4-14,4.6
		c-2.8,1.4-5.7,2.4-8.6,3.5c-2.6,1-1.9,0.3-3,2.8c0,0.1,0,0.2,0,0.4c0.4,0,0.9,0,1.3,0c9,0.1,18.1-0.2,27.1,0.2
		c5.4,0.3,10.8-0.1,16.2,0.2c4.8,0.2,9.6,0.1,14.4,0.1C197.7,245.2,198.2,245.2,198.6,245.2z M139.1,257.5c0-0.1,0.1-0.2,0.1-0.3
		c-0.1-0.1-0.1-0.2-0.2-0.3c-1-0.7-2-1.4-3-2.2c-0.6-0.5-1.2-1.2-1.6-1.9c-1.1-1.9-1.4-3.9-0.3-5.9c0.4-0.8,1-1.6,1.4-2.4
		c1.4-2.5,1.9-5.2,1.8-8.1c-0.1-4.1-1.9-7.2-5.5-9.1c-0.8-0.4-1.6-0.8-2.5-1.2c-1.8-0.9-3.5-1.9-5.3-2.9c-2.4-1.3-4.7-2.5-7.1-3.8
		c-2.5-1.4-4.7-3-5.8-5.8c-0.3-0.6-0.7-0.7-1.4-0.5c-1.7,0.4-3.5,0.7-5.3,1c-2.9,0.6-5.9,1-8.8,1.7c-4.1,0.9-8.1,1.8-12.1,2.7
		c-1,0.2-1.9,0.5-2.9,0.9c-2.3,0.8-4.6,1.7-6.9,2.6c-1.6,0.6-3.4,0.9-4.9,1.7c-1.9,1-3.9,1.7-5.8,2.5c-1.3,0.6-2.6,1.2-3.3,2.6
		c-1.1,2.1-1,3.3,0.3,5.1c1,1.2,2.3,2.1,3.6,2.9c3.7,1.9,7.6,3,11.6,3.8c2.2,0.4,4.4,0.8,6.7,1.2c1.1,0.2,2.3,0.3,3.4,0.5
		c1.6,0.2,3.1,0.4,4.7,0.6c1.6,0.2,3.1,0.4,4.7,0.6c1.8,0.2,3.5,0.4,5.3,0.7c1.3,0.2,2.6,0.3,3.9,0.5c1.5,0.2,3.1,0.4,4.6,0.6
		c1.4,0.2,2.7,0.4,4.1,0.6c1.6,0.2,3.2,0.4,4.8,0.6c1.7,0.2,3.3,0.4,5,0.6c1.1,0.1,2.3,0.2,3.4,0.3c0.4,0,0.8,0.2,1.2,0.4
		c-0.5,0.6-1.1,0.5-1.6,0.5c-2,0.1-3.9,0.2-5.9,0.3c-0.2,0-0.3,0-0.5,0.1c-2,0.2-4,0.4-5.9,0.6c-2.3,0.2-4.5,0.5-6.8,0.7
		c-1.3,0.1-2.5,0.3-3.8,0.5c-2.3,0.3-4.7,0.6-7,0.9c-1.8,0.2-3.6,0.5-5.4,0.8c-1.6,0.2-3.2,0.4-4.9,0.6c-1.2,0.2-2.4,0.4-3.7,0.6
		c-1.7,0.3-3.5,0.5-5.2,0.9c-2.9,0.7-5.8,1.6-8.6,2.4c-0.4,0.1-0.8,0.3-1.3,0.4c0,0.1,0,0.1,0.1,0.2c0.5,0,1,0,1.4,0
		c22.2,0,44.3,0,66.5,0c0.5,0,1,0,1.6,0.1C137.2,257.4,138.1,257.5,139.1,257.5z M41.6,243.7c0-0.7,0.1-1.2,0.1-1.8
		c0-11,0-22.1,0-33.1c0-7.9,0.1-15.8,0.2-23.7c0-1,0.1-2.1,0.4-3.1c0.6-2.7,2.1-4.6,4.8-5.5c1.4-0.5,2.9-0.6,4.4-0.4
		c3.4,0.4,6.3,3.8,6.3,7.2c0,2.3-0.1,4.6,0.2,6.9c0,0.3,0,0.6-0.1,0.8c-0.1,0.5-0.2,0.9-0.2,1.4c0,0.9,0.1,1.9,0.1,2.8
		c0,1,0.1,2,0.1,2.9c0,0.9-0.2,1.8-0.2,2.7c0,8,0,16.1,0,24.1c0,0.7-0.1,1.4-0.2,2.1c1.3-0.7,2.6-1.5,3.8-2.1c0.8-0.4,0.9-1,0.9-1.7
		c0.1-11.7-0.2-23.5,0.2-35.2c0.1-2.5,0-5,0-7.4c0-1,0-1.9,0-2.9c0-0.7-0.2-1.4-0.9-1.9c-3.2-2.1-6.3-4.3-9.5-6.5
		c-1.6-1.1-3.1-2.2-4.7-3.3c-0.8-0.6-0.9-0.6-1.8-0.1c-1.2,0.8-2.3,1.5-3.5,2.3c-2.7,1.8-5.3,3.6-8,5.4c-0.8,0.5-1.3,1.1-1.2,2.1
		c0.2,5.3-0.1,10.6,0.2,15.9c0.3,5.3,0.1,10.5,0.2,15.8c0.2,11.2,0.1,22.3,0.1,33.5c0,0.4,0,0.7,0,1.1c0,0.8,0.1,0.9,0.9,1
		C36.8,243.3,39.1,243.5,41.6,243.7z M47.7,306.8c0.1,0,0.2,0,0.3,0c0.3-0.4,0.5-0.7,0.7-1.1c0.4-0.7,0.7-1.5,1-2.3
		c0.2-0.5,0.6-1,1.2-0.9c0.6,0,0.8-0.4,0.8-0.9c0-0.4,0-0.7,0-1.1c0-5.8,0-11.7,0-17.5c0-6.6,0-13.3,0-19.9c0-0.4,0.1-0.7,0-1.1
		c-0.1-0.4-0.3-0.8-0.6-1c-1.3-0.8-2.6-1.5-4.2-1.5c-0.3,0-0.6-0.1-1.1-0.2c0.8-0.8,1.6-1.3,2.4-1.8c1.8-1.1,3.7-2.1,5.5-3.3
		c0.6-0.4,1.4-0.8,1.8-1.9c-0.7,0-1.2,0-1.7,0c-3.9,0-7.8,0-11.8,0c-3.9,0-7.9,0.2-11.8,0.2c-3.2,0-6.3-0.1-9.5-0.1
		c-0.2,0-0.3,0-0.5,0c-1.7-0.2-3.3,0-5,0.2c-0.5,0.1-0.8,0.3-0.7,0.9c0.1,1.5,0.1,3,0.2,4.5c0.1,1.3,0.3,2.7,0.4,4
		c0.1,4.3-0.1,8.6,0.2,12.9c0.2,3.9,0.1,7.8,0.1,11.8c0,0.5,0,1,0,1.7c0.8,0,1.7,0,2.5,0c1.8,0,1.9,0,1.8-1.8
		c-0.1-6.2-0.2-12.4-0.2-18.6c0-1.7-0.1-3.4,0-5c0.1-1.3,0.3-2.6,0.4-3.9c0.1-1.2,0.7-2.1,1.3-3c1.2-1.7,3.7-2.2,5.4-1
		c0.9,0.6,1.5,1.4,1.9,2.4c0.5,1.4,0.8,2.8,0.8,4.3c0,8.3,0,16.6,0,24.8c0,0.5,0,1,0.1,1.5c1.5,0,2.9,0,4.4,0c0-0.6,0.1-1.1,0.1-1.6
		c0-6.4,0-12.9,0-19.3c0-2.3,0.1-4.5,0.3-6.8c0-0.7,0.2-1.4,0.3-2c0.3-1.2,0.7-2.4,1.8-3.1c0.6-0.4,1.3-1,1.9-0.8
		c1,0.2,2,0.6,2.6,1.7c0.8,1.7,1.2,3.5,1.3,5.4c0,8.3,0,16.6,0,25c0,2-0.1,1.9,1.9,1.9c0.6,0,1.2,0,1.8,0.1c0.1,0.8-0.2,1.1-0.9,1.1
		c-0.5,0-1,0-1.6,0c-0.5,0-0.8,0.3-0.8,0.8c0,0.2,0,0.4,0,0.6c0.2,3.2-0.2,6.3-1.2,9.3c-0.1,0.2-0.1,0.5-0.2,0.7
		c0,0.2-0.1,0.4-0.1,0.5c0.2,0.3,0.4,0.6,0.6,0.7c0.2,0.1,0.6-0.2,0.8-0.4c0.2-0.3,0.2-0.7,0.3-1c0.5-1.8,0.9-3.6,1.4-5.5
		c0.1-0.4,0.2-0.7,0.4-1.1c0.8,0.3,0.9,0.9,1,1.5c0.4,2,0.7,4,1.1,6C47.1,303.5,47.4,305.1,47.7,306.8z M80.7,161.9
		c-0.7-1.1-1.7-1.3-2.9-1.1c-1.1,0.2-2.3,0.2-3.4,0.4c-1.3,0.2-2.6,0.3-3.9,0.5c-0.2,0-0.4,0.2-0.5,0.3c-0.4,0.3-0.9,0.7-1.3,1.1
		c-1.2,1-2.7,1.6-4.3,1.7c-3.4,0.3-6.6-0.7-9.7-2.2c-2.1-1.1-4.2-2.3-6.1-3.7c-0.4-0.3-1-0.4-1.4-0.5c-1.7-0.1-3.4,0-5.2,0
		c-0.2,0-0.4,0.1-0.7,0.2c0.6,0.4,1.1,0.8,1.5,1.1c2.1,1.6,4.2,3.3,6.3,4.9c1.9,1.5,3.8,2.9,5.7,4.4c2.6,2,5.2,4.1,7.8,6.1
		c0.2,0.2,0.6,0.3,0.9,0.3c2.4,0.1,4.8,0.2,7.2,0.2c2.8,0,5.7,0,8.5,0c0.3,0,0.6-0.1,0.9-0.1C76.3,171.4,76.2,167,80.7,161.9z
		 M96.7,138.7c-0.1,0-0.1,0-0.2,0c-0.1,0.4-0.1,0.8-0.2,1.3c-0.2,2.3-0.4,4.6-0.6,6.9c-0.2,1.7-0.3,3.3-0.6,4.9
		c-0.4,1.9-1.4,3.5-2.7,4.8c-1.2,1.3-2.6,2.3-3.8,3.6c-1.6,1.7-1.9,3.6,0,5.5c0.7,0.7,1.5,1.2,2.3,1.7c2,1.1,4.3,1.6,6.6,2
		c2.7,0.5,5.4,0.6,8.2,0.2c1.5-0.2,2.9-0.6,4.1-1.5c1.2-0.9,1.4-2.3,0.6-3.6c-0.9-1.4-2.2-2.3-3.4-3.3c-1.5-1.2-3.1-2.3-4.6-3.6
		c-2.6-2.2-3.6-5.4-4.3-8.6c-0.4-1.9-0.6-3.9-0.8-5.9c-0.1-0.8-0.1-1.6-0.2-2.4C96.9,140,96.8,139.3,96.7,138.7z M53.5,240.6
		c-0.1-0.9-0.2-1.5-0.2-2.2c-0.2-2.9,0.5-5.7,2-8.3c0.2-0.3,0.4-0.6,0.4-1c0.1-1.2,0.1-2.3,0.1-3.5c0-1.5-0.2-3-0.2-4.5
		c0-7.2,0-14.3,0-21.5c0-0.5,0-1-0.1-1.5c-0.1-0.6-0.6-0.7-1.1-0.7c-0.5,0-0.7,0.3-0.8,0.8c0,0.5,0,1,0,1.4c0,0.3,0,0.8-0.2,1
		c-0.7,0.9-1.1,1.8-1,3c0,0.1-0.1,0.2-0.1,0.3c-1.2,4.2-3.1,8-5.6,11.6c-0.3,0.5-0.7,1-1,1.5c-0.8,1.8-0.4,2.7,1.6,2.7
		c0.8,0,1.7,0,2.5,0c0.7,0,0.9,0.2,0.9,1c0,0.7,0,1.4,0,2.1c0,5.1,0,10.2,0,15.3c0,0.3,0,0.6,0,1c0,0.2,0.2,0.5,0.4,0.5
		C51.7,240,52.5,240.3,53.5,240.6z M58.7,92.3c-0.1,0-0.2,0-0.3,0c-0.3,1.3-0.6,2.7-0.7,4.1c0,1-0.2,2-0.4,3.1
		c-0.3,1.7-1.4,2.9-2.4,4.2c-1,1.4-1.9,2.9-2.9,4.4c-0.4,0.6-0.3,1.2-0.1,1.8c0.5,1.4,1.3,2.6,2.4,3.5c2.6,2,5.5,3.2,8.9,3.1
		c1.8-0.1,3.5-0.5,5-1.4c0.8-0.5,0.9-0.7,0.5-1.5c-0.8-1.5-1.8-2.9-2.7-4.4c-1-1.6-2.1-3-2.9-4.6c-1.6-3.2-2.7-6.6-3.8-10
		C59.2,93.7,59,93,58.7,92.3z M31.1,292c0.1,0,0.2,0,0.2,0c0.1,0.2,0.3,0.4,0.3,0.7c0.4,1.7,0.7,3.4,1.1,5c0.2,1.2,0.4,2.4,0.7,3.5
		c0.3,1.2,0.4,1.3,1.6,1.3c0.7,0,1.4,0,2.2,0c1.8,0,1.9,0.3,1.9-1.9c0-11.8,0-23.6,0-35.4c0-1.8,0.1-3.5,0.2-5.3c0-0.3,0-0.6,0-1
		c-0.1-0.7-0.3-1.5-1.2-1.8c-0.6,0.3-0.8,0.8-0.9,1.4c-0.2,1.4-0.5,2.9-0.6,4.4c-0.1,8.2,0,16.4,0,24.6c0,0.5,0,1-0.1,1.5
		c-1.6,0.4-3.1,0.2-4.5,0.2c-0.7,0-1.4,0-2,0.4c-0.2,0.8-0.6,1.5-0.7,2.3c-0.5,3-0.9,6-1.3,9c0,0.3-0.1,0.6-0.1,1
		c0,0.4,0.2,0.8,0.6,0.8c0.3,0,0.6-0.3,0.8-0.5c0.1-0.2,0.2-0.4,0.2-0.7c0.4-2.8,0.8-5.7,1.2-8.5C30.9,292.7,31,292.4,31.1,292z
		 M142.9,258.8c-0.7-0.1-1.2-0.1-1.6-0.1c-5.1,0-10.2,0-15.4,0c-0.4,0-0.7,0-1.1,0c-1.8,0.1-3.7,0.2-5.5,0.3c-0.6,0-1.3-0.1-1.9-0.1
		c-1.7,0.1-3.4,0.2-5.1,0.2c-2.5,0.1-5,0.1-7.4,0.1c-0.2,0-0.3,0-0.5,0c-2.9,0.2-5.8,0.5-8.7,0.6c-3.7,0.1-7.4-0.1-11.1,0
		c-4.1,0.1-8.2,0-12.3,0c-3.6,0-7.1,0-10.7,0c-2.2,0-4.4,0.1-6.8,0.2c1,0.7,1.8,1.2,2.9,1.2c3.6,0,7.1,0,10.7,0
		c0.8,0,1.7,0.2,2.5,0.2c0.5,0,1,0,1.4-0.1c0.4,0,0.7-0.1,1.1-0.1c1.2,0,2.4,0.2,3.6,0.2c16.8,0,33.7,0,50.5,0c1.5,0,3-0.1,4.5,0.4
		c0.1,0.1,0.3,0,0.5,0c2.2,0,4.4,0,6.6,0c0.3,0,0.7-0.1,0.9-0.3C140.8,260.9,141.7,259.9,142.9,258.8z M57.3,249
		c-0.4-0.8-0.7-1.3-1-1.9c-0.4-0.8-1-1.6-1.3-2.4c-0.3-0.7-0.8-1.1-1.5-1.4c-0.8-0.2-1.5-0.4-2.3-0.7c-0.8-0.3-1.4-0.2-2,0.3
		c-1.6,1.1-3.3,2.2-5,3.3c-0.3,0.2-0.7,0.4-1.1,0.4c-2-0.2-4-0.5-6-0.8c-0.2,0-0.5-0.1-0.7-0.1c-2.6-0.1-5.2-0.4-7.8-0.9
		c-1.6-0.3-3-0.3-4.6,0.3c-2.3,0.9-4.7,1.6-7,2.4c-0.8,0.3-1.7,0.6-2.5,0.9c1.6,0.2,3.1,0.4,4.6,0.5c8.6,0.2,17.2-0.2,25.7,0.2
		c3.7,0.2,7.5,0,11.3,0C56.4,249.1,56.7,249,57.3,249z M109.7,183.1c0-0.1,0.1-0.1,0.1-0.2c-1.6-1.7-3.1-3.4-4.8-5
		c-0.3-0.3-0.8-0.3-1.2-0.3c-1.4,0-2.8,0-4.2,0c-0.8,0-1.5,0.2-2.2,0.7c-1.8,1.2-3.5,2.4-5.3,3.6c-0.6,0.4-1.2,0.7-1.9,1.1
		c0,0.1,0.1,0.1,0.1,0.2C96.8,183.1,103.3,183.1,109.7,183.1z M55.1,183c-1.7-0.6-2.8,0-3.6,1.1c-0.5,0.8-0.9,1.7-0.9,2.7
		c0,2.8,0,5.5,0,8.3c0,0.3,0.1,0.5,0.1,0.8c0.2,0,0.4-0.1,0.6-0.1c0.9-0.3,1.8-0.6,2.7-0.9c1.6-0.5,1.4-0.3,1.5-2c0-2.4,0-4.8,0-7.2
		C55.4,184.9,55.2,184,55.1,183z M44.6,303.6c-0.3,2.3-0.5,4.5-0.8,6.9c0.6,0,0.9-0.1,1.4-0.1C45.5,308.1,44.9,305.8,44.6,303.6z
		 M32.2,310.4c0.2-1.1-0.2-5.5-0.6-6.6c-0.2,2.3-0.5,4.4-0.7,6.6C31.4,310.4,31.8,310.4,32.2,310.4z M17.7,302.1c-0.1,0-0.1,0-0.2,0
		c-0.1,1.9-0.2,3.9-0.3,5.8c0,0.5,0,1-0.1,1.4c-0.1,0.5-0.1,0.8,0.4,0.9c0.6,0.1,0.7-0.4,0.6-0.8c0-0.8,0-1.6-0.1-2.4
		c-0.1-1.3-0.2-2.6-0.4-3.9C17.7,302.8,17.7,302.5,17.7,302.1z"/>
	<path class="st0" d="M219.7,0C219.8,0,219.8,0.1,219.7,0c0.7,0.5,0.7,1.2,0.5,1.8c-0.2,0.7-0.9,0.3-1.4,0.4c0,0.6,0,1.2,0,1.9
		c0.6,0.3,1.2,0.4,2,0.2c0.7-0.2,1.4,0,2.2,0c0,0.9,0,1.7,0,2.7c-0.5,0-0.9,0.1-1.4,0.1c-0.2,0-0.4-0.1-0.6-0.1
		c-2-0.3-2.2-0.1-2.2,1.9c0,1.5,0,3,0,4.4c0,0.7,0.1,1.2,0.7,1.5c0.9,0.4,0.9,1.2,0.8,1.9c-0.1,0.7-0.3,0.8-1,0.6
		c-0.2,0-0.4-0.1-0.6-0.2c-0.1,0.2-0.2,0.3-0.2,0.4c0,2.5,0.1,5,0.1,7.4c0,0.3,0.2,0.6,0.4,0.8c1.7,1.9,1.5,3.5-0.7,4.9
		c-0.1,0-0.1,0.1-0.3,0.2c0.1,2.5,0,5.2,1.2,7.6c0.5,1,1.1,1.9,1.8,2.8c0.6,0.8,0.8,1.9,1.7,2.6c0.7,0.5,1.2,1.2,1.9,1.7
		c1.1,0.8,2.1,1.6,2.8,2.7c0.5,0.6,1.1,1.2,1.5,1.8c1,1.3,1.4,2.9,1.7,4.4c0,0.2,0,0.5,0,0.7c-0.5,3.1-1.6,5.9-4,8.1
		c-0.4,0.4-0.8,0.5-1.3,0.5c-1.5,0.1-3,0.1-4.4,0.3c-0.9,0.1-1.5,0.7-2.2,1.2c-0.5,0.3-0.9,0.8-1.5,1.4c3.7,0.2,7.2,0.4,10.7,0.6
		c0.2-1.3-1.5-1.5-1.4-2.7c0.2,0,0.3,0,0.4,0.1c0.4,0.4,0.8,0.8,1.5,0.6c0.4-0.1,0.8,0.4,1.2,0.6c0.5,0.3,1,0.7,1.4,1.1
		c1,0.8,2,1.7,3.1,2.6c-0.9,0.8-2,0.4-2.9,0.4c-1,0-2-0.1-3-0.2c0,0.3,0,0.5,0.1,0.7c-0.5,0.2-0.9,0.4-1.5,0.6c0,0.6,0,1.3,0.1,1.9
		c0.3,1.3,0.3,2.5,0,3.8c-0.1,0.3-0.1,0.7-0.1,1.1c0.1,2-0.1,4-0.4,6.1c-0.1,1,0,2,0,3c0,1.4-0.2,1.6-1.6,1.5
		c-0.2,0-0.4-0.1-0.6-0.1c-0.1-1.4-0.3-2.9-0.3-4.3c0-1.3-0.3-2.6-0.5-3.9c-0.3-1.6-0.5-3.2-0.6-4.7c0-0.4,0.5-0.8,0.7-1.2
		c0.3-0.5,0.5-0.9,0.9-1.6c-1.6,0.1-2.9,0-4.1,0.8c0.2,0.8,1,0.3,1.3,0.7c-0.4,2.3-0.9,4.7-1,7c-0.2,2.4,0,4.8,0,7.1
		c-1.3,0.6-2.6,0.3-3.8,0.2c-0.5,0-0.7-0.4-0.7-0.9c-0.1-1.3-0.2-2.5-0.3-3.8c-0.1-2-0.3-4.1-0.4-6.1c0-0.6,0-1.2,0-1.8
		c0-0.4-0.1-0.9-0.1-1.4c-0.6,0.2-1.2,0.3-1.7,0.5c-0.5,0.2-0.4,0.6-0.4,1c0.1,2.5,0.3,5,0.1,7.4c-0.2,2,0,4-0.2,6
		c0.9,0.1,1.7,0.3,2.5,0.4c1.6,0.1,3.2,0.2,4.8,0.2c3.1,0.1,6.2,0.2,9.3,0.3c0.3,0,0.7,0.1,1,0.1c0.1,0.2,0.1,0.2,0.1,0.2
		c-0.4,0.7-2.1,2.1-2.8,2.3c-1.4,0.3-2.9,0.5-4.3,0.8c-3.5,0.8-7.1,1.6-10.6,2.6c-2.7,0.7-5.4,1.6-8.1,2.5c-1,0.3-1.8,1.1-2.7,1.7
		c-0.6,0.4-1.2,0.8-1.8,1.2c-0.7,0.5-1.5,0.9-2.2,1.4c-1,0.7-1.2,1.5-0.9,2.7c0.7,2.8,2.6,4.5,5.3,5.4c2.5,0.8,5,1.7,7.5,2.3
		c2.4,0.6,4.8,0.9,7.3,1.3c2,0.3,4.1,0.6,6.1,0.9c1.1,0.2,2.3,0.2,3.4,0.3c1.9,0.1,3.9,0.3,5.8,0.2c3.3-0.1,6.7-0.3,9.9-1.2
		c0.9-0.3,1.8-0.8,2.7-1.2c0.5-0.2,0.6-0.5,0.5-1.1c-0.5-2.3-1.6-4.3-3.5-5.8c-2.6-2.1-5.3-3.9-8.1-5.7c-1.4-0.9-2.5-2.3-3.7-3.6
		c-0.2-0.2-0.1-0.5-0.2-0.7c0.1,0,0.2-0.1,0.2,0c1,0.8,2,1.6,3.1,2.3c1,0.6,2.2,1.1,3.3,1.7c1.1,0.6,2.3,1.1,3.4,1.7
		c2.3,1.3,4.5,2.8,6.1,5.1c1.2,1.7,2.1,3.7,2.1,5.7c0.1,2-0.6,4-2,5.6c-1.8,2.1-4.2,3.6-6.6,4.8c-0.4,0.2-0.7,0.3-1.3,0.5
		c1.3,1.6,3,2.6,4.4,3.9c1.4,1.3,2.9,2.5,4.5,3.9c-0.5,0.2-0.8,0.4-1.1,0.4c-1,0-1.9,0-2.9-0.1c-1.3-0.2-1.8,0-2.2,1.4
		c-0.4,1.2-1.1,2-2.4,2.3c-1.1,0.3-2.1,0.8-3.2,1.2c-0.6,0.2-1.2,0.4-1.8,0.5c-0.2,0-0.3,0.1-0.5,0.1c-1.4-0.4-2.7,0.3-4.4,0.4
		c2,0.7,2.8,2.1,3.2,3.8c0.1,0.6,0,1.2-0.1,1.8c-0.1,0.5-0.2,0.9-0.3,1.4c-0.2,1.4-0.3,2.8-0.4,4.3c0,0.1,0,0.2,0,0.4
		c-0.1,2-0.2,4-0.3,6c0,1-0.2,1.9-0.3,2.8c-0.1,1-0.1,2-0.2,3c-0.1,0.6-0.2,1.2-0.3,2c-0.6,0-1,0.1-1.5,0.1c-1.9,0-3.8,0.1-5.8,0.1
		c-1.1,0-1.8-0.6-1.8-1.7c0,0,0-0.1,0-0.1c-0.1-5.2-0.2-10.5-0.2-15.7c0-1.3,0-2.6,0.3-3.8c0.2-0.9,0.9-1.7,1.3-2.5
		c0.1-0.2,0.4-0.4,0.5-0.8c-1.9,0.4-3.7,0.8-5.7,1.1c0.1,0.4,0.1,0.6,0.3,0.8c0.7,1.3,0.3,2.6,0.1,3.8c-0.2,1.1-0.3,2.2-0.4,3.3
		c-0.2,1.5-0.3,3.1-0.4,4.6c-0.1,1.4-0.2,2.8-0.3,4.2c0,1.4-0.1,2.8-0.4,4.1c-0.1,0.4,0,0.8-0.1,1.2c0,1.2-0.2,1.3-1.3,1.3
		c-1.6,0-3.2,0-4.8,0c-0.5,0-1,0-1.6,0c-0.5,0.1-1,0-1.4-0.5c-0.3-0.3-0.8-0.5-1.3-0.8c0-0.2-0.1-0.5-0.1-0.8
		c-0.1-4.2-0.2-8.3-0.2-12.5c0-1.9,0-3.7,0-5.7c-1,0.1-1.9,0.5-2.8,0.8c-0.2,0.1-0.3,0.4-0.3,0.7c-0.1,1.3-0.2,2.7-0.3,4
		c-0.1,1.7-0.2,3.5-0.2,5.2c-0.1,1.6-0.1,3.2-0.2,4.8c-0.1,1.5-0.3,2.9-0.5,4.4c-1.2,0.3-2.3,0.2-3.4,0.1c-0.2,0-0.5-0.4-0.6-0.6
		c-0.1-0.3-0.1-0.7-0.1-1.1c0-2.6-0.1-5.2,0-7.8c0.1-2.7-0.3-5.3-0.8-8c-0.2-0.9-0.1-1.9-0.2-2.8c-0.1-1-0.1-2-0.3-3
		c-0.1-0.7-0.3-1.5-0.6-2.2c-0.2-0.7-0.4-1.5-1.2-1.8c-0.3-0.1-0.5-0.6-0.8-0.9c-0.4-0.5-0.9-0.9-1.3-1.3c-0.2-0.3-0.5-0.5-0.6-0.9
		c-0.4-0.9-0.4-1-1.4-1c-0.5,0-0.9-0.1-1.6-0.1c0.8-1.3,2-1.8,2.8-2.7c0.9-0.9,1.9-1.6,2.8-2.4c1-0.8,1.9-1.7,2.9-2.6
		c-0.4-0.2-0.7-0.4-1-0.5c-1.9-0.7-3.7-1.8-5.3-3c-2.2-1.7-3.7-3.9-3.9-6.7c-0.1-1.4,0.3-2.8,0.9-4.1c1.6-3.2,4.3-5.2,7.2-6.9
		c1.6-0.9,3.1-1.9,4.7-2.8c0.9-0.5,1.9-0.8,2.9-1.2c1.1-0.4,2-1.1,2.8-1.9c0.7-0.7,0.8-1.5,0.4-2.4c-0.6-1.3-1.1-2.5-1.6-3.8
		c-0.2-0.5-0.5-0.9,0-1.6c1.9,0.1,3.9,0.2,6,0.3c-0.4-0.9-1.2-0.6-1.9-0.9c-0.1-0.5-0.3-1-0.3-1.5c-0.1-0.7,0-1.4,0-2
		c-0.1-2.4-0.2-4.9-0.3-7.3c0-0.3,0-0.6-0.2-0.8c-0.8-1.2-0.8-2.5-0.9-3.9c0-0.6-0.1-1.1-0.1-1.7c-0.1-0.6,0.2-0.8,0.7-0.8
		c1.6,0,3.3-0.1,4.9,0c1.5,0.2,2.9-0.1,4.4-0.1c1.5,0.1,3,0.1,4.4,0c1.4-0.1,2.8-0.3,4.3-0.6c-0.2,0-0.5-0.1-0.7-0.1
		c-2.7,0-5.4-0.1-8.1-0.4c-2.1-0.3-4.1-0.2-6.2-0.3c-1.7,0-3.4,0-5.1,0c-0.6,0-1.1,0-1.6-0.6c1.3-1.7,2.6-3.4,4-5.2
		c-0.4-0.6-0.8-1.2-1.3-1.7c-1.2-1.4-1.8-3-2.1-4.9c-0.1-1.2-0.3-2.3,0.1-3.4c0.7-1.9,1.7-3.6,3.3-4.9c3.5-2.8,6.3-6.1,7.7-10.4
		c0.5-1.6,1-3.3,1.3-4.9c0.2-1,0.3-1.8-0.8-2.6c-1.4-0.9-1.3-3,0-4.3c0.2-0.2,0.5-0.4,0.8-0.6c0.1-1.4,0.1-2.9,0.2-4.4
		c0-0.2,0-0.3,0-0.5c-0.6-1.1-0.4-2.3-0.4-3.5c0-0.6-0.2-1.1-0.9-1.3c-0.3-0.1-0.5-0.2-0.7-0.4c-0.3-0.3-0.4-0.7-0.1-1.1
		c0.5-0.5,0.8-1.2,1.8-1c0-2,0-4,0-6.1c-0.6-0.3-1.4-0.1-2.2-0.1c-0.2,0-0.3,0.1-0.5,0.1c-0.6,0.1-1.3,0.5-1.8-0.2
		c-0.5-0.8-0.2-1.6-0.1-2.4c0-0.2,0.4-0.3,0.7-0.4c0.5,0,1,0,1.4,0.1c0.6,0,1.1,0.1,1.7,0.2c0.5,0,0.9-0.1,1-0.7
		c0.1-0.8-0.1-1.2-0.8-1.4c-1.2-0.4-1.2-0.4-1-1.5c0-0.2,0-0.4,0-0.6C216.5,0,218.1,0,219.7,0z M210.1,129c0,0.1,0.1,0.2,0.1,0.3
		c0.2,0,0.5,0.1,0.7,0.1c9.9,0,19.8,0,29.7,0c0,0,0.1-0.1,0.1-0.1c0,0,0-0.1,0-0.1c-1.1-0.9-2.2-1.9-3.3-2.8
		c-0.8-0.7-1.7-1.4-2.5-2.1c-0.4-0.4-0.8-0.4-1.3-0.3c-2.3,0.2-4.6,0.4-6.9,0.6c-0.9,0.1-1.8,0.1-2.7,0.2c-1.1,0.1-2.1,0.2-3.2,0.3
		c-1.8,0-3.5,0.3-5.1,1.2c-1.5,0.8-3,1.5-4.5,2.3C210.7,128.6,210.4,128.8,210.1,129z M218.6,40.1c-0.1,0-0.1,0.1-0.2,0.1
		c-0.1,0.5-0.1,1-0.2,1.5c-0.6,2.5-1.8,4.6-3.6,6.5c-0.4,0.5-0.8,1-1.2,1.5c-0.3,0.4-0.3,0.8-0.2,1.4c0.4,1.2,1.1,2,2.3,2.4
		c0.8,0.3,1.7,0.4,2.5,0.6c1.7,0.4,3.4,0.2,5.1-0.1c1.2-0.3,2-1,2.6-2c0.5-0.8,0.3-1.5-0.4-2.1c-0.3-0.3-0.7-0.6-1-0.8
		c-1.1-0.8-1.6-2-2.3-3c-1-1.6-1.9-3.2-2.9-4.8C219,40.7,218.8,40.4,218.6,40.1z"/>
	<path class="st0" d="M178.8,154.7c2.6,2.9,5.1,5.7,7.6,8.4c-0.1,0.2-0.1,0.3-0.2,0.3c-2.1,0.3-3.8,1.5-5.8,1.9
		c-1.5,0.3-2.8,1.2-4.2,1.5c-1.5,0.4-3,0.5-4.5,0.8c-0.7,0.1-1.4,0.2-2.2,0.4c0.2,0.3,0.3,0.4,0.4,0.6c0.5,0.7,0.7,1.5,0.7,2.3
		c0,1.3,0.2,2.5,0.2,3.8c0,1.3-0.1,2.6-0.2,3.9c0,0.5,0,1,0,1.4c0.4,2.3,0.1,4.5,0.1,6.8c-1,0.3-7.3,0.4-8.9,0.1
		c-0.1-0.7-0.3-1.4-0.4-2.2c-0.1-0.9-0.2-1.9-0.3-2.9c-0.1-2.6-0.2-5.2-0.3-7.8c0-0.9-0.1-1.7-0.2-2.6c0-0.5,0-1,0.1-1.6
		c-1.3,0.1-2.6,0.3-3.9,0.8c-0.1,2.7,0,5.5,0,8.2c0,2.7,0,5.4,0,8.3c-1.6,0.2-3.1,0.2-4.7,0.1c-0.1-0.7-0.3-1.4-0.3-2.1
		c-0.2-2.3-0.3-4.5-0.5-6.8c-0.1-1,0-1.9,0-2.9c-0.1-1.1-0.2-2.1-0.3-3.2c0-0.4-0.2-0.7-0.6-0.7c-0.5-0.1-0.6-0.4-0.8-0.8
		c-0.7-1.4-1.4-2.9-2.1-4.3c-0.4-0.7-0.9-1.4-1.4-2.1c-0.5-0.6-1.1-1.1-2-1.1c-0.1,0-0.2-0.1-0.4-0.2c0.9-1.6,2.3-2.8,3.4-4.2
		c1.1-1.4,2.3-2.8,3.5-4.2c-0.5-0.3-0.8-0.7-1.3-0.9c-1.6-0.8-2.7-2.1-3.8-3.4c-1.3-1.4-1.8-3.3-1.7-5c0.1-2.6,1-5.1,2.8-7.2
		c1.5-1.7,3.2-3.1,5-4.4c1.4-1,2.9-2,4.2-3.2c1.2-1.2,2.3-2.5,3.2-4c1-1.7,1.7-3.5,2.5-5.3c1-2.1,1.3-4.3,1.6-6.5
		c0.2-1.4,0.2-2.9,0.5-4.3c0.2-1.5-0.5-2.3-1.7-2.8c-0.7-0.3-0.9-0.8-1-1.5c-0.1-0.9,0.3-1.4,1-1.9c0.3-0.2,0.7-0.4,1-0.6
		c0.4-0.2,0.5-0.6,0.5-1c-0.1-2.3-0.1-4.6-0.1-6.8c0-0.6-0.3-0.9-0.8-1.2c-0.3-0.2-0.6-0.4-0.9-0.7c-0.1-0.1-0.1-0.4-0.1-0.6
		c0.2-0.4,0.4-0.8,0.8-1c0.3-0.2,0.7-0.2,1.2-0.3c0-1.9,0-3.8,0-5.9c-1-0.2-2.1-0.1-3.2-0.1c-0.5,0-1,0-1.3-0.4
		c-0.6-0.9-0.2-1.8,0.9-2c0.6-0.1,1.3-0.1,1.9-0.2c0.4,0,0.7,0,1.2-0.1c0.1-0.6,0.2-1.1,0.3-1.6c-1.5-1.1-1.5-1.1-0.9-2.8
		c0.3-0.1,0.7-0.1,1-0.2c0-0.4,0-0.7,0.1-1.1c0.1-0.5,0.4-0.8,0.9-0.8c0.6,0,0.9,0.3,1,0.8c0,0,0,0.1,0,0.1c-0.2,1,0.3,1.5,1.2,1.6
		c0.1,0,0.3,0.2,0.4,0.3c-0.1,1.3-0.1,1.3-1.3,1.8c0,2.2,0.3,2.4,2.4,2c0.2,0,0.5-0.1,0.7-0.1c1.5-0.1,2.1,0.7,1.6,2.2
		c-0.2,0.5-0.6,0.7-1,0.7c-0.8,0-1.7,0-2.5-0.1c-0.8-0.1-1,0-1,0.8c0,2,0,3.9-0.1,5.9c0,0.5,0.4,0.8,0.7,1c0.4,0.3,0.9,0.4,0.7,1.1
		c-0.1,0.6-0.3,1.1-1,1.2c-0.1,0-0.2,0.1-0.4,0.2c0.2,2.3,0.4,4.6,0.6,6.9c0,0.3,0.3,0.6,0.5,0.9c1,1.2,0.9,3.2-0.3,4.2
		c-0.4,0.3-0.6,0.6-0.5,1.1c0.1,0.6,0.2,1.3,0.3,1.9c0.4,1.6,0.8,3.2,1.3,4.8c0.7,2.5,1.3,5,2.1,7.4c0.5,1.5,1.1,2.9,1.8,4.2
		c0.9,1.7,2.5,2.8,4,3.9c2.1,1.7,4.4,3.2,6.3,5.2c2.5,2.6,3.7,5.7,3.4,9.2c-0.2,2.6-1.5,4.7-3.5,6.4
		C180.9,153.3,179.9,153.9,178.8,154.7z M165.7,109.3c-0.1,0-0.2,0-0.3,0c0,0.1-0.1,0.3-0.1,0.4c-0.1,0.9-0.1,1.8-0.3,2.7
		c-0.5,2.2-0.4,4.4-0.6,6.6c-0.2,1.9-0.1,3.8,0,5.8c0,1.3,0.3,2.6,0.9,3.8c0.3,0.6,0.6,1,1.3,1.1c0.4,0.1,0.9,0.3,1.4,0.4
		c-0.6,0.9-1.4,1.2-2.3,1.6c-2.4,1.1-4.8,2.2-7.1,3.4c-1.4,0.7-2.3,2-2.1,3.6c0.2,1.6,1.1,2.9,2.3,4c1.1,0.9,2.2,1.5,3.4,2.2
		c2.3,1.3,4.9,1.8,7.5,2.3c1.2,0.2,2.4,0.4,3.6,0.2c1.5-0.2,3.1-0.1,4.6-0.6c1.1-0.4,2.3-0.7,3.3-1.4c0.8-0.6,1.3-1.4,1.3-2.4
		c0-1.6-0.9-2.7-1.8-3.8c-2.1-2.4-4.8-4-7.2-6c-1.2-1-2.3-2-3.2-3.2c-1.5-2-2.3-4.5-2.8-6.9c-0.4-1.9-0.5-3.8-0.8-5.7
		c-0.4-2.3-0.7-4.6-0.7-6.9C165.8,110,165.7,109.6,165.7,109.3z M180.9,160.9c-0.2-0.3-0.4-0.5-0.5-0.6c-1.3-1.5-2.6-2.9-3.9-4.4
		c-0.8-1-1.7-1.5-3.1-1.4c-2.6,0.1-5.3,0-7.9,0c-0.4,0-0.8,0.2-1,0.4c-0.5,0.6-1,1.2-1.5,1.9c-1,1.2-2,2.5-3.6,3
		c-0.7,0.2-1.3,0.7-2.2,1.1C165.3,160.9,173,160.9,180.9,160.9z"/>
	<path class="st0" d="M195.3,172.3c-1.3-0.6-2.2-1.3-2.8-2.5c-0.3-0.7-0.6-1.5-0.9-2.2c-0.2-0.6,0-0.9,0.6-1
		c0.3-0.1,0.6-0.1,0.8-0.1c0.6,0,1.1-0.1,1.2-0.9c0-0.5,0.4-0.6,0.8-0.6c4.4,0,8.9-0.1,13.3-0.1c0.6,0,1.1,0.1,1.7,0.1
		c8.4,0,16.8,0,25.2,0c1.2,0,2.5,0.1,3.7,0.3c0.3,0,0.6,0.3,0.9,0.5c0.6,0.5,1.2,0.9,2,0.9c0.9,0,1.3,0.6,0.9,1.4
		c-0.4,0.7-0.8,1.4-1.2,2.2c-0.3,0.5-0.7,0.5-1.1,0.2c-0.2-0.1-0.4-0.3-0.5-0.5c-0.4-0.8-1.1-0.9-1.9-0.9c-7.2,0-14.4,0.2-21.6,0
		c-6.6-0.2-13.3-0.1-19.9-0.2c-0.4,0-0.8,0-1.2,0c-0.1,0-0.1,0.1-0.3,0.2c0.5,0.7,1.1,0.9,1.9,1c2.4,0.1,4.9,0.2,7.3,0.2
		c3,0,6,0,9,0c5.8,0.1,11.7,0.2,17.5,0.2c2.2,0,4.4-0.2,6.6-0.4c0.4,0,0.6,0.1,0.7,0.4c0.1,0.4,0.2,0.8,0.3,1.3
		c0.1,0.9-0.1,1.2-1.1,1.3c-2,0.3-4.1,0.7-6.1,1c-1.6,0.2-3.2,0.4-4.7,0.6c-1.5,0.2-2.9,0.4-4.4,0.6c-1.8,0.2-3.6,0.3-5.4,0.6
		c-1.8,0.3-3.6,0.2-5.5,0.6c-2.8,0.6-5.6,0.9-8.4,1.3c-1.9,0.3-3.7,0.8-5.6,1.1c-2.4,0.4-4.9,0.7-7.3,1.1c-2.3,0.3-4.7,0.6-6.8,1.7
		c-0.1,0.1-0.3,0.1-0.5,0.2c-0.5-0.5-0.9-0.9-0.7-1.5c2.5-1.2,4.9-2.3,7.1-3.6C191.1,175.7,193.6,174.7,195.3,172.3z"/>
	<path class="st0" d="M174.8,187.3c0-0.6-0.1-1.1-0.1-1.7c0-3.4,0-6.7,0-10.1c0-0.9-0.2-1.8-0.2-2.7c0.1-1.4,0.3-2.8,0.6-4.1
		c0.2-0.9,1-1.5,2-1.5c0.9,0,1.6,0.6,1.9,1.4c0.2,0.6,0.4,1.2,0.4,1.8c0.1,1.5,0.1,3,0,4.5c-0.1,1.3-0.3,2.6-0.4,3.9
		c0,0.3,0,0.6,0,0.8c-0.1,2-0.1,4-0.3,6c0,0.5-0.2,1-0.3,1.6C177.2,187.3,176.1,187.3,174.8,187.3z"/>
	<path class="st0" d="M237.9,163c-0.3,0.1-0.5,0.1-0.7,0.2c-1.3,0.1-1.5-0.1-1.6-1.5c-0.1-3.5-0.2-7-0.2-10.5
		c-0.1-2.8-0.2-5.6-0.2-8.4c0-0.8,0.1-1.7,0.1-2.5c0-0.4,0.9-1.4,1.2-1.4c0.8-0.1,1.4,0.1,1.7,0.8c0.3,0.8,0.7,1.6,0.7,2.5
		c0.1,1.7,0.1,3.4,0,5c-0.1,1.5-0.4,3-0.4,4.5c-0.1,2.5-0.2,5-0.3,7.5C238.2,160.4,238,161.7,237.9,163z"/>
	<path class="st0" d="M109.9,206.3c-1.4,0.3-1.6,0.2-1.7-1c-0.1-2.6-0.2-5.2-0.3-7.8c-0.1-2.1-0.2-4.2-0.2-6.3c0-0.7,0.2-1.3,0.4-2
		c0.1-0.3,0.4-0.5,0.6-0.7c0.8,0.4,0.8,1,0.9,1.7c0.5,4.1,0.1,8.3,0.2,12.4C109.9,203.9,109.9,205.1,109.9,206.3z"/>
	<path class="st0" d="M103.9,310.5c-9.3,3.1-0.1,5.9-4.3,7.3c-5.6,1.9-11.2,3.8-16.8,5.7c-8.9,3-17.7,6-26.6,9
		c-1.7,0.6-3.3,1.2-5,1.8c-1.1,0.4-2.1,0.6-3.3,0.5c-2.3-0.1-4.6-0.1-7,0c-3.5,0.1-7,0-10.4,0.3c-3.2,0.3-6.4,0-9.6,0.2
		c-4.4,0.4-8.7,0.1-13.1,0.2c-0.5,0-1.1,0.2-1.4-0.4c0.1-0.1,0.1-0.2,0.2-0.3c16.3-6.5,32.6-13.1,48.9-19.6c0.1,0,0.2,0,0.4,0.1
		c0.1,0.3,12.9-0.5,14.1-0.6c1.9-0.2,3.8-0.3,5.7-0.5c0.2,0,0.3,0,0.5,0c2.3-0.1,4.6-0.2,6.9-0.3c0.6,0,1.3-0.2,1.9-0.2
		c2.2-0.2,4.4-0.4,6.5-0.5c2.8-0.2,5.5-0.8,8.2-1.4C101.4,311.4,102.6,310.9,103.9,310.5"/>
	<path class="st0" d="M138.3,286.4c0.4-0.4,0.6-0.9,0.6-1.5c0-0.7,0-1.4,0-2.2c0-0.5,0.2-0.8,0.8-1c3.6-1.4,7.3-2.9,10.9-4.3
		c3.7-1.4,7.3-2.9,11-4.3c3.1-1.2,6.2-2.5,9.3-3.8c5.5-2.2,11.1-4.4,16.7-6.6c3.5-1.4,7-2.8,10.5-4.3c1.2-0.5,2.4-0.9,3.7-0.7
		c0.4,0,0.9,0,1.3,0c15.3,0.4,30.7,0.2,46,0.3c2.9,0,5.7,0,8.6,0.2c5.8,0.4,11.7,0.1,17.5,0.2c0.5,0,1,0,1.5,0
		c-0.1,0.6-0.6,0.7-1,0.9c-2,0.7-4,1.3-6,2c-2.6,0.9-5.3,1.8-7.9,2.6c-2.7,0.9-5.4,1.8-8,2.7c-2,0.7-4,1.3-6,2
		c-3.2,1.1-6.4,2.1-9.6,3.2c-3,1-6,2.1-9.1,3.1c-2.9,1-5.9,1.8-8.8,2.8c-1.8,0.6-3.6,1.3-5.4,1.9c-2.8,1-5.7,1.9-8.5,2.8
		c-2.1,0.7-4.2,1.4-6.2,2.1c-4.6,1.5-9.2,3-13.7,4.5c-2.7,0.9-6.1-0.7-8.9,0.2c-3.4,1.1-11.1,0.2-14.4,1.4c-2.9,1-8.9-1-11.8,0
		c-3.2,1.1-4.3-2.4-7.5-1.4c-3.2,1.1,1.5-1.1-1.8,0"/>
	<path class="st0" d="M77.3,277.4c0.4-1.8,0.8-3.4,1.8-4.8c1.2-1.7,2.8-2.7,4.8-3.5c3.6-1.3,9.1,1.4,10.2,5.3c0.7,2.5,1.2,5,0.6,7.6
		c-0.1,0.4-0.1,0.9-0.2,1.3c-0.1,1.2-0.3,2.4-0.4,3.7c-0.1,0.7-0.2,1.3-0.3,2c-0.2,1.4-0.3,2.8-0.5,4.1c-0.3,1.8-0.6,3.6-1,5.4
		c-0.3,1.7-0.7,3.3-1.2,5c-0.5,1.8-1.1,3.5-2.2,5c-0.8,1.1-1.8,1.9-3.2,2.1c-1.1,0.2-2.1,0.2-3.2-0.1c-0.6-0.2-1.3-0.2-1.9-0.3
		c-1.8-0.3-3.6-0.5-5.4-0.8c-0.4-0.1-0.6-0.3-0.6-0.8c0-0.4,0-0.9,0-1.3c0-6.9,0-13.7,0-20.6c0-0.7,0.1-1.4-0.7-1.9
		c-0.2-0.1-0.3-0.6-0.3-0.9c0-1.8,0-3.7,0-5.5c0-0.9,0.2-1.1,1.2-1.1C75.6,277.4,76.4,277.4,77.3,277.4z"/>
	<path class="st0" d="M100.8,285.6c0-2.1,0-4.1,0-6.2c0-1.2,0.4-1.5,1.6-1.3c1.2,0.2,1.3,0.1,1.6-1.2c0.6-3.3,2.5-5.6,5.7-6.8
		c1-0.4,2.2-0.6,3.2-0.6c1.6,0,3.1,0.5,4.5,1.3c2.9,1.7,4.2,4.3,4.5,7.6c0.1,0.7,0.2,1.4,0.2,2.1c-0.1,0.9-0.5,1.8-0.7,2.6
		c-0.3,1.3-0.6,2.7-0.9,4c-0.2,0.7-0.4,1.4-0.6,2C119,291.5,100.8,291.7,100.8,285.6z"/>
	<path class="st0" d="M250.8,243.8c0.8,2.3,0.6,8.7-0.4,12.1c-0.5,0-1.1,0.1-1.6,0.1c-4.1-0.2-8.3-0.4-12.4-0.6
		c-1.2-0.1-2.4-0.1-3.6-0.1c-1-0.1-2-0.1-3-0.3c-2.2-0.4-3.6-2-3.9-4.3c-0.2-1.6-0.3-3.2-0.2-4.9c0-0.5,0.2-0.9,0.8-1
		c0.5-0.1,0.6-0.4,0.6-0.9c0.1-1.5,0.6-2.9,1.3-4.2c0.1-0.2,0.3-0.5,0.3-0.8c0-1,0.6-1.5,1.4-1.9c1.1-0.7,2.4-0.8,3.6-1.1
		c1-0.3,2.1-0.4,3-0.7c2.3-0.7,4.1,0.3,5.8,1.7c1.8,1.5,2.8,3.5,3,5.9c0,0.5,0.3,0.8,0.8,0.8C247.7,243.6,249.2,243.7,250.8,243.8z"
		/>
	<path class="st0" d="M273.7,255.9c0-0.4-0.1-0.7-0.1-1.1c0-0.5-0.2-0.9-0.6-1.2c-0.3-0.2-0.6-0.7-0.6-1.1c0-2.9,0.1-5.7,0.1-8.6
		c0-1.9-0.5-3.7-1.6-5.3c-0.8-1.2-2.1-1.6-3.7-1.9c0.2,0.3,0.3,0.5,0.5,0.7c1.3,1.9,1.9,4.1,2,6.4c0.1,1.1,0.2,2.2,0.2,3.3
		c0,3.1-0.1,6.3-0.2,9.4c0,0.8-0.2,1-1,1.1c-2.2,0.1-4.4,0.1-6.5-0.7c-1.4-0.5-2.5-1.5-3.3-2.8c-0.2-0.3-0.3-0.7-0.3-1
		c0.5-1.5,0.2-3.1,0.3-4.6c0-0.6,0-1.2,0.1-1.8c0-0.5,0.3-0.8,0.9-0.6c0.8,0.2,1,0,1.1-0.8c0.2-1.3,0.2-2.6,0.4-3.9
		c0.1-0.5,0.2-1,0.3-1.6c-0.6-0.4-0.5-1-0.2-1.6c0.6-1.2,1.4-2,2.6-2.6c1.1-0.5,2.2-1.1,3.5-1.1c2.4-0.1,4.1,1.1,5.5,2.9
		c1.4,1.8,2,4,2,6.2c0,2.3-0.1,4.6,0,7c0.1,1.6-0.5,3.1-0.6,4.6c0,0.3-0.2,0.6-0.4,0.8C273.9,255.9,273.8,255.9,273.7,255.9z"/>
	<path class="st0" d="M183.2,262.4c-2,0.8-4,1.6-6,2.4c-3.5,1.4-7,2.8-10.4,4.2c-0.4,0.1-0.7,0.3-1.1,0.4c-0.9,0.2-1.2,0-1.3-0.9
		c0-0.4,0-0.7,0-1.1c0.2-3.3,1-6.4,3.1-8.9c1.9-2.2,4.3-3.7,7.3-3.6c1.3,0,2.6,0,3.8,0.3c2.1,0.6,3.7,1.8,4.3,4
		C183.2,260.1,183.4,261.1,183.2,262.4z"/>
	<path class="st0" d="M135.4,278.9c0.8,0.2,0.9,0.7,0.9,1.3c0,0.4,0,0.9,0,1.3c0,2.8,0,2.8-1.8,4.9c-0.1,0.2-0.3,0.3-0.4,0.4
		c-1,1.8-2.7,2.8-4.2,4c-0.5,0.4-1.3,0.6-2,0.8c-0.9,0.2-1.5-0.3-1.5-1.3c0-3.6,0-7.3,0-10.9c0-0.4,0.1-0.8,0.2-1.2
		c0.2,0,0.3-0.1,0.5-0.1c0.9-0.2,1.1-0.3,1.1-1.1c0-1.6,0.5-3.2,1.1-4.6c0.4-0.9,1-1.6,1.8-2.3c1.1-0.9,2.2-0.6,3.2,0.2
		c1.2,1,1.5,2.4,1.8,3.8c0.1,0.6,0.2,1.3,0.2,1.9c0,0.3-0.1,0.5-0.2,0.8C135.8,277.4,135.6,278.1,135.4,278.9z"/>
	<path class="st0" d="M254.5,248c-0.2-0.4-0.4-0.6-0.4-0.8c-0.4-1.7-0.8-3.5-1.2-5.2c-0.6-2-1-4-2.2-5.7c-0.3-0.5-0.7-0.9-1.1-1.4
		c-0.4-0.5-0.9-0.9-1.5-1.5c1-0.3,1.9-0.6,2.7-0.9c1-0.3,1.9-0.6,2.9-0.8c0.7-0.2,1.5-0.3,2.2-0.3c2,0,4.1,0,6.1,0
		c0.5,0.8,0.2,1.6,0.2,2.4c-0.6,0.1-1.1,0.3-1.6,0.4c-3.1,0.9-5.4,3.5-5.6,6.9c-0.1,2-0.2,4-0.3,6
		C254.8,247.3,254.7,247.5,254.5,248z"/>
	<path class="st0" d="M96.4,278.7c-0.7-0.1-0.6-0.6-0.6-1c-0.1-1.9-0.1-3.8-0.4-5.6c-0.2-1.3-0.8-2.7-2.2-3.4
		c-0.3-0.2-0.7-0.3-1.1-0.4c-0.4-0.1-0.8-0.2-1.2-0.4c0-0.2,0-0.3,0.1-0.3c1.2-0.1,2-1.3,3.2-1.4c0,0,0.1,0,0.1,0c2.8,0,5.6,0,8.4,0
		c0.6,0,1.3,0.1,1.9,0.2c0.5,0,1.1,0,1.7,0c0,0.7-0.4,0.8-0.7,1c-1.6,1.1-3.2,2.3-4.7,3.5c-1.8,1.4-2.6,3.4-3.5,5.4
		C97,277,96.7,277.8,96.4,278.7z"/>
	<path class="st0" d="M119,267.8c0.5-0.2,0.8-0.3,1-0.4c0.3-0.1,0.6-0.2,0.7-0.3c0.5-0.8,1.3-0.8,2-0.8c2.6-0.1,5.1-0.1,7.7,0
		c1.1,0,2.2,0.2,3.4,0.4c-0.1,0.6-0.6,0.7-1,0.9c-1.4,0.8-2.8,1.6-4.1,2.4c-1.7,1.1-2.7,2.6-3.3,4.5c-0.2,0.7-0.5,0.9-1.3,0.8
		c-0.7-0.1-0.8-0.5-0.8-1.1c-0.1-1.3-0.3-2.6-0.8-3.8c-0.6-1.1-1.3-2-2.6-2.2C119.7,268,119.5,267.9,119,267.8z"/>
	<path class="st0" d="M190.1,259.5c-0.7-0.2-1.2-0.4-1.8-0.5c-0.2-0.6-0.3-1.2-0.5-1.8c-0.6-1.6-1.8-2.4-3.4-2.6
		c-0.5-0.1-0.9-0.1-0.9-0.8c0.5-0.1,1-0.1,1.5-0.2c0-0.2,0-0.5-0.1-0.8c0.6-0.1,1.2-0.3,1.7-0.3c1.8,0,3.5,0,5.3,0
		c2.3,0.1,4.5,0.2,6.8,0.2c0.2,0,0.4,0.1,0.7,0.2c-0.5,0.7-1.2,0.9-1.9,1.2c-2,0.9-4.1,1.8-5.9,3.2
		C190.9,257.8,190.6,258.7,190.1,259.5z"/>
</g>
<g>
	<g>
		<path class="st0" d="M277.1,384.3c-0.8,0-1.5-0.7-1.5-1.5v-1.4c0-0.8,0.7-1.5,1.5-1.5h1.5v-20.3l-7,19.5v0.8h1.5
			c0.8,0,1.5,0.7,1.5,1.5v1.4c0,0.8-0.7,1.5-1.5,1.5h-13.3c-0.8,0-1.5-0.7-1.5-1.5v-1.4c0-0.8,0.7-1.5,1.5-1.5h2.1v-34.5h-2.1
			c-0.8,0-1.5-0.7-1.5-1.5v-1.4c0-0.8,0.7-1.5,1.5-1.5h10c-0.4-0.2-0.7-0.4-1.1-0.7c-1.8-1.3-2.7-3.1-2.7-5.3c0-3.2,2.2-4.8,4.4-4.8
			c2.4,0,4.3,2,4.3,4.4c0,1.1-0.3,2-0.9,2.7c-0.1,0.1-0.2,0.3-0.4,0.5c0,0,0,0,0,0.1c0.2,0.1,0.9,0.2,1.7,0.2c0.8,0,1.4-0.1,1.7-0.2
			c-0.1-0.1-0.1-0.2-0.2-0.3c0,0-0.1-0.1-0.1-0.1c-0.7-1-1-1.9-1-2.9c0-2.8,2.2-4.4,4.3-4.4c2.2,0,4.4,1.7,4.4,4.8
			c0,2.2-0.9,4.1-2.7,5.3c-0.3,0.2-0.7,0.5-1.1,0.7h9.9c0.8,0,1.5,0.7,1.5,1.5v1.4c0,0.8-0.7,1.5-1.5,1.5h-2.1V380h2.1
			c0.8,0,1.5,0.7,1.5,1.5v1.4c0,0.8-0.7,1.5-1.5,1.5H277.1z M271.5,365.9l7-19.5v-1.1h-1.5c-0.8,0-1.5-0.7-1.5-1.5v-1.4
			c0-0.1,0-0.3,0.1-0.4c-0.2,0-0.3,0-0.5,0c-0.2,0-0.4,0-0.6,0c0,0.1,0.1,0.3,0.1,0.4v1.4c0,0.8-0.7,1.5-1.5,1.5h-1.5V365.9z"/>
		<path class="st0" d="M279.8,331.7c1.4,0,2.9,1,2.9,3.3c0,1.8-0.8,3.2-2.1,4.1c-1.8,1.3-4,1.5-5.5,1.5s-3.7-0.2-5.5-1.5
			c-1.3-0.9-2.1-2.3-2.1-4.1c0-2.3,1.5-3.3,2.9-3.3c1.5,0,2.8,1.2,2.8,2.9c0,0.7-0.2,1.4-0.6,1.8c-0.4,0.6-0.9,1-0.9,1.5
			c0,0.4,0.4,0.9,0.9,1.2c0.6,0.3,1.7,0.4,2.5,0.4s1.8-0.1,2.5-0.4c0.6-0.3,0.9-0.7,0.9-1.2c0-0.5-0.4-1-0.7-1.4
			c-0.5-0.7-0.7-1.3-0.7-2C277,332.8,278.4,331.7,279.8,331.7 M290.3,342.6v1.4h-3.6v37.5h3.6v1.4h-13.3v-1.4h3V351l-10,27.9v2.5h3
			v1.4h-13.3v-1.4h3.6v-37.5h-3.6v-1.4h13.3v1.4h-3v30.6l10-27.8v-2.8h-3v-1.4H290.3 M279.8,328.7c-1.8,0-3.6,0.9-4.7,2.4
			c-1-1.5-2.7-2.4-4.7-2.4c-3,0-5.9,2.2-5.9,6.3c0,1.7,0.5,3.2,1.3,4.5h-6c-1.7,0-3,1.3-3,3v1.4c0,1.7,1.3,3,3,3h0.6v31.5h-0.6
			c-1.7,0-3,1.3-3,3v1.4c0,1.7,1.3,3,3,3h13.3c0.8,0,1.5-0.3,2-0.8c0.5,0.5,1.2,0.8,2,0.8h13.3c1.7,0,3-1.3,3-3v-1.4
			c0-1.7-1.3-3-3-3h-0.6v-31.5h0.6c1.7,0,3-1.3,3-3v-1.4c0-1.7-1.3-3-3-3h-5.9c0.9-1.3,1.3-2.8,1.3-4.5
			C285.7,330.9,282.7,328.7,279.8,328.7L279.8,328.7z M273,346.9L273,346.9c0.8,0,1.5-0.3,2-0.8c0.5,0.4,1.1,0.7,1.8,0.8l-3.8,10.4
			V346.9L273,346.9z M273.4,378.5l3.7-10.2v10.2h0c-0.8,0-1.5,0.3-2,0.8C274.6,378.8,274,378.5,273.4,378.5L273.4,378.5z"/>
	</g>
	<g>
		<path class="st0" d="M112.1,330.9c-0.8,0-1.5-0.7-1.5-1.5V328c0-0.8,0.7-1.5,1.5-1.5h1.5V292h-7.1v34.5h1.5c0.8,0,1.5,0.7,1.5,1.5
			v1.4c0,0.8-0.7,1.5-1.5,1.5H94.8c-0.8,0-1.5-0.7-1.5-1.5V328c0-0.8,0.7-1.5,1.5-1.5h2.1V292h-2.1c-0.8,0-1.5-0.7-1.5-1.5v-1.4
			c0-0.8,0.7-1.5,1.5-1.5h30.6c0.8,0,1.5,0.7,1.5,1.5v1.4c0,0.8-0.7,1.5-1.5,1.5h-2.1v34.5h2.1c0.8,0,1.5,0.7,1.5,1.5v1.4
			c0,0.8-0.7,1.5-1.5,1.5H112.1z"/>
		<path class="st0" d="M125.4,289.2v1.4h-3.6v37.5h3.6v1.4h-13.3v-1.4h3v-37.5H105v37.5h3v1.4H94.8v-1.4h3.6v-37.5h-3.6v-1.4H125.4
			 M125.4,286.2H94.8c-1.7,0-3,1.3-3,3v1.4c0,1.7,1.3,3,3,3h0.6v31.5h-0.6c-1.7,0-3,1.3-3,3v1.4c0,1.7,1.3,3,3,3H108
			c0.8,0,1.5-0.3,2-0.8c0.5,0.5,1.2,0.8,2,0.8h13.3c1.7,0,3-1.3,3-3v-1.4c0-1.7-1.3-3-3-3h-0.6v-31.5h0.6c1.7,0,3-1.3,3-3v-1.4
			C128.4,287.5,127,286.2,125.4,286.2L125.4,286.2z M108,293.5h4.1v31.5h0c-0.8,0-1.5,0.3-2,0.8c-0.5-0.5-1.2-0.8-2-0.8h0V293.5
			L108,293.5z"/>
	</g>
	<g>
		<path class="st0" d="M144.8,331.4c-6.8,0-10.2-4.7-12.2-8.2c-1.6-2.9-3.5-7-3.5-13.8c0-6.1,2.1-12.7,5.3-16.9
			c3.6-4.6,7.7-5.3,9.8-5.3c1.5,0,3.2,0.3,5,1c0.3,0.1,0.6,0.2,0.8,0.3c0.4,0.2,0.8,0.4,1,0.4c0,0,0.1,0,0.1,0
			c0.2-0.7,0.8-1.2,1.5-1.2h1.6c0.8,0,1.5,0.7,1.5,1.5v13c0,0.8-0.7,1.5-1.5,1.5H153c-0.8,0-1.4-0.6-1.5-1.3c-0.3-2.3-1-4.5-2-6.6
			c-0.9-1.9-2.5-4.2-4.9-4.2c-0.6,0-2.7,0.2-3.8,3.1c-1,2.5-1.2,6.2-1.2,9.9v8.4c0,5.7,0.5,9.1,1.7,11.4c1,1.9,2.4,2.8,3.2,2.8
			c0.7,0,3.3-0.3,5.3-4.6c0.9-2,1.6-4,1.9-7.5c0.1-0.8,0.7-1.4,1.5-1.4h1.5c0.4,0,0.8,0.2,1.1,0.5c0.3,0.3,0.4,0.7,0.4,1.1
			l-0.4,14.3c0,0.8-0.7,1.5-1.5,1.5H153c-0.6,0-1.2-0.4-1.4-1c-0.2-0.4-0.3-0.6-0.3-0.6l0,0c0,0,0,0-0.1,0c-0.3,0-0.8,0.3-1.4,0.6
			c-0.2,0.1-0.5,0.2-0.7,0.4C148.2,330.7,146.9,331.4,144.8,331.4z"/>
		<path class="st0" d="M144.2,288.7c1.6,0,3.1,0.4,4.4,0.9c1.2,0.5,1.8,0.8,2.3,0.8c0.4,0,1.4-0.2,1.6-1.2h1.6v13H153
			c-0.4-3.2-1.4-5.6-2.1-7c-0.7-1.6-2.6-5.1-6.2-5.1c-1.8,0-4,1-5.2,4c-1.1,2.6-1.3,6.3-1.3,10.4v8.4c0,5.7,0.5,9.5,1.9,12.1
			c1.2,2.3,3,3.6,4.5,3.6c1.7,0,4.5-1,6.6-5.4c1.1-2.3,1.8-4.5,2.1-8h1.5l-0.4,14.3H153c-0.5-1.3-1.2-1.5-1.8-1.5
			c-0.9,0-1.8,0.6-2.8,1.1c-0.7,0.4-1.8,0.9-3.6,0.9c-5.1,0-8.3-2.9-10.9-7.4c-1.7-3.1-3.3-6.9-3.3-13.1c0-6.5,2.3-12.5,5-16
			C138.3,289.9,141.5,288.7,144.2,288.7 M144.2,285.7c-2.4,0-7,0.8-11,5.9c-3.4,4.4-5.6,11.4-5.6,17.8c0,7.1,1.9,11.5,3.6,14.6
			c2.2,3.9,6,9,13.5,9c2.4,0,4-0.8,4.8-1.2l0.1,0c0.3-0.1,0.5-0.3,0.7-0.4c0,0,0.1,0,0.1-0.1c0.6,0.7,1.4,1.2,2.4,1.2h1.5
			c1.6,0,3-1.3,3-2.9l0.4-14.3c0-0.8-0.3-1.6-0.9-2.2s-1.3-0.9-2.1-0.9h-1.5c-1.6,0-2.9,1.2-3,2.7c-0.3,3.2-0.9,5.1-1.8,7
			c-1.7,3.5-3.6,3.7-3.9,3.7c-0.2,0-1.1-0.4-1.9-2c-1.1-2-1.5-5.2-1.5-10.7v-8.4c0-3.5,0.1-7.1,1.1-9.3c0.8-1.9,2-2.2,2.5-2.2
			c1.6,0,2.8,1.8,3.5,3.4c0.9,2,1.6,4,1.8,6.1c0.2,1.5,1.5,2.6,3,2.6h1.2c1.7,0,3-1.3,3-3v-13c0-1.7-1.3-3-3-3h-1.6
			c-0.8,0-1.6,0.3-2.2,0.9c-0.2-0.1-0.4-0.2-0.7-0.3C147.8,286,146,285.7,144.2,285.7L144.2,285.7z"/>
	</g>
	<g>
		<path class="st0" d="M183.1,331.4c-1.6,0-3-0.5-4.1-1.6c-1.7-1.5-2.2-3.9-2.5-6c-0.2-1.5-0.3-3.1-0.6-7.4l0-0.2
			c-0.1-1.6-0.2-3.6-1-4.6c-0.6-0.8-1.3-1.2-2.4-1.2h-1.1v16h2.1c0.8,0,1.5,0.7,1.5,1.5v1.4c0,0.8-0.7,1.5-1.5,1.5h-13.8
			c-0.8,0-1.5-0.7-1.5-1.5V328c0-0.8,0.7-1.5,1.5-1.5h2.1V292h-2.1c-0.8,0-1.5-0.7-1.5-1.5v-1.4c0-0.8,0.7-1.5,1.5-1.5h13.8
			c0.8,0,1.5,0.7,1.5,1.5v1.4c0,0.8-0.7,1.5-1.5,1.5h-2.1v14.1h0.8c1.2,0,2.5,0,2.8-3.3c0.3-3.7,0.3-4.2,0.3-4.5
			c0-0.5-0.1-0.9,0.1-2.7c0.5-5.5,2.8-8.4,6.7-8.4c2.3,0,4.2,0.8,5.5,2.4c1,1.3,1.6,2.9,1.6,4.4c0,1.8-0.5,3.4-1.4,4.6
			c-1.1,1.3-2.2,1.9-3.9,1.9c-2,0-3.4-1.1-4.2-2.7c0,0.6,0,1.2-0.1,1.6c0,0.4,0,0.9,0,1.2c-0.1,2.8-0.3,4.8-1.1,6.3
			c2.3,0.6,4.7,1.9,6.3,4.8c1.4,2.5,1.5,4.9,1.6,6.9l0,0.6l0,0.5c0.1,1.8,0.3,4.8,0.4,5.8c0,0.2,0.1,0.4,0.1,0.6
			c0.3-0.3,0.7-0.4,1.1-0.4c0.1,0,0.1,0,0.2,0c0.5,0.1,0.9,0.3,1.1,0.7l0.6,0.9c0.4,0.6,0.3,1.4-0.3,1.9
			C187.3,331,184.8,331.4,183.1,331.4z"/>
		<path class="st0" d="M181.8,288.7c1.4,0,3.1,0.3,4.4,1.8c0.8,1,1.3,2.3,1.3,3.4c0,1.2-0.2,2.6-1.1,3.7c-0.7,0.9-1.5,1.3-2.7,1.3
			c-2.6,0-3.5-2.7-3.5-4.4c0-1.4,0.6-1.7,0.6-2.5c0-0.3-0.2-0.7-0.7-0.7c-2.2,0-2,6-2.2,9.2c-0.1,4.2-0.6,5.9-2.2,7.2l0.1,0.2
			c3.6,0.4,5.9,1.5,7.5,4.5c1.4,2.5,1.4,4.9,1.5,6.8c0.1,1.7,0.4,5.2,0.5,6.4c0.1,0.9,0.2,2,1.5,2c0.4,0,0.7-0.2,1.1-0.6l0.6,0.9
			c-1.6,1.5-3.6,1.8-5.2,1.8c-1.5,0-2.5-0.6-3.1-1.2c-1.4-1.2-1.8-3.4-2-5.1c-0.2-1.5-0.3-3-0.6-7.3c-0.1-1.8-0.2-4.1-1.4-5.6
			c-1.1-1.5-2.6-1.8-3.6-1.8h-2.6v19h3.6v1.4h-13.8v-1.4h3.6v-37.5h-3.6v-1.4h13.8v1.4h-3.6v17.1h2.3c1.5,0,3.9-0.2,4.3-4.7
			c0.6-6.8,0-3.1,0.4-7.3C177.3,288.7,180.7,288.7,181.8,288.7 M181.8,285.7c-1.6,0-3.9,0.4-5.6,2.6c-0.4-1.2-1.5-2.1-2.9-2.1h-13.8
			c-1.7,0-3,1.3-3,3v1.4c0,1.7,1.3,3,3,3h0.6v31.5h-0.6c-1.7,0-3,1.3-3,3v1.4c0,1.7,1.3,3,3,3h13.8c1.7,0,3-1.3,3-3v-0.6
			c0.4,0.8,0.9,1.5,1.6,2.1c1.4,1.3,3.2,1.9,5.2,1.9c2.9,0,5.4-0.9,7.3-2.6c1-1,1.3-2.5,0.5-3.7l-0.6-0.9c-0.5-0.8-1.3-1.3-2.2-1.4
			c0,0-0.1,0-0.1,0c-0.1-1.4-0.3-3.5-0.3-4.7l0-0.4l0-0.5c-0.1-2-0.3-4.7-1.8-7.5c-1.5-2.7-3.5-4.2-5.6-5c0.4-1.3,0.5-2.9,0.6-4.7
			c0.8,0.4,1.8,0.7,2.9,0.7c2.1,0,3.7-0.8,5-2.4c1.2-1.5,1.8-3.4,1.8-5.6c0-1.9-0.7-3.8-2-5.3c0,0,0,0,0,0
			C187.3,287.2,185.3,285.7,181.8,285.7L181.8,285.7z M172.7,293.5h0.6c0.2,0,0.4,0,0.6-0.1c-0.1,0.6-0.2,1.3-0.3,2
			c-0.2,1.9-0.2,2.4-0.1,3c0,0.2,0.1,0.7-0.3,4.3c-0.1,1.5-0.5,1.9-0.5,1.9c0,0,0,0-0.1,0V293.5L172.7,293.5z M172.7,325.1v-13
			c0.4,0.1,0.6,0.2,0.8,0.5c0,0,0,0,0,0c0.5,0.7,0.7,2.5,0.7,3.8l0,0.2c0.3,4.3,0.4,5.9,0.6,7.4c0,0,0,0,0,0.1
			c0.1,0.6,0.2,1.1,0.3,1.7c-0.5-0.4-1.2-0.7-1.9-0.7H172.7L172.7,325.1z"/>
	</g>
	<g>
		<path class="st0" d="M205.6,331.4c-3.3,0-6.6-1.6-9.4-4.5c-2.8-3-6.2-8.4-6.2-17.6c0-9.1,3.4-14.6,6.2-17.6
			c3.6-3.8,7.1-4.6,9.4-4.6c3.5,0,6.7,1.5,9.5,4.6c4.1,4.5,6.2,10.4,6.2,17.5c0,4.1-0.8,11.9-6.2,17.6
			C211.6,330.6,208,331.4,205.6,331.4z M205.6,291.5c-1.4,0-2.4,0.6-3.2,2c-1.4,2.3-1.9,7.3-1.9,9.3v13.2c0,4.1,0.7,7.6,1.9,9.3
			c1.1,1.5,2.3,1.8,3.2,1.8c1.3,0,2.6-0.7,3.4-1.8c1.2-1.7,1.8-6.9,1.8-9.3v-13.2c0-3.1-0.7-7.5-1.9-9.3
			C208.1,292.1,207,291.5,205.6,291.5z"/>
		<path class="st0" d="M205.6,288.7c3.6,0,6.4,1.9,8.4,4.1c4.9,5.3,5.8,12,5.8,16.5c0,2.5-0.2,10.8-5.8,16.6c-3.3,3.4-6.5,4-8.4,4
			c-2.4,0-5.4-1-8.3-4c-2.3-2.5-5.8-7.5-5.8-16.6c0-8.1,2.8-13.3,5.8-16.5C200.3,289.6,203.2,288.7,205.6,288.7 M205.6,328.5
			c1.8,0,3.6-0.9,4.6-2.4c1.5-2.2,2.1-8,2.1-10.2v-13.2c0-3-0.7-7.9-2.1-10.1c-1.1-1.8-2.6-2.6-4.6-2.6c-2.2,0-3.5,1.1-4.5,2.7
			c-1.7,2.7-2.1,8-2.1,10.1v13.2c0,2.9,0.4,7.6,2.2,10.1C202.7,328.2,204.6,328.5,205.6,328.5 M205.6,285.7c-2.6,0-6.5,0.9-10.5,5.1
			c-3,3.2-6.6,9-6.6,18.6c0,9.7,3.6,15.5,6.6,18.7c3.1,3.2,6.8,4.9,10.5,4.9c2.7,0,6.7-0.9,10.6-4.9c5.7-6.1,6.6-14.3,6.6-18.7
			c0-7.6-2.2-13.8-6.6-18.6C213.1,287.4,209.5,285.7,205.6,285.7L205.6,285.7z M205.6,325.5c-0.7,0-1.4-0.4-2-1.2
			c-1-1.4-1.6-4.7-1.6-8.4v-13.2c0-2.3,0.5-6.7,1.6-8.5c0.7-1.1,1.2-1.3,1.9-1.3c0.8,0,1.4,0.2,2.1,1.2c0.9,1.4,1.6,5.4,1.6,8.6
			v13.2c0,2.8-0.7,7.3-1.6,8.5C207.2,325.1,206.4,325.5,205.6,325.5L205.6,325.5z"/>
	</g>
	<g>
		<path class="st0" d="M225.3,330.9c-0.8,0-1.5-0.7-1.5-1.5V328c0-0.8,0.7-1.5,1.5-1.5h2.1V292h-2.1c-0.8,0-1.5-0.7-1.5-1.5v-1.4
			c0-0.8,0.7-1.5,1.5-1.5H239c4.6,0,8.1,0.9,10.3,2.7c1.2,1,3.3,3.2,3.3,7.2c0,3-1.1,5.6-3.2,7.5c-0.9,0.9-2,1.5-3.2,2
			c1.6,0.8,3,1.8,4.2,3c2.5,2.6,3,4.8,3,7.7c0,3.4-0.9,6-2.8,8.3c-2.6,3-6.5,4.7-11.4,4.7H225.3z M238.3,326.5c3,0,3.7-1.2,4-1.7
			c0.7-1.3,0.7-3.1,0.7-4.6V316c0-2.3-0.1-3.6-0.9-5.1c-0.7-1.3-1.7-1.8-3.3-1.8H237v17.5H238.3z M238.6,304.7
			c1.1,0,1.9-0.1,2.7-1.2c0.8-1,0.9-2,0.9-3.3v-4.1c0-1.4-0.2-2.9-1.2-3.7c-0.6-0.4-1.1-0.4-2.1-0.4H237v12.7H238.6z"/>
		<path class="st0" d="M239,289.2c6,0,8.4,1.6,9.4,2.4c1.3,1,2.7,3,2.7,6.1c0,3.3-1.5,5.3-2.7,6.5c-1.6,1.5-3.6,2.2-6.4,2.9v0.3
			c3.7,1,5.7,2.3,7.4,4c2.1,2.2,2.6,3.9,2.6,6.7c0,2.7-0.6,5-2.5,7.3c-3,3.6-7.4,4.1-10.3,4.1h-13.9v-1.4h3.6v-37.5h-3.6v-1.4H239
			 M235.5,306.2h3.1c1.2,0,2.7-0.1,3.9-1.8c1.1-1.5,1.2-2.9,1.2-4.2v-4.1c0-1.5-0.1-3.6-1.8-4.9c-1-0.7-2-0.7-3-0.7h-3.4V306.2
			 M235.5,328.1h2.8c3.6,0,4.7-1.5,5.3-2.5c0.8-1.6,0.9-3.5,0.9-5.3V316c0-2.3-0.1-3.9-1-5.8c-0.6-1.2-1.8-2.6-4.6-2.6h-3.3V328.1
			 M239,286.2h-13.7c-1.7,0-3,1.3-3,3v1.4c0,1.7,1.3,3,3,3h0.6v31.5h-0.6c-1.7,0-3,1.3-3,3v1.4c0,1.7,1.3,3,3,3h13.9
			c5.3,0,9.7-1.8,12.6-5.2c2.2-2.6,3.2-5.5,3.2-9.2c0-3.2-0.6-5.8-3.4-8.8c-0.7-0.7-1.5-1.4-2.3-2c0.4-0.3,0.8-0.6,1.2-0.9
			c2.4-2.3,3.7-5.3,3.7-8.7c0-3.4-1.4-6.4-3.8-8.4C247.8,287.2,244,286.2,239,286.2L239,286.2z M238.5,293.5h0.4c0.9,0,1,0,1.2,0.2
			c0.4,0.3,0.6,1.1,0.6,2.5v4.1c0,1-0.1,1.7-0.6,2.4c-0.4,0.5-0.6,0.6-1.5,0.6h-0.1V293.5L238.5,293.5z M238.5,310.6h0.3
			c1.3,0,1.7,0.5,2,1c0.6,1.2,0.7,2.2,0.7,4.4v4.2c0,1.3-0.1,2.8-0.6,3.9c-0.2,0.3-0.5,0.8-2.4,0.9V310.6L238.5,310.6z"/>
	</g>
	<g>
		<path class="st0" d="M271.4,331.4c-3.3,0-6.6-1.6-9.4-4.5c-2.8-3-6.2-8.4-6.2-17.6c0-9.1,3.4-14.6,6.2-17.6
			c3.6-3.8,7.1-4.6,9.4-4.6c3.5,0,6.7,1.5,9.5,4.6c4.1,4.5,6.2,10.4,6.2,17.5c0,4.1-0.8,11.9-6.2,17.6
			C277.4,330.6,273.8,331.4,271.4,331.4z M271.4,291.5c-1.4,0-2.3,0.6-3.2,2c-1.4,2.3-1.9,7.3-1.9,9.3v13.2c0,4.1,0.7,7.6,1.9,9.3
			c1.1,1.5,2.3,1.8,3.2,1.8c1.3,0,2.6-0.7,3.4-1.8c1.2-1.7,1.8-6.9,1.8-9.3v-13.2c0-3.1-0.7-7.5-1.9-9.3
			C273.9,292.1,272.8,291.5,271.4,291.5z"/>
		<path class="st0" d="M271.4,288.7c3.6,0,6.4,1.9,8.4,4.1c4.9,5.3,5.8,12,5.8,16.5c0,2.5-0.2,10.8-5.8,16.6c-3.3,3.4-6.5,4-8.4,4
			c-2.4,0-5.4-1-8.3-4c-2.3-2.5-5.8-7.5-5.8-16.6c0-8.1,2.8-13.3,5.8-16.5C266.1,289.6,269.1,288.7,271.4,288.7 M271.4,328.5
			c1.8,0,3.6-0.9,4.6-2.4c1.5-2.2,2.1-8,2.1-10.2v-13.2c0-3-0.7-7.9-2.1-10.1c-1.1-1.8-2.6-2.6-4.6-2.6c-2.2,0-3.5,1.1-4.5,2.7
			c-1.7,2.7-2.1,8-2.1,10.1v13.2c0,2.9,0.4,7.6,2.2,10.1C268.5,328.2,270.4,328.5,271.4,328.5 M271.4,285.7c-2.6,0-6.5,0.9-10.5,5.1
			c-3,3.2-6.6,9-6.6,18.6c0,9.7,3.6,15.5,6.6,18.7c3.1,3.2,6.8,4.9,10.5,4.9c2.7,0,6.7-0.9,10.6-4.9c5.7-6.1,6.6-14.3,6.6-18.7
			c0-7.6-2.2-13.8-6.6-18.6C278.9,287.4,275.3,285.7,271.4,285.7L271.4,285.7z M271.4,325.5c-0.7,0-1.4-0.4-2-1.2
			c-1-1.4-1.6-4.7-1.6-8.4v-13.2c0-2.3,0.5-6.7,1.6-8.5c0.7-1.1,1.2-1.3,1.9-1.3c0.8,0,1.4,0.2,2.1,1.2c0.9,1.4,1.6,5.4,1.6,8.6
			v13.2c0,2.8-0.7,7.3-1.6,8.5C273.1,325.1,272.2,325.5,271.4,325.5L271.4,325.5z"/>
	</g>
	<g>
		<path class="st0" d="M292.8,318c-0.8,0-1.5-0.7-1.5-1.5v-2.8c0-0.8,0.7-1.5,1.5-1.5h12.9c0.8,0,1.5,0.7,1.5,1.5v2.8
			c0,0.8-0.7,1.5-1.5,1.5H292.8z"/>
		<path class="st0" d="M305.7,313.7v2.8h-12.9v-2.8H305.7 M305.7,310.7h-12.9c-1.7,0-3,1.3-3,3v2.8c0,1.7,1.3,3,3,3h12.9
			c1.7,0,3-1.3,3-3v-2.8C308.7,312.1,307.4,310.7,305.7,310.7L305.7,310.7z"/>
	</g>
	<g>
		<path class="st0" d="M20.8,384.3c-0.8,0-1.5-0.7-1.5-1.5v-1.4c0-0.8,0.7-1.5,1.5-1.5h1.5v-34.5h-7.1V380h1.5
			c0.8,0,1.5,0.7,1.5,1.5v1.4c0,0.8-0.7,1.5-1.5,1.5H3.5c-0.8,0-1.5-0.7-1.5-1.5v-1.4c0-0.8,0.7-1.5,1.5-1.5h2.1v-34.5H3.5
			c-0.8,0-1.5-0.7-1.5-1.5v-1.4c0-0.8,0.7-1.5,1.5-1.5h30.6c0.8,0,1.5,0.7,1.5,1.5v1.4c0,0.8-0.7,1.5-1.5,1.5h-2.1V380h2.1
			c0.8,0,1.5,0.7,1.5,1.5v1.4c0,0.8-0.7,1.5-1.5,1.5H20.8z"/>
		<path class="st0" d="M34.1,342.6v1.4h-3.6v37.5h3.6v1.4H20.8v-1.4h3v-37.5H13.7v37.5h3v1.4H3.5v-1.4h3.6v-37.5H3.5v-1.4H34.1
			 M34.1,339.6H3.5c-1.7,0-3,1.3-3,3v1.4c0,1.7,1.3,3,3,3h0.6v31.5H3.5c-1.7,0-3,1.3-3,3v1.4c0,1.7,1.3,3,3,3h13.3
			c0.8,0,1.5-0.3,2-0.8c0.5,0.5,1.2,0.8,2,0.8h13.3c1.7,0,3-1.3,3-3v-1.4c0-1.7-1.3-3-3-3h-0.6v-31.5h0.6c1.7,0,3-1.3,3-3v-1.4
			C37.1,340.9,35.7,339.6,34.1,339.6L34.1,339.6z M16.7,346.9h4.1v31.5h0c-0.8,0-1.5,0.3-2,0.8c-0.5-0.5-1.2-0.8-2-0.8h0V346.9
			L16.7,346.9z"/>
	</g>
	<g>
		<path class="st0" d="M39.5,384.3c-0.8,0-1.5-0.7-1.5-1.5v-1.4c0-0.8,0.7-1.5,1.5-1.5h2.1v-34.5h-2.1c-0.8,0-1.5-0.7-1.5-1.5v-1.4
			c0-0.8,0.7-1.5,1.5-1.5h24.6c0.8,0,1.5,0.7,1.5,1.5l0.3,12.9c0,0.4-0.1,0.8-0.4,1.1s-0.7,0.5-1.1,0.5h-1.5c-0.8,0-1.4-0.6-1.5-1.4
			c-0.1-1.7-0.6-4.2-1.6-6.2c-1.2-2.6-3.2-3.9-6-3.9h-2.6v13.1h1.3c0.6,0,1.1-0.1,1.8-1.1c0.7-1.1,1.2-2.9,1.2-4.7
			c0-0.8,0.7-1.5,1.5-1.5h1.5c0.8,0,1.5,0.7,1.5,1.5v16.1c0,0.8-0.7,1.5-1.5,1.5H57c-0.8,0-1.5-0.7-1.5-1.5c0-1.4-0.2-2.8-0.5-3.7
			c-0.7-2.2-1.9-2.2-2.5-2.2h-1.3V380h2.6c3.5,0,5.6-3.2,6.2-4.2c1.2-2,1.9-4.7,2.1-6.4c0.1-0.8,0.7-1.3,1.5-1.3h1.5
			c0.4,0,0.8,0.2,1.1,0.5c0.3,0.3,0.4,0.7,0.4,1.1l-0.4,13.3c0,0.8-0.7,1.5-1.5,1.5H39.5z"/>
		<path class="st0" d="M64.1,342.6l0.3,12.9h-1.5c-0.1-1.8-0.7-4.5-1.7-6.8c-0.9-1.8-2.9-4.8-7.3-4.8h-4.1V360h2.8
			c1.1,0,2-0.3,3-1.7c1-1.5,1.5-3.7,1.5-5.6h1.5v16.1H57c0-1.3-0.2-3-0.6-4.2c-1-3.1-3.1-3.2-3.9-3.2h-2.8v20.1h4.1
			c3.4,0,6-2.5,7.5-5c1.2-2.1,2.1-4.9,2.3-7h1.5l-0.4,13.3H39.5v-1.4h3.6v-37.5h-3.6v-1.4H64.1 M64.1,339.6H39.5c-1.7,0-3,1.3-3,3
			v1.4c0,1.7,1.3,3,3,3h0.6v31.5h-0.6c-1.7,0-3,1.3-3,3v1.4c0,1.7,1.3,3,3,3h25.2c1.6,0,2.9-1.3,3-2.9l0.4-13.3
			c0-0.8-0.3-1.6-0.8-2.2c-0.6-0.6-1.3-0.9-2.2-0.9h-1.5c-0.8,0-1.6,0.4-2.2,0.9v-9.3c0.4,0.2,0.9,0.3,1.4,0.3h1.5
			c0.8,0,1.6-0.3,2.1-0.9c0.6-0.6,0.9-1.4,0.9-2.2l-0.3-12.9C67.1,340.9,65.7,339.6,64.1,339.6L64.1,339.6z M52.7,346.9h1.1
			c0.8,0,3,0,4.5,2.8H57c-1.7,0-3,1.3-3,3c0,1.5-0.4,3.1-1,3.9c-0.2,0.2-0.3,0.4-0.3,0.4c0,0,0,0,0,0V346.9L52.7,346.9z M52.7,378.4
			v-14.1c0.2,0,0.5,0.2,0.9,1.2c0.3,0.8,0.5,2.1,0.5,3.3c0,1.7,1.3,3,3,3h1.5c0.7,0,1.3-0.2,1.8-0.6c-0.4,1.3-0.9,2.7-1.5,3.7
			c-0.5,0.8-2.3,3.5-4.9,3.5H52.7L52.7,378.4z"/>
	</g>
	<g>
		<path class="st0" d="M83.5,384.3c-0.8,0-1.5-0.7-1.5-1.5v-1.4c0-0.8,0.7-1.5,1.5-1.5h2.1v-12.6c-1.7,0.9-4,1.7-6.6,1.7
			c-4.4,0-6.4-2.5-6.8-3c-1.3-1.8-1.9-4.4-1.9-8.8v-11.8h-2.1c-0.8,0-1.5-0.7-1.5-1.5v-1.4c0-0.8,0.7-1.5,1.5-1.5h13.2
			c0.6,0,1.1,0.3,1.3,0.8c0.3-0.5,0.8-0.8,1.3-0.8h13.2c0.8,0,1.5,0.7,1.5,1.5v1.4c0,0.8-0.7,1.5-1.5,1.5h-2.1V380h2.1
			c0.8,0,1.5,0.7,1.5,1.5v1.4c0,0.8-0.7,1.5-1.5,1.5H83.5z M79.9,358c0,1.8,0.1,4.4,0.5,5c0.3,0.5,1,0.9,1.5,0.9
			c0.7,0,2.3-0.6,3.7-1.4v-17h-1.5c-0.6,0-1.1-0.3-1.3-0.8c-0.3,0.5-0.8,0.8-1.3,0.8h-1.5V358z"/>
		<path class="st0" d="M97.3,342.6v1.4h-3.6v37.5h3.6v1.4H83.5v-1.4h3.6v-16.8c-1.7,1.3-4.7,3-8.1,3c-3.4,0-5.1-1.8-5.5-2.4
			c-1.2-1.5-1.7-3.9-1.7-8v-13.3h-3.6v-1.4h13.2v1.4h-3V358c0,3.7,0.2,5.1,0.7,5.8c0.6,0.9,1.7,1.5,2.8,1.5c1.3,0,3.7-1.1,5.2-2.1
			v-19.4h-3v-1.4H97.3 M97.3,339.6H84.1c-0.5,0-0.9,0.1-1.3,0.3c-0.4-0.2-0.8-0.3-1.3-0.3H68.2c-1.7,0-3,1.3-3,3v1.4
			c0,1.7,1.3,3,3,3h0.6v10.3c0,4.7,0.7,7.7,2.2,9.8c1.3,1.8,4,3.6,8,3.6c1.9,0,3.6-0.4,5.1-0.9v8.8h-0.6c-1.7,0-3,1.3-3,3v1.4
			c0,1.7,1.3,3,3,3h13.8c1.7,0,3-1.3,3-3v-1.4c0-1.7-1.3-3-3-3h-0.6v-31.5h0.6c1.7,0,3-1.3,3-3v-1.4
			C100.3,340.9,98.9,339.6,97.3,339.6L97.3,339.6z M81.4,346.9L81.4,346.9c0.5,0,0.9-0.1,1.3-0.3c0.4,0.2,0.8,0.3,1.3,0.3h0v14.6
			c-0.9,0.5-1.8,0.8-2.1,0.8c-0.1,0-0.2-0.1-0.3-0.2c-0.1-0.2-0.3-1.2-0.3-4.2V346.9L81.4,346.9z"/>
	</g>
	<g>
		<path class="st0" d="M102.8,384.3c-0.8,0-1.5-0.7-1.5-1.5v-1.4c0-0.8,0.7-1.5,1.5-1.5h2.1v-34.5h-2.1c-0.8,0-1.5-0.7-1.5-1.5v-1.4
			c0-0.8,0.7-1.5,1.5-1.5h24.6c0.8,0,1.5,0.7,1.5,1.5l0.3,12.9c0,0.4-0.1,0.8-0.4,1.1s-0.7,0.5-1.1,0.5h-1.5c-0.8,0-1.4-0.6-1.5-1.4
			c-0.1-1.7-0.6-4.2-1.6-6.2c-1.2-2.6-3.2-3.9-6-3.9h-2.6v13.1h1.3c0.6,0,1.1-0.1,1.8-1.1c0.7-1.1,1.2-2.9,1.2-4.7
			c0-0.8,0.7-1.5,1.5-1.5h1.5c0.8,0,1.5,0.7,1.5,1.5v16.1c0,0.8-0.7,1.5-1.5,1.5h-1.5c-0.8,0-1.5-0.7-1.5-1.5c0-1.4-0.2-2.8-0.5-3.7
			c-0.7-2.2-1.9-2.2-2.5-2.2h-1.3V380h2.6c3.5,0,5.6-3.2,6.2-4.2c1.2-2,1.9-4.7,2.1-6.4c0.1-0.8,0.7-1.3,1.5-1.3h1.5
			c0.4,0,0.8,0.2,1.1,0.5c0.3,0.3,0.4,0.7,0.4,1.1l-0.4,13.3c0,0.8-0.7,1.5-1.5,1.5H102.8z"/>
		<path class="st0" d="M127.3,342.6l0.3,12.9h-1.5c-0.1-1.8-0.7-4.5-1.7-6.8c-0.9-1.8-2.9-4.8-7.3-4.8H113V360h2.8
			c1.1,0,2-0.3,3-1.7c1-1.5,1.5-3.7,1.5-5.6h1.5v16.1h-1.5c0-1.3-0.2-3-0.6-4.2c-1-3.1-3.1-3.2-3.9-3.2H113v20.1h4.1
			c3.4,0,6-2.5,7.5-5c1.2-2.1,2.1-4.9,2.3-7h1.5l-0.4,13.3h-25.2v-1.4h3.6v-37.5h-3.6v-1.4H127.3 M127.3,339.6h-24.6
			c-1.7,0-3,1.3-3,3v1.4c0,1.7,1.3,3,3,3h0.6v31.5h-0.6c-1.7,0-3,1.3-3,3v1.4c0,1.7,1.3,3,3,3H128c1.6,0,2.9-1.3,3-2.9l0.4-13.3
			c0-0.8-0.3-1.6-0.8-2.2c-0.6-0.6-1.3-0.9-2.2-0.9h-1.5c-0.8,0-1.6,0.4-2.2,0.9v-9.3c0.4,0.2,0.9,0.3,1.4,0.3h1.5
			c0.8,0,1.6-0.3,2.1-0.9c0.6-0.6,0.9-1.4,0.9-2.2l-0.3-12.9C130.3,340.9,129,339.6,127.3,339.6L127.3,339.6z M116,346.9h1.1
			c0.8,0,3,0,4.5,2.8h-1.3c-1.7,0-3,1.3-3,3c0,1.5-0.4,3.1-1,3.9c-0.2,0.2-0.3,0.4-0.3,0.4c0,0,0,0,0,0V346.9L116,346.9z M116,378.4
			v-14.1c0.2,0,0.5,0.2,0.9,1.2c0.3,0.8,0.5,2.1,0.5,3.3c0,1.7,1.3,3,3,3h1.5c0.7,0,1.3-0.2,1.8-0.6c-0.4,1.3-0.9,2.7-1.5,3.7
			c-0.5,0.8-2.3,3.5-4.9,3.5H116L116,378.4z"/>
	</g>
	<g>
		<path class="st0" d="M133.2,384.3c-0.8,0-1.5-0.7-1.5-1.5v-1.4c0-0.8,0.7-1.5,1.5-1.5h2.1v-34.5h-2.1c-0.8,0-1.5-0.7-1.5-1.5v-1.4
			c0-0.8,0.7-1.5,1.5-1.5h13.6c2.9,0,5.3,0.4,7.2,1.1c3.4,1.3,7.4,4.5,7.4,12.2c0,6.8-3.3,9.8-6.1,11.2c-3.2,1.5-7.5,1.6-8.7,1.6
			h-1.6V380h2.6c0.8,0,1.5,0.7,1.5,1.5v1.4c0,0.8-0.7,1.5-1.5,1.5H133.2z M145.6,362.7c1,0,2.5,0,3.5-0.7c1.7-1.2,1.7-3.9,1.7-6.1
			l0-5c0-2.1-0.2-4.5-1.6-5.1c-0.4-0.2-2.1-0.4-3.2-0.4h-1.1v17.3H145.6z"/>
		<path class="st0" d="M146.8,342.6c2,0,4.5,0.2,6.6,1c2.6,1,6.4,3.6,6.4,10.8c0,2.9-0.6,7.6-5.2,9.8c-2.7,1.3-6.6,1.5-8.1,1.5h-3.1
			v15.9h4.1v1.4h-14.3v-1.4h3.6v-37.5h-3.6v-1.4H146.8 M143.4,364.2h2.2c1.2,0,3,0,4.4-0.9c2.6-1.8,2.3-5.5,2.3-8V351
			c0-2.5-0.2-5.5-2.5-6.5c-0.7-0.3-2.6-0.6-3.7-0.6h-2.6V364.2 M146.8,339.6h-13.6c-1.7,0-3,1.3-3,3v1.4c0,1.7,1.3,3,3,3h0.6v31.5
			h-0.6c-1.7,0-3,1.3-3,3v1.4c0,1.7,1.3,3,3,3h14.3c1.7,0,3-1.3,3-3v-1.4c0-1.7-1.3-3-3-3h-1.1v-9.9h0.1c1.3,0,5.9-0.1,9.3-1.8
			c3.2-1.6,6.9-5,6.9-12.5c0-6.6-2.9-11.4-8.3-13.5C152.4,339.9,149.8,339.6,146.8,339.6L146.8,339.6z M146.4,361.2v-14.3
			c0.8,0,1.8,0.2,2.2,0.3c0.2,0.1,0.7,0.7,0.7,3.7v4.4l0,0.6c0,1.8,0,4.2-1,4.9C147.9,361.1,147.1,361.2,146.4,361.2L146.4,361.2z"
			/>
	</g>
	<g>
		<path class="st0" d="M178.3,384.8c-6.8,0-10.2-4.7-12.2-8.2c-1.6-2.9-3.5-7-3.5-13.8c0-6.1,2.1-12.7,5.3-16.9
			c3.6-4.6,7.7-5.3,9.8-5.3c1.5,0,3.2,0.3,5,1c0.3,0.1,0.6,0.2,0.8,0.3c0.4,0.2,0.8,0.4,1,0.4c0,0,0.1,0,0.1,0
			c0.2-0.7,0.8-1.2,1.5-1.2h1.6c0.8,0,1.5,0.7,1.5,1.5v13c0,0.8-0.7,1.5-1.5,1.5h-1.2c-0.8,0-1.4-0.6-1.5-1.3c-0.3-2.3-1-4.5-2-6.6
			c-0.9-1.9-2.5-4.2-4.9-4.2c-0.6,0-2.7,0.2-3.8,3.1c-1,2.5-1.2,6.2-1.2,9.9v8.4c0,5.7,0.5,9.1,1.7,11.4c1,1.9,2.4,2.8,3.2,2.8
			c0.7,0,3.3-0.3,5.3-4.6c0.9-2,1.6-4,1.9-7.5c0.1-0.8,0.7-1.4,1.5-1.4h1.5c0.4,0,0.8,0.2,1.1,0.5s0.4,0.7,0.4,1.1l-0.4,14.3
			c0,0.8-0.7,1.5-1.5,1.5h-1.5c-0.6,0-1.2-0.4-1.4-1c-0.2-0.4-0.3-0.6-0.3-0.6l0,0c0,0,0,0-0.1,0c-0.3,0-0.9,0.3-1.4,0.6
			c-0.2,0.1-0.5,0.2-0.7,0.4C181.7,384.1,180.4,384.8,178.3,384.8z"/>
		<path class="st0" d="M177.8,342.1c1.6,0,3.1,0.4,4.4,0.9c1.2,0.5,1.8,0.8,2.3,0.8c0.4,0,1.4-0.2,1.6-1.2h1.6v13h-1.2
			c-0.4-3.2-1.4-5.6-2.1-7c-0.7-1.6-2.6-5.1-6.2-5.1c-1.8,0-4,1-5.2,4c-1.1,2.6-1.3,6.3-1.3,10.4v8.4c0,5.7,0.5,9.5,1.9,12.1
			c1.2,2.3,3,3.6,4.5,3.6c1.7,0,4.5-1,6.6-5.4c1.1-2.3,1.8-4.5,2.1-8h1.5l-0.4,14.3h-1.5c-0.5-1.3-1.2-1.5-1.8-1.5
			c-0.9,0-1.8,0.6-2.8,1.1c-0.7,0.4-1.8,0.9-3.6,0.9c-5.1,0-8.3-2.9-10.9-7.4c-1.7-3.1-3.3-6.9-3.3-13.1c0-6.5,2.3-12.5,5-16
			C171.9,343.3,175.1,342.1,177.8,342.1 M177.8,339.1c-2.4,0-7,0.8-11,5.9c-3.4,4.4-5.6,11.4-5.6,17.8c0,7.1,1.9,11.5,3.6,14.6
			c2.2,3.9,6,9,13.5,9c2.4,0,4-0.8,4.8-1.2l0.1,0c0.3-0.1,0.5-0.3,0.7-0.4c0,0,0.1,0,0.1-0.1c0.6,0.7,1.4,1.2,2.4,1.2h1.5
			c1.6,0,3-1.3,3-2.9l0.4-14.3c0-0.8-0.3-1.6-0.9-2.2s-1.3-0.9-2.1-0.9h-1.5c-1.6,0-2.9,1.2-3,2.7c-0.3,3.2-0.9,5.1-1.8,7
			c-1.7,3.5-3.6,3.7-3.9,3.7c-0.2,0-1.1-0.4-1.9-2c-1.1-2-1.5-5.2-1.5-10.7v-8.4c0-3.5,0.1-7.1,1.1-9.3c0.8-1.9,2-2.2,2.5-2.2
			c1.6,0,2.8,1.8,3.5,3.4c0.9,2,1.6,4,1.8,6.1c0.2,1.5,1.5,2.6,3,2.6h1.2c1.7,0,3-1.3,3-3v-13c0-1.7-1.3-3-3-3h-1.6
			c-0.8,0-1.6,0.3-2.2,0.9c-0.2-0.1-0.4-0.2-0.7-0.3c0,0,0,0,0,0C181.3,339.4,179.5,339.1,177.8,339.1L177.8,339.1z"/>
	</g>
	<g>
		<path class="st0" d="M216.6,384.8c-1.6,0-3-0.5-4.1-1.6c-1.7-1.5-2.2-3.9-2.5-6c-0.2-1.5-0.3-3.1-0.6-7.4l0-0.2
			c-0.1-1.6-0.2-3.6-1-4.6c-0.6-0.8-1.3-1.2-2.4-1.2h-1.1v16h2.1c0.8,0,1.5,0.7,1.5,1.5v1.4c0,0.8-0.7,1.5-1.5,1.5H193
			c-0.8,0-1.5-0.7-1.5-1.5v-1.4c0-0.8,0.7-1.5,1.5-1.5h2.1v-34.5H193c-0.8,0-1.5-0.7-1.5-1.5v-1.4c0-0.8,0.7-1.5,1.5-1.5h13.8
			c0.8,0,1.5,0.7,1.5,1.5v1.4c0,0.8-0.7,1.5-1.5,1.5h-2.1v14.1h0.8c1.2,0,2.5,0,2.8-3.3c0.3-3.7,0.3-4.2,0.3-4.5
			c0-0.5-0.1-0.9,0.1-2.7c0.5-5.5,2.8-8.4,6.7-8.4c2.3,0,4.2,0.8,5.5,2.4c1,1.3,1.6,2.9,1.6,4.4c0,1.8-0.5,3.4-1.4,4.6
			c-1.1,1.3-2.2,1.9-3.9,1.9c-2,0-3.4-1.1-4.2-2.7c0,0.6,0,1.2-0.1,1.6c0,0.4,0,0.9,0,1.2c-0.1,2.8-0.3,4.8-1.1,6.3
			c2.3,0.6,4.7,1.9,6.3,4.8c1.4,2.5,1.5,4.9,1.6,6.9l0,0.6l0,0.5c0.1,1.8,0.3,4.8,0.4,5.8c0,0.2,0.1,0.4,0.1,0.6
			c0.3-0.3,0.7-0.4,1.1-0.4c0.1,0,0.1,0,0.2,0c0.5,0.1,0.9,0.3,1.1,0.7l0.6,0.9c0.4,0.6,0.3,1.4-0.3,1.9
			C220.9,384.4,218.4,384.8,216.6,384.8z"/>
		<path class="st0" d="M215.3,342.1c1.4,0,3.1,0.3,4.4,1.8c0.8,1,1.3,2.3,1.3,3.4c0,1.2-0.2,2.6-1.1,3.7c-0.7,0.9-1.5,1.3-2.7,1.3
			c-2.6,0-3.5-2.7-3.5-4.4c0-1.4,0.6-1.7,0.6-2.5c0-0.3-0.2-0.7-0.7-0.7c-2.2,0-2,6-2.2,9.2c-0.1,4.2-0.6,5.9-2.2,7.2l0.1,0.2
			c3.6,0.4,5.9,1.5,7.5,4.5c1.4,2.5,1.4,4.9,1.5,6.8c0.1,1.7,0.4,5.2,0.5,6.4c0.1,0.9,0.2,2,1.5,2c0.4,0,0.7-0.2,1.1-0.6l0.6,0.9
			c-1.6,1.5-3.6,1.8-5.2,1.8c-1.5,0-2.5-0.6-3.1-1.2c-1.4-1.2-1.8-3.4-2-5.1c-0.2-1.5-0.3-3-0.6-7.3c-0.1-1.8-0.2-4.1-1.4-5.6
			c-1.1-1.5-2.6-1.8-3.6-1.8h-2.6v19h3.6v1.4H193v-1.4h3.6v-37.5H193v-1.4h13.8v1.4h-3.6V361h2.3c1.5,0,3.9-0.2,4.3-4.7
			c0.6-6.8,0-3.1,0.4-7.3C210.9,342.1,214.3,342.1,215.3,342.1 M215.3,339.1c-1.6,0-3.9,0.4-5.6,2.6c-0.4-1.2-1.5-2.1-2.9-2.1H193
			c-1.7,0-3,1.3-3,3v1.4c0,1.7,1.3,3,3,3h0.6v31.5H193c-1.7,0-3,1.3-3,3v1.4c0,1.7,1.3,3,3,3h13.8c1.7,0,3-1.3,3-3v-0.6
			c0.4,0.8,0.9,1.5,1.6,2.1c1.4,1.3,3.2,1.9,5.2,1.9c2.9,0,5.4-0.9,7.3-2.6c1-1,1.3-2.5,0.5-3.7l-0.6-0.9c-0.5-0.8-1.3-1.3-2.2-1.4
			c0,0-0.1,0-0.1,0c-0.1-1.3-0.2-3.2-0.3-4.5l0-0.6l0-0.5c-0.1-2-0.3-4.7-1.8-7.5c-1.5-2.7-3.5-4.2-5.6-5c0.4-1.3,0.5-2.9,0.6-4.7
			c0.8,0.4,1.8,0.7,2.9,0.7c2.1,0,3.7-0.8,5-2.4c1.2-1.5,1.8-3.4,1.8-5.6c0-1.9-0.7-3.8-2-5.3c0,0,0,0,0,0
			C220.9,340.6,218.8,339.1,215.3,339.1L215.3,339.1z M206.2,346.9h0.6c0.2,0,0.4,0,0.6-0.1c-0.1,0.6-0.2,1.3-0.3,2
			c-0.2,1.9-0.2,2.4-0.1,3c0,0.2,0.1,0.7-0.3,4.3c-0.1,1.5-0.5,1.9-0.5,1.9c0,0,0,0-0.1,0V346.9L206.2,346.9z M206.2,378.4v-13
			c0.4,0.1,0.6,0.2,0.8,0.5c0,0,0,0,0,0c0.5,0.7,0.7,2.5,0.7,3.8l0,0.2c0.3,4.3,0.4,5.9,0.6,7.4c0,0,0,0,0,0.1
			c0.1,0.6,0.2,1.1,0.3,1.7c-0.5-0.4-1.2-0.7-1.9-0.7H206.2L206.2,378.4z"/>
	</g>
	<g>
		<path class="st0" d="M242.7,384.3c-0.8,0-1.5-0.7-1.5-1.5v-1.4c0-0.8,0.7-1.5,1.5-1.5h1.5v-20.3l-7,19.5v0.8h1.5
			c0.8,0,1.5,0.7,1.5,1.5v1.4c0,0.8-0.7,1.5-1.5,1.5h-13.3c-0.8,0-1.5-0.7-1.5-1.5v-1.4c0-0.8,0.7-1.5,1.5-1.5h2.1v-34.5h-2.1
			c-0.8,0-1.5-0.7-1.5-1.5v-1.4c0-0.8,0.7-1.5,1.5-1.5h13.3c0.8,0,1.5,0.7,1.5,1.5v1.4c0,0.8-0.7,1.5-1.5,1.5h-1.5v20.5l7-19.5v-1.1
			h-1.5c-0.8,0-1.5-0.7-1.5-1.5v-1.4c0-0.8,0.7-1.5,1.5-1.5H256c0.8,0,1.5,0.7,1.5,1.5v1.4c0,0.8-0.7,1.5-1.5,1.5h-2.1V380h2.1
			c0.8,0,1.5,0.7,1.5,1.5v1.4c0,0.8-0.7,1.5-1.5,1.5H242.7z"/>
		<path class="st0" d="M256,342.6v1.4h-3.6v37.5h3.6v1.4h-13.3v-1.4h3V351l-10,27.9v2.5h3v1.4h-13.3v-1.4h3.6v-37.5h-3.6v-1.4h13.3
			v1.4h-3v30.6l10-27.8v-2.8h-3v-1.4H256 M256,339.6h-13.3c-0.8,0-1.5,0.3-2,0.8c-0.5-0.5-1.2-0.8-2-0.8h-13.3c-1.7,0-3,1.3-3,3v1.4
			c0,1.7,1.3,3,3,3h0.6v31.5h-0.6c-1.7,0-3,1.3-3,3v1.4c0,1.7,1.3,3,3,3h13.3c0.8,0,1.5-0.3,2-0.8c0.5,0.5,1.2,0.8,2,0.8H256
			c1.7,0,3-1.3,3-3v-1.4c0-1.7-1.3-3-3-3h-0.6v-31.5h0.6c1.7,0,3-1.3,3-3v-1.4C259,340.9,257.6,339.6,256,339.6L256,339.6z
			 M238.7,346.9L238.7,346.9c0.8,0,1.5-0.3,2-0.8c0.5,0.4,1.1,0.7,1.8,0.8l-3.8,10.4V346.9L238.7,346.9z M239,378.5l3.7-10.2v10.2h0
			c-0.8,0-1.5,0.3-2,0.8C240.2,378.8,239.7,378.5,239,378.5L239,378.5z"/>
	</g>
	<g>
		<path class="st0" d="M24.3,437.7c-0.8,0-1.5-0.7-1.5-1.5v-1.4c0-0.8,0.7-1.5,1.5-1.5h2.1v-22.1l-6.4,25.4
			c-0.2,0.7-0.8,1.1-1.5,1.1h-0.9c-0.7,0-1.3-0.5-1.5-1.1L9.6,411V427c0,2.7,0.2,4.6,0.7,5.5c0.4,0.7,0.7,0.8,1.3,0.8
			c0.8,0,1.4,0.7,1.4,1.5v1.4c0,0.8-0.7,1.5-1.5,1.5H3c-0.8,0-1.5-0.7-1.5-1.5v-1.4c0-0.7,0.5-1.4,1.3-1.5c0.5-0.1,1.1-0.3,1.6-1.1
			c0.5-0.9,0.8-3,0.8-5.5v-23.4c0-2.3-0.2-3.7-0.5-4c-0.1-0.1-0.6-0.4-1.7-0.5c-0.8-0.1-1.4-0.7-1.4-1.5V396c0-0.8,0.7-1.5,1.5-1.5
			H14c0.7,0,1.3,0.5,1.5,1.1l5.3,20.2l5.3-20.2c0.2-0.7,0.8-1.1,1.5-1.1h10.6c0.8,0,1.5,0.7,1.5,1.5v1.4c0,0.8-0.7,1.5-1.5,1.5H36
			v34.5h2.1c0.8,0,1.5,0.7,1.5,1.5v1.4c0,0.8-0.7,1.5-1.5,1.5H24.3z"/>
		<path class="st0" d="M38.1,396v1.4h-3.6v37.5h3.6v1.4H24.3v-1.4h3.6v-35.6l-9.4,37h-0.9l-9.5-37V427c0,4.4,0.6,5.7,0.9,6.2
			c0.7,1.3,1.5,1.6,2.5,1.7v1.4H3v-1.4c0.8-0.1,1.9-0.5,2.7-1.8c0.9-1.5,1-4.4,1-6.3v-23.4c0-3.3-0.3-4.4-0.8-5
			c-0.4-0.6-1.4-1-2.7-1.1V396H14l6.8,25.8l6.7-25.8H38.1 M38.1,393H27.5c-1.4,0-2.6,0.9-2.9,2.2l-3.8,14.7l-3.8-14.7
			c-0.3-1.3-1.5-2.2-2.9-2.2H3.2c-1.7,0-3,1.3-3,3v1.4c0,1.6,1.2,2.8,2.7,3c0.3,0,0.5,0.1,0.6,0.1c0.1,0.4,0.2,1.2,0.2,3v23.4
			c0,2.5-0.3,4.2-0.6,4.8c-0.2,0.3-0.3,0.3-0.6,0.4c-1.5,0.2-2.5,1.5-2.5,3v1.4c0,1.7,1.3,3,3,3h8.5c1.7,0,3-1.3,3-3V436l0.2,0.9
			c0.3,1.3,1.5,2.3,2.9,2.3h0.9c1.3,0,2.5-0.9,2.9-2.2c0.4,1.3,1.5,2.2,2.9,2.2h13.8c1.7,0,3-1.3,3-3v-1.4c0-1.7-1.3-3-3-3h-0.6
			v-31.5h0.6c1.7,0,3-1.3,3-3V396C41.1,394.3,39.7,393,38.1,393L38.1,393z M11.6,431.8c-0.3-0.7-0.5-2.5-0.5-4.8v-4.1l2.5,9.9
			C13.1,432.2,12.4,431.9,11.6,431.8C11.7,431.9,11.7,431.9,11.6,431.8C11.6,431.8,11.6,431.8,11.6,431.8L11.6,431.8z M22.6,432.4
			l2.3-9.2v8.7h-0.6C23.6,431.8,23,432,22.6,432.4L22.6,432.4z"/>
	</g>
	<g>
		<path class="st0" d="M57.1,438.2c-3.3,0-6.6-1.6-9.4-4.5c-2.8-3-6.2-8.4-6.2-17.6c0-9.1,3.4-14.6,6.2-17.6
			c3.6-3.8,7.1-4.6,9.4-4.6c3.5,0,6.7,1.5,9.5,4.6c4.1,4.5,6.2,10.4,6.2,17.5c0,4.1-0.8,11.9-6.2,17.6
			C63.1,437.4,59.5,438.2,57.1,438.2z M57.1,398.3c-1.4,0-2.3,0.6-3.2,2c-1.4,2.3-1.9,7.3-1.9,9.3v13.2c0,4.1,0.7,7.6,1.9,9.3
			c1.1,1.5,2.3,1.8,3.2,1.8c1.3,0,2.6-0.7,3.4-1.8c1.2-1.7,1.8-6.9,1.8-9.3v-13.2c0-3.1-0.7-7.5-1.9-9.3
			C59.6,398.9,58.5,398.3,57.1,398.3z"/>
		<path class="st0" d="M57.1,395.5c3.6,0,6.4,1.9,8.4,4.1c4.9,5.3,5.8,12,5.8,16.5c0,2.5-0.2,10.8-5.8,16.6c-3.3,3.4-6.5,4-8.4,4
			c-2.4,0-5.4-1-8.3-4c-2.3-2.5-5.8-7.5-5.8-16.6c0-8.1,2.8-13.3,5.8-16.5C51.8,396.4,54.7,395.5,57.1,395.5 M57.1,435.3
			c1.8,0,3.6-0.9,4.6-2.4c1.5-2.2,2.1-8,2.1-10.2v-13.2c0-3-0.7-7.9-2.1-10.1c-1.1-1.8-2.6-2.6-4.6-2.6c-2.2,0-3.5,1.1-4.5,2.7
			c-1.7,2.7-2.1,8-2.1,10.1v13.2c0,2.9,0.4,7.6,2.2,10.1C54.2,435,56.1,435.3,57.1,435.3 M57.1,392.5c-2.6,0-6.5,0.9-10.5,5.1
			c-3,3.2-6.6,9-6.6,18.6c0,9.7,3.6,15.5,6.6,18.7c3.1,3.2,6.8,4.9,10.5,4.9c2.7,0,6.7-0.9,10.6-4.9c5.7-6.1,6.6-14.3,6.6-18.7
			c0-7.6-2.2-13.8-6.6-18.6C64.6,394.2,61,392.5,57.1,392.5L57.1,392.5z M57.1,432.3c-0.7,0-1.4-0.4-2-1.2c-1-1.4-1.6-4.7-1.6-8.4
			v-13.2c0-2.3,0.5-6.7,1.6-8.5c0.7-1.1,1.2-1.3,1.9-1.3c0.8,0,1.4,0.2,2.1,1.2c0.9,1.4,1.6,5.4,1.6,8.6v13.2c0,2.8-0.7,7.3-1.6,8.5
			C58.7,431.9,57.9,432.3,57.1,432.3L57.1,432.3z"/>
	</g>
	<g>
		<path class="st0" d="M93.4,437.7c-0.8,0-1.5-0.7-1.5-1.5v-1.4c0-0.8,0.7-1.5,1.5-1.5h1.5v-16.2h-7v16.2h1.5c0.8,0,1.5,0.7,1.5,1.5
			v1.4c0,0.8-0.7,1.5-1.5,1.5H76.2c-0.8,0-1.5-0.7-1.5-1.5v-1.4c0-0.8,0.7-1.5,1.5-1.5h2.1v-34.5h-2.1c-0.8,0-1.5-0.7-1.5-1.5V396
			c0-0.8,0.7-1.5,1.5-1.5h13.2c0.8,0,1.5,0.7,1.5,1.5v1.4c0,0.8-0.7,1.5-1.5,1.5h-1.5v14h7v-14h-1.5c-0.8,0-1.5-0.7-1.5-1.5V396
			c0-0.8,0.7-1.5,1.5-1.5h13.2c0.8,0,1.5,0.7,1.5,1.5v1.4c0,0.8-0.7,1.5-1.5,1.5h-2.1v34.5h2.1c0.8,0,1.5,0.7,1.5,1.5v1.4
			c0,0.8-0.7,1.5-1.5,1.5H93.4z"/>
		<path class="st0" d="M106.6,396v1.4H103v37.5h3.6v1.4H93.4v-1.4h3v-19.2h-10v19.2h3v1.4H76.2v-1.4h3.6v-37.5h-3.6V396h13.2v1.4h-3
			v17h10v-17h-3V396H106.6 M106.6,393H93.4c-0.8,0-1.5,0.3-2,0.8c-0.5-0.5-1.2-0.8-2-0.8H76.2c-1.7,0-3,1.3-3,3v1.4c0,1.7,1.3,3,3,3
			h0.6v31.5h-0.6c-1.7,0-3,1.3-3,3v1.4c0,1.7,1.3,3,3,3h13.2c0.8,0,1.5-0.3,2-0.8c0.5,0.5,1.2,0.8,2,0.8h13.2c1.7,0,3-1.3,3-3v-1.4
			c0-1.7-1.3-3-3-3H106v-31.5h0.6c1.7,0,3-1.3,3-3V396C109.6,394.3,108.3,393,106.6,393L106.6,393z M89.4,400.3L89.4,400.3
			c0.8,0,1.5-0.3,2-0.8c0.5,0.5,1.2,0.8,2,0.8h0v11h-4V400.3L89.4,400.3z M89.4,418.6h4v13.2h0c-0.8,0-1.5,0.3-2,0.8
			c-0.5-0.5-1.2-0.8-2-0.8h0V418.6L89.4,418.6z"/>
	</g>
	<g>
		<path class="st0" d="M123.4,437.7c-0.8,0-1.5-0.7-1.5-1.5v-1.4c0-0.8,0.7-1.5,1.5-1.5h1.6l-2-7.4h-6.7l-0.4,1.5
			c-0.3,1.2-0.7,3.5-0.7,4c0,1,0.5,1.4,0.7,1.5c0.2,0.1,0.7,0.2,2,0.4c0.8,0.1,1.3,0.7,1.3,1.5v1.4c0,0.8-0.7,1.5-1.5,1.5H108
			c-0.8,0-1.5-0.7-1.5-1.5v-1.4c0-0.8,0.6-1.4,1.4-1.5c1.2-0.1,1.7-0.6,2.1-1.5c0.5-1.1,0.9-2.5,1.2-3.8l0.1-0.5l8.3-32.5
			c0.2-0.7,0.8-1.1,1.5-1.1h2.8c0.7,0,1.3,0.5,1.5,1.1l9.7,38.3h1.4c0.8,0,1.5,0.7,1.5,1.5v1.4c0,0.8-0.7,1.5-1.5,1.5H123.4z
			 M122,421.6l-2.3-9.2l-2.4,9.2H122z"/>
		<path class="st0" d="M123.9,395.5l10,39.4h2.6v1.4h-13v-1.4h3.5l-2.8-10.4h-9l-0.7,2.6c-0.2,1-0.7,3.6-0.7,4.4
			c0,1.5,0.7,2.4,1.5,2.8c0.4,0.2,1,0.4,2.5,0.6v1.4H108v-1.4c2-0.1,2.8-1.3,3.3-2.3c0.7-1.4,1-3.1,1.4-4.5l8.3-32.5H123.9
			 M115.4,423.1h8.5l-4.2-16.7L115.4,423.1 M123.9,392.5h-2.8c-1.4,0-2.6,0.9-2.9,2.3l-8.3,32.5l-0.1,0.5c-0.3,1.2-0.6,2.5-1.1,3.5
			c-0.3,0.6-0.4,0.6-0.8,0.6c-1.6,0.1-2.8,1.4-2.8,3v1.4c0,1.7,1.3,3,3,3h9.8c1.3,0,2.4-0.8,2.8-1.9c0.4,1.1,1.5,1.9,2.8,1.9h13
			c1.7,0,3-1.3,3-3v-1.4c0-1.7-1.3-3-3-3h-0.2l-9.4-37.1C126.4,393.4,125.3,392.5,123.9,392.5L123.9,392.5z M119.3,420.1l0.4-1.6
			l0.4,1.6H119.3L119.3,420.1z M117.5,427.5h4.3l1.2,4.4c-1.1,0.1-2,0.9-2.4,1.9c-0.4-1-1.3-1.8-2.4-1.9c-0.8-0.1-1.2-0.2-1.4-0.2
			c0,0,0-0.1,0-0.2c0-0.4,0.4-2.5,0.7-3.6L117.5,427.5L117.5,427.5z"/>
	</g>
	<g>
		<path class="st0" d="M151.2,438.2c-6.7,0-10.2-4.7-12.2-8.2c-1.6-2.9-3.5-7-3.5-13.8c0-6.1,2.1-12.7,5.3-16.9
			c3.6-4.6,7.7-5.3,9.8-5.3c1.5,0,3.2,0.3,5,1c0.3,0.1,0.6,0.2,0.8,0.3c0.4,0.2,0.8,0.4,1,0.4c0,0,0.1,0,0.1,0
			c0.2-0.7,0.8-1.2,1.5-1.2h1.6c0.8,0,1.5,0.7,1.5,1.5v13c0,0.8-0.7,1.5-1.5,1.5h-1.2c-0.8,0-1.4-0.6-1.5-1.3c-0.3-2.3-1-4.5-2-6.6
			c-0.9-1.9-2.5-4.2-4.9-4.2c-0.6,0-2.7,0.2-3.8,3.1c-1,2.5-1.2,6.2-1.2,9.9v8.4c0,5.7,0.5,9.1,1.7,11.4c1,1.9,2.4,2.8,3.2,2.8
			c0.7,0,3.3-0.3,5.3-4.6c0.9-2,1.6-4,1.9-7.5c0.1-0.8,0.7-1.4,1.5-1.4h1.5c0.4,0,0.8,0.2,1.1,0.5s0.4,0.7,0.4,1.1l-0.4,14.3
			c0,0.8-0.7,1.5-1.5,1.5h-1.5c-0.6,0-1.2-0.4-1.4-1c-0.2-0.4-0.3-0.6-0.3-0.6l0,0c0,0,0,0-0.1,0c-0.3,0-0.9,0.3-1.4,0.6
			c-0.2,0.1-0.5,0.2-0.7,0.4C154.5,437.5,153.2,438.2,151.2,438.2z"/>
		<path class="st0" d="M150.6,395.5c1.6,0,3.1,0.4,4.4,0.9c1.2,0.5,1.8,0.8,2.3,0.8c0.4,0,1.4-0.2,1.6-1.2h1.6v13h-1.2
			c-0.4-3.2-1.4-5.6-2.1-7c-0.7-1.6-2.6-5.1-6.2-5.1c-1.8,0-4,1-5.2,4c-1.1,2.6-1.3,6.3-1.3,10.4v8.4c0,5.7,0.5,9.5,1.9,12.1
			c1.2,2.3,3,3.6,4.5,3.6c1.7,0,4.5-1,6.6-5.4c1.1-2.3,1.8-4.5,2.1-8h1.5l-0.4,14.3h-1.5c-0.5-1.3-1.2-1.5-1.8-1.5
			c-0.9,0-1.8,0.6-2.8,1.1c-0.7,0.4-1.8,0.9-3.6,0.9c-5.1,0-8.3-2.9-10.9-7.4c-1.7-3.1-3.3-6.9-3.3-13.1c0-6.5,2.3-12.5,5-16
			C144.7,396.7,147.9,395.5,150.6,395.5 M150.6,392.5c-2.4,0-7,0.8-11,5.9c-3.4,4.4-5.6,11.4-5.6,17.8c0,7.1,1.9,11.5,3.6,14.6
			c2.2,3.9,6,9,13.5,9c2.4,0,4-0.8,4.8-1.2l0.1,0c0.3-0.1,0.5-0.3,0.7-0.4c0,0,0.1,0,0.1-0.1c0.6,0.7,1.4,1.2,2.4,1.2h1.5
			c1.6,0,3-1.3,3-2.9l0.4-14.3c0-0.8-0.3-1.6-0.9-2.2c-0.6-0.6-1.3-0.9-2.1-0.9h-1.5c-1.6,0-2.8,1.2-3,2.7c-0.3,3.2-0.9,5.1-1.8,7
			c-1.7,3.5-3.6,3.7-3.9,3.7c-0.2,0-1.1-0.4-1.9-2c-1.1-2-1.5-5.2-1.5-10.7v-8.4c0-3.5,0.1-7.1,1.1-9.3c0.8-1.9,2-2.2,2.5-2.2
			c1.7,0,2.9,2.1,3.5,3.4c0.9,2,1.6,4,1.8,6.1c0.2,1.5,1.5,2.6,3,2.6h1.2c1.7,0,3-1.3,3-3v-13c0-1.7-1.3-3-3-3H159
			c-0.8,0-1.6,0.3-2.2,0.9c-0.2-0.1-0.4-0.2-0.7-0.3c0,0,0,0,0,0C154.1,392.8,152.3,392.5,150.6,392.5L150.6,392.5z"/>
	</g>
	<g>
		<path class="st0" d="M170.5,437.7c-0.8,0-1.5-0.7-1.5-1.5v-1.4c0-0.8,0.7-1.5,1.5-1.5h2.1v-34.5c-2.2,0.2-3.5,2.7-4.1,4.1
			c-0.8,1.8-1.1,3.6-1.5,6.2c-0.1,0.7-0.7,1.3-1.5,1.3H164c-0.4,0-0.8-0.2-1.1-0.5s-0.4-0.7-0.4-1.1l0.3-13c0-0.8,0.7-1.5,1.5-1.5
			h26.3c0.8,0,1.5,0.7,1.5,1.5l0.3,13c0,0.4-0.1,0.8-0.4,1.1s-0.7,0.5-1.1,0.5h-1.6c-0.7,0-1.4-0.6-1.5-1.3
			c-0.3-2.2-0.9-4.7-1.6-6.2c-1.5-3.6-3.1-4.1-4-4.2v34.5h2.1c0.8,0,1.5,0.7,1.5,1.5v1.4c0,0.8-0.7,1.5-1.5,1.5H170.5z"/>
		<path class="st0" d="M190.6,396l0.3,13h-1.6c-0.3-2.2-0.9-4.8-1.7-6.6c-2-4.9-4.6-5.1-5.7-5.1h-1.2v37.5h3.6v1.4h-13.9v-1.4h3.6
			v-37.5H173c-3.6,0-5.3,3.9-5.8,5.1c-0.9,2-1.2,4-1.6,6.6H164l0.3-13H190.6 M190.6,393h-26.3c-1.6,0-3,1.3-3,2.9l-0.3,13
			c0,0.8,0.3,1.6,0.9,2.2c0.6,0.6,1.3,0.9,2.1,0.9h1.6c1.5,0,2.8-1.1,3-2.6c0.4-2.5,0.7-4.2,1.4-5.8c0,0,0,0,0-0.1
			c0.2-0.4,0.6-1.3,1.2-2.1v30.4h-0.6c-1.7,0-3,1.3-3,3v1.4c0,1.7,1.3,3,3,3h13.9c1.7,0,3-1.3,3-3v-1.4c0-1.7-1.3-3-3-3h-0.6v-30.4
			c0.4,0.5,0.8,1.2,1.1,2.1c0.6,1.5,1.2,3.7,1.5,5.9c0.2,1.5,1.5,2.6,3,2.6h1.6c0.8,0,1.6-0.3,2.1-0.9s0.9-1.4,0.9-2.2l-0.3-13
			C193.6,394.3,192.2,393,190.6,393L190.6,393z"/>
	</g>
	<g>
		<path class="st0" d="M219.7,437.7c-0.8,0-1.5-0.7-1.5-1.5v-1.4c0-0.8,0.7-1.5,1.5-1.5h2.1v-34.5h-2.1c-0.8,0-1.5-0.7-1.5-1.5V396
			c0-0.8,0.7-1.5,1.5-1.5h13.9c0.8,0,1.5,0.7,1.5,1.5v1.4c0,0.8-0.7,1.5-1.5,1.5h-2.1v34.5h2.1c0.8,0,1.5,0.7,1.5,1.5v1.4
			c0,0.8-0.7,1.5-1.5,1.5H219.7z M194.5,437.7c-0.8,0-1.5-0.7-1.5-1.5v-1.4c0-0.8,0.7-1.5,1.5-1.5h2.1v-34.5h-2.1
			c-0.8,0-1.5-0.7-1.5-1.5V396c0-0.8,0.7-1.5,1.5-1.5h13.9c0.8,0,1.5,0.7,1.5,1.5v1.4c0,0.8-0.7,1.5-1.5,1.5h-2.1v12.9h0.3
			c6.2,0,9.6,2.6,11.1,4.2c1.1,1.3,3,4.1,3,8.9c0,1.8-0.3,6.2-3.1,9.2c-3.3,3.6-8.6,3.6-10.3,3.6H194.5z M206.3,433.3
			c1.6,0,2.6-0.5,3.1-1.4c0.5-0.8,0.8-2.6,0.8-4.8v-4.8c0-2.2-0.3-4.1-0.7-4.8c-0.3-0.5-1.1-1.4-2.9-1.4h-0.3L206.3,433.3
			L206.3,433.3z"/>
		<path class="st0" d="M233.6,396v1.4h-3.6v37.5h3.6v1.4h-13.9v-1.4h3.6v-37.5h-3.6V396H233.6 M208.4,396v1.4h-3.6v15.9h1.8
			c5.2,0,8.4,2,10,3.7c1.3,1.4,2.6,4,2.6,7.9c0,2.8-0.7,6.1-2.7,8.2c-2.7,3-6.9,3.1-9.2,3.1h-12.8v-1.4h3.6v-37.5h-3.6V396H208.4
			 M204.8,434.8h1.5c1,0,3.2-0.1,4.4-2.2c0.8-1.3,1-3.9,1-5.6v-4.8c0-0.5,0-4.1-1-5.7c-0.5-0.8-1.7-2.1-4.2-2.1h-1.8V434.8
			 M233.6,393h-13.9c-1.7,0-3,1.3-3,3v1.4c0,1.7,1.3,3,3,3h0.6V417c-0.5-0.9-1-1.6-1.5-2c-1.6-1.7-5-4.4-11-4.7v-9.9h0.6
			c1.7,0,3-1.3,3-3V396c0-1.7-1.3-3-3-3h-13.9c-1.7,0-3,1.3-3,3v1.4c0,1.7,1.3,3,3,3h0.6v31.5h-0.6c-1.7,0-3,1.3-3,3v1.4
			c0,1.7,1.3,3,3,3h12.8c1.6,0,5.9,0,9.4-2.4c0.3,1.4,1.5,2.4,2.9,2.4h13.9c1.7,0,3-1.3,3-3v-1.4c0-1.7-1.3-3-3-3h-0.6v-31.5h0.6
			c1.7,0,3-1.3,3-3V396C236.6,394.3,235.2,393,233.6,393L233.6,393z M207.8,431.5v-13.7c0.2,0.1,0.3,0.3,0.4,0.4c0,0,0,0,0,0
			c0.2,0.4,0.5,1.9,0.5,4v4.8c0,2.4-0.4,3.7-0.5,4C208.1,431.3,208,431.4,207.8,431.5L207.8,431.5z"/>
	</g>
	<g>
		<path class="st0" d="M238.4,437.7c-0.8,0-1.5-0.7-1.5-1.5v-1.4c0-0.8,0.7-1.5,1.5-1.5h2.1v-34.5h-2.1c-0.8,0-1.5-0.7-1.5-1.5V396
			c0-0.8,0.7-1.5,1.5-1.5H252c2.9,0,5.3,0.4,7.2,1.1c3.4,1.3,7.4,4.5,7.4,12.2c0,6.8-3.3,9.8-6.1,11.2c-3.2,1.5-7.5,1.6-8.7,1.6
			h-1.6v12.9h2.6c0.8,0,1.5,0.7,1.5,1.5v1.4c0,0.8-0.7,1.5-1.5,1.5H238.4z M250.8,416.1c1,0,2.5,0,3.5-0.7c1.7-1.2,1.7-3.9,1.7-6.1
			l0-5c0-2.1-0.2-4.5-1.6-5.1c-0.4-0.2-2.1-0.4-3.2-0.4h-1.1v17.3H250.8z"/>
		<path class="st0" d="M252,396c2,0,4.5,0.2,6.6,1c2.6,1,6.4,3.6,6.4,10.8c0,2.9-0.6,7.6-5.2,9.8c-2.7,1.3-6.6,1.5-8,1.5h-3.1v15.9
			h4.1v1.4h-14.3v-1.4h3.6v-37.5h-3.6V396H252 M248.7,417.6h2.2c1.2,0,3,0,4.4-0.9c2.6-1.8,2.3-5.5,2.3-8v-4.4
			c0-2.5-0.2-5.5-2.5-6.5c-0.7-0.3-2.6-0.6-3.7-0.6h-2.6V417.6 M252,393h-13.6c-1.7,0-3,1.3-3,3v1.4c0,1.7,1.3,3,3,3h0.6v31.5h-0.6
			c-1.7,0-3,1.3-3,3v1.4c0,1.7,1.3,3,3,3h14.3c1.7,0,3-1.3,3-3v-1.4c0-1.7-1.3-3-3-3h-1.1V422h0.1c1.3,0,5.9-0.1,9.3-1.8
			c3.2-1.6,6.9-5,6.9-12.5c0-6.6-2.9-11.4-8.3-13.5C257.7,393.3,255.1,393,252,393L252,393z M251.7,414.6v-14.3
			c0.8,0,1.8,0.2,2.2,0.3c0.2,0.1,0.7,0.7,0.7,3.7v4.4l0,0.6c0,1.8,0,4.2-1,4.9C253.1,414.5,252.4,414.6,251.7,414.6L251.7,414.6z"
			/>
	</g>
	<g>
		<path class="st0" d="M268.1,437.7c-0.8,0-1.5-0.7-1.5-1.5v-1.4c0-0.8,0.7-1.5,1.5-1.5h2.1v-34.5h-2.1c-0.8,0-1.5-0.7-1.5-1.5V396
			c0-0.8,0.7-1.5,1.5-1.5H282c0.8,0,1.5,0.7,1.5,1.5v1.4c0,0.8-0.7,1.5-1.5,1.5h-2.1v12.9h0.3c6.2,0,9.6,2.6,11.1,4.2
			c1.1,1.3,3,4.1,3,8.9c0,1.8-0.3,6.2-3.1,9.2c-3.3,3.6-8.6,3.6-10.3,3.6H268.1z M279.9,433.3c1.6,0,2.6-0.5,3.1-1.4
			c0.5-0.8,0.8-2.6,0.8-4.8v-4.8c0-2.2-0.3-4.1-0.7-4.8c-0.3-0.5-1.1-1.4-2.9-1.4h-0.3L279.9,433.3L279.9,433.3z"/>
		<path class="st0" d="M282,396v1.4h-3.6v15.9h1.8c5.2,0,8.4,2,10,3.7c1.3,1.4,2.6,4,2.6,7.9c0,2.8-0.7,6.1-2.7,8.2
			c-2.7,3-6.9,3.1-9.2,3.1h-12.8v-1.4h3.6v-37.5h-3.6V396H282 M278.4,434.8h1.5c1,0,3.2-0.1,4.4-2.2c0.8-1.3,1-3.9,1-5.6v-4.8
			c0-0.5,0-4.1-1-5.7c-0.5-0.8-1.7-2.1-4.2-2.1h-1.8V434.8 M282,393h-13.9c-1.7,0-3,1.3-3,3v1.4c0,1.7,1.3,3,3,3h0.6v31.5h-0.6
			c-1.7,0-3,1.3-3,3v1.4c0,1.7,1.3,3,3,3h12.8c1.9,0,7.7,0,11.4-4.1c3.1-3.3,3.5-8.2,3.5-10.2c0-5.4-2.1-8.5-3.4-9.9
			c-1.6-1.7-5-4.4-11-4.7v-9.9h0.6c1.7,0,3-1.3,3-3V396C285,394.3,283.7,393,282,393L282,393z M281.4,431.5v-13.7
			c0.2,0.1,0.3,0.3,0.4,0.4c0,0,0,0,0,0c0.2,0.4,0.5,1.9,0.5,4v4.8c0,2.4-0.4,3.7-0.5,4C281.7,431.3,281.6,431.4,281.4,431.5
			L281.4,431.5z"/>
	</g>
</g>
</svg>
