<?xml version="1.0" encoding="utf-8"?>
<!-- Generator: Adobe Illustrator 24.1.0, SVG Export Plug-In . SVG Version: 6.00 Build 0)  -->
<svg version="1.1" id="Слой_1" xmlns="http://www.w3.org/2000/svg" xmlns:xlink="http://www.w3.org/1999/xlink" x="0px" y="0px"
	 viewBox="0 0 306.1 436.7" style="enable-background:new 0 0 306.1 436.7;" xml:space="preserve">
<style type="text/css">
	.st0{fill:#FFFFFF;}
</style>
<g>
	<path class="st0" d="M284.1,223.4c-0.8,0.1-1.7,0.1-2.5,0.2c-0.7,0-1.4,0-2,0c-0.6,0-1.1,0.3-1.6,0.7c-1,0.9-2,1.8-3.1,2.6
		c-0.5,0.3-1.2,0.5-1.8,0.5c-1,0.1-2.1,0-3.1,0c-0.3,0-0.7-0.1-0.7,0.4c0,0.1-0.5,0.3-0.8,0.3c-1.2,0-2.3,0-3.5,0
		c-2.2-0.1-4.4,0.5-6.5,0.7c-1.3,0.1-2.6,0.4-3.9,0.7c-0.9,0.2-1.7,0.5-2.5,0.9c-1,0.6-2.2,0.8-3.3,1c-4.1,0.9-8.1,1.7-12.2,2.6
		c-3,0.6-6,1.2-9,1.8c-1,0.2-1.8,0.7-2.1,1.7c-0.3,1-0.5,2.1-0.7,3.1c-0.1,0.3,0,0.7-0.1,1.2c-0.6,0.1-1.2,0.2-1.9,0.3
		c-0.4-1.6-0.7-3.1-1.1-4.5c-1.1-0.1-1.8,0.5-2.7,0.7c0.2,0.5,0.3,1,0.5,1.4c0.9,1.7,1.1,3.5,1.2,5.3c0.1,2.5,0,5,0,7.4
		c0,0.8-0.2,1.7-0.3,2.6c-1.6,0.1-3.1,0.2-4.7,0.3c-1.5,0.2-3.1,0.5-4.6,0.7c-1.5,0.2-3.1,0.3-4.8,0.5c0-0.5-0.1-0.9-0.1-1.3
		c0-1.3,0-2.6,0-4c0-1-0.8-1.5-1.6-0.9c-0.9,0.7-1.9,0.7-2.9,0.8c-4,0.1-7.9,0.1-11.9,0.3c-1.9,0.1-3.8,0.4-5.7,0.6
		c-1.8,0.2-3.6,0.5-5.3,0.7c-2.1,0.3-4.2,0.7-6.2,1.1c-2.2,0.5-4.4,1-6.6,1.5c-2.8,0.6-4.2,2.6-4.9,5.2c-0.2,0.8-0.3,1.6-0.4,2.4
		c-0.2,0.1-0.5,0.2-0.8,0.2c-1,0-1.2-0.2-1.3-1.2c-0.1-1.3-0.1-2.6-0.8-3.8c-0.5-1-0.5-1-1.7-0.8c-1.6,0.3-3.1,0.6-4.7,0.9
		c-0.2,0-0.4,0.1-0.8,0.3c1.7,2.2,2.3,4.7,2.8,7.4c0.4,0,0.8,0.1,1.1,0.1c0.6,0,0.9,0.3,0.9,0.9c0,1.3,0,2.6,0,4
		c0,0.6-0.4,0.9-0.9,1.2c-1.7,1-3.4,1.9-5.1,2.9c-0.9,0.5-1.8,1.2-2.7,1.7c-1.6,0.9-3.3,1.8-4.9,2.7c-0.7,0.4-1.4,0.3-2.1,0.2
		c-0.2,0-0.5-0.4-0.6-0.7c-0.1-0.3-0.1-0.6-0.1-1c0-4.8,0-9.7,0-14.5c0-0.1,0-0.2-0.1-0.4c-1.1-0.2-2.3-0.2-3.4,0.2
		c-0.4,0.2-0.8,0.3-1.2,0.4c-0.9,0.1-1.8,0.2-2.7,0.2c-1.8,0.1-3.7,0.2-5.5,0.3c-3.8,0-7.7,0-11.5,0c-2.7,0-5.4,0.1-8.1,0.2
		c-2.1,0.1-4.2,0.2-6.3,0.5c-2.5,0.3-5,0.7-7.6,1.1c-3.1,0.4-6.2,0.8-9.2,1.3c-2.1,0.3-4.2,0.7-6.2,1.3c-0.7,0.2-1.3,0.8-1.7,1.4
		c-1,1.5-1.9,3-2.8,4.6c-0.5,0.8-0.9,1.7-1.4,2.5c-0.1,0.2-0.3,0.3-0.6,0.5c-0.1-0.3-0.3-0.5-0.3-0.7c-0.1-1.4-0.2-2.7-0.3-4.1
		c0-0.1,0-0.2,0-0.4c-0.2-1.5-0.6-1.8-2-1.4c-0.5,0.2-1,0.4-1.5,0.5c0.3,1.1,0.6,2.1,0.9,3.1c0.2,0.6,0.1,1.1,0,1.6
		c-0.1,0.6,0,1.2,0,1.7c0.1,0.1,0.2,0.2,0.3,0.2c1.5,0.2,1.6,0.3,1.1,1.7c-1,2.9-2,5.7-2.9,8.6c-0.9,2.7-1.7,5.4-2.6,8.1
		c-0.7,2.1-1.5,4.3-2.2,6.4c-0.3,0.9-0.6,1.8-0.9,2.7c-0.2,0.1-0.4,0.1-0.5,0.1c-1.5,0.1-2-0.3-2-1.8c0-2.3,0.1-4.6,0.2-6.9
		c0-0.1,0-0.2,0-0.4c0.1-2.3,0.1-4.5,0.3-6.8c0.3-4,0.5-8,0.5-12.1c0-0.9,0.3-1.8,0.4-2.7c0-0.2,0-0.5,0-0.8
		c-0.8,0.2-1.4,0.4-2.2,0.7c-0.1-0.6-0.1-1-0.1-1.5c0-2.7,0-5.4,0-8c0-0.3,0-0.6,0-1c-0.1-0.7-0.2-0.7-1.2-0.6c0,0.4,0,0.8,0,1.3
		c0,9.9,0,19.8,0,29.6c0,2.3,0.1,4.5,0.2,6.8c0,0.2,0,0.6,0.1,0.7c0.9,0.7,0.5,1.6,0.5,2.6c-0.9,0-1.8,0.2-2.6,0.1
		c-1.7-0.2-2.8,0.3-3.6,1.9c-0.3,0.7-0.9,1.2-1.4,1.8c-0.2,0.2-0.5,0.5-0.6,0.7c-0.4,0.6-0.8,1.3-1.2,2c0.2,0.1,0.3,0.1,0.4,0.1
		c0.5,0.1,0.7,0.5,0.6,1c-0.1,0.5-0.4,0.7-0.9,0.7c-1.5,0-3,0-4.6,0c-1,0-2,0-3,0c0-0.6,0-1,0-1.5c0.6-0.1,1.1-0.1,1.7-0.2
		c0-0.2,0.1-0.5,0-0.6c-1-1.3-0.5-2.8-0.5-4.2c0-0.3,0.1-0.5,0.1-0.8c0-0.5-0.2-0.8-0.7-0.8c-1.8,0-3.6,0-5.5,0
		c-0.1,1.1-0.1,2.2,0,3.3c0.2,1.2,0.3,2.4,0.4,3.7c0,0.9-0.2,1.1-1,1.1c-1,0-2.1,0-3.1,0c-0.1,0.9-0.2,1.7-0.4,2.5
		c-0.1,0.6-0.3,1.2-0.5,1.7c-0.1,0.3-0.4,0.6-0.6,0.7c-0.8,0.3-1.6,0.4-2.5,0.6c-0.4-1.1-0.3-2.1-0.1-3.1c0.4-3,1-6.1,1.5-9.1
		c0.1-0.5,0.4-1.1-0.3-1.4c-0.7-0.3-1.6,0-2,0.6c-0.8,1.3-1.5,2.5-2.3,3.8c-0.4,0.6-0.7,1.3-1.1,2c-0.4,0.7-1,1.1-1.8,1.1
		c-1.6-0.1-3.3-0.2-4.9-0.2c-0.9,0-1.7,0.1-2.7,0.2c0-0.7,0-1.4,0-2.1c1.5-0.3,1.6-0.3,1.8-1.8c0.2-1.8,0.7-3.6,0.4-5.5
		c0-0.2,0-0.3,0-0.5c0.4-2,0.8-3.9,1.1-5.9c0.3-1.6,0.5-3.1,0.7-4.7c0-0.3,0.1-0.5,0.2-0.9c0.6,0.4,0.6,1,0.7,1.5c0.8,3,1.5,6,2.3,9
		c0.1,0.3,0.1,0.6,0.2,0.9c0.1,1.7,0.1,3.5,0.3,5.2c0,0.7,0.2,1.5,0.3,2.4c0.5-0.4,0.7-0.8,0.9-1.3c1.1-2.1,2.2-4.2,3.3-6.2
		c0.1-0.3,0.2-0.6,0.2-0.9c0-0.4,0-0.8,0-1.2c0-12.5,0-25,0-37.4c0-1.5,0.1-2.9,0.8-4.3c0.3-0.6,0-1.2-0.6-1.7
		c-0.5-0.3-1.4-0.4-1.8,0c-0.5,0.4-0.9,0.8-1.1,1.5c-0.5,1.7-0.6,3.4-0.6,5.1c0,8.4,0,16.7,0,25.1c0,0.5,0,1,0,1.5
		c-1,0.2-1.9,0.5-2.5-0.5c-0.1-0.1-0.3-0.2-0.4-0.2c-1,0-2.1,0-3.1,0c-0.1,0-0.3,0.1-0.4,0.2c-0.4,1.1-1.3,0.5-2.1,0.7
		c0-0.7-0.1-1.3-0.1-1.9c0-11.1,0-22.2,0-33.2c0-0.4,0-0.8,0-1.2c0-0.2-0.1-0.6-0.2-0.7c-0.8-0.3-0.9-1-1.2-1.7
		c-0.1-0.3-0.5-0.5-0.8-0.6c-0.3-0.1-0.6,0-1,0c-2.6,0-5.3,0-7.9,0c-0.7,0-1.5,0.2-2.2,0.3c0-0.2,0-0.5,0-0.7
		c3.4-1.2,6.8-2.4,10.2-3.6c2.6-0.9,5.2-1.9,7.9-2.8c2.1-0.7,4.2-1.4,6.3-2.1c1.2-0.4,2.4-0.2,3.5-0.1c0.9,0.1,1.7,0.2,2.7,0.3
		c0-0.7,0.1-1.2,0.1-1.8c0-15.5,0-31,0-46.6c0-0.9,0.1-1.8,0.2-2.7c0-0.3,0-0.6,0-1c-0.1-1.3-0.1-2.5-0.2-3.8c0-0.3,0.1-0.6,0.1-0.9
		c0-0.8,0-1.7,0-2.5c0-0.4-0.2-0.8-0.1-1.2c0.4-1.3-0.1-2.5-0.2-3.8c-0.3-0.1-0.6-0.2-0.8-0.2c-1.7,0-3.3-0.1-5,0.3
		c-0.7,0.2-1.5,0.2-2.2,0.3c-2.2,0.3-4.3,0.5-6.5,0.8c-0.4,0-0.7,0.2-1.1,0.2c-0.2,0-0.5-0.1-0.9-0.2c7.6-7.1,14.1-14.9,21.9-21.5
		c-0.4-0.9-1.5-1-1.8-1.9c0.1-0.1,0.2-0.2,0.2-0.2c2.6,0,5.2,0.1,7.8,0.2c1.3,0,2.6,0,3.8,0c0.9,0,1-0.1,1-1c0-0.8-0.1-1.6-0.2-2.4
		c0-0.5-0.1-1-0.1-1.6c0-7,0-14,0-21c0-0.8-0.1-1.6-0.2-2.4c0-0.1,0-0.2,0-0.4c0-0.8,0.8-1.1,1.1-1.7c0.3-0.6,0.5-1.3,1.4-1.3
		c0.1,0,0.1-0.1,0.2-0.2c-0.1-0.7-0.7-1-1.2-1.4c-0.6-0.5-1.3-0.8-1.9-1.2c-0.7-0.4-1-1-1-1.8c-0.1-1.8-0.5-3.6,0.2-5.3
		c0.6-1.6,1.4-3.1,2.2-4.6c1.3-2.3,2.8-4.5,4-6.9c1-2,1.7-4.2,2.6-6.3c1-2.6,1.8-5.4,1.9-8.2c0-0.4,0.1-0.7,0.2-1.1
		c0.1-0.6,0.2-1.2-0.2-1.9c-0.5-1-0.2-2.1-0.1-3.2c0.1-0.6,0.3-1.1,0.5-1.8c0.9,0.5,1.8,0.7,2.7,0.4c-0.8-0.5-1.7-0.6-2.1-1.7
		c0.5-0.7,0.2-1.4-0.1-2.1c-0.2-0.5-0.2-0.9-0.1-1.5c0.3-1.6,0.6-3.1,0.2-4.7c-0.1-0.6-0.1-1.3-0.1-1.9c0-0.6-0.2-1-0.8-1.2
		c-0.2,0-0.3-0.1-0.4-0.2c-0.6-0.4-0.7-0.9-0.3-1.5c0.1-0.2,0.2-0.3,0.3-0.5c0.1-0.1,0.1-0.3,0.2-0.5c0.2,0,0.4,0,0.6,0
		c0.1,0,0.3,0,0.6,0.1c0-2.1,0.2-4.2-0.1-6.3c-1.1,0-2,0-3,0c-0.5,0-0.5,0-1.5-0.8c0-0.1,0-0.2,0-0.2c0.3-1.4,1.5-1.3,2.5-1.5
		c0.6-0.1,1.2,0,1.9,0c0-0.5,0.1-0.9,0.1-1.2c0-0.5-0.2-0.7-0.6-0.9c-1.2-0.5-1.2-0.5-0.8-1.7c0.1-0.2,0.1-0.4,0.2-0.6
		c0.4-0.1,0.8-0.2,1.2-0.3c0.1-0.3,0.1-0.7,0.2-1c0.1-0.5,0.5-0.7,1-0.7c0.5,0,0.8,0.3,0.9,0.8c0.1,0.5,0.2,1,0.2,1.5
		c0.6,0,1.1-0.1,1.4,0c0.2,0.1,0.3,0.6,0.4,1c0.1,0.9-0.3,1.1-1.7,1.3c0,0.1-0.1,0.2-0.1,0.3c-0.2,1.6,0.4,2.1,2,1.8
		c0.8-0.1,1.6-0.1,2.4-0.2c0.1,0.8,0.2,1.4,0.2,2c0,0.5-0.3,0.7-0.8,0.8c-0.6,0-1.2,0-1.8,0c-0.5,0-1.1-0.1-1.8-0.1
		c0,2.4,0,4.7,0,7.1c0.4,0.2,1.2-0.2,1.5,0.5c0.2,0.5,0.4,1.1,0.3,1.6c-0.1,0.7-0.9,1-1.9,0.7c0,1.3,0,2.7,0,4
		c0,0.6,0.1,1.1,0.1,1.7c0,1.1,0.4,1.9,1.4,2.4c1.5,0.8,1.6,2.2,0.3,3.2c-0.8,0.6-0.9,1.3-0.7,2.2c0.1,0.5,0.2,1,0.2,1.5
		c0,0.3,0,0.6-0.1,0.9c-0.1,0.2-0.2,0.4-0.4,0.6c-0.9,1-0.8,2.2-0.4,3.4c0.8,2.4,1.5,4.9,2.3,7.3c0.6,1.9,1.3,3.7,2,5.6
		c1.1,2.9,2.9,5.5,4.5,8.1c1.1,1.7,2.1,3.5,2.4,5.6c0.2,1.3,0.1,2.6,0.1,3.9c-0.1,1.8-1,3.1-2.5,4.1c-0.1,0.1-0.2,0.2-0.3,0.3
		c0.2,0.5,0.2,1,0.9,1.2c0.1,0,0.2,0.2,0.3,0.3c0.3,0.6,0.6,1.2,0.9,1.8c-1,0.6-0.6,1.8-0.8,2.7c-0.3,1-0.3,2-0.6,3.1
		c-0.1-0.3-0.3-0.6-0.4-0.9c-0.2-0.5-0.4-1-0.6-1.4c-0.7-1.3-1.7-1.9-3.2-1.8c-1.4,0.1-2.9,0-4.3,0c-0.9,0-1.7,0.1-2.6,0.3
		c-0.3,0.1-0.7,0.3-0.9,0.5c-2.1,1.7-3.2,4-3.9,6.7c-0.6,2.3-0.4,4.6-0.4,6.9c0,1.1,0.3,2.3,0.4,3.4c0,0.2,0,0.3,0.1,0.5
		c0.1,2.2,0.1,4.4,0.3,6.6c0.1,1.5,0,3.1,0.8,4.5c0.8,1.5,1.9,2.5,3.6,2.9c0.8,0.2,1.7,0.6,2.5,0.8c2.3,0.6,4.5,0.5,6.5-0.8
		c0.3-0.2,0.6-0.4,0.8-0.7c0.6-0.8,1.4-1.3,2.4-1.3c0.5,0,1-0.1,1.5-0.2c0.8-0.1,1.6-0.2,2.4-0.3c1.7-0.2,3.3-0.3,5-0.6
		c0.4-0.1,0.7-0.1,1.1,0.2c0.8,0.6,1.7,1.2,2.6,1.8c2-1.6,4.3-2.8,6.1-4.8c0.5-0.6,1-1.2,1.4-1.8c1.4-2.4,2.7-4.9,3.6-7.5
		c0.1-0.3,0.1-0.6,0.2-0.9c0.2-1.9,0.8-3.8,0.7-5.8c0-0.2,0-0.4,0-0.6c0.2-1.4,0.1-1.4-1.2-2.2c-0.4-0.3-0.8-0.6-1.1-1.1
		c-0.4-0.6-0.3-1.4,0.3-1.7c1.3-0.6,1.3-1.8,1.5-2.9c0.3-2,0.5-4.1,0.4-6.2c0-0.6-0.2-1.1-0.8-1.3c-0.3-0.1-0.5-0.3-0.8-0.6
		c-0.6-0.7-0.3-1.7,0.5-1.9c0.3-0.1,0.7-0.1,1.1-0.2c0.1-0.2,0.2-0.5,0.2-0.7c0-1.5,0-3,0-4.4c0-0.9-0.2-1.1-1.1-1
		c-0.5,0-1,0.2-1.5,0.3c-0.9,0.2-1.1,0.1-1.6-0.7c-0.2-0.2-0.4-0.4-0.5-0.5c0.3-1.4,1.2-1.7,2.5-1.5c0.5,0.1,0.9-0.1,1.4-0.2
		c1.1-0.1,1.2-0.2,1.1-1.2c0-0.2-0.1-0.3-0.1-0.6c-0.3-0.1-0.7-0.1-1-0.2c-1-0.2-1.1-0.4-1.2-1.5c0-0.8,0.1-0.8,1.1-1.1
		c0.1,0,0.2-0.1,0.2-0.1c0.5-0.6,0.8-1.2,1.3-1.7c0.3-0.4,0.7-0.4,1.1-0.3c0.4,0.1,0.6,0.4,0.7,0.9c0,0.4,0.1,0.9,0.1,1.3
		c0.9,0.1,1.9,0,1.9,1.2c0.1,1.5-1.3,1-2.1,1.5c0.1,0.6,0.2,1.2,0.3,1.8c1,0,1.9,0.1,2.9,0c1.1-0.1,1.4,0,1.4,1.1c0,0.5,0,0.9,0,1.6
		c-1.5,0-2.8,0-4.3,0c0,0.6,0,1.1,0,1.5c0,1.7-0.1,3.4-0.1,5.1c0,0.3,0.2,0.6,0.4,0.8c0.3,0.3,0.6,0.5,0.9,0.8
		c0.7,0.7,0.4,1.5-0.6,1.8c-0.3,0.1-0.5,0.1-1,0.1c0.1,1.2,0.2,2.3,0.3,3.5c0.1,1.1,0.2,2.2,0.4,3.3c0.1,0.5,0.1,1.1,0.3,1.5
		c0.8,1.4,0.8,2.8-0.8,4.1c0.1,1.2,0.2,2.5,0.4,3.7c0.1,0.6,0.5,1.2,0.7,1.9c1,3,1.9,6,2.9,8.9c0.6,1.8,1.5,3.4,3.2,4.5
		c1.4,1,2.7,2.1,4.1,3.1c2,1.6,4,3.3,5.1,5.8c0.5,1.1,1,2.3,0.9,3.6c-0.1,0.9,0,1.9-0.1,2.7c-0.4,2.2-1.8,3.8-3.5,5.1
		c-0.7,0.5-1.4,1-2.2,1.6c2.3,2.6,4.6,5,7,7.7c-0.8,0.1-1.2,0.1-1.7,0.2c-1,0.1-2.1,0.1-3.1,0.3c-0.5,0.1-0.9,0.3-1.4,0.6
		c-0.5,0.4-1.2,0.5-2,0.7c0.1-0.1,0-0.1,0,0c0.3,0.4,0.2,0.7-0.2,0.8c-0.7,0.2-1.4,0.3-2.1,0.5c-0.4,0.1-0.8,0.2-1.3,0.3
		c1.8,1.4,2.1,3.2,1.6,5.2c0,0.1,0,0.2,0,0.4c-0.1,2.3-0.1,4.5-0.3,6.8c-0.1,1.7-0.3,3.5-0.5,5.3c-1.7,0-3.3,0-4.9,0
		c-0.5,0-0.8-0.4-0.8-0.9c0-0.4,0-0.7,0-1.1c0-3.6,0-7.1,0-10.7c0-1.6,0.2-3.2,1.4-4.7c-1.8,0.1-3.4,0.2-5.2,0.4
		c1.4,1.8,1,3.8,0.7,5.7c-0.2,1.2-0.2,2.4-0.3,3.6c-0.1,1.4-0.3,2.8-0.4,4.3c-0.1,0.8,0,1.6-0.1,2.4c0,0.6-0.2,1-0.8,1
		c-2.1,0.1-4.3,0.1-6.6,0c0-4.9,0-9.7,0-14.6c-1.8,0.3-2.2,0.7-2.2,2.2c0,0.2,0,0.3,0,0.5c-0.1,2.8-0.1,5.7-0.3,8.5
		c0,0.9-0.1,1.8-0.3,2.7c0,0.2-0.2,0.6-0.4,0.7c-0.7,0.1-1.3,0.2-2,0.1c-0.1,0-0.4-0.3-0.4-0.5c-0.1-0.3-0.1-0.7-0.1-1.1
		c0-3.2,0-6.4,0-9.6c0-0.7,0-1.4-0.4-1.9c-0.2-0.2-0.2-0.5-0.2-0.8c-0.1-1.2-0.2-2.5-0.3-3.7c0-0.7-0.2-1.2-0.9-1.6
		c-0.3-0.2-0.6-0.5-0.9-0.8c-0.6-0.6-1.1-1.3-2.1-1.1c-0.1,0-0.2-0.2-0.5-0.3c1.9-2.6,4.1-4.9,6.1-7.4c-1.2-1.7-2.9-1.7-4.6-1.5
		c-0.4,0-0.8,0.2-1.2,0.2c-4.2,0.1-8.3,0.2-12.5,0.3c-0.5,0-0.9,0-1.5,0.1c0.1,1.2,0.2,2.2,0.3,3.3c0,0.5,0.1,1,0.1,1.6
		c0,13.4,0,26.9,0,40.3c0,0.5,0,1,0,1.7c1-0.4,1.7-0.6,2.4-0.9c3.2-1.6,6.3-3.2,9.5-4.7c2-1,3.3-2.7,4.4-4.5c0.6-1-0.1-2.9-1.2-3.6
		c-0.3-0.2-0.8-0.3-1-0.6c-0.2-0.3-0.4-0.7-0.3-1.1c0-0.2,0.5-0.4,0.9-0.4c0.3-0.1,0.6,0,0.8,0c9.2,0,18.5,0,27.7,0
		c1.6,0,3.2,0.2,4.8,0.4c0.1,0,0.2,0.1,0.3,0.1c0.6,0.4,1.2,0.8,1.9,1.2c-0.3,0.6-0.7,1.1-1.4,1.4c-0.3,0.1-0.6,0.4-0.9,0.7
		c-0.6,0.5-0.5,1-0.2,1.7c1,2.3,2.7,3.8,4.8,4.9c0.9,0.5,1.9,1,2.9,1.5c0.1-0.2,0.2-0.3,0.1-0.4c-0.5-2.9,0.5-5.2,2.4-7.3
		c1.7-1.8,3.8-3.1,5.9-4.3c3.1-1.8,6.2-3.5,9.2-5.3c2.6-1.5,5.1-3,7.6-4.5c1.4-0.8,1.9-2.2,2.3-3.7c0.1-0.3-0.1-0.9-0.4-1
		c-0.6-0.3-0.6-0.7-0.6-1.2c0-0.6-0.1-1.2-0.6-1.5c0.3-1.8,0-1.9,2.2-1.9c1.1,0,2.2,0,3.4,0c0.7,0,1.3,0.2,2,0.2c0.6,0,1.3,0,1.9,0
		c0.5,0,0.9-0.2,1.4-0.2c7.3,0,14.6,0,22,0c1,0,2,0.1,3,0.3c0.6,0.2,1.2,0.1,1.7-0.4c1,0.5,1.9,1.1,2.9,1.6c1.5,0.7,3,1.4,4.6,2
		c3.3,1.2,6.5,2.5,9.9,3.5c3.8,1.1,7.5,2.2,11.4,2.8c0.8,0.1,1.6,0.3,2.4,0.5c2.7,0.5,5.4,1.1,8.2,1.6c2.1,0.3,4.2,0.5,6.3,0.8
		c1.9,0.3,3.8,0.6,5.8,0.9c1,0.1,2,0.2,3,0.3c0.7,0.1,1.5,0.2,2.2,0.2c1.7,0.2,3.4,0.3,5.1,0.5c0.4,0,0.9,0.2,1.3,0.2
		c2,0.3,4.1,0.5,6.1,0.7c1.5,0.2,3,0.5,4.5,0.7c1.4,0.2,2.8,0.3,4.2,0.5c1,0.1,2,0.3,2.9,0.6c0.7,0.2,1.1,0.7,1.1,1.4
		c-0.1,0.7-0.5,1.2-1.2,1.3c-1.4,0.3-2.7,0.6-4.1,0.8c-2.1,0.3-4.2,0.5-6.3,0.8c-0.7,0.1-1.4,0.1-2.1,0.2c-2.2,0.3-4.4,0.6-6.6,0.9
		c-1.7,0.2-3.4,0.5-5.1,0.7c-2,0.3-4,0.6-6,1c-2.7,0.6-5.5,1.2-8.1,1.9c-5.1,1.4-10,3.4-15,5.3c-0.1,0.1-0.3,0.1-0.7,0.4
		c0.7,0,1.1,0.1,1.5,0.1c7,0,14,0,21,0c1.6,0,3.2,0.2,4.8,0.2c0.7,0,1.4-0.2,2.1-0.2c5.2,0,10.5,0,15.7,0c1.4,0.5,2.8-0.1,4.1,0
		c5.3,0.4,10.7,0.2,16,0.2c0.4,0,0.9,0,1.3,0c0-0.1,0.1-0.2,0.1-0.2c-0.6-0.4-1.2-0.9-1.8-1.3c-1.8-1.4-3.7-2.7-5.4-4.2
		c-1.2-1-1.7-2.4-1.9-3.9c-0.2-1.3,0.3-2.4,1.1-3.5c0.9-1.3,1.8-2.5,2.6-3.8c1.2-2,1.7-4.2,1.7-6.5c0-1.1-0.2-2.3-0.5-3.4
		c-0.8-2.8-2.4-5.1-5-6.4c-3.3-1.6-6.7-3.2-10.1-4.6c-3.8-1.6-7.7-3.2-11.2-5.4c-1.8-1.1-3.4-2.5-5.1-3.7c-0.1-0.1-0.2-0.2-0.4-0.5
		c0.9,0.1,1.4,0.7,2,1c2.4,1.7,4.8,3.2,7.5,4.4c1,0.4,2.1,0.6,3.2,0.9c3.5,1.1,7,2.1,10.5,3.4c2.2,0.8,4.4,1.7,6.2,3.2
		c2.2,1.8,4.1,4,4.9,6.8c0.7,2.6,0.8,5.2,0.3,7.8c-0.7,3.1-2.1,5.7-4.1,8.1c-1.4,1.7-0.9,2.9,0.3,4.4c0.5,0.7,1.3,1.2,2,1.7
		c3.6,2.5,7.1,4.9,10.7,7.4c0.2,0.1,0.4,0.2,0.5,0.2C284.1,223,284.1,223.2,284.1,223.4z M198.9,245.2c0,0.1,0,0.3,0,0.4
		c-0.4,0.1-0.7,0.3-1.1,0.3c-0.6,0.1-1.3,0.1-1.9,0.1c-5.2,0.1-10.3,0.3-15.5,0.4c-3,0.1-6,0.1-9,0.1c-0.4,0-0.9,0.1-1.3,0.1
		c-0.8,0.1-1.6,0.2-2.4,0.2c-9.7,0-19.4,0-29,0c-1.5,0-1.9,0.3-2.4,1.9c0.6,0,1.1,0,1.6,0c18.1,0,36.2,0,54.4,0c0.5,0,1,0,1.4,0
		c1.5,0.1,3,0.1,4.5,0.2c0.6,0,1.1,0,1.7,0.1c0.5,0,1,0.2,1.5,0.2c1.4,0,2.9,0,4.3,0c0.8,0,1.5-0.2,2.2-0.7c1.4-0.9,2.8-1.8,4.2-2.7
		c0.5-0.3,1.1-0.7,1.8-0.4c-0.8-0.8-1.6-1.6-2.5-2.3c-2-1.6-4.2-3.1-6.1-4.8c-2.5-2.3-3.1-4.8-1.1-7.8c0.9-1.4,1.8-2.8,2.6-4.1
		c0.4-0.6,0.8-0.9,1.5-0.6c0.4,0.1,1,0.1,1.4,0.1c15.5,0,31,0,46.4,0c2.6,0,5.3-0.1,7.9,0.2c2.7,0.3,5.4,0.2,8.1,0.3
		c1.2,0.1,2.3-0.3,3.2-1c0.7-0.6,1.4-1.2,2.2-1.9c-1,0-1.7,0.1-2.3,0c-1.8-0.3-3.7-0.3-5.5,0c-0.5,0.1-1,0-1.4,0
		c-1.4-0.1-2.8-0.2-4.1-0.2c-17.9,0-35.8,0-53.6,0c-0.4,0-0.9,0-1.3,0c-0.3,0-0.6-0.1-0.9-0.2c0.1-0.3,0.1-0.4,0.1-0.6
		c0.7-1.9,0.7-3.9,0.7-5.9c-0.1-1.6-0.5-3.1-1.4-4.5c-1.2-1.7-2.7-3-4.5-3.9c-3.6-1.7-7.1-3.4-10.7-5.2c-2.2-1.1-4.3-2.4-6.3-3.7
		c-1.8-1.1-3-2.7-3.8-4.6c-0.1-0.2-0.3-0.5-0.4-0.6c-0.7,0-1.3,0.1-1.9,0.1c-2,0-4.1,0-6.1,0c-0.4,0-0.9,0-1.3,0.2
		c-2.4,0.9-4.9,1.8-7.3,2.6c-3.1,1.1-6.3,2.1-9.4,3.1c-2.2,0.6-4.4,1.1-6.6,1.7c-3.2,0.8-6.4,1.7-9.6,2.6c-1.6,0.4-3.1,0.9-4.6,1.7
		c-2.2,1.2-4.4,2.3-6.6,3.4c-1.1,0.6-1.2,1.1-0.9,2.3c0.3,1.1,1.1,1.8,2,2.3c2.6,1.7,5.4,3.1,8.3,4.2c2.6,0.9,5.2,1.9,7.9,2.7
		c1.7,0.5,3.4,1,5.1,1.4c3.1,0.7,6.1,1.4,9.2,1.8c2,0.3,4.1,0.6,6.2,0.6c0.4,0,0.8,0,1.2,0c1.5,0.1,3,0.3,4.5,0.4
		c1.9,0.1,3.8,0.2,5.7,0.3c0.1,0,0.2,0,0.2,0c1.8,0.2,3.5,0.5,5.3,0.7c0.6,0.1,1.3,0.2,1.9,0.2c2,0.3,4.1,0.5,6.1,0.9
		c1.9,0.3,3.8,0.7,5.7,1.1c0.5,0.1,1.2,0.2,1.7,0.8c-0.6,0-1.1,0.1-1.6,0.1c-1.6,0-3.1,0-4.7,0.1c-1.6,0.1-3.2,0.3-4.8,0.4
		c-2.3,0.2-4.6,0.4-6.9,0.6c-1.4,0.1-2.8,0.3-4.3,0.6c-1.8,0.3-3.6,0.5-5.4,0.9c-2.3,0.5-4.7,1-7,1.6c-4.8,1.1-9.5,2.4-14,4.6
		c-2.8,1.4-5.7,2.4-8.6,3.5c-2.6,1-1.9,0.3-3,2.8c0,0.1,0,0.2,0,0.4c0.4,0,0.9,0,1.3,0c9,0.1,18.1-0.2,27.1,0.2
		c5.4,0.3,10.8-0.1,16.2,0.2c4.8,0.2,9.6,0.1,14.4,0.1C198.1,245.2,198.5,245.2,198.9,245.2z M139.4,257.5c0-0.1,0.1-0.2,0.1-0.3
		c-0.1-0.1-0.1-0.2-0.2-0.3c-1-0.7-2-1.4-3-2.2c-0.6-0.5-1.2-1.2-1.6-1.9c-1.1-1.9-1.4-3.9-0.3-5.9c0.4-0.8,1-1.6,1.4-2.4
		c1.4-2.5,1.9-5.2,1.8-8.1c-0.1-4.1-1.9-7.2-5.5-9.1c-0.8-0.4-1.6-0.8-2.5-1.2c-1.8-0.9-3.5-1.9-5.3-2.9c-2.4-1.3-4.7-2.5-7.1-3.8
		c-2.5-1.4-4.7-3-5.8-5.8c-0.3-0.6-0.7-0.7-1.4-0.5c-1.7,0.4-3.5,0.7-5.3,1c-2.9,0.6-5.9,1-8.8,1.7c-4.1,0.9-8.1,1.8-12.1,2.7
		c-1,0.2-1.9,0.5-2.9,0.9c-2.3,0.8-4.6,1.7-6.9,2.6c-1.6,0.6-3.4,0.9-4.9,1.7c-1.9,1-3.9,1.7-5.8,2.5c-1.3,0.6-2.6,1.2-3.3,2.6
		c-1.1,2.1-1,3.3,0.3,5.1c1,1.2,2.3,2.1,3.6,2.9c3.7,1.9,7.6,3,11.6,3.8c2.2,0.4,4.4,0.8,6.7,1.2c1.1,0.2,2.3,0.3,3.4,0.5
		c1.6,0.2,3.1,0.4,4.7,0.6c1.6,0.2,3.1,0.4,4.7,0.6c1.8,0.2,3.5,0.4,5.3,0.7c1.3,0.2,2.6,0.3,3.9,0.5c1.5,0.2,3.1,0.4,4.6,0.6
		c1.4,0.2,2.7,0.4,4.1,0.6c1.6,0.2,3.2,0.4,4.8,0.6c1.7,0.2,3.3,0.4,5,0.6c1.1,0.1,2.3,0.2,3.4,0.3c0.4,0,0.8,0.2,1.2,0.4
		c-0.5,0.6-1.1,0.5-1.6,0.5c-2,0.1-3.9,0.2-5.9,0.3c-0.2,0-0.3,0-0.5,0.1c-2,0.2-4,0.4-5.9,0.6c-2.3,0.2-4.5,0.5-6.8,0.7
		c-1.3,0.1-2.5,0.3-3.8,0.5c-2.3,0.3-4.7,0.6-7,0.9c-1.8,0.2-3.6,0.5-5.4,0.8c-1.6,0.2-3.2,0.4-4.9,0.6c-1.2,0.2-2.4,0.4-3.7,0.6
		c-1.7,0.3-3.5,0.5-5.2,0.9c-2.9,0.7-5.8,1.6-8.6,2.4c-0.4,0.1-0.8,0.3-1.3,0.4c0,0.1,0,0.1,0.1,0.2c0.5,0,1,0,1.4,0
		c22.2,0,44.3,0,66.5,0c0.5,0,1,0,1.6,0.1C137.5,257.4,138.5,257.5,139.4,257.5z M42,243.7c0-0.7,0.1-1.2,0.1-1.8
		c0-11,0-22.1,0-33.1c0-7.9,0.1-15.8,0.2-23.7c0-1,0.1-2.1,0.4-3.1c0.6-2.7,2.1-4.6,4.8-5.5c1.4-0.5,2.9-0.6,4.4-0.4
		c3.4,0.4,6.3,3.8,6.3,7.2c0,2.3-0.1,4.6,0.2,6.9c0,0.3,0,0.6-0.1,0.8c-0.1,0.5-0.2,0.9-0.2,1.4c0,0.9,0.1,1.9,0.1,2.8
		c0,1,0.1,2,0.1,2.9c0,0.9-0.2,1.8-0.2,2.7c0,8,0,16.1,0,24.1c0,0.7-0.1,1.4-0.2,2.1c1.3-0.7,2.6-1.5,3.8-2.1c0.8-0.4,0.9-1,0.9-1.7
		c0.1-11.7-0.2-23.5,0.2-35.2c0.1-2.5,0-5,0-7.4c0-1,0-1.9,0-2.9c0-0.7-0.2-1.4-0.9-1.9c-3.2-2.1-6.3-4.3-9.5-6.5
		c-1.6-1.1-3.1-2.2-4.7-3.3c-0.8-0.6-0.9-0.6-1.8-0.1c-1.2,0.8-2.3,1.5-3.5,2.3c-2.7,1.8-5.3,3.6-8,5.4c-0.8,0.5-1.3,1.1-1.2,2.1
		c0.2,5.3-0.1,10.6,0.2,15.9c0.3,5.3,0.1,10.5,0.2,15.8c0.2,11.2,0.1,22.3,0.1,33.5c0,0.4,0,0.7,0,1.1c0,0.8,0.1,0.9,0.9,1
		C37.1,243.3,39.4,243.5,42,243.7z M48,306.8c0.1,0,0.2,0,0.3,0c0.3-0.4,0.5-0.7,0.7-1.1c0.4-0.7,0.7-1.5,1-2.3
		c0.2-0.5,0.6-1,1.2-0.9c0.6,0,0.8-0.4,0.8-0.9c0-0.4,0-0.7,0-1.1c0-5.8,0-11.7,0-17.5c0-6.6,0-13.3,0-19.9c0-0.4,0.1-0.7,0-1.1
		c-0.1-0.4-0.3-0.8-0.6-1c-1.3-0.8-2.6-1.5-4.2-1.5c-0.3,0-0.6-0.1-1.1-0.2c0.8-0.8,1.6-1.3,2.4-1.8c1.8-1.1,3.7-2.1,5.5-3.3
		c0.6-0.4,1.4-0.8,1.8-1.9c-0.7,0-1.2,0-1.7,0c-3.9,0-7.8,0-11.8,0c-3.9,0-7.9,0.2-11.8,0.2c-3.2,0-6.3-0.1-9.5-0.1
		c-0.2,0-0.3,0-0.5,0c-1.7-0.2-3.3,0-5,0.2c-0.5,0.1-0.8,0.3-0.7,0.9c0.1,1.5,0.1,3,0.2,4.5c0.1,1.3,0.3,2.7,0.4,4
		c0.1,4.3-0.1,8.6,0.2,12.9c0.2,3.9,0.1,7.8,0.1,11.8c0,0.5,0,1,0,1.7c0.8,0,1.7,0,2.5,0c1.8,0,1.9,0,1.8-1.8
		c-0.1-6.2-0.2-12.4-0.2-18.6c0-1.7-0.1-3.4,0-5c0.1-1.3,0.3-2.6,0.4-3.9c0.1-1.2,0.7-2.1,1.3-3c1.2-1.7,3.7-2.2,5.4-1
		c0.9,0.6,1.5,1.4,1.9,2.4c0.5,1.4,0.8,2.8,0.8,4.3c0,8.3,0,16.6,0,24.8c0,0.5,0,1,0.1,1.5c1.5,0,2.9,0,4.4,0c0-0.6,0.1-1.1,0.1-1.6
		c0-6.4,0-12.9,0-19.3c0-2.3,0.1-4.5,0.3-6.8c0-0.7,0.2-1.4,0.3-2c0.3-1.2,0.7-2.4,1.8-3.1c0.6-0.4,1.3-1,1.9-0.8
		c1,0.2,2,0.6,2.6,1.7c0.8,1.7,1.2,3.5,1.3,5.4c0,8.3,0,16.6,0,25c0,2-0.1,1.9,1.9,1.9c0.6,0,1.2,0,1.8,0.1c0.1,0.8-0.2,1.1-0.9,1.1
		c-0.5,0-1,0-1.6,0c-0.5,0-0.8,0.3-0.8,0.8c0,0.2,0,0.4,0,0.6c0.2,3.2-0.2,6.3-1.2,9.3c-0.1,0.2-0.1,0.5-0.2,0.7
		c0,0.2-0.1,0.4-0.1,0.5c0.2,0.3,0.4,0.6,0.6,0.7c0.2,0.1,0.6-0.2,0.8-0.4c0.2-0.3,0.2-0.7,0.3-1c0.5-1.8,0.9-3.6,1.4-5.5
		c0.1-0.4,0.2-0.7,0.4-1.1c0.8,0.3,0.9,0.9,1,1.5c0.4,2,0.7,4,1.1,6C47.4,303.5,47.7,305.1,48,306.8z M81,161.9
		c-0.7-1.1-1.7-1.3-2.9-1.1c-1.1,0.2-2.3,0.2-3.4,0.4c-1.3,0.2-2.6,0.3-3.9,0.5c-0.2,0-0.4,0.2-0.5,0.3c-0.4,0.3-0.9,0.7-1.3,1.1
		c-1.2,1-2.7,1.6-4.3,1.7c-3.4,0.3-6.6-0.7-9.7-2.2c-2.1-1.1-4.2-2.3-6.1-3.7c-0.4-0.3-1-0.4-1.4-0.5c-1.7-0.1-3.4,0-5.2,0
		c-0.2,0-0.4,0.1-0.7,0.2c0.6,0.4,1.1,0.8,1.5,1.1c2.1,1.6,4.2,3.3,6.3,4.9c1.9,1.5,3.8,2.9,5.7,4.4c2.6,2,5.2,4.1,7.8,6.1
		c0.2,0.2,0.6,0.3,0.9,0.3c2.4,0.1,4.8,0.2,7.2,0.2c2.8,0,5.7,0,8.5,0c0.3,0,0.6-0.1,0.9-0.1C76.7,171.4,76.5,167,81,161.9z
		 M97,138.7c-0.1,0-0.1,0-0.2,0c-0.1,0.4-0.1,0.8-0.2,1.3c-0.2,2.3-0.4,4.6-0.6,6.9c-0.2,1.7-0.3,3.3-0.6,4.9
		c-0.4,1.9-1.4,3.5-2.7,4.8c-1.2,1.3-2.6,2.3-3.8,3.6c-1.6,1.7-1.9,3.6,0,5.5c0.7,0.7,1.5,1.2,2.3,1.7c2,1.1,4.3,1.6,6.6,2
		c2.7,0.5,5.4,0.6,8.2,0.2c1.5-0.2,2.9-0.6,4.1-1.5c1.2-0.9,1.4-2.3,0.6-3.6c-0.9-1.4-2.2-2.3-3.4-3.3c-1.5-1.2-3.1-2.3-4.6-3.6
		c-2.6-2.2-3.6-5.4-4.3-8.6c-0.4-1.9-0.6-3.9-0.8-5.9c-0.1-0.8-0.1-1.6-0.2-2.4C97.2,140,97.1,139.3,97,138.7z M53.8,240.6
		c-0.1-0.9-0.2-1.5-0.2-2.2c-0.2-2.9,0.5-5.7,2-8.3c0.2-0.3,0.4-0.6,0.4-1c0.1-1.2,0.1-2.3,0.1-3.5c0-1.5-0.2-3-0.2-4.5
		c0-7.2,0-14.3,0-21.5c0-0.5,0-1-0.1-1.5c-0.1-0.6-0.6-0.7-1.1-0.7c-0.5,0-0.7,0.3-0.8,0.8c0,0.5,0,1,0,1.4c0,0.3,0,0.8-0.2,1
		c-0.7,0.9-1.1,1.8-1,3c0,0.1-0.1,0.2-0.1,0.3c-1.2,4.2-3.1,8-5.6,11.6c-0.3,0.5-0.7,1-1,1.5c-0.8,1.8-0.4,2.7,1.6,2.7
		c0.8,0,1.7,0,2.5,0c0.7,0,0.9,0.2,0.9,1c0,0.7,0,1.4,0,2.1c0,5.1,0,10.2,0,15.3c0,0.3,0,0.6,0,1c0,0.2,0.2,0.5,0.4,0.5
		C52,240,52.8,240.3,53.8,240.6z M59.1,92.3c-0.1,0-0.2,0-0.3,0c-0.3,1.3-0.6,2.7-0.7,4.1c0,1-0.2,2-0.4,3.1
		c-0.3,1.7-1.4,2.9-2.4,4.2c-1,1.4-1.9,2.9-2.9,4.4c-0.4,0.6-0.3,1.2-0.1,1.8c0.5,1.4,1.3,2.6,2.4,3.5c2.6,2,5.5,3.2,8.9,3.1
		c1.8-0.1,3.5-0.5,5-1.4c0.8-0.5,0.9-0.7,0.5-1.5c-0.8-1.5-1.8-2.9-2.7-4.4c-1-1.6-2.1-3-2.9-4.6c-1.6-3.2-2.7-6.6-3.8-10
		C59.5,93.7,59.3,93,59.1,92.3z M31.4,292c0.1,0,0.2,0,0.2,0c0.1,0.2,0.3,0.4,0.3,0.7c0.4,1.7,0.7,3.4,1.1,5
		c0.2,1.2,0.4,2.4,0.7,3.5c0.3,1.2,0.4,1.3,1.6,1.3c0.7,0,1.4,0,2.2,0c1.8,0,1.9,0.3,1.9-1.9c0-11.8,0-23.6,0-35.4
		c0-1.8,0.1-3.5,0.2-5.3c0-0.3,0-0.6,0-1c-0.1-0.7-0.3-1.5-1.2-1.8c-0.6,0.3-0.8,0.8-0.9,1.4c-0.2,1.4-0.5,2.9-0.6,4.4
		c-0.1,8.2,0,16.4,0,24.6c0,0.5,0,1-0.1,1.5c-1.6,0.4-3.1,0.2-4.5,0.2c-0.7,0-1.4,0-2,0.4c-0.2,0.8-0.6,1.5-0.7,2.3
		c-0.5,3-0.9,6-1.3,9c0,0.3-0.1,0.6-0.1,1c0,0.4,0.2,0.8,0.6,0.8c0.3,0,0.6-0.3,0.8-0.5c0.1-0.2,0.2-0.4,0.2-0.7
		c0.4-2.8,0.8-5.7,1.2-8.5C31.2,292.7,31.3,292.4,31.4,292z M143.2,258.8c-0.7-0.1-1.2-0.1-1.6-0.1c-5.1,0-10.2,0-15.4,0
		c-0.4,0-0.7,0-1.1,0c-1.8,0.1-3.7,0.2-5.5,0.3c-0.6,0-1.3-0.1-1.9-0.1c-1.7,0.1-3.4,0.2-5.1,0.2c-2.5,0.1-5,0.1-7.4,0.1
		c-0.2,0-0.3,0-0.5,0c-2.9,0.2-5.8,0.5-8.7,0.6c-3.7,0.1-7.4-0.1-11.1,0c-4.1,0.1-8.2,0-12.3,0c-3.6,0-7.1,0-10.7,0
		c-2.2,0-4.4,0.1-6.8,0.2c1,0.7,1.8,1.2,2.9,1.2c3.6,0,7.1,0,10.7,0c0.8,0,1.7,0.2,2.5,0.2c0.5,0,1,0,1.4-0.1c0.4,0,0.7-0.1,1.1-0.1
		c1.2,0,2.4,0.2,3.6,0.2c16.8,0,33.7,0,50.5,0c1.5,0,3-0.1,4.5,0.4c0.1,0.1,0.3,0,0.5,0c2.2,0,4.4,0,6.6,0c0.3,0,0.7-0.1,0.9-0.3
		C141.1,260.9,142,259.9,143.2,258.8z M57.7,249c-0.4-0.8-0.7-1.3-1-1.9c-0.4-0.8-1-1.6-1.3-2.4c-0.3-0.7-0.8-1.1-1.5-1.4
		c-0.8-0.2-1.5-0.4-2.3-0.7c-0.8-0.3-1.4-0.2-2,0.3c-1.6,1.1-3.3,2.2-5,3.3c-0.3,0.2-0.7,0.4-1.1,0.4c-2-0.2-4-0.5-6-0.8
		c-0.2,0-0.5-0.1-0.7-0.1c-2.6-0.1-5.2-0.4-7.8-0.9c-1.6-0.3-3-0.3-4.6,0.3c-2.3,0.9-4.7,1.6-7,2.4c-0.8,0.3-1.7,0.6-2.5,0.9
		c1.6,0.2,3.1,0.4,4.6,0.5c8.6,0.2,17.2-0.2,25.7,0.2c3.7,0.2,7.5,0,11.3,0C56.7,249.1,57,249,57.7,249z M110,183.1
		c0-0.1,0.1-0.1,0.1-0.2c-1.6-1.7-3.1-3.4-4.8-5c-0.3-0.3-0.8-0.3-1.2-0.3c-1.4,0-2.8,0-4.2,0c-0.8,0-1.5,0.2-2.2,0.7
		c-1.8,1.2-3.5,2.4-5.3,3.6c-0.6,0.4-1.2,0.7-1.9,1.1c0,0.1,0.1,0.1,0.1,0.2C97.1,183.1,103.6,183.1,110,183.1z M55.4,183
		c-1.7-0.6-2.8,0-3.6,1.1c-0.5,0.8-0.9,1.7-0.9,2.7c0,2.8,0,5.5,0,8.3c0,0.3,0.1,0.5,0.1,0.8c0.2,0,0.4-0.1,0.6-0.1
		c0.9-0.3,1.8-0.6,2.7-0.9c1.6-0.5,1.4-0.3,1.5-2c0-2.4,0-4.8,0-7.2C55.7,184.9,55.5,184,55.4,183z M45,303.6
		c-0.3,2.3-0.5,4.5-0.8,6.9c0.6,0,0.9-0.1,1.4-0.1C45.8,308.1,45.2,305.8,45,303.6z M32.5,310.4c0.2-1.1-0.2-5.5-0.6-6.6
		c-0.2,2.3-0.5,4.4-0.7,6.6C31.7,310.4,32.1,310.4,32.5,310.4z M18,302.1c-0.1,0-0.1,0-0.2,0c-0.1,1.9-0.2,3.9-0.3,5.8
		c0,0.5,0,1-0.1,1.4c-0.1,0.5-0.1,0.8,0.4,0.9c0.6,0.1,0.7-0.4,0.6-0.8c0-0.8,0-1.6-0.1-2.4c-0.1-1.3-0.2-2.6-0.4-3.9
		C18,302.8,18,302.5,18,302.1z"/>
	<path class="st0" d="M220.1,0C220.1,0,220.1,0.1,220.1,0c0.7,0.5,0.7,1.2,0.5,1.8c-0.2,0.7-0.9,0.3-1.4,0.4c0,0.6,0,1.2,0,1.9
		c0.6,0.3,1.2,0.4,2,0.2c0.7-0.2,1.4,0,2.2,0c0,0.9,0,1.7,0,2.7c-0.5,0-0.9,0.1-1.4,0.1c-0.2,0-0.4-0.1-0.6-0.1
		c-2-0.3-2.2-0.1-2.2,1.9c0,1.5,0,3,0,4.4c0,0.7,0.1,1.2,0.7,1.5c0.9,0.4,0.9,1.2,0.8,1.9c-0.1,0.7-0.3,0.8-1,0.6
		c-0.2,0-0.4-0.1-0.6-0.2c-0.1,0.2-0.2,0.3-0.2,0.4c0,2.5,0.1,5,0.1,7.4c0,0.3,0.2,0.6,0.4,0.8c1.7,1.9,1.5,3.5-0.7,4.9
		c-0.1,0-0.1,0.1-0.3,0.2c0.1,2.5,0,5.2,1.2,7.6c0.5,1,1.1,1.9,1.8,2.8c0.6,0.8,0.8,1.9,1.7,2.6c0.7,0.5,1.2,1.2,1.9,1.7
		c1.1,0.8,2.1,1.6,2.8,2.7c0.5,0.6,1.1,1.2,1.5,1.8c1,1.3,1.4,2.9,1.7,4.4c0,0.2,0,0.5,0,0.7c-0.5,3.1-1.6,5.9-4,8.1
		c-0.4,0.4-0.8,0.5-1.3,0.5c-1.5,0.1-3,0.1-4.4,0.3c-0.9,0.1-1.5,0.7-2.2,1.2c-0.5,0.3-0.9,0.8-1.5,1.4c3.7,0.2,7.2,0.4,10.7,0.6
		c0.2-1.3-1.5-1.5-1.4-2.7c0.2,0,0.3,0,0.4,0.1c0.4,0.4,0.8,0.8,1.5,0.6c0.4-0.1,0.8,0.4,1.2,0.6c0.5,0.3,1,0.7,1.4,1.1
		c1,0.8,2,1.7,3.1,2.6c-0.9,0.8-2,0.4-2.9,0.4c-1,0-2-0.1-3-0.2c0,0.3,0,0.5,0.1,0.7c-0.5,0.2-0.9,0.4-1.5,0.6c0,0.6,0,1.3,0.1,1.9
		c0.3,1.3,0.3,2.5,0,3.8c-0.1,0.3-0.1,0.7-0.1,1.1c0.1,2-0.1,4-0.4,6.1c-0.1,1,0,2,0,3c0,1.4-0.2,1.6-1.6,1.5
		c-0.2,0-0.4-0.1-0.6-0.1c-0.1-1.4-0.3-2.9-0.3-4.3c0-1.3-0.3-2.6-0.5-3.9c-0.3-1.6-0.5-3.2-0.6-4.7c0-0.4,0.5-0.8,0.7-1.2
		c0.3-0.5,0.5-0.9,0.9-1.6c-1.6,0.1-2.9,0-4.1,0.8c0.2,0.8,1,0.3,1.3,0.7c-0.4,2.3-0.9,4.7-1,7c-0.2,2.4,0,4.8,0,7.1
		c-1.3,0.6-2.6,0.3-3.8,0.2c-0.5,0-0.7-0.4-0.7-0.9c-0.1-1.3-0.2-2.5-0.3-3.8c-0.1-2-0.3-4.1-0.4-6.1c0-0.6,0-1.2,0-1.8
		c0-0.4-0.1-0.9-0.1-1.4c-0.6,0.2-1.2,0.3-1.7,0.5c-0.5,0.2-0.4,0.6-0.4,1c0.1,2.5,0.3,5,0.1,7.4c-0.2,2,0,4-0.2,6
		c0.9,0.1,1.7,0.3,2.5,0.4c1.6,0.1,3.2,0.2,4.8,0.2c3.1,0.1,6.2,0.2,9.3,0.3c0.3,0,0.7,0.1,1,0.1c0.1,0.2,0.1,0.2,0.1,0.2
		c-0.4,0.7-2.1,2.1-2.8,2.3c-1.4,0.3-2.9,0.5-4.3,0.8c-3.5,0.8-7.1,1.6-10.6,2.6c-2.7,0.7-5.4,1.6-8.1,2.5c-1,0.3-1.8,1.1-2.7,1.7
		c-0.6,0.4-1.2,0.8-1.8,1.2c-0.7,0.5-1.5,0.9-2.2,1.4c-1,0.7-1.2,1.5-0.9,2.7c0.7,2.8,2.6,4.5,5.3,5.4c2.5,0.8,5,1.7,7.5,2.3
		c2.4,0.6,4.8,0.9,7.3,1.3c2,0.3,4.1,0.6,6.1,0.9c1.1,0.2,2.3,0.2,3.4,0.3c1.9,0.1,3.9,0.3,5.8,0.2c3.3-0.1,6.7-0.3,9.9-1.2
		c0.9-0.3,1.8-0.8,2.7-1.2c0.5-0.2,0.6-0.5,0.5-1.1c-0.5-2.3-1.6-4.3-3.5-5.8c-2.6-2.1-5.3-3.9-8.1-5.7c-1.4-0.9-2.5-2.3-3.7-3.6
		c-0.2-0.2-0.1-0.5-0.2-0.7c0.1,0,0.2-0.1,0.2,0c1,0.8,2,1.6,3.1,2.3c1,0.6,2.2,1.1,3.3,1.7c1.1,0.6,2.3,1.1,3.4,1.7
		c2.3,1.3,4.5,2.8,6.1,5.1c1.2,1.7,2.1,3.7,2.1,5.7c0.1,2-0.6,4-2,5.6c-1.8,2.1-4.2,3.6-6.6,4.8c-0.4,0.2-0.7,0.3-1.3,0.5
		c1.3,1.6,3,2.6,4.4,3.9c1.4,1.3,2.9,2.5,4.5,3.9c-0.5,0.2-0.8,0.4-1.1,0.4c-1,0-1.9,0-2.9-0.1c-1.3-0.2-1.8,0-2.2,1.4
		c-0.4,1.2-1.1,2-2.4,2.3c-1.1,0.3-2.1,0.8-3.2,1.2c-0.6,0.2-1.2,0.4-1.8,0.5c-0.2,0-0.3,0.1-0.5,0.1c-1.4-0.4-2.7,0.3-4.4,0.4
		c2,0.7,2.8,2.1,3.2,3.8c0.1,0.6,0,1.2-0.1,1.8c-0.1,0.5-0.2,0.9-0.3,1.4c-0.2,1.4-0.3,2.8-0.4,4.3c0,0.1,0,0.2,0,0.4
		c-0.1,2-0.2,4-0.3,6c0,1-0.2,1.9-0.3,2.8c-0.1,1-0.1,2-0.2,3c-0.1,0.6-0.2,1.2-0.3,2c-0.6,0-1,0.1-1.5,0.1c-1.9,0-3.8,0.1-5.8,0.1
		c-1.1,0-1.8-0.6-1.8-1.7c0,0,0-0.1,0-0.1c-0.1-5.2-0.2-10.5-0.2-15.7c0-1.3,0-2.6,0.3-3.8c0.2-0.9,0.9-1.7,1.3-2.5
		c0.1-0.2,0.4-0.4,0.5-0.8c-1.9,0.4-3.7,0.8-5.7,1.1c0.1,0.4,0.1,0.6,0.3,0.8c0.7,1.3,0.3,2.6,0.1,3.8c-0.2,1.1-0.3,2.2-0.4,3.3
		c-0.2,1.5-0.3,3.1-0.4,4.6c-0.1,1.4-0.2,2.8-0.3,4.2c0,1.4-0.1,2.8-0.4,4.1c-0.1,0.4,0,0.8-0.1,1.2c0,1.2-0.2,1.3-1.3,1.3
		c-1.6,0-3.2,0-4.8,0c-0.5,0-1,0-1.6,0c-0.5,0.1-1,0-1.4-0.5c-0.3-0.3-0.8-0.5-1.3-0.8c0-0.2-0.1-0.5-0.1-0.8
		c-0.1-4.2-0.2-8.3-0.2-12.5c0-1.9,0-3.7,0-5.7c-1,0.1-1.9,0.5-2.8,0.8c-0.2,0.1-0.3,0.4-0.3,0.7c-0.1,1.3-0.2,2.7-0.3,4
		c-0.1,1.7-0.2,3.5-0.2,5.2c-0.1,1.6-0.1,3.2-0.2,4.8c-0.1,1.5-0.3,2.9-0.5,4.4c-1.2,0.3-2.3,0.2-3.4,0.1c-0.2,0-0.5-0.4-0.6-0.6
		c-0.1-0.3-0.1-0.7-0.1-1.1c0-2.6-0.1-5.2,0-7.8c0.1-2.7-0.3-5.3-0.8-8c-0.2-0.9-0.1-1.9-0.2-2.8c-0.1-1-0.1-2-0.3-3
		c-0.1-0.7-0.3-1.5-0.6-2.2c-0.2-0.7-0.4-1.5-1.2-1.8c-0.3-0.1-0.5-0.6-0.8-0.9c-0.4-0.5-0.9-0.9-1.3-1.3c-0.2-0.3-0.5-0.5-0.6-0.9
		c-0.4-0.9-0.4-1-1.4-1c-0.5,0-0.9-0.1-1.6-0.1c0.8-1.3,2-1.8,2.8-2.7c0.9-0.9,1.9-1.6,2.8-2.4c1-0.8,1.9-1.7,2.9-2.6
		c-0.4-0.2-0.7-0.4-1-0.5c-1.9-0.7-3.7-1.8-5.3-3c-2.2-1.7-3.7-3.9-3.9-6.7c-0.1-1.4,0.3-2.8,0.9-4.1c1.6-3.2,4.3-5.2,7.2-6.9
		c1.6-0.9,3.1-1.9,4.7-2.8c0.9-0.5,1.9-0.8,2.9-1.2c1.1-0.4,2-1.1,2.8-1.9c0.7-0.7,0.8-1.5,0.4-2.4c-0.6-1.3-1.1-2.5-1.6-3.8
		c-0.2-0.5-0.5-0.9,0-1.6c1.9,0.1,3.9,0.2,6,0.3c-0.4-0.9-1.2-0.6-1.9-0.9c-0.1-0.5-0.3-1-0.3-1.5c-0.1-0.7,0-1.4,0-2
		c-0.1-2.4-0.2-4.9-0.3-7.3c0-0.3,0-0.6-0.2-0.8c-0.8-1.2-0.8-2.5-0.9-3.9c0-0.6-0.1-1.1-0.1-1.7c-0.1-0.6,0.2-0.8,0.7-0.8
		c1.6,0,3.3-0.1,4.9,0c1.5,0.2,2.9-0.1,4.4-0.1c1.5,0.1,3,0.1,4.4,0c1.4-0.1,2.8-0.3,4.3-0.6c-0.2,0-0.5-0.1-0.7-0.1
		c-2.7,0-5.4-0.1-8.1-0.4c-2.1-0.3-4.1-0.2-6.2-0.3c-1.7,0-3.4,0-5.1,0c-0.6,0-1.1,0-1.6-0.6c1.3-1.7,2.6-3.4,4-5.2
		c-0.4-0.6-0.8-1.2-1.3-1.7c-1.2-1.4-1.8-3-2.1-4.9c-0.1-1.2-0.3-2.3,0.1-3.4c0.7-1.9,1.7-3.6,3.3-4.9c3.5-2.8,6.3-6.1,7.7-10.4
		c0.5-1.6,1-3.3,1.3-4.9c0.2-1,0.3-1.8-0.8-2.6c-1.4-0.9-1.3-3,0-4.3c0.2-0.2,0.5-0.4,0.8-0.6c0.1-1.4,0.1-2.9,0.2-4.4
		c0-0.2,0-0.3,0-0.5c-0.6-1.1-0.4-2.3-0.4-3.5c0-0.6-0.2-1.1-0.9-1.3c-0.3-0.1-0.5-0.2-0.7-0.4c-0.3-0.3-0.4-0.7-0.1-1.1
		c0.5-0.5,0.8-1.2,1.8-1c0-2,0-4,0-6.1c-0.6-0.3-1.4-0.1-2.2-0.1c-0.2,0-0.3,0.1-0.5,0.1c-0.6,0.1-1.3,0.5-1.8-0.2
		c-0.5-0.8-0.2-1.6-0.1-2.4c0-0.2,0.4-0.3,0.7-0.4c0.5,0,1,0,1.4,0.1c0.6,0,1.1,0.1,1.7,0.2c0.5,0,0.9-0.1,1-0.7
		c0.1-0.8-0.1-1.2-0.8-1.4c-1.2-0.4-1.2-0.4-1-1.5c0-0.2,0-0.4,0-0.6C216.9,0,218.5,0,220.1,0z M210.4,129c0,0.1,0.1,0.2,0.1,0.3
		c0.2,0,0.5,0.1,0.7,0.1c9.9,0,19.8,0,29.7,0c0,0,0.1-0.1,0.1-0.1c0,0,0-0.1,0-0.1c-1.1-0.9-2.2-1.9-3.3-2.8
		c-0.8-0.7-1.7-1.4-2.5-2.1c-0.4-0.4-0.8-0.4-1.3-0.3c-2.3,0.2-4.6,0.4-6.9,0.6c-0.9,0.1-1.8,0.1-2.7,0.2c-1.1,0.1-2.1,0.2-3.2,0.3
		c-1.8,0-3.5,0.3-5.1,1.2c-1.5,0.8-3,1.5-4.5,2.3C211.1,128.6,210.7,128.8,210.4,129z M218.9,40.1c-0.1,0-0.1,0.1-0.2,0.1
		c-0.1,0.5-0.1,1-0.2,1.5c-0.6,2.5-1.8,4.6-3.6,6.5c-0.4,0.5-0.8,1-1.2,1.5c-0.3,0.4-0.3,0.8-0.2,1.4c0.4,1.2,1.1,2,2.3,2.4
		c0.8,0.3,1.7,0.4,2.5,0.6c1.7,0.4,3.4,0.2,5.1-0.1c1.2-0.3,2-1,2.6-2c0.5-0.8,0.3-1.5-0.4-2.1c-0.3-0.3-0.7-0.6-1-0.8
		c-1.1-0.8-1.6-2-2.3-3c-1-1.6-1.9-3.2-2.9-4.8C219.3,40.7,219.1,40.4,218.9,40.1z"/>
	<path class="st0" d="M179.1,154.7c2.6,2.9,5.1,5.7,7.6,8.4c-0.1,0.2-0.1,0.3-0.2,0.3c-2.1,0.3-3.8,1.5-5.8,1.9
		c-1.5,0.3-2.8,1.2-4.2,1.5c-1.5,0.4-3,0.5-4.5,0.8c-0.7,0.1-1.4,0.2-2.2,0.4c0.2,0.3,0.3,0.4,0.4,0.6c0.5,0.7,0.7,1.5,0.7,2.3
		c0,1.3,0.2,2.5,0.2,3.8c0,1.3-0.1,2.6-0.2,3.9c0,0.5,0,1,0,1.4c0.4,2.3,0.1,4.5,0.1,6.8c-1,0.3-7.3,0.4-8.9,0.1
		c-0.1-0.7-0.3-1.4-0.4-2.2c-0.1-0.9-0.2-1.9-0.3-2.9c-0.1-2.6-0.2-5.2-0.3-7.8c0-0.9-0.1-1.7-0.2-2.6c0-0.5,0-1,0.1-1.6
		c-1.3,0.1-2.6,0.3-3.9,0.8c-0.1,2.7,0,5.5,0,8.2c0,2.7,0,5.4,0,8.3c-1.6,0.2-3.1,0.2-4.7,0.1c-0.1-0.7-0.3-1.4-0.3-2.1
		c-0.2-2.3-0.3-4.5-0.5-6.8c-0.1-1,0-1.9,0-2.9c-0.1-1.1-0.2-2.1-0.3-3.2c0-0.4-0.2-0.7-0.6-0.7c-0.5-0.1-0.6-0.4-0.8-0.8
		c-0.7-1.4-1.4-2.9-2.1-4.3c-0.4-0.7-0.9-1.4-1.4-2.1c-0.5-0.6-1.1-1.1-2-1.1c-0.1,0-0.2-0.1-0.4-0.2c0.9-1.6,2.3-2.8,3.4-4.2
		c1.1-1.4,2.3-2.8,3.5-4.2c-0.5-0.3-0.8-0.7-1.3-0.9c-1.6-0.8-2.7-2.1-3.8-3.4c-1.3-1.4-1.8-3.3-1.7-5c0.1-2.6,1-5.1,2.8-7.2
		c1.5-1.7,3.2-3.1,5-4.4c1.4-1,2.9-2,4.2-3.2c1.2-1.2,2.3-2.5,3.2-4c1-1.7,1.7-3.5,2.5-5.3c1-2.1,1.3-4.3,1.6-6.5
		c0.2-1.4,0.2-2.9,0.5-4.3c0.2-1.5-0.5-2.3-1.7-2.8c-0.7-0.3-0.9-0.8-1-1.5c-0.1-0.9,0.3-1.4,1-1.9c0.3-0.2,0.7-0.4,1-0.6
		c0.4-0.2,0.5-0.6,0.5-1c-0.1-2.3-0.1-4.6-0.1-6.8c0-0.6-0.3-0.9-0.8-1.2c-0.3-0.2-0.6-0.4-0.9-0.7c-0.1-0.1-0.1-0.4-0.1-0.6
		c0.2-0.4,0.4-0.8,0.8-1c0.3-0.2,0.7-0.2,1.2-0.3c0-1.9,0-3.8,0-5.9c-1-0.2-2.1-0.1-3.2-0.1c-0.5,0-1,0-1.3-0.4
		c-0.6-0.9-0.2-1.8,0.9-2c0.6-0.1,1.3-0.1,1.9-0.2c0.4,0,0.7,0,1.2-0.1c0.1-0.6,0.2-1.1,0.3-1.6c-1.5-1.1-1.5-1.1-0.9-2.8
		c0.3-0.1,0.7-0.1,1-0.2c0-0.4,0-0.7,0.1-1.1c0.1-0.5,0.4-0.8,0.9-0.8c0.6,0,0.9,0.3,1,0.8c0,0,0,0.1,0,0.1c-0.2,1,0.3,1.5,1.2,1.6
		c0.1,0,0.3,0.2,0.4,0.3c-0.1,1.3-0.1,1.3-1.3,1.8c0,2.2,0.3,2.4,2.4,2c0.2,0,0.5-0.1,0.7-0.1c1.5-0.1,2.1,0.7,1.6,2.2
		c-0.2,0.5-0.6,0.7-1,0.7c-0.8,0-1.7,0-2.5-0.1c-0.8-0.1-1,0-1,0.8c0,2,0,3.9-0.1,5.9c0,0.5,0.4,0.8,0.7,1c0.4,0.3,0.9,0.4,0.7,1.1
		c-0.1,0.6-0.3,1.1-1,1.2c-0.1,0-0.2,0.1-0.4,0.2c0.2,2.3,0.4,4.6,0.6,6.9c0,0.3,0.3,0.6,0.5,0.9c1,1.2,0.9,3.2-0.3,4.2
		c-0.4,0.3-0.6,0.6-0.5,1.1c0.1,0.6,0.2,1.3,0.3,1.9c0.4,1.6,0.8,3.2,1.3,4.8c0.7,2.5,1.3,5,2.1,7.4c0.5,1.5,1.1,2.9,1.8,4.2
		c0.9,1.7,2.5,2.8,4,3.9c2.1,1.7,4.4,3.2,6.3,5.2c2.5,2.6,3.7,5.7,3.4,9.2c-0.2,2.6-1.5,4.7-3.5,6.4
		C181.2,153.3,180.2,153.9,179.1,154.7z M166,109.3c-0.1,0-0.2,0-0.3,0c0,0.1-0.1,0.3-0.1,0.4c-0.1,0.9-0.1,1.8-0.3,2.7
		c-0.5,2.2-0.4,4.4-0.6,6.6c-0.2,1.9-0.1,3.8,0,5.8c0,1.3,0.3,2.6,0.9,3.8c0.3,0.6,0.6,1,1.3,1.1c0.4,0.1,0.9,0.3,1.4,0.4
		c-0.6,0.9-1.4,1.2-2.3,1.6c-2.4,1.1-4.8,2.2-7.1,3.4c-1.4,0.7-2.3,2-2.1,3.6c0.2,1.6,1.1,2.9,2.3,4c1.1,0.9,2.2,1.5,3.4,2.2
		c2.3,1.3,4.9,1.8,7.5,2.3c1.2,0.2,2.4,0.4,3.6,0.2c1.5-0.2,3.1-0.1,4.6-0.6c1.1-0.4,2.3-0.7,3.3-1.4c0.8-0.6,1.3-1.4,1.3-2.4
		c0-1.6-0.9-2.7-1.8-3.8c-2.1-2.4-4.8-4-7.2-6c-1.2-1-2.3-2-3.2-3.2c-1.5-2-2.3-4.5-2.8-6.9c-0.4-1.9-0.5-3.8-0.8-5.7
		c-0.4-2.3-0.7-4.6-0.7-6.9C166.1,110,166.1,109.6,166,109.3z M181.2,160.9c-0.2-0.3-0.4-0.5-0.5-0.6c-1.3-1.5-2.6-2.9-3.9-4.4
		c-0.8-1-1.7-1.5-3.1-1.4c-2.6,0.1-5.3,0-7.9,0c-0.4,0-0.8,0.2-1,0.4c-0.5,0.6-1,1.2-1.5,1.9c-1,1.2-2,2.5-3.6,3
		c-0.7,0.2-1.3,0.7-2.2,1.1C165.6,160.9,173.3,160.9,181.2,160.9z"/>
	<path class="st0" d="M195.6,172.3c-1.3-0.6-2.2-1.3-2.8-2.5c-0.3-0.7-0.6-1.5-0.9-2.2c-0.2-0.6,0-0.9,0.6-1
		c0.3-0.1,0.6-0.1,0.8-0.1c0.6,0,1.1-0.1,1.2-0.9c0-0.5,0.4-0.6,0.8-0.6c4.4,0,8.9-0.1,13.3-0.1c0.6,0,1.1,0.1,1.7,0.1
		c8.4,0,16.8,0,25.2,0c1.2,0,2.5,0.1,3.7,0.3c0.3,0,0.6,0.3,0.9,0.5c0.6,0.5,1.2,0.9,2,0.9c0.9,0,1.3,0.6,0.9,1.4
		c-0.4,0.7-0.8,1.4-1.2,2.2c-0.3,0.5-0.7,0.5-1.1,0.2c-0.2-0.1-0.4-0.3-0.5-0.5c-0.4-0.8-1.1-0.9-1.9-0.9c-7.2,0-14.4,0.2-21.6,0
		c-6.6-0.2-13.3-0.1-19.9-0.2c-0.4,0-0.8,0-1.2,0c-0.1,0-0.1,0.1-0.3,0.2c0.5,0.7,1.1,0.9,1.9,1c2.4,0.1,4.9,0.2,7.3,0.2
		c3,0,6,0,9,0c5.8,0.1,11.7,0.2,17.5,0.2c2.2,0,4.4-0.2,6.6-0.4c0.4,0,0.6,0.1,0.7,0.4c0.1,0.4,0.2,0.8,0.3,1.3
		c0.1,0.9-0.1,1.2-1.1,1.3c-2,0.3-4.1,0.7-6.1,1c-1.6,0.2-3.2,0.4-4.7,0.6c-1.5,0.2-2.9,0.4-4.4,0.6c-1.8,0.2-3.6,0.3-5.4,0.6
		c-1.8,0.3-3.6,0.2-5.5,0.6c-2.8,0.6-5.6,0.9-8.4,1.3c-1.9,0.3-3.7,0.8-5.6,1.1c-2.4,0.4-4.9,0.7-7.3,1.1c-2.3,0.3-4.7,0.6-6.8,1.7
		c-0.1,0.1-0.3,0.1-0.5,0.2c-0.5-0.5-0.9-0.9-0.7-1.5c2.5-1.2,4.9-2.3,7.1-3.6C191.4,175.7,193.9,174.7,195.6,172.3z"/>
	<path class="st0" d="M175.1,187.3c0-0.6-0.1-1.1-0.1-1.7c0-3.4,0-6.7,0-10.1c0-0.9-0.2-1.8-0.2-2.7c0.1-1.4,0.3-2.8,0.6-4.1
		c0.2-0.9,1-1.5,2-1.5c0.9,0,1.6,0.6,1.9,1.4c0.2,0.6,0.4,1.2,0.4,1.8c0.1,1.5,0.1,3,0,4.5c-0.1,1.3-0.3,2.6-0.4,3.9
		c0,0.3,0,0.6,0,0.8c-0.1,2-0.1,4-0.3,6c0,0.5-0.2,1-0.3,1.6C177.5,187.3,176.4,187.3,175.1,187.3z"/>
	<path class="st0" d="M238.3,163c-0.3,0.1-0.5,0.1-0.7,0.2c-1.3,0.1-1.5-0.1-1.6-1.5c-0.1-3.5-0.2-7-0.2-10.5
		c-0.1-2.8-0.2-5.6-0.2-8.4c0-0.8,0.1-1.7,0.1-2.5c0-0.4,0.9-1.4,1.2-1.4c0.8-0.1,1.4,0.1,1.7,0.8c0.3,0.8,0.7,1.6,0.7,2.5
		c0.1,1.7,0.1,3.4,0,5c-0.1,1.5-0.4,3-0.4,4.5c-0.1,2.5-0.2,5-0.3,7.5C238.5,160.4,238.4,161.7,238.3,163z"/>
	<path class="st0" d="M110.2,206.3c-1.4,0.3-1.6,0.2-1.7-1c-0.1-2.6-0.2-5.2-0.3-7.8c-0.1-2.1-0.2-4.2-0.2-6.3c0-0.7,0.2-1.3,0.4-2
		c0.1-0.3,0.4-0.5,0.6-0.7c0.8,0.4,0.8,1,0.9,1.7c0.5,4.1,0.1,8.3,0.2,12.4C110.2,203.9,110.2,205.1,110.2,206.3z"/>
	<path class="st0" d="M104.3,310.5c-9.3,3.1-0.1,5.9-4.3,7.3c-5.6,1.9-11.2,3.8-16.8,5.7c-8.9,3-17.7,6-26.6,9
		c-1.7,0.6-3.3,1.2-5,1.8c-1.1,0.4-2.1,0.6-3.3,0.5c-2.3-0.1-4.6-0.1-7,0c-3.5,0.1-7,0-10.4,0.3c-3.2,0.3-6.4,0-9.6,0.2
		c-4.4,0.4-8.7,0.1-13.1,0.2c-0.5,0-1.1,0.2-1.4-0.4c0.1-0.1,0.1-0.2,0.2-0.3c16.3-6.5,32.6-13.1,48.9-19.6c0.1,0,0.2,0,0.4,0.1
		c0.1,0.3,12.9-0.5,14.1-0.6c1.9-0.2,3.8-0.3,5.7-0.5c0.2,0,0.3,0,0.5,0c2.3-0.1,4.6-0.2,6.9-0.3c0.6,0,1.3-0.2,1.9-0.2
		c2.2-0.2,4.4-0.4,6.5-0.5c2.8-0.2,5.5-0.8,8.2-1.4C101.7,311.4,103,310.9,104.3,310.5"/>
	<path class="st0" d="M138.6,286.4c0.4-0.4,0.6-0.9,0.6-1.5c0-0.7,0-1.4,0-2.2c0-0.5,0.2-0.8,0.8-1c3.6-1.4,7.3-2.9,10.9-4.3
		c3.7-1.4,7.3-2.9,11-4.3c3.1-1.2,6.2-2.5,9.3-3.8c5.5-2.2,11.1-4.4,16.7-6.6c3.5-1.4,7-2.8,10.5-4.3c1.2-0.5,2.4-0.9,3.7-0.7
		c0.4,0,0.9,0,1.3,0c15.3,0.4,30.7,0.2,46,0.3c2.9,0,5.7,0,8.6,0.2c5.8,0.4,11.7,0.1,17.5,0.2c0.5,0,1,0,1.5,0
		c-0.1,0.6-0.6,0.7-1,0.9c-2,0.7-4,1.3-6,2c-2.6,0.9-5.3,1.8-7.9,2.6c-2.7,0.9-5.4,1.8-8,2.7c-2,0.7-4,1.3-6,2
		c-3.2,1.1-6.4,2.1-9.6,3.2c-3,1-6,2.1-9.1,3.1c-2.9,1-5.9,1.8-8.8,2.8c-1.8,0.6-3.6,1.3-5.4,1.9c-2.8,1-5.7,1.9-8.5,2.8
		c-2.1,0.7-4.2,1.4-6.2,2.1c-4.6,1.5-9.2,3-13.7,4.5c-2.7,0.9-6.1-0.7-8.9,0.2c-3.4,1.1-11.1,0.2-14.4,1.4c-2.9,1-8.9-1-11.8,0
		c-3.2,1.1-4.3-2.4-7.5-1.4c-3.2,1.1,1.5-1.1-1.8,0"/>
	<path class="st0" d="M77.6,277.4c0.4-1.8,0.8-3.4,1.8-4.8c1.2-1.7,2.8-2.7,4.8-3.5c3.6-1.3,9.1,1.4,10.2,5.3c0.7,2.5,1.2,5,0.6,7.6
		c-0.1,0.4-0.1,0.9-0.2,1.3c-0.1,1.2-0.3,2.4-0.4,3.7c-0.1,0.7-0.2,1.3-0.3,2c-0.2,1.4-0.3,2.8-0.5,4.1c-0.3,1.8-0.6,3.6-1,5.4
		c-0.3,1.7-0.7,3.3-1.2,5c-0.5,1.8-1.1,3.5-2.2,5c-0.8,1.1-1.8,1.9-3.2,2.1c-1.1,0.2-2.1,0.2-3.2-0.1c-0.6-0.2-1.3-0.2-1.9-0.3
		c-1.8-0.3-3.6-0.5-5.4-0.8c-0.4-0.1-0.6-0.3-0.6-0.8c0-0.4,0-0.9,0-1.3c0-6.9,0-13.7,0-20.6c0-0.7,0.1-1.4-0.7-1.9
		c-0.2-0.1-0.3-0.6-0.3-0.9c0-1.8,0-3.7,0-5.5c0-0.9,0.2-1.1,1.2-1.1C76,277.4,76.7,277.4,77.6,277.4z"/>
	<path class="st0" d="M101.1,285.6c0-2.1,0-4.1,0-6.2c0-1.2,0.4-1.5,1.6-1.3c1.2,0.2,1.3,0.1,1.6-1.2c0.6-3.3,2.5-5.6,5.7-6.8
		c1-0.4,2.2-0.6,3.2-0.6c1.6,0,3.1,0.5,4.5,1.3c2.9,1.7,4.2,4.3,4.5,7.6c0.1,0.7,0.2,1.4,0.2,2.1c-0.1,0.9-0.5,1.8-0.7,2.6
		c-0.3,1.3-0.6,2.7-0.9,4c-0.2,0.7-0.4,1.4-0.6,2C119.3,291.5,101.1,291.7,101.1,285.6z"/>
	<path class="st0" d="M251.1,243.8c0.8,2.3,0.6,8.7-0.4,12.1c-0.5,0-1.1,0.1-1.6,0.1c-4.1-0.2-8.3-0.4-12.4-0.6
		c-1.2-0.1-2.4-0.1-3.6-0.1c-1-0.1-2-0.1-3-0.3c-2.2-0.4-3.6-2-3.9-4.3c-0.2-1.6-0.3-3.2-0.2-4.9c0-0.5,0.2-0.9,0.8-1
		c0.5-0.1,0.6-0.4,0.6-0.9c0.1-1.5,0.6-2.9,1.3-4.2c0.1-0.2,0.3-0.5,0.3-0.8c0-1,0.6-1.5,1.4-1.9c1.1-0.7,2.4-0.8,3.6-1.1
		c1-0.3,2.1-0.4,3-0.7c2.3-0.7,4.1,0.3,5.8,1.7c1.8,1.5,2.8,3.5,3,5.9c0,0.5,0.3,0.8,0.8,0.8C248.1,243.6,249.5,243.7,251.1,243.8z"
		/>
	<path class="st0" d="M274,255.9c0-0.4-0.1-0.7-0.1-1.1c0-0.5-0.2-0.9-0.6-1.2c-0.3-0.2-0.6-0.7-0.6-1.1c0-2.9,0.1-5.7,0.1-8.6
		c0-1.9-0.5-3.7-1.6-5.3c-0.8-1.2-2.1-1.6-3.7-1.9c0.2,0.3,0.3,0.5,0.5,0.7c1.3,1.9,1.9,4.1,2,6.4c0.1,1.1,0.2,2.2,0.2,3.3
		c0,3.1-0.1,6.3-0.2,9.4c0,0.8-0.2,1-1,1.1c-2.2,0.1-4.4,0.1-6.5-0.7c-1.4-0.5-2.5-1.5-3.3-2.8c-0.2-0.3-0.3-0.7-0.3-1
		c0.5-1.5,0.2-3.1,0.3-4.6c0-0.6,0-1.2,0.1-1.8c0-0.5,0.3-0.8,0.9-0.6c0.8,0.2,1,0,1.1-0.8c0.2-1.3,0.2-2.6,0.4-3.9
		c0.1-0.5,0.2-1,0.3-1.6c-0.6-0.4-0.5-1-0.2-1.6c0.6-1.2,1.4-2,2.6-2.6c1.1-0.5,2.2-1.1,3.5-1.1c2.4-0.1,4.1,1.1,5.5,2.9
		c1.4,1.8,2,4,2,6.2c0,2.3-0.1,4.6,0,7c0.1,1.6-0.5,3.1-0.6,4.6c0,0.3-0.2,0.6-0.4,0.8C274.3,255.9,274.1,255.9,274,255.9z"/>
	<path class="st0" d="M183.5,262.4c-2,0.8-4,1.6-6,2.4c-3.5,1.4-7,2.8-10.4,4.2c-0.4,0.1-0.7,0.3-1.1,0.4c-0.9,0.2-1.2,0-1.3-0.9
		c0-0.4,0-0.7,0-1.1c0.2-3.3,1-6.4,3.1-8.9c1.9-2.2,4.3-3.7,7.3-3.6c1.3,0,2.6,0,3.8,0.3c2.1,0.6,3.7,1.8,4.3,4
		C183.5,260.1,183.7,261.1,183.5,262.4z"/>
	<path class="st0" d="M135.7,278.9c0.8,0.2,0.9,0.7,0.9,1.3c0,0.4,0,0.9,0,1.3c0,2.8,0,2.8-1.8,4.9c-0.1,0.2-0.3,0.3-0.4,0.4
		c-1,1.8-2.7,2.8-4.2,4c-0.5,0.4-1.3,0.6-2,0.8c-0.9,0.2-1.5-0.3-1.5-1.3c0-3.6,0-7.3,0-10.9c0-0.4,0.1-0.8,0.2-1.2
		c0.2,0,0.3-0.1,0.5-0.1c0.9-0.2,1.1-0.3,1.1-1.1c0-1.6,0.5-3.2,1.1-4.6c0.4-0.9,1-1.6,1.8-2.3c1.1-0.9,2.2-0.6,3.2,0.2
		c1.2,1,1.5,2.4,1.8,3.8c0.1,0.6,0.2,1.3,0.2,1.9c0,0.3-0.1,0.5-0.2,0.8C136.2,277.4,136,278.1,135.7,278.9z"/>
	<path class="st0" d="M254.9,248c-0.2-0.4-0.4-0.6-0.4-0.8c-0.4-1.7-0.8-3.5-1.2-5.2c-0.6-2-1-4-2.2-5.7c-0.3-0.5-0.7-0.9-1.1-1.4
		c-0.4-0.5-0.9-0.9-1.5-1.5c1-0.3,1.9-0.6,2.7-0.9c1-0.3,1.9-0.6,2.9-0.8c0.7-0.2,1.5-0.3,2.2-0.3c2,0,4.1,0,6.1,0
		c0.5,0.8,0.2,1.6,0.2,2.4c-0.6,0.1-1.1,0.3-1.6,0.4c-3.1,0.9-5.4,3.5-5.6,6.9c-0.1,2-0.2,4-0.3,6C255.1,247.3,255,247.5,254.9,248z
		"/>
	<path class="st0" d="M96.7,278.7c-0.7-0.1-0.6-0.6-0.6-1c-0.1-1.9-0.1-3.8-0.4-5.6c-0.2-1.3-0.8-2.7-2.2-3.4
		c-0.3-0.2-0.7-0.3-1.1-0.4c-0.4-0.1-0.8-0.2-1.2-0.4c0-0.2,0-0.3,0.1-0.3c1.2-0.1,2-1.3,3.2-1.4c0,0,0.1,0,0.1,0c2.8,0,5.6,0,8.4,0
		c0.6,0,1.3,0.1,1.9,0.2c0.5,0,1.1,0,1.7,0c0,0.7-0.4,0.8-0.7,1c-1.6,1.1-3.2,2.3-4.7,3.5c-1.8,1.4-2.6,3.4-3.5,5.4
		C97.3,277,97,277.8,96.7,278.7z"/>
	<path class="st0" d="M119.3,267.8c0.5-0.2,0.8-0.3,1-0.4c0.3-0.1,0.6-0.2,0.7-0.3c0.5-0.8,1.3-0.8,2-0.8c2.6-0.1,5.1-0.1,7.7,0
		c1.1,0,2.2,0.2,3.4,0.4c-0.1,0.6-0.6,0.7-1,0.9c-1.4,0.8-2.8,1.6-4.1,2.4c-1.7,1.1-2.7,2.6-3.3,4.5c-0.2,0.7-0.5,0.9-1.3,0.8
		c-0.7-0.1-0.8-0.5-0.8-1.1c-0.1-1.3-0.3-2.6-0.8-3.8c-0.6-1.1-1.3-2-2.6-2.2C120,268,119.8,267.9,119.3,267.8z"/>
	<path class="st0" d="M190.5,259.5c-0.7-0.2-1.2-0.4-1.8-0.5c-0.2-0.6-0.3-1.2-0.5-1.8c-0.6-1.6-1.8-2.4-3.4-2.6
		c-0.5-0.1-0.9-0.1-0.9-0.8c0.5-0.1,1-0.1,1.5-0.2c0-0.2,0-0.5-0.1-0.8c0.6-0.1,1.2-0.3,1.7-0.3c1.8,0,3.5,0,5.3,0
		c2.3,0.1,4.5,0.2,6.8,0.2c0.2,0,0.4,0.1,0.7,0.2c-0.5,0.7-1.2,0.9-1.9,1.2c-2,0.9-4.1,1.8-5.9,3.2
		C191.2,257.8,190.9,258.7,190.5,259.5z"/>
</g>
<g>
	<g>
		<g>
			<path class="st0" d="M273.4,342.6v1.4h-3v30.6l10-27.8v-2.8h-3v-1.4h13.3v1.4H287v37.5h3.6v1.4h-13.3v-1.4h3V351l-10,27.9v2.5h3
				v1.4h-13.3v-1.4h3.6v-37.5h-3.6v-1.4H273.4z M277.9,339.3c0.6-0.3,0.9-0.7,0.9-1.2c0-0.5-0.4-1-0.7-1.4c-0.5-0.7-0.7-1.3-0.7-2
				c0-1.9,1.4-2.9,2.8-2.9c1.4,0,2.9,1,2.9,3.3c0,1.8-0.8,3.2-2.1,4.1c-1.8,1.3-4,1.5-5.5,1.5s-3.7-0.2-5.5-1.5
				c-1.3-0.9-2.1-2.3-2.1-4.1c0-2.3,1.5-3.3,2.9-3.3c1.5,0,2.8,1.2,2.8,2.9c0,0.7-0.2,1.4-0.6,1.8c-0.4,0.6-0.9,1-0.9,1.5
				c0,0.4,0.4,0.9,0.9,1.2c0.6,0.3,1.7,0.4,2.5,0.4S277.2,339.6,277.9,339.3z"/>
		</g>
		<g>
			<path class="st0" d="M125.7,289.2v1.4h-3.6v37.5h3.6v1.4h-13.3v-1.4h3v-37.5h-10.1v37.5h3v1.4H95.1v-1.4h3.6v-37.5h-3.6v-1.4
				H125.7z"/>
		</g>
		<g>
			<path class="st0" d="M153.3,302.1c-0.4-3.2-1.4-5.6-2.1-7c-0.7-1.6-2.6-5.1-6.2-5.1c-1.8,0-4,1-5.2,4c-1.1,2.6-1.3,6.3-1.3,10.4
				v8.4c0,5.7,0.5,9.5,1.9,12.1c1.2,2.3,3,3.6,4.5,3.6c1.7,0,4.5-1,6.6-5.4c1.1-2.3,1.8-4.5,2.1-8h1.5l-0.4,14.3h-1.5
				c-0.5-1.3-1.2-1.5-1.8-1.5c-0.9,0-1.8,0.6-2.8,1.1c-0.7,0.4-1.8,0.9-3.6,0.9c-5.1,0-8.3-2.9-10.9-7.4c-1.7-3.1-3.3-6.9-3.3-13.1
				c0-6.5,2.3-12.5,5-16c2.7-3.5,5.9-4.7,8.6-4.7c1.6,0,3.1,0.4,4.4,0.9c1.2,0.5,1.8,0.8,2.3,0.8c0.4,0,1.4-0.2,1.6-1.2h1.6v13
				H153.3z"/>
		</g>
		<g>
			<path class="st0" d="M173.6,289.2v1.4H170v17.1h2.3c1.5,0,3.9-0.2,4.3-4.7c0.6-6.8,0-3.1,0.4-7.3c0.7-7.1,4.1-7.1,5.2-7.1
				c1.4,0,3.1,0.3,4.4,1.8c0.8,1,1.3,2.3,1.3,3.4c0,1.2-0.2,2.6-1.1,3.7c-0.7,0.9-1.5,1.3-2.7,1.3c-2.6,0-3.5-2.7-3.5-4.4
				c0-1.4,0.6-1.7,0.6-2.5c0-0.3-0.2-0.7-0.7-0.7c-2.2,0-2,6-2.2,9.2c-0.1,4.2-0.6,5.9-2.2,7.2l0.1,0.2c3.6,0.4,5.9,1.5,7.5,4.5
				c1.4,2.5,1.4,4.9,1.5,6.8c0.1,1.7,0.4,5.2,0.5,6.4c0.1,0.9,0.2,2,1.5,2c0.4,0,0.7-0.2,1.1-0.6l0.6,0.9c-1.6,1.5-3.6,1.8-5.2,1.8
				c-1.5,0-2.5-0.6-3.1-1.2c-1.4-1.2-1.8-3.4-2-5.1c-0.2-1.5-0.3-3-0.6-7.3c-0.1-1.8-0.2-4.1-1.4-5.6c-1.1-1.5-2.6-1.8-3.6-1.8H170
				v19h3.6v1.4h-13.8v-1.4h3.6v-37.5h-3.6v-1.4H173.6z"/>
		</g>
		<g>
			<path class="st0" d="M197.6,292.8c3-3.2,6-4.1,8.3-4.1c3.6,0,6.4,1.9,8.4,4.1c4.9,5.3,5.8,12,5.8,16.5c0,2.5-0.2,10.8-5.8,16.6
				c-3.3,3.4-6.5,4-8.4,4c-2.4,0-5.4-1-8.3-4c-2.3-2.5-5.8-7.5-5.8-16.6C191.8,301.2,194.6,296,197.6,292.8z M199.3,315.9
				c0,2.9,0.4,7.6,2.2,10.1c1.5,2.2,3.4,2.5,4.4,2.5c1.8,0,3.6-0.9,4.6-2.4c1.5-2.2,2.1-8,2.1-10.2v-13.2c0-3-0.7-7.9-2.1-10.1
				c-1.1-1.8-2.6-2.6-4.6-2.6c-2.2,0-3.5,1.1-4.5,2.7c-1.7,2.7-2.1,8-2.1,10.1V315.9z"/>
		</g>
		<g>
			<path class="st0" d="M239.3,289.2c6,0,8.4,1.6,9.4,2.4c1.3,1,2.7,3,2.7,6.1c0,3.3-1.5,5.3-2.7,6.5c-1.6,1.5-3.6,2.2-6.4,2.9v0.3
				c3.7,1,5.7,2.3,7.4,4c2.1,2.2,2.6,3.9,2.6,6.7c0,2.7-0.6,5-2.5,7.3c-3,3.6-7.4,4.1-10.3,4.1h-13.9v-1.4h3.6v-37.5h-3.6v-1.4
				H239.3z M238.9,306.2c1.2,0,2.7-0.1,3.9-1.8c1.1-1.5,1.2-2.9,1.2-4.2v-4.1c0-1.5-0.1-3.6-1.8-4.9c-1-0.7-2-0.7-3-0.7h-3.4v15.7
				H238.9z M238.6,328.1c3.6,0,4.7-1.5,5.3-2.5c0.8-1.6,0.9-3.5,0.9-5.3V316c0-2.3-0.1-3.9-1-5.8c-0.6-1.2-1.8-2.6-4.6-2.6h-3.3
				v20.5H238.6z"/>
		</g>
		<g>
			<path class="st0" d="M263.4,292.8c3-3.2,6-4.1,8.3-4.1c3.6,0,6.4,1.9,8.4,4.1c4.9,5.3,5.8,12,5.8,16.5c0,2.5-0.2,10.8-5.8,16.6
				c-3.3,3.4-6.5,4-8.4,4c-2.4,0-5.4-1-8.3-4c-2.3-2.5-5.8-7.5-5.8-16.6C257.6,301.2,260.4,296,263.4,292.8z M265.1,315.9
				c0,2.9,0.4,7.6,2.2,10.1c1.5,2.2,3.4,2.5,4.4,2.5c1.8,0,3.6-0.9,4.6-2.4c1.5-2.2,2.1-8,2.1-10.2v-13.2c0-3-0.7-7.9-2.1-10.1
				c-1.1-1.8-2.6-2.6-4.6-2.6c-2.2,0-3.5,1.1-4.5,2.7c-1.7,2.7-2.1,8-2.1,10.1V315.9z"/>
		</g>
		<g>
			<path class="st0" d="M293.2,313.7h12.9v2.8h-12.9V313.7z"/>
		</g>
		<g>
			<path class="st0" d="M34.4,342.6v1.4h-3.6v37.5h3.6v1.4H21.1v-1.4h3v-37.5H14v37.5h3v1.4H3.8v-1.4h3.6v-37.5H3.8v-1.4H34.4z"/>
		</g>
		<g>
			<path class="st0" d="M64.4,342.6l0.3,12.9h-1.5c-0.1-1.8-0.7-4.5-1.7-6.8c-0.9-1.8-2.9-4.8-7.3-4.8H50V360h2.8c1.1,0,2-0.3,3-1.7
				c1-1.5,1.5-3.7,1.5-5.6h1.5v16.1h-1.5c0-1.3-0.2-3-0.6-4.2c-1-3.1-3.1-3.2-3.9-3.2H50v20.1h4.1c3.4,0,6-2.5,7.5-5
				c1.2-2.1,2.1-4.9,2.3-7h1.5L65,382.8H39.8v-1.4h3.6v-37.5h-3.6v-1.4H64.4z"/>
		</g>
		<g>
			<path class="st0" d="M81.8,342.6v1.4h-3V358c0,3.7,0.2,5.1,0.7,5.8c0.6,0.9,1.7,1.5,2.8,1.5c1.3,0,3.7-1.1,5.2-2.1v-19.4h-3v-1.4
				h13.2v1.4H94v37.5h3.6v1.4H83.8v-1.4h3.6v-16.8c-1.7,1.3-4.7,3-8.1,3c-3.4,0-5.1-1.8-5.5-2.4c-1.2-1.5-1.7-3.9-1.7-8v-13.3h-3.6
				v-1.4H81.8z"/>
		</g>
		<g>
			<path class="st0" d="M127.7,342.6l0.3,12.9h-1.5c-0.1-1.8-0.7-4.5-1.7-6.8c-0.9-1.8-2.9-4.8-7.3-4.8h-4.1V360h2.8
				c1.1,0,2-0.3,3-1.7c1-1.5,1.5-3.7,1.5-5.6h1.5v16.1h-1.5c0-1.3-0.2-3-0.6-4.2c-1-3.1-3.1-3.2-3.9-3.2h-2.8v20.1h4.1
				c3.4,0,6-2.5,7.5-5c1.2-2.1,2.1-4.9,2.3-7h1.5l-0.4,13.3h-25.2v-1.4h3.6v-37.5h-3.6v-1.4H127.7z"/>
		</g>
		<g>
			<path class="st0" d="M147.1,342.6c2,0,4.5,0.2,6.6,1c2.6,1,6.4,3.6,6.4,10.8c0,2.9-0.6,7.6-5.2,9.8c-2.7,1.3-6.6,1.5-8.1,1.5
				h-3.1v15.9h4.1v1.4h-14.3v-1.4h3.6v-37.5h-3.6v-1.4H147.1z M145.9,364.2c1.2,0,3,0,4.4-0.9c2.6-1.8,2.3-5.5,2.3-8V351
				c0-2.5-0.2-5.5-2.5-6.5c-0.7-0.3-2.6-0.6-3.7-0.6h-2.6v20.3H145.9z"/>
		</g>
		<g>
			<path class="st0" d="M186.8,355.5c-0.4-3.2-1.4-5.6-2.1-7c-0.7-1.6-2.6-5.1-6.2-5.1c-1.8,0-4,1-5.2,4c-1.1,2.6-1.3,6.3-1.3,10.4
				v8.4c0,5.7,0.5,9.5,1.9,12.1c1.2,2.3,3,3.6,4.5,3.6c1.7,0,4.5-1,6.6-5.4c1.1-2.3,1.8-4.5,2.1-8h1.5l-0.4,14.3h-1.5
				c-0.5-1.3-1.2-1.5-1.8-1.5c-0.9,0-1.8,0.6-2.8,1.1c-0.7,0.4-1.8,0.9-3.6,0.9c-5.1,0-8.3-2.9-10.9-7.4c-1.7-3.1-3.3-6.9-3.3-13.1
				c0-6.5,2.3-12.5,5-16c2.7-3.5,5.9-4.7,8.6-4.7c1.6,0,3.1,0.4,4.4,0.9c1.2,0.5,1.8,0.8,2.3,0.8c0.4,0,1.4-0.2,1.6-1.2h1.6v13
				H186.8z"/>
		</g>
		<g>
			<path class="st0" d="M207.2,342.6v1.4h-3.6V361h2.3c1.5,0,3.9-0.2,4.3-4.7c0.6-6.8,0-3.1,0.4-7.3c0.7-7.1,4.1-7.1,5.2-7.1
				c1.4,0,3.1,0.3,4.4,1.8c0.8,1,1.3,2.3,1.3,3.4c0,1.2-0.2,2.6-1.1,3.7c-0.7,0.9-1.5,1.3-2.7,1.3c-2.6,0-3.5-2.7-3.5-4.4
				c0-1.4,0.6-1.7,0.6-2.5c0-0.3-0.2-0.7-0.7-0.7c-2.2,0-2,6-2.2,9.2c-0.1,4.2-0.6,5.9-2.2,7.2l0.1,0.2c3.6,0.4,5.9,1.5,7.5,4.5
				c1.4,2.5,1.4,4.9,1.5,6.8c0.1,1.7,0.4,5.2,0.5,6.4c0.1,0.9,0.2,2,1.5,2c0.4,0,0.7-0.2,1.1-0.6l0.6,0.9c-1.6,1.5-3.6,1.8-5.2,1.8
				c-1.5,0-2.5-0.6-3.1-1.2c-1.4-1.2-1.8-3.4-2-5.1c-0.2-1.5-0.3-3-0.6-7.3c-0.1-1.8-0.2-4.1-1.4-5.6c-1.1-1.5-2.6-1.8-3.6-1.8h-2.6
				v19h3.6v1.4h-13.8v-1.4h3.6v-37.5h-3.6v-1.4H207.2z"/>
		</g>
		<g>
			<path class="st0" d="M239,342.6v1.4h-3v30.6l10-27.8v-2.8h-3v-1.4h13.3v1.4h-3.6v37.5h3.6v1.4H243v-1.4h3V351l-10,27.9v2.5h3v1.4
				h-13.3v-1.4h3.6v-37.5h-3.6v-1.4H239z"/>
		</g>
		<g>
			<path class="st0" d="M14.3,396l6.8,25.8l6.7-25.8h10.6v1.4h-3.6v37.5h3.6v1.4H24.6v-1.4h3.6v-35.6l-9.4,37h-0.9l-9.5-37V427
				c0,4.4,0.6,5.7,0.9,6.2c0.7,1.3,1.5,1.6,2.5,1.7v1.4H3.3v-1.4c0.8-0.1,1.9-0.5,2.7-1.8c0.9-1.5,1-4.4,1-6.3v-23.4
				c0-3.3-0.3-4.4-0.8-5c-0.4-0.6-1.4-1-2.7-1.1V396H14.3z"/>
		</g>
		<g>
			<path class="st0" d="M49.1,399.6c3-3.2,6-4.1,8.3-4.1c3.6,0,6.4,1.9,8.4,4.1c4.9,5.3,5.8,12,5.8,16.5c0,2.5-0.2,10.8-5.8,16.6
				c-3.3,3.4-6.5,4-8.4,4c-2.4,0-5.4-1-8.3-4c-2.3-2.5-5.8-7.5-5.8-16.6C43.3,408,46.1,402.8,49.1,399.6z M50.8,422.7
				c0,2.9,0.4,7.6,2.2,10.1c1.5,2.2,3.4,2.5,4.4,2.5c1.8,0,3.6-0.9,4.6-2.4c1.5-2.2,2.1-8,2.1-10.2v-13.2c0-3-0.7-7.9-2.1-10.1
				c-1.1-1.8-2.6-2.6-4.6-2.6c-2.2,0-3.5,1.1-4.5,2.7c-1.7,2.7-2.1,8-2.1,10.1V422.7z"/>
		</g>
		<g>
			<path class="st0" d="M89.7,396v1.4h-3v17h10v-17h-3V396h13.2v1.4h-3.6v37.5h3.6v1.4H93.7v-1.4h3v-19.2h-10v19.2h3v1.4H76.5v-1.4
				h3.6v-37.5h-3.6V396H89.7z"/>
		</g>
		<g>
			<path class="st0" d="M115.5,424.5l-0.7,2.6c-0.2,1-0.7,3.6-0.7,4.4c0,1.5,0.7,2.4,1.5,2.8c0.4,0.2,1,0.4,2.5,0.6v1.4h-9.8v-1.4
				c2-0.1,2.8-1.3,3.3-2.3c0.7-1.4,1-3.1,1.4-4.5l8.3-32.5h2.8l10,39.4h2.6v1.4h-13v-1.4h3.5l-2.8-10.4H115.5z M120,406.4l-4.3,16.7
				h8.5L120,406.4z"/>
		</g>
		<g>
			<path class="st0" d="M159.7,408.9c-0.4-3.2-1.4-5.6-2.1-7c-0.7-1.6-2.6-5.1-6.2-5.1c-1.8,0-4,1-5.2,4c-1.1,2.6-1.3,6.3-1.3,10.4
				v8.4c0,5.7,0.5,9.5,1.9,12.1c1.2,2.3,3,3.6,4.5,3.6c1.7,0,4.5-1,6.6-5.4c1.1-2.3,1.8-4.5,2.1-8h1.5l-0.4,14.3h-1.5
				c-0.5-1.3-1.2-1.5-1.8-1.5c-0.9,0-1.8,0.6-2.8,1.1c-0.7,0.4-1.8,0.9-3.6,0.9c-5.1,0-8.3-2.9-10.9-7.4c-1.7-3.1-3.3-6.9-3.3-13.1
				c0-6.5,2.3-12.5,5-16c2.7-3.5,5.9-4.7,8.6-4.7c1.6,0,3.1,0.4,4.4,0.9c1.2,0.5,1.8,0.8,2.3,0.8c0.4,0,1.4-0.2,1.6-1.2h1.6v13
				H159.7z"/>
		</g>
		<g>
			<path class="st0" d="M173.3,397.3c-3.6,0-5.3,3.9-5.8,5.1c-0.9,2-1.2,4-1.6,6.6h-1.6l0.3-13h26.3l0.3,13h-1.6
				c-0.3-2.2-0.9-4.8-1.7-6.6c-2-4.9-4.6-5.1-5.7-5.1h-1.2v37.5h3.6v1.4h-13.9v-1.4h3.6v-37.5H173.3z"/>
		</g>
		<g>
			<path class="st0" d="M208.8,396v1.4h-3.6v15.9h1.8c5.2,0,8.4,2,10,3.7c1.3,1.4,2.6,4,2.6,7.9c0,2.8-0.7,6.1-2.7,8.2
				c-2.7,3-6.9,3.1-9.2,3.1h-12.8v-1.4h3.6v-37.5h-3.6V396H208.8z M206.7,434.8c1,0,3.2-0.1,4.4-2.2c0.8-1.3,1-3.9,1-5.6v-4.8
				c0-0.5,0-4.1-1-5.7c-0.5-0.8-1.7-2.1-4.2-2.1h-1.8v20.3H206.7z M233.9,396v1.4h-3.6v37.5h3.6v1.4H220v-1.4h3.6v-37.5H220V396
				H233.9z"/>
		</g>
		<g>
			<path class="st0" d="M252.3,396c2,0,4.5,0.2,6.6,1c2.6,1,6.4,3.6,6.4,10.8c0,2.9-0.6,7.6-5.2,9.8c-2.7,1.3-6.6,1.5-8,1.5H249
				v15.9h4.1v1.4h-14.3v-1.4h3.6v-37.5h-3.6V396H252.3z M251.2,417.6c1.2,0,3,0,4.4-0.9c2.6-1.8,2.3-5.5,2.3-8v-4.4
				c0-2.5-0.2-5.5-2.5-6.5c-0.7-0.3-2.6-0.6-3.7-0.6H249v20.3H251.2z"/>
		</g>
		<g>
			<path class="st0" d="M282.3,396v1.4h-3.6v15.9h1.8c5.2,0,8.4,2,10,3.7c1.3,1.4,2.6,4,2.6,7.9c0,2.8-0.7,6.1-2.7,8.2
				c-2.7,3-6.9,3.1-9.2,3.1h-12.8v-1.4h3.6v-37.5h-3.6V396H282.3z M280.2,434.8c1,0,3.2-0.1,4.4-2.2c0.8-1.3,1-3.9,1-5.6v-4.8
				c0-0.5,0-4.1-1-5.7c-0.5-0.8-1.7-2.1-4.2-2.1h-1.8v20.3H280.2z"/>
		</g>
	</g>
</g>
</svg>
