<?xml version="1.0" encoding="utf-8"?>
<!-- Generator: Adobe Illustrator 24.1.0, SVG Export Plug-In . SVG Version: 6.00 Build 0)  -->
<svg version="1.1" id="Слой_1" xmlns="http://www.w3.org/2000/svg" xmlns:xlink="http://www.w3.org/1999/xlink" x="0px" y="0px"
	 viewBox="0 0 178.8 70.3" style="enable-background:new 0 0 178.8 70.3;" xml:space="preserve">
<style type="text/css">
	.st0{fill:#FFFFFF;}
</style>
<g>
	<g>
		<g>
			<path class="st0" d="M76.9,64.3c-3.4,1.4-6.2-5-6.8-7.4c-0.8-3.1-0.7-6.4-0.4-9.6c0.3-2.8,0.9-5.7,2.3-8.1
				c1.5-2.5,4.2-0.4,5.6,1.1c0.7,0.8,3-1.3,2.3-2.1c-2.2-2.3-4.9-3.5-7.7-1.4c-2.9,2.2-4,6.1-4.7,9.6c-0.8,4.1-0.7,8.6,0.3,12.6
				c0.9,3.8,4.4,9.1,8.8,7.2C77.6,65.9,78.7,63.5,76.9,64.3z"/>
			<path class="st0" d="M103.1,52.6c-0.4-4.1-5-8.9-9.2-9.4c-0.7-0.1-1.9,1-1.9,1.7c-0.1,7.1,0,14.2,0,21.3c0,1.4,2.4-0.3,2.4-1.2
				c0-2.1,0-4.2,0-6.4C98.6,59,103.5,57.8,103.1,52.6z M100.5,55.8c-0.6,1.5-4.8,0.6-6.1,0.3c0-3.4,0-6.8,0-10.2
				c2.5,1.1,4.5,3.6,5.6,5.9C100.5,53,101,54.6,100.5,55.8z"/>
			<path class="st0" d="M110.6,43.5c-0.2-1-2.7,0.7-2.5,1.7c0.3,1.5,0.6,3,0.9,4.5c-3.8,3.7-7.3,9.9-5.7,15.3c0.5,1.8,2,2.5,3.7,1.7
				c2.2-1,3.7-3.1,5-5.2c0.4,1.6,0.7,3.2,1,4.8c0.2,1,2.7-0.7,2.5-1.7C114.3,57.5,111.8,50.6,110.6,43.5z M111.3,59.3
				c-0.7,1.4-1.5,2.7-2.5,4c-0.3,0.4-0.9,1.3-1.5,1.4c-1.2,0.2-1.6-1.6-1.7-2.4c-0.6-3.8,1.3-8,3.9-10.8c0.6,2.6,1.3,5.1,2,7.7
				C111.4,59.2,111.3,59.2,111.3,59.3z"/>
			<path class="st0" d="M128,44.9c0,2.1,0,4.2,0,6.3c-2.2,0.4-4.5,0.1-6.8,0c0-2.5,0-5.1,0-7.6c0-1.4-2.4,0.3-2.4,1.2
				c-0.1,7.1,0,14.2,0,21.3c0,1.4,2.4-0.3,2.4-1.2c0-3.8,0-7.6,0-11.3c2.3,0.1,4.6,0.2,6.8-0.4c0,4.3,0,8.6,0,12.9
				c0,1.4,2.4-0.3,2.4-1.2c0-7.1-0.1-14.2,0-21.3C130.5,42.3,128,44,128,44.9z"/>
			<path class="st0" d="M89.4,43.2c-3.1,0.8-6.4,0.4-9.6,0.3c-0.9,0-2.9,2.3-1.5,2.4c1.5,0,3,0.1,4.5,0.1c0,6.8,0.1,13.5,0.1,20.3
				c0,1.4,2.4-0.3,2.4-1.2c0-6.4-0.1-12.7-0.1-19.1c1.1-0.1,2.2-0.2,3.2-0.5C89.4,45.2,91.1,42.8,89.4,43.2z"/>
			<path class="st0" d="M144.3,44.9c0,2.1,0,4.2,0,6.3c-2.2,0.4-4.5,0.1-6.8,0c0-2.5,0-5.1,0-7.6c0-1.4-2.4,0.3-2.4,1.2
				c-0.1,7.1,0,14.2,0,21.3c0,1.4,2.4-0.3,2.4-1.2c0-3.8,0-7.6,0-11.3c2.3,0.1,4.6,0.2,6.8-0.4c0,4.3,0,8.6,0,12.9
				c0,1.4,2.4-0.3,2.4-1.2c0-7.1-0.1-14.2,0-21.3C146.7,42.3,144.3,44,144.3,44.9z"/>
			<path class="st0" d="M160.3,44.9c0,0.8,0,1.5,0,2.3c-0.2,0.2-0.4,0.5-0.6,0.7c0.3-0.4-0.4,0.5-0.6,0.6c-0.6,0.6-1.3,1.3-2,1.9
				c-1.2,1-2.4,2-3.6,3c0-3.2,0-6.4,0-9.6c0-1.4-2.4,0.3-2.4,1.2c-0.1,7.1,0,14.2,0,21.3c0,1.4,2.4-0.3,2.4-1.2c0-3.1,0-6.2,0-9.3
				c1.8-1.3,3.6-2.7,5.2-4.2c0.5-0.5,1-0.9,1.5-1.4c0,5.4,0,10.8,0,16.2c0,1.4,2.4-0.3,2.4-1.2c0-7.1-0.1-14.2,0-21.3
				C162.8,42.3,160.3,44,160.3,44.9z"/>
			<path class="st0" d="M171.4,52.9c-0.1,0-0.4,0-0.6,0.1c0.4-2.7,3-6.5,5.8-7.2c0.7-0.2,1-2.8,0.1-2.6c-3.7,0.9-6.6,6.2-7,9.7
				c0,0.3,0,0.5,0,0.7c0,0-0.1,0.1-0.1,0.1c0-3.4,0-6.8,0-10.1c0-1.4-2.5,0.3-2.5,1.2c0,7,0,14.1,0,21.1c0,1.4,2.5-0.3,2.5-1.2
				c0-3.5,0-7,0-10.5c0,0,0.1,0,0.1,0.1c4.6,1.3,6.5,7.5,6.8,11.8c0.1,0.9,2.4-0.1,2.3-0.8C178.5,60.7,176.5,54.4,171.4,52.9z"/>
		</g>
		<g>
			<path class="st0" d="M92,10.9c-2.2-0.2-3.9,1.5-5.1,3.2c-2.9,4.3-3.3,11.9-1.1,16.4c0,0,0,0,0,0c0,0,0,0.1,0.1,0.1
				c1.2,1.8,2.9,4.1,5.3,3.8c2-0.2,3.5-2,4.5-3.6c2.6-4.3,3.1-10.9,1.3-15.6C96.3,13.3,94.3,11.1,92,10.9z M94.7,29
				c-0.3,1-1,3.1-2.2,3.3c-1.9,0.2-3.4-2.2-4.2-3.5c-1.7-3.6-1.4-8.1-0.5-11.9c0.4-1.5,1.1-4,3-3.6c2,0.4,3.4,2.4,4.1,4.1
				C96.2,20.9,95.8,25.4,94.7,29z"/>
			<path class="st0" d="M111.5,10.9c-0.1-0.3-0.3-0.3-1,0c-4.2,2-7.2,5.3-8.8,9.7c-1.5,4.1-1.4,8.6-3.1,12.6c-0.7,1.6,2,0.2,2.4-0.7
				c2.7-6.6,1.4-15,8.1-19c-0.3,6.7-0.3,13.5,0,20.2c0,0.9,2.5-0.7,2.4-1.7c-0.3-6.9-0.2-13.9,0.1-20.8
				C111.6,11.1,111.6,11,111.5,10.9z"/>
			<path class="st0" d="M157.9,12.5c0,7,0,14.1,0,21.1c0,1.4,2.5-0.3,2.5-1.2c0-7,0-14.1,0-21.1C160.4,9.9,157.9,11.6,157.9,12.5z"
				/>
			<path class="st0" d="M77.3,14.7c1.3-1.1,2.2-2.5,2.6-4.3c1.2-5-3.1-7.5-7.9-7c-0.1,0-0.3,0.1-0.4,0.2c-0.7,0.1-2,1.1-2,1.8
				c-0.1,9.5,0,19.1,0,28.6c0,0.2,0,0.3,0.1,0.4c-0.1,0.3,0,0.6,0.4,0.6c5.6-0.1,10.4-2.7,11.6-8.5C82.8,21.8,81.6,16.2,77.3,14.7z
				 M77.7,10.1c0.2,2.4-1.3,3.8-3.2,4.2c-0.1,0-0.1,0-0.2,0c-0.7,0.1-1.4,0.1-2.2,0c0-2.9,0-5.7,0-8.6C75,5.7,77.5,6.9,77.7,10.1z
				 M79.6,25.5c-0.1,1.6-0.3,3.3-1.2,4.7c-1.2,2-4.1,2.2-6.2,2.2c0-5.2,0-10.5,0-15.7c0.3,0,0.7,0,1-0.1
				C78.2,16.6,79.7,21.2,79.6,25.5z"/>
			<path class="st0" d="M174.7,6.9c0.3-0.3,1.1-1.1,0.6-1.5c-0.4-0.4-1.3,0.2-1.6,0.5c-1.4,1.5-3.7,0.6-4.9-0.7
				c-0.7-0.8-2.9,1.3-2.2,2C168.8,9.7,172.4,9.2,174.7,6.9z"/>
			<path class="st0" d="M138.1,12.5c0,2.1,0,4.2,0,6.3c-2.2,0.4-4.6,0.1-6.8,0.1c0-2.5,0-5.1,0-7.6c0-1.4-2.4,0.3-2.4,1.2
				c-0.1,7.1,0,14.2,0,21.3c0,1.4,2.4-0.3,2.4-1.2c0-3.8,0-7.6,0-11.3c2.3,0.1,4.6,0.2,6.8-0.4c0,4.3,0,8.6,0,12.9
				c0,1.4,2.4-0.3,2.4-1.2c0-7.1,0-14.2,0-21.3C140.5,9.9,138.1,11.5,138.1,12.5z"/>
			<path class="st0" d="M176.2,11.3c0-1.4-2.4,0.3-2.4,1.2c0,0.8,0,1.5,0,2.3c-0.2,0.2-0.4,0.5-0.6,0.7c0.3-0.4-0.4,0.5-0.6,0.6
				c-0.6,0.6-1.3,1.3-2,1.9c-1.2,1-2.4,2-3.6,3c0-3.2,0-6.4,0-9.6c0-1.4-2.4,0.3-2.4,1.2c-0.1,7.1,0,14.2,0,21.3
				c0,1.4,2.4-0.3,2.4-1.2c0-3.1,0-6.2,0-9.3c1.8-1.3,3.6-2.7,5.2-4.2c0.5-0.5,1-0.9,1.5-1.4c0,5.4,0,10.8,0,16.2
				c0,1.4,2.4-0.3,2.4-1.2C176.2,25.5,176.1,18.4,176.2,11.3z"/>
			<path class="st0" d="M118.4,19.4c0-2.7,0-5.4,0-8.1c0-1.4-2.5,0.3-2.5,1.2c0,7-0.1,14.1,0.4,21.1c0,0.3,0.3,0.3,0.5,0.3
				c3.4,0.3,8.4-0.2,9.8-4C128.1,25.9,121.7,21.5,118.4,19.4z M122.2,31.5c-1.1,0.2-2.3,0.2-3.4,0.2c-0.4,0-0.4-6-0.4-6.6
				c0-0.7,0-1.5,0-2.2C121.9,25.3,127.6,30.2,122.2,31.5z"/>
			<path class="st0" d="M147.6,19.4c0-2.7,0-5.4,0-8.1c0-1.4-2.5,0.3-2.5,1.2c0,7-0.1,14.1,0.4,21.1c0,0.3,0.3,0.3,0.5,0.3
				c3.4,0.3,8.4-0.2,9.8-4C157.3,25.9,150.9,21.5,147.6,19.4z M151.4,31.5c-1.1,0.2-2.3,0.2-3.4,0.2c-0.4,0-0.4-6-0.4-6.6
				c0-0.7,0-1.5,0-2.2C151.2,25.3,156.9,30.2,151.4,31.5z"/>
		</g>
	</g>
	<g>
		<path class="st0" d="M41.1,3.5c-8.7-5.6-19.9-4.3-27.8,2.1C-5.3,20.4-4.8,56.8,17.6,68c8.3,4.2,18.4,2.4,25.5-3.3
			c9-7.2,13.1-18.6,13.2-29.9C56.2,22.8,51.5,10.2,41.1,3.5z M16.4,64.6c8.3-1.9,16.8-2,25.2-0.4c-0.2,0.1-0.3,0.2-0.5,0.4
			c-7-0.9-13.9-0.3-20.7,1.8c-0.2,0.1-0.4,0.2-0.5,0.4C18.7,66.1,17.5,65.4,16.4,64.6z M22,67.6c5.3-1.4,10.8-1.9,16.3-1.3
			c-0.8,0.5-1.7,0.9-2.6,1.2C30.9,69.5,26.2,69.3,22,67.6z M43.7,62.4c0-0.1-0.1-0.1-0.2-0.1c-9.5-1.9-19.1-1.6-28.4,0.9
			c-0.1,0-0.2,0.1-0.3,0.1c-1.5-1.3-2.9-2.7-4.1-4.2c5.7,1.2,11.7-3.7,13.3-10.3c0.8-3.5,1.1-7.2,1.3-10.9c4.3-1.7,5.5-8.2,4.9-12.2
			c-0.5-3.2-4.2-3.8-5.7-0.9c-0.6,1.2-0.6,2.7-0.7,4c-0.2,2.5-0.3,5-0.5,7.5c0,0.1,0,0.2,0,0.2c-2.7,0-4.9-2.2-6.1-4.6
			c-2.1-4.3-2.4-14.4,4.2-15.1c6.1-0.6,9.9,6.6,13.7,10.1c1.7,1.6,4.7,2.4,7.1,1.7c-1.8,7.5-3.4,15.1-5,22.6c-0.6-1.5-1-3.2-1.3-4.6
			c-1.2-5.2-1.4-10.7-1.2-16c0-1.2-2.1,0.3-2.2,1.1c-0.2,5.7,0.1,11.5,1.3,17.1c0.5,2.2,1.2,4.6,2.4,6.6c-0.3,1.4-0.6,2.8-1,4.2
			c-0.3,1.1,2-0.3,2.2-1.1c0.1-0.4,0.2-0.7,0.3-1.1c1,1.1,2.2,2,3.6,2.5c0.8,0.3,2.6-1.7,1.7-2c-2-0.7-3.5-2.2-4.6-4
			c2-8.9,3.8-17.9,5.9-26.8c0.4-0.4,0.7-0.9,0.9-1.6c0.2-0.5,0-0.7-0.4-0.6c0.8-3.3,1.7-6.6,2.7-9.8c0.4-1.4-1.8-0.2-2,0.6
			c-1.1,3.7-2.1,7.3-3,11.1c-1.2,0.4-3.5-0.4-4.2-0.7c-1-0.5-2-1.6-2.8-2.4c-2.3-2.3-4.2-5.2-6.9-7.1c-3.3-2.4-7.3-2.5-10.4,0
			C14.2,20,13,25,13.9,30c0.9,5,4.2,8.8,9.2,8.3c-0.2,4.4-0.4,8.9-1.7,13.1c-1,3.3-3.6,5.7-7.1,6c-3.1,0.3-5.6-1.7-7.4-4.1
			c-0.2-0.3-0.3-0.6-0.5-0.9C0.6,40.3,1.4,24.8,8.5,13.3C11.8,8,16.8,3.6,22.9,1.9c5.9-1.6,12.1,0.1,17,3.5
			c9.6,6.5,13.8,18.9,13.9,30C53.7,44.9,50.6,55.5,43.7,62.4z M26.3,24.9c0.2,0,0.4,0,1,0.6c2.2,2.3,0.9,9.1-1.9,10.6
			c0-0.7,0.1-1.4,0.1-2.2c0.1-2.2,0.2-4.5,0.5-6.7C26,26.5,26.1,25.7,26.3,24.9C26.3,24.9,26.3,24.9,26.3,24.9z"/>
		<path class="st0" d="M37.3,9.1c-0.2,0.1-0.5,0.1-0.7,0.2c-0.2-1.6-0.7-3.1-2.2-3.6C32,5,29.5,8.4,29,10.2
			c-0.2,0.6-0.2,1.6-0.1,2.8c-0.9,0.7-0.9,2.2,0.3,1.5c0.5,2,1.5,3.9,3.1,3.8c3-0.1,3.9-3.3,4.3-5.7c0-0.4,0.1-0.9,0.1-1.4
			c0,0,0,0,0,0C37.5,10.9,38.7,8.7,37.3,9.1z M31.2,8.8c0.9-2,2.7-0.6,3.1,0.7c0.1,0.2,0.1,0.4,0.2,0.6c-1.2,0.5-2.3,1-3.4,1.6
			C30.8,10.7,30.8,9.6,31.2,8.8z M34.5,13.8c-0.1,0.5-0.1,2.2-0.8,2.4c-0.9,0.2-1.5-0.9-1.8-1.6c-0.2-0.4-0.4-0.9-0.6-1.4
			c1-0.5,2.2-1,3.3-1.4C34.6,12.5,34.6,13.2,34.5,13.8z"/>
	</g>
</g>
</svg>
