
<svg xmlns="http://www.w3.org/2000/svg" version="1.1" xmlns:xlink="http://www.w3.org/1999/xlink" preserveAspectRatio="none" x="0px" y="0px" width="1040px" height="993px" viewBox="0 0 1040 993">
<defs>
<g id="Layer1_0_FILL">
<path fill="#FFFFFF" stroke="none" d="
M 658.15 287.9
L 658.25 287.75 650.4 281.8
Q 649.05 280.9 647.95 279.65
L 645.95 277.15
Q 644.75 275.2 644.45 274.25
L 641.4 268.4 639.25 265.75
Q 638.65 265.05 637 263.4 635.8 262.25 634.5 261.25
L 630.9 258 630.5 257.5 630.25 257.05 630.25 256.8
Q 629.8 254.95 628.75 253.65 627.9 252.4 626.4 251.2 625.05 250.15 623.75 249.65
L 623.5 247.2
Q 625.5 246.8 627.45 245.4 629.35 243.95 630.65 241.65 631.35 240.25 631.9 238.2 631.95 238.15 632.15 236.9
L 632.25 235.1 631.95 231.9
Q 631.45 230.05 630.65 228.4 629.4 226.15 627.5 224.65 625 222.9 621.95 222.45
L 621.9 222.45 622.45 215.7 625.65 217.5 625.55 213.35 622.9 211.65 622.65 202.4 627.65 202.9 627.55 198.75 627.25 198.65 622.25 197.6
Q 622.25 193.2 622.45 190.35
L 622.45 190 618.3 188.5 618.15 195.15 611.25 193.15 610.75 198.4 618.45 201.6 618.55 208.9 616.5 207.65 616.25 211.35 618.95 213.25 619.4 222.4 618.7 222.5
Q 617.1 222.75 615.4 223.45 614.05 224.15 612.45 225.4 611.1 226.6 610.15 228.15 609.2 229.6 608.7 231.45 608.25 233.25 608.4 235 608.55 238.55 610.55 241.65 612.45 244.55 615.55 246.15 616.85 246.8 617.9 247.1
L 617.75 249.95 613.5 252.75 611.7 254.95 611.05 256.3 610.9 257.05 610.9 257.5
Q 609.55 258.35 608.4 259.25 606.4 260.85 605.75 261.5 604.25 263.05 603.25 263.9
L 599.25 269 594 278.15 587.25 284.15 585.25 285.4
Q 584.2 286.05 583.25 286.9
L 581.5 288.75
Q 580.95 289.4 580.75 289.9
L 580.15 291.05
Q 579.8 292.3 579.8 292.5
L 579.75 292.75 579.8 293.9 580.25 295.4 581.2 296.55
Q 581.6 297.1 582.45 297.4 582.8 297.6 583.75 297.9 584.3 298.05 585.05 298.05
L 586.45 298.15 587.2 298.05 587.25 304.25
Q 587.25 304.85 587.55 305.75 587.85 306.5 588.4 307.05 589.35 308.15 590.65 308.3
L 590.45 347.9 589.45 352 584.75 353.3
Q 580.6 354.75 578.75 355.8 577.8 356.3 577.25 356.75 576.65 357.05 575.9 357.8 575.35 358.3 574.7 359.25 574.3 359.75 574.2 360.15 573.9 360.95 574 361.5
L 574 365.05 570.25 366.4
Q 567.85 367.1 565.7 368.05 563.4 369 556.8 372 550.6 375.25 548.4 376.65 545.35 378.4 544.25 379.25
L 532.55 387.75 525.4 394.15
Q 523.05 396.35 521.95 397.55 519.75 399.7 518.55 401.05
L 506.45 416 496.2 432.3
Q 493 438.25 491.75 440.9 487.55 449.4 484.25 458.65
L 482.7 463.05
Q 481.95 464.75 480.5 467.25 477.85 471.9 475.6 475.5
L 475.6 475.4 464.35 486.5 464 486.8 464.35 487.15
Q 465.35 488.55 465 489.75 464.75 491.1 463.35 492.05
L 457.7 495.25
Q 455.8 496.75 455.2 497.4 453.9 498.5 452.95 499.75
L 451 502.5
Q 450.1 503.85 449.45 505.4 448.75 506.95 448.35 508.5
L 447.75 511.75
Q 447.7 513.45 448.45 515 449.05 516.45 450.25 517.75 452.2 519.85 455.6 521.55 458.1 522.95 461.5 524
L 461.2 528.35
Q 460.8 533.55 460.45 544 459.95 554.7 459.45 575.25
L 458.75 606.5
Q 458.2029296875 645.6876953125 458.1 668.8
L 455.35 668.8 455.35 668.5 413.7 663 413.85 639.1 414.25 632.95 410.75 632.1 409.1 631.45 407.6 630.45 406 628.5 405.6 627.7 405 625.2 405.5 623.75
Q 406.30546875 623.3890625 406.85 623 408.05 621.95 408.7 620.75
L 408.95 620 409.1 619.25 409.1 617.8
Q 409.05 616.45 408.25 615.2 407.35 613.3 405 611.2
L 403.85 610.1 403.75 610.05 403.75 609.8
Q 403.55 609 403.45 607.6
L 403.75 589.45 408.5 589.45 407.6 585.75 403.6 585.75 403.6 579.25 399.7 579.25 399.75 586.25 394.45 586.5 394.25 589.85 399.45 589.85 398.85 605.6 397.95 610 397.75 610.45 397.75 610.5 397.7 610.5 397.6 610.6 396.85 611.6 395.1 613.25
Q 393.85 614.45 393.25 615.55
L 392.75 617.2 392.75 618.7
Q 392.9 620.25 393.7 621.55 394.4 622.85 395.85 623.75
L 397.25 624.35 397.4 624.4 397.75 625.5
Q 397.65 626.5 397.45 627.25
L 396.6 628.75 396 629.3 396 629.35 395.85 629.5 395.1 630.05 393.45 631 391.5 631.75 389.45 632.25 386.1 632.7 385.25 658.2 340.35 653.45 338.1 500.75 349.7 495.05 349.45 494.5 349.85 494.25 349.25 494.15 345.75 485.3 332.95 483.05 333.35 476.65 335.75 473.25 313.5 468.55 313.2 372.5 313.6 371 313.2 370.9 313.2 369 316.35 369.25 316.6 369.25 316.75 369.15 325.95 364.4 313.1 360.9 313.1 358.9 318.25 351.3 314.6 350.5 304.6 346.9 304.85 339.3 301.7 338.45 301.75 338.25 301.95 338.25 302.25 330.8
Q 302.5 327.75 302.6 323.8 305.5 322.35 307 321.25 308.3 320.3 309 319.15 309.95 317.85 309.95 316.25 309.95 315 309 313.4 308.1 312.05 307.1 311.15 305.2 309.5 303.2 308.25
L 303.6 305.75 303.6 305.3 303.5 305.05 302 299.05 302 298.9 301.85 298.8 301.1 297.9 300.25 297.15
Q 300.201953125 297.101953125 298.7 295.9
L 299.35 295.05 296.35 291.8 291.95 284.15 274.35 243.2 268 231.35 268 231.2 255.8 214.15 255.55 213.85 255.35 213.75 255.75 188.6
Q 255.6 187.35 255.1 186.45 254.081640625 185.0150390625 252.05 184.1
L 252.25 183.75 252.55 183.75 253.1 174.1 255.3 174.35 254.85 170.4
Q 256.85 168.85 258.75 166.6 260.85 163.8 261.85 161.7 263.25 159.1 263.95 156.2 264.35 154.55 264.5 153.35
L 264.85 147.5 264.45 144.6 262.7 138.9
Q 261.75 136.65 259.85 133.75 258.85 132.15 256.45 129.15
L 246.1 117.85 244.75 115.75
Q 244.5 115.4 244.1 114.6 243.25 112.35 243.25 112.2
L 242.05 106.95
Q 241.9 106.15 241.4 101.45 241.3 99.7 241.3 96 241.4 92.55 241.5 91.2
L 241.55 91.2
Q 242.05 90.85 242.25 90.6 242.5 90.5 242.85 89.95
L 243.3 89.2 243.55 88.45 243.65 87.85 243.65 87.7
Q 243.75 86.95 243.4 86
L 243.35 85.95
Q 244.4 85.05 245 83.2
L 245.35 80.85 245.35 76.85
Q 245.15 75.75 244.8 74.6 244.05 72.8 243.1 71.85 242.3 71.05 241.1 70.5
L 241.4 57.7 245.6 55.8 245.85 55.75 245.9 55.3 246.1 47.5 242.1 49.05 242.85 24.5 258.85 30.25 258.75 23.25 242.3 16.75 242.35 13.65 246.05 14.95 247.05 8.85 242.3 7.35 242.55 0 231.9 0 232 9.2 236.85 11.4 236.85 16 219.6 10.6 219.55 16 236.35 22.3 236.5 52.75 231.65 56.1 231.8 62.1 236.8 59.75 237.05 70.35
Q 236 70.65 235.1 71.2 233.2 72.6 232.3 74.85 231.8 75.9 231.75 77.2 231.6 78.45 231.85 79.45 232.1 81.45 233.25 83.7
L 234.05 84.95 233.9 85.1
Q 233.6 85.8 233.6 86.6 233.65 87.55 233.85 88.1 234.15 88.85 234.5 89.35 234.55 89.45 235.15 90.35 235.35 95.4 234.9 101.35
L 234.35 106.95 233.3 112.45
Q 232.25 115.75 231.35 117.6
L 229.75 119.7 219.6 129.5
Q 217.3 132.05 215.85 133.9 214 136.45 212.65 138.85 211.15 141.65 210.4 144.25
L 209.65 148.7 209.6 150.2
Q 209.75 152.55 209.9 153.2
L 210.6 156.15
Q 211.45 159 212.9 161.5 214.1 163.8 216.15 166.4 217.95 168.55 219.8 170.4
L 219.3 173.4 221.6 173.35 222.15 185.15 221.35 185.65
Q 220.15 186.4 219.6 187.1
L 219.35 187.25 220.1 213.7 219.35 213.9 206.75 231.15 202 238.9
Q 199.85 243 199.35 244.25
L 195.85 252.6 192.9 261.05
Q 192.5 262.35 191.3 266.75
L 189.65 272.5
Q 188.8 275.7 188 278.15
L 187 280.65 181.8 287.5
Q 178.65 291.05 175.35 294.4
L 175.15 294.5
Q 174.2 295.35 173.65 296
L 173.5 296.3 169.15 303.75 170.05 305
Q 169.9373046875 305.1259765625 169.8 305.25 167.8 306.95 166.9 309 166.35 310.35 166.85 311.4 167.15 312.25 167.9 312.75
L 167.8 313.65 168.1 315.25 168.85 316.55
Q 169.7 317.75 171 318.5 172.15 319.25 173.15 319.5
L 173.65 336.15 163.1 340.75 162.9 349.5 153.85 352.9 153.8 356.4 163.05 359.05 164.35 372 157.6 374 157.55 375.5 157.6 376 158.3 377.25 159.35 378.4
Q 160 379.1 161.5 380.25
L 161.65 398.55
Q 162 411.45 162.25 417.15
L 163.05 435.8
Q 163.3 442.15 163.5 454.5
L 163.6 457.5 163.4 459.75 163.05 461.25 162.1 463.3 161.65 465
Q 161.6 465.35 161.65 465.8
L 161.65 466.05 137.15 473.55 139.6 487.4 125.15 492 134.65 498.55 137.4 655.6 131.1 659.5 131.1 663.35 132.8 667.75 113.4 671.2 113.3 686.95 66.8 715 66.4 715.2 66.55 720.05 69.9 720 71 741.2 69.4 741.05 68.9 740.45 67.8 741 67.4 740.95 67.55 741.05 6.25 768.45 0 768.45 0 945.2 77.05 947.7 77.15 948.3 129.85 943.55 228.05 944.2 228.05 948 227.85 948.2 227.8 977 446.1 991.75 446.1 993.05 443.5 993.1 579.65 993.15 579.65 991.5 613 989.5 629.55 987.95
Q 633.7 987.4 637.9 986.95
L 646.15 985.7
Q 649.25 985.3 654.4 984.25
L 662.55 982.6
Q 663.9 982.4 666.65 981.7
L 670.7 980.6
Q 674.2 979.75 674.75 979.5
L 686.55 975.35
Q 688.05 974.9 694.15 971.8 698.55 969.25 701 967.05 701.2 967 702.5 965.6 703.6 964.5 703.9 964 704.6 962.95 704.75 962.6
L 704.75 962.95 729.95 962.45 805.75 965.2 805.75 965.45 853.55 967 853.55 967.25 899.75 968.7
Q 914.45 968.8 927.55 967.25 935.05 966.35 941.4 965 949.6 963.2 954.8 960.8 958.75 959.1 960.95 956.8 962.45 955.2 963.05 953.6
L 963.5 952.25 963.5 952.1 963.7 950 963.5 938.2 963.55 938.1 963.5 937.75 963.5 937.6 961.15 929.35 960.95 918.35 984.7 918.2
Q 987.35 918 988.3 918
L 991.95 917.6
Q 993.05 917.6 995.55 917.2
L 999.2 916.7 1006.3 915 1011.4 912.8 1013.7 911.2 1014.3 910.5
Q 1014.4 910.5 1014.95 909.8
L 1015.5 909
Q 1016.45 907.2 1015.95 905.35
L 1016.25 821.1 1040.3 820.45 1021.65 803.75 1015.75 804 1016.4 793.8
Q 1016.65 787.95 1016.75 783.2
L 1027.9 770.2 1009.8 762.8
Q 1004.5 760.75 1001.45 759.45
L 976.65 748 959.9 741.55 959.75 728.8 959.8 728.15 960.7 728.25 961.75 731.25 962.25 731.2
Q 967.95 729.65 972.75 727.75 975.6 726.65 977.7 725.25 978.4 724.75 978.75 724.2 979.05 723.6 979.05 723.3
L 979.05 722.75 979 722.75 979 722.5
Q 978.6 721.65 977.95 721.25 977.05 720.85 976.55 720.75
L 977.8 716.35
Q 982.4650390625 717.555078125 985.9 718.7
L 987.5 719.25 986.55 717.85
Q 985.65 716.55 983.95 715 982.9 714.1 980.95 712.75
L 974.4 709.25
Q 969.2 706.65 962 701.45
L 913.9 667.05
Q 904.7 660.75 901.65 658.75
L 889.2 650.75 863.9 635.5
Q 856.25 631.2 850.65 628.6
L 836.95 622.85
Q 832.9 621.3 829.95 620.35
L 822.9 618.1 808.5 614.35
Q 801.7 612.9 793.9 611.6
L 788.55 610.85 787.75 517.8 788.05 517.8 793.9 516.6
Q 795.85 516 796.65 515.6 797.75 515.2 799.25 514.3
L 801.75 512.6 802.8 511.5
Q 803.1 511.25 803.75 510.3 803.85 510.25 804.5 508.9
L 804.75 508.5 805 507.5
Q 805.4 506.1 805.25 504.4 805.1 501.65 802.95 498.75 801.15 496.5 798.65 494.65 796.05 492.8 793.65 491.55
L 788.9 489.5
Q 788.35 486.6 787.25 484.3 785.95 481.7 783.95 479.4 779.9 474.8 774.8 472.15
L 773.8 471.5 769.2 466.9
Q 768.35 465.75 767.75 464.4
L 763.75 453.75 754 433.05 745 418.5 734.5 404.8 722.55 392.4 709.3 381.5
Q 706.7 379.6 704.55 378.25
L 699.75 375.15
Q 694.9 372.15 689.75 369.55 684.4 366.9 679.2 365 673.9 363 669.3 361.9
L 669.25 361.15 669 360.15
Q 669 360.05 668.7 359.25
L 667.7 357.55 666 355.75 665.9 355.75 665.15 355.15 663.7 354.25
Q 662.3 353.5 660.7 352.9 659.15 352.25 654.5 350.8
L 653.55 350.65 653.15 299.8 652.5 299.65 653.75 299.15
Q 657.3 297.55 659.2 295.9 660.8 294.3 660.95 292.65
L 660.95 292.4 660.9 292.3 660.9 292.25 660.65 291.5 660.4 291 659.55 290
Q 659.4 289.75 659 289.4
L 658.15 287.9 Z"/>
</g>

<g id="Layer0_0_MEMBER_0_MEMBER_0_MEMBER_0_FILL">
<path fill="#522810" stroke="none" d="
M 659.55 290
Q 659.4 289.75 659 289.4 657.05 287.5 653.8 285.9 650.85 284.5 648.05 283.75
L 645.15 282.9 636.15 281.4 630.05 280.9 618 280.75 605.95 281.8 600 283 594.15 284.75 588.55 287.5
Q 585.3 289.7 583.9 291.9 583.4 292.55 583.15 293.5
L 583 294.05 583 295.05 583.2 295.55 582.5 295.15 582 294.5 581.75 293.65 581.75 292.65 582 291.75 582.4 290.8 583 289.9 584.5 288.3 586.25 286.9 588.25 285.75 595.25 279.4 595.45 279.25 600.4 270.25 602.3 267.5 606.8 262.75
Q 607.3 262.25 609.4 260.5
L 612.3 258.25 612.4 257.3 612.75 256.25 613 255.7 613.65 254.75 614 254.35 615.45 253 616.45 252.35 619.05 251 619.25 247.4 621.8 247.6 622.3 247.45 622.65 250.4 623 250.6
Q 624.1 251.05 625.7 252.15 627.05 253.2 627.9 254.35 628.9 255.55 629.2 257.05
L 629.25 257.4 629.5 257.9 630.05 258.75 638.7 266.4 640.75 268.9 642.45 271.65
Q 642.55 271.85 643.9 274.5 644.35 275.7 645.5 277.5
L 647.55 280
Q 649.35 281.6 650.15 282.15
L 658.15 287.9 658.25 287.75 650.4 281.8
Q 649.05 280.9 647.95 279.65
L 645.95 277.15
Q 644.75 275.2 644.45 274.25
L 641.4 268.4 639.25 265.75
Q 638.65 265.05 637 263.4 635.8 262.25 634.5 261.25
L 630.9 258 630.5 257.5 630.25 257.05 630.25 256.8
Q 629.8 254.95 628.75 253.65 627.9 252.4 626.4 251.2 625.05 250.15 623.75 249.65
L 623.5 247.2
Q 625.5 246.8 627.45 245.4 629.35 243.95 630.65 241.65 631.35 240.25 631.9 238.2 631.95 238.15 632.15 236.9
L 632.25 235.1 631.95 231.9
Q 631.45 230.05 630.65 228.4 629.4 226.15 627.5 224.65 625 222.9 621.95 222.45
L 621.9 222.45 622.45 215.7 625.65 217.5 625.55 213.35 622.9 211.65 622.65 202.4 627.65 202.9 627.55 198.75 627.25 198.65 622.25 197.6
Q 622.25 193.2 622.45 190.35
L 622.45 190 618.3 188.5 618.15 195.15 611.25 193.15 610.75 198.4 618.45 201.6 618.55 208.9 616.5 207.65 616.25 211.35 618.95 213.25 619.4 222.4 618.7 222.5
Q 617.1 222.75 615.4 223.45 614.05 224.15 612.45 225.4 611.1 226.6 610.15 228.15 609.2 229.6 608.7 231.45 608.25 233.25 608.4 235 608.55 238.55 610.55 241.65 612.45 244.55 615.55 246.15 616.85 246.8 617.9 247.1
L 617.75 250.15 615.7 251.15 613.5 252.75 611.7 254.95 611.05 256.3 610.9 257.05 610.9 257.5
Q 609.55 258.35 608.4 259.25 606.4 260.85 605.75 261.5 604.25 263.05 603.25 263.9
L 599.25 269 594 278.15 587.25 284.15 585.25 285.4
Q 584.2 286.05 583.25 286.9
L 581.5 288.75
Q 580.95 289.4 580.75 289.9
L 580.15 291.05
Q 579.8 292.3 579.8 292.5
L 579.75 292.75 579.8 293.9 580.25 295.4 581.2 296.55
Q 581.6 297.1 582.45 297.4 582.8 297.6 583.75 297.9 584.3 298.05 585.05 298.05
L 586.45 298.15 587.2 298.05 587.25 304.25
Q 587.25 304.85 587.55 305.75 587.85 306.5 588.4 307.05 589.35 308.15 590.65 308.3
L 590.45 347.9 589.45 352 584.75 353.3
Q 580.6 354.75 578.75 355.8 577.8 356.3 577.25 356.75 576.65 357.05 575.9 357.8 575.35 358.3 574.7 359.25 574.3 359.75 574.2 360.15 573.9 360.95 574 361.5
L 574 365.05 570.25 366.4
Q 567.85 367.1 565.7 368.05 563.4 369 556.8 372 550.6 375.25 548.4 376.65 545.35 378.4 544.25 379.25
L 532.55 387.75 525.4 394.15
Q 523.05 396.35 521.95 397.55 519.75 399.7 518.55 401.05
L 506.45 416 496.2 432.3
Q 493 438.25 491.75 440.9 487.55 449.4 484.25 458.65
L 482.7 463.05
Q 481.95 464.75 480.5 467.25 477.85 471.9 475.6 475.5
L 475.6 475.4 464.35 486.5 464 486.8 464.35 487.15
Q 465.35 488.55 465 489.75 464.75 491.1 463.35 492.05
L 457.7 495.25
Q 455.8 496.75 455.2 497.4 453.9 498.5 452.95 499.75
L 451 502.5
Q 450.1 503.85 449.45 505.4 448.75 506.95 448.35 508.5
L 447.75 511.75
Q 447.7 513.45 448.45 515 449.05 516.45 450.25 517.75 452.2 519.85 455.6 521.55 458.1 522.95 461.5 524
L 461.2 528.35
Q 460.8 533.55 460.45 544 459.95 554.7 459.45 575.25
L 458.75 606.5
Q 458.2 645.9 458.1 669.05
L 458 670.1 459.1 670.35
Q 463.1 671.35 481.25 675.55
L 514.55 682.75
Q 520.15 684 525.75 685
L 548.15 689 548.5 689 556.15 688.3 632.25 711.8 630.75 714.95 636.75 714.6 636.75 719.5 618.3 713.5 626.75 714.05 626.8 712.35 605.8 710.25 575.5 708.25 575.15 708.2 574.05 708.25
Q 572.05 708.25 568.7 708.6
L 566.75 709 448.1 701.75 448 701.75 437.6 702.8 320.95 659.45 214.4 727.55 207 726.5 317 654.05 388.2 661.5 388.95 635.25 390 635.05
Q 390.95 634.9 392.35 634.5 393.85 634 394.6 633.6
L 395.75 633.05
Q 396.45 632.7 396.75 632.35
L 397.85 631.55 399.5 629.5 400 628.25
Q 400.45 627.25 400.6 625.55
L 400.25 622.85 400 622 398.1 621.75 397.25 621.3
Q 396.45 620.85 396 620.1 395.65 619.5 395.5 618.35
L 395.5 617.45 395.75 616.75
Q 396 616.05 397 615.25
L 400 611.95 400 611.8 400.1 611.8 400.85 609.75 401.25 607.45 401.25 607.75 401.75 610.8 401.85 611 402.35 611.7 402.6 611.85 403.5 612.75
Q 405.7 614.65 406.5 616.1 406.95 617.1 407.1 618
L 407.1 619.05 406.85 619.95
Q 406.45 620.8 405.6 621.45 404.65 622.15 403.85 622.35
L 403.2 622.55 403 624.25 403.1 625.3
Q 403.25 626.55 403.5 627.45
L 404.35 629.45 405 630.3 406.5 631.85 407.35 632.5 409.2 633.5 412.35 634.35 412.2 662 393.45 660.3 393.35 661.55 455.35 668.8 455.35 668.5 413.7 663 413.85 639.1 414.25 632.95 410.75 632.1 409.1 631.45 407.6 630.45 406 628.5 405.6 627.7 405 625.2 405 624
Q 406.15 623.5 406.85 623 408.05 621.95 408.7 620.75
L 408.95 620 409.1 619.25 409.1 617.8
Q 409.05 616.45 408.25 615.2 407.35 613.3 405 611.2
L 403.85 610.1 403.75 610.05 403.75 609.8
Q 403.55 609 403.45 607.6
L 403.75 589.45 408.5 589.45 407.6 585.75 403.6 585.75 403.6 579.25 399.7 579.25 399.75 586.25 394.45 586.5 394.25 589.85 399.45 589.85 398.85 605.6 397.95 610 397.75 610.45 397.75 610.5 397.7 610.5 397.6 610.6 396.85 611.6 395.1 613.25
Q 393.85 614.45 393.25 615.55
L 392.75 617.2 392.75 618.7
Q 392.9 620.25 393.7 621.55 394.4 622.85 395.85 623.75
L 397.25 624.35 397.75 624.5 397.75 625.5
Q 397.65 626.5 397.45 627.25
L 396.6 628.75 396 629.3 396 629.35 395.85 629.5 395.1 630.05 393.45 631 391.5 631.75 389.45 632.25 386.1 632.7 385.25 658.2 340.35 653.45 338.1 500.75 349.7 495.05 349.45 494.5 349.85 494.25 349.25 494.15 345.75 485.3 332.95 483.05 333.35 476.65 335.75 473.25 313.5 468.55 313.2 372.5 313.35 371.75 313.6 371 313.2 370.9 313.2 369 316.35 369.25 316.6 369.25 316.75 369.15 325.95 364.4 313.1 360.9 313.1 358.9 318.25 351.3 314.6 350.5 304.6 346.9 304.85 339.3 275.95 331.75 247.4 324.9 247.1 324.8 246.85 324.9 239.25 329.05 212.05 328.5 199.35 325.8 199.25 325.75 199.05 325.9 173.85 336 174.4 318.55 173.9 318.4
Q 171.25 317.65 170.1 315.75
L 169.8 315.25 169.35 314.15 169.35 313.65
Q 169.45 312.75 170.15 311.65 171.5 310 173.85 308.15 175.85 306.65 178.15 305.4 183.35 302.6 187.85 301.75 194.55 300.15 198.25 299.5 203.65 298.4 208.65 297.65
L 224.55 296 243.1 295.9 256.25 297 271.95 299.4
Q 274.7 300 277.1 300.65
L 282.2 302 297 307.25 301.75 309.55 302.5 310 302.75 311.05 302.85 310.25
Q 304.9 311.45 306 312.5 308.3 314.45 308.35 316.3 308.6 318.25 306.1 320.15 305.3 321 301.75 323
L 301.5 323.15 301.75 338.25 301.95 338.25 302.25 330.8
Q 302.5 327.75 302.6 323.8 305.5 322.35 307 321.25 308.3 320.3 309 319.15 309.95 317.85 309.95 316.25 309.95 315 309 313.4 308.1 312.05 307.1 311.15 305.2 309.5 303.2 308.25
L 303.6 305.75 303.6 305.3 303.5 305.05 302 299.05 302 298.9 301.85 298.8 301.1 297.9 300.25 297.15
Q 300.2 297.1 298.6 295.8 297.2 294.9 296.75 294.75
L 294.95 293.75 287.1 290.65 283.1 289.5
Q 281.55 289.05 279.1 288.5
L 271 286.9 254.6 284.9
Q 247.15 284.25 246.35 284.25
L 238.1 283.9
Q 235.35 283.75 229.85 283.75
L 213.35 284.5
Q 209.25 284.8 205.1 285.4 196.25 286.6 188.8 288.65 186.05 289.4 182.15 290.8
L 183.65 289.15
Q 185.55 287.05 187.6 284.55
L 189.35 282 190.6 279
Q 190.95 278.05 194 267.55
L 200.85 248.2 202.1 245.6
Q 203.6 242.45 204.8 240.4
L 206.25 237.9
Q 206.3 237.6 207.75 235.4
L 221.25 216.75 224.85 215.9
Q 227.25 215.4 229.1 215.15
L 235.4 214.25 243.9 214.15 246.05 214.35
Q 246.9 214.35 248.1 214.6
L 250.1 215
Q 251.7 215.35 252.1 215.6
L 253.75 216.15 266 232.65
Q 266.7 234 268.1 236.4
L 287.25 276.5
Q 288.25 278.45 289.1 280.55
L 293.35 288.5 296 292.15
Q 296.9 293.2 299.2 295.25
L 299.35 295.05 296.35 291.8 291.95 284.15 274.35 243.2 268 231.35 268 231.2 255.8 214.15 255.55 213.85 255.35 213.75 255.75 188.6
Q 255.6 187.35 255.1 186.45 254 184.9 251.75 183.95 250.6 183.65 249.75 183.25
L 239.6 182 231.35 182.4 227.25 183.2 222.6 184.9
Q 222.75 183.1 222.85 179.4 223.1 174.3 223.1 172.6
L 223.1 171.85 221.3 171.7 221.75 169.65 221.35 169.35
Q 219.05 166.85 217.85 165.15 215.9 162.35 215 160.4 213.75 158.15 213 155.4
L 212.4 152.85 212.35 147.95 213.05 145
Q 213.8 142.55 215.05 140.1 216 138.25 217.9 135.4
L 221.3 130.95
Q 222.75 129.15 224.9 126.75
L 230.8 120.6 231.65 119.45
Q 232.1 118.85 232.4 118.1 233.6 115.8 234.25 112.6 235.35 107.8 235.85 101.35 236.25 96.65 236.4 90.1
L 236.4 89.85 236.25 89.7 235.6 88.7 235.15 87.7
Q 235.05 87.45 235.05 86.7 235.05 86.1 235.25 85.7
L 235.85 84.95 236.1 84.75 236.1 84.7 237.25 84.1 237.65 84 238.3 83.95
Q 238.95 84.2 239.55 84.6
L 241.1 86 241.35 86.2 241.5 86.7 241.6 87.45 241.3 88.35 241.1 88.7 240.5 89.2 240.25 89.25 239.3 90.25
Q 238.85 93.2 238.85 95.95 238.65 98.9 238.8 101.6 238.9 104.5 239.25 107.35
L 240.4 113 241.4 115.85 242.8 118.5 244.1 120.25 254 131.25
Q 255.5 133.05 257.25 135.5 258.9 137.9 259.95 140.15
L 260.85 142.65
Q 261.05 143.05 261.6 145.15
L 262.1 150.35 261.95 153.1
Q 261.55 155.4 261.5 155.65 260.9 158.25 259.85 160.7 258.75 163.3 257.2 165.4 255.6 167.6 253.6 169.35
L 253.15 169.65 253.75 172.75 252 172.65 252.25 183.75 252.55 183.75 253.1 174.1 255.3 174.35 254.85 170.4
Q 256.85 168.85 258.75 166.6 260.85 163.8 261.85 161.7 263.25 159.1 263.95 156.2 264.35 154.55 264.5 153.35
L 264.85 147.5 264.45 144.6 262.7 138.9
Q 261.75 136.65 259.85 133.75 258.85 132.15 256.45 129.15
L 246.1 117.85 244.75 115.75
Q 244.5 115.4 244.1 114.6 243.25 112.35 243.25 112.2
L 242.05 106.95
Q 241.9 106.15 241.4 101.45 241.3 99.7 241.3 96 241.4 92.55 241.5 91.2
L 241.55 91.2
Q 242.05 90.85 242.25 90.6 242.5 90.5 242.85 89.95
L 243.3 89.2 243.55 88.45 243.65 87.85 243.65 87.7
Q 243.75 86.95 243.4 86
L 243.35 85.95
Q 244.4 85.05 245 83.2
L 245.35 80.85 245.35 76.85
Q 245.15 75.75 244.8 74.6 244.05 72.8 243.1 71.85 242.3 71.05 241.1 70.5
L 241.4 57.7 245.6 55.8 245.85 55.75 245.9 55.3 246.1 47.5 242.1 49.05 242.85 24.5 258.85 30.25 258.75 23.25 242.3 16.75 242.35 13.65 246.05 14.95 247.05 8.85 242.3 7.35 242.55 1.3 236.65 0 236.75 4.95 231.9 4.35 232 9.2 236.85 11.4 236.85 16 219.6 10.6 219.55 16 236.35 22.3 236.5 52.75 231.65 56.1 231.8 62.1 236.8 59.75 237.05 70.35
Q 236 70.65 235.1 71.2 233.2 72.6 232.3 74.85 231.8 75.9 231.75 77.2 231.6 78.45 231.85 79.45 232.1 81.45 233.25 83.7
L 234.05 84.95 233.9 85.1
Q 233.6 85.8 233.6 86.6 233.65 87.55 233.85 88.1 234.15 88.85 234.5 89.35 234.55 89.45 235.15 90.35 235.35 95.4 234.9 101.35
L 234.35 106.95 233.3 112.45
Q 232.25 115.75 231.35 117.6
L 229.75 119.7 219.6 129.5
Q 217.3 132.05 215.85 133.9 214 136.45 212.65 138.85 211.15 141.65 210.4 144.25
L 209.65 148.7 209.6 150.2
Q 209.75 152.55 209.9 153.2
L 210.6 156.15
Q 211.45 159 212.9 161.5 214.1 163.8 216.15 166.4 217.95 168.55 219.8 170.4
L 219.3 173.4 221.6 173.35 222.15 185.15 221.35 185.65
Q 220.15 186.4 219.6 187.1
L 219.35 187.25 220.1 213.7 219.35 213.9 206.75 231.15 202 238.9
Q 199.85 243 199.35 244.25
L 195.85 252.6 192.9 261.05
Q 192.5 262.35 191.3 266.75
L 189.65 272.5
Q 188.8 275.7 188 278.15
L 187 280.65 181.8 287.5
Q 178.65 291.05 175.35 294.4
L 175.15 294.5
Q 174.2 295.35 173.65 296
L 173.5 296.3 169.15 303.75 177.35 295.8 178.25 295.25
Q 178.95 294.75 181.75 293.4 184.75 292.05 189.35 290.55 196.95 288.35 205.35 287 210.85 286.2 213.4 285.9
L 221.6 285.25
Q 226.8 284.9 229.85 284.9 233 284.8 238.1 284.9
L 246.3 285.25
Q 248.55 285.3 254.55 285.8 257.7 286.05 262.7 286.75
L 278.85 289.65
Q 281.55 290.3 282.75 290.75 286.15 291.75 286.7 292
L 290.5 293.4
Q 291.65 293.85 294.2 295.15
L 295.95 296.15 299.1 298.4 299.85 299.15 300.25 299.75 300.75 301.9
Q 300.4 301.65 300 301.5 299.1 300.9 295.75 299.4
L 282.35 295.4 277.85 294.5
Q 276.85 294.25 273.35 293.65
L 250.35 291.15
Q 249.8 291.05 241.15 290.75
L 231.9 290.75
Q 224.6 290.9 222.65 291.15
L 213.5 291.9 195.3 294.8 181.9 298.55 177.6 300.4
Q 172.9 302.45 169.8 305.25 167.8 306.95 166.9 309 166.35 310.35 166.85 311.4 167.15 312.25 167.9 312.75
L 167.8 313.65 168.1 315.25 168.85 316.55
Q 169.7 317.75 171 318.5 172.15 319.25 173.15 319.5
L 173.65 336.15 163.1 340.75 162.9 349.5 153.85 352.9 153.8 356.4 163.05 359.05 164.35 372 157.6 374 157.55 375.5 157.6 376 158.3 377.25 159.35 378.4
Q 160 379.1 161.5 380.25
L 161.65 398.55
Q 162 411.45 162.25 417.15
L 163.05 435.8
Q 163.3 442.15 163.5 454.5
L 163.6 457.5 163.4 459.75 163.05 461.25 162.1 463.3 161.65 465
Q 161.6 465.35 161.65 465.8
L 161.65 466.05 137.15 473.55 139.6 487.4 125.15 492 134.65 498.55 137.4 655.6 131.1 659.5 131.1 663.35 132.8 667.75 113.4 671.2 113.3 686.95 66.8 715 66.4 715.2 66.55 720.05 69.9 720 71 741.2 69.4 741.05 68.9 740.45 67.8 741 67.4 740.95 67.55 741.05 6.25 768.45 6.15 768.85 5.15 792.3 0 792.35 0 799.35 3.15 799.1 6.4 927.3 2.8 927.3 2.9 945.2 77.05 947.7 77.15 948.3 129.85 943.55 232.35 944.25 228.05 948 227.85 948.2 227.8 977 446.1 991.75 445.75 991.6 446.45 991.8 448.1 992.05 462.75 993 512.8 993.15 579.65 991.5 613 989.5 629.55 987.95
Q 633.7 987.4 637.9 986.95
L 646.15 985.7
Q 649.25 985.3 654.4 984.25
L 662.55 982.6
Q 663.9 982.4 666.65 981.7
L 670.7 980.6
Q 674.2 979.75 674.75 979.5
L 686.55 975.35
Q 688.05 974.9 694.15 971.8 698.55 969.25 701 967.05 701.2 967 702.5 965.6 703.6 964.5 703.9 964 704.6 962.95 704.75 962.6
L 704.75 962.95 729.95 962.45 805.75 965.2 805.75 965.45 853.55 967 853.55 967.25 899.75 968.7
Q 914.45 968.8 927.55 967.25 935.05 966.35 941.4 965 949.6 963.2 954.8 960.8 958.75 959.1 960.95 956.8 962.45 955.2 963.05 953.6
L 963.5 952.25 963.5 952.1 963.7 950 963.5 938.2 963.55 938.1 963.5 937.75 963.5 937.6 963.05 935.75 961.3 930.55 961.15 929.35 958.25 773.7 1018.7 777.75 1015.3 781.6 959.55 777.8 959.55 778 1014.75 783.7 1015 793.8
Q 1015.15 799 1015.45 804
L 982.75 805.35 965.75 821.25 1005.65 821 1005.75 820.95 1006.4 820.45 1014.95 824.1 1015.25 905.45 1015.3 905.5
Q 1015.8 907.05 1014.9 908.75
L 1014.45 909.45 1013.25 910.7 1012.5 911.25 1009.45 913
Q 1009.3 913.15 1007.75 913.7
L 1004.5 914.75 1005.55 823.55 978.55 823.6 979.2 917 962.8 917.25 962.75 918.35 984.7 918.2
Q 987.35 918 988.3 918
L 991.95 917.6
Q 993.05 917.6 995.55 917.2
L 999.2 916.7 1006.3 915 1011.4 912.8 1013.7 911.2 1014.3 910.5
Q 1014.4 910.5 1014.95 909.8
L 1015.5 909
Q 1016.45 907.2 1015.95 905.35
L 1016.25 823.25 1011.65 821.25 1040.3 820.45 1021.65 803.75 1015.75 804 1016.4 793.8
Q 1016.65 787.95 1016.75 783.2
L 1027.9 770.2 1009.8 762.8
Q 1004.5 760.75 1001.45 759.45
L 976.65 748 959.9 741.55 959.75 728.8 957.5 728.8 957.8 742.5 958 742.5 957.8 729.25 959.4 729.25 959.25 748.25 955.95 747.8 899.2 744.1 859.75 742.5 859.95 722.7 873.3 722.8 873.9 742.5 885.3 742.5 884.75 722.85 912.75 724.45 960.7 728.25 961.75 731.25 962.25 731.2
Q 967.95 729.65 972.75 727.75 975.6 726.65 977.7 725.25 978.4 724.75 978.75 724.2 979.05 723.6 979.05 723.3
L 979.05 722.75 979 722.75 979 722.5
Q 978.6 721.65 977.95 721.25 977.05 720.85 976.55 720.75 974.75 720.15 971.15 719.75 969.95 719.55 965.65 719.2
L 866.8 714.1 822.9 713.2 800.9 713.3 756.9 714.6 691 718.75 647.3 722.7 645.05 722.25
Q 640.5 720.8 637.65 719.8
L 637 719.6 637 714.6 743.8 709.45
Q 748.3 709.2 765.95 708.55
L 832.25 706.2 865.5 705.75
Q 871.45 705.7 876.5 705.85
L 898.65 706.45 926.2 708.25
Q 930.15 708.5 931.7 708.75
L 964.5 713.3
Q 978.25 716.15 985.9 718.7
L 987.5 719.25 986.55 717.85
Q 985.65 716.55 983.95 715 982.9 714.1 980.95 712.75
L 974.4 709.25
Q 969.2 706.65 962 701.45
L 913.9 667.05
Q 904.7 660.75 901.65 658.75
L 889.2 650.75 863.9 635.5
Q 856.25 631.2 850.65 628.6
L 836.95 622.85
Q 832.9 621.3 829.95 620.35
L 822.9 618.1 808.5 614.35
Q 801.7 612.9 793.9 611.6
L 788.55 610.85 787.75 517.8 788.05 517.8 793.9 516.6
Q 795.85 516 796.65 515.6 797.75 515.2 799.25 514.3
L 801.75 512.6 802.8 511.5
Q 803.1 511.25 803.75 510.3 803.85 510.25 804.5 508.9
L 804.75 508.5 805 507.5
Q 805.4 506.1 805.25 504.4 805.1 501.65 802.95 498.75 801.15 496.5 798.65 494.65 796.05 492.8 793.65 491.55
L 788.9 489.5
Q 788.35 486.6 787.25 484.3 785.95 481.7 783.95 479.4 779.9 474.8 774.8 472.15
L 773.8 471.5 769.2 466.9
Q 768.35 465.75 767.75 464.4
L 763.75 453.75 754 433.05 745 418.5 734.5 404.8 722.55 392.4 709.3 381.5
Q 706.7 379.6 704.55 378.25
L 699.75 375.15
Q 694.9 372.15 689.75 369.55 684.4 366.9 679.2 365 673.9 363 669.3 361.9
L 669.25 361.15 669 360.15
Q 669 360.05 668.7 359.25
L 667.7 357.55 666 355.75 665.9 355.75 665.15 355.15 663.7 354.25
Q 662.3 353.5 660.7 352.9 659.15 352.25 654.5 350.8
L 653.55 350.65 653.15 299.8 652.5 299.65 653.75 299.15
Q 657.3 297.55 659.2 295.9 660.8 294.3 660.95 292.65
L 660.95 292.4 660.9 292.3 660.9 292.25 660.65 291.5 660.4 291 659.55 290
M 720.15 566.55
L 728.5 566.85 729 610.45 721.5 613.1 721.5 612.45 721 610.45 720.9 609.75 720.9 609.7 720.55 610.05 721.15 608.85 720.15 566.55
M 621.75 224.6
Q 624.2 224.75 626.5 226.1 628.4 227.15 629.9 228.9 631 230.4 631.5 232
L 631.9 233.25 632 235.1 632.05 235.1 631.9 236.85 631.55 238.15
Q 630.9 239.95 629.9 241.15 628.65 242.85 626.5 244.1 624.35 245.4 621.75 245.7
L 620.4 245.9 619.15 245.85 618.9 245.7 618 245.4 617.95 245.7
Q 616.85 245.5 616 245.15 614.55 244.65 613.25 243.65 612.1 242.75 611.05 241.35 610.4 240.3 609.75 238.35 609.45 237.1 609.45 235.1 609.5 233.4 610.15 231.9 610.55 230.55 611.55 229.15 612.65 227.7 613.7 226.9 615.05 225.85 616.25 225.4 618.95 224.25 621.75 224.6
M 245.25 9.9
L 244.75 12.65 240.65 11.1 240.35 17.9 256.75 24.65 256.75 27.25 240.85 21.65 240.6 51.3 244.65 49.55 244.8 55 240.5 57.05 240.85 70.45 239.5 70.1 238.35 70.1
Q 237.75 70.1 237.35 70.2
L 237.65 58.3 232.9 60.45 233 56.75 237.9 53.5 238.05 21.15 237.5 21
Q 235.3 20.15 228.85 18
L 220.65 15.25 220.6 11.9 237.5 16.75 237.55 16.4 237.55 11 232.65 8.75 232.75 5.25 237.65 6.1 237.75 1.4 241.25 2.3 240.75 8.4 245.25 9.9
M 214.3 346
L 238.5 344.8 239.55 361.5 238.6 362 238.6 362.3 238.75 363 239.05 363.65 239.4 364.05 239.85 364.4
Q 240.5 364.9 241.6 365.3 242.75 365.75 244.75 366.25 244.55 395.65 244.3 410.15
L 243.8 432.4 242.6 453.05 242.35 454.9 213 454.65 210.85 401.15 209.05 368.9 210.5 368
Q 211.35 367.4 211.9 366.75
L 212.55 366 213 365.15 213.3 364.25 213.35 364 214.05 364.25 214.3 346
M 200.55 342.8
L 201.3 343 201 351.5
Q 200.8 355 200.75 359.75
L 189.1 363.4 189.1 363.5 165.4 371.25 163.85 358.3 162.85 358 200.55 342.8
M 212.55 362.4
L 201.85 359.75 201.5 343 212.65 345.5 212.55 362.4
M 241.15 360.15
L 240.15 344.15 246.35 341 246.35 356.75 241.15 360.15
M 203 478.5
L 202.85 478.75 210.5 483.55 209.75 563.85
Q 209.65 572.85 209.65 604.1
L 209.75 645.3 212.05 645.3 170.3 652.85 185.85 648.75 188.3 544.85
Q 187.55 539.45 185.8 534.3 184.8 531.5 183.65 529.25 181.95 526.2 180.4 524.6 177.9 522.1 175.3 521.5 173.8 521.05 172.15 521.2 170.55 521.3 169.35 521.75 164.05 523.25 160.25 528.5 158.55 530.8 157.4 533.25
L 155.4 538.3
Q 153.8 543.45 153.1 548.75 152.3 553.85 152.1 559.35 151.95 562.65 152 564.75
L 151.55 654.85 135.1 659.25 135.65 661.95 213.85 647.1 212.65 653.1 133.6 666.3 132.35 662.95 132.35 660.25 138.6 656.25 136.1 498 136.5 498.15 136.6 498.15 200.85 477.25 243.35 477.25 241.5 479.15 241.3 479.4 241.35 487.75 241.05 487.75 241 498.75 241.35 498.8 241.75 541.5
Q 241.85 551.8 241.75 562
L 241.15 643.5 211.65 643.3 211.75 604.1
Q 211.75 577.3 211.6 563.85
L 210.9 483.25 210.85 483.25 203 478.5
M 11.4 771.75
L 11 771.3 85.25 763.55 85.15 763.35 123.9 762.25 233.35 745.1 233.35 748 126.55 762.6 83.4 764 11.4 771.75
M 7.8 769.6
L 7.8 769.45 68.3 742.75 81.8 762.05 7.8 769.6
M 222.5 734.25
L 217.5 734.25 217.5 729.2 432.95 705.5 551.25 713.45
Q 549.8 714 548.25 714.75 546.55 715.45 545.05 716.25
L 434 708 433.85 708 328.1 720.75 222.5 734.25
M 234.65 767.6
L 234.65 767.25 255.85 765.3
Q 255.55 767 255.5 767.8
L 255.25 770.7 228.85 774.05 228.85 767.7 234.65 767.6
M 276.1 781.85
L 278.7 781.2
Q 280.7 780.7 284 780.2 288.15 779.5 294.5 778.95
L 294.5 793.5
Q 294.5 793.55 294.2 808.25
L 274.25 808.75 274.1 782.75 276.1 781.85
M 528.45 541.25
L 532 540.35 532.75 548.25 533.7 548.2 533.25 634.95 531.75 635 531.75 635.25 533.25 635.1 533.2 649.7 524.4 650.2 523.8 638.6 503 641.7 502.45 640.7 506.75 640 506.75 639.6 522.5 637.75 522.7 570.5 523.05 570.35 523.05 564.55 522.75 564.7 522.75 560.25 494.95 567.5 496.85 655.55 489.35 655.5 488.25 549.5 492.1 549.05 491.95 547.75
Q 491.9 546.95 491.95 546.05
L 528.45 539 528.45 541.25
M 511.1 512.25
Q 509.85 512.4 508.5 512.8 503.7 514.4 499.85 519 496.55 522.85 494.45 528 492.25 532.95 491.35 538 490.6 541.6 490.45 544.7
L 489.95 544.75 490.25 547.7 485.75 548.1
Q 485.85 545.7 486.1 543.3 486.5 539.9 487 537.7 487.5 535 488.35 532.1 488.95 530.15 490.25 526.8 491.9 523.35 493 521.85 494.5 519.5 496.5 517.5 498.7 515.45 500.95 514.2 503.75 512.75 506.1 512.1
L 508.75 511.55
Q 509.5 511.55 511.6 511.3 513.95 511.15 517.15 511.75 520.9 512.5 523.8 514.5 521.7 513.2 519.15 512.5 516.15 511.95 513.8 512 511.9 512.05 511.1 512.25
M 505.95 572.95
L 505.35 573 505 638.35 503.5 638.6 503.1 571.5 521.65 566.5 521.55 569.25 505.95 572.95
M 506.95 574.25
L 521.95 570.7 521.5 636.85 506.75 638.55 506.95 574.25
M 613.8 559
L 640 557.95 641.45 629.35 613.65 627.5 613.8 559
M 339.75 775.25
L 338.35 775.7 336.75 776.45 336.5 805.5 333.1 805.7 332.75 776.7 333.85 776.25 338.75 775.05
Q 341.2 774.7 345.35 774.25 351.45 773.75 358.5 773.75
L 358.5 774.05
Q 354.2 773.8 347.95 774.1
L 342.5 774.75
Q 340.9 774.95 339.75 775.25
M 418.1 754.3
L 418 749.55 444.25 747 450.1 748.25 450.95 749.85 449 750.55 451.1 750.25 453.85 755.75 444.5 752.95 418.1 754.3
M 407.7 772.95
L 407.35 773 402.85 774.75 402.6 801.1 398.35 801.45 398 774 407.7 772.95
M 470 754
L 472.1 755.35 472 778 471.85 778 471.85 797.6 473.1 798.35 459.25 799 456.25 799.45
Q 455.15 799.55 454.75 799.7
L 452.5 800.25 451.5 760.85
Q 452.85 759.8 453.5 759.25
L 454.6 758.3 455.25 757.6 456.5 758 452.6 750.05 460.95 748.95 460.25 753.75 460.5 753.8 470 754
M 452.25 749.35
L 451.1 746.95 451 746.95 451.25 710.35 543.45 717 452.25 749.35
M 620.75 682.75
L 620.95 682.6 621.2 682.5 626.75 682 626.7 682.1 629 683.55 631.25 710.5 562.75 688.1 620.5 682.75 620.75 682.75
M 637.05 721
L 637.05 720.75 638.4 721.2 637.05 721
M 360.35 820.05
L 360.45 820.05 360.85 819.1 360.85 819 330.35 819.25 329.85 844.7
Q 329.75 847.85 329.5 869.35
L 329.2 918.2 324 920.1 324 923.05 360.25 921.5 359.85 952.35 354.35 955.55 354 955.55 354 955.8 353.85 955.95 353.45 962.3 330.5 960.6 330.25 950.55 325 948.6 318.2 809.85 361.95 808.75 360.35 917.85 340.6 917.85 340.7 869.95 339.95 822.1 360.35 820.05
M 328.75 951.45
L 328.95 951.5 329.1 961.05 293.2 958.6 292.95 952.75 314.45 952.85 328.75 951.45
M 429.45 916.7
L 405.6 915.75 403.85 819 430.25 814.75 429.45 916.7
M 296 811.35
L 296 811.5
Q 290.95 811.55 278.85 812.05
L 261.5 812.75 261.5 811.85 267.1 810.85 267.1 811.25 296 811.35
M 296.45 823
L 296.45 824.35 285.75 824 296.45 823
M 1020.95 807.45
L 1020.75 807.25 1005.4 820 1005.25 820.05 969.5 819.8 983.45 807 1021 805.6 1035.9 818.85 1007 819.95 1020.75 808 1032.9 818 1033.05 817.85 1020.95 807.45
M 841.55 964.75
L 841.5 948.2 853.3 948.25 853.25 948.35 853.5 965.1 841.55 964.75
M 840.65 948.2
L 840.5 964.7 807.3 963.6 806.9 947.85 840.65 948.2
M 885.05 948.55
L 885.4 949.5 885.25 966.1 855.2 965.2 855 949.25 856.15 948.3 885.05 948.55
M 732.75 946.55
L 735.55 946.6 735.5 946.55 805 947.85 805.65 963.55 733 961.25 732.75 946.55
M 652 290.25
L 650.75 289.5
Q 648.65 288.15 645.65 287.25
L 643 286.5 634.9 285.15 624.05 284.5
Q 619.25 284.5 613.25 284.9 607.7 285.35 602.5 286.5 596.35 287.85 592.05 289.8
L 589.65 291.15
Q 588 292.35 587.5 293.15
L 587.25 293.55 587.15 294.05 587.15 294.25 587.05 294.25 587.05 294.5 587.15 294.8 587.15 296.3 586.65 296.15
Q 586 295.9 585.7 295.55 585.3 295.4 585.05 294.8
L 585 294.5 585 294 585.55 293
Q 586.85 291.05 589.7 289.25 590.5 288.7 592.2 287.8
L 597.65 285.75 600.5 285
Q 605.2 284 606.25 283.9
L 618.05 282.9
Q 620 282.75 624 282.75
L 635.9 283.5 644.65 284.9 647.5 285.65
Q 650.05 286.4 652.95 287.75 655.85 289.15 657.65 290.8 658.8 291.95 658.95 292.55 658.95 293.4 657.8 294.4 656.55 295.6 654.5 296.65
L 654.7 294.25 654.75 294.15 654.7 294.15 654.45 293.15 653.55 291.8 653.05 291.25
Q 652.35 290.7 652 290.25
M 649.75 291.05
L 651.7 292.55 652.45 293.5 652.7 293.9 652.75 294.25 652.3 299.55 648.15 298.15 647.95 298.3
Q 647.1 298.75 646.75 299.9 646.5 300.55 646.4 301.55
L 646.3 302 646.4 302.5 646.45 302.65 646.75 349.05 646.95 349.05 647.5 301.65 647.8 300.25
Q 648.05 299.75 648.3 299.5
L 651.9 300.75 651.95 350.3 640.75 348.25 639 345.25 638.2 299.9 637.8 297.5 637.3 297.5
Q 636.2 297.15 635.3 297.15
L 633.25 296.9
Q 632 296.75 629.3 296.75 624.95 296.6 621.4 296.75 613.55 297 605.5 297.65
L 604.25 297.75 604.75 298.15 594.95 299.65
Q 592.55 300.35 591.25 300.9 590.15 301.4 589.5 302
L 589.05 302.4 588.7 302.9
Q 588.5015625 303.296875 588.5 303.4
L 588.45 298 591.2 297.75 588.4 296.75 588.4 294.25 588.5 294.05 588.55 293.9
Q 589.1 293.1 590.4 292.25
L 592.7 291
Q 596.95 289.1 602.75 287.9 607.6 287 613.3 286.5 618.45 286.1 624 286.25
L 640 287.65 645.05 289
Q 647.85 289.85 649.75 291.05
M 659.7 355.25
Q 662 356.3 662.45 356.55
L 663.7 357.3 664.2 357.75 664.25 357.75 664.7 358.15 665.65 359.25 666 359.75 666.5 360.9 666.7 362 666.65 362.25 666.65 362.4 667.55 364.15
Q 671.35 364.95 678.25 367.5 683.4 369.45 688.5 372 693.3 374.35 698.4 377.4
L 712.25 387 720.8 394.3 732.5 406.5 742.9 419.9 751.8 434.25 759.3 449.4 765.5 464.9
Q 758.05 462.65 751.55 461.05 742.05 458.7 735.25 457.4 734.55 457.2 727.05 455.8 719.5 454.5 718.8 454.4
L 694 450.9 669.05 448.65
Q 658.15 448.05 652.45 447.9
L 635.75 447.55 619 447.75 585.7 449.75
Q 583.45 449.85 569.05 451.15 563.85 451.65 552.5 453 549.95 453.3 544.25 454.15 539.95 454.75 536 455.4
L 503.35 462.3 503.35 462.5 536.15 456.4
Q 539.15 455.8 544.4 455.25 549.35 454.5 552.65 454.25 567.6 452.7 569.2 452.65
L 585.75 451.4 619.05 449.75 652.3 449.9 669 450.75 693.8 452.9
Q 697.95 453.35 702.05 453.9
L 718.5 456.25
Q 720.7 456.5 726.75 457.65 734.45 459 734.95 459.15 742.75 460.6 751.2 462.65 757.65 464.15 766.4 466.55 767.8 469.15 769.65 470.9
L 765.75 469.65
Q 765.3 469.45 761.15 468.25 757.6 467.2 756.5 467
L 747.15 465 737.65 463.55
Q 733.6 462.95 718.55 461.4
L 699.5 459.8 642.05 456.9 632.5 456.75
Q 625.6 456.6 622.95 456.65
L 584.55 458 556 460.75 537 463.5
Q 530.1 464.55 527.5 465.05
L 499.45 471.15 490.2 473.65
Q 480.7 476.5 473.45 479.05
L 476.45 476.15 476.5 476.15
Q 479.5 471.6 481.6 467.9 483.3 465.1 483.85 463.65
L 485.6 459.15
Q 488.65 450.6 493.1 441.55 495.9 436.15 497.6 433.15
L 507.85 417.05 516.75 405.9 523.25 398.9
Q 526.45 395.9 526.75 395.65
L 537.65 386.4 545.45 381
Q 546.65 380.15 549.5 378.5 551.55 377.25 557.8 374 562.1 372.05 566.5 370.15
L 576.25 366.75 576.25 361.15 576.65 360.5
Q 577.3 359.65 577.5 359.5
L 578.55 358.65 579.8 357.9
Q 581.6 356.9 585.5 355.55 589.6 354.4 591.5 354 593.75 353.45 597.7 352.8 598.6 352.65 603.9 352 605 351.8 610.2 351.25
L 629 350.3
Q 630.75 350.3 632.2 350.4 634.3 350.4 635.3 350.5
L 647.75 351.9 653.8 353.3
Q 657.25 354.25 659.7 355.25
M 756.25 468
Q 757.3 468.2 760.8 469.25
L 772.25 473.05 773.75 474
Q 778.65 476.5 782.4 480.75 784.25 482.9 785.45 485.15 786.6 487.65 787 490.25
L 787.05 490.9 787.7 491.05
Q 789.85 491.95 790.25 492.15
L 792.75 493.25
Q 794.9 494.35 797.5 496.15 800.1 498 801.5 499.8 803.35 502.3 803.5 504.5 803.65 506 803.3 507
L 802.9 508.3
Q 802.6 509 802.3 509.4
L 801.5 510.4 798.45 512.95 793.4 515.05
Q 792.15 515.45 790.7 515.75
L 788.8 516.2 788.75 514.05
Q 788.8 513.95 788.7 513 788.4 511 787.5 509.05 785.95 505.55 782.25 502.9
L 778.75 500.9 767.5 497.25
Q 752.3 493 737 490.05 723.05 487.3 706.15 485.15 694.3 483.8 690.55 483.5
L 671.05 482.05
Q 668.75 481.9 667.2 481.9
L 635.9 481.15 612.45 481.4
Q 598.3 481.6 581.2 482.4 567.7 483.05 550 484.5 533.35 486.05 518.9 488.25 500.8 491.15 488.25 495 479.25 497.95 473.75 501.05 469.9 503.2 467.25 505.75 465.9 507.05 464.6 508.9 463.25 510.9 462.85 512.7
L 462.6 513.75 461.75 520.5
Q 461.6 521.65 461.5 523.75 458.25 522.65 455.75 521.25 452.75 519.6 450.6 517.45 449.3 515.8 448.85 514.8 448.25 513.35 448.35 511.75
L 448.95 508.65
Q 449.4 506.95 450 505.65 450.75 504.1 451.6 502.9
L 453.5 500.25 455.7 498
Q 456.75 496.95 458.2 496
L 463.85 492.8
Q 465.65 491.45 465.95 490 466.2 488.9 465.85 488.15 465.7 487.45 465.35 486.9
L 473 479.5
Q 480.3 477 490.35 474.4 498.8 472.2 509 470
L 537.25 464.9 556.15 462.4
Q 559.7 461.9 565.7 461.4 568.8 461.05 584.75 459.75
L 622.95 458.25
Q 624.25 458.15 632.5 458.15
L 642.05 458.25
Q 644.2 458.2 651.65 458.4
L 680.3 459.3
Q 683.7 459.45 699.45 460.5
L 728 463.05
Q 733.4 463.65 737.5 464.4
L 746.95 465.9 756.25 468
M 651.5 482.25
Q 653.95 482.25 659.3 482.5
L 667.15 482.75
Q 671.7 483 674.95 483.25
L 690.5 484.5
Q 696.75 485.05 706 486.25 723.3 488.5 736.8 491.15 752.95 494.4 767.15 498.55 771.6 499.85 774.55 500.9
L 776.45 501.5 779.9 503 781.45 504
Q 784.75 506.55 786.15 509.75 786.9 511.35 787.2 513.25
L 787.25 517.8 787.3 517.8 786.5 610.05 779.05 610 779 612.25
Q 785.3 612.65 793.5 613.95 801.2 615.15 807.95 616.75
L 815.05 618.5
Q 817.5 619.1 822.15 620.5 824.9 621.3 829.15 622.75
L 836 625.25 849.5 631
Q 852.7 632.5 862.5 637.8
L 875.25 645.25
Q 881.15 648.85 887.8 653
L 900.25 660.85
Q 903.6 662.95 912.65 668.95
L 961.2 702.55
Q 968.65 707.85 973.8 710.3
L 980.25 713.75
Q 982.4 715.15 983.25 715.85
L 984.5 717 964.75 712.35 931.75 707.75
Q 930.35 707.5 926.25 707.25
L 904.2 705.55 876.5 704.5
Q 872.75 704.25 865.5 704.25
L 810.15 704.75 765.9 705.95
Q 749.6 706.35 743.75 706.6
L 635.8 711.75 645.4 695.05 653.5 684.25
Q 654.95 682.65 655.4 682.3 656.35 681.25 657.25 680.5
L 663 675.55 627.8 679.2 628.2 679 634.95 674.75
Q 638.3 672.6 641.5 670.35 643.5 669 647.95 665.8
L 660.55 656.45 684.65 636.05
Q 685.75 635.3 687.7 633.6
L 690.75 631.3 703.95 623.1 710.9 619.6
Q 712.85 618.65 718 616.45
L 720.15 615.5 720.2 615.5 720.5 615.3 720.7 615.2 720.9 615 721.3 614.45 737 612.05 763.95 612 765.05 611.75 763.8 573.85 765.2 573.2 766.3 567.7 765.65 551.55 766 550.45 765.55 550.3 765.5 548.8
Q 765.35 544.5 764.5 539.5 763.6 534.4 762.15 530.3
L 760.4 525.95
Q 759.55 524.1 758.2 521.75
L 756.8 519.8
Q 756.45 519.3 755.3 518
L 751.8 514.75
Q 749.8 513.3 747.75 512.5
L 745.5 511.65 743.2 511.15
Q 741.8 510.9 740.8 510.9
L 737.25 510.9 733.75 511.3 733.8 511.65 736.2 511.3 738.5 511.25
Q 738.95 511.15 740.8 511.25 740.95 511.25 743.15 511.55 743.95 511.65 745.4 512.1 746.2 512.35 747.5 512.95 749.15 513.5 751.5 515.25 752.4 515.9 753.25 516.75
L 754.9 518.35
Q 756.25 520.05 756.3 520.2
L 757.65 522.1
Q 758.75 524.05 759.75 526.25
L 761.45 530.55
Q 762.7 534.35 763.65 539.6 764.45 545.05 764.5 548.85
L 764.55 550 753.05 547.55
Q 745.7 546.5 741.5 546 729.7 544.6 718.25 543.6
L 717.05 543.5
Q 717.8 537.15 719 532.45 720.65 525.75 723.5 520.7 726.9 514.55 731.75 511.55 737.1 508.3 743.65 509.25
L 746.7 509.9 749.5 511
Q 752.2 512.3 754.65 514.5 758.9 518.5 761.5 524.85 763.7 530 765 537 766.15 543.55 766.3 549.7
L 766.3 550.25 775.15 551.05 775.15 550.45
Q 775.15 547.1 774.8 542.35 774.3 537.15 773.8 534.35 772.6 526.4 769.65 518.75 768 514.75 766 511.5 763.6 507.75 760.9 505.25 758.15 502.5 754.25 500.55 750.75 499 746.4 498.3 742.35 497.8 738.3 498.3 734.15 498.85 730.5 500.5 723.3 503.65 718.15 510.65 713.5 516.5 710.75 524.85 708.05 532.95 707.9 540.6
L 708.05 540.6
Q 708.25 533.2 711 525 713.9 516.8 718.5 510.9 723.75 504.15 730.75 501.05 734.3 499.55 738.45 499 742.2 498.55 746.3 499.15 750.6 499.75 753.8 501.4 757.4 503.15 760.25 505.9 762.8 508.25 765.2 512.05 767.15 515.3 768.75 519.1 771.45 526.3 772.75 534.5 773.4 538.4 773.7 542.45 773.95 546.7 773.95 549.75
L 767.5 549.1
Q 767.3 542.95 766.25 536.8 765.05 530.1 762.75 524.3 759.9 517.6 755.55 513.5 753.25 511.2 750.15 509.65
L 748.65 509 745.5 508.05 743.8 507.75
Q 740.5 507.25 737.2 507.9 733.85 508.5 731 510.25 725.7 513.6 722.15 519.95 719.25 525 717.4 532 715.95 537.8 715.4 544
L 670.75 541.55 625.3 541.5 602.65 542 545.95 545.6 544.8 545.75
Q 544.9 541.4 544.45 537.1 544.1 533.25 543.15 528.5 541.05 518.95 537.2 512.25 535 508.4 531.8 505.3 528.45 502.2 524.5 500.55 520.25 498.9 515.95 498.75
L 509.35 499.15 507.25 499.55
Q 502.4 500.8 499.2 502.9 495.5 505.15 492.5 508.55 489.7 511.95 487.6 515.75 485.9 518.65 484.1 523.6 482.85 526.95 481.6 531.95 480.55 536.65 480 540.35 479.6 543.3 479.1 549 478.85 552.8 478.85 557.6
L 478.85 557.75 486.75 555.5 486.75 555.3 479.1 557.45
Q 479.1 554.2 479.5 549 480 543.35 480.5 540.5 481.2 535.7 482.2 532 483.05 528.35 484.7 523.8 486.35 519.35 488.25 516.05 490.6 512 493.1 509.05 496.15 505.8 499.6 503.65 502.85 501.6 507.45 500.5
L 509.5 500.05 515.9 499.75
Q 519.85 499.8 524.05 501.5 528.05 503.25 531 506.15 533.85 508.8 536.2 512.8 540 519.45 541.9 528.8 542.65 532.45 543.15 537.25 543.5 542.35 543.5 545.25
L 534.05 546.6 533.3 538.55 529.95 539.3 529.95 537.1 492 544.35
Q 492.2 541.75 492.85 538.3 493.8 533.55 495.95 528.7 497.85 523.95 501.1 520.05 504.8 515.75 509 514.45 509.7 514.2 511.35 513.85 511.65 513.85 513.8 513.7 516.2 513.6 518.75 514.2 523.5 515.45 526.95 519.25 529.9 522.6 532 527.8 532.85 530.05 533.5 532.6 534.15 535.5 534.4 537.5
L 536.2 537.45
Q 536.05 534.95 535.5 531.55 535 528.7 534 525.85 531.75 519.6 528 515.7 526.15 513.65 523.2 512 520.5 510.6 517.5 510 514.15 509.4 511.5 509.65 510.65 509.65 508.6 509.9
L 505.6 510.5
Q 502.85 511.15 500.1 512.7 497.6 514.05 495.35 516.3 493.4 518.2 491.6 520.95 490.45 522.5 488.75 526.1 487.65 528.45 486.75 531.7 485.9 534.6 485.35 537.35 484.7 540.75 484.5 543.1 484.1 546.8 484.1 549
L 484.1 549.85 486.75 549.7 488.5 656.35 497.7 656.35 495.6 568 522 561.25 522 564.85 501.75 570.35 502.5 638.75 499.5 639.2 501.95 643.7 522 640.8 522.55 652.2 535.15 651.5 535.25 635 606.75 631.45 606.65 552.35 638.65 551.5 649.15 552.05 648.9 629.8 642.7 629.5 642.4 593.45
Q 642.05 559.55 642 556.85
L 642 555.8 611.75 557 611.95 629.1 650.15 631.2 650.15 630.85 669.5 631.7
Q 669.85 631.7 675 632.05
L 683.75 632.8 670.8 644.05
Q 667.75 646.75 664.8 649.05
L 639.7 667.75
Q 635.95 670.35 633.2 672.1 629.35 674.6 626.55 676.25 624.2 677.6 623.2 678.05 622.35 678.6 620 679.6
L 548.5 686 526.25 682.1
Q 522.1 681.4 515.2 679.95
L 460.75 668
Q 461 627.15 461.2 606.55
L 461.6 575.3
Q 462.05 554.9 462.45 544.05 462.85 533.1 463.1 528.5 463.1 528 463.6 520.75
L 464.35 514 464.6 513.1
Q 465 511.5 466.1 509.9 467.2 508.15 468.5 507 470.95 504.65 474.6 502.55 480.2 499.4 488.75 496.55 501.1 492.65 519.15 489.65 532.3 487.5 550.05 485.75 565.3 484.3 581.25 483.5 595.8 482.8 612.5 482.4
L 635.95 482.05
Q 640.25 482.05 643.75 482.15
L 651.5 482.25
M 719.95 558.3
L 719.65 546.7
Q 729.55 547.5 741.2 548.75 745.8 549.3 752.7 550.3
L 761.15 551.85 762.55 552.25 762.2 553.35 762.5 564.5
Q 760.45 563.9 758.75 563.5
L 744.9 560.5 733.65 559 719.95 558.3
M 720.75 564.25
L 720.7 560.75 736.15 561.75 752.7 564.7 765.05 568 764.15 572.3 762.5 573.05 763.5 610.5 744.75 610
Q 743.4 609.95 742.75 610
L 736.8 610.25 730.95 611.25 730.75 564.6 720.75 564.25
M 665.05 543.45
L 716.7 545.75 718.05 608.5 717.9 609 717.8 609.85
Q 717.8 610.2 718 611.1
L 718.5 612.95 716.8 613.6
Q 709.9 616.7 709.55 616.8
L 702.5 620.35 692.25 626.5 684 632.55 675.05 631.55
Q 672.6 631.25 669.55 631
L 658.55 630.25
Q 655.85 630 653.05 629.95
L 650.15 629.75 649.8 551.35 627.75 550.6
Q 622.35 550.6 616.8 550.75
L 605.25 551.05 605.2 629.95 535.25 634.75 535.75 548.6 602.75 544.05 641 543.1 665.05 543.45
M 653.95 679.5
L 653.2 680.2 646 688.75 639.8 698.05 632.3 711.75 629.4 683.45 629.4 683.3 629.25 683.3 626.95 681.95 653.95 679.5
M 683.65 727.3
L 683.65 727.5 754.8 723.6 754.75 741.35 766.25 741.45 766.95 723.75 773.9 723.25
Q 775.4 723.1 776.5 723.1
L 786.75 722.8 847.7 723.25 846.95 741.95
Q 836.7 741.6 830.9 741.5 811.2 741.05 786.9 741.7 784.9 741.7 764.9 742.35 755.8 742.7 742.95 743.45 736.8 743.7 720.95 744.75
L 712.2 745.2 712.25 745.3 712 745.2 712.2 745.2 711.75 744.75 710.7 744.25
Q 710.15 744 705.3 742.55
L 647.75 723.2
Q 653.8 722.65 669.25 721.5
L 713.05 718.55 757 716.3 800.9 715 833.8 714.7 872.25 715.3 910.75 716.85
Q 937.7 718.1 954.65 719.05
L 971 720.45
Q 974.5 720.85 976.4 721.45 978 721.95 978.25 722.75
L 978.3 723 978.3 723.3 978.15 723.75 977.25 724.55
Q 975.8 725.55 972.4 727 967.95 728.65 962.4 730.1
L 961.5 727.55 961.3 727.25 961 727.25 893.55 721.55 883 721.05 883.5 740.7 875.75 740.6 875.25 720.85 857.95 720.6 857.75 740.5 849.2 740 849.9 721.2 807.45 720.75 776.4 721.35
Q 775.4 721.35 771.25 721.75
L 765.3 722.2 764.9 739.95 756.15 740 756 722.25 683.65 727.3
M 666.8 744.3
L 651 743
Q 645.45 742.45 643.15 742.3
L 603.55 740.35 556 739.95 508.5 741.85 492.7 743.05
Q 486.3 743.55 476.85 744.5
L 472.6 744.95 544.4 719.3 544.5 719.25
Q 546.45 718.15 549.25 717
L 554 715
Q 557.35 713.75 558.95 713.25
L 569 710.85 572.45 710.5 616.25 713.35 636.75 720.55 636.75 721.25 636.9 721.25 640.65 722 678.75 735.45
Q 688.95 739 699.55 742.55
L 704.9 744.2
Q 708.75 745.25 710 745.75
L 710.8 746.1 710.9 746.2 711.05 746.5 711.25 746.55
Q 711.45 746.75 711.8 746.75
L 712.75 746.75
Q 714.35 746.75 715.55 746.6
L 721.05 746.2
Q 734.55 744.95 743 744.35 751.85 743.65 764.95 743 774.1 742.6 786.9 742.35 807.15 741.95 830.8 742.85 838.3 743.15 852.75 743.85
L 899.15 746.25 899.15 755.2 860.5 753.5 860.5 749.85 846.15 749.8 846.15 753.35 805.25 753.3 804.8 750 715.65 752.5 712.65 753
Q 709.9 751.7 706 750.7
L 698.25 748.85 666.8 744.3
M 666.05 750.75
Q 655.1 749.5 648.55 748.95
L 629 747.45
Q 628.2 747.4 618.55 747.05
L 607.95 747
Q 601.55 746.9 586.25 747.35
L 543.5 748.75
Q 535.55 748.9 523.95 749.3 519.65 749.5 506.35 750.3
L 470.95 753.3 470.25 753 460.85 753.25 461.25 748.85 461.5 748.85
Q 464.75 748.35 469.25 747.85
L 508.7 744.3 556.05 742.2 587.7 741.95 619.3 742.6 666.75 745.45 694.25 748.75
Q 697.55 749.35 698.15 749.5
L 705.8 751.1
Q 709.45 752 712.05 753.05
L 710.2 753.45 710 754.85 709.4 756.75 708.95 757.75 708.45 758.55 706.5 760.95 704 762.75 703.15 763.2 700.25 764.25 698.75 764.55 699.35 784.3 697.75 783.55 685.7 780.45
Q 675.2 778.8 671.55 778.45
L 664.5 777.7
Q 663.35 777.5 657.4 777.2
L 646.75 776.5 614.75 776.35
Q 606.35 776.55 600.5 776.55
L 515.25 776.85 473.45 777.95 473.25 754.75 471.25 753.55 524 751.05 543.55 749.75
Q 552.4 749.2 564.55 748.75
L 618.5 749
Q 625.95 749.25 628.8 749.5 635.7 749.9 648.4 751
L 665.95 752.45
Q 685.3 754.25 692 755.35 696.75 756.05 699.2 756.95 700.15 757.25 700.95 757.7
L 701.5 758.05 701.65 757.95 701.05 757.5
Q 700.5 757.05 699.3 756.55 696.5 755.5 692.2 754.55 688.7 753.8 680.9 752.6 675.8 751.75 666.05 750.75
M 678.5 780.5
Q 681.7 780.8 685.5 781.3
L 692.5 782.55 699.25 784.5 699.35 784.35 704.45 943.95 704.25 943.95 704.25 944.5 703.25 945.5 701.8 946.6
Q 700.85 947.4 698.75 948.7
L 692.25 952.2
Q 687.15 954.35 685.4 955 683.2 955.95 681.9 956.25
L 678.3 957.35
Q 666.6 961 649.05 963.6
L 634.2 965.35
Q 633.4 965.5 619.2 966.5
L 574.05 968.25
Q 563.8 968.6 559 968.6
L 529 969.25 474.85 969.45 475 928.05
Q 474.85 909 474.75 906.95
L 474.45 885.75
Q 474.15 871.7 474 864.6 473.6 851.8 473.5 843.5
L 473.5 801.6 476.1 799.6 478 799.75 476.95 799.05 477.1 798.95 473.6 796.7 473.6 779.75 501.1 779.25
Q 508.25 779.2 515.3 778.95
L 586.3 777.25 621.8 777.6
Q 625.45 777.6 628.95 777.75
L 657.25 778.8 671.45 779.8
Q 674.05 779.95 678.5 780.5
M 711.3 754.5
L 715.9 753.75 782 752.2
Q 788.55 752 793 752
L 803.25 751.8 803.7 755.1 804.45 755.1
Q 804.75 758.3 806.75 760.6 807.9 761.9 809.55 762.75
L 812.95 763.7
Q 819.25 764.8 826.75 764.7
L 831.95 764.25 832.8 764 833.15 763.95 837.15 907.35 837.75 943.05 837.8 943.55
Q 837.95 943.95 838.65 945.2
L 839.75 946.8 807.9 946.1 811 941.75 811 941.45
Q 811.5 900.95 811.5 897.75
L 812 766.85 811.75 766.85 809.45 897.75
Q 809.35 905.85 809.05 941.2
L 805.65 946.05 733 944.55 729.5 941.7 727.8 898.75
Q 727.35 888.9 726.5 877.1
L 720.65 769.5 722.45 768.85 723.95 768 725.3 766.85 726.5 765.5 727.75 763.25
Q 728.1 762.35 728.25 761.55
L 728.55 760.2 730.45 760.3 730.4 760 730.25 753.5 730 753.5 729.9 759.75 728.65 759.55 728.7 759 715.55 758.95
Q 713.95 758.95 713.05 759.1
L 711 759.45 710.75 759.45 710.75 759.5 710.65 759.5 710.75 760.6 726.95 760.55 726.25 762.6 725.55 764 724.7 765.2 723.65 766.2 721.75 767.35 721 767.6
Q 720.85 767.75 720.25 767.85
L 718.9 768.25 724.45 855.5 727.45 936.75
Q 727.45 939.15 727.3 942.05
L 727.3 942.7 729.5 944.45 705.55 943.95 699.95 765.5 703.65 764.25 706.5 762.5 708.15 761 709.5 759.25 710.5 757.25 711.25 755.1 711.3 754.5
M 809.8 762.25
Q 808.05 761.45 807.05 760.3 805.05 758.15 804.7 755.1
L 847.75 755.05 847.75 751.5 855.25 751.5
Q 855 754.8 855.7 757.5 856.15 759.6 857 760.75
L 857.65 761.45 858.4 762
Q 859.3 762.5 860.05 762.5
L 873.75 763.7
Q 879.55 764 880.55 764.2
L 882.25 764.45
Q 882.8 764.45 884 764.75 884.35 764.8 884.8 764.75
L 884.8 766.05
Q 884.9 768.85 884.75 779.75
L 883.7 944.25 884.65 947.25 857.55 947.1 859.5 945.5 860.5 826.3 861 809.35 864.4 764.25 864.2 764.25 861.55 786.75 859.15 820.6
Q 858.9 824.6 858.9 826.25
L 857.55 944.7 854.7 947.1 840.9 946.8
Q 840 945.8 839.25 944.75
L 838.55 943.35 838.45 942.6 837.2 852.35 834.75 769.95 834.15 763.2 834.05 763 834 762.8
Q 834.15 762.8 833.4 762.6
L 832.9 762.8 830.05 763.35
Q 829.3 763.5 826.7 763.6 819.35 763.95 813.05 763.05
L 810.55 762.5 809.8 762.25
M 885.4 763.3
Q 884.8 763.25 884.75 763.5 884.45 763.65 884.05 763.5
L 880.7 763 867 762.45
Q 862.3 762.2 860.25 761.85 859.6 761.85 858.7 761.5
L 858 761 857.5 760.45
Q 856.65 759.45 856.15 757.45 855.45 754.75 855.5 751.5
L 858.9 751.5 858.9 755 900.5 756.6 900.5 751.05 941.9 754.85 941.9 755 941.25 762.25 930.65 762.7 930.65 762.75
Q 930.1 763.35 929.5 764.3
L 929 766.2 929 767.2 929.3 768.1 929.55 768.5 929.95 768.85
Q 930 769.05 930.7 769.5
L 930.75 769.35 930.05 768.75 929.5 768 929.25 767.1
Q 929.15 766.65 929.25 766.25 929.4 764.5 930.75 763
L 941.65 762.7 941.65 762.5 942.45 755.35 963.25 756.85 963.25 756.45 967.2 756.6 967.15 762.5
Q 965.5 762.9 964.45 763.5 963.55 763.95 963 764.5 962.75 764.85 962.75 765.05
L 962.75 765.3 962.7 765.35 962.7 765.45 962.4 765.95 960.75 767.3 960.7 767.35 957.45 769.35 957.15 769.5 958 825.3
Q 958.2 836.65 958.25 853.05
L 959 922.5 958.75 921.75 959.05 929.45
Q 959.25 930.7 959.75 932.1
L 960.25 938.2 955.45 940.75 954 941.35
Q 953 941.85 951.2 942.5
L 945.25 944.2
Q 942.05 944.85 939.15 945.05
L 935.55 945.3 935.65 944.35 937.45 939.75 937.45 939.55
Q 937.65 928.65 937.65 921.2
L 936.95 865.95
Q 936.9 861.35 936.95 856.75 936.95 853.05 937.15 847.5
L 937.3 838.3
Q 937.5 834.3 937.5 829.1
L 936.7 793.05 955.7 786 939.05 769.8 897.75 775.2 897.7 775.2 897.55 775.25 886.2 783 886.25 779.75
Q 886.25 770.05 886.05 766
L 886.05 765 886 764.6 886 764.2 885.8 763.75
Q 885.85 763.45 885.4 763.3
M 886.95 788.05
L 886.95 783.75 898.05 776.25 938.65 771.25 953 785.35 928.95 794.3 927.8 800.75 892.65 800.75 892.65 942 893.25 942.2 902.25 943.5 911.3 943.25 922.55 941.25 921.9 816 921.8 815.6 921.5 815.55 896.75 814.2 896.75 810.75 924.2 810.75 924.25 804.75 926.3 806.2 926.5 945.25 899.4 946.8
Q 887 947.2 885.5 947.25
L 884.45 944 885.5 861.95
Q 885.65 857.3 886 834.5
L 886.2 789.1 920.45 785.25 920.55 785.25 927.4 780.05 923 783.75 922.95 783.8 923 784 931.4 792.35 931.5 792.25 923.45 783.85 935.25 774.05 935 773.7 920.25 784.6 886.95 788.05
M 900.5 750.85
L 900.5 746.3 940.5 748.7 961.55 751 961.65 755.05 931.2 752.75
Q 916.5 751.8 900.5 750.85
M 963.65 765.6
L 963.8 765.1
Q 964 764.85 964.9 764.3 966.1 763.7 967.75 763.25
L 968.05 763.2 968.05 755.75 963.25 755.5 963.3 749.5 959.95 749 959.9 741.8
Q 960.8 742.4 963.55 743.75
L 975.95 749.6
Q 978.8 750.95 984.25 753.25
L 1001.2 760
Q 1002.15 760.4 1009.45 763.75
L 1024.65 770.95 1023.95 771.7 978.45 767.75 962.7 767 963.2 766.5 963.65 765.6
M 962.75 768.1
L 962.9 768.1 993.95 770.6 1023.7 772 1020.3 775.75 958.25 772.95 958.2 770.1 961.2 768.25 962.75 768.1
M 612.95 197.15
L 613 195.6 619.7 197.2 619.5 190.1 621.5 190.65
Q 621.65 193.15 621.65 197.75
L 621.65 198 626.75 199.4 626.55 201.65 621.05 200.65 621.15 212.15 621.2 212.6 624 214.2 624.05 215 621.15 213.65 621.55 222.4 619.65 222.4 620.2 212.65 617.9 210.65 617.95 210.5 620.4 212.2 620.55 200.15 612.95 197.15
M 629.25 298.15
L 636.5 298.8 636.7 300.15 636.65 300 637.25 345.75 638.65 348.15 632.25 347.9
Q 630.85 347.8 629.05 347.8
L 616.25 348.3
Q 611.95 348.6 609.95 348.9
L 606.65 349.15 608.4 344.8 608.3 299.9 606.9 298.65
Q 613.55 298.25 621.4 298 626.65 298 629.25 298.15
M 605.15 298.5
L 607.25 300.4 607.75 344.65 606 349.25 603.65 349.5
Q 598.8 350.2 597.25 350.5 596.85 350.5 596.45 350.65
L 598.2 346.5 598.25 336.15 596.55 305.8 597.25 305.75 598.7 304.8 598.7 304 598.55 303.65 598.45 303.3 597.95 302.8 597.3 302.5 596.15 302.15 595.05 302.05 594.9 302.05 594.9 302.15 594.5 302.65 594.4 302.55 594.55 302.75 594.65 302.75 594.65 303.4 594.55 303.8 594.5 303.75 593.9 303.8 593 304 592.5 304.05
Q 592.05 304.15 591.8 304.4 591.45 304.8 591.05 305.4
L 590.9 305.75 590.5 305.75 590.5 305.65
Q 590.25 305.25 590.25 304.15
L 590.25 303.75 590.7 303.3
Q 591.3 302.8 592 302.5 593.15 302 595.3 301.25 596.75 300.75 598.8 300.15
L 605.15 298.5
M 597.55 303.3
L 597.95 303.65 598 303.9 598.05 304.05 598.05 304.5 597 305.15 595.8 305.15 595.8 305.5
Q 595.9 307.65 595.75 315.75 595.75 321.4 595.9 326
L 596.25 336.15
Q 596.75 342.8 597.15 346.25
L 596 350.65 590.05 351.9 591.15 348.15 591.75 307.25 591.7 307.25 591.9 307 592.75 305.4 594.15 304.9 594.65 304.9 595.05 304.8 595.25 304.55
Q 595.55 304.2 595.55 303.4
L 595.5 302.8
Q 596.3 302.8 597.15 303.05
L 597.55 303.3
M 244 75
Q 244.7 75.9 244.9 76.95 245.1 77.35 245.25 78.35
L 245.25 79.45
Q 245.25 79.75 245.05 80.85 244.6 82.25 244.15 82.85 243.5 84.1 242.6 84.6
L 241.65 83.5 240.35 82.7
Q 239.75 82.4 238.9 82.25 237.95 82.25 237.35 82.35
L 235.85 82.95 234.8 83.85 234.35 84.35 234.3 84.25
Q 233.9 83.7 233.8 83.35 232.85 81.75 232.85 79.35 233.1 77.25 233.85 75.6 234.85 73.75 236.3 72.95 236.9 72.6 237.8 72.35
L 238.55 72.2 239.35 72.2
Q 240.75 72.35 242 73.2 243.3 74 244 75
M 221.1 187.95
L 221.55 187.6 222.35 187.1
Q 222.55 186.9 224.05 186.15
L 225.85 185.5
Q 226.75 185.15 227.65 184.9
L 231.6 184.15 239.6 183.4
Q 241.55 183.25 243.6 183.4
L 247.6 183.65 249.55 184 251.4 184.65
Q 253.65 185.4 254.55 186.85 254.95 187.4 255.1 188.6
L 253.9 213.15 253.05 212.85
Q 252.75 212.7 250.85 212.15
L 248.6 211.65
Q 247.1 211.35 246.35 211.35
L 244.1 211.15 235.15 211.2 233.65 211.4 233.35 192.15
Q 233.3 191.3 232.85 190.4 232.25 189.3 231.35 188.9 230.85 188.6 230.25 188.6
L 229.25 188.65
Q 227.4 189.05 226.4 191.35 226.05 192.4 226.05 193.1
L 226.75 212.25 220.4 213.65 221.1 187.95
M 229.5 190.35
Q 230.7 190.15 231.15 191.15 231.4 191.75 231.5 192.4
L 231.55 192.7 231.6 211.65 227.1 212.2 227.6 193.2
Q 227.6 193 227.9 191.9 228.5 190.5 229.5 190.35
M 154.65 355.75
L 154.65 353.5 163.85 350.15 163.85 350 200.35 336.5 220.6 342.75 234.05 342.75 245.5 336.55 316.5 352 312 358.5 312 361.65 322.75 364.75 316.35 368 311.95 367.65 311.95 370.55 263.25 360.4 263.5 359.75 248.1 356.75 248.1 341 312.95 355.25 313.25 353.65 246.35 338.75 246.35 339.65 239.8 343.05 212.65 344.5 212.65 344.65 200.6 342.05 200.55 342.05 200.4 342.15 162.55 357.9 154.65 355.75
M 158.85 375.9
L 158.65 375.4 158.65 374.75 172 370.3 175.8 373.75 175.05 375.4 174.6 375.9 173.55 376.65 172.05 377.4 173.35 459.55 174.1 461.75 162.75 465.75 162.65 465 163 463.65
Q 163 463.45 163.6 462.25
L 164.25 459.9 164.35 457.55
Q 164.35 455.65 164.15 454.4 163.8 442.35 163.8 435.8
L 163.75 417.15
Q 163.75 410 163.5 398.5
L 162.85 379.5 162.55 379.3
Q 161 378.35 160.25 377.5 159.7 377.2 159.25 376.5
L 158.85 375.9
M 256.45 295.25
L 243.1 294.65 208.6 296.8
Q 203.35 297.4 198 298.25 191.5 299.2 187.5 300 182.55 301 177.35 303.8 174.5 305.4 172.8 306.8 170.35 308.75 168.85 310.75
L 168.15 312.05 168.05 312.4
Q 167.4 311.9 167.25 311.25 166.8 310.3 167.4 309.25 168.25 307.4 170.3 305.8 173.4 303.25 178.1 301.4 178.35 301.3 182.35 299.8
L 195.6 296.5 204.6 295.15
Q 209.3 294.5 213.75 294.05
L 241.1 293.25
Q 248.4 293.55 250.25 293.75
L 268.35 295.65 286.25 298.9 295 301.5
Q 297.55 302.45 299 303.25 300.15 303.95 300.75 304.5
L 301.1 304.75 301.5 305.4 302 307.55 297.85 305.4 287.85 301.55
Q 283.7 300.2 282.75 300 276.2 298.15 272.35 297.5 270.1 297.05 267.1 296.5
L 256.45 295.25
M 211.9 329.15
L 239.4 330.4 247.3 326.5 275.35 333.8 303.35 340.5 303.5 347.65 309.6 349.5 245.5 335.8 245.35 335.8 233.85 342.15 220.8 342.15 200.5 335.9 200.35 335.8 164 349.15 164.55 341.65 181.85 334.65 199.35 327 211.9 329.15
M 189.25 364.9
Q 189.5 366.2 190.1 367.15 191 368.9 192.6 369.5
L 192.85 369.55 193.05 370 193.35 371.25 193.65 374.15
Q 193.85 376 194.35 385.9
L 195.5 421.25
Q 195.6 427.1 195.5 433.05
L 195.1 451 194.4 392.65 193.85 388.75
Q 193.1 385.75 192.15 383.75 190.65 380.8 188.4 379.9 187.1 379.4 185.75 379.55 184.3 379.7 183.1 380.3 180.75 381.55 179.3 384.15 178.05 386.2 177.3 389.05 176.6 391.5 176.35 394.3 176.15 395.75 176.1 399.55
L 176 420.5
Q 176.05 432.75 176.25 441.4
L 176.75 461.5 175.85 461.75 175.05 459.3 174.8 439 173 378 174.6 376.9 175.1 376.4 176 375.15 176.25 374.4 176.35 373.65 176.35 373.5 176.25 373.4 172.3 370.25 189.25 364.9
M 191.5 366.4
Q 190.9 365.4 190.85 364.5
L 201.35 361.05 213.05 364 213.05 364.15
Q 212.95 364.65 212.65 365
L 212.15 365.75
Q 212.15 365.95 211.6 366.4 211.05 367 210.15 367.5 208.95 368.2 208.55 368.3
L 208.35 368.4 210.25 433.75 211.25 454.5 199.75 454.5 196.35 455.5 196.25 409.4
Q 196.35 392.4 196.1 385.8 195.8 377.25 195.4 374
L 194.55 369 194.15 368.4 194 368.25 193.6 368 193.55 368 193.25 367.9
Q 192.15 367.55 191.5 366.4
M 178.35 389.4
Q 179 386.65 180.1 384.65 181.55 382.05 183.5 381 184.6 380.5 185.85 380.25 186.95 380.1 188.25 380.5 190.35 381.45 191.6 384 192.65 386.2 193.15 388.9
L 193.75 392.75 193.05 456 191.05 456.75 190.8 425
Q 190.65 419.35 190.5 408.25
L 190.4 404.05
Q 190.35 401.35 190.4 399.9 190.55 397.85 190.85 395.8
L 191.4 393.9
Q 191.95 392.7 192.6 392.4
L 192.6 392.15
Q 191.75 392.45 191.1 393.75 190.85 394.3 190.4 395.75 189.95 397.85 189.75 399.9 189.55 401.45 189.5 404.05
L 188.85 457.8 177 461.4 177.5 441.4
Q 177.75 428.4 177.75 420.5
L 177.75 410
Q 177.75 403.1 177.6 399.55
L 177.65 394.4
Q 177.95 391.5 178.35 389.4
M 240.35 363.15
L 240.1 362.9 247.75 358 247.8 358 261.85 360.75
Q 261.35 361.85 260.6 362.75
L 259.7 364 258.5 364.8 258.1 365 258.95 455.4 259.1 455.4 259.25 365.65 259.75 365.4 260.1 365.15 260.45 364.8
Q 260.85 364.4 261.6 363.4 262.1 362.7 263 361
L 311.5 372.25
Q 311.2 373.35 310.75 374
L 310.25 374.5 310.2 374.5 310.2 374.55 309.85 374.75 309.6 375.4 309.6 375.55 309.5 375.75 309.5 467.65 298.25 465.15 298.35 454.9
Q 298.45 447.65 298.35 443.9
L 297.85 377.65 297.5 377.65 295.85 377.05
Q 295.05 376.75 294.5 376.15 293.85 375.7 293.35 374.9
L 292.85 374.15 292.6 373.65 299.5 370 299.45 369.9 291.85 373.25 292.25 374.4 292.75 375.25
Q 293.3 376.15 293.95 376.75 294.75 377.45 295.5 377.9
L 296.35 378.25
Q 296.75 378.4 296.95 378.4
L 296.35 464.75 296.1 464.65 295.95 399.4
Q 295.7 396.65 294.85 393.4 293.25 386.75 289.85 382.15 285.9 376.8 279.75 374.9 276.55 373.9 273.6 373.9 269.95 373.9 267.25 375.5 264.6 377.05 262.85 380.25
L 262.75 380.4 261.7 383.15
Q 261.15 385.1 261 386.25 260.5 388.95 260.6 392.4
L 260.6 456.9 244.5 453.9 244.65 452.65 245.6 432.5
Q 245.9 417.6 245.9 410.25 246.1 397.05 246.1 365.75
L 246.1 365.15 245.5 365
Q 243.75 364.75 242.1 364.05
L 240.6 363.3 240.35 363.15
M 262.7 392.3
Q 262.55 389.65 263 386.55 263.15 385.7 263.7 383.75
L 264.35 382 265.5 381.75 268.25 381.55 270.6 381.75 272.5 382.15 274.5 383
Q 276.6 384.25 277.1 384.65 277.45 384.85 278.35 385.75
L 280.6 388.4
Q 280.95 388.75 281.6 389.9
L 282.6 391.55 284.85 397.25 285.85 401.4 286.2 405.8 285.6 448.4 286.35 462.9 262.6 457.9 262.7 392.3
M 278.1 383.25
Q 277.5 382.85 275.1 381.55
L 272.85 380.8 270.75 380.5 268.25 380.55 267.1 380.75 264.6 381.5 264.75 381.15
Q 266 378.65 268.35 377.25 272.6 374.8 279.1 376.9 284.55 378.55 288.1 383.4 291.35 387.65 292.85 393.9 293.5 396.5 293.85 399.65 294.1 401.8 294.1 402.55
L 294.2 464.5 286.6 463 287.6 441
Q 287.7 437.1 287.6 432.75
L 286.5 401.3 285.95 397
Q 285.05 392.3 283.1 389 282.3 387.6 280.85 385.75
L 278.1 383.25
M 311.1 376
L 311.2 375.9 311.2 375.8 311.5 375.65 311.85 375.15 311.6 468.05 311.25 468 310.2 407.55
Q 310.2 401.5 310.35 395.4
L 311.1 376
M 245.55 467.4
L 243.85 467.4 242.15 467.15 242.85 457.25 200.75 457.15 200.75 457.3 241.3 458.75 240.6 467
Q 205.25 468.75 195.6 469.3
L 195.4 469.3 195.35 469.4 139.8 487.25 138.1 474.15 188.85 459.5 188.85 459.9 192.3 458.5 200.85 456.25 244.4 455.8 258.7 458.4 260.25 458.8
Q 260.65 458.95 260.6 458.9
L 260.25 458.5 260.25 458.4 261 458.55 261.6 459.25 262 458.75 294.2 465.9 294.2 466.15 313.5 470.25 313.5 470.15 332.85 474.4 331.6 476.05 331.2 482.75 245.55 467.4
M 248 476.3
L 247.9 476.5 323 490.8
Q 325.2 491.25 345.35 494.55
L 335.75 499.3 335.85 505.4 242.8 488.05 242.85 480.05 247.35 475.55 200.6 475.55 200.5 475.65 136.55 497.65 133.4 495.9 128.65 492.55 195.9 471.65 241.15 469.55 344 487.5 346.5 493.65
Q 331.2 490.6 323.25 489.15
L 285.7 482.4 248 476.3
M 242.35 541.5
L 242.75 499 313.35 510.25
Q 316.35 510.8 336.1 513.6
L 340 653.35 316.25 650.85 311.95 653.75 304 651.85 304.5 556.25 304.25 553.55
Q 304.1 551.75 303.7 549.25 302.9 544.7 301.6 540.85 300.4 536.65 298.25 532.85 296.85 530.6 295.75 529.25 293.95 527.25 292.5 526.25 288.8 523.55 284.25 523.55 279.35 523.7 275.75 525.35 272 527.15 269 530.75 266.5 533.7 264.6 538.25 263.05 542.2 262.25 546.5 261.4 550.6 261.25 555
L 263.35 647.75 255.9 643.95 255.85 643.85 255.75 643.85
Q 253.8 644 250.1 644
L 242.9 643.75 242.35 541.5
M 162.75 530.25
Q 165.9 525.9 170.1 524.75 172.45 523.9 174.5 524.5 176.25 524.85 178.15 526.75 180.75 529.5 182.85 535.3 184.45 539.95 185.1 545.25
L 183 646.5 179.75 647.35 179.1 567.55 164.15 571 164.1 562.3 177.55 557.5 177.8 557.45 177.75 557.2 177.85 552.75 178.4 549.45 179.15 547.25 180.25 545.3 181.6 543.6 183.4 542.35 184.4 541.85 184.35 541.55 183.3 542.05
Q 182.7 542.35 182.35 542.7 182.05 542.85 181.4 543.35
L 179.85 545.1 179.3 546.05 178.35 548.2 177.75 550.35
Q 177.5 551.25 177.35 552.6
L 177.1 557 163.3 561.75 163.15 572.25 177.8 569.2 177.5 648 154.05 652.5 155 564.7
Q 155 560.7 155.1 559.5 155.3 554 156.1 549.25 156.9 543.65 158.35 539.25 159.2 536.55 160.15 534.55 161.3 532.2 162.75 530.25
M 291.85 527.1
Q 293.2 528.05 294.85 530 296.05 531.65 297.1 533.5 300.45 539.65 302.1 549.5
L 302.85 555.8 302.85 566.5
Q 302.8 575 302.85 583.6
L 303.45 652.3 303.6 652.3 311.6 653.85 299.45 661.95
Q 292.7 661.15 290.7 660.85
L 246.65 656.25
Q 244.35 656 235.6 655.25
L 214.6 653.5 216.3 645.25 242.9 645.2 242.9 644.75 244.5 644.75
Q 246.3 644.6 250.1 644.6 252.85 644.6 255.6 644.75
L 263.35 649.5 263.45 650.1 264.45 650.1 272.75 655 280.75 655
Q 285.85 655 288.35 654.85
L 303.7 654.05 303.7 653.85 288.35 653.05 273.35 652.95 268.1 650.1 290 650.25 289.45 556.1
Q 289.05 551.5 288.35 548.35 287.55 544.5 285.95 540.95 283.95 536.75 281.1 534.75 280 533.8 277.7 532.95 276.2 532.45 273.75 532.45
L 273.75 532.6
Q 278.05 532.75 280.85 535.05 283.55 537.25 285.25 541.25 286.7 544.35 287.45 548.5 288.05 551.95 288.35 556.2 288.45 558.1 288.35 560
L 287.85 648.05 265.35 648.2 262.25 563.55
Q 262 557.7 262 555 262.15 550 262.85 546.55 264.75 536.85 269.5 531.2 272.2 527.85 276.1 526.05 277.85 525.25 280.1 524.8 281.7 524.5 284.25 524.5 288.65 524.6 291.85 527.1
M 243.1 490.15
Q 275.3 495.8 289.45 498.05
L 335.95 506.05 336.1 513.35 243.1 497 243.1 490.15
M 115.4 688.1
L 115.4 672.8 164.05 663.5
Q 169.65 662.3 176.4 661.05
L 214.35 654.85 214.4 654.6 299.1 662.2 289.6 668.45 230.85 668.6 212.65 677.75
Q 212.75 669.05 212.6 656
L 212.4 656 211.6 679.5 231.1 670.25 286.5 670.5 270 681.35 211.55 684.2 159.9 668.75 159.65 668.75 159.5 668.85 93.9 704.95 72.3 717.3 72.3 717.5 83.4 711.75
Q 88.95 708.85 94.4 705.85
L 159.85 670.1 211.35 684.95 267.2 683.25 198.9 728.3 215.1 730.5 217.15 729.1 217.25 734.5 222.55 734.5 354.75 719.1 434 709.1 451 710.3 450.2 746.75 444.5 745.45 444.25 745.45 234.65 767.05 234.55 749.8 235.3 749.75 235.3 742.85 234.5 743 234.5 740.45 234.4 740.35 232.25 737.75 232.6 734.45 232.35 734.35 232 737.7 232 737.75 234.15 740.55 234.1 743 123.65 760.75 84.25 762.2 70.25 742.25 114 745 114.05 745 130.6 742.7 130.6 742.85 142.4 741.75 142.5 741 188.1 734.6 188.1 734.85 196.05 733.75 196.05 733.5 207.6 731.95 207.55 731.75 196.05 733.25
Q 195.6 728.9 195.05 725.55 193.6 718.9 193.35 717.95 191.1 709.2 187.75 703.25 185.6 699.5 183.1 696.75 180.35 693.7 176.85 691.95 173.2 690.05 169.1 689.75
L 167.05 689.7 163.1 690 161.1 690.35 157.15 691.5 154.4 692.7 150.1 695.3 147.05 697.95
Q 146.15 698.7 144.3 700.8
L 141.85 704.05
Q 139.8 707.2 137.9 711 136.5 713.9 135 718.35 133.7 722.55 132.85 726 132.3 728.5 131.4 733.8 130.9 737.8 130.65 741.75
L 130.65 741.85 113.9 744.05 71.25 741.2 71.05 718.85 67.8 718.8 67.8 715.95 115.4 688.1
M 7.65 771.2
L 10.65 773.8 82.9 766.2 83.65 767.6
Q 83.8 771.35 84.25 776
L 85.05 784.75 85.25 784.75
Q 85.3 782.2 85.5 780.35
L 85.55 776
Q 85.65 774.05 85.65 767.25
L 85.65 767 85.25 766.25
Q 88.45 766.2 93.65 765.85 95.75 765.8 98.75 765.6
L 123.3 764.75
Q 124.3 767.8 125.15 769.85
L 126.4 787 125.65 787.1 125.65 792.05 85 786.8 6.65 792.3 7.65 771.2
M 154.35 694.7
L 157.8 693
Q 160.6 692.1 161.4 691.95
L 165.15 691.25 169 691.2
Q 172.7 691.25 176.3 693 179.7 694.6 182.35 697.5 184.85 700 187.05 703.6 188.8 706.55 190.35 710.7 191.6 713.9 192.8 718.05 193.8 721.9 194.35 725.75 194.95 729.65 195.3 733.1
L 188.9 733.95
Q 188.65 729.95 187.5 725.3 186.65 722.4 186.1 720.95 185.1 718.5 184.1 716.75 182.95 714.75 181.35 713 179.5 711.05 177.55 710.05 175.3 708.85 172.9 708.7
L 171.75 708.55 170.55 708.55 168.15 708.85
Q 166 709.25 163.65 710.2 161.7 711 159.5 712.3 157.45 713.75 155.85 715.35 154.25 717.3 153.05 719.1 150.65 722.75 149.35 727.6 148.75 729.85 148.35 732.1 148 734.5 147.9 736.75
L 147.9 737.7 186.75 731.95 186.65 731.7 149.5 735.95
Q 149.6 734.25 149.85 732.35 150.15 730.7 150.85 728.05 152.15 723.5 154.5 720 155.8 718 157.15 716.6 158.55 715.2 160.5 713.8 162.6 712.5 164.35 711.75 166.55 710.9 168.5 710.5
L 169.6 710.3 172.8 710.3
Q 174.6 710.45 176.85 711.5 178.75 712.45 180.3 714 181.8 715.6 182.9 717.45 183.95 719 184.9 721.35 185.6 723 186.4 725.6 187.65 730 188.1 734.25
L 142.6 740.25 143.25 734.8
Q 143.8 731.25 144.4 728.85
L 145.25 725.95 148.55 717.45
Q 149 716.35 149.9 714.75 151.25 712.7 151.6 712.25 151.7 711.95 152.5 711
L 155.5 707.55
Q 156.95 706.2 157.75 705.6 158 705.35 160.25 704 161.95 703 162.9 702.6
L 165.8 701.6 165.65 701.7
Q 166.9 701.65 168.05 701.7 169.3 701.8 170.35 702
L 172.75 702.5 174.9 703.25 178 705.1 179.65 706.75 181.5 709.8 181.65 709.75 180.9 708.05 179.9 706.55 179.1 705.6
Q 178.4 704.9 178.3 704.75
L 177.3 704 172.9 701.75 170.55 701.2
Q 169.7 700.95 168.1 700.75 166.9 700.6 165.6 700.7
L 165.55 700.7 162.55 701.6 157 704.6
Q 156.5 704.95 154.55 706.6
L 151.3 710.05 148.6 713.95 145.75 719.5
Q 145 720.95 144.55 722.45
L 142.6 728.35
Q 141.7 731.9 141.3 734.5
L 140.6 739.85 132.85 740.6
Q 133.05 737.4 133.55 734.05 134.1 729.8 134.9 726.5 137.05 717.55 139.75 711.8 141.25 708.35 143.5 705.1
L 145.75 702
Q 147.7 699.85 148.35 699.25 151.3 696.3 154.35 694.7
M 124.8 764.75
L 126.9 764.7 234.1 749.85 233.9 766.85 228 766.8 227.9 775.2 255.35 771.95 266.75 773.45 266.1 776.8 260.1 780.5 259.5 943.25 264.25 948.25 251.55 949.75 229.35 948.35 234 944.25 235.3 944.25 235.3 943.1 235.8 942.75 235.35 942.75 235.9 922 235.35 922 239.3 801.2 239.35 801.25 239.9 782.1 237.55 782.55
Q 236.85 782.6 236.1 782.55
L 235.4 782.5 234.75 782.35
Q 234.25 782.25 234.1 782.1
L 233.55 781.85
Q 233.25 781.7 233.05 781.5
L 232.15 780.5 231.65 779.25 231.35 776.3 126.8 787 126.9 769.5 126.8 769.3
Q 126.5 768.4 124.8 764.75
M 229.9 778.1
L 230 778.85 230.4 780.5 231.35 782.05 231.6 782.35 127.75 792.2 127.8 789 229.9 778.1
M 231.85 782.55
L 232 782.7 232.75 783.2
Q 233.05 783.5 233.55 783.55
L 235.15 784.05
Q 235.35 784.1 236.05 784.1 236.9 784.25 237.65 784.1
L 238.35 784.05 238.1 791.25
Q 237.15 790.3 235.55 789.2 233.4 787.75 230.85 787.35
L 228.35 787.25 225.9 787.75
Q 225.7 787.75 223.6 788.35
L 221.3 789.25
Q 216.95 791.3 213.55 795.05 210.55 798.55 208.3 803.2 204.7 810.5 203.05 821.5 202.35 825.85 202.05 830.95 201.85 833 201.85 835.7
L 203.9 916.5 210.9 916.5 208.8 840.1 217.65 840.05 217.65 839.75 218 834.7
Q 218.25 832 218.75 829.7 219.15 827.25 220 824.8
L 220.85 822.45 222 820.25
Q 222.6 819.1 223.4 818.2 224 817.4 225.15 816.5 226.55 815.65 227.35 815.3
L 228.5 815 231 814.95 232.15 815.05
Q 233.45 815.3 234.55 815.75 235.75 816.4 236.5 817.2 237.05 817.75 237.35 818.45
L 236.85 837.25 220.15 837.5 220.6 916.45 227.15 916.35 226.5 839.75 226.3 839.75 225.6 914.8 222.25 914.75 221.5 838.75 236.85 838.25 234.55 922.05 125.15 925.85 127 923.3 127.75 793.75 179.9 788.25
Q 212.55 784.75 231.85 782.55
M 229.6 788.85
L 230.6 789
Q 234.55 789.55 237.85 793.25
L 237.85 797.7
Q 237.4 797.3 236.1 796.5 234.25 795.5 232.35 795.2 230.4 794.9 228.55 795.05
L 226.65 795.5
Q 225.6 795.8 224.85 796.2
L 223.15 797.05
Q 222.35 797.5 221.6 798.1 220.9 798.55 218.75 800.55
L 217.5 802
Q 217.05 802.3 216.35 803.5 215.7 804.25 214.3 806.55
L 212.6 809.95 210.35 817 209.1 824.25
Q 209 824.75 208.75 827.95
L 208.6 835.3 208.8 835.3 209.1 828
Q 209.3 825.65 209.55 824.3
L 211 817.1
Q 211.2 816.2 212.1 813.7
L 213.4 810.25 217.1 804.05 219.5 801.3
Q 221.55 799.45 222.25 799
L 224.55 797.6 226.9 796.7 228.65 796.3
Q 230.3 796.15 232.1 796.5 233.8 796.85 235.35 797.7 236.7 798.4 237.85 799.55
L 237.35 817.1 237.05 816.7
Q 236.15 815.8 234.85 815.1 233.9 814.65 232.35 814.35
L 229.75 814.25 228.4 814.35
Q 227.2 814.7 227.1 814.75 226.45 814.9 224.8 815.95 223.55 817 222.9 817.75 222.05 818.85 221.4 819.95 219.25 823.95 218.1 829.55 217.65 832 217.35 834.6 217.05 836.7 217.05 839.35
L 208.05 839.35 209.15 914.75 205.65 914.7 204.1 831
Q 204.4 825.75 205.05 821.75 206.55 811.45 210.05 804 212.05 799.6 214.9 796.3 218 792.75 222.05 790.8
L 224.1 790 228.5 789 229.6 788.85
M 259.1 770.25
L 256.75 769.85 256.2 765.3
Q 273.95 763.7 283.35 762.8
L 283.25 769.1 290.25 769.2 290.25 770 290.35 770.45 284.95 770.25 276.2 771
Q 274.25 771.2 273.25 771.45 269.2 772.25 268.25 772.35
L 268.35 772.2 264.35 771.75 261.95 771
Q 260.55 770.5 259.1 770.25
M 267.45 777.6
L 268.2 773 282.2 772.45 290.35 770.75
Q 290.55 771.3 290.6 771.35 290.65 772 291.2 772.7
L 292 773.75 294.35 775.2 296.5 775.75 296.45 809.3 295.5 809.3 295.2 777.75 294.85 777.75
Q 291.45 777.75 288.1 778
L 267.45 780.25 267.1 810.3 261.5 811 261.6 781.3 267.2 777.8 267.45 777.6
M 278.5 780.1
L 275.75 780.75 272.75 781.95 272.5 809.25 269.1 809.25 268.85 781.5 274.85 780.25 288.1 778.75
Q 291.3 778.55 294.5 778.45
L 294.5 778.7
Q 289.75 778.7 283.95 779.3 282.4 779.45 278.5 780.1
M 321.5 764
L 321.45 766 321.1 768.1 320.6 769.5 319.85 770.75 318.35 772.25 317.1 773.05 315.45 773.75 315.5 774.05 323.75 949.5 327.35 950.85 314.45 951.95 294.1 951 297.95 947.5 298 947.25 298.35 936.45
Q 298.35 928 298.25 925.6
L 298 914.95
Q 297.9 911.3 297.85 904.2
L 297.6 813.45 298.1 813.45 298.1 809.3 297.6 809.3 297.6 774.95 295.95 774.6 293.7 773.75 292.75 773 292.35 772.6 292 772.1
Q 291.6 771.6 291.5 771.05 291.35 770.9 291.25 770
L 291.2 769.35 291.35 768.25 289.45 768.25 308.85 765.75 309 765.7 308.95 760.3 352 756.05 351.75 760.05 321.5 764
M 308.75 760.35
L 308.7 765.5 284.1 768.3 284.1 762.75 308.75 760.35
M 322.45 766
L 322.5 764.95 351.7 761.25 351.5 764.5 352.45 764.35 352.6 764.3 354.85 765.1 355.25 766.05
Q 355.5 766.5 356 767.2
L 357 768
Q 357.2 768.2 358.2 768.75
L 359.35 769.2 360.6 769.5 362.5 769.75 362 804.6 359.5 804.75 359.25 788.8
Q 359.1 783.7 359.1 773.5
L 359.1 773.1 358.85 773.1
Q 352.9 773.1 345.35 773.45
L 338.6 774 333.5 775 331.85 775.7 331.5 775.75 331.1 807.7 353 807.05 318.1 809 318.1 808 329.25 806.95 329.2 806.75 318 807.2 316.45 774.35 317.6 773.85 318.95 773 319.5 772.5
Q 320.1 771.95 320.1 771.85
L 320.6 771.25 321.45 769.85 322.2 767.6 322.45 766
M 217.6 728.85
L 321.2 661.75 437 703.75 432.95 703.5 432.75 703.5 351.95 712.75 217.6 728.85
M 352.85 760.7
L 352.85 759.95 352.45 756 358 755.5 366.5 755.2 379.7 753.95
Q 379.7 755.85 380 759
L 369.95 760.75 353 762.75
Q 353 761.7 352.85 760.7
M 356.1 765
L 355.85 764.2 355.45 764 359.5 763.5
Q 361.5 763.25 363 762.85
L 373.5 760.85
Q 374.05 760.85 377.1 760.45
L 381.1 760.05 381.5 753.2 417.85 749.6 417.75 754.6 393.5 756.25 392.75 760.05 386 767 385.85 767.05 385.75 801.75 385.1 802.75 384.35 802.8 383.75 805.25 383.1 806.35 385.85 806.05 385.95 806.05 385.25 950.95 391.6 956.2 380.5 958 380.45 958
Q 373 957.2 367.75 956.75
L 358 955.95 362 953.55 363.75 768.5 360.85 768.25 359.75 768 358.7 767.6 357.75 767.05 356.95 766.3
Q 356.4 765.7 356.35 765.5
L 356.1 765
M 338.85 776.8
L 342.6 775.75 348 775
Q 351.8 774.5 358.5 774.25
L 358.2 803.5 338.25 804.05 338 777.25 338.85 776.8
M 393.35 760.25
L 394 756.8 417.85 754.95 417.95 755.25 423.35 755 423.6 755.95 425 758.3 425.95 759.3 427.1 760.2 427.7 760.5
Q 427.8 760.6 428.35 760.75
L 429.6 761.2 430.6 761.3 430.35 799.45 427.85 799.55 427.35 770.25 427 770.25 396.85 772.95 396.5 802.3 386.45 802.75 386.85 802 386.7 767.45 393.35 760.35 393.35 760.25
M 431.35 761
L 431.45 760.6 429.75 760.45 428.6 760
Q 428.1 759.9 428 759.75
L 427.5 759.5 426.5 758.75 425.6 757.8 424.95 756.75 424.45 755.6
Q 424.25 755.1 424.25 755
L 444.2 754.1 454.25 757.3 450.7 760.2 450.45 760.3 454.5 954.45 460.2 961.45
Q 459.3 961.55 457.2 962
L 452.35 962.75 434.5 960.75 425.25 960.75 431 955.7 431 923.75 431.5 923.75 431.5 916.75 431 916.75 431.1 809.5
Q 431.2 806.35 431.1 803.3
L 431.75 803.3 431.95 799.35 431.2 799.35 431.35 761
M 407.7 774.05
L 414.5 772.5 420.25 772 425.95 772 426 771.8
Q 422.2 771.5 421 771.5 424.6 771.1 426.75 770.95
L 426.5 799 404.45 799.5 404.2 775.55 407.7 774.05
M 438.2 703.85
L 448.1 702.8 562.25 709.85 553.5 712.55 438.2 703.85
M 529 971.25
L 559.15 970.7
Q 565.25 970.65 574.2 970.25
L 619.3 968.55
Q 621 968.5 626.9 968.1
L 649.4 965.75
Q 665.9 963.35 678.95 959.35
L 686.05 956.95
Q 687.55 956.45 693.15 954
L 699.9 950.35 703 948.25
Q 703.65 947.75 704.3 947.1
L 704.75 962.2 703.7 963.95 702.3 965.5
Q 700.95 966.8 700.8 966.85 698.3 969.1 694 971.55 687.85 974.5 686.45 975
L 666.5 981.05
Q 664.2 981.7 662.45 982 657.75 982.95 654.25 983.55 648.95 984.55 646 984.85
L 629.5 987 604.55 989.1
Q 601.45 989.35 600.45 989.35
L 579.55 990.25 479.5 991.75 462.75 991.45
Q 457.15 991.2 454.5 991
L 446.85 990.25 446.5 990.1 446.25 990.05 229.1 975.8 229 955.7 239.85 957
Q 240.3 957.1 243.65 957.35
L 252.9 958.1 253 958.1 254.25 958 293.25 960.7 293.25 960.5 330.6 962.8 330.6 962.6 353.35 964 353.35 964.25 384.95 966.6 394.7 966.6 394.7 966.5 423.1 968.35 423.1 968.85 468.75 971 529 971.25
M 473.6 799.5
L 471.95 800.8 472 801.25 472.75 843.5
Q 472.85 850.5 472.75 864.6 472.6 871.65 472.6 885.8
L 472.75 907
Q 472.75 915.5 472.95 928.05
L 473.85 969.35 463 969.1 463 962.85 463.75 962.8 463 962 463 961.75 462.85 961.45 456.6 953.75 452.5 800.45 456.35 799.8 473.6 799.5
M 430.35 803.35
L 430.25 814.5 394.85 815.8 394.75 816.5 394.7 867.55 395.2 918.35 390.5 919.5 390.5 923.35 429.35 923.75 429.2 954.85 422.7 960.55 423 966.5
Q 415.25 966.05 412.95 965.95
L 394.6 965.05 394 955.5 387.35 950 387.1 806 430.35 803.35
M 396.5 802.55
L 396.5 803.35 420.35 802.1 387.1 805 387.1 804.75 385.2 805 385.95 803.55 396.5 802.55
M 402.7 817.95
L 402.7 818.5
Q 402.6 828 402.75 843
L 403.7 917.6 429.45 918.25 429.35 922.3 391.1 922.75 391.1 920 395.75 918.85 395.75 918.6
Q 395.85 899.35 396 893.1
L 396.25 817.1 426 815.05 402.7 817.95
M 360.5 819.25
L 360.25 819.85
Q 354.35 820.15 349.85 820.45
L 338.75 821.1 338.95 869.95 339.95 918.55 360.35 918.55 360.25 920.75 325.6 921.45 325.6 921.3 330.85 919.35 330.95 918.75 331.6 869.35 331.7 820.6 360.5 819.25
M 355.6 962.3
L 355.85 957.5 380.5 959.05 380.7 959.05 391.85 956.45 392 956.5 392.5 964.55 385 964.55 355.6 962.3
M 441.6 963.25
Q 443.95 963.35 445.2 963.25
L 457.25 963.1
Q 460 963.1 461 963
L 461 968.6 428.25 966.75
Q 425.95 966.65 424.85 966.55
L 424.6 961.35 424.7 961.25 427.2 961.8 441.6 963.25
M 296.45 813.45
L 296.45 822.7 272 823.95 271 919.25 267.5 919.45 267.5 921 296.45 922.55 296.5 925.7
Q 296.6 928.05 296.6 936.35
L 296.25 946.75 291.7 950.95 291.1 950.95 291.35 958.5 267.1 956 266.75 948 265.75 948.05 260.75 942.75 261.5 813.8 296.45 813.45
M 273.25 825.1
L 278.35 824.7 278.5 860
Q 278.5 863.1 278.75 871.95
L 279.35 895.7
Q 279.65 901.85 279.75 907.55
L 280 919.75 295.95 919.8 295.75 921.75 272.7 919.85 273.35 848.45
Q 273.35 830.45 273.25 825.1
M 279.45 824.85
L 296.45 824.6 296.25 919.05 280.6 919.2 279.45 824.85
M 229 948.75
L 229.1 948.55 251.5 951.25 251.6 951.25 264.95 950.1 265 956.45 258.25 956.8 251.05 956.5
Q 248.6 956.4 243.8 956.1
L 229 955 229 948.75
M 233.9 924.05
L 233.35 942.25 131.3 941.45 124.55 942.05 124.55 926.8 233.9 924.05
M 84.4 792.75
L 84.05 792.75 4.5 797.75 4.5 797.7 1.45 797.85 1.45 793.75 6.55 793.8 6.55 793.55 84.8 788.55 125.65 793.7 125.4 922.75 123.05 925.95 81.3 928.3 84.4 792.75
M 67.9 929.5
Q 72 929.4 76.3 929.1
L 77.05 947 3.75 944.35 3.75 928.25 12.55 928.6
Q 13.75 928.7 17.1 928.8
L 31 928.5
Q 33.25 928.45 35.55 928.5
L 58.65 929.5
Q 61.7 929.6 67.9 929.5
M 79.9 927.6
L 76.3 928 76.3 928.25 58.7 927.35 31 927.75 12.55 927.1 7.3 927.35 4.5 799 83.8 793.45 79.9 927.6
M 78.8 946.5
L 77.9 929.45 81.3 929 81.3 928.6 123 926.95 123.05 942.25 78.8 946.5
M 980.65 825.6
L 1003.5 825.7 1002.75 912.95 1000.55 912.6 1000 827.5 981.5 827.1 981.5 827.3 999.45 828 998.8 914.1 1003.95 914.95 995.5 916.5 980.45 917.5 980.65 825.6
M 936.45 793.2
Q 936.35 794.7 936.05 801.5
L 935.75 838.3 936.25 856.75
Q 936.35 861.35 936.25 865.95
L 935.5 921.2
Q 935.6 934.9 935.75 939.45
L 934 944.05 934 945.45 927.65 945.95 927 805.8 923.55 803.5 923.55 810.1 896.05 810.05 896.05 814.75 896.4 814.8 921.15 816.3 921.15 940.1 911.2 941.75 905.9 942
Q 905.3 942.05 904.15 942
L 895.3 941.05 894.25 940.8 894.25 802.35 929.2 802.3 930.3 795.5 936.45 793.2
M 886.25 949.25
L 886 948.55
Q 890.55 948.5 899.45 948.1
L 916.15 947.25 917.55 947.45 930 947.45 934.05 946.95 934.65 964.1
Q 930.8 964.75 927.3 965.1 913.7 966.75 899.75 966.6
L 886.3 966.2 886.25 949.25
M 960.3 940.25
L 960.5 940.2 961.5 947.1 961.65 949.75
Q 961.95 952.85 959.5 955.45 957.7 957.2 954 958.95 949.2 961.15 940.95 963 938.1 963.6 935 964.05
L 935.5 946.6 954.5 942.7
Q 955.5 942.4 957.5 941.6 959.35 940.8 960.3 940.25
M 706.45 961.25
L 706.25 946 732.4 946.55 732 961.25 706.45 961.25
M 31.45 829.6
L 31.25 829.6 30.85 850.85
Q 30.6 865.65 30.6 872.2
L 30.5 915.55 62.4 915.2 62.25 893.5 62.9 828.75 33.65 828.55 34.05 910.75 34.15 911.35 59.4 910.85 59.4 910.7 35.25 910.25 35.7 830.6 61.05 830.5 61.55 914.35 32.2 914 31.45 829.6
M 54.55 811.1
L 54.45 811 47.25 811.45 47.25 811.6 54 812
Q 57.75 816.3 60.75 819.5 63.6 822.6 64.3 823.25
L 66.15 825.25 56.75 825.3 48.3 818.45
Q 41.45 812.85 39.7 811.25
L 39.45 811.1 26.45 822
Q 24.65 823.5 22.25 825.6
L 20.5 827.25 26.85 827.1 27.1 826.95
Q 31.4 823.15 33.4 821.3
L 39.5 815.5 39.4 815.25 26.25 825.45 25.1 825.45 39.5 811.95
Q 43.55 815.55 47.5 819.35
L 56.05 827.25 71.15 827.35 62.05 818.25
Q 59.05 815.35 54.55 811.1
M 186.6 816.1
Q 185.65 815.55 183.35 814.8 179.65 814.05 176.5 814.8 173.1 815.8 170.85 818.85 169.15 821.15 167.9 825 167.1 827.85 166.65 831.5 166.35 835.2 166.35 838
L 167.05 909.25 167.25 909.25 168 838
Q 168 834.75 168.35 831.7 168.7 828.9 169.65 825.5 170.65 822.3 172.35 820 174.15 817.4 177 816.75
L 178.35 816.45 179.9 816.35
Q 180.85 816.35 182.85 816.75 184.55 817.25 185.6 817.85 186.9 818.6 188 819.7 190.05 821.85 191.15 824.75 192.2 827.05 192.75 830.75 193 832.75 193 833.85
L 193.1 913.85 167.85 914.05 167.85 912.7 174.65 912.6 174.65 912.75 179.05 912.75 179.05 912.6 192.05 912.5 190.55 839.5
Q 190.4 836.45 189.9 833.85 189.4 830.8 188.05 828.5 187.3 827.25 186 826.25 185.15 825.8 184.55 825.75
L 183.8 825.55 183.05 825.55
Q 181.5 825.7 180.1 826.5 179.15 827 177.9 828.5 176.5 830.5 175.65 833.8 175.05 836.65 174.85 839.45
L 174.75 845.05
Q 174.75 845.1 174.6 867.35
L 174.6 911.35 166.5 911.3 166.4 915.5 194.85 915.7 195.05 833.85
Q 195.05 832.6 194.8 830.5 194.35 827.25 193.1 824 191.7 820.7 189.4 818.25 188.2 817.1 186.6 816.1
M 176.85 834.1
Q 177.8 830.75 178.85 829.2 180.65 826.7 183.1 826.7
L 183.4 826.6 183.75 826.6 184.35 826.75
Q 184.75 826.75 185.5 827.2 186.4 827.75 187.25 829 188.35 830.75 189.1 834 189.55 836.15 189.8 839.5
L 191 911.5 179.05 911.45 178.35 841.1 178.1 841.1 177.4 911.25 176.25 911.25 176.15 839.5
Q 176.4 836.1 176.85 834.1
M 241.4 740.7
L 240.3 761.75 317.35 752.75 317 732.05 323.85 731.05 324.35 751.55 338.25 750 338.2 729 346.2 727.8 346.2 749.25 384.25 744.85 383.95 722.45 390.1 721.95 390.5 744.85 407.6 743.2 406.5 719.35 413.1 718.45 414 742.5 429.5 740.5 429.35 715.8 440 714.25 440.25 739.85 448.35 739.8 448.35 739.6 440.6 739.5 440.95 713.8 445.6 713.05 445.6 712.85 440.95 713.5 440.95 713.1 428.25 714.8 428.25 715.1 414.75 716.95 414.7 716.5 404.75 717.85 404.75 718.25 382.5 721.1 382.5 721.25 241.4 740.7
M 243.4 742.5
L 315.85 732.25 315.95 751.5 242.4 759.5 243.4 742.5
M 391.5 721.2
L 404.85 719.25 405.75 741.6 392.2 743 391.5 721.2
M 325 730.95
L 337.5 729.1 337.5 749.35 325.25 750.55 325 730.95
M 383.2 744
L 346.85 748.45 346.85 727.75 382.5 722.5 383.2 744
M 415.6 740.75
L 414.75 717.75 428.25 715.75 428.1 739.25 415.6 740.75
M 790.3 818.3
L 743.05 818.75 742.55 912.05 738.25 912.05 738.3 918.75 781.65 918.1 781.65 917.95 739.7 917.3 739.75 913.55 742.55 913.6 742.55 913.7 749.3 913.75 749.3 913.7 788.15 913.8 790.3 818.3
M 746.25 822.75
L 746.05 822.75 747.5 912 744.25 912 743.75 819.45 788.75 819.85 786.2 911.8 749.25 912 746.25 822.75
M 688.65 819
L 688.65 819.2 693.8 819.45 693.25 854.25
Q 693.25 862.05 693.4 866
L 693.8 889.35
Q 693.9 893.95 693.75 901.1
L 693.55 912.25 689.4 912.2 689.7 867.8 688.75 822.75 688.5 822.75 687.9 845.25 687.65 890.3
Q 687.75 901.55 687.95 912.8
L 687.95 913.55 694.75 913.35 694.5 901.1
Q 694.45 893.3 694.5 889.35 694.5 881.55 694.65 877.7
L 695 854.25 694.5 818.75 688.65 819
M 523.75 813.3
L 523.5 813.3 522.75 919.75 522.8 920.55 523.65 920.55
Q 533.55 920.55 548 920.35
L 572.75 920.1 573.5 812.5 526.8 812.25 529.05 916.75 568.45 915 568.45 914.8 530.3 915.5 529 814.35 571.8 814.2 572 919.3 524.5 918.85 523.75 813.3
M 611.95 807.8
L 611.95 808 665 810.25 663.25 919 615.4 919.35 614.25 814.2 660.25 816.8 657.5 915.45 620.55 914.75 618.7 816.75 618.5 816.75 618.8 916.5 659.45 917.5 662.15 815.05 612.95 812.75 614.55 919.75 614.65 920.1 664.75 920.5 666.25 809 665.7 808.95 611.95 807.8
M 652.8 790.3
Q 652.5 790.3 648.25 790.85
L 641.55 792.55 635.25 795.55
Q 632.95 797 631.5 798.35 629.45 800.4 628.7 801.55
L 610.25 802.1 612.8 800.05 621.4 795.6 628.9 793.3
Q 631.8 792.6 632.7 792.5
L 652.4 790.25 666.25 790.05 668.05 790.5 668.25 790.45
Q 667.3 789.9 666.25 789.75
L 664.25 789.45 652.25 789.1 632.4 790.6 624.5 792.35
Q 622.1 793.1 620.65 793.7
L 615.05 796.2 609.95 799.55
Q 608.05 801.2 606.95 802.6
L 605.65 804.35 629.55 803.25 629.8 802.8
Q 630.95 801.25 632.65 799.5
L 634.25 798.05 638 795.6 642 793.7 646.25 792.25 652.9 791.05 655.15 790.85 661.95 791
Q 662.9 791 666.45 791.5 667.25 791.55 668.65 791.95
L 675.15 793.8 681.25 796.6 683.25 797.75 690.4 803.1 692.2 804.8 667.45 805 666.95 804.25
Q 666.35 803.35 666.25 803.25
L 663.9 800.2 661.05 797.5 657.95 795.3 654.5 793.6
Q 653.4 793.15 652.15 792.85
L 652.05 793.05
Q 652.75 793.25 654.4 794
L 658.55 796.6 661.4 799.05 663.75 801.85
Q 664.4 802.6 665.2 803.95
L 666.65 806.35 696.05 806.55 694.8 805.2
Q 693.65 803.8 691.5 801.85
L 689.7 800.45 683.8 796.7
Q 683.75 796.65 681.75 795.6 680.75 795.05 679.75 794.7
L 673.25 792.3 662 790.3 652.8 790.3 Z"/>
</g>
</defs>

<g transform="matrix( 1, 0, 0, 1, 0,0) ">
<use xlink:href="#Layer1_0_FILL"/>
</g>

<g transform="matrix( 1, 0, 0, 1, 0,0) ">
<use xlink:href="#Layer0_0_MEMBER_0_MEMBER_0_MEMBER_0_FILL"/>
</g>
</svg>
