
<svg xmlns="http://www.w3.org/2000/svg" version="1.1" xmlns:xlink="http://www.w3.org/1999/xlink" preserveAspectRatio="none" x="0px" y="0px" width="1040px" height="993px" viewBox="0 0 1040 993">
<defs>
<g id="Layer0_0_FILL">
<path fill="#522810" stroke="none" d="
M 659.6 290
Q 659.4 289.65 659.05 289.4 657.1 287.55 653.85 285.85 650.65 284.4 648.1 283.7 646.1 283.1 645.15 282.9 643.15 282.4 642.15 282.25
L 636.15 281.35
Q 635.25 281.25 630.1 280.85
L 624.05 280.65
Q 620.05 280.65 618.05 280.75
L 605.95 281.8
Q 605.4 281.85 600 282.95
L 594.15 284.75 588.6 287.5
Q 585.35 289.65 583.9 291.85 583.4 292.55 583.15 293.45
L 583 294.05 583.05 295.05 583.2 295.55
Q 582.75 295.3 582.55 295.1
L 582.25 294.8 582.05 294.45
Q 581.9 294.2 581.8 293.6
L 581.75 293.15 581.75 292.95 581.8 292.65
Q 581.95 292.05 582 291.75 582.15 291.45 582.4 290.8
L 583 289.9 584.55 288.3
Q 585.1 287.8 586.3 286.9
L 588.25 285.7 595.3 279.35 595.45 279.25 595.5 279.1 600.4 270.25 602.35 267.5 606.85 262.7
Q 607.6 261.95 609.4 260.45
L 612.35 258.25 612.4 257.3 612.75 256.2 613 255.7
Q 613.15 255.35 613.65 254.75
L 614.05 254.3 615.45 253 616.45 252.3 619.1 251 619.25 247.35
Q 619.71796875 247.43671875 620.35 247.5
L 621.85 247.55 622.35 247.45 622.65 250.4 623 250.55
Q 624.35 251.15 625.7 252.1 627.1 253.2 627.9 254.3 628.9 255.55 629.2 257.05
L 629.3 257.4 629.35 257.5 629.5 257.9 630.1 258.7 638.7 266.35 640.75 268.85 642.45 271.6
Q 643 272.5 643.9 274.5 644.35 275.65 645.5 277.45
L 646.45 278.8 647.6 280
Q 649.05 281.35 650.15 282.15
L 658.15 287.9 658.25 287.7 650.4 281.8
Q 649.05 280.85 647.95 279.65
L 645.95 277.15
Q 644.8 275.15 644.45 274.25
L 641.4 268.4 639.3 265.75
Q 638.35 264.65 637 263.4 635.95 262.35 634.55 261.2
L 630.9 258 630.5 257.5 630.3 257.05 630.3 257 630.25 256.8
Q 629.85 255 628.8 253.65 627.85 252.25 626.4 251.2 625.1 250.15 623.8 249.6
L 623.55 247.2
Q 625.7146484375 246.679296875 627.45 245.35 629.4 243.85 630.65 241.65 631.3 240.4 631.9 238.2 632.05 237.75 632.15 236.85
L 632.25 235.05 632.3 235.05 631.95 231.9
Q 631.45 229.85 630.65 228.4 629.4 226.15 627.5 224.65 625.1 222.9 621.95 222.45
L 621.9 222.45 622.45 215.7 625.65 217.5 625.6 213.3 622.9 211.6 622.65 202.4 627.65 202.85 627.6 198.75 627.3 198.65
Q 624.8 198.15 622.25 197.55 622.25 193.55 622.45 190.3
L 622.45 190 618.35 188.5 618.15 195.15
Q 613.35 193.7 612.4 193.45
L 611.3 193.1 610.8 198.4 618.45 201.55 618.6 208.85 616.5 207.6 616.3 211.3 618.95 213.25 619.4 222.4 618.7 222.5
Q 617.25 222.7 615.4 223.45 613.95 224.15 612.45 225.4 611.15 226.55 610.15 228.1 609.15 229.7 608.7 231.45 608.3 233.2 608.4 235 608.55 238.45 610.6 241.65 612.55 244.5 615.6 246.15 616.8775390625 246.7533203125 617.9 247.05
L 617.8 250.1 615.7 251.1 613.55 252.75 612.5 253.8
Q 611.75 254.85 611.7 254.95
L 611.1 256.3 610.9 257.05 610.9 257.45
Q 609.95 258.05 608.4 259.25 606.55 260.75 605.8 261.5 604.15 263.1 603.3 263.9
L 599.25 268.95 594.05 278.1 587.25 284.1 585.25 285.35
Q 584.2 286.05 583.25 286.9
L 581.5 288.75
Q 581 289.3 580.75 289.85
L 580.15 291.05
Q 579.85 292.05 579.85 292.45
L 579.8 292.75 579.85 293.9
Q 580.05 294.8 580.3 295.35 580.55 295.85 580.7 296
L 581.2 296.55
Q 581.6 297.05 582.45 297.4 583.05 297.7 583.75 297.85 584.35 298.05 585.1 298.05
L 586.45 298.1 587.2 298.05 587.3 304.2
Q 587.3 304.8 587.6 305.7 587.9 306.5 588.4 307.05 589.3 308.1 590.65 308.3 590.55 341.15 590.45 347.9
L 589.45 352
Q 587.4509765625 352.4759765625 584.8 353.3 580.7 354.7 578.75 355.8 577.95 356.2 577.3 356.7 576.55 357.15 575.9 357.8 575.3 358.3 574.7 359.2 574.35 359.7 574.2 360.15 573.95 360.95 574 361.45
L 574 365.05
Q 571.55 365.85 570.25 366.35 567.5 367.25 565.7 368.05 563.7 368.85 556.85 371.95 550.6 375.25 548.4 376.6 545.2 378.55 544.3 379.2 540.8 381.5 540.3 381.9
L 532.6 387.75
Q 532 388.2 528.95 390.9
L 525.4 394.15
Q 523.3 396.05 521.95 397.55 519.65 399.8 518.6 401.05
L 506.45 416 498.6 428.15
Q 496.95 430.9 496.2 432.3 493.35 437.6 491.75 440.85 487.5 449.55 484.3 458.6
L 482.7 463.05
Q 482.15 464.35 480.55 467.25 478.45 470.9 475.6 475.45
L 475.65 475.35 464.35 486.45 464.05 486.8 464.35 487.15
Q 465.35 488.45 465.05 489.75 464.8 491 463.35 492.05
L 457.7 495.25
Q 456 496.55 455.2 497.35 453.75 498.7 452.95 499.75
L 451 502.45
Q 450.25 503.6 449.45 505.35 448.85 506.65 448.35 508.45
L 447.8 511.7
Q 447.7 513.45 448.45 515 449.05 516.45 450.3 517.75 452.15 519.75 455.6 521.55 458.3 523 461.5 524 461.25 527.55 461.2 528.35 460.85 533.5 460.45 544 459.9 556.95 459.45 575.25
L 458.8 606.5
Q 458.2 648.2 458.1 669.05
L 458.05 670.1 459.15 670.35
Q 465.65 671.95 481.25 675.55
L 514.6 682.75
Q 520.3 684 525.75 685
L 531.35 686.05
Q 536.65 687.05 536.95 687.1
L 548.15 688.95 548.35 689 548.5 689 556.15 688.3 632.3 711.8 630.8 714.9 636.8 714.6 636.75 719.5
Q 629.5568359375 717.0787109375 618.35 713.5
L 626.75 714.05 626.85 712.35
Q 616.35 711.25 605.85 710.25
L 575.5 708.2 575.15 708.15 574.1 708.2
Q 572.3 708.2 568.7 708.6
L 566.75 708.95 448.15 701.7 448.05 701.7 437.65 702.8 320.95 659.4 214.45 727.55 207 726.5 317.05 654.05 388.2 661.5 388.95 635.25 390 635.05
Q 391.1 634.85 392.35 634.45 393.85 633.95 394.6 633.6
L 395.75 633.05
Q 396.45 632.65 396.8 632.35
L 397.85 631.55 398.7 630.6 399.5 629.45
Q 399.7 629.15 400.05 628.2 400.5 627.05 400.6 625.55
L 400.55 624.25
Q 400.5 623.8 400.25 622.85
L 400 622 398.15 621.7 397.3 621.3
Q 396.45 620.8 396.05 620.1 395.65 619.4 395.55 618.35
L 395.5 618.1 395.5 617.9 395.55 617.4 395.75 616.7
Q 396 616.1 397 615.2 398.2 614.1 398.8 613.45
L 399.7 612.35 400 611.9 400.05 611.8 400.1 611.8 400.4 611.05
Q 400.45 611 400.85 609.75
L 401.3 607.4 401.3 607.75
Q 401.55 609.8 401.7 610.4
L 401.8 610.8 401.9 611 402.4 611.65 402.65 611.85 403.55 612.7
Q 405.7 614.6 406.5 616.1 407 617 407.1 618
L 407.15 618.45 407.1 619.05 406.85 619.9
Q 406.5 620.75 405.65 621.4 404.9 622 403.85 622.35
L 403.2 622.55 403.05 624.25 403.1 625.3
Q 403.3 626.7 403.5 627.4
L 404.4 629.4 405 630.3 406.5 631.85
Q 406.6 631.95 407.35 632.45
L 409.2 633.45 411.2 634.1 412.4 634.35 412.2 661.95 393.45 660.3 393.35 661.55 455.4 668.8 455.4 668.5 413.7 663 413.85 639.1 414.25 632.9 410.8 632.1 409.1 631.4 407.65 630.4 407.05 629.8 406 628.45 405.65 627.65
Q 405.45 627.1 405.35 626.85 405.15 626.05 405.05 625.15
L 405 624.25 405.05 623.95
Q 406 623.55 406.85 622.95 408.05 622 408.7 620.7
L 408.95 620 409.1 619.2 409.15 617.8
Q 409 616.4 408.3 615.15 407.35 613.3 405 611.15
L 404.1 610.35 403.9 610.1
Q 403.85 610.05 403.8 610.05
L 403.8 610 403.75 609.8
Q 403.55 608.95 403.45 607.6
L 403.8 589.4 408.55 589.4 407.65 585.7 403.65 585.7 403.65 579.25 399.7 579.25 399.8 586.25 394.45 586.5 394.3 589.85 399.45 589.85 398.85 605.6
Q 398.75 606.35 398.55 607.9
L 398.3 608.95
Q 398 609.9 397.95 609.95
L 397.75 610.4 397.75 610.45 397.7 610.5 397.65 610.6 396.85 611.6 395.1 613.2
Q 393.75 614.55 393.3 615.55 393.05 616.1 393 616.3
L 392.8 617.15 392.75 618.2 392.8 618.25 392.8 618.65
Q 392.95 620.3 393.7 621.55 394.5 622.9 395.9 623.7 396.75 624.15 397.3 624.35 397.55 624.4 397.75 624.5
L 397.8 625.45
Q 397.7 626.45 397.45 627.2
L 397.05 628.05 396.6 628.75 396.05 629.3 396.05 629.35 395.9 629.45 395.15 630.05 393.45 631 391.5 631.7
Q 390.05 632.1 389.45 632.2
L 386.1 632.65 385.3 658.15 340.4 653.4 338.1 500.75 349.7 495.05 349.45 494.45 349.9 494.25 349.3 494.15 345.75 485.3 332.95 483.05 333.4 476.65 335.8 473.25 313.5 468.55 313.2 372.5
Q 313.3095703125 372.141796875 313.4 371.75
L 313.6 370.95 313.2 370.85 313.2 369 316.4 369.25 316.6 369.25 316.75 369.15 325.95 364.4 313.1 360.85 313.1 358.85 318.25 351.3 314.6 350.5 304.65 346.85 304.85 339.3 304.25 339.1 275.95 331.7 247.45 324.85 247.15 324.8 246.9 324.9 239.25 329.05 212.05 328.45 199.4 325.8 199.25 325.75 199.05 325.85 181.2 332.95
Q 177.4708984375 334.49375 173.9 336
L 174.45 318.55 173.95 318.4
Q 171.25 317.6 170.1 315.7
L 169.8 315.2 169.4 314.1 169.35 313.65
Q 169.45 312.75 170.2 311.65 171.45 310 173.85 308.15 175.65 306.75 178.2 305.35 183.15 302.65 187.85 301.7 194.75 300.1 198.25 299.45 202.8 298.55 208.7 297.6
L 219.25 296.35
Q 220.2 296.25 224.55 296
L 243.1 295.85 256.3 296.95 271.95 299.4
Q 274.1 299.8 277.1 300.6 278.8 301.05 282.2 302 283.4 302.3 287.2 303.55
L 297.05 307.25
Q 300.75 309 301.75 309.55 302.1759765625 309.7892578125 302.55 310
L 302.8 311.05 302.9 310.2
Q 304.9052734375 311.43359375 306 312.45 308.25 314.45 308.4 316.3 308.55 318.2 306.15 320.15 305.25 320.95 301.8 322.95
L 301.5 323.1 301.75 338.2 301.95 338.2 302.3 330.8
Q 302.55 327.3 302.6 323.8 305.6 322.3 307 321.2 308.25 320.3 309.05 319.15 310 317.75 309.95 316.25 309.95 314.85 309 313.35 308.2 312.15 307.15 311.15 305.4056640625 309.5845703125 303.2 308.25
L 303.6 305.75
Q 303.65 305.55 303.6 305.3 303.6 305.2 303.55 305.05
L 302 299.05 302 298.9 301.9 298.8
Q 301.8 298.6 301.15 297.85
L 300.3 297.1
Q 300.15 296.95 298.6 295.8 297.4 295 296.8 294.7
L 294.95 293.7
Q 292.2 292.45 291.1 292.05
L 287.15 290.65
Q 285.85 290.2 283.15 289.5 281.85 289.1 279.15 288.5 277.5 288.1 271 286.9 264.4 285.9 262.85 285.75 255.5 284.95 254.6 284.9 247.7 284.25 246.4 284.2
L 238.1 283.85
Q 235.35 283.75 229.85 283.75
L 213.35 284.5
Q 209.25 284.8 205.1 285.4 196.65 286.5 188.8 288.6 185.45 289.55 182.2 290.8 182.95 289.95 183.7 289.15 186 286.55 187.6 284.55 188.95 282.6 189.35 281.95
L 190.6 279
Q 191.2 277.25 194 267.55
L 200.9 248.2 202.1 245.55
Q 203.15 243.4 204.8 240.35
L 206.25 237.85
Q 206.4 237.5 207.75 235.4
L 218 220.95
Q 220.1 218.2 221.25 216.75
L 224.9 215.85
Q 227 215.4 229.1 215.1
L 235.45 214.25 243.95 214.1 246.05 214.3
Q 246.75 214.3 248.1 214.55
L 250.15 215
Q 251.75 215.35 252.15 215.55
L 253.75 216.15 266 232.65
Q 266.7 233.95 268.15 236.4
L 270.25 240.3
Q 272.05 243.65 272.3 244.2
L 287.3 276.5
Q 287.95 277.85 289.15 280.55
L 293.4 288.45 296 292.1
Q 296.5 292.7 299.2 295.25
L 299.4 295.05 296.4 291.8 294 288.1
Q 292.65 285.45 291.95 284.15
L 290.1 280.15
Q 289.95 279.75 288.45 276
L 274.35 243.2 268.05 231.3 268.05 231.25 268 231.2 255.8 214.1 255.55 213.8 255.4 213.75 255.75 188.55
Q 255.65 187.4 255.1 186.45 254.1 184.9 251.75 183.95 250.45 183.5 249.75 183.25
L 243.65 182.25
Q 242.25 182.1 239.6 182
L 231.35 182.4
Q 230.8 182.45 227.25 183.2 226.7 183.3 225.25 183.8
L 223.3 184.55
Q 222.934765625 184.7482421875 222.65 184.9 222.809765625 182.13828125 222.85 179.4 223.1 174.8 223.15 172.55
L 223.15 171.8 221.3 171.7 221.75 169.65 221.35 169.3
Q 219.5 167.35 217.85 165.1 216 162.45 215 160.4 213.75 158.05 213 155.4
L 212.45 152.8
Q 212.4 152.4 212.25 150.2
L 212.4 148.25 212.4 147.95 213.05 145
Q 213.75 142.7 215.05 140.05 216.15 137.95 217.95 135.4 219.8 132.8 221.3 130.95 222.75 129.15 224.95 126.75 226.2 125.35 228.8 122.65
L 230.8 120.6 231.7 119.4
Q 232.1 118.85 232.45 118.1 233.6 115.75 234.25 112.6 235.35 107.9 235.85 101.35 236.3 95.7 236.45 90.05
L 236.45 89.85 236.25 89.65 235.6 88.7 235.2 87.65
Q 235.05 87.3 235.05 86.65 235.05 86.1 235.25 85.7 235.5 85.35 235.55 85.3
L 235.9 84.9 236.1 84.75 236.15 84.7 236.8 84.3 237.25 84.1 237.7 84
Q 238.0162109375 83.968359375 238.3 83.95 238.9458984375 84.125390625 239.55 84.6 239.6 84.65 240.8 85.7
L 241.15 86
Q 241.2625 86.0779296875 241.35 86.15 241.473046875 86.380078125 241.5 86.65 241.65 87.15 241.6 87.45 241.4 88.3 241.3 88.35
L 241.1 88.65 240.8 88.95 240.5 89.15 240.25 89.25 239.3 90.25
Q 238.9 93.1 238.85 95.9 238.7 98.45 238.8 101.6 238.9 104.45 239.25 107.3
L 240.05 111.6 240.45 113
Q 240.55 113.3 241.45 115.8 241.6 116.25 242.1 117.15
L 242.8 118.5 244.1 120.25 250.35 127.1
Q 252.5 129.4 254 131.25 255.65 133.1 257.3 135.5 258.9 137.9 259.95 140.15
L 260.9 142.6
Q 261.2 143.4 261.6 145.1 261.8 145.95 262 147.7
L 262.1 150.3
Q 262.05 151.2 261.95 153.05 261.8 153.9 261.5 155.65 260.95 158.3 259.85 160.7 258.85 163.1 257.2 165.35 255.6 167.65 253.6 169.3
L 253.2 169.6 253.75 172.75 252 172.65 252.25 183.75 252.55 183.75
Q 252.7 182.1 253.15 174.05
L 255.3 174.3 254.9 170.35
Q 256.85 168.9 258.75 166.55 260.75 164 261.9 161.7 263.3 159 263.95 156.2 264.25 155.3 264.55 153.3
L 264.85 147.5
Q 264.65 145.5 264.45 144.55 263.95 142.25 263.75 141.7
L 262.7 138.9
Q 261.8 136.75 259.9 133.75 258.25 131.25 256.45 129.15 255.3 127.75 252.7 124.95
L 246.1 117.85 244.75 115.75
Q 244.3 115 244.15 114.6 243.3 112.4 243.25 112.15
L 242.05 106.9
Q 241.75 105.05 241.45 101.45 241.3 98.75 241.3 96 241.4 92.95 241.5 91.2 241.5 91.15 241.55 91.15 242.05 90.85 242.25 90.6 242.6 90.4 242.85 89.95
L 243.3 89.2 243.55 88.45 243.6 88.1 243.7 87.8 243.7 87.65
Q 243.75 87 243.45 86 243.433203125 85.953125 243.4 85.9 244.4318359375 85.0462890625 245 83.2 245.1 82.9 245.4 80.85
L 245.35 76.85
Q 245.15 75.55 244.8 74.6 244.15 72.9 243.1 71.85 242.27734375 70.96640625 241.1 70.5
L 241.45 57.65 245.6 55.8 245.9 55.7 245.95 55.3 246.1 47.45 242.15 49.05 242.55 36.6
Q 242.8 28.9 242.9 24.45
L 258.85 30.25 258.8 23.25 242.3 16.7 242.4 13.6 246.05 14.95 247.05 8.8 242.3 7.35 242.55 1.3 236.7 0 236.75 4.95 231.95 4.3 232 9.2 236.9 11.4 236.9 16 219.65 10.55 219.55 16 228.45 19.35
Q 232.2 20.8 236.4 22.3
L 236.5 52.75 231.7 56.1 231.8 62.1 236.8 59.7 237.05 70.3
Q 235.9693359375 70.6537109375 235.15 71.2 233.25 72.5 232.3 74.85 231.9 75.8 231.75 77.15 231.65 78.5 231.85 79.45 232.1 81.35 233.25 83.65
L 233.8 84.6 234.05 84.9 233.95 85.1
Q 233.6 85.75 233.6 86.6 233.7 87.65 233.9 88.1 234.1 88.7 234.5 89.35 234.85 89.9 235.2 90.3 235.35 95.55 234.95 101.3 234.7 104.2 234.35 106.9 233.75 110.6 233.3 112.4 232.3 115.8 231.35 117.55
L 230.65 118.65 229.75 119.65 227.7 121.5
Q 224.2 124.75 223.55 125.4
L 219.6 129.5
Q 217.45 131.85 215.9 133.9 213.9 136.6 212.7 138.8 211.2 141.6 210.45 144.25
L 209.75 147.95 209.7 148.7
Q 209.7 149.2 209.65 150.2 209.75 152.5 209.95 153.2
L 210.6 156.1
Q 211.45 158.85 212.95 161.5 214.25 164 216.2 166.35 218.1 168.7 219.8 170.35
L 219.3 173.35 221.65 173.3 222.2 185.15
Q 221.4927734375 185.5380859375 221.4 185.6 220.2 186.35 219.6 187.05
L 219.4 187.25 220.15 213.7 219.4 213.9 206.75 231.1 202 238.85
Q 199.65 243.5 199.35 244.25
L 195.85 252.55 192.95 261.05
Q 192.05 263.9 191.3 266.75 190.75 268.65 189.7 272.5 188.75 275.9 188 278.1
L 187 280.6
Q 186.7 281.15 185.45 282.95 184.3 284.45 181.8 287.45 178.7 291 175.4 294.35
L 175.2 294.45
Q 174.2 295.3 173.7 296 173.6 296.15 173.5 296.3
L 169.2 303.7 175.4 297.7
Q 176.4 296.75 177.35 295.8 177.75 295.55 178.25 295.2 179 294.75 181.75 293.35 185.45 291.75 189.4 290.55 196.8 288.35 205.35 287 208.95 286.4 213.45 285.9 216.3 285.6 221.65 285.2 227.15 284.9 229.85 284.85 234.45 284.75 238.1 284.9 242.15 285 246.3 285.2 249.05 285.3 254.55 285.8 257.35 286 262.7 286.7 263.2 286.75 266.8 287.25
L 270.85 287.9
Q 277.25 289.25 278.85 289.65 281.4 290.2 282.8 290.7 285.8 291.6 286.7 291.95
L 290.55 293.4
Q 291.8 293.9 294.2 295.1
L 295.95 296.1 299.15 298.4 299.85 299.1 300.3 299.7 300.8 301.9
Q 300.45 301.65 300.05 301.45 299 300.8 295.8 299.35
L 282.4 295.4 277.9 294.5
Q 276.05 294.05 273.35 293.65 270.3 293.2 268.75 292.95
L 250.4 291.1
Q 249.4 291 241.2 290.75
L 231.95 290.75
Q 225.15 290.85 222.7 291.1
L 213.5 291.9
Q 206 292.9 204.4 293.15 203.9 293.25 195.3 294.8
L 181.95 298.55
Q 177.9 300.25 177.65 300.35 172.8 302.5 169.8 305.25 167.8 306.95 166.95 308.95 166.35 310.25 166.85 311.4 167.1521484375 312.193359375 167.95 312.7 167.829296875 313.209765625 167.8 313.65
L 168.15 315.2 168.85 316.55
Q 169.7 317.7 171 318.5 172.15 319.2 173.2 319.5
L 173.7 336.1
Q 168.4765625 338.326171875 163.6 340.5
L 163.15 340.7 162.95 349.45
Q 162.1259765625 349.7837890625 161.35 350.05
L 153.85 352.85 153.8 356.4 163.05 359.05 164.4 371.95 157.6 373.95 157.55 375.5 157.65 376 157.85 376.45 158.3 377.2 159.35 378.4
Q 160.25 379.25 161.5 380.25
L 161.7 398.55
Q 161.85 406.8 162.25 417.15
L 163.05 435.8
Q 163.3 442.05 163.5 454.45
L 163.65 457.5 163.45 459.75 163.05 461.2 162.75 461.85
Q 162.55 462.35 162.1 463.3
L 161.85 464.1
Q 161.7 464.85 161.7 464.95 161.6 465.35 161.7 465.8 161.7 465.9361328125 161.7 466.05
L 137.2 473.55 139.6 487.35 125.2 492 134.7 498.55 137.45 655.6 131.15 659.45 131.1 659.8 131.1 663.25 131.15 663.35 132.8 667.7 113.4 671.15 113.35 686.9 78.55 707.8
Q 71.6 711.95 66.8 714.95
L 66.45 715.15 66.55 720.05 69.95 720 71 741.15 69.4 741.05 68.95 740.4 67.85 740.95 67.45 740.9 67.55 741.05 6.25 768.4 6.2 768.85 5.2 792.3 0 792.35 0 799.35 3.15 799.1 6.45 927.3 2.85 927.3 2.9 945.15 77.1 947.65 77.15 948.3 129.85 943.55 232.4 944.2 228.05 948 227.85 948.15 227.8 977 446.1 991.7 445.8 991.6 446.45 991.8 448.1 992.05 462.75 993
Q 464.1 993.05 471.1 993.2
L 512.85 993.15 579.65 991.45 613 989.5
Q 615.75 989.25 621.3 988.8
L 629.6 987.9
Q 632.4 987.55 637.9 986.9
L 646.15 985.65
Q 649.6 985.2 654.4 984.25 657.15 983.7 662.6 982.6 663.95 982.35 666.65 981.65
L 670.7 980.6
Q 674.1 979.75 674.75 979.5
L 686.6 975.35
Q 688.25 974.75 694.15 971.8 698.6 969.2 701.05 967.05 701.25 966.9 702.55 965.6 703.75 964.3 703.9 964 704.5177734375 963.0734375 704.8 962.6
L 704.8 962.9 729.95 962.4
Q 731.567578125 962.4517578125 733.35 962.5
L 805.75 965.15 805.75 965.4 853.6 966.95 853.6 967.2 899.8 968.65
Q 914.1 968.8 927.6 967.2 935.15 966.3 941.4 965 949.65 963.2 954.85 960.8 958.8 959 960.95 956.8 962.45 955.2 963.1 953.6
L 963.5 952.2 963.5 952.1 963.7 949.95 963.5 938.15 963.6 938.1 963.5 937.75 963.5 937.6 963.1 935.7 961.95 932.4
Q 961.7578125 931.8232421875 961.6 931.35 961.4740234375 930.9068359375 961.35 930.55 961.1755859375 929.758984375 961.15 929.35 961.05 924.7 961 922.4
L 959.95 853.05
Q 959.7 834.55 959.45 825.3
L 958.3 773.65 989.25 775.65
Q 994.5 776.1 1005 776.8
L 1018.7 777.7 1015.35 781.6 973.7 778.55
Q 969 778.25 966.65 778.15
L 959.6 777.8 959.6 778 1014.8 783.65
Q 1014.909765625 790.3421875 1015.05 793.8 1015.1884765625 798.96640625 1015.45 804
L 982.8 805.35 965.75 821.25 1005.65 821 1005.8 820.9 1006.4 820.4 1014.95 824.1 1015.25 864.5
Q 1015.25 878.1 1015.3 905.35
L 1015.3 905.4 1015.35 905.45
Q 1015.85 907.1 1014.9 908.7 1014.8 908.95 1014.45 909.4 1014.1 909.9 1013.9 910.05
L 1013.25 910.65
Q 1013.15 910.75 1012.55 911.25
L 1009.45 913
Q 1009.25 913.15 1007.8 913.65
L 1004.5 914.75 1005.6 823.55 978.6 823.6 979.2 916.95 962.85 917.25 962.8 918.35 977.4 918.45
Q 978.6 918.4 981.05 918.35
L 984.7 918.15
Q 987.75 918 988.35 917.95
L 991.95 917.6
Q 993.2 917.55 995.6 917.15 998.6 916.8 999.2 916.65
L 1006.35 914.95 1008.05 914.3
Q 1008.6 914.05 1009.75 913.6
L 1011.4 912.8
Q 1011.65 912.7 1012.95 911.75 1013.25 911.6 1013.7 911.15
L 1014.35 910.5
Q 1014.45 910.45 1014.95 909.8
L 1015.5 909
Q 1016.5 907.2 1015.95 905.35 1016 878.1 1016 864.5
L 1016.3 823.25 1011.65 821.2 1040.3 820.4 1021.65 803.75 1015.75 804
Q 1016.0447265625 800.373046875 1016.4 793.8 1016.59921875 790.21484375 1016.8 783.15
L 1027.95 770.15 1009.85 762.8
Q 1003.75 760.4 1001.45 759.4
L 984.95 751.65
Q 982.85 750.65 976.65 748
L 959.9 741.55 959.8 728.8 957.5 728.8 957.85 742.45 958.05 742.45 957.85 729.2 959.4 729.2 959.25 748.25 955.95 747.8
Q 953.45 747.55 952.2 747.4
L 918.75 745.15
Q 915.6544921875 744.969921875 912.85 744.85
L 899.2 744.1
Q 897.9162109375 744.0455078125 896.8 744
L 859.8 742.45 859.95 722.65 873.35 722.8 873.9 742.5 885.35 742.5 884.8 722.85 912.75 724.4 960.7 728.25 961.8 731.25 962.25 731.15
Q 968 729.6 972.75 727.75 976 726.4 977.7 725.2 978.4 724.7 978.8 724.15 979.1 723.45 979.1 723.3
L 979.1 722.75 979.05 722.7 979 722.5
Q 978.7 721.65 977.95 721.25 977.5 721 976.6 720.7 974.55 720.1 971.15 719.7 969.25 719.45 965.65 719.15
L 954.7 718.4
Q 947.35 717.95 932.75 717.25
L 866.85 714.1 822.9 713.15 800.9 713.3 756.9 714.6 691.05 718.7 669.15 720.5
Q 651.2 722.25 647.35 722.65
L 645.1 722.25
Q 641.7390625 721.15859375 637.65 719.8 637.3705078125 719.70546875 637.05 719.6
L 637 714.6 743.85 709.4
Q 751.2 709 765.95 708.55
L 832.3 706.15 854.4 705.85
Q 858.1 705.85 865.5 705.7 872 705.65 876.55 705.85
L 898.65 706.4
Q 900.5 706.5 904.15 706.6
L 926.2 708.2
Q 930.75 708.55 931.7 708.7
L 964.55 713.3
Q 978.35 716.1 985.9 718.65
L 987.5 719.2 986.6 717.85
Q 985.6 716.4 983.95 715 982.95 714.05 980.95 712.75
L 974.4 709.25
Q 969.35 706.7 962 701.4
L 913.9 667.05
Q 905.8 661.45 901.65 658.75
L 889.2 650.75 863.9 635.45
Q 855.2 630.65 850.65 628.6
L 836.95 622.85
Q 833.25 621.4 829.95 620.35 825.25 618.75 822.9 618.1 817.85 616.65 815.7 616.1
L 808.5 614.35
Q 802.95 613.1 793.9 611.6 791.15 611.15 788.6 610.85
L 787.75 517.8 788.1 517.8 793.9 516.6
Q 795.9 515.95 796.65 515.6 797.95 515.1 799.3 514.3
L 801.75 512.6 802.85 511.5
Q 803.2 511.15 803.8 510.3 803.9 510.2 804.55 508.85
L 804.75 508.5 805.05 507.45
Q 805.45 506 805.3 504.35 805.1 501.6 802.95 498.7 801.25 496.55 798.65 494.6 796.3 492.9 793.65 491.55
L 788.9 489.45
Q 788.4 486.6 787.25 484.3 785.9 481.6 783.95 479.35 780 474.85 774.85 472.1 774.3361328125 471.8158203125 773.85 471.5
L 769.2 466.9
Q 768.3951171875 465.734375 767.75 464.35
L 765.75 459.1
Q 764.2 454.75 763.75 453.75
L 761.55 448.45
Q 759.95 445 759.15 443.25 758.45 441.7 754 433.05
L 751.15 428.1
Q 749.15 424.85 748.15 423.2
L 745 418.45
Q 742.1 414.35 741.65 413.8 739.05 410.3 738.15 409.25
L 734.55 404.8 722.6 392.4 713.9 384.95
Q 710 382 709.35 381.5 706 379.1 704.6 378.2
L 699.8 375.1
Q 694.85 372.1 689.75 369.55 684.3 366.85 679.2 364.95 673.7 362.9 669.35 361.85
L 669.3 361.1 669.05 360.1
Q 669 359.8 668.7 359.2
L 668.3 358.35 667.7 357.55
Q 667.45 357.2 666.55 356.3
L 666 355.75 665.9 355.7 665.15 355.15
Q 664.1 354.45 663.7 354.25 662.35 353.5 660.7 352.85 658.65 352 654.55 350.8
L 653.6 350.6 653.15 299.8 652.55 299.6 653.75 299.1
Q 657.35 297.55 659.2 295.85 660.85 294.3 660.95 292.6
L 660.95 292.35 660.9 292.3 660.9 292.2 660.65 291.5 660.4 291 659.6 290
M 652 290.25
L 650.8 289.45
Q 648.65 288.15 645.65 287.2 645.45 287.15 643 286.45
L 640.3 285.85
Q 638.5 285.55 637.65 285.4 636.35 285.2 634.9 285.1
L 624.1 284.5
Q 618.9 284.45 613.25 284.9 607.6 285.35 602.5 286.45 596.35 287.85 592.1 289.8 590.95 290.35 589.65 291.15 588.05 292.3 587.5 293.15
L 587.3 293.55 587.15 294.05 587.15 294.2 587.1 294.2 587.1 294.45 587.15 294.8 587.15 296.3 586.65 296.1
Q 586.05 295.9 585.7 295.55 585.25 295.25 585.1 294.8
L 585 294.5 585 294.15 585.05 294
Q 585.25 293.5 585.6 292.95 586.9 291 589.7 289.25 590.5 288.7 592.2 287.8
L 597.65 285.7 600.5 284.95
Q 604.85 284.05 606.3 283.85
L 618.1 282.85
Q 620.05 282.75 624.05 282.75
L 630 282.95
Q 631.95 283.15 635.9 283.45
L 641.75 284.3
Q 641.95 284.35 644.65 284.9
L 647.5 285.65
Q 650.15 286.4 652.95 287.7 656.05 289.25 657.65 290.8 658.8 291.9 658.95 292.55 658.95 293.4 657.85 294.4 656.55 295.6 654.5 296.65
L 654.7 294.25 654.75 294.15 654.7 294.1
Q 654.65 293.8 654.45 293.15
L 653.6 291.8 653.1 291.25
Q 652.35 290.6 652 290.25
M 649.8 291.05
L 650.8 291.75
Q 651.55 292.4 651.7 292.55
L 652.45 293.45 652.7 293.9
Q 652.75 294.05 652.8 294.2
L 652.8 294.25 652.35 299.55 648.15 298.15 647.95 298.3
Q 647.15 298.7 646.75 299.85 646.5 300.6 646.4 301.55
L 646.35 302 646.4 302.5 646.45 302.6 646.75 349.05 646.95 349.05 647.55 301.65
Q 647.6 300.95 647.85 300.25 648.05 299.75 648.35 299.5
L 651.9 300.7 651.95 350.3 641.85 348.5 640.75 348.2 639 345.25 638.65 322.75
Q 638.2 300.15 638.2 300
L 638.2 299.9 637.85 297.5 637.35 297.45
Q 636.1 297.15 635.35 297.1
L 633.3 296.85
Q 631.35 296.7 629.35 296.7 624.95 296.6 621.4 296.75 613.55 296.95 605.55 297.65
L 604.3 297.75 604.75 298.15
Q 603.845703125 298.2234375 602.25 298.35 599.75 298.65 598.6 298.9 596.8 299.2 594.95 299.65 592.6 300.3 591.3 300.9 590.3 301.3 589.55 301.95
L 589.1 302.35 588.7 302.9
Q 588.559765625 303.1279296875 588.5 303.35
L 588.45 297.95 591.2 297.75 588.4 296.75 588.4 294.2 588.5 294.05 588.6 293.85
Q 589.1 293.1 590.4 292.25 591.1 291.8 592.7 291 596.85 289.1 602.8 287.9 607.1 287 613.35 286.45 618.95 286.05 624.05 286.2
L 640 287.65 645.1 288.95
Q 647.95 289.9 649.8 291.05
M 659.7 355.25
Q 661.4 355.95 662.45 356.55 662.9 356.75 663.7 357.3
L 664.2 357.7 664.3 357.75 664.7 358.15
Q 665.55 359 665.65 359.25
L 666.05 359.75 666.55 360.85 666.7 361.95 666.65 362.2 666.65 362.35 667.6 364.1
Q 671.75 365.05 678.25 367.45 683.25 369.4 688.55 371.95 693.3 374.3 698.4 377.4
L 703.15 380.4
Q 703.5 380.65 707.75 383.6 709.3 384.7 712.25 387
L 720.85 394.3 732.55 406.5
Q 733.1 407.15 736.15 410.8
L 739.6 415.3
Q 739.95 415.75 742.9 419.9
L 751.85 434.25
Q 752.75 435.95 754.5 439.25 756.05 442.15 757 444.3 757.75 446 759.35 449.4
L 761.6 454.6
Q 762.35 456.35 763.65 459.9
L 765.55 464.9
Q 758.5529296875 462.7447265625 751.6 461.05 743.1 458.9 735.3 457.35 733.85 457.05 727.1 455.8 720.25 454.55 718.85 454.35
L 702.35 451.9
Q 699.1 451.45 694.05 450.9 686.75 450.1 685.75 450 680.2 449.45 669.1 448.65 658 448.05 652.45 447.85 641.3 447.6 635.75 447.55
L 619.05 447.75 585.7 449.7
Q 584 449.8 569.1 451.15 565.1 451.5 552.5 452.95 551.15 453.1 544.25 454.1 538.7 454.9 536 455.4
L 503.35 462.3 503.4 462.5 536.15 456.35
Q 538.85 455.85 544.4 455.2 549 454.55 552.65 454.2 567.2 452.75 569.2 452.6 574.75 452.2 585.8 451.35
L 619.1 449.75
Q 624.65 449.65 635.7 449.6
L 652.35 449.9
Q 657.9 450.15 669 450.75
L 677.25 451.4
Q 684.05 451.9 685.55 452.05 688.3 452.35 693.85 452.9 698.75 453.4 702.1 453.9
L 718.55 456.2
Q 721.55 456.65 726.75 457.6 734.55 459 734.95 459.1 743.5 460.75 751.2 462.6 759.41015625 464.545703125 766.4 466.55 767.7525390625 469.0064453125 769.65 470.85
L 765.8 469.6
Q 765.15 469.35 761.15 468.2 758.1 467.3 756.55 466.95
L 747.15 465
Q 740.8 464.05 737.65 463.55 733.2 462.85 718.6 461.35
L 699.5 459.8 651.7 457.25
Q 645.3 456.95 642.1 456.9
L 632.55 456.7
Q 626.15 456.55 622.95 456.6
L 613.35 456.75
Q 605.35 456.9 603.75 456.95
L 584.6 457.95
Q 566.95 459.5 565.5 459.65 559.15 460.35 556 460.7
L 546.5 462
Q 542.3 462.55 537 463.45 530.7 464.45 527.55 465.05
L 499.45 471.15 490.2 473.65
Q 480.4375 476.529296875 473.45 479.05
L 476.45 476.15 476.5 476.15 476.55 476.1
Q 479.5 471.55 481.65 467.9 483.25 465.1 483.9 463.6
L 484.4 462.5 485.6 459.1
Q 488.95 449.9 493.15 441.55 494.95 437.9 497.6 433.1
L 507.9 417.05 516.8 405.85 523.3 398.9
Q 524.35 397.8 526.75 395.6
L 530.25 392.4
Q 531.45 391.4 533.9 389.35 536.95 386.95 537.65 386.4
L 545.45 381
Q 546.45 380.3 549.5 378.5 551.4 377.35 557.85 374 563.9 371.2 566.55 370.15 568.35 369.4 571 368.5 572.5 367.95 575.5 366.95
L 576.3 366.7 576.3 361.15 576.65 360.45
Q 577.35 359.6 577.5 359.5 577.7 359.3 578.6 358.6
L 579.85 357.85
Q 581.85 356.75 585.5 355.55 589 354.5 591.5 353.95 593.7 353.45 597.7 352.8 599 352.55 603.9 351.95 606 351.65 610.2 351.25
L 619.65 350.55
Q 620.65 350.45 622.75 350.4 624.9 350.3 629.05 350.3 630.1 350.25 632.2 350.35 633.8 350.35 635.35 350.5 637.5 350.6 641.55 351
L 647.75 351.9 653.85 353.3
Q 657.35 354.25 659.7 355.25
M 756.3 467.95
Q 757.85 468.3 760.85 469.25 762.4 469.75 765.4 470.7
L 772.3 473.05
Q 773.0203125 473.5240234375 773.8 473.95 778.65 476.5 782.4 480.7 784.3 482.9 785.45 485.15 786.55 487.45 787.05 490.25
L 787.1 490.9 787.7 491.05
Q 789 491.5 790.25 492.1
L 792.8 493.25
Q 795.35 494.6 797.55 496.1 800.15 498.05 801.5 499.8 803.35 502.15 803.55 504.5 803.7 505.9 803.35 507
L 803.05 508 802.9 508.3
Q 802.6 509 802.35 509.35
L 801.55 510.4 800.6 511.3 798.45 512.9
Q 796.3 514 796 514.1
L 793.4 515.05
Q 792.5 515.35 790.7 515.75
L 788.85 516.15 788.8 514.05
Q 788.85 513.8 788.7 513 788.4 510.95 787.5 509.05 785.95 505.5 782.3 502.85
L 778.75 500.85 767.5 497.25
Q 753.25 493.2 737.05 490.05 723.35 487.3 706.15 485.15 694.35 483.8 690.6 483.5
L 671.1 482.05
Q 668.75 481.9 667.2 481.85
L 659.35 481.55
Q 652.85 481.3 651.55 481.3
L 643.75 481.2
Q 637.25 481.1 635.9 481.1
L 612.45 481.4
Q 597.5 481.6 581.2 482.4 565.6 483.15 550 484.5 533.3 486.05 518.9 488.25 500.75 491.15 488.3 495 479.6 497.8 473.75 501.05 469.75 503.3 467.25 505.75 465.95 506.95 464.6 508.85 463.3 510.85 462.85 512.65
L 462.6 513.7 461.75 520.5
Q 461.6 522.3 461.55 523.7 458.45 522.7 455.75 521.2 452.65 519.5 450.65 517.4 449.4 515.95 448.9 514.8 448.25 513.25 448.4 511.75
L 448.95 508.6
Q 449.45 506.95 450.05 505.6 450.85 503.9 451.6 502.85
L 453.5 500.25 455.7 497.95
Q 456.7 497 458.2 495.95
L 463.85 492.8
Q 465.65 491.4 465.95 489.95 466.2 488.95 465.9 488.15 465.7 487.45 465.4 486.9
L 473.05 479.45
Q 480.394140625 476.920703125 490.35 474.35 499.2 472.05 509 469.95
L 527.8 466.4
Q 530.9 465.85 537.25 464.9
L 556.15 462.35
Q 559.35 461.95 565.7 461.35 568.8 461 584.75 459.75
L 603.85 458.7
Q 603.9 458.7 613.4 458.4
L 622.95 458.2
Q 624 458.15 632.5 458.15
L 642.1 458.2
Q 644.2 458.15 651.65 458.4
L 680.35 459.3
Q 683.65 459.45 699.45 460.45
L 709 461.1
Q 712.05 461.35 718.55 462.05 721.75 462.4 728.05 463.05 733.6 463.65 737.5 464.35 745.5 465.6 746.95 465.9
L 756.3 467.95
M 651.55 482.2
Q 652.85 482.2 659.35 482.45
L 667.15 482.75
Q 669.75 482.85 674.95 483.25
L 690.5 484.5
Q 695.55 484.9 706.05 486.2 723.8 488.55 736.85 491.15 752.6 494.25 767.15 498.55 771.75 499.9 774.6 500.9
L 776.45 501.5 779.9 503 781.45 504
Q 784.75 506.45 786.15 509.7 786.9 511.3 787.2 513.2
L 787.3 514.05 787.3 517.8 787.35 517.8 786.5 610.05 779.1 610 779.05 612.2
Q 785.85 612.7 793.55 613.9 801.6 615.25 807.95 616.7
L 815.1 618.5
Q 817.2 619 822.15 620.5 824.75 621.2 829.15 622.75 830.15 623.05 836.05 625.25
L 849.55 631
Q 853.7 632.95 862.5 637.8
L 875.25 645.25
Q 878.5 647.15 887.85 652.95
L 900.3 660.85
Q 904.45 663.45 912.65 668.9 914.3 670 924.85 677.15
L 961.2 702.55
Q 968.75 707.85 973.85 710.3
L 977.15 712
Q 979.5 713.25 980.3 713.75 982 714.8 983.25 715.85 983.95 716.45 984.5 717 983.1 716.6 980.95 716
L 964.75 712.35 931.8 707.7
Q 930.85 707.55 926.3 707.2
L 904.2 705.55
Q 903 705.4 898.7 705.3
L 876.55 704.45
Q 872.05 704.2 865.5 704.2 858.1 704.25 854.4 704.2
L 810.15 704.75 765.9 705.9
Q 751.25 706.3 743.75 706.6
L 635.85 711.7
Q 636.4 710.55 637.15 709.15
L 645.4 695.05 653.55 684.25
Q 655.05 682.6 655.4 682.3 656.65 681 657.3 680.45
L 663.05 675.55 627.85 679.15
Q 628.015234375 679.055078125 628.2 678.95 630.8 677.4 634.95 674.75 637.7 673 641.5 670.35 643.1 669.3 647.95 665.8
L 654.3 661.15
Q 655.5 660.25 660.6 656.4
L 666.8 651.5 684.65 636.05
Q 685.7 635.25 687.7 633.6 689.5 632.2 690.8 631.3
L 693.95 629.05 703.95 623.1
Q 704.55 622.8 710.9 619.6 713.25 618.45 718.05 616.4
L 720.15 615.5 720.2 615.45 720.5 615.3 720.55 615.3 720.7 615.15 720.9 615 721.35 614.4 737.05 612.05 763.95 612 765.1 611.7 763.85 573.85 764.95 573.3 765.2 573.15 766.35 567.65 765.65 551.55 766 550.4 765.6 550.3 765.5 548.8
Q 765.4 544.9 764.5 539.45 763.65 534.5 762.15 530.3
L 760.4 525.9
Q 759.25 523.4 758.2 521.75
L 756.85 519.8
Q 756.65 519.5 755.35 517.95
L 751.85 514.75
Q 749.7 513.25 747.75 512.45 746.15 511.8 745.5 511.65 744 511.25 743.2 511.15 742 510.9 740.85 510.85
L 738.5 510.85
Q 737.7 510.9 737.3 510.9 736.6 510.9 736.15 511
L 733.8 511.3 733.85 511.6 736.2 511.3
Q 736.95 511.2 738.5 511.2 739 511.15 740.85 511.25 741.55 511.25 743.15 511.55 744.15 511.7 745.4 512.1 745.95 512.2 747.55 512.9 749.25 513.55 751.55 515.2 752.55 515.95 753.3 516.7 754.75 518.15 754.9 518.35 756.2 519.9 756.35 520.15
L 757.65 522.1
Q 758.65 523.75 759.8 526.2 760.15 526.9 760.7 528.35
L 761.45 530.55
Q 762.8 534.65 763.65 539.6 764.4 544.8 764.55 548.85
L 764.6 550
Q 762.2 549.3 761.8 549.2
L 753.1 547.55
Q 747.85 546.75 741.5 546 730 544.6 718.3 543.6
L 717.1 543.5
Q 717.7064453125 537.7080078125 719 532.4 720.7 525.7 723.55 520.65 726.9 514.55 731.8 511.55 737.05 508.25 743.65 509.2
L 746.7 509.85 749.55 510.95
Q 752.2 512.25 754.65 514.45 758.9 518.45 761.5 524.85 763.75 530.1 765 537 766.15 543.3 766.35 549.65
L 766.35 550.2 775.15 551.05 775.15 550.4
Q 775.15 546.35 774.85 542.35 774.4 537.7 773.85 534.35 772.5 525.9 769.65 518.75 768.05 514.75 766 511.5 763.8 507.9 760.9 505.2 758.05 502.4 754.25 500.55 750.75 498.95 746.4 498.3 742.4 497.75 738.35 498.3 734.35 498.75 730.55 500.45 723.45 503.55 718.15 510.6 713.5 516.6 710.75 524.85 708.05 532.9 707.9 540.6
L 708.1 540.6
Q 708.3 533.1 711.05 524.95 713.85 516.95 718.5 510.9 723.75 504.1 730.8 501.05 734.55 499.45 738.45 499 742.2 498.55 746.35 499.1 750.6 499.75 753.85 501.35 757.4 503.1 760.25 505.85 762.8 508.2 765.2 512.05 767.3 515.55 768.75 519.1 771.45 526.1 772.8 534.5 773.4 538.55 773.7 542.4 773.95 546.3 773.95 549.75
L 767.55 549.1
Q 767.25 542.55 766.25 536.8 765.05 529.9 762.75 524.3 760 517.65 755.6 513.45 753.15 511.1 750.15 509.65 749.2 509.15 748.65 509
L 745.5 508.05 743.85 507.75
Q 740.55 507.2 737.2 507.85 733.8 508.5 731 510.25 725.8 513.5 722.15 519.9 719.2 525.1 717.4 532 715.95 537.9 715.4 543.95
L 670.8 541.55
Q 667 541.45 665.15 541.4
L 625.35 541.45 602.65 542 545.95 545.6
Q 545.4 545.65 544.85 545.7 544.9 541.6 544.45 537.1 544.1 532.95 543.15 528.5 541.1 518.9 537.2 512.2 534.95 508.35 531.85 505.3 528.5 502.2 524.5 500.55 520.25 498.85 515.95 498.7 514.45 498.75 513.75 498.7
L 509.4 499.1 507.25 499.55
Q 502.55 500.7 499.2 502.9 495.55 505.15 492.55 508.55 489.9 511.65 487.65 515.7 485.9 518.7 484.1 523.6 482.7 527.4 481.65 531.9 480.65 536.3 480.05 540.35 479.45 544.75 479.15 548.95 478.85 553.6 478.9 557.6
L 478.9 557.75 486.8 555.45 486.75 555.3 479.15 557.4
Q 479.15 553.85 479.5 549 479.95 544 480.5 540.45 481.2 535.95 482.2 532 483.15 528 484.7 523.8 486.4 519.25 488.25 516.05 490.5 512.1 493.15 509.05 496.1 505.8 499.65 503.65 502.8 501.6 507.45 500.5
L 509.55 500.05 513.8 499.7
Q 514.5 499.75 515.9 499.75 519.95 499.8 524.1 501.5 527.95 503.15 531.05 506.15 533.9 508.8 536.2 512.8 540.05 519.45 541.9 528.8 542.75 532.7 543.15 537.25 543.5 541.6 543.5 545.2
L 534.1 546.6 533.35 538.55 529.95 539.3 529.95 537.1 492.05 544.35
Q 492.25 541.5 492.9 538.3 493.85 533.4 495.95 528.65 497.95 523.85 501.1 520.05 504.7 515.8 509.05 514.4 510.3 514 511.4 513.85 511.8 513.8 513.85 513.65 516.15 513.6 518.75 514.15 523.45 515.35 526.95 519.25 529.95 522.55 532 527.8 532.85 530 533.5 532.6 534.2 535.5 534.4 537.5
L 536.2 537.4
Q 536.05 534.65 535.5 531.55 535 528.7 534 525.85 531.8 519.6 528 515.65 526.05 513.55 523.2 512 520.45 510.55 517.5 509.95 514.05 509.4 511.5 509.6 511.1 509.6 508.6 509.85
L 507.1 510.1
Q 505.8 510.4 505.65 510.45 503.05 511.05 500.1 512.65 497.55 514.1 495.35 516.3 493.45 518.15 491.6 520.9 490.25 522.9 488.8 526.1 487.65 528.55 486.75 531.65 486 534.15 485.35 537.35 484.8 540.45 484.5 543.1 484.15 546.5 484.15 549
L 484.15 549.85 486.8 549.65 488.55 656.35 497.7 656.35 495.6 568 522 561.25 522 564.85 501.8 570.35 502.5 638.75 499.55 639.15 501.95 643.65 522.05 640.8 522.6 652.15 535.15 651.5 535.25 635 606.75 631.4 606.65 552.35 616.9 551.85
Q 627.65 551.55 627.75 551.55
L 638.65 551.45 649.15 552.05
Q 649.25 564.9 649.2 571.4
L 648.9 629.8 642.7 629.45 642.4 593.4
Q 642.15 562.9 642.05 556.85
L 642.05 555.8 611.75 556.95 611.95 629.1 650.15 631.15 650.15 630.85 669.55 631.65
Q 670.6 631.7 675.05 632.05
L 683.75 632.8
Q 683.2642578125 633.20703125 682.7 633.65
L 670.85 644.05
Q 668.3 646.3 664.85 649.05
L 639.7 667.75
Q 636.2 670.2 633.2 672.1 629.3 674.65 626.6 676.2 624.6 677.4 623.2 678.05 622.15 678.65 620 679.6
L 548.5 686 537.45 684.15
Q 536.55 684.05 531.9 683.15
L 526.3 682.1
Q 521.35 681.25 515.2 679.9
L 481.9 672.8
Q 472.15 670.6 460.8 667.95 461 627.05 461.2 606.55 461.65 575.6 461.65 575.3 462 557.95 462.45 544.05 462.95 531.05 463.1 528.45 463.15 527.25 463.65 520.7
L 464.4 513.95
Q 464.55 513.4 464.6 513.1 465 511.55 466.1 509.85 467.25 508.1 468.5 507 470.95 504.65 474.6 502.55 480.15 499.4 488.8 496.55 501.05 492.65 519.15 489.65 532.3 487.45 550.1 485.75 565.2 484.3 581.25 483.45 596.8 482.7 612.5 482.4
L 635.95 482.05
Q 638.55 482 643.75 482.1
L 651.55 482.2
M 665.1 543.4
Q 668.9 543.4 670.8 543.5
L 704.75 545
Q 708.55 545.2 716.05 545.7
L 716.7 545.75 718.1 608.5 717.9 608.95
Q 717.8 609.65 717.85 609.85 717.85 610.4 718.05 611.1
L 718.5 612.9 716.85 613.6
Q 710.3 616.5 709.6 616.8 704.85 619.1 702.5 620.35
L 692.25 626.5
Q 691.55 626.95 689 628.8 688.1791015625 629.36171875 684.05 632.55
L 675.1 631.55
Q 671.45 631.1 669.6 631
L 658.6 630.2
Q 655.9 630 653.1 629.9
L 650.15 629.75 649.85 551.35 638.65 550.7 627.75 550.6
Q 622.35 550.6 616.85 550.75
L 605.3 551.05 605.2 629.9 535.25 634.75 535.8 548.6 602.75 544.05 641 543.1 665.1 543.4
M 720.15 566.55
L 728.5 566.85 729 610.4 721.55 613.1
Q 721.55 612.75 721.5 612.4 721.4 611.85 721 610.4
L 720.9 609.7 720.9 609.65 720.6 610.05 721.15 608.85 720.15 566.55
M 719.95 558.3
L 719.65 546.65
Q 730.55 547.6 741.2 548.75 747.65 549.5 752.7 550.3
L 761.15 551.85 762.6 552.25 762.2 553.35 762.55 564.5
Q 760.75 563.95 758.8 563.5
L 744.9 560.5
Q 744.8 560.45 742.1 560.05
L 733.65 558.95 719.95 558.3
M 720.8 564.2
L 720.7 560.7 733.4 561.4
Q 734.3 561.5 736.15 561.7
L 752.7 564.65 758.15 566
Q 758.95 566.2 763.5 567.5
L 765.1 568 764.15 572.3 762.55 573.05 763.5 610.45 762.3 610.5 744.75 610
Q 743.45 609.9 742.8 609.95
L 738.85 610.15
Q 737.5 610.15 736.85 610.25
L 730.95 611.2 730.75 564.6 720.8 564.2
M 653.95 679.5
L 653.2 680.15 646.05 688.75
Q 645.45 689.5 644.4 691.05
L 642.85 693.35
Q 642.05 694.55 639.85 698.05 638.2 700.75 637.05 702.85
L 632.35 711.7 629.4 683.4 629.4 683.3 629.3 683.3 626.95 681.9
Q 630.1 681.6 633.2 681.35
L 653.95 679.5
M 683.65 727.3
L 683.65 727.5 754.85 723.6 754.75 741.35 766.3 741.4 766.95 723.7 771.35 723.4
Q 772.2 723.35 773.9 723.2 775.45 723.1 776.5 723.1
L 786.8 722.8 847.7 723.2 846.95 741.9
Q 836.7171875 741.528515625 830.9 741.45 811.7 741.05 786.9 741.65 783.35 741.7 764.9 742.35 757.55 742.6 742.95 743.4 735.75 743.75 720.95 744.75
L 712.2 745.15 712.3 745.3 712.05 745.15 712.2 745.15 711.75 744.75 710.7 744.2
Q 709.5 743.75 705.35 742.55 700.55 741.05 700.15 740.9
L 658.5 726.75
Q 655.2181640625 725.6455078125 647.75 723.15 655.075 722.51796875 669.25 721.45
L 713.1 718.55 757 716.3 800.9 715 833.85 714.65 872.3 715.3 910.75 716.85
Q 940.05 718.15 954.65 719.05
L 971.05 720.4
Q 974.75 720.9 976.4 721.4 978.05 722 978.25 722.75 978.3 722.8 978.35 722.95
L 978.35 723.3 978.15 723.7 977.25 724.55
Q 975.8 725.55 972.4 726.95 968.15 728.6 962.4 730.1
L 961.5 727.55 961.35 727.25 961.05 727.2 893.6 721.55
Q 891.1 721.35 888.75 721.25
L 883 721.05 883.5 740.65 875.75 740.6 875.25 720.85 857.95 720.6 857.75 740.45 849.2 740 849.9 721.15 807.45 720.7
Q 800.55 720.7 797.1 720.8
L 776.4 721.35
Q 775.2 721.35 771.25 721.7
L 765.35 722.15 764.9 739.9 756.15 739.95 756.05 722.25 683.65 727.3
M 666.85 744.3
L 651.05 742.95
Q 645.9 742.45 643.15 742.3
L 603.6 740.35 556.05 739.9
Q 545.5 740.2 540.2 740.35
L 508.5 741.85
Q 498 742.65 492.7 743.05 489.05 743.3 476.9 744.45
L 472.6 744.9 544.4 719.3 544.5 719.25 544.55 719.2
Q 546.55 718.1 549.25 716.95
L 554.05 714.95
Q 557.05 713.85 558.95 713.25
L 569.05 710.85
Q 570.75 710.6 572.45 710.5
L 616.25 713.35 636.75 720.55 636.75 721.25 636.9 721.25 640.65 721.95 678.8 735.4
Q 685.7 737.85 699.6 742.55 701.1 743.05 704.9 744.15 709 745.3 710.05 745.75
L 710.85 746.1 710.9 746.15 711.1 746.45 711.25 746.55
Q 711.45 746.7 711.85 746.75
L 712.8 746.75
Q 713.75 746.75 715.6 746.6
L 721.1 746.15
Q 735.7 744.85 743 744.35 751.8 743.65 764.95 743 775.2 742.5 786.9 742.35 806.7 741.95 830.85 742.85 840.5 743.2 852.8 743.85
L 899.15 746.2 899.15 755.15 860.5 753.45 860.5 749.85 846.15 749.8 846.15 753.35 805.25 753.3 804.85 749.95 715.65 752.45 712.65 752.95
Q 709.8513671875 751.656640625 706 750.65 700.85 749.45 698.25 748.85 696.95 748.5 694.35 748.1
L 666.85 744.3
M 648.4 750.95
L 665.95 752.4
Q 684.85 754.15 692.05 755.35 696.55 756 699.2 756.9 700.15 757.2 700.95 757.65
L 701.5 758.05 701.65 757.9 701.1 757.45
Q 700.4 756.95 699.35 756.55 696.75 755.5 692.2 754.55 688.8 753.8 680.9 752.6 675.4 751.7 666.1 750.7 655.05 749.45 648.6 748.9
L 639 748.05
Q 637.15 747.9 629 747.4 627.2 747.3 618.6 747.05
L 607.95 746.95
Q 602.2 746.9 586.25 747.35
L 543.55 748.7
Q 530.3 749 523.95 749.3 518.55 749.5 506.35 750.3 497.2 750.9 491.5 751.4
L 470.95 753.3 470.3 752.95 460.9 753.2 461.25 748.85 461.5 748.85
Q 464.1 748.45 469.3 747.85
L 492.9 745.5
Q 508.5 744.3 508.7 744.3
L 540.3 742.65
Q 545.55 742.5 556.1 742.15
L 587.7 741.9 619.35 742.6 666.75 745.4 694.25 748.75
Q 696.85 749.15 698.15 749.45 700.7 750 705.85 751.1 709.4271484375 751.9537109375 712.1 753.05
L 710.2 753.4 710 754.85 709.4 756.75
Q 709.25 757.05 708.95 757.7
L 708.45 758.55
Q 707.95 759.3 707.85 759.4
L 706.5 760.9
Q 706.4 761.05 705.75 761.55
L 704.05 762.7 703.15 763.15 700.25 764.2 698.75 764.55 698.8 765 704.45 943.9 704.25 943.9 704.25 944.5
Q 703.7751953125 945.04609375 703.25 945.45
L 701.85 946.6
Q 700.9 947.35 698.8 948.65
L 692.3 952.15
Q 687.45 954.25 685.4 955 683.1 955.9 681.9 956.25
L 678.35 957.35
Q 666.35 961.05 649.1 963.6
L 641.65 964.6
Q 636.65 965.1 634.2 965.35 632.95 965.5 619.2 966.45 617.85 966.55 611.7 966.8
L 589.15 967.65
Q 579.15 968.05 574.1 968.2 565.3 968.55 559.05 968.6
L 529 969.25 476.3 969.45
Q 475.5755859375 969.4283203125 474.9 969.4
L 475.05 938.65
Q 475 931.6 475 928.05 474.9 910.45 474.8 906.9
L 474.45 885.75
Q 474.3 875.2 474 864.6 473.6 850.5 473.5 843.45 473.35 832.95 473.35 832.9
L 473.5 801.6 476.15 799.6 478 799.7 476.95 799.05 477.15 798.9 473.6 796.65 473.65 779.75 501.15 779.2
Q 508.3 779.15 515.35 778.9
L 572.15 777.45
Q 573.7 777.4 586.35 777.25 591.1 777.2 600.55 777.3 600.65 777.3 614.75 777.45
L 621.85 777.6
Q 625.45 777.6 628.95 777.75
L 657.3 778.8
Q 657.9 778.85 660.85 778.95 663.05 779.05 664.4 779.2
L 671.45 779.8
Q 674.4 779.95 678.5 780.45 680.85 780.7 685.55 781.3
L 692.5 782.55 699.3 784.45 699.4 784.3 697.75 783.55
Q 696.2 783 696.05 782.95
L 685.7 780.4
Q 674.95 778.7 671.6 778.4
L 664.5 777.65
Q 663.2 777.5 657.4 777.15
L 646.75 776.5 614.75 776.35
Q 605.35 776.55 600.55 776.55
L 557.95 776.6
Q 550.85 776.55 543.75 776.6
L 515.3 776.85
Q 508.2 776.95 501.1 777.15
L 473.45 777.9 473.3 754.7 471.3 753.55 524 751.05 543.6 749.75
Q 554.4 749.05 564.6 748.75
L 618.55 749
Q 625.5 749.2 628.85 749.5 635.65 749.85 648.4 750.95
M 711.35 754.5
L 715.9 753.75 782 752.15
Q 789.4 751.95 793.05 751.95
L 803.3 751.8 803.7 755.1 804.45 755.1
Q 804.77734375 758.313671875 806.8 760.6 807.85 761.85 809.6 762.7
L 811.25 763.3 812.95 763.65
Q 819.55 764.8 826.75 764.65 829.05 764.55 830.2 764.4
L 831.95 764.2 832.85 764 833.15 763.9 833.5 770
Q 833.7 774.55 833.95 783.7
L 837.15 907.35
Q 837.25 911.95 837.45 921.1
L 837.75 943.05 837.85 943.55
Q 838.05 944.15 838.65 945.15 839.229296875 946.0189453125 839.8 946.8
L 807.9 946.1 810.85 941.95 811 941.7 811 941.4
Q 811.5 905 811.55 897.75
L 812 766.85 811.8 766.85 809.45 897.75
Q 809.25 912.25 809.1 941.15
L 805.65 946.05 733.05 944.55 729.5 941.65 727.85 898.75
Q 727.25 887.7 726.5 877.1
L 722.95 812.15
Q 721.9 790.65 721.9 790.45
L 720.65 769.5 722.45 768.85 723.95 768 725.35 766.85 726.5 765.5 726.95 764.75
Q 727.55 763.75 727.75 763.2 728 762.65 728.3 761.55
L 728.6 760.15 730.45 760.3 730.4 760 730.25 753.5 730.05 753.5 729.9 759.7
Q 729.35 759.6 728.65 759.55
L 728.7 758.95 715.6 758.9
Q 713.95 758.95 713.1 759.1
L 711 759.4 710.75 759.4 710.75 759.45 710.65 759.45 710.8 760.6 726.95 760.55 726.3 762.6 725.6 763.95 724.7 765.15 723.65 766.15 723.05 766.6 721.75 767.35 721.05 767.6
Q 720.8 767.75 720.3 767.85
L 718.9 768.25 720.25 790.55
Q 720.25 790.8 721.75 812.2
L 724.45 855.5
Q 724.65 858.95 725.4 877.15
L 727.45 936.75
Q 727.5 937.65 727.35 942.05
L 727.35 942.65 729.55 944.4 724.15 944.3
Q 716.08125 944.1474609375 708 943.95
L 705.6 943.9 699.95 765.45 701.6 765
Q 703.6 764.25 703.65 764.2
L 706.5 762.5 708.15 761 709.5 759.2 710.55 757.25 711.25 755.1
Q 711.3 754.75 711.35 754.5
M 809.85 762.2
Q 808.05 761.4 807.1 760.3 805.1296875 758.1982421875 804.7 755.1
L 847.8 755.05 847.8 751.5 855.25 751.45
Q 855.0779296875 754.7447265625 855.7 757.5 856.15 759.55 857.05 760.75
L 857.65 761.4 858.4 761.95
Q 859.25 762.45 860.1 762.5
L 866.95 763.25
Q 869.3 763.45 873.8 763.65 879.35 764 880.6 764.15
L 882.25 764.4
Q 882.8 764.45 884 764.7 884.4 764.8 884.85 764.7
L 884.85 766.05
Q 884.9 768.3 884.75 779.7
L 883.7 944.2 884.65 947.2 857.6 947.1 859.5 945.5 860.5 826.3
Q 860.6 822.55 860.65 820.65
L 861.05 809.35 864.4 764.25 864.2 764.25 862.85 775.45
Q 862.45 779.2 861.6 786.75
L 859.15 820.6
Q 858.9 825.35 858.9 826.25
L 857.6 944.65 854.7 947.1 840.9 946.8
Q 839.9376953125 945.706640625 839.3 944.75 838.85 944.05 838.6 943.35 838.5 943.1 838.45 942.6 838.5 942 838.45 941.7
L 837.2 852.35
Q 837.05 843.2 837 838.65
L 836.35 811.15
Q 835.8 792.8 835.45 783.65 835.05 774.4 834.75 769.9
L 834.15 763.15 834.1 763 834 762.8
Q 834.25 762.75 833.4 762.6
L 832.9 762.8 830.1 763.35
Q 829 763.5 826.7 763.6 819.2 763.95 813.1 763.05
L 810.6 762.5 809.85 762.2
M 880.7 763
L 873.85 762.65
Q 869.3 762.5 867.05 762.4 863.05 762.25 860.25 761.85 859.45 761.8 858.7 761.45
L 858.05 761 857.5 760.4
Q 856.6 759.3 856.15 757.4 855.4787109375 754.8935546875 855.5 751.45
L 858.9 751.45 858.9 754.95 900.55 756.6 900.5 751.05 941.9 754.85 941.9 755 941.25 762.2 930.65 762.65 930.65 762.7
Q 930 763.45 929.55 764.3
L 929.2 765.2 929 766.15
Q 929 767 929.05 767.15
L 929.15 767.65 929.35 768.1 929.6 768.5 929.95 768.85
Q 930.05 769 930.7 769.5
L 930.8 769.35 930.1 768.7 929.8 768.35 929.55 767.95 929.25 767.1
Q 929.2 766.65 929.25 766.2 929.45 764.5 930.8 762.95
L 941.65 762.65 941.65 762.45 942.45 755.35 963.3 756.85 963.3 756.4 967.2 756.6 967.15 762.45
Q 965.7 762.85 964.45 763.45 963.45 764 963.05 764.5 962.8 764.75 962.8 765.05
L 962.75 765.25 962.75 765.3 962.7 765.35 962.7 765.4
Q 962.7 765.5 962.4 765.9
L 961.35 766.85
Q 961.0392578125 767.112890625 960.75 767.3
L 960.7 767.35 957.45 769.35 957.15 769.5 958.05 825.3
Q 958.2 834.55 958.3 853.05
L 959 922.5 958.8 921.75 959.1 929.4
Q 959.1806640625 930.3279296875 959.75 932.1
L 960.3 938.15 955.45 940.75 954.05 941.35
Q 953.1 941.8 951.2 942.5
L 948.25 943.45
Q 947.25 943.75 945.25 944.15 942.25 944.8 939.15 945.05
L 935.6 945.3 935.65 944.35 937.45 939.7 937.45 939.55
Q 937.65 931.35 937.65 921.15
L 937.05 875.1
Q 936.95 872.05 936.95 865.9 936.9 861.35 936.95 856.7 936.95 853.7 937.15 847.5
L 937.35 838.3
Q 937.5 833.75 937.5 829.1
L 936.7 793.05 955.7 785.95 939.1 769.8 897.8 775.15 897.7 775.15 897.6 775.25 886.2 782.95 886.25 779.7
Q 886.25 770.6 886.1 765.95
L 886.1 765 886.05 764.6 886.05 764.3
Q 886 764.2 886 764.15
L 885.95 764.1 885.85 763.7
Q 885.9 763.4 885.4 763.3 884.85 763.2 884.8 763.45
L 884.75 763.5
Q 884.5 763.6 884.1 763.5 883.05 763.3 882.5 763.25
L 880.7 763
M 886.95 788.05
L 886.95 783.75 898.1 776.25 938.65 771.25 953 785.35 928.95 794.3 927.85 800.75 892.65 800.7 892.65 942 893.25 942.15 900.45 943.35
Q 901.65 943.45 902.3 943.45
L 911.35 943.25 922.6 941.25 921.9 815.95 921.85 815.6 921.55 815.55 896.75 814.15 896.75 810.7 924.2 810.7 924.25 804.75 926.35 806.15 926.5 945.25 899.4 946.8
Q 887.7830078125 947.198828125 885.55 947.2
L 884.45 943.95 885.55 861.9
Q 885.85 848.15 886 834.5
L 886.2 789.1 920.45 785.25 920.55 785.25 920.6 785.2 927.4 780.05 923.05 783.7 922.95 783.8 923.05 783.95 931.4 792.35 931.55 792.25 923.45 783.85 935.3 774.05 935 773.65 920.25 784.6 886.95 788.05
M 900.5 750.85
L 900.5 746.3 929.65 747.8
Q 931.35 747.9 940.55 748.65
L 946.05 749.1
Q 950.95 749.5 951.5 749.6
L 961.6 751 961.65 755.05 931.2 752.75
Q 920.919140625 752.012109375 900.5 750.85
M 963.75 765.2
L 963.85 765.1
Q 964.15 764.7 964.9 764.3 966.15 763.65 967.75 763.25
L 968.1 763.15 968.1 755.7 963.3 755.5 963.35 749.45 959.95 748.95 959.9 741.8
Q 960.74765625 742.263671875 963.6 743.75
L 975.95 749.6
Q 979.85 751.35 984.3 753.2
L 1001.2 759.95
Q 1003.95 761.15 1009.45 763.75 1012.2 765.05 1017.65 767.65
L 1024.7 770.9
Q 1024.3357421875 771.293359375 1023.95 771.65
L 978.45 767.75
Q 978.2 767.75 962.9 767
L 962.7 767 963.2 766.5
Q 963.6 765.85 963.65 765.6
L 963.75 765.2
M 962.8 768.1
L 962.9 768.1
Q 968.1 768.55 978.35 769.5
L 993.95 770.6
Q 999.1 770.9 1009.5 771.4
L 1023.7 771.95
Q 1021.8841796875 773.977734375 1020.35 775.75
L 1005.1 775
Q 989.5 774.4 989.3 774.4
L 965.6 773.35
Q 960.9837890625 773.0615234375 958.25 772.9
L 958.2 770.1
Q 959.35 769.45 960.65 768.6
L 960.85 768.45 961.2 768.25 962.8 768.1
M 612.95 197.15
L 613.05 195.55 619.7 197.2 619.5 190.05 621.55 190.65
Q 621.65 193.1 621.65 197.75
L 621.65 198 626.8 199.4 626.6 201.65 621.1 200.65 621.1 201.55
Q 621 205.05 621.05 206.8
L 621.15 212.1 621.2 212.55 624.05 214.2 624.1 215 621.15 213.65 621.6 222.4 620.8 222.35 619.65 222.4 620.2 212.6 617.9 210.65 617.95 210.5 620.4 212.2 620.45 210.5
Q 620.6 205.65 620.6 200.8
L 620.6 200.1 612.95 197.15
M 621.8 224.55
Q 624.15 224.75 626.55 226.05 628.55 227.25 629.9 228.9 631 230.25 631.55 232
L 631.9 233.25 632.05 235.05 632.1 235.05 631.9 236.8 631.6 238.1
Q 630.9 239.95 629.9 241.15 628.55 242.9 626.55 244.05 624.4 245.35 621.75 245.7
L 620.4 245.85 619.15 245.8
Q 618.9818359375 245.7408203125 618.9 245.7
L 618 245.35 617.95 245.7
Q 617.0796875 245.5361328125 616.05 245.15 614.55 244.6 613.3 243.65 612.2 242.8 611.1 241.3 610.35 240.15 609.8 238.3 609.45 237.1 609.45 235.05 609.6 233.25 610.15 231.9 610.65 230.4 611.6 229.1 612.5 227.85 613.7 226.85 615.1 225.8 616.25 225.35 618.95 224.25 621.8 224.55
M 636.7 300.1
L 636.65 300
Q 636.65 300.2 636.95 322.75
L 637.25 345.75 638.65 348.15
Q 637.00078125 348.0275390625 635.5 347.95
L 632.3 347.85
Q 630.15 347.75 629.1 347.8 624.8 347.8 622.7 347.9 620.6 348 619.5 348.1
L 616.3 348.3
Q 612.1 348.6 609.95 348.85 608.0318359375 349.0326171875 606.65 349.15 606.9828125 348.4908203125 607.4 347.5
L 608.4 344.8 608.35 299.9 608.15 299.75 606.9 298.65
Q 614.6 298.15 621.4 298 626.65 298 629.3 298.1 631.9 298.2 633.2 298.3
L 636.5 298.8 636.7 300.1
M 605.15 298.45
L 607.3 300.35 607.8 344.6 606.85 347.25
Q 606.37265625 348.477734375 606 349.25 604.2173828125 349.4189453125 603.65 349.5 599.4 350.05 597.3 350.45 596.867578125 350.5220703125 596.45 350.6
L 598.2 346.5 598.2 346.35
Q 598.3 342.9 598.3 336.1
L 598.2 330.95
Q 598.1 327.55 597.95 325.85
L 597.35 315.65
Q 596.8 309.2 596.6 305.8
L 597.2 305.75 597.3 305.7 598.6 304.85 598.7 304.8 598.7 303.95 598.6 303.6 598.45 303.3 597.95 302.8 597.35 302.45
Q 596.75 302.25 596.15 302.15 595.75 302.05 595.1 302.05 595.05 302.05 595 302.05
L 595.1 302.1 594.9 302.05 594.9 302.1 594.5 302.6 594.4 302.55 594.6 302.7 594.65 302.75
Q 594.65 302.8 594.65 303.35 594.65 303.6 594.6 303.8
L 594.55 303.75
Q 594.25 303.7 593.9 303.8
L 593 304 592.55 304.05
Q 592.15 304.1 591.85 304.4 591.55 304.65 591.1 305.35
L 590.9 305.75
Q 590.6 305.75 590.55 305.7
L 590.5 305.6
Q 590.3 305.25 590.3 304.15
L 590.25 303.95 590.25 303.85 590.3 303.75 590.45 303.55 590.7 303.3
Q 591.25 302.8 592.05 302.5 592.7 302.15 595.35 301.2 596.95 300.65 598.85 300.15
L 605.15 298.45
M 597.6 303.3
L 597.95 303.65 598.05 303.85 598.1 304.05 598.1 304.45 597.05 305.1 597.1 305.1 596.95 305.15 597.05 305.1 595.85 305.1 595.85 305.45
Q 595.9 307.2 595.75 315.7 595.75 319.1 595.9 325.95
L 596.3 336.15
Q 596.8 342.85 597.15 346.25
L 596 350.65
Q 592.765625 351.2296875 591 351.65 590.5681640625 351.736328125 590.1 351.85
L 591.15 348.1 591.15 348
Q 591.15 347.8 591.75 307.75
L 591.8 307.2 591.7 307.2 591.9 307
Q 592.2 306.55 592.4 306
L 592.75 305.4 592.8 305.35 594.15 304.9 594.4 304.85 594.45 304.85 594.6 304.9 594.65 304.9 595.1 304.8 595.3 304.55
Q 595.6 304.1 595.6 303.4 595.6 303.05 595.55 302.8 596.45 302.8 597.15 303.05
L 597.6 303.3
M 256.75 24.65
L 256.75 27.25 240.9 21.6 240.6 51.3 244.7 49.55 244.8 55 240.5 57.05 240.85 70.4
Q 240.2390625 70.1984375 239.5 70.1
L 238.4 70.05
Q 238.0212890625 70.05 237.35 70.2
L 237.7 58.3 232.95 60.4 233 56.75 237.95 53.5 238.05 21.15 237.5 20.95
Q 234.25 19.75 228.9 18
L 220.7 15.25 220.65 11.85 237.5 16.75 237.55 16.35 237.55 11 232.7 8.75 232.75 5.25 237.7 6.05 237.75 1.4 241.25 2.3 240.75 8.4 245.25 9.9 244.75 12.65 240.7 11.05 240.4 17.9 256.75 24.65
M 244 75
Q 244.7 75.9 244.95 76.95 245.1 77.35 245.25 78.35
L 245.25 79.4
Q 245.25 80 245.05 80.8 244.75 82 244.2 82.85 243.487109375 84.0974609375 242.65 84.55
L 241.7 83.5 240.4 82.7
Q 239.75 82.4 238.95 82.25 238.25 82.2 237.4 82.35
L 235.9 82.95 235.25 83.4 234.8 83.8 234.35 84.3 234.3 84.25
Q 233.9 83.6 233.8 83.35 232.9 81.7 232.9 79.35 233.05 77.4 233.9 75.6 234.85 73.75 236.3 72.95 236.95 72.55 237.8 72.3
L 238.55 72.2 239.35 72.2
Q 240.7 72.3 242 73.15 243.25 73.9 244 75
M 221.05 194.5
L 221.15 187.95 221.55 187.55 222.35 187.05
Q 222.6 186.9 224.05 186.15 224.3 186 225.85 185.5 226.8 185.1 227.7 184.9 229 184.65 231.6 184.1
L 239.6 183.35
Q 241.6 183.25 243.6 183.35
L 247.6 183.65 249.55 184
Q 251.3 184.55 251.45 184.6 253.7 185.4 254.55 186.8 254.95 187.4 255.15 188.55
L 253.95 213.15 253.05 212.8
Q 252.65 212.65 250.85 212.15
L 248.65 211.65
Q 247.15 211.35 246.4 211.3
L 244.15 211.1 235.2 211.2 233.7 211.35 233.4 192.15
Q 233.25 191.1 232.85 190.35 232.3 189.25 231.35 188.85 230.85 188.55 230.25 188.55
L 229.25 188.6
Q 227.4 189 226.45 191.3 226.1 192.2 226.05 193.05
L 226.25 201.1
Q 226.55 207.4 226.55 207.5
L 226.75 212.25
Q 225.521484375 212.48984375 224.25 212.75
L 220.45 213.65 220.9 201.45
Q 221.05 194.55 221.05 194.5
M 229.5 190.3
Q 230.7 190.15 231.2 191.15 231.45 191.75 231.5 192.4
L 231.55 192.7 231.6 211.6 228.6 212
Q 227.8533203125 212.1041015625 227.1 212.2
L 227.25 207.45
Q 227.4 204.3 227.4 201.1
L 227.55 194.7
Q 227.55 193.4 227.6 193.2 227.65 192.7 227.95 191.9 228.55 190.5 229.5 190.3
M 154.7 355.75
L 154.7 353.45 163.9 350.1 163.9 350 200.35 336.5 220.6 342.7 220.65 342.75 234.05 342.75 245.5 336.55 316.5 352 312.05 358.5 312.05 361.65 312.45 361.8 322.8 364.75 316.4 368 311.95 367.6 311.95 370.55 304.6 368.95
Q 299.15 367.75 296.45 367.15
L 263.3 360.35 263.3 360.35 263.55 359.7 248.15 356.75 248.15 340.95 312.95 355.2 313.3 353.65 246.35 338.75 246.35 339.65 239.8 343.05 212.7 344.45 212.7 344.6 200.65 342.05 200.55 342.05 200.45 342.1 162.55 357.9 154.7 355.75
M 158.7 375.4
L 158.7 374.75 172 370.3 175.8 373.7 175.4 374.8 175.05 375.35
Q 175 375.45 174.6 375.85
L 174.1 376.3 173.55 376.65 172.05 377.4 172.8 439
Q 173 445.8 173.4 459.45
L 173.4 459.55 174.15 461.75 162.75 465.75 162.75 465.7 162.7 465 162.8 464.3 163 463.65
Q 163 463.55 163.6 462.25
L 163.9 461.5 164.25 459.9 164.4 457.55
Q 164.4 455.8 164.2 454.4 163.85 444.05 163.8 435.8
L 163.75 417.15
Q 163.75 408.85 163.5 398.5
L 162.85 379.5 162.55 379.3
Q 161.15 378.35 160.25 377.5 159.75 377.15 159.25 376.45
L 158.85 375.9 158.75 375.65 158.7 375.4
M 256.45 295.2
L 243.15 294.6 208.6 296.8
Q 202.85 297.45 198 298.2 191 299.3 187.5 300 182.6 300.9 177.35 303.8 174.5 305.4 172.8 306.8 170.35 308.7 168.9 310.75 168.3 311.7 168.2 312.05 168.125 312.2322265625 168.05 312.4 167.4603515625 311.9158203125 167.25 311.25 166.85 310.2 167.45 309.2 168.25 307.45 170.3 305.8 173.3 303.3 178.1 301.35 178.9 301 182.4 299.8
L 195.65 296.5
Q 202.65 295.35 204.65 295.1 207.8 294.65 213.75 294.05
L 222.85 293.4
Q 224.4 293.3 232 293.15
L 236.55 293.1
Q 236.6 293.1 241.1 293.25 247.95 293.5 250.25 293.7
L 268.4 295.6
Q 271.4 296.1 277.4 297.05
L 286.3 298.9 295 301.45
Q 297.65 302.5 299 303.25 300.05 303.8 300.75 304.45
L 301.1 304.75 301.4 305.1 301.55 305.35 302 307.55
Q 300.622265625 306.780859375 297.9 305.4
L 287.9 301.55
Q 283.45 300.1 282.75 299.95 275.85 298.05 272.35 297.45 268.85 296.75 267.1 296.5
L 256.45 295.2
M 211.95 329.1
L 212 329.1
Q 214.25 329.2 218.85 329.35
L 239.45 330.35 239.6 330.3 247.3 326.5 275.4 333.8 303.4 340.5 303.5 347.25 303.55 347.65 309.65 349.45 245.5 335.8 245.35 335.8 233.9 342.1 220.8 342.15 200.5 335.85 200.4 335.8 164 349.1 164.55 341.65
Q 173.75 337.95 181.9 334.6
L 199.4 327 211.95 329.1
M 214.3 346
L 238.5 344.8 239.55 361.45 238.65 362 238.65 362.3 238.75 363 239.05 363.6 239.45 364.05 239.85 364.4
Q 240.45 364.8 241.65 365.3 242.95 365.8 244.75 366.25 244.55 395.55 244.3 410.15 244.2 417.6 243.8 432.4
L 242.65 453.05 242.35 454.9 213 454.6 210.9 401.1 209.05 368.85
Q 209.9 368.4 210.5 367.95 211.35 367.35 211.95 366.75
L 212.55 366 213 365.15 213.3 364.25
Q 213.3296875 364.1462890625 213.35 364
L 214.05 364.2 214.3 346
M 200.55 342.8
L 201.3 342.95 201 351.45
Q 200.8525390625 354.301171875 200.75 359.75
L 189.15 363.4 189.15 363.5 165.45 371.25 163.9 358.3 162.9 358 200.55 342.8
M 189.25 364.85
Q 189.478125 366.0525390625 190.1 367.15 191.05 368.85 192.65 369.45
L 192.9 369.55 192.95 369.65 193.05 369.95
Q 193.1 370 193.35 371.25
L 193.7 374.15
Q 193.95 376.65 194.4 385.85 195.15 405.45 195.25 409.45 195.4 413.35 195.5 421.25 195.6 427.1 195.5 433.05
L 195.1 451 194.45 392.65 193.85 388.75
Q 193.15 385.8 192.2 383.75 190.7 380.8 188.45 379.9 187.2 379.4 185.75 379.55 184.35 379.7 183.15 380.3 180.85 381.45 179.3 384.1 178.1 386.1 177.3 389.05 176.6 391.55 176.35 394.3 176.2 395.45 176.1 399.55
L 176 420.45
Q 176.1 434.35 176.25 441.35
L 176.75 461.5 175.85 461.75 175.05 459.3 174.8 438.95 173 377.95 174.6 376.9 175.15 376.35 176 375.1 176.25 374.35 176.35 373.6 176.35 373.45 176.25 373.35 172.3 370.2 189.25 364.85
M 191.5 366.35
Q 191 365.5 190.85 364.5
L 201.35 361.05 213.05 363.95 213.05 364.15
Q 213 364.5 212.7 365
L 212.2 365.75
Q 212.15 365.9 211.6 366.4 211.1 366.95 210.2 367.5 209.1 368.1 208.55 368.3
L 208.35 368.4 210.25 433.7 211.25 454.5 199.75 454.5 196.35 455.5 196.25 409.4
Q 196.35 392.4 196.15 385.8 195.85 377.9 195.45 373.95
L 194.7 369.45 194.55 369 194.45 368.8 194.2 368.4 194 368.25 193.85 368.1 193.6 368 193.55 368 193.25 367.9
Q 192.15 367.45 191.5 366.35
M 178.4 389.35
Q 179.05 386.6 180.1 384.6 181.55 382.05 183.5 381 184.65 380.45 185.85 380.25 187.05 380.1 188.25 380.5 190.3 381.35 191.65 384 192.6 385.95 193.2 388.9
L 193.75 392.75 193.75 394.05
Q 193.8 398.7 193.55 414.9
L 193.05 455.95 191.05 456.75 190.8 424.95
Q 190.8 424.85 190.5 408.25
L 190.45 404.05
Q 190.35 401.3 190.45 399.9 190.55 397.8 190.9 395.8 191.25 394.4 191.45 393.85 191.95 392.65 192.65 392.35
L 192.6 392.15
Q 191.8 392.4 191.15 393.7 190.75 394.5 190.45 395.7 190 397.5 189.75 399.85 189.6 401.2 189.5 404.05
L 189.45 408.25
Q 189.25 416.6 189.15 424.95
L 188.9 457.8 177 461.4
Q 177.0802734375 459.3298828125 177.3 451.75
L 177.5 441.35
Q 177.75 429.7 177.75 420.45
L 177.75 410
Q 177.75 403.05 177.65 399.55 177.65 394.95 177.7 394.4 177.85 392 178.4 389.35
M 240.35 363.1
L 240.15 362.85 247.75 357.95 247.8 357.95 261.9 360.7
Q 261.3201171875 361.88828125 260.65 362.75
L 259.7 364 258.5 364.8 258.15 364.95 258.95 455.35 259.15 455.35 259.25 365.65 259.75 365.4 260.15 365.1 260.45 364.8
Q 261 364.25 261.6 363.4 262.376171875 362.2970703125 263 360.95
L 311.55 372.25
Q 311.2 373.3 310.8 373.95
L 310.25 374.5 310.2 374.5 310.2 374.55 309.9 374.75 309.6 375.4 309.6 375.55 309.55 375.75 309.35 395.35
Q 309.45 399.4 309.5 407.55
L 309.55 444.25
Q 309.5001953125 455.919921875 309.55 467.6
L 298.3 465.1 298.35 454.9
Q 298.45 447.6 298.4 443.9
L 298.2 400
Q 298.2 399.9 297.9 378.05
L 297.9 377.65 297.5 377.6 296.7 377.4 295.9 377.05
Q 295.05 376.7 294.5 376.15 293.85 375.65 293.35 374.9
L 292.9 374.15 292.65 373.6 299.5 370 299.45 369.85 291.9 373.25 292.3 374.4 292.75 375.25
Q 293.3 376.1 293.95 376.75 294.95 377.55 295.55 377.85
L 296.4 378.25
Q 296.7 378.35 296.95 378.4 296.85 385.7 296.6 400
L 296.35 464.7 296.1 464.65 296.15 402.5
Q 296.15 401.5 295.95 399.4 295.65 396.3 294.9 393.35 293.2 386.65 289.85 382.15 285.95 376.75 279.8 374.85 276.4 373.85 273.6 373.85 270 373.85 267.3 375.45 264.55 377.05 262.9 380.2
L 262.8 380.4 261.7 383.1
Q 261.2 384.9 261 386.2 260.5 389.15 260.65 392.35
L 260.65 456.85 244.5 453.85 244.7 452.65 245.6 432.45
Q 245.9 417.55 245.95 410.2 246.1 395.35 246.1 365.7
L 246.1 365.1 245.5 365
Q 243.55 364.65 242.1 364.05
L 240.65 363.3 240.35 363.1
M 201.85 359.75
L 201.5 343 212.7 345.5 212.55 362.35 201.85 359.75
M 241.2 360.1
L 240.2 344.1 246.35 340.95 246.35 356.7 241.2 360.1
M 262.7 392.3
Q 262.6 389.2 263.05 386.55 263.2 385.5 263.7 383.75
L 264.4 382 265.55 381.75 268.3 381.55 270.6 381.75 272.5 382.15 274.5 382.95
Q 276.7 384.25 277.1 384.6 277.65 384.95 278.35 385.7 278.75 386.1 279.55 386.95
L 280.6 388.35
Q 281 388.8 281.65 389.9
L 282.6 391.55
Q 282.85 392.15 283.45 393.35
L 284.9 397.2 285.85 401.4 286.1 403.55
Q 286.2 404.3 286.2 405.8 286.25 407.25 286 414.85
L 285.65 448.35 286.4 462.9 262.65 457.9 262.7 392.3
M 278.1 383.25
Q 277.4 382.7 275.1 381.55
L 272.85 380.8 270.75 380.5
Q 269.85 380.55 269.45 380.55
L 268.25 380.55 267.15 380.75
Q 265.9 381 265.4 381.2
L 264.6 381.5 264.75 381.15
Q 266.1 378.6 268.4 377.25 272.6 374.8 279.15 376.85 284.6 378.55 288.15 383.4 291.35 387.6 292.9 393.9 293.6 396.8 293.9 399.65 294.1 401.55 294.1 402.55
L 294.2 464.5 286.65 462.95 287.6 441
Q 287.7 437.05 287.6 432.75
L 286.85 405.75
Q 286.65 402.8 286.55 401.3
L 285.95 396.95
Q 285.05 392.3 283.15 389 282.4 387.65 280.9 385.75 278.6 383.6 278.1 383.25
M 311.2 375.85
L 311.2 375.8 311.5 375.6 311.9 375.1 311.65 468.05 311.25 467.95 310.2 407.55
Q 310.2 401.45 310.35 395.35
L 310.7 383.15
Q 310.95 378.1 311.05 377.1
L 311.15 376 311.2 375.85
M 260.5 457.45
L 260.5 457.45
Q 260.6 457.4 260.65 457.35
L 260.65 457.5 260.5 457.45
M 262.15 457.7
L 262.3 457.85 262.2 457.8
Q 262.1802734375 457.7607421875 262.15 457.7
M 245.55 467.4
L 243.9 467.4 242.2 467.1 242.85 457.2 200.75 457.1 200.75 457.3 241.3 458.7 240.6 466.95
Q 210.6798828125 468.4595703125 195.6 469.3
L 195.45 469.3 195.35 469.35 139.8 487.25 138.1 474.1 153.4 469.8
Q 158.6 468.3 169.05 465.3
L 188.9 459.5 188.9 459.9 192.3 458.5 200.85 456.25 213.1 456.25 213.1 456.2
Q 217.0873046875 456.1826171875 224.2 456.05
L 244.45 455.8 258.7 458.4 260.25 458.8
Q 260.7 458.95 260.65 458.9 260.4 458.65 260.3 458.45 260.2873046875 458.4181640625 260.25 458.35
L 261 458.55 261.65 459.2
Q 261.60234375 459.1484375 261.75 459.05
L 262 458.75 294.2 465.85 294.2 466.15 296.35 466.6 296.35 466.65 313.5 470.25 313.5 470.1 332.9 474.4 331.65 476.05 331.65 476.35 331.2 482.75 245.55 467.4
M 248 476.3
L 247.95 476.5 323 490.8
Q 325.2375 491.1890625 345.35 494.55
L 335.75 499.3 335.9 505.4 289.7 496.8
Q 273.159765625 493.6306640625 242.8 488.05
L 242.9 480.05 247.4 475.55 200.6 475.55 200.5 475.6 136.55 497.6 133.45 495.9 128.7 492.55 195.95 471.65
Q 198.6 471.5 241.2 469.55
L 344.05 487.45 346.55 493.6
Q 331.21328125 490.5689453125 323.3 489.1
L 285.7 482.4 248 476.3
M 203 478.5
L 202.9 478.7 210.5 483.55 209.75 563.85
Q 209.7 570.55 209.7 604.1
L 209.75 645.3 212.05 645.3 170.3 652.85 185.85 648.75 188.3 544.85
Q 187.55 539.3 185.8 534.3 184.95 531.7 183.7 529.25 182.05 526.3 180.45 524.6 177.95 522.1 175.3 521.45 173.85 521.05 172.2 521.15 170.7 521.25 169.35 521.7 164.1 523.2 160.25 528.45 158.55 530.8 157.45 533.25 156.65 534.9 155.45 538.3 153.9 543.15 153.1 548.75 152.35 553.6 152.1 559.35 151.95 562.35 152 564.7
L 151.55 654.85 135.1 659.2 135.7 661.9 213.85 647.1 212.7 653.1 133.65 666.3 132.35 662.9 132.35 660.2 138.6 656.25 136.15 497.95 136.5 498.15 136.6 498.1 200.85 477.2 243.4 477.2 241.5 479.15 241.3 479.4 241.35 487.75 241.05 487.7 241 498.75 241.4 498.8 241.75 541.45
Q 241.85 551.75 241.75 562
L 241.2 643.45 211.7 643.3 211.75 604.1
Q 211.75 577.25 211.65 563.85
L 210.95 483.25 210.85 483.2 203 478.5
M 242.4 541.45
L 242.75 499 313.35 510.25
Q 317.244140625 510.8828125 336.15 513.6
L 340.05 653.35 316.25 650.85 311.95 653.7 304 651.85 304.55 556.25 304.3 553.55
Q 304.1 551.5 303.7 549.25 302.9 544.65 301.65 540.85 300.3 536.4 298.25 532.85 297 530.75 295.75 529.25 294.1 527.35 292.55 526.25 288.95 523.55 284.25 523.55 279.35 523.65 275.8 525.35 272 527.1 269 530.75 266.5 533.7 264.65 538.2 263.1 542.1 262.25 546.45 261.45 550.5 261.3 555 261.3 557.9 261.45 563.6
L 263.35 647.7
Q 258.5345703125 645.2580078125 255.95 643.9
L 255.85 643.85 255.75 643.85
Q 252.9 644 250.1 644
L 242.95 643.75 242.4 541.45
M 170.15 524.7
Q 172.45 523.9 174.5 524.45 176.35 524.9 178.2 526.75 180.8 529.5 182.85 535.3 184.45 539.9 185.15 545.2
L 183 646.5 179.75 647.35 179.1 567.55 164.2 570.95 164.15 562.3 177.55 557.45 177.8 557.4 177.75 557.15 177.85 552.7 178.45 549.4 179.2 547.25 179.7 546.25
Q 180.05 545.55 180.25 545.3
L 180.9 544.4 181.65 543.6 182.55 542.9
Q 183.3 542.4 183.45 542.35
L 184.45 541.85 184.35 541.55 183.3 542.05
Q 182.85 542.25 182.35 542.65 181.75 543 181.45 543.35
L 180.6 544.15 179.9 545.1
Q 179.65 545.4 179.3 546.05
L 178.35 548.15 177.75 550.35
Q 177.55 551.1 177.35 552.6
L 177.15 557 163.3 561.7 163.2 572.2 177.8 569.15 177.5 647.95 174.15 648.85 154.05 652.5 155 564.65
Q 155 561.25 155.1 559.5 155.35 553.85 156.1 549.2 156.95 543.55 158.35 539.25 159.3 536.45 160.2 534.55 161.2 532.35 162.75 530.25 165.9 525.9 170.15 524.7
M 294.85 530
Q 295.75 531.05 297.15 533.45 300.5 539.75 302.1 549.5
L 302.85 555.8 302.85 556.35 302.9 556.45 302.85 566.45
Q 302.8 575 302.85 583.6 303 612.1 303.05 617.8
L 303.45 652.3 303.65 652.3 311.65 653.85 299.45 661.9
Q 293.77421875 661.2291015625 290.7 660.85
L 246.7 656.2
Q 242.85 655.8 235.65 655.2
L 214.65 653.45 216.3 645.25 242.95 645.15 242.95 644.75 244.5 644.7
Q 246.35 644.6 250.1 644.6 252.85 644.6 255.65 644.75 258.259765625 646.36328125 263.4 649.5
L 263.45 650.1 264.45 650.1 272.8 654.95 273.1 655 280.75 655
Q 284.6 655 288.4 654.85
L 303.7 654.05 303.7 653.85 288.4 653.05
Q 284.6 652.9 280.75 652.9
L 273.35 652.9
Q 270.3529296875 651.28203125 268.1 650.1
L 290 650.2 289.95 618.1
Q 289.85 597.45 289.8 587.1
L 289.45 556.1
Q 289.1 551.6 288.4 548.35 287.5 544.25 285.95 540.9 283.95 536.75 281.15 534.7 279.95 533.75 277.7 532.9 276.15 532.4 273.8 532.4
L 273.8 532.6
Q 278 532.7 280.9 535.05 283.65 537.3 285.3 541.2 286.7 544.2 287.45 548.5 288.1 551.8 288.35 556.15 288.45 558.05 288.35 560
L 288.1 587.1
Q 288.05 597.45 287.95 618.1
L 287.9 648.05 265.4 648.15 262.25 563.55
Q 262 556.45 262 555 262.15 550.25 262.9 546.55 264.75 536.9 269.5 531.15 272.35 527.75 276.1 526.05 277.9 525.2 280.1 524.8 281.7 524.45 284.25 524.45 288.65 524.55 291.9 527.1 293.5 528.3 294.85 530
M 313.55 509.15
L 243.15 496.95 243.1 490.15
Q 273.9 495.5 289.45 498.05
L 335.95 506.05 336.15 513.35
Q 321.1708984375 510.5005859375 313.55 509.15
M 115.45 688.1
L 115.4 672.8 164.05 663.45
Q 170.65 662.1 176.45 661.05
L 214.4 654.85 214.45 654.6 299.1 662.15 289.65 668.4 230.85 668.6 230.7 668.65 212.7 677.75
Q 212.75 670.2 212.65 655.95
L 212.45 655.95 211.65 679.5 231.15 670.2 286.5 670.5 270.05 681.35 211.55 684.15 159.95 668.75 159.7 668.7 159.5 668.85 93.9 704.9
Q 87.25 708.6 83.1 711.05 78.45 713.65 72.3 717.3
L 72.35 717.45 83.45 711.7
Q 88.6 709.05 94.45 705.85
L 159.9 670.1 185.5 677.3
Q 196.55 680.45 198.45 681.05
L 211.35 684.9 267.2 683.25 198.95 728.3 215.1 730.5 217.2 729.1 217.25 734.5 222.55 734.45 354.8 719.1 434.05 709.1 451.05 710.3 450.2 746.7 444.5 745.4 444.25 745.4 286.8 761.4
Q 283.3623046875 761.748828125 234.7 767.05
L 234.55 749.8 235.3 749.7 235.3 742.85 234.5 742.95 234.5 740.4 234.45 740.35 232.25 737.7 232.6 734.4 232.4 734.35 232 737.65 232 737.75 234.2 740.55 234.15 743 123.7 760.75 84.25 762.15 70.25 742.25 114 745 114.1 745 130.65 742.65 130.65 742.85 142.45 741.7 142.5 741 188.15 734.6 188.15 734.85 188.6 734.75 196.05 733.7 196.05 733.5 207.6 731.9 207.55 731.7 196.05 733.2
Q 195.7380859375 729.6294921875 195.05 725.55 194 720.25 193.4 717.9 191.2 709.35 187.75 703.2 185.6 699.4 183.15 696.75 180.3 693.65 176.85 691.9 173.15 690 169.1 689.75
L 167.05 689.65 163.1 690
Q 161.75 690.25 161.1 690.35 160.7 690.45 157.2 691.5
L 154.45 692.65 153.55 693.15
Q 153 693.5 151.8 694.15
L 150.15 695.3
Q 147.55 697.45 147.05 697.9 146.3 698.55 144.3 700.8 142.2 703.55 141.9 704.05 139.75 707.25 137.95 710.95 136.45 714.05 135 718.35 133.6 722.8 132.9 726 132.15 729.25 131.45 733.8 130.9 737.75 130.7 741.7
L 130.7 741.85 113.95 744.05 71.25 741.15 71.05 718.85 67.8 718.8 67.85 715.9 115.45 688.1
M 7.7 771.15
L 10.7 773.8 82.9 766.15 83.7 767.6
Q 83.85 771.35 84.25 776
L 85.05 784.75 85.25 784.7
Q 85.4 781.8 85.5 780.35
L 85.6 775.95
Q 85.7 773.05 85.7 767.25
L 85.7 767 85.55 766.8 85.25 766.25
Q 89.05 766.15 93.65 765.85 96.496875 765.7224609375 98.75 765.6
L 123.35 764.75
Q 124.2205078125 767.4529296875 125.15 769.85 125.15 771.4 125.35 774.25 125.35 774.45 125.65 778.85
L 126.35 785.75
Q 126.4041015625 786.3994140625 126.45 787
L 125.7 787.1 125.65 792.05 85 786.8 6.65 792.3 7.7 771.15
M 11.45 771.7
L 11 771.3 85.25 763.55 85.15 763.35 123.9 762.2 233.35 745.1 233.35 748 126.6 762.6 83.45 764 11.45 771.7
M 7.8 769.6
L 7.8 769.4 68.35 742.7 81.85 762.05 7.8 769.6
M 154.4 694.65
L 157.8 693
Q 160.6 692.1 161.45 691.9
L 165.2 691.25 169 691.15
Q 172.85 691.3 176.3 692.95 179.65 694.55 182.4 697.45 185 700.1 187.05 703.6 188.8 706.5 190.4 710.65 191.7 714.1 192.8 718.05 193.85 722.05 194.4 725.7 195.05 730.05 195.3 733.1
L 188.95 733.9
Q 188.6 729.6 187.5 725.3 186.85 722.9 186.1 720.9 185.1 718.4 184.1 716.75 183 714.75 181.35 712.95 179.6 711.1 177.55 710.05 175.35 708.85 172.95 708.65 172.15 708.6 171.75 708.55
L 170.55 708.55 168.2 708.85
Q 166 709.2 163.7 710.15 161.75 710.9 159.5 712.3 157.7 713.55 155.9 715.35 154.35 717.1 153.05 719.1 150.65 722.8 149.35 727.6 148.65 730.25 148.4 732.1 148 734.45 147.95 736.75
L 147.95 737.65 186.75 731.9 186.7 731.65 149.5 735.9
Q 149.6 734.5 149.9 732.35 150.25 730.35 150.9 728.05 152.15 723.6 154.5 720 156 717.75 157.2 716.6 158.65 715.1 160.5 713.8 162.55 712.5 164.35 711.75 166.6 710.85 168.5 710.5
L 169.65 710.3 170.65 710.25
Q 171.15 710.2 171.75 710.25 172.65 710.25 172.8 710.3 174.65 710.45 176.85 711.45 178.85 712.5 180.3 713.95 181.85 715.6 182.95 717.4 184.05 719.1 184.95 721.35 185.6 722.9 186.45 725.6 187.6802734375 730.02890625 188.1 734.25
L 142.6 740.25 143.25 734.8
Q 143.7 731.75 144.45 728.85
L 145.25 725.9 148.55 717.4
Q 149.05 716.3 149.95 714.75 151.1 712.85 151.6 712.2 151.7 712 152.5 710.95
L 155.5 707.55
Q 156.95 706.2 157.75 705.6 158.05 705.35 160.25 703.95 162.15 702.9 162.95 702.6 163.9 702.2 165.8 701.6
L 165.7 701.65
Q 166.9 701.6 168.05 701.65 169.3 701.75 170.4 701.95
L 172.75 702.45 174.95 703.25 177.05 704.4 178 705.1
Q 178.25 705.35 178.85 705.9
L 179.7 706.75 180.7 708.2 181.5 709.8 181.7 709.75 180.95 708.05 179.95 706.55 179.15 705.6
Q 178.55 705.05 178.3 704.75 177.9 704.35 177.3 704
L 175.2 702.7 174.1 702.2
Q 174 702.15 172.95 701.75
L 170.55 701.15
Q 169.75 700.95 168.15 700.75 166.75 700.6 165.65 700.65
L 165.55 700.65
Q 163.05 701.4 162.55 701.6 162.15 701.75 159.7 702.9 157.35 704.35 157 704.6 156.15 705.2 154.55 706.6
L 151.3 710.05 148.6 713.9 145.75 719.5
Q 145.05 721 144.55 722.4
L 142.65 728.35
Q 141.8 731.5 141.3 734.45
L 140.6 739.85 132.85 740.6
Q 133.1 737.1 133.55 734.05 134.1 729.9 134.95 726.45 136.9 717.95 139.75 711.8 141.35 708.2 143.5 705.1 143.9 704.45 145.75 702 147.75 699.8 148.35 699.2 151.35 696.25 154.4 694.65
M 124.85 764.7
L 126.9 764.65 234.1 749.85 233.95 766.85 228 766.8 227.95 775.15 255.4 771.9 266.8 773.4 266.15 776.8 260.15 780.45 259.55 943.2 259.7 943.4 264.3 948.25 251.55 949.7 229.35 948.35 234 944.25 235.3 944.25 235.3 943.1 235.8 942.7 235.35 942.7 235.95 922 235.35 922 239.3 801.15 239.35 801.2 239.95 782.1 237.55 782.55
Q 236.85 782.6 236.1 782.55
L 235.45 782.5 234.75 782.35
Q 234.35 782.25 234.15 782.1
L 233.55 781.85
Q 233.15 781.6 233.05 781.45
L 232.6 781 232.2 780.45 231.7 779.25 231.55 778.6 231.4 776.3 126.85 786.95 127.05 774.2
Q 126.9 769.65 126.9 769.6
L 126.9 769.45 126.85 769.3
Q 126.3259765625 767.94609375 124.85 764.7
M 222.5 734.25
L 217.5 734.25 217.5 729.15 432.95 705.5 551.25 713.4
Q 549.652734375 714.0623046875 548.25 714.7 546.487109375 715.506640625 545.1 716.2
L 434.05 707.95 433.9 707.95 328.15 720.7 222.5 734.25
M 234.7 767.6
L 234.7 767.25
Q 243.2427734375 766.490625 255.9 765.3 255.6341796875 766.546875 255.5 767.8
L 255.25 770.65 228.9 774.05 228.85 767.65 234.7 767.6
M 229.95 778.1
Q 229.95 778.4 230 778.85
L 230.45 780.5 231.35 782.05 231.65 782.35
Q 196.4267578125 785.5759765625 179.85 787.15
L 127.75 792.15 127.8 789 229.95 778.1
M 231.9 782.55
L 232 782.65 232.75 783.15
Q 233.05 783.4 233.55 783.55 233.8 783.7 234.35 783.85
L 235.2 784.05
Q 235.45 784.1 236.05 784.1 236.9 784.2 237.7 784.1 238 784.1 238.35 784.05
L 238.15 791.25
Q 237.040234375 790.154296875 235.55 789.15 233.4 787.7 230.9 787.35 230.85 787.35 229.6 787.2
L 228.4 787.25 225.95 787.7
Q 225.3 787.85 223.6 788.35 222.1 788.95 221.3 789.25 216.95 791.25 213.55 795.05 210.55 798.45 208.3 803.15 204.7 810.5 203.05 821.45 202.4 825.6 202.05 830.9 201.9 833.25 201.9 835.65
L 203.95 916.45 210.95 916.45 208.8 840.1 217.7 840.05 217.7 839.7
Q 217.8 837.2 218 834.65 218.3 832.05 218.75 829.65 219.25 826.95 220 824.8
L 220.85 822.4 222 820.2
Q 222.8 818.85 223.45 818.15 224.1 817.3 225.2 816.45 226.6 815.55 227.35 815.3
L 228.5 815 231 814.9 232.2 815.05
Q 233.6 815.3 234.55 815.75 235.7 816.3 236.5 817.15 237.0810546875 817.7310546875 237.4 818.4
L 236.85 837.2 220.2 837.45 220.6 916.4 227.2 916.35 226.5 839.7 226.3 839.7 225.6 914.8 222.25 914.75 221.5 838.7 236.85 838.2 234.55 922.05 126.4 925.8
Q 125.832421875 925.816796875 125.15 925.85
L 127 923.3 127.75 793.7 179.95 788.2
Q 197.3498046875 786.376171875 231.9 782.55
M 229.65 788.85
L 230.65 788.95
Q 234.6 789.5 237.9 793.25
L 237.9 792.95 238.05 793.4
Q 238 793.3 237.9 793.25
L 237.9 797.65
Q 237.1 797.05 236.1 796.45 234.3 795.5 232.4 795.15 230.45 794.85 228.55 795.05
L 226.7 795.45
Q 225.55 795.8 224.85 796.15
L 223.2 797.05
Q 222.3 797.55 221.6 798.1 220.75 798.7 218.75 800.55
L 217.5 801.95
Q 217.05 802.4 216.35 803.45 215.85 804.05 214.3 806.55 213.7 807.65 212.65 809.9
L 210.35 816.95 209.1 824.25
Q 209 824.8 208.75 827.9
L 208.6 835.3 208.8 835.3 209.15 827.95
Q 209.35 825.5 209.55 824.3
L 211 817.1
Q 211.3 815.95 212.1 813.65 213 811.4 213.45 810.25 214.65 807.9 215.15 807.05 216.7 804.6 217.15 804.05 217.85 803.05 218.3 802.6
L 219.5 801.3
Q 221.65 799.4 222.25 799
L 224.55 797.6 226.95 796.65 228.7 796.3
Q 230.25 796.1 232.15 796.45 233.9 796.85 235.4 797.65 236.792578125 798.4390625 237.9 799.55
L 237.4 817.1
Q 237.2568359375 816.8775390625 237.05 816.65 236.15 815.75 234.85 815.1 233.9 814.6 232.35 814.35
L 229.75 814.2
Q 228.6 814.3 228.45 814.35 227.35 814.6 227.15 814.7 226.45 814.9 224.8 815.9 223.6 816.9 222.95 817.75 222.25 818.6 221.45 819.9 219.35 823.65 218.1 829.55 217.65 832 217.35 834.6 217.1 836.7 217.05 839.35
L 208.05 839.35 209.2 914.7 205.7 914.65 204.1 831
Q 204.4 826 205.05 821.75 206.55 811.45 210.05 804 212.2 799.4 214.95 796.3 218.05 792.7 222.05 790.8
L 224.15 789.95 228.5 788.95 229.65 788.85
M 261.95 770.95
Q 260.55 770.5 259.1 770.2
L 256.8 769.85 256.6 767.8
Q 256.463671875 766.5279296875 256.2 765.3 267.99765625 764.2263671875 283.35 762.8
L 283.3 769.1 290.3 769.15 290.25 769.3 290.3 770
Q 290.3234375 770.2234375 290.35 770.4
L 287.9 770.25
Q 286.4 770.2 284.95 770.25
L 282 770.35
Q 280.05 770.45 279.1 770.6
L 276.2 770.95
Q 274.25 771.2 273.3 771.4 270.189453125 772.0548828125 268.3 772.35
L 268.35 772.15 264.35 771.7 261.95 770.95
M 273.45 773
L 279.3 772.7
Q 279.4 772.7 282.2 772.4
L 290.4 770.75
Q 290.4888671875 771.127734375 290.6 771.35 290.75 772.05 291.2 772.65
L 292.05 773.7 293.2 774.55 294.4 775.15 296.55 775.75 296.45 809.3 295.5 809.3 295.2 777.75 294.85 777.75
Q 291.1 777.75 288.1 777.95
L 274.7 779.1
Q 272.85 779.25 271.35 779.6
L 267.45 780.25 267.15 810.3 261.5 810.95 261.65 781.3 267.2 777.8 267.45 777.6 268.2 773
Q 270.120703125 772.9572265625 273.45 773
M 273.1 781.8
L 272.8 781.9 272.5 809.2 269.15 809.2 268.85 781.45 271.55 780.85
Q 273.2 780.5 274.85 780.25
L 288.15 778.7
Q 291.35 778.5 294.55 778.4
L 294.55 778.65
Q 289.75 778.7 283.95 779.3 281.65 779.5 278.5 780.1 277 780.35 275.8 780.75
L 274.45 781.15 273.1 781.8
M 274.1 782.75
L 276.15 781.85 278.7 781.15
Q 280.45 780.75 284.05 780.15 288.45 779.45 294.55 778.9
L 294.5 793.45
Q 294.5 793.55 294.2 808.2
L 274.3 808.75 274.1 782.75
M 308.9 765.7
L 309 765.65 308.95 760.3 352.05 756.05
Q 351.9087890625 757.876953125 351.75 760.05
L 321.5 764 321.45 765.95
Q 321.3 767.2 321.25 767.4
L 321.1 768.1 320.6 769.45 319.85 770.7 318.9 771.75 318.35 772.25 317.15 773.05 315.85 773.6 315.45 773.7 315.5 774.05 323.75 949.5 327.35 950.85 314.45 951.9 294.15 951 297.95 947.5 298 947.2 298.35 936.4
Q 298.4 929.2 298.3 925.6
L 298 914.9
Q 298 914.85 297.85 904.15
L 297.65 813.4 298.1 813.4 298.1 809.3 297.65 809.3 297.6 774.9 297.15 774.85 295.95 774.6 293.7 773.7 292.75 773 292.35 772.6 292 772.1
Q 291.6 771.55 291.5 771.05 291.35 770.75 291.25 769.95
L 291.2 769.35 291.35 768.2 290.8 768.25 289.45 768.25 308.9 765.7
M 308.75 760.35
L 308.7 765.45 284.15 768.3 284.1 762.75
Q 285.486328125 762.6291015625 286.9 762.5
L 308.75 760.35
M 322.45 766
L 322.5 764.9 351.7 761.25
Q 351.65078125 762.38046875 351.6 763.6
L 351.55 764.45 352.45 764.35
Q 352.5572265625 764.3390625 352.65 764.3
L 354.9 765.1 355 765.45 355.3 766.05
Q 355.55 766.6 356.05 767.15
L 357.05 768
Q 357.4 768.3 358.2 768.7 358.75 769 359.4 769.15
L 360.6 769.5 362.5 769.7 362 804.6 359.55 804.7 359.5 804.15 359.25 788.8
Q 359.15 783.7 359.15 773.45
L 359.15 773.1 358.85 773.1
Q 353.45 773.05 345.35 773.4
L 338.6 774 333.55 775 331.85 775.65 331.5 775.75 331.15 807.65 353.05 807.05 318.15 809 318.1 808 329.25 806.9 329.2 806.7 318.05 807.15 316.45 774.35 317.6 773.85 318.95 772.95 319.55 772.45
Q 320.05 772 320.1 771.85
L 320.6 771.25 321.45 769.85
Q 321.7 769.45 321.75 769.1
L 322.05 768.35 322.2 767.6
Q 322.35 766.55 322.45 766
M 217.6 728.85
L 321.2 661.7 437.05 703.75 432.95 703.45 432.75 703.45 351.95 712.7
Q 334 714.8 325 715.85
L 217.6 728.85
M 528.45 538.95
L 528.45 541.2 532.05 540.35 532.8 548.25 533.7 548.15 533.25 634.9 531.8 635 531.8 635.2 533.25 635.1 533.2 649.65 524.4 650.15 523.85 638.6 503 641.65 502.45 640.65 506.8 639.95 506.8 639.6 522.5 637.75 522.7 570.45 523.1 570.35 523.1 564.55 522.75 564.65 522.75 560.25 494.95 567.5 496.9 655.55 489.4 655.5 488.3 549.5 492.1 549.05 491.95 547.75
Q 491.9 546.9 491.95 546.05
L 528.45 538.95
M 508.8 511.55
Q 509.75 511.5 511.65 511.3 514 511.15 517.15 511.7 520.9 512.5 523.85 514.45 521.65 513.15 519.15 512.5 516.4 511.9 513.85 511.95 511.75 512.05 511.15 512.2 509.7 512.4 508.5 512.8 503.6 514.45 499.85 518.95 496.6 522.8 494.45 527.95 492.3 532.9 491.35 537.95 490.6 541.6 490.45 544.65
L 489.95 544.75 490.3 547.65 485.8 548.1
Q 485.85 546.05 486.15 543.3 486.5 539.95 487 537.65 487.55 534.9 488.35 532.1 489.25 529.25 490.3 526.8 491.8 523.65 493 521.85 494.8 519.15 496.55 517.5 498.55 515.55 500.95 514.15 503.85 512.65 506.1 512.1
L 508.8 511.55
M 521.65 566.45
L 521.6 569.2 505.95 572.9 505.35 573 505 638.35 503.55 638.6 503.15 571.45 521.65 566.45
M 506.95 574.25
L 521.95 570.65 521.5 636.85 506.8 638.55 506.95 574.25
M 613.85 558.95
L 640.05 557.9 641.45 629.35 613.65 627.45 613.85 558.95
M 352.9 759.9
L 352.85 759.9
Q 352.6859375 757.8091796875 352.45 756
L 358.05 755.45
Q 358.69921875 755.4650390625 359.4 755.45 359.5 755.45 366.5 755.15
L 379.7 753.9
Q 379.75 755.85 380 759
L 369.95 760.7 353.05 762.75
Q 352.9857421875 761.68359375 352.9 760.65
L 352.9 759.9
M 355.9 764.15
L 355.45 764
Q 357.4732421875 763.762890625 359.55 763.45 361.2 763.25 363.05 762.85
L 373.55 760.85
Q 373.7 760.85 377.1 760.4
L 381.15 760.05 381.15 759.5
Q 381.4322265625 755.3619140625 381.5 753.15
L 417.85 749.6 417.8 754.6 393.5 756.2 392.75 760.05 386.05 766.95 385.9 767.05 385.75 801.75 385.85 801.55 385.75 801.8 385.75 801.75 385.15 802.75 384.4 802.8 383.8 805.2 383.15 806.35 385.85 806.05 385.95 806.05 385.3 950.9 391.65 956.15 380.5 958 380.45 958
Q 372.25 957.1 367.8 956.75
L 358.05 955.9 362 953.55 363.75 768.45 360.85 768.25 359.75 768 358.7 767.6 357.8 767.05 356.95 766.3
Q 356.5 765.7 356.35 765.45
L 356.1 765 355.9 764.15
M 342.5 774.7
Q 340.6 775 339.75 775.25
L 338.4 775.65 336.75 776.4 336.5 805.5 333.1 805.65 332.8 776.65 333.9 776.2 338.75 775.05
Q 341.75 774.6 345.4 774.25 350.85 773.75 358.55 773.75
L 358.55 774.05
Q 354.45 773.8 347.95 774.1
L 342.5 774.7
M 338.85 776.8
L 340.1 776.4
Q 340.75 776.2 342.65 775.75
L 348 774.95
Q 352.7 774.4 358.55 774.25
L 358.2 803.5
Q 351.5 803.6 348.1 803.75 344.85 803.8 338.3 804.05
L 338.05 777.2 338.85 776.8
M 393.35 760.25
L 394 756.8 417.9 754.9 417.95 755.2 423.35 754.95 423.4 755 423.65 755.9 424.25 757.15 425 758.3 425.95 759.3 427.1 760.15 427.7 760.45
Q 427.8 760.55 428.35 760.75 428.55 760.8 429 760.95
L 429.65 761.15 430.65 761.3 430.35 799.4
Q 429.0951171875 799.5072265625 427.9 799.55
L 427.4 770.2 427.05 770.2
Q 422.1 770.7 419.65 770.95
L 396.9 772.9 396.85 773.45 396.5 802.3 386.45 802.7 386.85 801.95 386.7 767.4 393.35 760.35 393.35 760.25
M 431.4 760.95
L 431.45 760.6 429.8 760.4 429.2 760.25 428.6 760
Q 428.2 759.9 428.05 759.75
L 427.5 759.45
Q 426.9 759.1 426.5 758.7
L 425.65 757.8 424.95 756.75 424.45 755.6
Q 424.3 755.2 424.25 754.95
L 444.2 754.1 454.3 757.3 452.9 758.5
Q 451.35 759.7 450.7 760.15
L 450.45 760.3 454.55 954.4 454.75 954.7 460.2 961.4
Q 459.0033203125 961.580078125 457.2 961.95
L 452.4 962.7
Q 451.55 962.6 445.3 961.7
L 434.55 960.7 427.3 960.65
Q 426.1697265625 960.6970703125 425.3 960.75
L 431 955.65 431.05 923.75 431.5 923.75 431.55 916.75 431.05 916.7 431.15 809.5
Q 431.16953125 806.34296875 431.15 803.3
L 431.8 803.3 431.95 799.35 431.2 799.35
Q 431.358203125 774.5091796875 431.4 760.95
M 418.1 754.3
L 418.05 749.55 444.25 747 450.15 748.2 450.95 749.85 449 750.55 451.15 750.25 453.9 755.75 444.5 752.9 418.1 754.3
M 407.7 774.05
L 414.55 772.5
Q 417.1 772.15 420.25 772
L 425.95 772 426 771.8
Q 423.15 771.5 421.05 771.45 425.65 771 426.75 770.9
L 426.5 798.95 415.35 799.2
Q 407.25 799.4 404.45 799.5
L 404.2 775.55 405.1 775.1
Q 405.45 774.9 406.35 774.55
L 407.7 774.05
M 407.7 772.9
L 407.35 772.95 402.9 774.75 402.65 801.1 398.4 801.4 398.05 773.95 407.7 772.9
M 470 754
L 472.15 755.35 472 777.95 471.85 777.95 471.9 797.6 473.1 798.35 459.25 798.95 456.3 799.4
Q 455.3 799.5 454.8 799.65
L 452.55 800.2 451.5 760.85
Q 452.7 759.95 453.55 759.25
L 454.65 758.3 455.3 757.6 456.5 758 452.6 750.05 460.95 748.9 460.25 753.75 460.55 753.8 470 754
M 451.1 746.9
L 451.05 746.9 451.3 710.35 543.45 716.95 452.3 749.35 451.1 746.9
M 438.2 703.85
L 448.15 702.8 562.3 709.85 558.25 710.95
Q 555.2103515625 711.9333984375 553.55 712.55
L 438.2 703.85
M 620.75 682.7
L 620.95 682.6
Q 621.0783203125 682.5451171875 621.2 682.5 624.0009765625 682.2208984375 626.8 681.95
L 626.7 682.1 629.05 683.55 631.3 710.45 562.8 688.1 620.5 682.7 620.75 682.7
M 543.55 716.95
Q 543.47265625 717.01171875 543.4 717.05
L 543.5 716.95 543.55 716.95
M 637.1 720.95
L 637.1 720.7 638.4 721.15 637.1 720.95
M 529 971.25
L 559.15 970.65
Q 565.35 970.6 574.2 970.25 579.2 970.1 589.25 969.7
L 611.8 968.85
Q 614.3 968.75 619.35 968.55 621.85 968.4 626.9 968.1 631.35 967.8 634.4 967.45
L 649.4 965.7
Q 666.05 963.3 678.95 959.35
L 686.1 956.9
Q 687.2 956.55 693.15 954
L 699.9 950.35
Q 702.7 948.5 703.05 948.2 703.972265625 947.4623046875 704.35 947.1
L 704.75 962.15
Q 704.6478515625 962.4783203125 703.7 963.9 703.6 964.05 702.35 965.45 701.15 966.65 700.85 966.85 698.5 968.95 694 971.55 687.95 974.45 686.45 975
L 674.6 979
Q 671.9 979.7 670.6 980.05
L 666.55 981.05
Q 663.85 981.75 662.45 982 657 983.05 654.25 983.55 649.45 984.45 646.05 984.85
L 637.8 986.05
Q 637.25 986.1 629.5 986.95
L 604.6 989.1
Q 601.8 989.3 600.45 989.35
L 579.6 990.25 479.5 991.75 471.15 991.6
Q 464.15 991.45 462.8 991.4 457.25 991.2 454.5 991
L 450.4 990.65
Q 449 990.55 448.35 990.4
L 446.9 990.2 446.55 990.1 446.25 990.05 229.1 975.8 229 955.65 239.85 957
Q 240.45 957.1 243.7 957.35
L 252.95 958.1 253 958.1 254.25 958 293.3 960.65 293.3 960.45 330.6 962.8 330.6 962.6 348.45 963.45 353.35 964 353.35 964.25 384.95 966.6 394.7 966.6 394.7 966.45 423.1 968.35 423.15 968.85 453.75 970.4
Q 456.75 970.6 461.25 970.75 463.75 970.85 468.8 971
L 529 971.25
M 471.95 800.8
L 472 801.2 472.8 843.45
Q 472.85 850.5 472.75 864.6 472.65 871.65 472.65 885.8
L 472.75 906.95
Q 472.75 913.95 472.95 928.05
L 473.9 969.35
Q 470.6556640625 969.287109375 468.8 969.25 465.6533203125 969.1712890625 463 969.1
L 463.05 962.85 463.75 962.8 463.05 961.95 463.05 961.7 462.85 961.4 456.65 953.7 452.55 800.4 454.85 800
Q 455.1 799.95 456.35 799.8
L 457.8 799.65 469.7 799.35
Q 472.041015625 799.40859375 473.65 799.45
L 471.95 800.8
M 430.35 803.35
L 430.25 814.45
Q 427.675390625 814.5265625 413.15 815.05
L 394.85 815.8 394.8 816.45 394.7 867.55 395.2 918.35 390.5 919.45 390.5 923.35 429.4 923.7 429.2 954.85 423.05 960.3 422.7 960.55 423 966.45
Q 416.6384765625 966.1169921875 412.95 965.9 402.7 965.45 397.55 965.2 396.006640625 965.1392578125 394.6 965.05
L 394.05 955.5 393.7 955.25 387.35 950 387.1 805.95 430.35 803.35
M 414.2 802.45
Q 416.75 802.3 420.35 802.1
L 387.1 804.95 387.1 804.75 385.2 805 385.95 803.55 396.5 802.55 396.5 803.35 414.2 802.45
M 396.3 829.25
Q 396.3 821.35 396.25 817.1
L 426.05 815.05 402.7 817.9 402.7 818.45
Q 402.65 826.6 402.75 843
L 403.7 917.6 429.45 918.25 429.4 922.3 391.15 922.7 391.15 920 395.8 918.85 395.8 918.6
Q 395.85 901.6 396 893.1
L 396.3 829.25
M 339.3 821.05
L 338.8 821.1 338.95 869.9 339.95 918.55 360.35 918.55 360.3 920.75 325.6 921.4 325.6 921.3 330.9 919.35 330.95 918.75 331.6 869.35
Q 331.75 848.75 331.7 844.65
L 331.7 820.6 360.55 819.2 360.3 819.85
Q 356.6 820 349.85 820.4 342.85 820.8 339.3 821.05
M 360.4 820.05
L 360.45 820.05 360.85 819.1 360.9 818.95 330.4 819.25 329.85 844.65
Q 329.75 848.8 329.5 869.35
L 329.2 918.15 324 920.1 324 923.05 360.3 921.5 359.9 952.35 354.4 955.55 354.05 955.55 354 955.8 353.85 955.9 353.45 962.3 330.5 960.6 330.25 950.55 325 948.6 318.2 809.85 361.95 808.75 360.35 917.85 340.65 917.85 340.7 869.9 339.95 822.1 360.4 820.05
M 355.6 962.3
L 355.9 957.5 380.55 959.05 380.7 959.05 386.85 957.6
Q 389.353515625 957.06640625 391.9 956.4
L 392.05 956.5 392.5 964.55 385.05 964.55 355.6 962.3
M 328.8 951.4
L 328.95 951.45 329.15 961.05 293.2 958.6 292.95 952.7 314.45 952.85 328.8 951.4
M 429.45 916.65
L 405.6 915.75 403.9 818.95 430.25 814.75 429.45 916.65
M 441.6 963.2
Q 444 963.3 445.2 963.25 451.65 963.25 452.45 963.3
L 457.3 963.1
Q 459.54296875 963.1 461 963
L 461 968.6 441.9 967.75 428.3 966.75
Q 426.50859375 966.65390625 424.85 966.55
L 424.6 961.35 424.7 961.25 427.2 961.8 441.6 963.2
M 296.05 811.35
L 296.05 811.45
Q 290.05 811.6 278.9 812.05 278.6521484375 812.05 261.5 812.75
L 261.5 811.85 267.15 810.85 267.15 811.2 296.05 811.35
M 296.45 823
L 296.45 824.35 285.8 824 296.45 823
M 287.9 824.75
Q 294.812109375 824.6341796875 296.45 824.6
L 296.3 919.05 280.65 919.15 279.45 824.85 287.9 824.75
M 296.45 813.4
L 296.45 822.65 272 823.9 271 919.2 267.5 919.4 267.5 920.95 296.45 922.55 296.55 925.65
Q 296.65 929.25 296.6 936.35
L 296.5 941.7
Q 296.4 945 296.3 946.75
L 291.7 950.9 291.1 950.9 291.35 958.5 279.3 957.2
Q 269.6 956.2 267.1 955.95
L 266.8 947.95 265.75 948.05 260.8 942.75 261.5 813.8 278.9 813.65
Q 290.4310546875 813.555078125 296.45 813.4
M 273.3 825.1
L 278.35 824.65 278.55 860
Q 278.55 863.95 278.75 871.9
L 279.4 895.65
Q 279.7 903.55 279.75 907.55
L 280 919.45 280.05 919.75 295.95 919.8 295.8 921.75 272.7 919.85 273.4 848.4
Q 273.4 833.1 273.3 825.1
M 229 948.7
L 229.1 948.55 251.5 951.2 251.65 951.2 264.95 950.1 265 956.4 258.3 956.8 251.05 956.5
Q 247.4296875 956.302734375 243.8 956.1 243.612109375 956.09140625 243.4 956.05 242.7359375 956.0392578125 242.1 956
L 229 954.95 229 948.7
M 233.95 924.05
L 233.35 942.25 131.3 941.4 124.55 942.05 124.6 926.8
Q 125.4904296875 926.7935546875 126.45 926.75
L 233.95 924.05
M 84.45 792.7
L 84.1 792.75 4.5 797.7 4.5 797.65 1.45 797.85 1.45 793.75 6.6 793.8 6.6 793.55 84.85 788.55 125.65 793.65 125.4 922.75 123.1 925.9
Q 120.370703125 926.0630859375 116.55 926.3
L 81.35 928.3 84.45 792.7
M 49.45 929.2
L 54.05 929.35
Q 55.6 929.4 58.65 929.5 61.75 929.55 67.9 929.45 70.8490234375 929.403125 76.35 929.1
L 77.1 947 3.75 944.35 3.75 928.2 6.55 928.2
Q 7.2314453125 928.2564453125 7.9 928.3
L 12.55 928.6
Q 14.05 928.7 17.15 928.8
L 31 928.45
Q 33.25 928.4 35.6 928.45
L 40.2 928.65
Q 48 929.15 49.45 929.2
M 58.7 927.35
L 49.45 927.45
Q 43.3 927.65 40.2 927.75
L 35.6 927.85
Q 33.35 927.85 31 927.7
L 12.55 927.1
Q 9.45 927.2 7.95 927.3
L 7.35 927.35 4.5 798.95 83.8 793.4 79.9 927.6 76.3 927.95 76.3 928.2 67.9 927.65
Q 63.35 927.45 58.7 927.35
M 78.8 946.45
L 77.95 929.4 81.35 928.95 81.35 928.6 116.55 927.15
Q 118.923828125 927.078125 123 926.9
L 123.1 942.2 78.8 946.45
M 1020.95 807.4
L 1020.8 807.25 1005.4 819.95 1005.3 820.05 969.5 819.8 983.45 806.95 1021.05 805.6 1035.95 818.85 1007 819.9 1020.8 807.95 1032.9 818 1033.05 817.85 1020.95 807.4
M 1000.05 827.45
L 981.5 827.1 981.5 827.3 999.45 828 998.85 914.1 1003.95 914.9 999.1 915.9
Q 996.7 916.25 995.5 916.45
L 980.45 917.45 980.65 825.6 1003.5 825.65 1002.75 912.9 1000.6 912.6 1000.05 827.45
M 936.1 801.5
L 935.8 838.3 936.25 856.7
Q 936.35 861.35 936.25 865.9
L 935.5 921.15
Q 935.6 933.25 935.75 939.4
L 934.05 944.05 934.05 944.2
Q 934.05 944.2330078125 934.05 945.4
L 927.65 945.9 927 805.8 923.6 803.5 923.6 810.1 896.1 810.05 896.1 814.75 896.4 814.8 921.15 816.3 921.15 940.1 911.2 941.75 905.9 942
Q 905.35 942.05 904.15 941.95
L 895.35 941.05 894.25 940.8 894.3 802.35 929.2 802.3 930.35 795.45 936.45 793.15
Q 936.2734375 796.1669921875 936.1 801.5
M 841.6 964.7
L 841.5 948.15 853.35 948.25 853.25 948.35 853.55 965.1 841.6 964.7
M 840.65 948.15
L 840.5 964.65 807.35 963.6 806.9 947.85 840.65 948.15
M 885.1 948.55
L 885.4 949.45 885.25 966.1 855.2 965.15 855.05 949.25 856.15 948.3 885.1 948.55
M 886.25 949.2
L 886 948.55
Q 890.6595703125 948.4326171875 899.45 948.1
L 916.15 947.2 917.6 947.4
Q 917.65 947.4 920.7 947.55
L 926.95 947.55
Q 928.5 947.55 930.05 947.4 933.05 947.1 933.15 947.1
L 934.1 946.9
Q 934.1982421875 949.612109375 934.35 955.05
L 934.65 964.1
Q 931.1318359375 964.6798828125 927.35 965.1 913.7 966.7 899.8 966.6
L 886.35 966.15 886.25 949.2
M 960.35 940.25
L 960.55 940.15 961.5 947.1
Q 961.5568359375 947.4974609375 961.6 947.9
L 961.65 949.75
Q 961.95 952.9 959.5 955.4 957.65 957.2 954 958.9 949.25 961.1 940.95 962.95 938.0615234375 963.559375 935 964.05
L 935.55 946.6 954.5 942.65
Q 956 942.2 957.5 941.6 959.25 940.85 960.35 940.25
M 712.55 961.15
Q 712.51640625 961.15 710.95 961.2
L 706.45 961.2 706.25 945.95 732.4 946.55 732.05 961.2 712.55 961.15
M 735.6 946.6
L 735.5 946.55 805.05 947.85 805.65 963.55 733.05 961.2 732.8 946.55 735.6 946.6
M 31.45 829.6
L 31.25 829.6 30.85 850.85
Q 30.6 868.6 30.6 872.15
L 30.55 915.55 62.4 915.15 62.35 904.1
Q 62.25 897 62.3 893.45
L 62.9 828.7 33.65 828.55 34.1 910.75 34.15 911.35 59.4 910.85 59.4 910.65 35.25 910.2 35.7 830.6 61.1 830.5 61.6 914.35 32.2 913.95 31.45 829.6
M 54.6 811.1
L 54.45 810.95 47.25 811.4 47.25 811.6 54 812
Q 57.75 816.25 60.8 819.5 63.7 822.65 64.3 823.25
L 66.2 825.25 56.75 825.3 48.35 818.4
Q 41.85 813.15 39.7 811.25
L 39.45 811.1 39.3 811.25 26.45 821.95
Q 23.65 824.35 22.3 825.6
L 20.5 827.2 26.9 827.1 27.1 826.9
Q 30.7 823.8 33.4 821.3
L 39.55 815.45 39.4 815.25 26.25 825.4 25.15 825.4 39.5 811.9
Q 43.6 815.55 47.55 819.35
L 56.1 827.2 71.15 827.35 62.1 818.25
Q 58 814.25 54.6 811.1
M 186.65 816.1
Q 185.4 815.4 183.4 814.8 179.7 814 176.5 814.8 173.15 815.75 170.85 818.85 169.1 821.2 167.95 824.95 167.1 828 166.7 831.45 166.4 834.25 166.35 838 166.35 840.2 166.4 844.5
L 167.05 909.2 167.25 909.2 167.95 844.5
Q 167.95 840.15 168 838 168.05 834.3 168.4 831.65 168.75 828.65 169.7 825.5 170.7 822.2 172.35 820 174.2 817.4 177 816.7 178.35 816.4 178.4 816.4
L 179.95 816.35
Q 181 816.35 182.9 816.75 184.8 817.35 185.65 817.85 187 818.65 188 819.65 190 821.75 191.2 824.75 192.25 827.2 192.75 830.75 193 832.5 193 833.85
L 193.15 913.85 167.85 914.05 167.85 912.65 174.7 912.6 174.7 912.75 179.05 912.75 179.05 912.6 192.05 912.5 190.65 845.05
Q 190.65 841.35 190.55 839.45 190.45 836.6 189.95 833.85 189.35 830.65 188.05 828.45 187.25 827.1 186 826.25 185.25 825.85 184.55 825.7
L 183.8 825.55 183.05 825.55
Q 181.5 825.65 180.15 826.45 179 827.1 177.95 828.5 176.5 830.5 175.7 833.8 175.1 836.25 174.85 839.4
L 174.75 845.05
Q 174.75 845.1 174.6 867.35
L 174.65 911.35 166.5 911.3 166.45 915.45 194.9 915.65 195.05 833.85
Q 195.05 832.35 194.8 830.5 194.35 827.05 193.1 824 191.7 820.6 189.45 818.25 188.05 816.95 186.65 816.1
M 178.35 841.1
L 178.15 841.1 177.45 911.2 176.25 911.2 176.35 867.35
Q 176.2 845.1 176.2 845.05
L 176.2 839.5
Q 176.35 836.4 176.9 834.1 177.75 830.85 178.9 829.15 180.65 826.7 183.1 826.65
L 183.45 826.6 183.75 826.6 184.35 826.7
Q 184.8 826.75 185.5 827.15 186.3 827.6 187.25 828.95 188.35 830.65 189.1 834 189.65 836.4 189.8 839.5
L 191 911.45 179.05 911.4 178.35 841.1
M 241.45 740.65
L 240.3 761.7 317.35 752.7 317.05 732.05 323.9 731.05 324.4 751.55 338.25 750 338.2 729 346.2 727.8 346.2 749.2 384.3 744.85 383.95 722.4 390.1 721.9 390.5 744.85 407.6 743.15 406.55 719.35 413.1 718.4 414.05 742.45 429.55 740.45 429.4 715.8 440 714.25 440.25 739.85 448.4 739.8 448.4 739.6 440.65 739.5 440.95 713.8 445.65 713.05 445.6 712.85 440.95 713.45 440.95 713.1 428.3 714.8 428.3 715.1 414.75 716.9 414.7 716.45 404.75 717.85 404.8 718.2 382.5 721.1 382.5 721.2 241.45 740.65
M 315.85 732.25
L 315.95 751.45 242.45 759.45 243.45 742.5 315.85 732.25
M 391.55 721.15
L 404.85 719.2 405.75 741.6 392.2 742.95 391.55 721.15
M 325 730.9
L 337.55 729.1 337.5 749.35 325.3 750.55 325 730.9
M 346.9 748.4
L 346.85 727.7 382.55 722.45 383.2 743.95 346.9 748.4
M 428.1 739.2
L 415.6 740.7 414.75 717.7 428.3 715.7 428.1 739.2
M 594.9 302.05
Q 594.95 302.05 595 302.05
L 594.95 302 594.9 302.05
M 594.95 301.95
L 594.9 301.95 594.95 302 594.95 301.95
M 594.8 301.85
L 594.8 301.9 594.9 301.95 594.8 301.85
M 743.15 842.5
Q 743.1 850.3 743 865.95
L 742.6 912.05 738.25 912.05 738.35 918.7 781.65 918.1 781.65 917.9 739.7 917.3 739.75 913.55 742.6 913.6 742.6 913.65 749.35 913.7 749.35 913.65 788.15 913.8 790.35 818.3 743.1 818.7 743.15 842.5
M 746.3 822.75
L 746.1 822.75
Q 746.1 830.2 746.3 845.3
L 747.05 890.3
Q 747.4 907.2 747.55 911.9 747.5 911.95 747.55 912
L 744.3 912 743.9 865.95
Q 743.8 850.3 743.75 842.5 743.8 827.2 743.8 819.4
L 788.8 819.85 786.2 911.8 749.3 912
Q 749.2 908.5 748.7 890.25
L 746.3 822.75
M 688.65 818.95
L 688.65 819.15 693.85 819.4 693.3 854.2
Q 693.3 862 693.4 865.95
L 693.7 877.65
Q 693.85 883.5 693.85 889.35 693.9 893.3 693.8 901.1
L 693.6 912.2 689.4 912.15
Q 689.6 901.2 689.65 890.3
L 689.7 867.8
Q 689.7 867.7 689.4 845.25
L 688.75 822.75 688.55 822.75 687.9 845.25
Q 687.6 867.75 687.6 867.8 687.55 873.45 687.6 879.05
L 687.65 890.3
Q 687.75 901.55 687.95 912.8
L 687.95 913.55 694.8 913.35 694.75 912.8 694.55 901.1
Q 694.45 893.25 694.5 889.35 694.5 883.5 694.65 877.65
L 694.95 865.95
Q 695.05 862 695.05 854.2
L 694.5 818.75 688.65 818.95
M 529.4 839
Q 529.15 822.85 529 814.35
L 571.85 814.15 572 919.3 548.05 919.05
Q 532.65 918.85 524.5 918.85
L 523.75 813.3 523.55 813.3 522.8 919.7 522.85 920.55 523.65 920.55
Q 531.75 920.55 548.05 920.35
L 572.8 920.1 573.55 812.45 526.85 812.25 526.85 813.35
Q 526.95 821.9 527.3 839.05
L 529.1 916.75 568.45 915 568.45 914.8 530.35 915.5 529.4 839
M 611.95 807.8
L 611.95 808 665 810.2 663.55 892.15
Q 663.45 901.15 663.25 918.95
L 615.4 919.35 614.25 814.15 660.3 816.8 657.5 915.4 620.6 914.7 618.7 816.75 618.5 816.75 618.85 916.45 659.45 917.45 662.15 815.05 612.95 812.75 614.6 919.7 614.65 920.1 664.75 920.45 666.3 808.95 665.7 808.9 611.95 807.8
M 652.85 790.3
Q 652.3 790.3 648.3 790.85
L 641.6 792.55 637.35 794.4 635.3 795.55
Q 633.2 796.85 631.55 798.35 629.75 800.05 628.7 801.55
L 610.3 802.1
Q 610.75 801.65 611.3 801.2
L 612.85 800.05 617.85 797.15 621.4 795.6
Q 622.6 795.1 625.1 794.3
L 628.9 793.3
Q 632 792.55 632.7 792.45
L 652.4 790.25
Q 655 790.05 656.35 790
L 666.25 790.05
Q 667.7 790.3 668.1 790.5
L 668.25 790.4
Q 667.4 789.9 666.3 789.7 665 789.5 664.3 789.4
L 656.3 789.05
Q 653.65 789.1 652.3 789.1
L 644.35 789.4 632.4 790.6
Q 632.2 790.65 628.45 791.35
L 624.5 792.35
Q 621.95 793.15 620.65 793.65
L 615.1 796.15
Q 613.55 797.05 613.35 797.2
L 609.95 799.55
Q 608 801.25 606.95 802.6
L 605.65 804.35 629.6 803.2 629.85 802.8
Q 630.95 801.15 632.65 799.5
L 634.3 798.05 638 795.6 642 793.65 646.25 792.25
Q 647 792.1 648.45 791.75 652.5 791.1 652.9 791.05
L 655.15 790.85 661.95 790.95
Q 662.7 790.95 666.45 791.45 667.6 791.6 668.65 791.9
L 673 793.05
Q 674.05 793.35 675.15 793.8
L 681.3 796.6
Q 681.95 797 683.25 797.75
L 688.7 801.65
Q 689.3 802.1 690.4 803.1 691.4 804 692.2 804.8
L 667.45 805 666.95 804.25
Q 666.55 803.55 666.25 803.2 665.1 801.55 664.7 801.15
L 663.9 800.15 661.1 797.5 657.95 795.3 654.55 793.6
Q 653.35 793.15 652.15 792.85
L 652.1 793.05
Q 653.05 793.35 654.4 794
L 658.6 796.6 661.4 799.05 663.8 801.85
Q 664.15 802.25 665.2 803.9 665.35 804.1 665.85 804.95
L 666.65 806.35 696.1 806.55 694.85 805.15
Q 693.65 803.7 691.5 801.85
L 689.7 800.4 683.85 796.65
Q 683.65 796.5 681.8 795.6 680.6 794.95 679.75 794.65
L 675.45 793
Q 674.6 792.65 673.25 792.3
L 668.8 791.25
Q 666.95 790.9 666.55 790.85 662.6 790.35 662 790.3
L 655.15 790.15 652.85 790.3 Z"/>
</g>
</defs>

<g transform="matrix( 1, 0, 0, 1, 0,0) ">
<use xlink:href="#Layer0_0_FILL"/>
</g>
</svg>
