
<svg xmlns="http://www.w3.org/2000/svg" version="1.1" xmlns:xlink="http://www.w3.org/1999/xlink" preserveAspectRatio="none" x="0px" y="0px" width="594px" height="761px" viewBox="0 0 594 761">
<defs>
<g id="Layer0_0_FILL">
<path fill="#522810" stroke="none" d="
M 385.45 642.35
L 385.6 639.1 385.65 638.8 352.15 640.95 351.75 670.4 351.9 700.1 384.05 700.95 383.7 685.9
Q 383.5 676.6 383.5 671.9
L 383.55 657.85
Q 383.6 653.2 383.7 650.85
L 383.9 643 360.35 642.55 385.05 639.45 385.15 642.35 385.45 642.35
M 354.65 643.2
L 355.5 643.1 356.15 684.05
Q 356.35 688.5 356.7 697.45 355.7 697.35 354.85 697.35
L 354.65 643.2
M 357.9 670.65
L 358.2 645.2 382.2 644.75 382.35 650.85
Q 382.45 653.2 382.5 657.85
L 382.55 671.9
Q 382.55 676.6 382.35 685.9
L 382.1 698.85
Q 379.25 698.7 368.25 698 361.45 697.65 357 697.45 357.25 692.95 357.55 684.05 357.85 675.05 357.9 670.65
M 352.15 489.55
Q 352.05 482 352.1 478.2
L 352.5 465.85 338 468.8 338.5 499.95
Q 338.55 501.65 338.8 505 338.85 506.6 339.1 509.8 336.5 510.3 334.9 510.65
L 333.6 510.95 333.65 515.45 352.9 513.3 352.15 489.55
M 343.9 481.75
Q 343.65 475.7 343.5 472.5
L 348.9 471 348.85 470.7 342.4 471.65 341.35 509.4
Q 340.3 509.55 339.45 509.75
L 339.75 505
Q 340 501.65 340.05 499.95
L 340.55 470.85 350.85 468 351 472.55
Q 351.15 478.1 351.15 478.2 351.2 482 351.1 489.55
L 350.4 511.05 344.55 511.45 343.9 481.75
M 230.95 649.7
L 222.9 649.4
Q 218.1 649.3 215.75 649.25
L 214.95 649.25 214.9 648.15 232.15 647.5 232.35 650.85 232.65 650.85 232.85 646.75 232.5 646.75
Q 226.25 646.4 223.1 646.3
L 212.7 645.95 212.35 660.45
Q 212.2 667.15 212.2 673.8
L 212.35 702 231.2 701.65 230.8 688.05
Q 230.6 681.85 230.5 675.55
L 230.55 663.05
Q 230.8 654.7 230.9 650.55
L 230.95 649.7
M 229.2 651.5
Q 229.3 655.6 229.5 663.05
L 228.95 699.4 221.9 699.25
Q 217.75 699.15 215.25 699.15
L 215.3 692.95 215.6 698.3 215.9 698.3 216.85 674.4
Q 217.05 666.5 217.05 662.5
L 217.05 651.85 229.2 651.5
M 284.25 642.75
L 284.2 642.45 275.75 642.65
Q 275.65 642.65 267.3 642.95
L 266.55 643 265.75 685.9
Q 265.75 685.95 265.9 699.9
L 265.9 701.45 267.35 701.4
Q 279.25 701.3 285.2 701.15
L 286.5 701.15 285.75 672.65
Q 285.65 663.55 285.7 659
L 286.05 644.55 272.6 644.15 284.25 642.75
M 270.4 684.6
L 270.9 646.6 284.45 646.2 284.75 659
Q 284.8 663.55 284.7 672.65
L 284 698.7
Q 278.5 698.55 268.9 698.5 268.95 690.75 269 687.55
L 269.45 697.7 269.75 697.7 270.1 691.15
Q 270.35 686.8 270.4 684.6
M 268.4 644.6
L 268.35 645.35
Q 268.35 645.9 268.35 646.45
L 268.3 644.6 268.4 644.6
M 159.6 650.3
L 158.8 688.2 158.95 702.05 160.4 702.05
Q 165.35 701.95 175.25 701.8
L 176.55 701.75 175.8 676.5
Q 175.7 668.5 175.75 664.45
L 176.1 651.7 165.85 651.3
Q 166.6 651.2 167.45 651.1 174.15 650.25 174.45 650.2
L 174.4 649.9
Q 170.95 649.9 167.4 650.05
L 159.6 650.3
M 161.95 699.1
L 161.95 695.55 162.15 698.55 162.45 698.55 163.45 675.5
Q 163.6 669.75 163.6 664 163.7 661.1 163.6 658.2
L 163.55 653.65 174.5 653.3 174.8 664.45
Q 174.85 669.85 174.7 676.5
L 174.05 699.3
Q 166.4 699.15 161.95 699.1
M 43.4 498.25
L 40.6 499.95 37.85 500.85 37.35 505.6 37.45 505.6 37.45 505.65
Q 37.2 509.25 36.85 516.4
L 36 538
Q 35.9 541.6 35.7 548.75
L 35.7 549.2 33.5 549.7 33 552.85 33.15 553.05 34.45 555.35 44.7 552.8 44.65 552.55
Q 42.25 552.75 39.65 553.15
L 35.25 553.75 34.7 552.65 35.05 551.2 45.05 549.5 45.9 531.55
Q 45.9 531.5 46.05 525.9
L 46.15 503.4 47.2 502.25 47.3 502.1 47.3 498.3 43.95 499.15 43.4 498.25
M 41.05 500.85
L 41.1 500.85 43.15 499.55 43.5 500.2 46.4 499.5 46.35 501.75 46.5 501.6 46.35 501.9 46.35 501.75 45.25 502.85 45.15 503 45.15 503.2 43.55 525.8
Q 43.45 527.7 43.25 531.45 43.05 535.25 43.05 537.1
L 42.8 547.55 41.95 547.75 42.1 537.95
Q 42.1 537.9 42.25 527.5
L 42.05 506.55 41.75 506.55 40 527.4 38.95 546 39.45 516.5
Q 39.55 510.05 39.5 506.5
L 44.65 505.2 44.4 503.55 38.7 504.25 38.85 501.7 41 500.9 41.05 500.85
M 59.85 493.7
L 59.85 493.75 57.3 494.55 57 499.9 59.1 499.6 57 544.55 54.75 545.15 54.9 549.55 65.45 547.1 57.4 550.2 57.5 550.45
Q 60.7 549.65 67.1 547.85
L 67.55 547.7 67.65 545.2 57.7 546.8 67.4 544.45 67.8 532.05
Q 67.95 528.3 68.05 520.7 68.15 513.1 68.2 509.35
L 68.25 498.5 69 497.75 68.9 491.65 64.7 492.6 64.3 491.05 59.6 492.75 59.85 493.7
M 62.15 494.25
L 62.65 494.1 62.85 495.35 66.4 494.75 66.35 496.65 65.65 497.3 58.85 498 59.1 496.05 62.35 495.2 62.15 494.25
M 61.95 501.35
L 61.65 501.35
Q 61.25 504.85 60.65 511.8
L 59.9 522.25
Q 59.825 523.15 59.75 524.3
L 60.1 499.9
Q 64.2 498.9 65.55 498.6
L 64.85 520.6
Q 64.8 524.4 64.7 531.95
L 64.65 542.3 61.5 543.25 61.95 501.35
M 69.9 460.2
L 69.8 458.25 68.1 458.9
Q 64.75 460.2 64 460.55
L 59.4 462.5 59.65 465.9 60.25 465.75 60.15 468 60.85 480.25 59.75 480.75 59.75 480.95 60 482.4 60.3 482.4 60.5 481.3 69.7 479.5 70.1 469.35
Q 69.95 463.25 69.9 460.2
M 67.1 462
Q 67.1 462.6 67.05 463.2
L 60.75 464.55 60.85 463.5 64.65 462.6
Q 65.5 462.45 67.1 462
M 67 465.25
Q 66.9 468.45 66.9 469.35
L 67.2 477.65 66.75 477.8 66.65 477.5
Q 64.8 477.8 62.65 478.35
L 62.7 467.1 67 465.25
M 38.9 473.5
L 39.35 473.4 39.3 473.7
Q 39.15 475.2 39.15 476.75
L 39.7 487.25 40.75 486.9
Q 43.5 485.9 45.7 484.9
L 45.6 484.6
Q 44.1 484.65 41.5 485
L 41.65 482.95
Q 41.8 480.9 41.8 479.85
L 41.8 474.4 46.15 472.15
Q 46 476.2 46 477.2 45.95 478.7 46.05 481.6
L 46.25 485.1 43.05 486.15
Q 40.7 486.95 39.2 487.6
L 39.05 487 38.75 487 38.5 488.4 38.95 488.4 48.8 487.1 49.2 477.2
Q 49.2 475.8 48.95 468.4
L 48.85 466.55 39.25 470.1 38.7 470.35 38.9 472.8 38.9 473.5
M 40.05 472.2
L 40.1 471.35 46.2 470.1
Q 46.2 470.45 46.2 470.75
L 46.2 470.8 40.05 472.2
M 91.1 485.1
L 90.8 485.2 87.5 485.8 87 485.1 86.75 485.15 83.45 486.1 83.6 487.15 81.1 487.7 81.05 488.05 80.85 493.1 81.95 493.15 80.35 538 86.7 535.65 86.8 526.95
Q 86.9 521.65 86.85 518.95
L 86.85 502.55 84.35 503.75 84.45 503.95 86.45 503.15 84.8 534.3 82.45 535.1 83.45 493.9 87.15 492 86.7 490.75 82.7 492 81.9 492.05 81.95 488.4 84.4 487.7 84.3 486.6 86.75 485.9 87.2 486.5 90.6 485.85 90.95 489.2 89.95 490.7 89.85 490.75 89.85 490.85
Q 89.75 494.65 89.35 502.15
L 88.75 513.5
Q 88.4 519.75 88.35 524.8
L 88.15 535.6 78.85 538.65 78.95 542.65 90.2 538.6 90.15 538.4 80.05 541.25 80.05 539.5
Q 83.2 538.6 89.15 536.9
L 89.65 536.75 90.1 524.85
Q 90.35 518.5 90.35 513.5
L 90.5 491 91.5 489.4 91.6 489.3 91.55 489.2 91.1 485.1
M 93.75 450.35
L 92.1 450.95
Q 85.4 453.6 82.05 454.85
L 81.6 455 81.65 455.4 81.75 458.75 82.3 458.6
Q 82.5 458.55 82.65 458.5
L 83.35 470.1
Q 83.5 471.8 83.75 473.45 83.25 473.6 82.75 473.75
L 81.8 474.05 83.05 476.1 87.35 474.9 87.35 474.75
Q 90.1 474.4 92.75 474
L 93.85 473.8 94.1 467.5 93.75 450.35
M 91.15 453.8
L 91.15 454.85
Q 87.95 456 87.2 456.25 85.1 456.9 82.7 457.5
L 82.75 455.8
Q 85.75 455.1 91.15 453.8
M 85.25 460.35
L 91 458.9 91.05 471.5
Q 86.95 472.55 84.15 473.35
L 84.6 470.1
Q 84.85 468.3 84.9 466.5
L 85.25 460.35
M 159.4 223.6
L 159.55 227.35 153.15 226.6 152.8 226.6 152.75 229.4 159.7 231 159.5 236.3
Q 159.45 238.35 159.5 240.4
L 156.9 238.55 157 243 157.05 243.4 159.75 245.55 160.15 253.4
Q 159.7703125 253.508984375 159.35 253.7 158.4 254.2 157.8 255.3 157.55 255.9 157.55 256.4 157.55 256.5 157.7 257.3
L 157.7 257.45 157.75 257.5 157.75 257.65 157.85 257.85 158.55 259 159.25 259.9 158.45 264.85 156.7 270.05 154.2 274.95 151.05 279.1 146.7 281.45 142.65 284.8 141.75 285.75 139.35 288.9 137 293.6 136.95 293.75 136.95 293.9 136.75 295.8 136.9 298.7 137.3 300.65 137.6 301.6 138.4 303.45 139.45 305.1 140.75 306.65 132 312.6 127.6 308.55
Q 127.2 307.85 127 307.4
L 126 304.5
Q 125.7 303.4 125.65 302.9 125.4 301.85 125.35 301.3
L 124.8 294.8 124.7 294.8 124.7 294.55 124.6 293.65 124.6 293.35 124.75 291.95
Q 124.75 291.25 124.35 290.6 124.05 290.2 123.75 290 123.293359375 289.6802734375 122.85 289.65 123.0529296875 286.8556640625 123.2 283.95
L 125.05 285.05 124.95 281.1 123.65 281.05 123.75 272.35 130.3 272.25 130.3 269.85 123.85 270 123.7 265.1 121.5 265.15 121.6 270.05 115.5 270.05 115.45 271.85 121.05 272.1
Q 120.9 275.1 120.9 278.1
L 119.45 276.9 119.5 280.45 121.3 281.75 121.65 289.6
Q 121.2439453125 289.73359375 120.8 290 119.95 290.55 119.5 291.6
L 119.35 292.1 119.3 292.65
Q 119.3 293.1 119.5 293.5
L 120.15 294.8 120.15 294.8 120.1 296.3
Q 119.95 297.85 119.55 299.75 119.15 301.55 118.5 303.15
L 117 306.3
Q 116.25 307.4 116.05 307.65
L 114.95 308.8
Q 112.85 310.2 111.5 311.2
L 109.75 312.5 104.85 317.05 103.45 318.85
Q 102.65 319.95 102.2 320.8
L 101.2 323 100.85 324.15 100.55 326 100.55 327.5 100.6 327.8 100.7 329 101.4 331.35 102.6 333.5 103.35 334.45
Q 104 335.2 104.55 335.65
L 100.7 337.3 98.95 338.6 97.4 340.5 100.4 344.85 100.65 350.4 99.95 353.55 101.5 353.7 101.65 380.15 98.05 381 97.2 386.55 88 392.7 87.4 376 85.45 376 85.1 394.15 81.6 398.6 81.3 398.55 81.1 375.65 80.65 375.55 70.8 374.3 70.9 400.1 68.2 400.1 68.25 371.55 90 375.8 88.7 372.85 89.1 367.55 90.45 366.15 92.8 363 85.3 360
Q 85.6 359.75 85.7 359.65
L 86.25 359.1 87.2 357.8 87.9 356.45 88.45 354.95
Q 88.45 354.9 88.6 354.25 88.85 353 88.85 352.75
L 89 351.25 89 351.05 87.75 347.5 87.25 346.4 85.45 343.25 84.75 342.3 82.35 339.6
Q 81.65 338.9 81.45 338.75
L 77.95 336.1 76.4 333.25 74.6 328.25 73.7 323.45
Q 73.95 323.038671875 73.95 322.45
L 73.95 321.95 73.85 321.05 73.85 320.75 74 319.35
Q 73.85 318.45 73.6 318 73.25 317.55 73 317.4 72.5357421875 317.075 72.1 317.05 72.326171875 313.744921875 72.5 310.4
L 74.35 311.5 74.25 307.5 72.9 307.45 73 298.75
Q 75.2 298.8 78.85 298.7
L 79.6 298.7 79.55 296.3 73.15 296.4 73 291.95 72.95 291.5 71.15 291.55 70.8 291.6 70.9 296.45
Q 67.95 296.55 65.05 296.45
L 64.75 296.45 64.75 298.25 70.35 298.5
Q 70.2 300.7 70.2 304.5
L 68.75 303.3 68.8 306.9 69.05 307.05 70.6 308.2 70.8 313.15
Q 70.8 314.05 70.95 315.8
L 71 317
Q 70.536328125 317.108203125 70.05 317.4 69.25 317.9 68.7 319
L 68.55 320.05
Q 68.55 320.5 68.75 320.9 69 321.6 69.5 322.35 69.5673828125 322.4578125 69.6 322.55
L 68.8 327.1 67.5 331 65.5 334.55 62.9 337.55 61.1 338.45
Q 60.45 338.85 60.1 339.05
L 59.15 339.7 57.4 341.25 55.9 343 54.65 344.95 52.9 349.15 52.35 351.35 52.35 351.65 52.9 355.3 53.8 357.65 54.75 359.35 53.25 359.75
Q 51.3 360.4 50.15 361
L 49.35 361.5 48.6 362.15
Q 48.45 362.25 48.2 362.7 47.95 363.1 47.9 363.3
L 47.85 363.5 47.85 363.6 47.8 363.65 47.85 364.6
Q 48 365.3 48.5 365.8 48.9 366.2 49.4 366.45 49.65 366.65 50.25 366.85 50.3 366.85 50.4 366.9
L 50.85 371.95 48.5 374.65 50.85 374.6 51.1 402.95 49.1 403.95 49.2 413.2 47.4 413.95 46.85 420.4
Q 22.6 432.95 15.45 436.7
L 15.6 436.95
Q 26.3 431.8 47.7 421.3
L 48 421.15 48.7 414.9 50.65 414.15 50.7 404.95 52.7 403.95 52.95 372.7 53 372.65 52.45 365.15 51.05 364.8 50.5 364.55 50.15 364.25
Q 50.05 364.2 50.05 364.1
L 50.05 364.05 50.1 363.85 50.1 363.75 50.15 363.8 50.45 363.5 51.25 363
Q 52.4 362.35 53.95 361.95
L 58.65 360.85 56.4 357.6 55.5 355.65
Q 55.25 354.85 55.2 354.65
L 54.95 353.65 54.75 351.75 55.15 349.85 56.75 346.1 57.85 344.45 59.15 342.95 60.65 341.65 62.3 340.55 64.45 339.45 67.5 336 69.8 332.05 71.3 327.75 71.55 326.55 72.6 330.75 74.85 336.05 75.95 337.95 80.45 341.5 81.25 342.3
Q 81.35 342.4 81.95 343.1
L 83.85 345.65 85.35 348.5 86.35 351.35 86.25 352.45
Q 86.25 352.85 86.05 353.65
L 85.95 354.25 85.55 355.4 85 356.45 84.65 356.9
Q 84.5 357.25 84.3 357.35
L 83.9 357.8 83 358.55 79.65 360.55 81.85 361.4
Q 81.628125 361.4 81.45 361.4
L 67.9 360.85
Q 64.65 361 64.05 361.05 62.7 361.2 60.25 361.7
L 59.45 361.85 59.5 362.5
Q 59.6 363.8 59.8 365 59.95 366.2 60.25 367.5
L 60.45 367.5 61.1 363.35
Q 62.25 363.3 64.2 363.15 65.45 363.1 68.05 362.8 71.25 362.4 71.85 362.3
L 73.7 362
Q 75 361.9 75.6 361.95 76.3 361.95 77.5 362.05
L 83.15 363.3
Q 85.65 363.6 86.95 363.65 87.32265625 363.6794921875 87.7 363.7
L 88.85 364.15 88.55 364.5
Q 88.1 365.05 87.85 365.25
L 86.7 366.3 86.25 372.6 67.05 369.1 61.3 368.9 53.45 372.4 53.65 398.4 58.4 397.45 58.35 396.85 58.2 374.35 61.25 372.35 67.2 372.25 67.25 400.55 67.3 401.05 71.8 401.05 71.85 375.5 80 376.6 79.9 398.5 73.2 397.6 73 399.05 82.25 400.3 85.85 395.9 85.85 396.75 98.25 388.7 98.1 390.9 95.45 393.3 95.15 400.4 112.3 395.6 138.7 397.8 141.45 397.6 141.4 391 118.4 388.75 118.55 381.65 138.8 383.95 138.85 390.35 139.15 390.35 139.25 384 139.75 384.05 139.75 365.05 151.1 358 151.1 357.35
Q 150.95 347.25 150.95 347.2
L 150.3 316.75 149.2 308.7 152.25 308.3 154.55 308.25
Q 156.1 308.3 159.4 308.8 162.6 309.4 164.2 309.55
L 173.2 310.4
Q 174.6 310.5 177.1 310.5
L 182.35 310.4 182.95 310.55 180.8 311.95 180.75 313.15 180.5 313.15
Q 180.45 313.5 179.95 320.25
L 176.4 320.1 167.15 312.65 155.25 319.1 155.35 322.15 153.85 322.35 154.25 330.8
Q 154.5 334.55 154.55 338.3
L 154.5 353.9 164.8 354
Q 171.3 354.2 174.5 354.4
L 175.75 354.45 176.1 337.95
Q 176.15 335.45 176 322.8
L 176 321.95 180.35 321.7 178.05 324.5 178.05 356.2
Q 176.7111328125 356.130078125 175.95 356.05 173.95 355.9 172.55 355.9
L 165.75 355.95
Q 161.25 356.15 159 356.35 154.95 356.7 152.2 357.2
L 152.2 357.5
Q 155.1 357.95 159 358.2 162.4 358.45 165.75 358.5
L 172.55 358.5
Q 173.5654296875 358.455859375 178.05 358.05
L 178.05 359.75 201.9 374.95
Q 205.8 377.35 213.6 382.25
L 225.35 389.5 225.45 389.55 225.5 389.55 228.65 389.4 228.65 389.15 225.6 389 202.9 373.4
Q 202.28984375 372.9826171875 201.7 372.55
L 201.95 372.3 202.9 370.6
Q 203.25 369.85 203.5 368.8
L 203.7 367.85 203.85 365.85 203.6 363.85 203.35 362.9 202.95 361.9
Q 202.65 361.25 202.45 361
L 201.8 360.1 201 359.25 195.2 354.4 192.8 351.8 191 348.9
Q 189.35 342.05 188.9 340.45
L 188.6 339.45 188.5 339.45 188.45 338.9 188.45 338.65 188.6 337.45
Q 188.5 336.6 188.25 336.25 187.8921875 335.8921875 187.7 335.75 187.8794921875 333.2697265625 188 330.7
L 189.35 331.65 189.35 327.95 188.4 327.9 188.5 320.7 193.2 320.65 193.15 317.3 188.55 317.4 188.35 313.25 185.7 313.35 185.8 317.5 182.8 317.45 182.8 313.05 187.55 309.75 177.6 307.6 177.95 307.15
Q 178.1 306.95 179 305.55 179.6 304.45 179.8 303.85 180.35 302.6 180.45 302.1 180.75 301.2 180.9 300.25
L 181.2 298.4 181.2 295.6 180.6 292.8 179.9 291.1
Q 179.45 290 179 289.45 177.95 287.95 177.9 287.9
L 176.65 286.5 175.25 285.3 172.2 283.2 172.3 283.25 170.15 280.85 168.35 278.1
Q 167.65 277.05 166.8 275.25 166.2 274.1 165.5 272.2
L 164.4 269.1
Q 163.8 267 163.6 265.9
L 162.8 260.65
Q 162.8998046875 260.5669921875 163 260.45 163.25 260.15 163.4 259.75
L 163.55 259.1 163.6 258.1 163.55 257.6 163.6 257.4 163.6 255.7 163.45 255 163.05 254.3
Q 162.55 253.8 162.35 253.7
L 162.2 253.65 162.6 247.45 164.8 249.9 164.95 244.9 163.35 243.3 163.5 231.2 170.1 231.95 170.05 227.95 164.25 227.45 164.15 225.25 163.05 225 162.9 221.95 159.5 222.05 159.4 223.6
M 161.8 223.1
L 161.65 226.1 162.65 226.4 161.65 226.45 161.6 228.85 161.4 228.8 161.55 244 163.3 245.6 163.35 246.3 161.35 244.45 161.85 253.55 161.4 253.4
Q 160.9830078125 253.312109375 160.55 253.35
L 161 245.25 161.05 244.95 158.55 242.7 158.6 241.85 161.2 243.95 161 229.85 153.5 228.75 153.45 227.3 160.2 228.1 160.3 223.65 160.4 223.05 161.8 223.1
M 116.05 271.25
L 116 270.55
Q 119 270.5 121.9 270.55
L 122.15 270.55 122.25 265.9 122.85 265.95 122.7 270.75 122.15 270.75 122.15 272.25
Q 122.140625 271.915625 122.1 271.55
L 122.1 271 116.05 271.25
M 120.8 279.85
L 120.8 279.7 122.25 280.95 122.25 281 120.8 279.85
M 121.15 293.5
Q 121.2 293.5 121.3 293.3 121.4 293.05 121.5 293.1
L 121.8 292.95
Q 122.05 292.7 122.25 292.8
L 122.45 292.8 122.6 292.75 122.6 292.7 122.8 292.6
Q 123.15 292.5 123.55 292.6 123.85 292.7 124.15 293 124.25 293.1 124.3 293.35
L 124.3 293.65 124.15 294.05
Q 123.95 294.35 123.6 294.4 123.25 294.55 122.85 294.45 122.55 294.4 122.45 294.5
L 122.45 294.55 122.4 294.55 122.55 294.6 122.5 294.6 122.2 294.7
Q 122.15 294.7 122.05 294.8
L 121.3 294.8
Q 121.15546875 294.693359375 121.05 294.5 120.75 294.1 121.15 293.5
M 161.35 256.5
L 161.65 256.4
Q 162 256.3 162.45 256.4 162.9 256.55 163.05 256.8 163.2 256.95 163.25 257.25
L 163.3 257.4 163.25 257.55
Q 163.25 257.85 163.1 258
L 162.85 258.2 162.5 258.4
Q 162.2 258.45 161.65 258.45 161.5 258.4 161.1 258.5
L 161 258.6 161.05 258.6 160.55 258.75 160.5 258.8 159.55 258.8
Q 159.4109375 258.690234375 159.3 258.5 159.15 258.3 159.15 257.95
L 159.2 257.65 159.25 257.5 159.3 257.45 159.3 257.5 159.5 257.15
Q 159.6 256.9 159.7 256.95 159.95 256.8 160 256.75
L 160.6 256.55
Q 160.75 256.6 161.1 256.5
L 161.35 256.5
M 161.4 261.15
Q 161.445703125 261.15 161.5 261.15
L 161.75 262.9 163.35 269.4 164.5 272.6
Q 165.55 275.05 165.85 275.65 166.65 277.25 167.5 278.6 167.75 279.1 168.4 280.05
L 169.4 281.4 171.7 283.9 171.7 283.95 171.75 284 174 285.45 174.7 286 177.2 288.5
Q 177.6 288.9 178.2 289.95 178.65 290.5 179 291.5
L 179.4 292.25 180 294.8 180.15 297.4 179.8 300
Q 179.7 300.6 179.3 301.7 179.15 302.25 178.65 303.3
L 177.8 304.85
Q 177.05 305.95 176.8 306.25 176.65 306.5 175.65 307.45
L 175.5 307.55
Q 171.658984375 306.9908203125 169.05 306.95
L 164.35 306.9
Q 163.6 306.9 159.45 307.15 156.55 307.4 154.6 307.35
L 148.7 306.95 148.55 307 145.2 307.6
Q 144.599609375 307.7744140625 143.9 308
L 145.35 307 142.8 304.65 141.75 303.45 140.85 302.1 139.95 299.9 139.5 297.55 139.45 295.9 139.6 294.35 140.4 292.35 142.85 288.3 146.15 284.8 150.05 282.05 152.4 280.8 152.5 280.7 155.9 275.95 158.35 270.75 160 265.25 160.5 262.4
Q 160.5 262.3513671875 160.65 261
L 160.8 261.1 161.15 261.15 161.4 261.15
M 122.45 282.35
L 122.45 282.3 123.75 282.35 123.8 283.05 122.45 282.35
M 122.3 285.65
Q 122.38828125 287.914453125 122.45 289.6 122.27734375 289.5669921875 122.05 289.55
L 122.3 285.65
M 71.55 292.3
L 72.15 292.35 71.95 297.15 71.4 297.15 71.4 297.4 65.35 297.65 65.3 297
Q 68.25 296.95 71.15 297
L 71.4 297 71.55 292.3
M 71.75 308.75
L 73.05 308.75 73.1 309.5 71.75 308.8 71.75 308.75
M 70.4 320.9
Q 70.45 320.9 70.55 320.65 70.65 320.45 70.75 320.5
L 71.05 320.3
Q 71.3 320.15 71.5 320.2
L 71.7 320.15 71.85 320.15 71.8 320.1 72.05 320
Q 72.5 319.9 72.8 320 73.15 320.15 73.35 320.35
L 73.55 320.75 73.55 321.05 73.4 321.45
Q 73.3 321.65 72.85 321.8 72.5 321.95 72.1 321.85 71.8 321.8 71.7 321.9
L 70.25 321.9
Q 70.05 321.45 70.4 320.9
M 71.85 317
Q 71.587890625 316.9642578125 71.3 316.95
L 71.6 312.15 71.85 317
M 61.65 370.95
L 65.65 371.2 60.95 371.25 61.65 370.95
M 55.35 375.7
L 57.05 375.45 56.9 396.2 55.15 396.55 55.35 375.7
M 55.35 374.8
L 55.35 373.7 60.75 371.35 55.35 374.8
M 147.95 309.3
L 148.9 308.85 149.45 316.8 148.65 356.65 140.5 361.5 140.65 342.95 141.3 341.5
Q 141.4716796875 341.32109375 141.6 341 141.6255859375 340.9234375 141.65 340.85
L 142.2 339.65 140.1 337.5 139.25 336.9 139.25 336.9
Q 138.4462890625 336.2380859375 137.65 335.8
L 138.6 334.75
Q 138.85 334.35 139.4 333.55
L 140.65 330.85
Q 140.85 330.35 141.05 329.45
L 141.3 326.5 141.15 325.05 140.8 323.6
Q 140.55 322.65 140.35 322.2
L 138.6 319.1 137.65 317.95 137.65 312.7 137.2 312.7 137.6 312.4 139.1 312.15
Q 139.35 312.1 142.35 311.35 144.5 310.7 146.05 310.1 146.55 309.95 147.95 309.3
M 122.9 305.25
L 123.45 307.05
Q 123.5 307.25 124.15 308.8 124.3 309.15 125.15 310.5
L 125.2 310.6 129.3 314.4 128 315.3 130.45 315.4 134.85 319.5 135.05 319.7 135.8 320.8
Q 136.5 322 136.55 322.2
L 137.2 323.7
Q 137.5 324.45 137.65 325.25 137.9 326.5 137.9 326.75
L 137.95 327.55 137.85 328.3
Q 137.85 328.45 137.6 329.75 137.55 330.05 137.05 331.15
L 136.35 332.3 135.25 333.6 134 334.65 130.7 336.75
Q 130.1939453125 336.75859375 129.25 336.85
L 125.5 337.3
Q 123.5 337.45 121.75 337.25 120.5 337.05 119.85 337.05
L 118 336.9 114.3 336.95
Q 111.3 337.2 110.6 337.3
L 110.4 337.3 108.05 338
Q 107 338.25 105.7 338.75
L 103.45 339.65
Q 102.05 340.25 101.2 340.75
L 101.25 341.05
Q 102.1 341.15 103.75 341.15
L 111.05 340.45 110.8 340.5
Q 112.15 340.4 114.5 340
L 120 338.9
Q 120.45 338.75 121.8 338.55 123.6 338.25 125.45 338.25 125.55 338.25 127.3 338.55
L 129.1 339
Q 129.15 339 130.9 339.35 131.95 339.55 132.65 339.6
L 136.15 340
Q 136.75 340.15 137.9 340.3
L 138.15 340.35 136.7 342.55 136.75 343 136.8 380.7 117.9 378.3 117.8 378.25 110.15 378.3 104.1 380.2 104.1 378.85 109.95 376.6 109.55 363.65
Q 109.25 355.5 109 351.4
L 109 350.95 105.5 351.75 105.5 350.85 111.25 347.9 118.95 347.15 133.85 349.25 133.7 377.95 121.55 376.1 121.25 351.15
Q 125.15 351.4 127 351.5
L 133.45 351.8 133.45 351.6 120.1 349.9 119.75 377.6 134.9 379.3 134.7 348.55 134.35 348.45 119.1 345.65 119.05 345.6 118.95 345.6 110.95 346.1 110.8 346.1 103.55 349.6 103.55 351.15 103.3 351.15 103.4 350.7 103.35 350.55 103.15 343.9 102.9 343.6 100.9 340.65 101.25 340.3 101.7 340
Q 101.85 339.95 102.15 339.75
L 102.65 339.45 104.7 338.55 111.3 336.65 108.45 334.85
Q 107.35 334.25 106.85 333.85 105.95 333 105.5 332.6
L 104.95 331.85
Q 104.65 331.3 104.5 331.05
L 104.1 330.25 103.6 328.5 103.5 327.55 103.5 327.35 103.45 327.2 103.45 326.65 103.55 325.7 103.75 324.85 104.35 323.1
Q 104.5 322.6 104.8 322.25 105.15 321.6 105.85 320.6
L 108.5 317.6 111.65 314.9
Q 111.95 314.65 113.3 313.65 114.55 312.7 116.75 311.25
L 116.85 311.2 117.7 310.4 119.65 307.9 120.6 306.1
Q 121.2 304.9 121.4 304.25 121.85 303.05 122.25 301.9
L 122.9 305.25
M 156.15 324.4
L 157.7 324.25 157.85 320.6 166.95 315.7 174.8 321.3 171.8 321.4 172.7 344.2
Q 172.95 348 173.05 349.8 173.1 350.75 173.15 351.85 169.35 352.15 164.75 352.35 160.15 352.65 155.6 352.8
L 156.15 324.4
M 105.5 352.2
L 108.35 351.75 108.1 375.35 105.55 376.25 105.5 352.2
M 100.45 392.05
L 101.1 383.85 110.6 380.95 117.6 381 117.2 389.8 139.8 392.5 139.75 396.05 138.8 396.1 112.3 393.4 112.15 393.35 97.65 397.3 97.85 394.45 100.45 392.05
M 186.25 317.95
L 186.25 317.75
Q 186.3 315.35 186.4 314.05
L 187.55 314.1 187.35 318.55 191.75 318.7 191.75 319.15 186.9 319.1 187.05 328.8 186.95 328.75 187 329.7
Q 187.2611328125 333.8501953125 187.35 335.65 186.976171875 335.4880859375 186.9 335.45 186.52890625 335.3845703125 186.15 335.4 186.3150390625 333.3544921875 186.4 332.25
L 186.6 328.1 186.45 328 186.5 326.65
Q 186.5 322.15 186.4 319.9
L 186.35 319.3 182.8 319.5 182.8 318 186.25 317.95
M 182.8 320.3
L 185.25 320.45
Q 185.15 322.2 185.15 325.1
L 184.1 324.1 184.2 327.5 184.4 327.65 185.5 328.65 185.9 335.45
Q 185.5556640625 335.56171875 185.2 335.75 184.45 336.15 184 337.05 183.8 337.45 183.8 338 183.75 338.45 183.95 338.8 184.2 339.3 184.7 340 184.790234375 340.1052734375 184.9 340.25
L 184 348.95
Q 183.5 350.45 183.15 351.15 182.6 352.2 181.8 353.05 181.4490234375 353.4400390625 180.55 354.15
L 180.55 325.4 182.8 322.4 182.8 320.3
M 187.65 329.15
L 188.1 329.2 188.15 329.45 187.65 329.15
M 188 338.4
L 188.15 338.65 188.15 338.9 188 339.2
Q 187.9 339.3 187.5 339.4 187.1 339.4 186.85 339.25 186.65 339.15 186.6 339.2
L 186.6 339.25 186.55 339.3
Q 186.6 339.3 186.65 339.3
L 186.3 339.45 186.3 339.55 186.15 339.65 185.6 339.7
Q 185.532421875 339.6318359375 185.45 339.5 185.25 339.05 185.6 338.8 185.65 338.8 185.8 338.6 185.9 338.45 185.95 338.55
L 186.2 338.55
Q 186.3 338.5 186.5 338.6 186.55 338.65 186.6 338.6
L 186.75 338.6 186.7 338.5 186.85 338.35 187.15 338.2 187.45 338.2
Q 187.8 338.2 188 338.4
M 186.7 341.8
L 186.8 341.8
Q 187.2623046875 344.66953125 188.15 349.7
L 188.25 350 190.25 353.65 191.55 355.3 196.15 359.3 199.35 361.5 200.3 362.45
Q 200.5 362.65 200.75 363.1
L 201.4 364.5
Q 201.55 364.75 201.65 365.25
L 201.95 366.85
Q 202.05 367.7 201.95 368.55 201.95 369.15 201.75 370.25
L 201.55 371.1
Q 201.5 371.5 201.25 371.9 201.227734375 372.0337890625 201.15 372.2 194.844921875 367.8986328125 191.45 365.65
L 180.55 358.35 180.55 355.85
Q 180.7 355.65 180.85 355.5 182.2 354.15 182.55 353.7 183.45 352.65 183.95 351.55 184.45 350.6 184.9 349.2
L 184.95 349.15
Q 185.35 346.95 185.85 345
L 186.65 341.8 186.7 341.8
M 381.15 232.35
L 381.65 232.6 382.55 232.7 382.65 232.7 383.55 232.45
Q 383.85 232.4 384.45 232.05
L 384.85 231.75 385.2 231.4
Q 385.5 231.2 385.55 231.05
L 385.85 230.6 386.05 230.15 386.2 229.65
Q 386.3 229.3 386.3 228.6 386.25 228.3 386.25 228.1
L 386.15 227.6 385.8 226.65 385.65 226.35 371.65 223.3 353 232.75 336.15 242.1 332.7 241.3 332.4 241.4 323.15 245.3 322.85 245.45 322.2 246.5 321.85 247.4
Q 321.8 247.55 321.55 248.35
L 321.55 250.35 321.7 250.8 321.8 251.3 322.15 252.2 322.85 253.45 323.35 253.5
Q 324.1 253.65 324.85 253.65
L 325.65 253.65 327.25 253.25 327.55 347.05 325.1 347.05 318.45 356.8 318.25 357.05 318.45 375.15
Q 307.55 380.55 302 383.3
L 285.15 391.75 285.3 392.05 319.55 376.3 319.95 376.05 320.15 357.65 326.15 349.2 329.75 349.2 330 275.3 329.45 249.85 330.5 250
Q 331.75 250.2 333 249.8 334.15 249.75 335.45 249.8 336.8 249.8 337.8 250 338.35 250.05 338.9 250.3
L 339.4 250.5 339.6 250.65 340.95 342.45 342.55 342.8 343.35 343.15
Q 343.7 343.35 343.85 343.6
L 344 343.8 344.15 344.25 344.25 344.95 344.05 345.55 344 345.65 332.2 350.6 331.65 373.05 318.8 377.75 319.25 379.2 319.3 379.2 319.45 379.15 334.95 375.15 335.05 375.15 356.5 366.45 356.4 366.15 334.65 374.15 334.7 374.15 332.1 374.75 333.4 374.3 334.5 352.2 358.85 342.15 358 342.65 358.6 343.85 357.1 344.45 356.85 368.5 372.25 363.25 372.45 363.05
Q 378.65 357.8 381.85 355.05
L 390.25 353.9 390.15 338.15 386.85 337.85 387 337.45 387.05 337.4 387 336.2 386.65 335.15 386.1 334.15 385.4 333.3 383.8 331.9
Q 383.65 331.75 382.5 331
L 382.75 293.55
Q 382.5 285.1 382.4 280.9
L 381.45 255.7
Q 381.05 247.3 380.95 243.05
L 380.8 236.75
Q 380.8 233.65 380.85 232.05
L 381.15 232.35
M 384.45 227.9
L 384.55 228.1 384.6 228.4 384.7 228.7
Q 384.65 228.9 384.65 229.35
L 384.6 229.65 384.35 230.2
Q 384.35 230.25 384.15 230.45
L 383.95 230.7 383.7 230.9 383.1 231.2 382.4 231.45 381.95 231.45 381.6 231.2 379.7 228.85 379.55 293.55
Q 379.55 299.2 379.8 306.2
L 380.85 331.9 383.75 333.65 385.15 334.9 385.7 335.6 385.9 336 386.05 336.45 386.2 337.25 386.05 337.75 372.3 336.5 372 336.45 365.6 339.3 362.85 340 362.85 339.9 363 337.7 363.25 336.85 363.5 336.4
Q 363.65 336 364 335.55 364.5 334.8 364.6 334.7
L 366.85 332.55 368 331.8 367.95 306.35
Q 368.35 289.55 368.5 281.2
L 368.5 274.3 369.05 273.85 369.05 257.8 368.8 257.45 368.55 257.2 368.6 231.25 369.95 229.75 371.1 230.25 371.55 230.35 372 230.35
Q 372.4 230.4 372.95 230.25 373.3 230.2 373.8 229.8 374.1 229.65 374.5 229.15
L 374.9 228.55 374.95 228.4 375.05 228.25 375.25 227.8 375.45 226.95
Q 375.4859375 226.75234375 375.45 226.55
L 384.45 227.9
M 369.8 227.15
L 372 226.05 373.4 226.25 373.45 226.3 373.55 226.45 373.55 226.75 373.35 227.35 373.3 227.35 373.25 227.5 372.9 228 372.65 228.2 372.4 228.3 371.9 228.3 371.65 228.25 370.3 227.5 369.8 227.15
M 365.9 231.6
L 365.8 230.95 365.6 230.4 365.3 230.5 365.4 230.8 365.5 231.3 365.45 231.55
Q 365.45 232 365.1 232.5 364.8 233.1 363.85 234 362.4 233.35 361.9 232.4
L 361.8 232.15 361.75 231.85 361.85 231.3 361.95 231
Q 362.95703125 230.5541015625 363.25 230.4
L 368.95 227.55 366.3 230.4 366.35 255.85 365.85 255.75
Q 365.5 255.7 364.95 255.7
L 364.05 255.7 361.7 256.1 361.4 256.2 358.2 258.85 355.6 261.8 354.5 263.4 352.7 266.85 352 268.65
Q 351.5 270.15 351.45 270.5
L 350.65 274.25 350.3 279.95
Q 350.3 281.2 350.5 283.7
L 350.8 342.75 346.05 344.75
Q 346.05 344.3 345.85 343.65
L 345.7 343.15 345.3 342.5
Q 344.75 341.9 344.2 341.6 343.75 341.35 343.1 341.15 342.9 341.1 342.7 341.05
L 340.7 250.05 342.2 250.5 342.4 250.5 343.3 250.35
Q 343.65 250.35 344.25 250.15 344.8 250.05 345.2 249.85 345.25 249.85 346.15 249.4 346.25 249.35 346.6 249
L 347 248.6 347.3 248.1
Q 347.5 247.7 347.5 247.6 347.75 246.75 347.75 246.55
L 347.85 244.9 336.95 242.3
Q 338.3630859375 241.7275390625 340 241
L 354 234.75
Q 358.5103515625 232.6578125 360.85 231.55
L 360.85 231.95 360.95 232.4 361.15 232.8
Q 361.5 233.5 362.3 234 363.2 234.55 363.75 234.7
L 363.95 234.8 364.1 234.65
Q 365.1 233.75 365.55 232.75 365.85 232.05 365.9 231.6
M 324.35 247.1
L 332.95 243.35 346.2 246.15 346.05 247.05 345.75 247.7 345.5 247.9
Q 345.4 248.1 345.3 248.15 344.9 248.4 344.65 248.45
L 342.3 249.05 337.15 247.55 334.85 245.25 334.7 246.75 334.7 247.15 334.4 247.6
Q 334.1 248 333.35 248.35 332.9 248.55 332.45 248.7 331.45 248.7 330.5 248.8
L 329.4 248.95 329.35 248.25 328.65 249 325.65 249.3 328 249.65 327.45 250.2
Q 326.95 250.7 326.7 250.85
L 326.3 251.1 325.4 251.35 324.9 251.35
Q 324.75 251.4 324.3 251.35
L 324.2 251.2 323.75 249.95 323.7 249.35 323.75 248.7 323.9 248.1 324.35 247.1
M 357.15 265.05
L 359.2 262.35 362.75 259.15 364.9 258.85 365.4 258.9 365.8 259 365.85 259.05 365.85 272.4
Q 364.35 273.75 363.55 275.2 362.65 276.55 361.8 279.1 361.3 280.75 360.95 283.1
L 360.7 285.65 360.65 285.9 360.9 333.4 357.55 339.9 353.15 341.75 353.45 283.45
Q 353.3 281.75 353.3 279.95
L 353.95 273
Q 353.95 272.85 354.4 271.3 354.75 270.2 354.9 269.65 355.3 268.6 355.5 268.05
L 357.15 265.05
M 335.35 248.45
Q 335.55 248.2 335.7 247.95
L 336.45 248.75
Q 336 248.7 335.5 248.65 335.35 248.65 335.2 248.65 335.25 248.55 335.35 248.45
M 363.9 285.9
L 363.9 285.4
Q 364 284.2 364.15 283.6 364.4 281.7 364.9 280.05 365.55 277.95 366.3 276.85 366.3423828125 276.765234375 366.4 276.65
L 366.4 281.2
Q 366.55 289.6 366.95 306.35
L 366.9 331.2 365.3 332.35
Q 364.75 332.85 364.45 333.1
L 363.65 334 363.85 286.1 363.9 285.9
M 372.35 338.85
L 387.4 340.6 387.3 351.3 380.5 352.1 370.65 360.4 360 364.1 359.85 346.25 370.15 341.65 370.65 354.7 361.6 358.55 361.35 349.6 361.05 349.6 360.55 360.05 372.25 355.75 372.35 338.85
M 361.6 337.9
L 361.35 340.25 361.35 340.6
Q 361.35 340.65 361.45 340.75
L 359.45 341.85 361.6 337.9
M 406.95 11.6
L 406.9 6.9 402.05 5.65 401.85 2 401.8 1.65 398.8 0 398.85 0.9
Q 398.95 4.4 399 5.5
L 392.5 4.1 392.4 6.9 392.75 7 398.55 9.2
Q 398.45 10.95 398.45 14.05
L 398.55 18.25 397.5 17.8 397.65 20.95 397.7 21.35 398.8 22.05 399.2 27.7
Q 398.9986328125 27.793359375 398.75 27.9 397.95 28.4 397.5 29.25 397.3 29.85 397.3 30.2 397.3 30.7 397.5 31 397.6 31.25 398.25 32.3 398.4814453125 32.577734375 399 33.25
L 396.45 46.9
Q 392.9 48.9 390.5 51.7 389.2 53.4 388.5 55.15
L 387.9 57.1 387.65 59.1 387.65 59.15 388 60.9 388.35 61.75
Q 388.6 62.55 388.65 62.6
L 389.55 64.15 390.1 64.85
Q 390.6 65.45 390.7 65.55
L 391.35 66.15
Q 391.9 66.7 392 66.75
L 395.1 68.55 396.15 68.95 392.95 73.45 396.4 73.45 396.35 80.45 377.8 93.3 377.85 93.3 377.6 93.45 377.8 93.3 369.05 95.1 369.4 102.65 369.45 103 373.7 106.9 373.9 111.65 377 114.5 376.75 135.65 372.85 140.8 373.1 152.1 358.95 148.7 346.05 168.25 351.85 168.25 351.95 191.25 348.5 198.35 313.9 218.3 322.3 228.85 323.9 228.85 324.2 244.65 324.5 244.65 324.8 228.35 336.25 222.95 370.5 204.55 381.4 206.45 381.6 206.5 381.7 206.45 390.6 202.95 398.6 206.55 398.8 206.7 411.4 202.15 436.65 208.2 477.95 216.45 476.3 217.3 471.8 218.5 472.15 227.55 474.6 228.05 471.75 234.05 462.25 232 461.95 232.15 459.95 232.95 448.75 229.9
Q 437.5 226.9 436.4 226.6
L 411.2 220.05 400.55 225.15 400.45 225.15 400.45 225.2 399.55 225.85 398.8 226.7 398.25 227.85
Q 398.05 228.4 398.05 229.1 398.05 230.25 398.75 231.45
L 399.5 232.35 400.5 233.1 400.7 233.2 400.9 233.2
Q 402.2 233.4 402.9 233.35
L 404.05 233.2 404.65 233 405.25 232.65 402.75 328.15
Q 402.5 328.3 402.4 328.4 402.15 328.55 401.4 329.3
L 400.95 329.8 399.95 331.45
Q 399.45 332.65 399.2 333.8
L 399 335 399 335.05 396.25 335.8 396.25 350.8 412.9 362.7 433 364.55 432 335.8 422.35 335.3 423.65 335.1
Q 424.65 334.75 425.1 334.35
L 425.4 333.9 425.4 333.7 425.45 333.55 425.45 333.3 425.3 332.55 424.75 331.3
Q 424.35 330.55 423.3 329.15 422.35 328.05 421.75 327.45
L 420.6 259.7 422.8 258.85
Q 424.7 258.05 426.3 258.1 427.65 258.15 429.8 258.9
L 431.6 259.6
Q 432.6 259.95 433.25 260.35
L 436.3 262.4
Q 439.15 264.9 440.8 268.15 441.15 268.8 441.5 269.85 442.05 271.4 442.1 271.55
L 442.5 273.35
Q 442.65 273.95 442.75 275.1
L 442.6 336.55 435.25 335.75 435 338.45 463.65 341.45 463.8 364.95 486.1 372.9 486.25 370.05 489.45 370 489.45 369.25 527.1 384.95 522.25 384.9 518.7 383.1 518.65 383.1 518.55 383.05 385.65 361.6 385.65 362.75 279.2 394.25 288.1 396.2 288.05 398.7 292.55 399 292.5 402.75 297.35 402.95 298.9 404.75 307.35 402 307.15 399.1 313.2 397.05 313.75 399.85 322.95 398 322.95 394.7 326.35 393.5 326.6 396.45 338.1 394.05 337.3 390.1 340.75 389 341.4 391.4 350.75 388.05 350.35 385.2 353.2 384.3 353.65 387.1 364 383.4 363.6 381.2 369.1 379.65 369.4 382.4 380.1 379.7 380.1 376.75 388.2 374.95 387.9 391.05 386.9 392.5 386.9 389.75 303.05 414.65 303.05 423.55 311.45 420.9 312.2 522.2 312.3 522.3 315.55 527.4 315.55 523.95 319.55 523.95 320.25 424.7 318.3 421.05 318.3 419.7 354 410.8 355.3 414.45 355.6 445.3 355.45 444.4
Q 355.1 442.7 354.45 440.85 353.8 438.9 352.85 437.4
L 351.75 435.85
Q 351.5 435.5 350.45 434.45
L 348.8 433.3
Q 347.6 432.7 346.95 432.6 345.4 432.1 343.05 432.55
L 339.65 433.75
Q 338 434.5 336.5 435.55 335.5 436.25 335.1 436.7
L 334.4 437.3 332.65 439.35
Q 332.15 439.95 331.65 440.9 330.65 442.45 330.05 444.15 329.85 444.55 329.4 445.85
L 328.9 447.55
Q 328.55 448.75 328.15 451.15
L 327.85 454.75
Q 327.75 455.75 327.85 457.65
L 326.35 458.6 326.35 463.1 348.25 456.75
Q 351.85 455.65 354.9 454.45
L 354.85 454.15
Q 354.5 454.2 347.9 455.35
L 329.6 459.55 330.45 458.9 330.1 451.3
Q 330.4 448 330.4 447.9
L 331.15 444.55
Q 331.7 443.1 331.75 442.95 332.35 441.6 332.5 441.4 333.25 440.1 333.4 439.95 334 439.1 334.5 438.6 334.65 438.35 335.05 437.95
L 335.7 437.4
Q 336.15 436.95 337.05 436.35 338.15 435.55 340.1 434.75
L 341.7 434.2 343.4 433.85
Q 345.4 433.75 346.5 434.2 346.7 434.25 347.85 434.9 348 434.95 348.45 435.4
L 349.05 435.9
Q 349.35 436.3 350 437.15
L 350.8 438.55
Q 351.4 439.75 352 441.65 352.45 443.2 352.75 444.9
L 353.2 448.3
Q 353.2 448.35 353.3 450.5
L 334.45 455 334.35 453.9 334.4 449.75 334.55 448.4
Q 334.7 446.9 335.05 445.7 335.3 444.85 335.4 444.4 335.7 443.55 335.85 443.1
L 336.4 441.9
Q 336.9 441.1 337.1 440.75
L 337.95 439.65 338.9 438.7 340.05 437.95 341.3 437.35 341.25 437.05 339.8 437.45 338.5 438.1
Q 337.55 438.7 337.25 438.95
L 336.15 440
Q 335.5 440.75 335.25 441.15 334.6 442.15 334.45 442.45 334.25 442.9 333.8 443.8 333.3 444.9 333.25 445.2 332.85 446.2 332.4 448.05
L 331.95 450.95
Q 331.8 451.9 331.7 453.9
L 331.9 458.45 355.65 453 356.25 513.55 354.05 515.85 354.1 518.7 351.5 523.4 351.75 523.55 354.6 518.9 354.65 518.85 354.7 516.1 356.85 514 357 513.9 357.9 414.05 357.8 413.85 356.8 410.95 359.45 406.75 315.8 417.7 315.85 421.65 317.85 425.35 318.6 523 314.6 522.95 314.55 523.95 313.25 521.85 314.1 417.2 305.85 419.85 305.85 416.75 383.75 394.05 383.75 399.55 357.7 406.7 373.6 405.8 373.9 405.75 374.25 405.75 382.3 404.8 382.05 407.05 372.85 410.1 372.9 436.35
Q 372.85 444.8 372.95 461.65
L 373.3 512.1 371.9 513.55 371.8 513.6 371.8 513.7 371.6 516.2 369.95 518.65 370.2 518.85 372 516.35 372 516.25 372.3 513.9 373.8 512.4 373.9 512.35 375.6 412.1 384.65 409.25 385.65 402.3 386.9 401.9 386.9 393.1 387.9 393.05 387.1 441.05
Q 386.95 448.6 386.85 463.6
L 386.8 508.65
Q 386.75 516.15 386.85 531.2
L 387 553.15 362.5 556.65 362.1 556.3
Q 356.8 552 353.75 549.2
L 345.75 541.25 336.35 541.7 326.95 542.7 321.7 548.75
Q 321.6279296875 548.834375 321.55 548.9
L 323.1 547 322.9 546.75 314.6 531.95 350.3 527.9 366 522.1 375.6 521.15
Q 385 520.15 385.3 520.1
L 385.3 519.8
Q 378.75 519.85 375.5 519.85
L 365.6 520.1 349.75 525.1 314.1 529.15 302.5 507.4 302.1 497.15
Q 301.95 492 301.95 486.75
L 302.55 445.1 302.1 424.15 302.05 424.05 301.55 422.25 302.4 419.9 302.5 419.75 302.45 419.6
Q 302.4 416 302.15 412.4 301.95 407.6 301.75 405.2
L 301.45 405.2 301.05 412.4
Q 300.85 415.85 300.75 419.35
L 299.55 422.05 299.6 422.4 300.05 424.35
Q 300.05 424.9 299.9 434.75
L 299.85 445.15
Q 300 453.85 300.05 455.55
L 301 486.75
Q 301.0341796875 489.1388671875 301 493.1
L 283.2 494.7 281.7 460.15 279 460.2 279.4 495.25 210.15 510.45 210.2 510.75 263.2 500.8
Q 272.6 499.05 280.8 497.35
L 299.3 495.3 298.55 506.15 298.55 506.25 216.05 528.85 278.15 548.75 219.85 548.95 219.8 551.65 293.75 553.4 303.1 557.5 317.55 557.45 317.55 554.55
Q 320.2068359375 552.4572265625 322.95 549.9 323.4 549.5 325.7 547.35
L 325.75 547.3 318.25 556.85 318.45 557.05 328.35 547.85
Q 330.05 549.1 333.05 551.2
L 345.75 559.6
Q 339.626953125 559.5466796875 336.4 559.5
L 329.6 554.2 324.25 560.2
Q 315.95 561.15 312.95 561.5
L 254.75 568.2
Q 246.45 569.3 242.3 569.95 226.19296875 572.2927734375 217.9 573.55
L 217.9 570.85 213.95 571.25 213.7 567.65 212.5 567.4 212.85 551.75 214.85 551.65 215.05 548.2
Q 215.7 547.85 216.4 547.35 217.4 546.65 218.15 545.75 218.55 545.35 218.9 544.75 219.45 543.8 219.5 543.65 220.05 542.55 220.1 541.25 220.2 540.25 219.95 538.8
L 218.9 536 218 534.6
Q 217.2 533.45 216.55 532.8 215.65 531.9 214.85 531.3
L 211.35 528.85
Q 210.6 528.25 210 527.5 209.3 526.5 209.1 525.9
L 208.9 525.45 208.85 525.3 208.85 525.25 208.55 523.95
Q 208.3 522.6 208.15 521.9
L 207.85 519.8 207.9 519.8 208.5 515.05
Q 208.55 513.4 208.55 512.35 208.75 512.15 208.9 511.95 209.45 511.35 209.65 510.7 209.85 510.15 209.9 509.95
L 210.05 509.2 210.05 508.85 210 508.75 210 508.4 209.85 507.75
Q 209.6 506.95 209.2 506.45
L 208.7 505.95
Q 208.5 505.65 208.1 505.5 207.7607421875 505.2578125 206.8 505.05
L 206.9 500.35 209.05 502.4 209.2 498.6 207.65 496.45 207.85 482.65 214.55 482.6 214.5 478.75 207.4 478.8 207.35 477.5 209.3 477.45 209.25 474.6 207.45 474.65 207.35 472.2 204.25 472.3 204.35 474.65 202.25 474.7 202.25 476.5 202.3 476.8 204.45 476.75 204.45 478.95 196.1 478.85 195.75 478.8 195.7 481.4 204.05 481.65 204.1 493.15 203.45 492.55 201.95 495.7 202.15 495.9 204.3 498.65
Q 204.35 499.3 204.45 502.1
L 204.55 505.3
Q 204.4990234375 505.3169921875 204.4 505.35 204.05 505.5 203.35 505.95
L 202.9 506.4 202.55 506.9
Q 202.15 507.5 202 508
L 201.8 508.6 201.75 508.85 201.7 509 201.7 510 201.95 510.7
Q 202.3 511.45 202.8 511.9 202.95 512.05 203.15 512.2 203.1 513.7 203.35 515.1
L 203.65 516.9
Q 203.95 518.1 204.25 518.75
L 204.35 518.75 204.35 518.9
Q 204.6732421875 519.0078125 205.1 519.1
L 203.95 519.15 203.8 519.7
Q 203.05 522.3 202.5 523.75 202.05 525 201.7 525.7 201.1 526.9 200.7 527.3
L 195.65 531.35 194.05 532.9
Q 193.15 533.8 192.65 534.6 191.8 535.75 191.5 536.55
L 191.15 537.7
Q 191.05 538.15 191.05 538.8
L 191.1 539.95
Q 191.15 540.3 191.25 541.05
L 191.55 542.15 192 543.2
Q 192.7 544.5 193.15 545.1
L 195 547.15 195.45 547.5 196.35 548 196.55 550.3 193.75 550.15 193.75 550.2
Q 189.15 549.95 184.4 549.75
L 172 549.3 147.15 549.45
Q 143.9 549.65 134.75 550.65 128.6 551.35 122.45 552.15
L 73.35 559.1
Q 59.75 561.2 48.9 563.05 36.5 565.2 24.5 567.55 17.75 568.9 12.35 570.15
L 7.75 571.5 6.9 571.95 5.6 573 5 573.65
Q 4.8880859375 573.7990234375 4.8 573.95
L 2.3 572.7 4.85 571.7
Q 8.01875 570.8744140625 13.8 569.3 25.45 566 26.35 565.7 34.75 563.25 51.5 558.4
L 101.5 543.1 126.4 535
Q 138.2 531.15 146.3 528.65
L 201.4 512.1 200.9 510.4 176.25 517.15
Q 163.95 520.55 151.65 524.05
L 104.7 537.45 108.9 439.8 108.6 439.75 103 514.55
Q 102.4 523.1 101.4 539.5
L 101.35 540.6 75.75 548.35
Q 63.8 552 50.8 556.15 47.2 557.25 25.9 564.2 23.0265625 565.1001953125 18.15 566.7
L 24.05 564.5 24.35 564.35 27.85 459.95 68.65 447.95
Q 74.6 446.2 109.35 435.85
L 109.35 436 174 443.55
Q 181.15 444.35 195.4 445.95
L 281.25 455 281.65 455 281.7 454.65 283.25 447.95 288.25 442.15 288.3 442.1 288.3 439.75 292.05 432.4 291.85 432.3 287.9 439.65 287.85 441.9 282.65 447.65 282.6 447.75 281 454.1 195.6 444.2
Q 188.45 443.35 174.15 441.85
L 110.1 435.15 107.2 420.4 107.2 420.3 107.15 420.25 105.25 417.15 105.25 407.4 19.05 440 17.45 438.55 105.6 405.8 299.7 432.25 267.7 411.75 267.25 403.45 265.6 403.45 265.55 397.5 263.85 394.95 264.65 362 269.3 357.85 261.95 353.55
Q 261.95 353.6 261.95 353.65
L 261.9 353.6 261.85 353.45 261.95 353.55
Q 262 353.25 262.3 352.65
L 263.85 349.8
Q 264.75 347.9 265.1 346.5 265.6 344.65 265.45 342.9 265.3 341.05 264.45 339.35
L 262.95 337.05
Q 262.9 336.95 262.4 336.45 261.45 335.35 260.1 334.05
L 257.7 331.8
Q 254.35 328.95 252.85 327.5 251.15 325.65 250.85 325.25 250.05 324.2 249.4 322.7 248.95 321.55 248.6 319.8 248.4876953125 319.1259765625 248.4 318.45 248.5111328125 318.3537109375 248.6 318.25
L 248.95 317.65 249.1 317 249.05 315.6 249.1 315.45 249.1 315.4 249.05 315.25 249.15 314.35 249.1 313.8
Q 249 313 248.65 312.5 248.2 312.05 247.95 311.95 247.6599609375 311.756640625 247.4 311.7 247.48203125 310.0326171875 247.55 308.4
L 248.05 309.75 248.25 304.2 248.2 304.05 247.5 302.75 247.6 294.3 252.75 294.85 252.7 291.8 247.4 291 247.25 286.55 247.2 286.1 245.6 286.15 245.2 286.2 245.25 286.55 245.45 290.9 239.7 289.95 239.6 292.55 244.6 293.5 244.55 301.5 243.8 301.5 243.85 304 244.05 304.15 245.45 305.4 245.75 311.65
Q 245.465625 311.7671875 245.15 311.95 244.25 312.45 243.7 313.45 243.55 313.8 243.45 314.5 243.4 314.95 243.6 315.35
L 243.6 315.4 243.65 315.45 243.65 315.5 243.7 315.65 244.35 316.65 244.4 316.9 244.35 318.05 244.15 319.25
Q 244.05 320.05 243.5 321.85 243 323.4 242.55 324.1 242.05 325.05 241.1 326.25 238.75 329.2 233.65 334
L 230.6 336.8 230.05 337.4
Q 229.65 337.8 229.55 338.05 228.9 338.95 228.3 340.85 227.8 342.45 227.75 343.8 227.65 345.05 227.8 346.75
L 228.05 348.25 228.5 349.7
Q 228.75 350.15 229.2 351.1
L 229.6 351.8 230.1 352.4
Q 230.35 352.7 231.15 353.4
L 225.6 357.65 225.3 357.85 225 358 225 358.05 224.95 358.05 224.8 358.1 224.55 358.3
Q 224.2 358.65 224.2 359.25
L 224.3 359.6 224.7 360.2 224.85 360.3 228 362 228.85 390.2 228.95 390.8
Q 229.3 392.25 229.95 393.25 230.8 394.5 232.05 395.1 232.9 395.5 233.9 395.6
L 235.85 402.45 235.95 402.55
Q 238.8 406.9 241.1 409.7 242.85 411.8 244.2 413 244.55 413.35 245.25 413.75
L 245.75 414 245.8 414.05
Q 245.85 414.05 245.9 414.1
L 246 414.1 246.15 414.15 248.7 414.6 257.45 415.35
Q 261.8 415.65 266.15 415.8
L 267.15 415.85 267.1 414.5 288.1 428 105.55 403.8 105.3 403.75 105.1 403.85 14.85 438 18 440.9 18.1 441 26.65 448.95 26.65 449.05 26.55 449.1 24.9 455.35 24.85 455.65 24.9 455.8 24.4 456.8 24.7 457.1 26.2 458.9 26.65 460 23.4 563.7 0 572.55 4.4 574.75
Q 4.278515625 575.1919921875 4.3 575.6 4.3 575.9 4.45 576.2 4.5 576.45 4.75 576.7 4.8251953125 576.850390625 4.95 576.95
L 4.95 577.8 6.25 577.8
Q 6.7 577.975 7.2 578.1
L 7.5 578.1 9.1 577.8 12.25 577.8 12.25 592.45 12.2 592.45 11.95 592.7 5.4 597.9 8.95 598.45 12.2 602.4 12.05 711.9 8.5 711.9 8.4 713.2 80.3 719.05 80.45 650.35 70 639.9 397.95 616.8 403.15 616.8 403.05 621.55 400.5 621.35 401.95 757.7 83.1 732.6 83.05 717 119.4 718.2 119.15 657.15 106.25 656.5 106.9 703.45 117.1 703.9 117.05 703.75 116.6 699.05 116.3 699.05 116.7 703.55 107.35 703.05 107.1 657.45 118.2 658.1 117.95 716.7 81.35 715.25 81.3 734.25 405 761 405 760.4 449.3 757.65
Q 456.9 757.15 472.15 756.35
L 587.85 751.2 588.05 614.9 594.8 612.65 594.5 612.35 510.65 541.8 516.05 541.35 513.15 410.1 514.45 407.95 513.4 406.7 513.7 397.85 521.3 393.7 521.35 393.3 522.2 393.4 521.7 388 519.2 388 519.05 390.4 506.1 388.45 505.95 391.65 503.05 391.65 503.2 387.95 486.5 385.95 486.5 388.8 483.8 388.45 483.95 385.5 467.35 382.35 467.2 385.3 464.45 385.3 464.45 381.95 447.35 379.6 447.35 381.85 446.2 381.7 446.65 378.85 428.2 376.55 428.2 379.05 427 378.9 426.95 376.05 408.75 373.8 408.1 376.15 405.95 375.85 406.3 373.15 388 370.7 387.95 364.25 518.3 384.2 521.85 385.95 522 386 532.1 385.95 489.45 368.9 489.4 354.7 486.05 352.6 486 344.5 481.5 343.15 480.1 339.15 478.45 338.7 477.65 338.25
Q 476.95 337.85 476.8 337.25
L 476.8 337.15 476.5 335.9
Q 476.05 335 475.55 334.5 475 333.95 474.3 333.55
L 473.9 333.35 473.85 313.75
Q 473.9 306.9 473.8 293.2
L 473.5 252.35
Q 474.4 251.7 475.05 250.9 475.85 250 476.25 248.85 476.7 247.55 476.25 246.5 475.9 245.45 475 244.55
L 474.75 244.75
Q 475.65 245.7 475.9 246.6 476.2 247.65 475.8 248.7 475.5 249.55 474.6 250.5 473.65 251.45 472.95 251.85
L 472.8 251.95 471.1 335.25 472.2 335.6 472.9 335.95
Q 473.15 336.05 473.5 336.4 473.8 336.7 473.85 336.95
L 473.95 337.25 473.95 337.4 474 337.45 474.05 337.9
Q 474.25 338.8 474.85 339.55 475.35 340.2 476 340.6 476.8 341.15 477.3 341.3
L 477.85 341.55 479.2 345.55 483 346.75 482.95 354.3 486.3 356.45 486.25 366.8 483.2 366.8 483.1 368.45 467 362.7 466.65 338.8 459.35 338.1 459.05 267.05
Q 458.8072265625 247.530859375 458.7 243.15
L 460.5 241.4 461.25 241.1 461.6 241.45 462.2 241.85 462.9 242.15
Q 463.05 242.2 463.7 242.35 464 242.4 464.6 242.3
L 466.45 241.7 467.1 241.35
Q 467.5 241.15 467.75 240.9
L 468.1 240.65 468.35 240.3
Q 468.75 239.95 468.85 239.55
L 468.95 239.35 471.3 239.65 471.7 240.2
Q 471.8 240.4 472.15 240.75
L 473 241.5 473.4 241.7
Q 473.6 241.9 474.25 242
L 475.2 241.95 475.95 241.65 476.05 241.65 476.8 240.95 477.4 240.2 477.8 239.2 477.9 238.65
Q 477.9 238.3 477.8 238.1 477.75 237.7 477.35 237.2 477.1 236.8 476.7 236.5 476.1 236.1 475.05 235.8
L 474.95 236.1
Q 475.65 236.45 476.25 237.05
L 476.65 237.65
Q 476.8 237.95 476.8 238.25
L 476.8 238.55 476.7 238.85 476.3 239.4 475.8 239.85 475.25 240.2 474.9 240.25 474.75 240.25 474.55 240.2 474.15 239.95 474 239.8 473.7 239.4
Q 473.5 239.2 473.45 238.95
L 472.65 237.55 467.05 236.25 466.55 237.75 466.5 238.05 466.4 238.3 466.15 238.55 466 238.65 465.7 238.8
Q 465.45 238.9 465.35 238.95
L 464.45 239.2 464.2 239.3 464 239.3 463.95 239.25 463.8 239.2 463.6 239.05 462.2 237.3 458.95 238.55 458.65 238.7 458.4 238.9 455.7 241.65 454.45 241.25 454.15 241.05 453.7 240.65
Q 453.5 240.3 453.45 240.2
L 453.35 239.65 453.45 238.9 453.6 238.55 462.45 233.65 471.95 235 472.25 235.1 477 227.05 474.2 226.05 474.4 223.1
Q 474.45 221.55 474.5 220.55
L 482.8 217.95 482.75 217.1
Q 482.6 214.4 482.55 213
L 482.3 209.1
Q 482.976953125 208.2423828125 483.5 207.55
L 493.95 205.45 478.2 202.55
Q 473.6 201.65 469.7 200.55
L 467.7 199.95
Q 466.4 199.45 466.05 199.25
L 466.05 199.05 465.55 196.7 465.15 195.55
Q 464.6 194.3 464.1 193.4
L 462.65 191.5
Q 461.85 190.6 460.85 189.85 459.45 188.95 458.7 188.6
L 458.15 188.4 454.3 191.4 454.2 191.05 453.45 189.45
Q 452.65 187.95 451.6 186.5 450.55 185 449.5 183.85 448 182.15 447.4 181.55
L 447.2 175.1 451.85 174.95 443.15 171.75 443.05 172.05 447.85 174.2 446.25 174.15 446.2 174.65 446 182.1 450.25 187.45
Q 451.2 188.85 451.85 190.25
L 452.5 191.7 453.2 194.55 458.35 190.8
Q 458.9 191.15 459.5 191.6 460.05 192 460.95 193
L 462.1 194.6
Q 462.45 195.2 462.95 196.4
L 463.5 198.35 463.65 199.35 463.65 199.6 463.7 199.75 463.7 199.8 410.7 186.6 410.5 186.6 410.35 186.65 398.75 192.1 389.95 189.25 389.75 189.2 381.1 192.65 368.75 188.95 368.35 189.1 354 195.7 356.1 191.95 370.4 185.8 370.55 184.95
Q 370.75 183.85 371 183.1 371.2 182.25 371.6 181.2
L 373.1 177.55 376.15 172.5
Q 376.55 171.9 377.4 170.95
L 378 170.15 381.6 166.75
Q 382.05 166.3 383.15 165.6 384.35 164.7 384.8 164.5
L 394.15 159.9 389.9 158.8
Q 381.1408203125 156.486328125 375.8 155.1
L 375.75 153.45 383.75 150.4
Q 384.5712890625 150.126171875 391.4 147.4
L 405.85 148.55 405.85 148.45 412.65 149.85
Q 413.75 150.1 416 150.65
L 417.75 151 418.2 151.05 404.35 161.45 407.55 163.25 409.9 165.15 412.05 167.4
Q 412.9 168.35 413.05 168.6 414.2 169.9 415 171.05
L 418.6 176.35
Q 420.45 179.25 421.9 181.8
L 422.1 182.2 442.9 187.8 443 160.25 445.6 159.9 445.7 159.9 445.85 159.8 448 158.6 431.95 142.8 419.35 148.55 419.45 148.55 419.1 148.65 419.35 148.55 419.3 148.55 418.4 148.35 427.55 143.7 428.05 143.5 428 143 427.9 135.75 424.95 134 423.95 116.4 425.5 107.5 427.55 105.8 427.6 105.7 427.6 105.65 428.8 100.9 428.5 100.85 427.15 105.5 425.05 107.1 424.95 107.15 424.95 107.25 423.1 116.25 423.55 134.45 423.6 134.8 426.45 136.6 426.4 142.5 419.1 146 418.75 120.15
Q 418.75 118.55 418.65 117.65
L 418.55 116.3 417.8 113.6
Q 417.65 113.15 417.15 112.35 417 112.1 416.3 111.15
L 415.25 110.15 414.1 109.35 412.75 108.65 412.6 108.65 410.95 108.4 410.1 108.4
Q 409.5 108.4 409.25 108.45 408.45 108.5 407.45 108.85
L 406.6 109.2 405.1 110.3 404.5 111
Q 403.85 111.8 403.55 112.45
L 402.4 115.75 402.75 145.25 394.25 144.55 394.6 140.05 396.55 136.85 396.55 136.45 398.05 117.3 398.1 117.2 398.05 117.05 396.4 94 396.4 93.8 396.35 93.6 394.85 89.2 404.15 88.3 403.85 90.8 415.8 94.4 416.05 94.45 416.15 94.5 433.9 101 430.1 89.75 421.7 88.9 406.2 80.85 406.2 73.95 409.4 73.25 405.85 68.35 406.15 68.25 407.75 67.5 409.25 66.45 409.9 65.8
Q 410.25 65.5 410.5 65.1
L 411.05 64.35
Q 411.2 64.2 411.5 63.55
L 411.85 62.75
Q 412.1 62.3 412.15 61.9
L 412.6 60.15 412.8 58.45 412.6 56.25
Q 412.2 54.85 411.9 54.2
L 410.85 52.35
Q 410.2 51.45 409.5 50.75 408.05 49.3 406.3 48.15 405.05 47.3 403.15 46.35
L 400.8 34.1
Q 401.449609375 34.03046875 401.85 33.55
L 402.1 32.95 402.2 32.35 402.2 31.9 402.1 31.15 402.1 30.9 402.25 29.65
Q 402.15 28.85 401.85 28.45 401.55 28.05 401.25 27.9
L 401.2 27.85
Q 401.253125 27.1349609375 401.3 26.15
L 401.4 24.85 402.5 26.75 402.7 22.7 402.75 22.55 402.6 22.35 401.8 20.75 401.8 20.95 401.7 20.55 401.8 20.75 402.05 10.1 406.95 11.6
M 405 8.35
L 405 8.9 399.9 7.2 399.9 7.95 393.35 6.25 393.3 5
Q 394.85 5.25 399.3 6.2
L 399.7 6.3 399.7 5.9
Q 399.7 5.85 399.85 1.85
L 400.6 2.35 400.4 6.85 405 8.35
M 408.35 51.85
L 409.5 53.3 409.95 54.05
Q 410.1 54.25 410.35 54.85 410.6 55.4 410.9 56.6
L 411.05 58.3 410.45 61.3 409.85 62.7
Q 409.65 63.15 409.45 63.35
L 408.55 64.45 407.4 65.4 406.8 65.8 405.45 66.4 402.55 67.25 405.75 71.85 404 72.15 403.9 82.25 421 91.4 421.2 91.4 428.1 92.2 429.5 96.45 407.05 88.7 407.55 85 390.7 86.5 391.45 88.85
Q 389.74921875 89.3263671875 387.55 90.25 385.9 90.95 383.5 92.25 381.7 93.25 379.8 94.9 377.75 96.7 376.1 97.6
L 375.75 97.8 375.95 98.15 377.15 101.55
Q 377.3 105 377.35 105.65
L 377.5 107.4 383.5 104.3
Q 385.45 103.25 387.55 101.8 389.3 100.65 391.4 98.95 392.510546875 98.1103515625 393.5 97.2
L 394.85 117.2 393.45 135.8 391.5 139 391.05 145.65 375.75 153 375.45 141.6 379.25 136.45 379.05 113.6 375.85 110.75 375.5 106.4 375.5 106 371.15 102.2 370.7 96.35 378.15 94.7 378.3 94.65 378.4 94.55 397.45 80.95 397.4 72.45 394.85 72.45 397.65 68.45 395.45 67.7 393.95 66.95
Q 393.5 66.65 393.25 66.5
L 392.55 66.05 390.8 64.3 390.3 63.65 389.2 61.45 388.6 59.05 388.85 57.3 389.4 55.5
Q 390.1 53.75 391.3 52.35 393.6 49.55 397.15 47.7
L 397.35 47.55 399.8 35.5 401.8 47.25 402.15 47.45
Q 403.9 48.35 405.45 49.4 407.25 50.7 408.35 51.85
M 399 20.7
L 399 20.15 400.1 20.75 400.15 20.15 400.15 21.2 400.35 21.6 400.75 27.65
Q 400.6216796875 27.65 400.5 27.65 400.059375 27.5240234375 399.45 27.65
L 399.95 21.45 399 20.7
M 400.45 30.55
L 400.75 30.4 401.1 30.4
Q 401.45 30.4 401.65 30.6
L 401.8 30.9 401.8 31.15 401.65 31.45
Q 401.45 31.65 401.15 31.65 400.95 31.7 400.5 31.55 400.403515625 31.5017578125 400.3 31.5
L 400.2 30.8 400.35 30.75
Q 400.3 30.75 400.3 30.7
L 400.45 30.55
M 399.3 30.85
Q 399.4 30.7 399.5 30.75
L 399.25 32
Q 399.11875 31.9583984375 399 31.8 398.75 31.4 399.15 31 399.2 31 399.3 30.85
M 376.95 98.15
Q 378.6 97.2 380.7 96.5 383.45 95.45 384.85 94.6 387.25 93.15 388.6 92.05 390.4037109375 90.67578125 391.65 89.4
L 393.3 94.35 393.4 95.9
Q 392.1076171875 96.376953125 390.3 97.1 387.95 98.15 386 99.2 383.8 100.35 381.9 101.65 380.65 102.45 379.3 103.4
L 378.55 101.1
Q 377.75 99.9 377.6 99.5
L 376.95 98.15
M 354.35 165.75
L 350.75 165.75 360.15 151.75 370 154.1 354.35 162.7 355.15 179.05
Q 355.45 180.55 355.75 181.4 356.2 182.75 357.05 183.6 357.65 184.2 358.2 184.45 358.95 184.8 359.7 184.7 361.05 184.6 362.15 183.45 363 182.6 363.55 181.5 364.6 179.55 365.15 177.15 365.6 175.35 365.85 172.7
L 365.85 172.65 365.7 170.9 365.5 170.05
Q 365.4 169.55 365.25 169.2
L 364.9 168.35
Q 364.6 167.85 364.35 167.6
L 364.05 167.25 363.65 167 363.2 166.8 362.7 166.7
Q 362.15 166.6 361.75 166.75 361.65 166.75 360.9 167 360.05 167.45 359.45 168
L 358.25 169.2 357.25 170.55 357.45 170.75
Q 357.85 170.3 358.55 169.5
L 359.15 168.9 360.45 167.95 361.15 167.6
Q 361.4 167.55 361.9 167.4 362.25 167.35 362.6 167.4
L 362.95 167.5 363.25 167.65 363.5 167.85 363.75 168.15
Q 363.95 168.3 364.15 168.75
L 364.6 170.25 364.7 171.05
Q 364.8 171.55 364.8 172.55 364.35 175.05 363.85 176.8 363.2 179.15 362.25 180.75 361.55 181.85 361 182.3 360.2 183 359.6 183 358.95 183.05 358.35 182.4 357.85 181.8 357.5 180.75 357.2 179.8 357.1 178.8
L 356.85 164.15 371 156.85
Q 376.05 158.3 384.95 160.7
L 381.3 162.95
Q 379.8 164.1 379.55 164.3
L 377.9 165.7
Q 376.9 166.75 376.4 167.25
L 374.95 168.9
Q 373.8 170.35 373.6 170.6
L 371.25 174.25 368.65 180.2 367.75 183.7 354.25 189.65 354.35 165.75
M 380.9 194.4
L 381.2 194.5 381.45 194.35 389.85 190.75 398.55 193.25 398.8 193.3 410.7 187.6 482.55 207.3 481.15 208.45 481 208.6 481 208.9 480.5 215.7 463 211.05 411.55 199.8 411.2 199.75 410.9 199.85 398.85 205.25 390.8 202 390.65 201.9 390.45 202 381.5 205.4 370.5 202.65 370.2 202.55 369.9 202.75 358.2 208.55
Q 354.35 210.6 352.45 211.7
L 335.4 221.35 324.75 227.9 322.8 227.9 315.9 218.7 347.8 201.15 347.5 201.75 368.9 191.3 380.9 194.4
M 408.4 111.3
Q 408.95 111.05 409.55 111
L 410.8 110.95 412.05 111.15 412.85 111.5 413.7 112.1 414.45 112.8
Q 414.65 113.1 415.05 113.65 415.45 114.25 415.55 114.55
L 416.15 116.65 416.3 117.8 417.25 148.15 406.45 146
Q 406.157421875 145.9490234375 405.8 145.9
L 405.1 116.15 405.65 114.25 405.9 113.65 406.55 112.65 407.4 111.8 407.85 111.5 408.4 111.3
M 442.15 159.1
L 442.15 157.3 421.4 150.55 431.45 145.9 445.45 158.35 445.2 158.5 445.35 158.45 445.1 158.55 445.2 158.5 442.15 159.1
M 424.3 154.8
L 424.25 154.8 424.5 171.25 424.55 171.3
Q 424.75 172.9 425.15 173.9 425.7 175.3 426.35 176.25 427.95 178.5 430.35 179.8 432.85 181.2 435.6 181.2 437.25 181.2 438.45 180.7 440.15 180.1 440.9 178.7
L 441.3 177.95 441.55 177.1 441.6 176.4 441.65 176.25 441.9 169.3 441.8 186.35
Q 435.85 184.45 432.75 183.5
L 423.5 180.55
Q 421.9 177.25 420.55 175.15
L 417.05 169.6
Q 416.05 168.1 415.1 166.95
L 411.8 163.15 409.5 161.25 420.2 153.45 424.3 154.8
M 439.05 176.2
L 439 176.75
Q 439 177.05 438.75 177.4 438.1 178.8 435.55 178.9 433.25 178.9 431.3 177.95 429.2 176.95 427.85 175.2 427.2 174.4 426.7 173.25 426.3 172.3 426.05 171.1
L 424.55 154.9 439.05 159.6 439.05 176.2
M 459.35 233.2
L 456.9 234.2
Q 454.9 234.95 451.85 236.35
L 451.4 236.55 450.75 238.2
Q 450.55 239 450.55 239.55 450.45 240.25 450.7 241 450.8 241.65 451.35 242.45
L 452.4 243.5 453.55 244.15
Q 454.35 244.55 455.85 244.95
L 456.65 245.15 458.4 243.45 456.8 337.85 450.85 337.25 450.9 275.7
Q 450.9 273.45 450.8 272.35 450.55 268.8 449.4 265.75 448.15 262.45 445.95 259.9 441.5 254.7 434.35 253.4 432.45 253.05 431 253.05 429.05 253.15 427.6 253.9 426.3 254.55 424.8 255.85 423.15 257.35 422.3 258
L 420.6 259.35 420.45 233.15 420.95 233.2 421.6 233.15 422.15 232.95 422.85 232.45 424.05 231.3 424.25 231.15 423.05 228.8 420.5 230.1 420.05 229.85 419.95 229.75 419.9 229.65 419.85 229.5 419.85 229.3 420.25 227.45 414.95 225.7 414.4 226.7 413.85 227.45 413.55 227.7
Q 413.35 227.9 413.25 227.9 412.95 228.05 412.9 228.05
L 412.5 228.15 411.9 228.15 411.45 227.85 411.25 227.65 411.1 227.45 411.05 227.3 411.05 227.15 411.1 227 411.1 226.9 411.25 226.6 412.45 223.35 403.55 227.65 403.85 228.7 404 230
Q 404 230.2 403.9 230.4
L 403.75 230.55
Q 403.5 230.8 402.8 230.8 402.3 230.85 401.6 230.75 401.15 230.55 400.9 230.05 400.55 229.65 400.55 229.05
L 400.6 228.6 400.7 228.35
Q 400.75 228.3 400.85 228.15 401 227.85 401.25 227.65 401.35 227.5 401.75 227.25
L 411.45 222.45 448.5 230.85
Q 452.2697265625 231.6578125 459.35 233.2
M 417.85 231.4
L 417.9 231.45 417.85 231.45 417.9 232.25
Q 418.1 240.2 418.7 256.1
L 420.6 327.9 420.75 328.05 422.35 329.9
Q 423.45 331.45 423.65 331.9
L 424.05 332.9
Q 424.15 333.2 424.1 333.45 423.9 333.65 423.3 333.75
L 422.2 333.95
Q 419.8 334.1 417.35 333.95 415.1 333.9 412.45 333.55
L 412.3 333.55 412.15 333.6 402.95 335.7 402.7 335.7 402.7 335.75 402.6 335.75 402.95 337.65 411.25 336.85 429.5 338.2 430 361.35 414 359.7 399.45 349.15 399.45 338.25 402 337.45 402.25 334.45
Q 402.4 333.7 402.8 332.75
L 403.2 332.05 403.7 331.4 404.25 330.85
Q 404.45 330.65 404.9 330.4
L 405.75 329.8 405.6 232.4
Q 406.05 232 406.25 231.5 406.5 230.9 406.6 230.2
L 406.55 229.15 408.55 228.15
Q 408.65 228.45 408.7 228.6
L 409.15 229.3 410.25 230.3 410.8 230.65 411 230.75 411.3 230.8 412.05 230.85 412.85 230.8
Q 413.15 230.8 413.7 230.65
L 414.5 230.3 415.25 229.85 415.85 229.25
Q 416 229.1 416.15 228.95
L 417.15 229.3 417.2 229.95 417.45 230.7 417.85 231.4
M 425.4 256.6
Q 426.9 255.3 428 254.7 430.4 253.5 434.2 254.3 440.95 255.6 445.2 260.6 447.25 263.05 448.4 266.1 449.45 269 449.7 272.45 449.8 273.5 449.7 275.7
L 448.45 337.1 445.3 336.8 444.45 275 443.6 271.15
Q 443.15 269.9 442.95 269.25 442.45 268.05 442.1 267.5 440.15 263.85 437.1 261.4
L 433.8 259.3
Q 433.4 259.1 432 258.5
L 430.2 257.85
Q 427.8 257.05 426.3 257.05 425.6 257.05 424.75 257.2 425.05 256.95 425.4 256.6
M 329.35 392.7
L 329 389.2 319.95 392.55 319.95 395.55 316.05 396.4 315.35 393.2 304.2 397.15 304.4 400 299.8 401.55 298.6 400.2 295.25 400.15 295.2 396.4 290.65 396.25 290.65 394.1 289.3 393.8 385.65 363.8 385.65 369.55 385.45 369.4 299.4 396.25 299.5 396.55 346.9 383.3 347.25 385.9 343.6 387.2 342.95 384.95 333.55 387.95 334.35 391.6 329.35 392.7
M 360.5 381.35
L 356.15 382.9 355.75 380.75 360.15 379.5 360.5 381.35
M 377.25 374.55
L 377.25 377.45 372 378.65 371.7 376.15 377.25 374.55
M 403.65 375.2
L 403.3 377.8 409.8 378.85 410.5 376.5 424.5 378.25 424.5 381.05 430.7 381.9 430.75 379.4 443.7 381.1 443.2 383.9 449.95 384.75 449.95 382.6 461.8 384.3 461.8 387.95 469.7 387.95 469.9 385.55 481.2 387.7 481 390.8 489.15 391.75 489.15 388.95 500.5 390.25 500.3 394.25 508.35 394.2 508.55 391.4 517.85 392.75 511.25 396.35 510.95 407 510.9 407.5 511.55 408.2 510.75 409.4 510.8 409.75 514.85 540.25 394.15 551.15 394.2 520.3 405.4 520.25 498.95 528.2 496.45 417.9 494.95 417.45 494.65 414.7 508.95 416.2 509 416.2 509.15 414.85 509.3 414.85 509.3 413.7 509.35 413.5 509.3 413.5 509.4 410.3 494.4 407.35
Q 489.45 406.35 479.55 404.55
L 464.75 401.75
Q 457.35 400.35 449.9 399.05
L 389.7 388.55 389.35 389 389.3 374.7 392 374.1 391.15 373.5 403.65 375.2
M 384.95 372.3
L 385.55 372.75 378.35 374.2 384.95 372.3
M 246 286.95
L 246.4 286.95 246.2 291.95 246.7 292.1 251.3 293 251.3 293.2 246 292.5 246.15 303.1 246.25 303.2 246.5 303.65 247.05 311.6
Q 246.56484375 311.5279296875 246.1 311.6 246.1673828125 310.6587890625 246.3 309
L 246.45 304.9 245 303.45 245.05 302.75 245.8 302.75 245.85 302.1 245.85 297.55
Q 245.85 294.55 245.75 293
L 245.75 292.5 240.3 292 240.25 290.6 245.95 291.45 246 286.95
M 230.5 341.5
Q 231 340.05 231.45 339.35
L 232.2 338.5 235.2 335.7
Q 240.45 330.85 242.95 327.7 243.85 326.6 244.6 325.3 245.3 324.25 245.75 322.5 246.1 321.2 246.3 320.5 246.5 321.85 247.15 323.6 247.9 325.45 248.9 326.7 249.45 327.5 251.2 329.25 252.8 330.8 256.05 333.6
L 258.4 335.8
Q 259.45 336.8 260.55 338.05
L 261.5 339.2 262.2 340.45
Q 262.85 341.65 263 343.1 263.2 345.6 261.6 348.65
L 260.1 351.5
Q 259.5 352.85 259.45 353.55 259.4 353.9 259.55 354.4 259.65 354.75 260.05 355.25
L 260.65 355.65 264.95 358
Q 264.917578125 358.0154296875 264.85 358
L 263.2 357.55
Q 261.5 357.1 259.85 356.8 257.85 356.45 256.4 356.45
L 254.65 356.45
Q 254.05 356.45 252.95 356.35 251.4 356.3 249.5 355.95
L 245.2 355.2 239 354.95 234.15 356.65
Q 233.6 356.85 231.85 357.6 230.95 357.95 229.65 358.7
L 229.7 358.85 237.05 357.65
Q 238.75 357.25 239.25 357.1
L 246 356.85
Q 247.15 356.85 249.4 356.75 251.15 356.75 252.85 357.05 253.5 357.15 256.2 357.9
L 259.6 358.55
Q 261.9 358.85 263.05 358.85 263.675 358.90859375 264.35 358.9
L 262.15 360.85 261.25 395.3 261.2 395.7 262.95 398.35 262.95 403.75 246 402.9 245.25 395.95 248.05 395.8 259.9 396.1 259.75 367.45 247.35 366.8 247.55 394.2 243.4 394.1 243.5 395 243.5 395.1 236.8 395.55 236.45 368.55 231.8 369.8 231.9 391.25 232.2 391.25 232.35 370.25 235.85 369.35 235.9 395.05 235.5 393.55 234.65 393.55
Q 233.65 393.55 232.95 393.2 232.3 392.95 231.7 392.1 231.25 391.5 231 390.4
L 231 390.15 230.95 390.15 230.15 360.5 227.35 359.15 235.25 353.1 233.6 352.25
Q 232.35 351.6 231.85 350.9
L 231.45 350.45 231.15 349.95
Q 230.85 349.25 230.65 348.9
L 230.1 346.5
Q 229.95 345.35 230.05 344 230.1 343.1 230.5 341.5
M 248.55 314.9
Q 248.7 315.05 248.75 315.25
L 248.8 315.4 248.75 315.55
Q 248.75 315.85 248.6 315.95 248.5251953125 316.0998046875 248.25 316.2
L 248.2 315.6 245.15 315.6 245.2 315.5 245.25 315.45 245.25 315.5
Q 245.6 315.05 245.65 315.05
L 245.95 314.9
Q 246.1 314.8 246.4 314.8
L 246.8 314.75
Q 246.95 314.75 247 314.7
L 247.6 314.5 248 314.55
Q 248.35 314.6 248.55 314.9
M 248.55 368.1
L 258.45 368.75 258.35 394.6 248.5 394.25 248.55 368.1
M 265.3 413.35
L 265.3 413.95
Q 261.45 413.75 257.55 413.5
L 248.95 412.7
Q 248.25 412.65 247.95 412.55
L 246.75 412.3 246.6 412.25 246.1 412 245.45 411.5
Q 244.3 410.5 242.6 408.45 240.3 405.6 237.7 401.5
L 236.3 396.45 236.4 396.4 243.6 396.05 244.45 404.45 262.95 405.5 262.95 406.1 264.75 406.1 265.1 413.25 265.3 413.35
M 196.5 480.6
L 196.45 479.5 204.9 479.4 204.95 476.25 202.85 476.25 202.85 475.3 204.7 475.35 205.05 475.4 205.1 473.1 206.4 473.15 206.35 475.7 208.1 475.75 208.1 476.25 206.1 476.2 206 480.2 213 480.25 213 481.05 206.25 481.05 206.45 496.6 206.5 496.85 206.6 496.95 208.15 499 208.25 500.5 206.15 498.85 206.6 505.05
Q 205.965625 505.0951171875 205.65 505.05
L 205.5 505.05 205.5 505.1 205.4 505.1 205.25 505.15 204.95 505.2
Q 204.902734375 505.2 204.75 505.2
L 205.1 498.3 205 498.2 203.15 495.6 203.75 494.35 205.25 495.8 205.3 480.35 196.5 480.6
M 203.4 507.35
L 203.6 506.95 203.9 506.65
Q 204.5 506.3 204.7 506.25
L 205.1 506.2 205.35 506.2 205.45 506.25 205.5 506.25
Q 205.8 506.35 206.45 506.55
L 206.95 507 207.1 507.3
Q 207.2 507.5 207.2 507.6
L 207.3 508.25 207.3 508.8 207.25 508.9
Q 207.25 509.1 207.2 509.1
L 207.15 509.15 207.05 509.4 205.85 510.9 205.85 510.5 205 510.2 204.1 509.75 203.8 509.55 203.6 509.35 203.45 509.1 203.4 509.05 203.35 508.95 203.35 508.65 203.3 508.2
Q 203.3 508.1 203.4 507.35
M 205.5 515.1
Q 205.5 515 205.55 514.95 205.55 515.05 205.55 515.15
L 206.1 518.1
Q 205.2 518.35 204.6 518.55 204.8 518.05 205.15 516.95
L 205.5 515.1
M 206.35 520.75
L 207.2 525.85 207.25 525.95 207.4 526.5
Q 207.8 527.55 208.55 528.6 209.4 529.7 210.2 530.3 210.35 530.45 211.95 531.6
L 213.6 532.85
Q 214.45 533.45 215.1 534.2 216.1 535.45 216.25 535.7
L 217.05 537.05 217.6 538.35 217.8 539.25
Q 218 540.5 217.9 541.05 217.85 541.9 217.45 542.75
L 217 543.5 216.45 544.2
Q 215.8 544.9 215.05 545.45 214.2 546.05 213.45 546.35
L 212.75 546.65 212.6 549.35 199.2 549.7 199.15 552.3 210 552.8 209.4 569.75 210.8 570.1 210.85 570.4 200.85 572.5 201.3 575.55 201.65 575.55 214.7 574.35 214.7 576.3 212.85 577.05
Q 212.6 577.15 210.05 578.1
L 203.35 580.2 203.2 580.2 202.85 580.3 195.5 581.8
Q 195.45 581.8 194.2 581.95
L 194.05 574.15 197.15 574.15 197.3 569.85 199.4 569.05 198.7 551.6 143.3 553.35 7.4 576.6
Q 6.65 576.4 6.35 576.1 6.0080078125 575.894921875 5.9 575.7
L 5.9 575.2
Q 5.9908203125 574.9091796875 6.25 574.65
L 7.25 573.7 7.85 573.3 8.4 573.05 9.75 572.6 12.75 571.9
Q 15.5 571.3 24.85 569.55 33 568.15 49.3 565.55
L 98.25 558
Q 105.85 556.85 122.75 554.45
L 135.05 552.75
Q 144.05 551.55 147.3 551.25
L 172 550.55 196.1 550.65 196.75 550.7 197 550.75 196.95 550.5 196.8 547.65 196.65 547.55
Q 196.25 547.4 195.8 547.05
L 195.4 546.7 193.7 544.7
Q 193.05 543.75 192.65 542.85
L 192.05 540.9
Q 192 540.25 191.95 539.9
L 191.9 539.4 191.95 538.85
Q 192.05 537.6 192.4 536.95 192.65 536.3 193.45 535.2 193.85 534.65 194.85 533.65
L 201.6 528.35
Q 202.05 527.9 203 526.35
L 203.9 524.3
Q 204.75 521.9 205.15 520.7
L 206.35 520.75
M 196.3 567
L 194.35 567.7 194.2 571.1 190.9 571.05 191.1 585.35 193.55 585.25 203.65 583.4 204.05 583.3 204.1 583.3 205.2 583 217 578.8 217.9 578.35 217.9 576.1
Q 222.1232421875 575.6341796875 242.75 573
L 277.2 568.15 298.2 565.95
Q 302.65 565.45 311.55 564.25
L 325.35 562.3 329.9 556.7 336 560.85 336.2 560.8 346.25 559.9 350.65 562.8 363.1 557.15 362.85 556.95 388.3 554.35 388.35 553.75 388.75 531.2
Q 389.05 516.2 389.1 508.65
L 389.4 398.5 408.1 401.1 394.6 399.75 395.55 402.4 395.6 402.5 395.65 402.5 397.8 403.2 397.9 402.9 395.95 402.15 395.4 400.4 409.6 402.35 410.25 403.75 409.4 404.8 409.3 405.1 408.75 407.75 408.75 408.75 395.85 408.1 395.15 510.6 392.65 510.6 392.7 520.3 393.1 520.3 393.15 552.25 507.25 542.1 393.05 611.05 227.55 622.8 64.55 635.05 113.85 608.4
Q 131.1 599.15 139.75 594.5
L 165.65 580.7 189.9 578.25 189.95 578.25 189.85 576.85 151.8 578.2 151.75 578.25 15.4 596.9 11.4 596.3 13.2 594.85 155.9 576.05 155.7 557.65 155.45 557.65 145.15 556.8 145.15 557.1 155.15 558.2 155 575.25 13.2 592.35 13.2 577.05 42.85 571.6
Q 46.8 570.9 54.65 569.5
L 78.3 565.5
Q 86.2 564.15 102 561.65
L 143.4 555.65 195.9 554.6 196.3 567
M 167.05 579.4
L 165.35 579.55 59.05 636.6 155.6 630.85 65.3 638.15 78.45 651.15 78.65 717.25 13.35 712.3 13.2 602.05 13.1 601.9 10.35 598.65 15.2 599.4 15.4 599.45 15.55 599.4 152.05 580.1 167.05 579.4
M 300.2 506.05
L 300.9 498.15 300.75 507.05
Q 300.4705078125 506.5369140625 300.2 506.05
M 307.1 521.1
L 312.4 532.2 313.45 532.05 322 546.95 316.7 553.35 316.6 553.45 316.55 556.45 303.35 556.4 294.05 552.15 288.3 551.9 299 551.95 224.85 529 298.65 506.6
Q 301.670703125 511.8279296875 307.1 521.1
M 317.55 553.9
L 317.55 553.85 317.9 553.4
Q 317.7322265625 553.6478515625 317.55 553.9
M 104.6 417.4
L 106.5 420.6 109.3 435.6
Q 71.3 446.05 68.35 446.9
L 27.85 458.3 26.65 455.5 26.85 454.7 27.95 452.6 27.95 450.8 28.05 450.45 105.9 421.45 105.2 419.45 105.15 419.5 27.5 447.7 20.2 441.05 83.5 416.45
Q 92.7 412.85 104.55 408.4
L 104.55 417.35 104.6 417.4
M 508.9 410.8
L 508.95 413.45 470.7 407.9 471.2 413 471.2 413.35 471.9 414.4 472.4 420.4 473.55 421 474.05 452.55 473.3 452.2
Q 473.1 450.05 472.95 448.85
L 472.15 444.7
Q 471.65 442.6 470.8 440.65 469.9 438.45 468.8 436.8 467.4 434.65 466.05 433.4
L 464.4 431.95 461.6 430.15 460.6 429.7
Q 460.25 429.5 458.55 428.9 457.95 428.7 456.45 428.35
L 455.35 428.1 453.35 427.85 453.25 427.85 453.15 427.8 450 427.85
Q 448.55 427.95 447.85 428.1 445.85 428.5 445.7 428.55 444.15 429 443.6 429.25
L 442.55 429.65 441.6 430.2
Q 440.05 430.95 438 432.8
L 435.2 436.25
Q 434 438.25 433.3 440.15 432.5 442.05 432.05 444.25
L 431.5 447.45 428.4 448.5 429.85 452.35 429.8 514.95 433 515.8 432.95 521 478.35 524.6 476.35 419.35 475.15 418.65 474.65 413.75 474.65 413.4 474 412.4 474 412.75 473.75 412.1 474 412.4 473.85 411.2 491.95 413.8 492.5 419.3 493.95 419.8 497.1 526.25 418.15 520.05 418.1 514.25 417.9 513.6 418.6 513.6 417.8 437.05
Q 417.8 437 417.65 412.35
L 418.8 411.8 430.85 413.05 430.85 409.75 430.8 409.8 430.85 409.55 430.85 409.75 431.8 408.15 431.85 408.05 431.85 407.95 432.45 403.4 391.35 396.7 391.7 391.35 449.5 401.35
Q 459.4 403.05 464.4 403.8
L 508.9 410.8
M 509.8 551.95
L 509.9 552.05 585.15 616 585 682.65 585.35 748.85 472.1 755.35 404.95 758.05 404.5 665.85 403.85 624.8 428 626.8 428 613.65 403.65 613.7 403.6 609.8 403.3 609.8 403.2 613.7 394.05 613.95 509.25 543.5 509.8 551.95
M 549.05 582.75
L 510.5 551.65 509.65 543.8 593.9 612.5 588.05 614.55 588.05 614.55 568.3 598.4
Q 555.5 587.9 549.05 582.75
M 457.45 432.7
Q 457 432.5 455.75 432.15
L 453.95 431.85 453.9 432.15 455.5 432.8
Q 456 433.05 457.05 433.55
L 458.45 434.5 459.7 435.6
Q 460.4 436.2 460.85 436.8 461.2 437.15 461.85 438.1
L 463.45 440.95 464.6 444.05 466.05 452.1 439.8 449.8
Q 436.861328125 449.605859375 434.3 449.35
L 435 444.9
Q 435.5 442.75 436.1 441.25 436.8 439.4 437.75 437.85
L 438.85 436.35
Q 439.85 435.2 440.1 435 441.6 433.6 443.05 432.8
L 444.7 432.05
Q 445.5 431.7 446.45 431.45 447.05 431.25 448.3 431.05
L 452.95 430.8 455.85 431.25
Q 457.35 431.65 457.65 431.75
L 460.25 432.8 463.35 434.85 464 435.5
Q 465.35 436.75 466.35 438.4 467.45 440 468.15 441.75 469 443.9 469.35 445.4 469.4 445.5 469.8 447.3
L 470.1 449.25
Q 470.3 450.55 470.5 453.15
L 470.6 453.95 469.35 453.8 468.6 448.45
Q 468.4 447.25 468.2 446.65
L 467.15 443.2 465.55 439.85
Q 464.85 438.65 464.55 438.3 463.85 437.3 463.4 436.85 462.45 435.8 462.1 435.5 461.2 434.7 460.65 434.35 460.2 434 459.1 433.4 458.7 433.15 457.45 432.7
M 431.3 404.25
L 430.95 407.7 429.95 409.3 429.9 409.4 429.9 412 418.7 410.8 418.6 410.8 418.45 410.85 416.95 411.6 416.7 411.75 416.7 412.05
Q 416.55 437 416.55 437.05
L 416.25 462.1
Q 416.05 474.65 415.95 487.15
L 415.75 510.8 414 510.8 415.25 514.75 415.25 517.3 395.85 517.2 395.85 513.8 398.35 513.8 397.7 410 410.2 410.3 410.15 408 410.6 405.5 411.65 403.85 410.35 401.4 431.3 404.25
M 439.65 451.3
L 443.35 451.95 432.85 451.65 432.35 450.4 432.85 450.2
Q 435.8798828125 450.64609375 439.65 451.3
M 467.8 455.8
Q 468.084375 455.8 468.35 455.8
L 468.55 512.4 442.15 509.85 442.05 509.3 464.9 510.45 465.15 508.4 459.2 507.15 459 466.15 442.45 464.55 443.7 507.15 439.35 506.85 440.2 511.95 471 515.1 471.15 456.8 474.1 457.1 475.15 521.2 436.1 518.15 436.1 513.35 432.95 512.5 432.9 452.75 452.1 455.15 462.6 455.7
Q 464.3 455.8 467.8 455.8
M 455.65 469.35
L 455.35 469.35 454.75 506.5 444.65 506.3 443.95 466.2 457.4 467.6 457.2 507.95 445.95 507.25 455.15 507.3 455.55 507.35 455.65 469.35
M 349.05 546.25
L 353.15 549.9
Q 355.9 552.45 359.9 556.6
L 355.7 558
Q 355.25 558.15 350.95 559.7
L 328.55 545 345.15 543.05
Q 346.5 544.2 349.05 546.25
M 424.8 616.85
L 424.8 623.35 403.8 621.6 403.7 616.8 424.8 616.85
M 474.5 667.1
Q 479.65 667.45 484.65 667.6
L 495 668.15 496.35 739.7 496.65 739.7 498.1 665.1 496.6 665.05
Q 490.6 664.65 484.8 664.45
L 471.35 663.85 472.15 703.75
Q 472.3 710.15 472.75 722.9 472.9 729.3 473.25 742.05
L 473.25 742.55 500.75 742.65 501.2 722.45
Q 501.5 709.35 501.5 702.85 501.55 696.3 501.45 683.2 501.3 670.15 501.15 663.6
L 501.15 662.65 486.1 662.35
Q 476.65 662.25 471.95 662.3
L 471.9 662.6 499.2 664.55
Q 499.05 671.05 498.9 683.2 498.8 696.3 498.85 702.85 498.85 709.35 499.15 722.45
L 499.6 741.45 474.25 741.55 474.35 722.9
Q 474.5 710.1 474.5 703.75
L 474.5 667.1
M 515.9 587.25
Q 515.9 587.15 515.6 577.9
L 515.55 576.9 499.7 577.4 498.9 614.5 507.05 614.7
Q 502.5 614.9 500.15 615.1
L 500.15 615.4 507.4 615.9
Q 507.6 615.9 514.65 616.2
L 515.55 616.25 515.55 615.25
Q 515.85 606 515.85 605.9
L 515.95 596.55
Q 516.05 594.25 515.95 591.9
L 515.9 587.25
M 500.85 579.4
L 500.95 587.15
Q 501.1 593.7 501.1 593.8
L 501.1 594.4 508.8 594.15 508.8 593.85 502.3 593.3
Q 502.55 589.25 502.7 587.2
L 503.1 581.7 510.25 582.05 510.1 588.85
Q 510.1 591.55 510.05 597
L 510.2 611.85 501.45 612 500.65 578.4 513.65 578.8
Q 513.5 581.9 513.35 587.2
L 513.3 596.55
Q 513.45 605.8 513.45 605.9
L 513.7 614.35
Q 513.4 614.35 513.1 614.4
L 513 579.3 500.85 579.4
M 59.15 644.7
L 59.15 644.35 58.85 644.35
Q 55.3 644.4 48.1 644.3
L 47.75 644.3 47.05 701 52.35 701 51.4 654 51.2 654 50.8 665.45
Q 50.7 669.3 50.5 676.95
L 50.2 698.85 49.2 698.85 48.5 645.05
Q 55 644.95 58.5 645 58.4 649.9 57.9 659.35
L 57 703 45 703.4 45 703.6 58.05 704.05 58.7 688.8 59.1 659.4
Q 59.1 647.15 59.15 644.7
M 67.65 642.7
L 67.65 642.5 24.05 641.7 24.05 642.6
Q 24.05 645.05 24.3 657.4 24.4 662.35 24.6 672.2
L 24.3 702.45 32.7 702.65 32.95 658.7
Q 32.95 653.95 32.75 644.35
L 32.75 643.5 67.65 642.7
M 27.15 643.95
L 27.4 657.1
Q 27.55 663.25 27.85 669.5
L 28.05 669.5 28.7 645.4 31.05 645.25
Q 31 650 30.9 658.7
L 31.15 701.1 25.6 701.2 25.45 694.45
Q 25.3 689.5 25.3 687
L 25.25 672.2
Q 25.3 667.3 25.6 657.4
L 25.85 643.5 32.15 643.5 27.15 643.95
M 389.3 111.1
Q 388.65 111 388.4 111.05
L 387.55 111.1 387.45 111.15 387.4 111.15
Q 385.9 111.55 384.95 112.65 384 113.65 383.6 115 383.2 116.25 382.85 119.85
L 381.9 129.2
Q 381.7 132.3 381.7 133.85 381.65 135.9 381.8 138.5
L 382.25 143.2
Q 382.6 146 383.15 147.85
L 383.45 147.85
Q 383.95 145.9 384.3 143.2
L 384.75 138.5
Q 384.9 136.2 384.9 133.85
L 383.9 122.2
Q 383.7 120.6 383.75 119.9 383.75 118.95 384.1 117.65 384.35 116.75 385.05 115.7 385.65 114.9 386.45 114.4 387.2 114 388.1 113.75
L 388.8 113.75 389.15 113.8 389.45 113.95 390.05 114.55
Q 390.4 115 390.6 115.45
L 391.1 116.55 392.35 120.2 392.65 120.15
Q 392.9 119 393 117.5 393 116.05 392.65 114.7
L 392.45 114 392.1 113.25
Q 391.65 112.4 391 111.9
L 390.2 111.4 389.3 111.1 Z"/>
</g>
</defs>

<g transform="matrix( 1, 0, 0, 1, 0,0) ">
<use xlink:href="#Layer0_0_FILL"/>
</g>
</svg>
