
<svg xmlns="http://www.w3.org/2000/svg" version="1.1" xmlns:xlink="http://www.w3.org/1999/xlink" preserveAspectRatio="none" x="0px" y="0px" width="594px" height="761px" viewBox="0 0 594 761">
<defs>
<g id="Layer1_0_FILL">
<path fill="#FFFFFF" stroke="none" d="
M 406.95 11.65
L 406.85 2.1 392.45 2.1 392.35 6.95 392.75 7 398.5 9.2 398.5 18.25 397.5 17.8 397.6 21 397.7 21.4 398.75 22.05 399.2 27.6 399.2 27.75 398.75 27.9
Q 397.95 28.4 397.5 29.25 397.25 29.9 397.25 30.25 397.25 30.75 397.5 31 397.6 31.35 398.25 32.3
L 399 33.25 396.45 46.95
Q 392.95 48.85 390.5 51.75 389.2 53.35 388.5 55.2
L 387.85 57.1 387.6 59.1 387.6 59.2 388 60.95 388.35 61.75 388.6 62.6 389.5 64.2 390.7 65.6 391.35 66.2
Q 391.9 66.75 392 66.75
L 395.1 68.6 396.1 68.95 392.95 73.45 396.35 73.45 396.35 80.45 377.75 93.35 369 95.1 369.35 102.7 369.45 103 373.7 106.95 373.85 111.7 377 114.5 376.75 135.65 372.85 140.85 373.1 152.15 358.95 148.7 346 168.25 351.85 168.25 351.95 191.25 348.5 198.4 313.85 218.35 322.25 228.9 323.85 228.9 324.2 244.65 324.5 244.65 324.5 244.7 322.85 245.45 322.2 246.5 321.5 248.4 321.5 250.4 321.7 250.85 321.75 251.35 322.1 252.2 322.85 253.45 323.35 253.5
Q 324.1 253.65 324.85 253.65
L 327.25 253.65 327.5 347.05 325.1 347.05 318.45 356.8 318.25 357.05 318.45 375.15 285.1 391.75 285.25 392.05 285.35 392.4 285.3 392.45 279.2 394.25 288.1 396.25 288 398.75 292.5 399 292.5 402.75 297.35 403 298.85 404.75 301.05 404 301.15 404 301.15 404 301.45 405.25 300.75 419.4 299.5 422.05 299.6 422.4 300 424.4
Q 300 424.6111328125 299.95 428.3 299.944140625 428.6859375 299.95 429.05
L 296.15 431.25 294.95 429.2 267.7 411.75 267.25 403.5 265.6 403.5 265.5 397.5 263.85 395 264.6 362 269.25 357.9 261.95 353.55 262.25 352.65 263.85 349.8
Q 264.8 347.65 265.1 346.5 265.6 344.55 265.45 342.9 265.3697265625 341.9357421875 265.1 341 264.84453125 340.1892578125 264.45 339.4
L 262.95 337.05 262.35 336.5
Q 261.55 335.5 260.1 334.05
L 257.7 331.8
Q 254.15 328.8 252.85 327.5 251.2 325.8 250.85 325.25 250.05 324.3 249.35 322.75 248.9 321.5 248.6 319.8
L 248.35 318.5 248.6 318.25 248.9 317.65 249.1 317 249.05 315.65 249.1 315.5 249.1 315.4 249.05 315.3 249.05 315.25 249.1 313.8
Q 248.95 312.95 248.6 312.5 248.15 312.05 247.9 312 247.65 311.75 247.35 311.75
L 247.35 311.6 247.45 310.2 248.05 309.75 248.25 304.25 247.5 302.75 247.6 294.3 252.75 294.9 252.65 291.8 247.35 291 247.25 286.55 247.15 286.15 245.6 286.15 245.15 286.25 245.25 286.55 245.4 290.9 239.65 290 239.6 292.55 244.6 293.5 244.55 301.5 243.8 301.5 243.85 304 244.05 304.15 245.4 305.4 245.75 311.5 245.1 312
Q 244.25 312.45 243.65 313.5 243.6 313.6 243.4 314.5 243.4 315 243.6 315.4
L 243.6 315.5 243.65 315.65 244.35 316.65 244.35 318.05 244.1 319.25
Q 244.05 320 243.5 321.9 243.1 323.05 242.55 324.15 242.1 324.9 241.1 326.25 238.4 329.6 233.6 334
L 230.6 336.8 230.05 337.4
Q 229.65 337.85 229.55 338.05 228.8 339.05 228.3 340.9 228.283203125 340.9501953125 228.25 341 227.75 342.5880859375 227.75 343.8 227.6 345.2 227.8 346.75
L 228.05 348.25 228.5 349.75 229.15 351.15 230.1 352.4
Q 230.25 352.6 231.1 353.4
L 225.3 357.9 225 358 225 358.05 224.9 358.05 224.8 358.15 224.55 358.3
Q 224.15 358.7 224.15 359.25
L 224.3 359.65 224.65 360.25 224.85 360.3 228 362 228.9 390.8 225.45 389.55 228.6 389.4 228.6 389.15 225.6 389 201.65 372.55 201.9 372.3 202.85 370.65
Q 203.15 370.1 203.5 368.8
L 203.85 365.9 203.6 363.9 203.35 362.9 202.9 361.9
Q 202.75 361.45 202.4 361
L 201 359.25 195.15 354.4 192.8 351.8 191 348.9
Q 189.769140625 343.7029296875 189 341 188.9205078125 340.73828125 188.85 340.5
L 188.6 339.5 188.5 339.5 188.4 338.9 188.4 338.65 188.6 337.5
Q 188.45 336.6 188.25 336.25
L 187.65 335.75 187.65 335.6 188 330.75 189.35 331.65 189.35 328 188.35 327.9 188.5 320.75 193.15 320.65 193.1 317.3 188.55 317.4 188.35 313.25 185.65 313.4 185.8 317.5 182.8 317.5 182.8 313.05 187.55 309.75 177.6 307.65 177.9 307.15
Q 178.05 307.05 179 305.55 179.35 304.9 179.8 303.9 180.3 302.65 180.4 302.15 180.8 301.15 180.85 300.25
L 181.15 298.4 181.15 295.65 180.6 292.8 179.85 291.15
Q 179.35 289.9 179 289.5
L 176.6 286.5 175.25 285.3 172.15 283.25 172.3 283.25 170.1 280.9 168.35 278.15
Q 167.65 277.1 166.8 275.25 166.1 274 165.5 272.25
L 164.35 269.15
Q 163.65 266.2 163.6 265.9
L 162.8 260.65 163 260.5
Q 163.3 260 163.35 259.75
L 163.55 259.15 163.6 258.15 163.55 257.65 163.6 257.45 163.6 255.7 163.4 255 163.05 254.35 162.35 253.7 162.15 253.65 162.15 253.55 162.3 251 164.25 249.3 164.8 249.9 164.9 244.9 163.35 243.35 163.5 231.2 170.1 231.95 170.05 227.95 164.25 227.45 164.1 225.25 163.05 225 162.85 221.95 159.5 222.1 159.35 223.65 159.55 227.4 153.1 226.65 152.8 226.65 152.75 229.4 159.65 231 159.5 236.35
Q 159.45 238.4 159.5 240.4
L 156.85 238.6 157 243 157.05 243.4 159.75 245.6 160.05 253.05 159.35 253.7
Q 158.3 254.25 157.8 255.35 157.55 255.8 157.55 256.4
L 157.65 257.3 157.65 257.5 157.75 257.5 157.75 257.65 157.85 257.9 159.25 259.9 158.4 264.9 156.65 270.05 154.15 275 151.05 279.15 146.65 281.5 142.6 284.8 139.35 288.9 137 293.65 136.9 293.75 136.9 293.9 136.75 295.8 136.85 298.75 137.3 300.65 138.35 303.5 139.4 305.15 140.75 306.65 132 312.65 127.55 308.55 127 307.4 126 304.5
Q 125.65 303.5 125.65 302.9
L 125.3 301.3 124.8 294.8 124.65 294.8 124.65 294.55 124.55 293.65 124.55 293.4 124.75 292
Q 124.75 291.25 124.3 290.65 124.1 290.25 123.75 290 123.6859375 289.964453125 123.6 289.9 123.2287109375 289.7357421875 122.8 289.65 122.8423828125 289.1345703125 122.9 288.65 122.8951171875 288.6001953125 122.9 288.55
L 122.9 288.5
Q 123.00390625 287.0591796875 123.05 285.9
L 123.9 284.4 125.05 285.05 124.9 281.15 123.65 281.05 123.75 272.4 130.3 272.25 130.3 269.9 123.8 270 123.65 265.15 121.5 265.15 121.55 270.05 115.5 270.05 115.4 271.9 121.05 272.15
Q 120.9 275.15 120.9 278.15
L 119.4 276.9 119.5 280.5 121.3 281.75 121.6 288.55 120.8 290
Q 119.85 290.65 119.5 291.65
L 119.3 292.15 119.3 292.65
Q 119.3 293.15 119.5 293.5
L 120.15 294.8 120.05 296.3
Q 120 297.55 119.55 299.75 119.1 301.6 118.5 303.15
L 117 306.3 116.05 307.65 114.9 308.8
Q 112.95 310.15 111.5 311.25
L 109.75 312.5 104.8 317.05 102.15 320.8 101.15 323 100.8 324.15 100.55 326 100.65 329 101.4 331.4 102.55 333.5 103.3 334.5
Q 104.05 335.35 104.55 335.65
L 100.65 337.3 98.9 338.65 97.4 340.5 100.4 344.9 100.65 350.4 99.9 353.55 101.5 353.75 101.65 380.15 98.05 381 97.15 386.55 88 392.75 87.4 376 87.5 375.3 90 375.8 88.65 372.9 89.05 367.55 90.4 366.15 92.8 363 85.3 360 86.25 359.15 87.9 356.5 88.4 355 88.55 354.25
Q 88.8 353.25 88.8 352.75
L 89 351.25 89 351.05 87.75 347.5 87.25 346.4 84.75 342.3 81.4 338.75 77.9 336.15 76.4 333.25 74.55 328.25 73.65 323.5
Q 73.9 323.15 73.9 322.5
L 73.9 322 73.8 321.05 73.8 320.75 74 319.4
Q 73.85 318.55 73.55 318 73.25 317.6 73 317.4 72.55 317.15 72.05 317.05 72.06796875 316.96015625 72.1 316.05 72.1962890625 315.2552734375 72.3 313.75
L 72.3 313.7 73.8 311.2 74.3 311.5 74.25 307.5 72.9 307.5 73 298.75
Q 75.2 298.85 78.8 298.75
L 79.55 298.75 79.55 296.3 73.15 296.4 73 292 72.9 291.5 71.15 291.55 70.8 291.65 70.9 296.5
Q 70.59921875 296.5099609375 70.3 296.5 67.6142578125 296.5900390625 65.05 296.5
L 64.75 296.5 64.75 298.25 70.3 298.5
Q 70.15 303 70.15 304.5
L 68.75 303.3 68.8 306.9 69.05 307.05 70.55 308.25 70.8 313.15
Q 70.8 314.65 70.9 315.8
L 70.9 315.95 70.05 317.4
Q 69.3 317.9 68.65 319
L 68.55 320.05
Q 68.55 320.55 68.75 320.9 68.9828125 321.5982421875 69.4 322.3 69.4654296875 322.3482421875 69.5 322.4
L 69.55 322.55 68.8 327.15 67.5 331 65.5 334.55 62.9 337.55 60.05 339.05 57.4 341.25 55.9 343 54.65 345 52.9 349.15 52.3 351.4 52.3 351.65 52.9 355.3 53.75 357.65 54.75 359.4 53.25 359.75
Q 52.8451171875 359.8849609375 52.45 360 51.244140625 360.4716796875 50.15 361
L 49.3 361.5 48.55 362.15 48.2 362.7 48.2 362.75
Q 47.9 363.15 47.9 363.3
L 47.8 363.5 47.8 363.65 47.75 363.65 47.8 364.65
Q 48.05 365.4 48.5 365.8 48.8 366.15 49.4 366.5
L 50.25 366.9 50.4 366.9 50.8 372 48.5 374.65 50.8 374.65 51.05 403 49.05 404 49.2 413.25 47.4 414 46.8 420.4 15.4 436.75 15.6 437 17.05 436.3 17.45 437 14.85 438 26.6 449 26.6 449.05 26.5 449.15 24.85 455.4 24.85 455.8 24.35 456.8 24.7 457.15 26.2 458.9 26.6 460 23.35 563.75 2.2 571.7 2.2 575.6 4.3 575.6
Q 4.3 576 4.4 576.25 4.5 576.5 4.75 576.75
L 4.85 576.95 4.9 577 4.9 577.8 6.25 577.8
Q 6.6 578 7.15 578.1
L 7.5 578.1 9.1 577.8 12.25 577.8 12.25 592.5 12.15 592.5 11.9 592.75 5.4 597.95 8.9 598.5 12.15 602.45 12.05 711.95 8.5 711.95 8.35 713.25 8.4 713.25 80.3 719.05 81.3 719.05 81.3 734.25 398.25 760.45 445.7 757.7
Q 454.05 757.15 470.3 756.35
L 594.65 751.25 594.65 612.35 594.5 612.35 513.55 544.25 516 541.35 513.15 410.15 514.45 408 513.4 406.75 513.7 397.9 521.25 393.75 521.3 393.3 522.2 393.4 521.7 388 521.8 386 532.05 386 489.45 368.9 489.35 354.75 486 352.65 486 344.5 481.5 343.15 480.1 339.15 478.45 338.75 477.6 338.25
Q 477.2802734375 338.0671875 477.05 337.85 476.8314453125 337.5759765625 476.75 337.25
L 476.75 337.15 476.5 335.9
Q 476.04921875 335.1916015625 475.75 334.8 475.741796875 334.79609375 475.7 334.75 475.676171875 334.68828125 475.6 334.6 475.5529296875 334.5529296875 475.5 334.5 475.43828125 334.43828125 475.35 334.35 475.289453125 334.3005859375 475.2 334.2 474.790234375 333.87421875 474.25 333.55
L 473.85 333.4 473.85 313.75
Q 473.85 302.35 473.75 293.25
L 473.5 252.4
Q 474.4 251.75 475 250.9 475.75 250.15 476.25 248.9 476.5966796875 247.8599609375 476.4 247 476.393359375 246.9486328125 476.35 246.9
L 476.35 246.8
Q 476.31875 246.6607421875 476.25 246.5 475.85 245.45 475 244.6
L 474.25 242 475.2 241.95 475.95 241.65 476 241.65 476.75 240.95 477.35 240.2 477.75 239.2 477.85 238.65
Q 477.85 238.25 477.75 238.15 477.75 237.75 477.35 237.2 476.95 236.7 476.7 236.5 475.95 236.05 475 235.85
L 474.95 236.15
Q 475.6 236.45 476.25 237.1
L 476.6 237.65
Q 476.75 237.85 476.75 238.25
L 476.75 238.6 476.7 238.9 475.75 239.9 475.25 240.2 474.85 240.25 474.75 240.25 474.5 240.2 474.1 239.95 474 239.85 473.7 239.4
Q 473.45 239.25 473.45 238.95
L 472.6 237.6 467 236.25 467.25 234.3 471.95 235 472.25 235.15 477 227.1 474.2 226.1 474.5 220.6 482.75 217.95 482.25 209.15 483.5 207.6 493.95 205.45 478.2 202.6
Q 473.35 201.6 469.7 200.6
L 467.7 199.95
Q 466.5 199.55 466 199.25
L 466 199.1 465.5 196.7 464.1 193.4 462.6 191.5
Q 461.85 190.65 460.85 189.9 459.5 188.95 458.7 188.65
L 458.1 188.4 454.25 191.4 454.2 191.1 453.45 189.45
Q 452.65 188 451.6 186.5
L 449.5 183.9
Q 447.8 181.95 447.35 181.6
L 447.2 175.15 451.85 174.95 443.1 171.75 443 172.1 442.9 172.1 443 160.25 445.6 159.9 445.7 159.9 445.85 159.85 448 158.65 431.95 142.85 419.35 148.6 419.25 148.6 418.35 148.4 427.5 143.7 428 143.5 427.85 135.75 424.95 134 423.95 116.45 425.5 107.5 427.5 105.85 427.6 105.7 428.75 100.95 428.5 100.85 428.4 99 433.85 101 430.1 89.75 421.7 88.95 406.2 80.85 406.2 73.95 409.35 73.25 405.85 68.35 407.75 67.5 409.25 66.45 410.5 65.1 411 64.35
Q 411.25 64.1 411.5 63.55
L 411.85 62.75
Q 412.1 62.35 412.1 61.95
L 412.6 60.2 412.75 58.5 412.6 56.25
Q 412.05 54.55 411.85 54.25
L 410.85 52.35 409.5 50.75
Q 407.9 49.25 406.25 48.2 405.15 47.4 403.1 46.35
L 400.75 34.1
Q 401.4 34.1 401.85 33.55
L 402.1 33 402.2 32.35 402.2 31.9 402.1 31.15 402.1 30.9 402.25 29.65
Q 402.1 28.8 401.85 28.5
L 401.25 27.9 401.2 27.9 401.35 24.9 402.5 26.75 402.7 22.75 402.75 22.55 402.6 22.4 401.75 20.75 402 10.15 406.95 11.65 Z"/>
</g>

<g id="Layer0_0_MEMBER_0_MEMBER_0_MEMBER_0_FILL">
<path fill="#522810" stroke="none" d="
M 385.45 642.35
L 385.6 638.8 352.1 641 351.85 700.1 384 701 383.7 685.95
Q 383.5 677.7 383.5 671.95
L 383.5 657.85
Q 383.6 652.75 383.7 650.85
L 383.85 643 360.35 642.55 385 639.5 385.1 642.35 385.45 642.35
M 354.6 643.25
L 355.5 643.1 356.1 684.05 356.7 697.5 354.85 697.35 354.6 643.25
M 357.5 684.05
Q 357.85 675.65 357.85 670.7
L 358.2 645.25 382.2 644.75 382.1 698.85
Q 376.35 698.55 368.25 698
L 357 697.5
Q 357.35 691 357.5 684.05
M 352.1 489.55
Q 352.05 482 352.1 478.25
L 352.5 465.9 338 468.8 338.5 500
Q 338.5 501.35 338.75 505
L 339.1 509.8 333.6 511 333.6 515.5 352.85 513.3 352.1 489.55
M 351.1 478.25
Q 351.2 482 351.1 489.55
L 350.35 511.05 344.5 511.5 343.5 472.5 348.85 471 348.85 470.75 342.35 471.65 341.35 509.4 339.45 509.75 339.75 505
Q 340 501.35 340 500
L 340.5 470.9 350.85 468 351.1 478.25
M 232.1 647.5
L 232.35 650.85 232.6 650.85 232.85 646.75 212.65 646 212.35 660.5
Q 212.15 669.4 212.15 673.8
L 212.35 702 231.15 701.7 230.8 688.05
Q 230.6 681.95 230.5 675.55
L 230.9 649.75 214.9 649.25 214.85 648.2 232.1 647.5
M 229.15 651.5
L 229.5 663.05 228.9 699.45 215.25 699.2 215.3 693 215.6 698.3 215.85 698.3 216.85 674.45 217.05 651.85 229.15 651.5
M 284.25 642.75
L 284.2 642.5 275.75 642.7
Q 272.85 642.75 267.25 643
L 266.5 643 265.75 685.95 265.85 701.5 286.5 701.2 285.75 672.7
Q 285.6 664.35 285.7 659
L 286 644.55 272.6 644.2 284.25 642.75
M 270.1 691.2
Q 270.35 686.3 270.35 684.6
L 270.85 646.6 284.45 646.25 284.75 659 284 698.75
Q 277.1 698.55 268.85 698.5
L 269 687.55 269.45 697.75 269.75 697.75 270.1 691.2
M 159.6 650.3
L 158.8 688.25 158.9 702.05 176.55 701.75 175.8 676.5
Q 175.65 669.2 175.75 664.5
L 176.1 651.75 165.85 651.3 174.4 650.25 174.35 649.95 159.6 650.3
M 161.9 699.1
L 161.9 695.55 162.1 698.55 162.4 698.55 163.4 675.5
Q 163.6 670.45 163.6 664 163.7 661.15 163.6 658.25
L 163.55 653.7 174.5 653.3 174.8 664.5
Q 174.8 672.1 174.65 676.5
L 174.05 699.3 161.9 699.1
M 43.95 499.15
L 43.4 498.25 40.55 500 37.8 500.9 37.3 505.65 37.45 505.65
Q 37.2 508.6 36.8 516.45
L 35.7 549.25 33.5 549.75 33 552.85 33.15 553.05 34.45 555.35 44.7 552.8 44.65 552.55
Q 41.95 552.8 39.65 553.2
L 35.25 553.75 34.7 552.7 35 551.25 45 549.5 45.9 531.55 46.15 503.4 47.2 502.25 47.25 502.15 47.25 498.3 43.95 499.15
M 43.15 499.55
L 43.5 500.25 46.4 499.5 46.3 501.75 45.15 503 45.15 503.25 43.25 531.5
Q 43 535.65 43 537.1
L 42.75 547.55 41.95 547.75 42 506.55 41.75 506.55 40 527.45 38.95 546 39.5 506.5 44.65 505.25 44.4 503.55 38.7 504.25 38.8 501.75 41 500.9 41.05 500.9 43.15 499.55
M 59.55 492.75
L 59.8 493.75 57.25 494.55 57 499.9 59.05 499.65 57 544.55 54.75 545.2 54.9 549.55 65.4 547.1 57.4 550.25 57.5 550.5 67.05 547.85 67.55 547.75 67.65 545.25 57.7 546.8 67.4 544.5 68.25 498.5 69 497.75 68.9 491.65 64.65 492.65 64.3 491.05 59.55 492.75
M 62.15 494.25
L 62.65 494.15 62.8 495.4 66.4 494.75 66.3 496.65 65.65 497.3 58.8 498 59.05 496.05 62.3 495.25 62.15 494.25
M 61.95 501.4
L 61.65 501.4
Q 61.15 505.25 60.65 511.8
L 59.9 522.25
Q 59.75 524.2 59.75 524.3
L 60.05 499.9 65.55 498.65 64.8 520.6 64.65 542.3 61.5 543.25 61.95 501.4
M 70.05 469.4
L 69.8 458.25 59.4 462.5 59.65 465.9 60.25 465.75 60.15 468 60.8 480.25 59.75 480.75 59.75 481 60 482.4 60.25 482.4 60.5 481.3 69.65 479.5 70.05 469.4
M 67.05 462
L 67.05 463.25 60.75 464.55 60.8 463.5 64.65 462.65
Q 65.2 462.5 67.05 462
M 62.7 467.15
L 67 465.25 67.15 477.65 66.75 477.8 66.65 477.5
Q 64.7 477.8 62.65 478.4
L 62.7 467.15
M 38.9 472.8
L 38.9 473.5 39.3 473.4 39.25 473.75 39.15 476.75 39.7 487.25 40.75 486.9
Q 43.7 485.85 45.7 484.9
L 45.55 484.65
Q 44.5 484.65 41.5 485
L 41.65 483
Q 41.75 481.6 41.75 479.9
L 41.75 474.4 46.15 472.15
Q 46 474.9 46 477.25 45.95 478.75 46 481.65
L 46.25 485.15 43 486.15
Q 40.8 486.95 39.2 487.65
L 39 487 38.75 487 38.5 488.4 38.95 488.4 48.75 487.15 49.2 477.25 48.8 466.55 39.25 470.15 38.7 470.4 38.9 472.8
M 40 472.25
L 40.05 471.4 46.2 470.15 46.2 470.8 40 472.25
M 87.15 486.5
L 90.55 485.9 90.9 489.25 89.9 490.75 89.8 490.75 89.8 490.9
Q 89.7 495.3 89.3 502.15
L 88.75 513.5
Q 88.4 519.8 88.3 524.8
L 88.15 535.6 78.8 538.7 78.9 542.7 90.15 538.6 90.15 538.45 80.05 541.25 80.05 539.5 89.15 536.95 89.65 536.75 90.05 524.85
Q 90.3 519.6 90.3 513.5
L 90.5 491 91.5 489.4 91.55 489.3 91.55 489.25 91.05 485.15 90.8 485.25 87.5 485.8 87 485.15 86.75 485.15 83.4 486.15 83.55 487.15 81.05 487.75 80.8 493.15 81.9 493.15 80.3 538 86.65 535.7 86.8 527
Q 86.9 521.65 86.8 519
L 86.8 502.55 84.3 503.75 84.4 504 86.4 503.15 84.8 534.3 82.4 535.1 83.4 493.9 87.15 492 86.65 490.75 82.65 492 81.9 492.05 81.9 488.4 84.4 487.75 84.3 486.65 86.75 485.9 87.15 486.5
M 81.55 455
L 81.65 455.4 81.75 458.75 82.3 458.65 82.65 458.5 83.3 470.15
Q 83.45 471.25 83.75 473.5
L 81.8 474.05 83.05 476.15 87.3 474.9 87.3 474.75 93.8 473.8 94.05 467.5 93.75 450.4 82.05 454.9 81.55 455
M 91.15 453.8
L 91.15 454.9 87.15 456.25
Q 84.55 457.1 82.65 457.5
L 82.75 455.8 91.15 453.8
M 84.9 466.5
L 85.25 460.4 91 458.9 91.05 471.5
Q 87.5 472.4 84.15 473.4
L 84.55 470.15
Q 84.8 468.5 84.9 466.5
M 159.35 223.65
L 159.55 227.4 153.1 226.65 152.8 226.65 152.75 229.4 159.65 231 159.5 236.35
Q 159.45 238.4 159.5 240.4
L 156.85 238.6 157 243 157.05 243.4 159.75 245.6 160.1 253.4 159.35 253.7
Q 158.3 254.25 157.8 255.35 157.55 255.8 157.55 256.4
L 157.65 257.3 157.65 257.5 157.75 257.5 157.75 257.65 157.85 257.9 159.25 259.9 158.4 264.9 156.65 270.05 154.15 275 151.05 279.15 146.65 281.5 142.6 284.8 139.35 288.9 137 293.65 136.9 293.75 136.9 293.9 136.75 295.8 136.85 298.75 137.3 300.65 138.35 303.5 139.4 305.15 140.75 306.65 132 312.65 127.55 308.55 127 307.4 126 304.5
Q 125.65 303.5 125.65 302.9
L 125.3 301.3 124.8 294.8 124.65 294.8 124.65 294.55 124.55 293.65 124.55 293.4 124.75 292
Q 124.75 291.25 124.3 290.65 124.1 290.25 123.75 290 123.3 289.75 122.8 289.65 123.1 286 123.15 284
L 125.05 285.05 124.9 281.15 123.65 281.05 123.75 272.4 130.3 272.25 130.3 269.9 123.8 270 123.65 265.15 121.5 265.15 121.55 270.05 115.5 270.05 115.4 271.9 121.05 272.15
Q 120.9 275.15 120.9 278.15
L 119.4 276.9 119.5 280.5 121.3 281.75 121.65 289.65
Q 121.3 289.7 120.8 290 119.85 290.65 119.5 291.65
L 119.3 292.15 119.3 292.65
Q 119.3 293.15 119.5 293.5
L 120.15 294.8 120.05 296.3
Q 120 297.55 119.55 299.75 119.1 301.6 118.5 303.15
L 117 306.3 116.05 307.65 114.9 308.8
Q 112.95 310.15 111.5 311.25
L 109.75 312.5 104.8 317.05 102.15 320.8 101.15 323 100.8 324.15 100.55 326 100.65 329 101.4 331.4 102.55 333.5 103.3 334.5
Q 104.05 335.35 104.55 335.65
L 100.65 337.3 98.9 338.65 97.4 340.5 100.4 344.9 100.65 350.4 99.9 353.55 101.5 353.75 101.65 380.15 98.05 381 97.15 386.55 88 392.75 87.4 376 85.4 376 85.05 394.15 81.55 398.65 81.3 398.55 81.05 375.65 80.65 375.55 70.8 374.3 70.9 400.15 68.15 400.15 68.25 371.55 90 375.8 88.65 372.9 89.05 367.55 90.4 366.15 92.8 363 85.3 360 86.25 359.15 87.9 356.5 88.4 355 88.55 354.25
Q 88.8 353.25 88.8 352.75
L 89 351.25 89 351.05 87.75 347.5 87.25 346.4 84.75 342.3 81.4 338.75 77.9 336.15 76.4 333.25 74.55 328.25 73.65 323.5
Q 73.9 323.15 73.9 322.5
L 73.9 322 73.8 321.05 73.8 320.75 74 319.4
Q 73.85 318.55 73.55 318 73.25 317.6 73 317.4 72.55 317.15 72.05 317.05 72.1 316.8 72.5 310.4
L 74.3 311.5 74.25 307.5 72.9 307.5 73 298.75
Q 75.2 298.85 78.8 298.75
L 79.55 298.75 79.55 296.3 73.15 296.4 73 292 72.9 291.5 71.15 291.55 70.8 291.65 70.9 296.5
Q 67.9 296.6 65.05 296.5
L 64.75 296.5 64.75 298.25 70.3 298.5
Q 70.15 303 70.15 304.5
L 68.75 303.3 68.8 306.9 69.05 307.05 70.55 308.25 70.8 313.15
Q 70.8 314.65 70.9 315.8
L 71 317 70.05 317.4
Q 69.3 317.9 68.65 319
L 68.55 320.05
Q 68.55 320.55 68.75 320.9 69 321.65 69.5 322.4
L 69.55 322.55 68.8 327.15 67.5 331 65.5 334.55 62.9 337.55 60.05 339.05 57.4 341.25 55.9 343 54.65 345 52.9 349.15 52.3 351.4 52.3 351.65 52.9 355.3 53.75 357.65 54.75 359.4 53.25 359.75
Q 51.6 360.3 50.15 361
L 49.3 361.5 48.55 362.15 48.2 362.75
Q 47.9 363.15 47.9 363.3
L 47.8 363.5 47.8 363.65 47.75 363.65 47.8 364.65
Q 48.05 365.4 48.5 365.8 48.8 366.15 49.4 366.5
L 50.25 366.9 50.4 366.9 50.8 372 48.5 374.65 50.8 374.65 51.05 403 49.05 404 49.2 413.25 47.4 414 46.8 420.4 15.4 436.75 15.6 437 48 421.15 48.7 414.9 50.65 414.15 50.7 405 52.7 404 52.95 372.75 53 372.65 52.45 365.15 51 364.8 50.5 364.55 50.15 364.25
Q 50 364.25 50 364.15
L 50 364.05 50.05 363.9 50.05 363.75 50.15 363.8 50.45 363.5 51.25 363
Q 52.45 362.35 53.95 362
L 58.65 360.9 56.4 357.65 55.5 355.65
Q 55.2 354.9 55.2 354.65
L 54.95 353.65 54.75 351.75 55.15 349.9 56.75 346.15 57.8 344.5 60.65 341.65 62.25 340.55 64.4 339.5 67.5 336 69.8 332.05 71.3 327.75 71.55 326.55 72.55 330.75 74.8 336.05 75.9 338 80.4 341.5 81.25 342.3 83.8 345.65 85.3 348.5 86.3 351.4 86.25 352.5 86.05 353.65 85.55 355.4 85 356.5 84.3 357.4 83 358.55 79.65 360.55 81.8 361.4 64.05 361.05
Q 62.85 361.2 60.25 361.75
L 59.45 361.9 59.75 365
Q 59.9 366.35 60.25 367.5
L 60.45 367.5 61.05 363.4 64.15 363.15
Q 65 363.15 68.05 362.8
L 73.65 362
Q 75 361.95 75.55 362
L 77.5 362.05 83.15 363.3
Q 86.05 363.65 86.9 363.65
L 87.65 363.75 88.8 364.15 88.55 364.5
Q 88.1 365.1 87.8 365.25
L 86.65 366.3 86.25 372.65 67.05 369.15 61.25 368.9 53.45 372.4 53.65 398.4 58.4 397.5 58.3 396.9 58.2 374.4 61.25 372.4 67.15 372.25 67.25 400.55 67.3 401.05 71.8 401.05 71.8 375.5 80 376.65 79.9 398.5 73.15 397.65 73 399.05 82.25 400.3 85.8 395.9 85.8 396.75 98.25 388.75 98.05 390.9 95.4 393.3 95.15 400.4 112.3 395.65 138.65 397.8 141.4 397.65 141.35 391 118.4 388.75 118.55 381.65 138.8 384 138.85 390.4 139.1 390.4 139.25 384 139.75 384.05 139.75 365.05 151.1 358 150.3 316.75 149.15 308.75 152.25 308.3 154.55 308.25
Q 155.75 308.3 159.35 308.8 162.6 309.4 164.15 309.55
L 173.15 310.4
Q 174.1 310.5 177.1 310.5
L 182.35 310.4 182.9 310.55 180.8 312 180.75 313.15 180.5 313.15 179.9 320.25 176.35 320.15 167.1 312.65 155.25 319.15 155.35 322.15 153.85 322.4 154.25 330.8
Q 154.5 334.55 154.55 338.3
L 154.5 353.9 175.75 354.5 176 322 180.35 321.75 178.05 324.5 178.05 356.25 175.9 356.05
Q 173.95 355.9 172.55 355.9
L 165.75 356
Q 161.65 356.15 159 356.4 155.15 356.7 152.15 357.25
L 152.15 357.5
Q 154.35 357.9 159 358.25 162.75 358.5 165.75 358.5
L 172.55 358.5 178.05 358.05 178.05 359.75 225.35 389.5 225.4 389.55 228.6 389.4 228.6 389.15 225.6 389 201.65 372.55 201.9 372.3 202.85 370.65
Q 203.15 370.1 203.5 368.8
L 203.85 365.9 203.6 363.9 203.35 362.9 202.9 361.9
Q 202.75 361.45 202.4 361
L 201 359.25 195.15 354.4 192.8 351.8 191 348.9
Q 189.65 343.2 188.85 340.5
L 188.6 339.5 188.5 339.5 188.4 338.9 188.4 338.65 188.6 337.5
Q 188.45 336.6 188.25 336.25
L 187.65 335.75 188 330.75 189.35 331.65 189.35 328 188.35 327.9 188.5 320.75 193.15 320.65 193.1 317.3 188.55 317.4 188.35 313.25 185.65 313.4 185.8 317.5 182.8 317.5 182.8 313.05 187.55 309.75 177.6 307.65 177.9 307.15
Q 178.05 307.05 179 305.55 179.35 304.9 179.8 303.9 180.3 302.65 180.4 302.15 180.8 301.15 180.85 300.25
L 181.15 298.4 181.15 295.65 180.6 292.8 179.85 291.15
Q 179.35 289.9 179 289.5
L 176.6 286.5 175.25 285.3 172.15 283.25 172.3 283.25 170.1 280.9 168.35 278.15
Q 167.65 277.1 166.8 275.25 166.1 274 165.5 272.25
L 164.35 269.15
Q 163.65 266.2 163.6 265.9
L 162.8 260.65 163 260.5
Q 163.3 260 163.35 259.75
L 163.55 259.15 163.6 258.15 163.55 257.65 163.6 257.4 163.6 255.7 163.4 255 163.05 254.35 162.35 253.7 162.15 253.65 162.6 247.45 164.8 249.9 164.9 244.9 163.35 243.35 163.5 231.2 170.1 231.95 170.05 227.95 164.25 227.45 164.1 225.25 163.05 225 162.85 221.95 159.5 222.1 159.35 223.65
M 161.1 256.5
L 161.35 256.5 161.6 256.4
Q 162 256.3 162.4 256.4 162.75 256.5 163.05 256.8 163.15 256.9 163.25 257.25
L 163.3 257.4 163.25 257.55
Q 163.25 257.7 163.1 258
L 162.85 258.25 162.5 258.4
Q 162.1 258.5 161.6 258.5 161.5 258.4 161.1 258.5
L 161 258.65 161.05 258.65 160.55 258.75 160.5 258.8 159.55 258.8
Q 159.35 258.7 159.3 258.5 159.1 258.35 159.1 258
L 159.15 257.65 159.25 257.5 159.3 257.5 159.5 257.15
Q 159.6 256.95 159.65 257
L 160 256.75 160.6 256.55
Q 160.7 256.65 161.1 256.5
M 123.8 283.05
L 122.4 282.4 122.4 282.3 123.75 282.4 123.8 283.05
M 122.3 285.65
L 122.4 289.65 122.05 289.55 122.3 285.65
M 71.75 308.75
L 73.05 308.75 73.05 309.5 71.75 308.8 71.75 308.75
M 70.55 320.65
Q 70.65 320.5 70.75 320.5
L 71.05 320.3
Q 71.25 320.15 71.5 320.25
L 71.65 320.15 71.8 320.15 72.05 320
Q 72.45 319.95 72.8 320 73.25 320.35 73.3 320.4
L 73.55 320.75 73.55 321.05 73.4 321.5
Q 73.2 321.7 72.8 321.8 72.45 321.95 72.05 321.9 71.8 321.8 71.65 321.9
L 70.25 321.9
Q 70 321.5 70.4 320.9
L 70.55 320.65
M 71.8 317
L 71.3 317 71.55 312.15 71.8 317
M 55.3 374.8
L 55.3 373.75 60.75 371.4 55.3 374.8
M 55.3 375.75
L 57 375.5 56.9 396.25 55.15 396.55 55.3 375.75
M 65.65 371.25
L 60.95 371.25 61.65 371 65.65 371.25
M 105.5 352.25
L 108.3 351.75 108.05 375.4 105.55 376.25 105.5 352.25
M 97.8 394.5
L 100.4 392.05 101.05 383.9 110.55 381 117.55 381 117.15 389.8 139.8 392.5 139.75 396.05 138.8 396.15 112.3 393.4 112.15 393.4 97.65 397.3 97.8 394.5
M 182.8 320.3
L 185.25 320.5
Q 185.1 322.25 185.1 325.15
L 184.1 324.15 184.15 327.5 184.35 327.65 185.5 328.65 185.85 335.5 185.15 335.75
Q 184.45 336.2 184 337.05 183.8 337.45 183.8 338 183.75 338.45 183.9 338.8
L 184.65 340 184.85 340.25 184 349
Q 183.5 350.45 183.1 351.15 182.65 352.1 181.8 353.05 181.6 353.3 180.55 354.15
L 180.55 325.4 182.8 322.4 182.8 320.3
M 187.6 329.15
L 188.1 329.25 188.1 329.5 187.6 329.15
M 160.15 228.15
L 160.35 223.1 161.8 223.15 161.6 226.15 162.6 226.4 161.6 226.45 161.6 228.9 161.35 228.85 161.55 244 163.3 245.65 163.35 246.35 161.35 244.45 161.85 253.6 161.35 253.4
Q 160.95 253.3 160.55 253.4
L 161 245.25 161.05 244.95 158.55 242.7 158.6 241.9 161.15 243.95 161 229.9 153.5 228.75 153.4 227.35 160.15 228.15
M 116.05 271.25
L 116 270.55 122.15 270.55 122.25 265.9 122.8 266 122.65 270.75 122.15 270.75 122.15 272.25 122.05 271.55 122.05 271 116.05 271.25
M 121.15 293.5
L 121.3 293.3
Q 121.35 293.1 121.5 293.15
L 121.8 293
Q 122 292.7 122.25 292.8
L 122.4 292.8 122.8 292.65
Q 123.1 292.5 123.55 292.65 123.75 292.7 124.15 293
L 124.3 293.4 124.3 293.65 124.15 294.05
Q 123.9 294.4 123.55 294.4 123.2 294.55 122.8 294.5 122.55 294.4 122.4 294.5
L 122.4 294.55 122.55 294.65 122.5 294.65 122.15 294.75 122.05 294.8 121.3 294.8
Q 121.1 294.7 121.05 294.5 120.7 294.15 121.15 293.5
M 160.8 261.15
L 161.5 261.15 161.75 262.9 163.35 269.4 164.5 272.65
Q 165.15 274.25 165.85 275.65 166.5 277.05 167.5 278.65
L 169.35 281.4 171.65 283.9 171.65 284 171.75 284 174.65 286 177.15 288.5
Q 177.7 289.05 178.15 290 178.6 290.45 179 291.5
L 179.35 292.25 180 294.8 180.1 297.4 179.8 300 179.3 301.75
Q 178.8 303 178.6 303.3
L 177.8 304.9 176.8 306.25
Q 176.45 306.7 175.6 307.5
L 175.5 307.55
Q 171.4 307 169.05 307
L 159.4 307.15
Q 157.05 307.4 154.6 307.4
L 148.55 307 143.85 308 145.35 307 141.75 303.5 140.85 302.15 139.9 299.9 139.5 297.55 139.4 295.9 139.6 294.4 140.35 292.4 142.85 288.3 146.1 284.8 150.05 282.05 152.35 280.8 152.5 280.75 155.85 276 158.35 270.75 160 265.25 160.5 262.4 160.6 261 160.8 261.15
M 71.55 292.3
L 72.15 292.4 71.9 297.15 71.4 297.15 71.4 297.4 65.3 297.65 65.3 297 71.4 297 71.55 292.3
M 146.05 310.15
L 148.85 308.9 149.4 316.8 148.6 356.65 140.5 361.5 140.6 343 141.3 341.5 141.6 341 141.6 340.9 142.15 339.65 140.1 337.5 139.25 336.9
Q 138.15 336.1 137.6 335.8
L 138.6 334.75 139.35 333.55 140.6 330.9 141.05 329.5 141.3 326.5 141.1 325.05 140.35 322.25 138.6 319.15 137.6 318 137.6 312.75 137.15 312.75 137.6 312.4 139.1 312.15 146.05 310.15
M 122.25 301.9
L 123.4 307.05 124.15 308.8
Q 124.4 309.45 125.15 310.5
L 125.15 310.65 129.3 314.4 128 315.3 130.4 315.4 134.85 319.5 135.8 320.8 137.15 323.75
Q 137.55 324.5 137.6 325.25 137.85 326.3 137.85 326.75
L 137.9 327.55 137.85 328.3 137.6 329.75 137.05 331.15 136.35 332.3 135.25 333.65 134 334.65 130.65 336.75 125.5 337.3
Q 123.35 337.45 121.75 337.25 120.05 337.05 119.8 337.05
L 118 336.9 110.55 337.3 110.4 337.3 103.4 339.65 101.15 340.75 101.25 341.05
Q 101.8 341.15 103.75 341.15
L 111.05 340.5 110.8 340.5
Q 112.25 340.4 114.5 340
L 121.8 338.55
Q 124.2 338.25 125.4 338.25
L 136.1 340
Q 136.45 340.1 137.85 340.3
L 138.1 340.4 136.65 342.55 136.75 343 136.8 380.75 117.9 378.3 117.8 378.25 110.15 378.3 104.05 380.25 104.05 378.9 109.9 376.65 109 351 105.5 351.75 105.5 350.9 111.25 347.9 118.9 347.15 133.85 349.25 133.65 378 121.55 376.15 121.25 351.15
Q 124.35 351.4 127 351.5
L 133.4 351.8 133.4 351.65 120.05 349.9 119.75 377.65 134.85 379.3 134.65 348.55 119.05 345.65 118.9 345.65 110.9 346.15 110.8 346.15 103.55 349.65 103.55 351.15 103.3 351.15 103.4 350.75 103.3 350.55 103.15 343.9 102.9 343.65 100.9 340.65 101.25 340.3 101.65 340 104.65 338.55 111.3 336.65 106.8 333.9
Q 105.75 332.9 105.5 332.65
L 104.9 331.9 104.05 330.25 103.55 328.5 103.5 327.4 103.4 327.25 103.4 326.65 103.55 325.75 104.3 323.15
Q 104.6 322.45 104.8 322.25
L 105.8 320.65 111.65 314.9 116.75 311.25 116.8 311.25 117.65 310.4 119.65 307.9 120.55 306.15
Q 121.1 305.2 121.4 304.25
L 122.25 301.9
M 156.1 324.4
L 157.65 324.25 157.85 320.65 166.9 315.75 174.8 321.3 171.8 321.4 173.1 351.9
Q 170.2 352.15 164.75 352.4 161.7 352.6 155.6 352.8
L 156.1 324.4
M 182.8 318
L 186.25 318 186.35 314.05 187.55 314.15 187.35 318.55 191.75 318.75 191.75 319.15 186.85 319.15 187.05 328.8 186.9 328.75 187.35 335.65 186.85 335.5 186.1 335.4 186.6 328.15 186.4 328 186.5 326.65
Q 186.5 322.15 186.35 319.9
L 186.35 319.3 182.8 319.5 182.8 318
M 187.4 338.25
Q 187.8 338.25 188 338.4
L 188.1 338.65 188.1 338.9 188 339.25 187.5 339.4
Q 187 339.4 186.85 339.25 186.6 339.15 186.6 339.25
L 186.55 339.3 186.6 339.3 186.3 339.5 186.3 339.55 186.1 339.65 185.6 339.75 185.4 339.5
Q 185.25 339.1 185.6 338.8
L 185.8 338.65
Q 185.9 338.35 185.9 338.55
L 186.15 338.55
Q 186.35 338.55 186.5 338.65
L 186.75 338.65 186.65 338.5 187.1 338.25 187.4 338.25
M 186.6 341.8
L 186.8 341.8 188.1 349.75 190.25 353.65 191.55 355.3 196.1 359.3 199.35 361.5 200.3 362.5 200.75 363.15 201.35 364.5
Q 201.5 364.7 201.6 365.25
L 201.9 366.9
Q 202.05 367.75 201.9 368.55
L 201.75 370.25 201.55 371.15 201.1 372.25
Q 193.95 367.3 191.4 365.65
L 180.55 358.4 180.55 355.9 180.85 355.5
Q 182.3 354 182.55 353.75 183.5 352.6 183.9 351.55 184.35 350.8 184.85 349.25
L 184.9 349.15 186.6 341.8
M 380.85 232.1
L 381.1 232.4 381.6 232.65 382.6 232.7 383.5 232.45
Q 383.75 232.45 384.45 232.1
L 385.2 231.4
Q 385.5 231.2 385.5 231.1
L 385.85 230.65 386.2 229.65 386.25 228.15 385.75 226.65 385.6 226.4 371.6 223.35 353 232.75 336.1 242.15 332.7 241.35 332.35 241.4 322.85 245.45 322.2 246.5 321.5 248.4 321.5 250.4 321.7 250.85 321.75 251.35 322.1 252.2 322.85 253.45 323.35 253.5
Q 324.1 253.65 324.85 253.65
L 325.6 253.65 327.25 253.25 327.5 347.05 325.1 347.05 318.45 356.8 318.25 357.05 318.45 375.15 285.1 391.75 285.25 392.05 319.5 376.3 319.95 376.05 320.1 357.65 326.1 349.25 329.75 349.25 330 275.3 329.45 249.9 330.5 250
Q 331.7 250.25 333 249.85 334.1 249.8 335.45 249.85 336.8 249.85 337.75 250 338.4 250.1 338.85 250.35
L 339.35 250.5 339.6 250.65 340.95 342.5 342.5 342.8 343.35 343.15
Q 343.75 343.45 343.85 343.65
L 344 343.8 344.25 345 344 345.55 344 345.65 332.2 350.65 331.6 373.05 318.75 377.75 319.25 379.25 319.45 379.15 334.95 375.15 335 375.15 356.5 366.5 356.35 366.15 334.6 374.15 334.7 374.15 332.1 374.75 333.35 374.3 334.5 352.25 358.85 342.15 358 342.65 358.6 343.9 357.1 344.5 356.85 368.5 372.25 363.25 372.45 363.05 381.85 355.05 390.25 353.9 390.1 338.15 386.85 337.9 387 337.5 387 336.25 386.1 334.15 385.35 333.3 382.5 331 382.75 293.55 381.45 255.7
Q 381.05 248 380.95 243.1
L 380.85 232.1
M 370.25 227.5
L 369.75 227.15 372 226.1 373.35 226.25 373.45 226.35 373.5 226.45 373.5 226.75 373.35 227.4 373.25 227.4 373.25 227.5 372.85 228 372.6 228.2 372.35 228.35 371.85 228.35 371.6 228.25 370.25 227.5
M 357.1 265.05
L 359.2 262.4 362.75 259.15 364.85 258.9 365.35 258.9 365.75 259 365.85 259.05 365.85 272.4
Q 364.2 273.95 363.5 275.25 362.65 276.55 361.75 279.15 361.2 281 360.95 283.15
L 360.7 285.65 360.6 285.9 360.85 333.4 357.5 339.9 353.1 341.75 353.45 283.5
Q 353.25 281.2 353.25 280
L 353.95 273 354.35 271.3
Q 354.8 270.05 354.85 269.65
L 355.5 268.05 357.1 265.05
M 372.35 338.9
L 387.35 340.65 387.25 351.3 380.5 352.15 370.6 360.4 360 364.15 359.85 346.25 370.1 341.65 370.6 354.75 361.6 358.55 361.35 349.65 361 349.65 360.5 360.05 372.25 355.75 372.35 338.9
M 361.6 337.9
L 361.35 340.25 361.35 340.65 361.45 340.75 359.45 341.9 361.6 337.9
M 384.5 228.15
L 384.7 228.7 384.6 229.4 384.6 229.65 384.35 230.2 384.1 230.45 383.95 230.7 383.7 230.9 383.1 231.2 382.35 231.45 381.95 231.45 381.6 231.2 379.7 228.9 379.5 293.55
Q 379.5 298.4 379.75 306.25
L 380.85 331.9 383.75 333.65 385.1 334.9 385.7 335.65 385.85 336 386.2 337.25 386 337.75 372.25 336.5 372 336.5 365.6 339.3 362.85 340 362.85 339.9 363 337.75 363.25 336.9 364 335.55
Q 364.45 334.85 364.6 334.75
L 366.85 332.55 368 331.8 367.95 306.4 368.5 274.3 369 273.9 369 257.8 368.5 257.25 368.6 231.25 369.95 229.75 371.5 230.4 372 230.4 372.95 230.25
Q 373.25 230.25 373.75 229.85 374.05 229.65 374.5 229.15
L 374.85 228.6 374.95 228.4 375 228.25 375.25 227.85 375.45 226.95 375.45 226.6 384.45 227.9 384.5 228.15
M 365.25 230.5
L 365.5 231.35 365.45 231.6
Q 365.45 232 365.1 232.5 364.7 233.2 363.85 234 362.4 233.4 361.85 232.4
L 361.75 232.15 361.75 231.9 361.95 231
Q 363 230.6 363.25 230.4
L 368.95 227.6 366.25 230.4 366.35 255.9 365.85 255.75 364 255.7 361.7 256.15 361.35 256.25 358.2 258.9 355.6 261.8 354.5 263.4 352.7 266.9 352 268.65
Q 351.45 270.2 351.45 270.5
L 350.6 274.25 350.25 280
Q 350.25 280.9 350.5 283.75
L 350.75 342.75 346 344.75 345.85 343.65 345.7 343.15 345.25 342.5
Q 344.65 341.9 344.2 341.65
L 343.1 341.15 342.7 341.05 340.7 250.1 342.2 250.5 342.35 250.5 343.25 250.4
Q 343.6 250.4 344.25 250.15
L 345.2 249.9 346.1 249.4
Q 346.2 249.4 346.6 249
L 347 248.65 347.5 247.65 347.75 246.6 347.85 244.9 336.95 242.35 360.85 231.6 360.85 231.95 361.1 232.85
Q 361.5 233.55 362.25 234 363.05 234.5 363.75 234.7
L 363.95 234.85 364.1 234.65
Q 365.15 233.8 365.5 232.75 365.85 232.1 365.85 231.65
L 365.75 230.95 365.6 230.4 365.25 230.5
M 324.35 247.15
L 332.95 243.4 346.2 246.15 346 247.1 345.75 247.7 345.5 247.9
Q 345.35 248.15 345.25 248.15 344.9 248.45 344.6 248.45
L 342.25 249.1 337.1 247.6 334.85 245.25 334.7 246.75 334.7 247.15 334.35 247.65
Q 334 248.05 333.35 248.4
L 332.45 248.7 329.35 248.95 329.35 248.25 328.6 249 325.6 249.35 328 249.65 326.7 250.9 326.25 251.15 325.35 251.4 324.25 251.4 324.2 251.2 323.75 249.95 323.7 249.4 323.85 248.15 324.35 247.15
M 335.2 248.65
L 335.7 247.95 336.45 248.75 335.5 248.65 335.2 248.65
M 363.85 285.4
L 364.1 283.65
Q 364.4 281.7 364.85 280.05 365.55 277.9 366.25 276.9
L 366.35 276.65 366.95 306.4 366.85 331.25 365.25 332.4 363.6 334 363.85 285.4
M 406.95 11.65
L 406.85 6.95 402 5.7 401.85 2 401.75 1.65 398.75 0 398.85 0.9 399 5.5 392.5 4.1 392.35 6.95 392.75 7 398.5 9.2 398.5 18.25 397.5 17.8 397.6 21 397.7 21.4 398.75 22.05 399.2 27.75 398.75 27.9
Q 397.95 28.4 397.5 29.25 397.25 29.9 397.25 30.25 397.25 30.75 397.5 31 397.6 31.35 398.25 32.3
L 399 33.25 396.45 46.95
Q 392.95 48.85 390.5 51.75 389.2 53.35 388.5 55.2
L 387.85 57.1 387.6 59.1 387.6 59.2 388 60.95 388.35 61.75 388.6 62.6 389.5 64.2 390.7 65.6 391.35 66.2
Q 391.9 66.75 392 66.75
L 395.1 68.6 396.1 68.95 392.95 73.45 396.35 73.45 396.35 80.45 377.75 93.35 369 95.1 369.35 102.7 369.45 103 373.7 106.95 373.85 111.7 377 114.5 376.75 135.65 372.85 140.85 373.1 152.15 358.95 148.7 346 168.25 351.85 168.25 351.95 191.25 348.5 198.4 313.85 218.35 322.25 228.9 323.85 228.9 324.2 244.65 324.5 244.65 324.75 228.4 336.25 222.95 370.5 204.6 381.6 206.5 381.7 206.45 390.6 202.95 398.6 206.6 398.75 206.7 411.35 202.15 436.6 208.2 477.95 216.45 476.25 217.35 471.75 218.5 472.1 227.6 474.6 228.1 471.75 234.1 462.25 232 461.95 232.15 459.95 232.95 411.2 220.1 400.5 225.15 400.45 225.15 400.45 225.2 399.5 225.9 398.75 226.7 398.25 227.9
Q 398 228.5 398 229.15 398 230.35 398.75 231.45
L 399.5 232.4 400.5 233.15 400.7 233.2 400.85 233.2
Q 402.05 233.4 402.85 233.4
L 404 233.2 404.6 233 405.25 232.65 402.75 328.15 402.35 328.4 401.35 329.3 400.95 329.8 399.95 331.5
Q 399.45 332.6 399.2 333.8
L 399 335 399 335.05 396.25 335.8 396.25 350.8 412.85 362.75 433 364.55 432 335.8 422.35 335.3 423.6 335.15
Q 424.65 334.8 425.1 334.4
L 425.35 333.9 425.35 333.75 425.45 333.55 425.45 333.3 425.25 332.55 424.75 331.3
Q 424.15 330.25 423.25 329.15
L 421.75 327.5 420.6 259.75 422.75 258.9
Q 424.7 258.1 426.25 258.15 427.65 258.15 429.75 258.9
L 431.6 259.65
Q 432.6 259.95 433.25 260.4
L 436.25 262.4
Q 439.1 264.95 440.75 268.15 441.15 268.9 441.5 269.9
L 442.1 271.55 442.5 273.4
Q 442.55 273.6 442.75 275.15
L 442.6 336.55 435.25 335.75 435 338.5 463.6 341.5 463.75 365 486.1 372.9 486.25 370.05 489.45 370 489.45 369.25 527.05 385 522.25 384.9 518.7 383.15 518.65 383.15 518.5 383.05 385.6 361.65 385.6 362.75 279.2 394.25 288.1 396.25 288 398.75 292.5 399 292.5 402.75 297.35 403 298.85 404.75 307.35 402 307.1 399.15 313.2 397.05 313.75 399.9 322.95 398 322.95 394.75 326.35 393.5 326.6 396.5 338.1 394.05 337.25 390.15 340.75 389 341.35 391.4 350.75 388.05 350.35 385.25 353.2 384.3 353.6 387.15 364 383.4 363.6 381.25 369.1 379.65 369.35 382.4 380.1 379.75 380.1 376.75 388.2 375 387.85 391.05 386.85 392.5 386.85 389.75 303 414.65 303 423.55 311.45 420.9 312.2 522.25 312.25 522.3 315.5 527.45 315.5 524 319.5 524 320.25 424.75 318.25 421.05 318.25 419.75 354 410.8 355.25 414.5 355.6 445.3 355.45 444.4
Q 355.1 442.85 354.45 440.9 353.75 438.95 352.85 437.4
L 350.45 434.5 348.75 433.3
Q 347.7 432.75 346.95 432.65 345.35 432.1 343 432.55
L 339.6 433.75
Q 338.35 434.35 336.5 435.55 335.4 436.35 335.1 436.75
L 334.35 437.3 332.6 439.4
Q 332.2 439.85 331.6 440.9 330.6 442.55 330 444.15
L 329.35 445.9 328.1 451.15 327.85 454.75
Q 327.7 455.8 327.85 457.65
L 326.35 458.65 326.35 463.15 348.25 456.75
Q 351.15 455.9 354.85 454.5
L 354.85 454.15 329.6 459.55 330.45 458.9 330.1 451.3 330.35 447.9 331.1 444.55 331.75 443
Q 332.3 441.6 332.5 441.4
L 333.35 440
Q 334.1 439 334.5 438.65
L 335 438 335.7 437.4
Q 336.65 436.6 337 436.4 338.1 435.6 340.1 434.75
L 343.35 433.9
Q 345.4 433.75 346.5 434.25
L 347.85 434.9 349 435.9 350 437.15 350.75 438.55
Q 351.55 440.25 352 441.65 352.45 443.2 352.75 444.9
L 353.2 448.3 353.25 450.5 334.45 455 334.35 453.9 334.35 449.75 334.5 448.4
Q 334.65 447.15 335 445.75
L 335.35 444.4 336.35 441.9 337.95 439.65 338.85 438.75 340 438 341.25 437.4 341.25 437.05 339.75 437.5 338.5 438.15
Q 337.45 438.7 337.25 439
L 336.1 440 335.25 441.15 333.75 443.8
Q 333.25 445.05 333.25 445.25 332.8 446.2 332.35 448.05
L 331.95 451
Q 331.75 452.1 331.7 453.9
L 331.85 458.5 355.6 453 356.25 513.55 354 515.85 354.1 518.75 351.5 523.45 351.75 523.55 354.6 518.95 354.7 516.1 356.85 514 357 513.95 357.85 414.05 357.75 413.9 356.75 411 359.45 406.75 315.75 417.75 315.85 421.65 317.85 425.4 318.6 523 314.6 523 314.5 524 313.25 521.85 314.1 417.25 305.85 419.9 305.85 416.75 383.75 394.05 383.75 399.55 357.7 406.75 373.6 405.8 373.85 405.75 374.25 405.75 382.25 404.8 382 407.05 372.85 410.15 372.85 436.4
Q 372.85 450.45 372.95 461.65
L 373.25 512.1 371.85 513.55 371.75 513.6 371.6 516.25 369.95 518.7 370.2 518.85 372 516.35 372 516.25 372.25 513.95 373.85 512.35 375.6 412.15 384.6 409.25 385.6 402.3 386.85 401.9 386.85 393.15 387.85 393.05 387.1 441.05
Q 386.9 450.3 386.85 463.65
L 386.75 508.65
Q 386.75 521.2 386.85 531.25
L 387 553.2 362.5 556.7 362.1 556.3
Q 356.6 551.85 353.75 549.25
L 345.75 541.25 326.95 542.75 321.7 548.75 321.5 548.95 323.1 547 322.85 546.75 314.6 532 350.25 527.95 366 522.1 385.25 520.1 385.25 519.8 365.6 520.1 349.75 525.1 314.1 529.2 302.5 507.4 302.1 497.15
Q 301.95 492.05 301.95 486.75
L 302.5 445.15 302.1 424.15 302 424.05 301.5 422.25 302.35 419.9 302.5 419.75 302.45 419.65
Q 302.35 415.7 302.1 412.4 302 409.3 301.75 405.25
L 301.45 405.25 300.75 419.4 299.5 422.05 299.6 422.4 300 424.4
Q 300 424.75 299.85 434.75
L 300 455.55 301 493.15 283.2 494.75 281.7 460.15 279 460.25 279.35 495.25 210.1 510.5 210.15 510.75 263.2 500.8
Q 271.15 499.35 280.75 497.4
L 299.25 495.3 298.5 506.15 298.5 506.25 216.05 528.85 278.1 548.75 219.85 549 219.8 551.7 293.75 553.45 303.1 557.5 317.5 557.5 317.5 554.55
Q 319.9 552.75 322.95 549.95
L 325.75 547.3 318.25 556.85 318.45 557.05 328.35 547.85 345.75 559.6 336.35 559.5 329.6 554.25 324.25 560.25 254.75 568.25
Q 247.1 569.2 242.3 570
L 217.85 573.55 217.85 570.85 213.9 571.25 213.65 567.7 212.5 567.45 212.85 551.75 214.85 551.7 215.05 548.25 216.35 547.35
Q 217.4 546.7 218.1 545.75 218.55 545.4 218.85 544.75
L 219.5 543.7
Q 220.05 542.55 220.1 541.25 220.2 540.2 219.9 538.8
L 218.85 536 218 534.6 216.55 532.8 214.85 531.3 211.35 528.85
Q 210.75 528.4 210 527.5 209.25 526.55 209.1 525.95
L 208.85 525.5 208.85 525.25 208.55 524
Q 208.15 522.1 208.1 521.95
L 207.85 519.8 208.5 515.05 208.55 512.35 208.85 512
Q 209.45 511.4 209.6 510.75
L 210.05 509.25 210.05 508.9 210 508.75 210 508.4 209.85 507.75
Q 209.5 506.85 209.15 506.5
L 208.65 506
Q 208.55 505.8 208.1 505.5 207.75 505.3 206.8 505.05
L 206.85 500.4 209.05 502.4 209.15 498.65 207.6 496.5 207.85 482.65 214.55 482.65 214.5 478.75 207.35 478.8 207.35 477.5 209.3 477.5 209.25 474.65 207.4 474.65 207.35 472.25 204.25 472.3 204.35 474.65 202.25 474.75 202.25 476.5 202.3 476.8 204.4 476.75 204.4 479 196.1 478.9 195.75 478.8 195.65 481.4 204.05 481.65 204.1 493.15 203.4 492.55 201.9 495.75 202.1 495.9 204.3 498.65 204.55 505.3 204.35 505.4
Q 204 505.5 203.35 506
L 202.85 506.4 202.55 506.9
Q 202.05 507.65 202 508
L 201.8 508.65 201.75 508.9 201.65 509 201.65 510 201.9 510.75
Q 202.3 511.55 202.8 511.9
L 203.1 512.25
Q 203.1 514 203.35 515.1
L 203.6 516.95
Q 203.85 517.95 204.25 518.75
L 204.35 518.75 204.35 518.95 205.1 519.1 203.9 519.2 203.8 519.75
Q 203.1 522.1 202.5 523.75
L 201.65 525.75
Q 201.1 526.9 200.65 527.3
L 195.6 531.35 194.05 532.95
Q 193.35 533.55 192.6 534.6 191.7 535.95 191.5 536.55
L 191.1 537.75 191.1 540 191.55 542.2 192 543.25
Q 192.8 544.75 193.1 545.1
L 195 547.2 195.4 547.5 196.35 548 196.55 550.3 193.75 550.2 193.75 550.25
Q 190.4 550.05 184.35 549.75
L 172 549.3 147.1 549.5
Q 143.8 549.65 134.75 550.7 128.75 551.35 122.4 552.2
L 73.3 559.1
Q 63.55 560.6 48.9 563.05 36.95 565.15 24.5 567.55 15.35 569.5 12.35 570.2
L 7.75 571.5 6.9 572 5.55 573 5 573.7
Q 4.9 573.75 4.8 574
L 2.25 572.75 4.8 571.75 51.5 558.45 101.5 543.1 126.4 535
Q 137.8 531.3 146.3 528.7
L 201.35 512.1 200.85 510.4 104.65 537.5 108.9 439.8 108.55 439.75 103 514.55
Q 102.55 520.35 101.4 539.5
L 101.3 540.6 75.75 548.35
Q 63.2 552.2 50.75 556.2 48.6 556.85 25.85 564.25
L 18.1 566.75 24.35 564.35 27.85 460 109.3 435.9 109.3 436 195.35 446 281.25 455 281.6 455 283.25 448 288.25 442.15 288.25 439.75 292 432.4 291.85 432.3 287.85 439.65 287.85 441.9 282.6 447.65 282.6 447.75 281 454.15 195.6 444.25
Q 190.75 443.65 174.1 441.9
L 110.05 435.15 107.15 420.4 107.15 420.25 105.25 417.15 105.25 407.4 19 440 17.45 438.55 105.55 405.8 299.7 432.25 267.7 411.75 267.25 403.5 265.6 403.5 265.5 397.5 263.85 395 264.6 362 269.25 357.9 261.95 353.55 262.25 352.65 263.85 349.8
Q 264.8 347.65 265.1 346.5 265.6 344.55 265.45 342.9 265.3 341.1 264.45 339.4
L 262.95 337.05 262.35 336.5
Q 261.55 335.5 260.1 334.05
L 257.7 331.8
Q 254.15 328.8 252.85 327.5 251.2 325.8 250.85 325.25 250.05 324.3 249.35 322.75 248.9 321.5 248.6 319.8
L 248.35 318.5 248.6 318.25 248.9 317.65 249.1 317 249.05 315.65 249.1 315.5 249.1 315.4 249.05 315.25 249.1 313.8
Q 248.95 312.95 248.6 312.5 248.15 312.05 247.9 312 247.65 311.75 247.35 311.75
L 247.55 308.4 248.05 309.75 248.25 304.25 247.5 302.75 247.6 294.3 252.75 294.9 252.65 291.8 247.35 291 247.25 286.55 247.15 286.15 245.6 286.15 245.15 286.25 245.25 286.55 245.4 290.9 239.65 290 239.6 292.55 244.6 293.5 244.55 301.5 243.8 301.5 243.85 304 244.05 304.15 245.4 305.4 245.75 311.65 245.1 312
Q 244.25 312.45 243.65 313.5 243.6 313.6 243.4 314.5 243.4 315 243.6 315.4
L 243.6 315.5 243.65 315.65 244.35 316.65 244.35 318.05 244.1 319.25
Q 244.05 320 243.5 321.9 243.1 323.05 242.55 324.15 242.1 324.9 241.1 326.25 238.4 329.6 233.6 334
L 230.6 336.8 230.05 337.4
Q 229.65 337.85 229.55 338.05 228.8 339.05 228.3 340.9 227.75 342.55 227.75 343.8 227.6 345.2 227.8 346.75
L 228.05 348.25 228.5 349.75 229.15 351.15 230.1 352.4
Q 230.25 352.6 231.1 353.4
L 225.3 357.9 225 358 225 358.05 224.9 358.05 224.8 358.15 224.55 358.3
Q 224.15 358.7 224.15 359.25
L 224.3 359.65 224.65 360.25 224.85 360.3 228 362 228.9 390.8
Q 229.25 392.2 229.9 393.25 230.75 394.45 232.05 395.15 232.8 395.5 233.85 395.65
L 235.85 402.5 235.9 402.55
Q 238.65 406.75 241.1 409.75 242.5 411.4 244.15 413 244.55 413.4 245.25 413.75
L 245.75 414 245.8 414.05 245.85 414.15 246.1 414.15 248.65 414.65 257.45 415.4
Q 260.3 415.6 266.1 415.8
L 267.1 415.9 267.1 414.5 288.1 428 105.55 403.8 105.3 403.75 105.05 403.9 14.85 438 26.6 449 26.6 449.05 26.5 449.15 24.85 455.4 24.85 455.8 24.35 456.8 24.7 457.15 26.2 458.9 26.6 460 23.35 563.75 0 572.55 4.4 574.75
Q 4.25 575.25 4.3 575.6 4.3 576 4.4 576.25 4.5 576.5 4.75 576.75
L 4.9 577 4.9 577.8 6.25 577.8
Q 6.6 578 7.15 578.1
L 7.5 578.1 9.1 577.8 12.25 577.8 12.25 592.5 12.15 592.5 11.9 592.75 5.4 597.95 8.9 598.5 12.15 602.45 12.05 711.95 8.5 711.95 8.35 713.25 80.3 719.05 80.4 650.35 70 639.95 397.95 616.8 403.1 616.8 403 621.55 400.5 621.35 401.95 757.75 83.05 732.6 83.05 717 119.4 718.25 119.15 657.2 106.25 656.5 106.9 703.5 117.05 703.95 117.05 703.75 116.55 699.05 116.3 699.05 116.65 703.55 107.3 703.05 107.05 657.5 118.15 658.1 117.9 716.75 81.3 715.25 81.3 734.25 405 761 405 760.45 449.25 757.7
Q 457 757.15 472.1 756.35
L 587.8 751.25 588 614.95 594.75 612.7 594.5 612.35 510.6 541.8 516 541.35 513.15 410.15 514.45 408 513.4 406.75 513.7 397.9 521.25 393.75 521.3 393.3 522.2 393.4 521.7 388 519.2 388 519 390.4 506.1 388.5 505.95 391.65 503 391.65 503.2 388 486.5 386 486.5 388.8 483.75 388.5 483.95 385.5 467.35 382.4 467.2 385.3 464.45 385.3 464.45 382 447.35 379.65 447.35 381.9 446.2 381.75 446.6 378.9 428.2 376.55 428.2 379.05 427 378.9 426.95 376.05 408.75 373.8 408.1 376.15 405.95 375.9 406.25 373.15 388 370.75 387.95 364.25 518.25 384.25 521.8 386 532.05 386 489.45 368.9 489.35 354.75 486 352.65 486 344.5 481.5 343.15 480.1 339.15 478.45 338.75 477.6 338.25
Q 476.9 337.85 476.75 337.25
L 476.75 337.15 476.5 335.9
Q 475.8 334.8 475.5 334.5 475 334 474.25 333.55
L 473.85 333.4 473.85 313.75
Q 473.85 302.35 473.75 293.25
L 473.5 252.4
Q 474.4 251.75 475 250.9 475.75 250.15 476.25 248.9 476.7 247.55 476.25 246.5 475.85 245.45 475 244.6
L 474.75 244.75
Q 475.65 245.7 475.85 246.65 476.2 247.65 475.75 248.7 475.55 249.45 474.6 250.5 473.7 251.4 472.95 251.9
L 472.75 251.95 471.1 335.25 472.2 335.65 472.85 336
Q 473.05 336.05 473.5 336.4 473.85 336.95 473.85 337
L 473.95 337.25 473.95 337.4 474 337.5 474 337.9
Q 474.25 338.9 474.85 339.55 475.25 340.15 476 340.65 476.65 341.1 477.25 341.3
L 477.85 341.55 479.2 345.55 483 346.75 482.95 354.3 486.25 356.5 486.25 366.8 483.2 366.8 483.1 368.5 467 362.75 466.6 338.8 459.35 338.15 458.7 243.15 460.5 241.4 461.25 241.15 462.2 241.9 463.7 242.4 464.6 242.35 466.45 241.7 467.1 241.4 468.1 240.65 468.35 240.35
Q 468.7 240 468.85 239.6
L 468.95 239.4 471.25 239.65 472.1 240.75 473 241.5 473.35 241.7
Q 473.6 241.95 474.25 242
L 475.2 241.95 475.95 241.65 476 241.65 476.75 240.95 477.35 240.2 477.75 239.2 477.85 238.65
Q 477.85 238.25 477.75 238.15 477.75 237.75 477.35 237.2 476.95 236.7 476.7 236.5 475.95 236.05 475 235.85
L 474.95 236.15
Q 475.6 236.45 476.25 237.1
L 476.6 237.65
Q 476.75 237.85 476.75 238.25
L 476.75 238.6 476.7 238.9 475.75 239.9 475.25 240.2 474.85 240.25 474.75 240.25 474.5 240.2 474.1 239.95 474 239.85 473.7 239.4
Q 473.45 239.25 473.45 238.95
L 472.6 237.6 467 236.25 466.5 237.75 466.5 238.1 466.35 238.35 466.1 238.6 466 238.65 465.7 238.85 464.45 239.2 464.2 239.35 464 239.35 463.95 239.25 463.75 239.2 463.6 239.1 462.2 237.35 458.95 238.6 458.6 238.7 458.35 238.9 455.7 241.65 454.45 241.25 454.1 241.1 453.7 240.65
Q 453.45 240.3 453.45 240.2
L 453.35 239.65 453.45 238.9 453.6 238.6 462.45 233.65 471.95 235 472.25 235.15 477 227.1 474.2 226.1 474.5 220.6 482.75 217.95 482.25 209.15 483.5 207.6 493.95 205.45 478.2 202.6
Q 473.35 201.6 469.7 200.6
L 467.7 199.95
Q 466.5 199.55 466 199.25
L 466 199.1 465.5 196.7 464.1 193.4 462.6 191.5
Q 461.85 190.65 460.85 189.9 459.5 188.95 458.7 188.65
L 458.1 188.4 454.25 191.4 454.2 191.1 453.45 189.45
Q 452.65 188 451.6 186.5
L 449.5 183.9
Q 447.8 181.95 447.35 181.6
L 447.2 175.15 451.85 174.95 443.1 171.75 443 172.1 447.85 174.2 446.25 174.15 446.2 174.65 446 182.15 450.25 187.45
Q 451.2 188.95 451.85 190.25
L 452.5 191.7 453.2 194.6 458.35 190.85 459.5 191.65
Q 460.1 192.1 460.95 193
L 462.1 194.65 462.95 196.4 463.5 198.4 463.6 199.4 463.6 199.65 463.7 199.75 463.7 199.85 410.7 186.65 410.35 186.65 398.75 192.15 389.95 189.25 389.75 189.2 381.1 192.65 368.75 188.95 354 195.7 356.1 191.95 370.35 185.85 370.5 184.95
Q 370.75 183.75 371 183.15 371.15 182.4 371.6 181.2
L 373.1 177.6 376.1 172.5 378 170.15 381.6 166.75
Q 381.85 166.45 383.1 165.65 383.85 165.05 384.75 164.5
L 394.1 159.9 389.85 158.85
Q 379.7 156.15 375.75 155.15
L 375.75 153.45 383.75 150.4
Q 384.6 150.15 391.35 147.4
L 405.85 148.6 405.85 148.45 418.2 151.1 404.35 161.45 407.5 163.25 409.85 165.15 412 167.4
Q 412.8 168.3 413 168.65 414.15 169.9 415 171.1
L 418.6 176.4
Q 420.7 179.7 421.85 181.85
L 422.1 182.2 442.85 187.85 443 160.25 445.6 159.9 445.7 159.9 445.85 159.85 448 158.65 431.95 142.85 419.35 148.6 419.25 148.6 418.35 148.4 427.5 143.7 428 143.5 427.85 135.75 424.95 134 423.95 116.45 425.5 107.5 427.5 105.85 427.6 105.7 428.75 100.95 428.5 100.85 427.1 105.5 425 107.1 424.95 107.2 424.95 107.25 423.1 116.25 423.5 134.45 423.6 134.85 426.45 136.65 426.35 142.5 419.1 146 418.75 120.2
Q 418.75 118.55 418.6 117.7
L 418.5 116.35 417.75 113.6
Q 417.6 113.1 417.1 112.35 417.05 112.15 416.25 111.2
L 415.25 110.2 414.1 109.35 412.75 108.7 412.6 108.7 410.95 108.45 409.25 108.45
Q 408.55 108.5 407.45 108.85
L 406.6 109.2 405.1 110.35 404.5 111
Q 404.1 111.5 403.5 112.45
L 402.35 115.75 402.75 145.25 394.25 144.6 394.6 140.1 396.5 136.9 396.5 136.45 398 117.35 398.1 117.2 398 117.1 396.35 94 396.35 93.6 394.85 89.2 404.1 88.35 403.85 90.85 415.75 94.45 416 94.45 416.1 94.5 433.85 101 430.1 89.75 421.7 88.95 406.2 80.85 406.2 73.95 409.35 73.25 405.85 68.35 407.75 67.5 409.25 66.45 410.5 65.1 411 64.35
Q 411.25 64.1 411.5 63.55
L 411.85 62.75
Q 412.1 62.35 412.1 61.95
L 412.6 60.2 412.75 58.5 412.6 56.25
Q 412.05 54.55 411.85 54.25
L 410.85 52.35 409.5 50.75
Q 407.9 49.25 406.25 48.2 405.15 47.4 403.1 46.35
L 400.75 34.1
Q 401.4 34.1 401.85 33.55
L 402.1 33 402.2 32.35 402.2 31.9 402.1 31.15 402.1 30.9 402.25 29.65
Q 402.1 28.8 401.85 28.5
L 401.25 27.9 401.2 27.9 401.35 24.9 402.5 26.75 402.7 22.75 402.75 22.55 402.6 22.4 401.75 20.75 401.75 21 401.7 20.55 401.75 20.75 402 10.15 406.95 11.65
M 400.25 30.75
L 400.45 30.55 400.75 30.4 401.1 30.4
Q 401.45 30.4 401.6 30.65
L 401.75 30.9 401.75 31.15 401.6 31.5
Q 401.45 31.65 401.1 31.65 401 31.7 400.5 31.55
L 400.25 31.5 400.2 30.8 400.35 30.75 400.25 30.75
M 399.25 30.9
Q 399.35 30.75 399.5 30.75
L 399.25 32
Q 399.05 32 399 31.8 398.7 31.45 399.1 31
L 399.25 30.9
M 376.95 98.2
Q 378.5 97.3 380.7 96.5 383.65 95.35 384.85 94.6 386.95 93.3 388.6 92.1 390.6 90.55 391.6 89.45
L 393.25 94.35 393.35 95.95 390.25 97.1
Q 388.1 98.1 386 99.2 383.65 100.45 381.85 101.7
L 379.25 103.45 378.5 101.1
Q 377.65 99.7 377.6 99.5
L 376.95 98.2
M 329.35 392.75
L 329 389.25 319.95 392.55 319.95 395.55 316 396.4 315.35 393.25 304.2 397.15 304.35 400 299.75 401.55 298.6 400.25 295.25 400.15 295.2 396.4 290.6 396.25 290.6 394.15 289.25 393.8 385.6 363.8 385.6 369.55 385.45 369.4 299.35 396.25 299.5 396.55 346.85 383.3 347.25 385.9 343.6 387.25 342.95 385 333.5 388 334.35 391.65 329.35 392.75
M 360.1 379.5
L 360.5 381.4 356.1 382.9 355.75 380.75 360.1 379.5
M 371.7 376.15
L 377.25 374.55 377.25 377.5 372 378.65 371.7 376.15
M 384.95 372.3
L 385.5 372.75 378.35 374.25 384.95 372.3
M 248.55 368.15
L 258.45 368.75 258.35 394.65 248.5 394.25 248.55 368.15
M 300.2 506.05
L 300.85 498.15 300.75 507.05 300.2 506.05
M 312.35 532.25
L 313.45 532.05 322 547 316.7 553.35 316.6 553.5 316.5 556.5 303.35 556.45 294 552.2 288.25 551.95 299 552 224.85 529 298.6 506.65 307.1 521.1 312.35 532.25
M 510.5 551.7
L 509.6 543.8 593.9 612.5 588 614.55 568.25 598.45
Q 554.05 586.75 549 582.75
L 510.5 551.7
M 439.6 451.3
L 443.35 452 432.85 451.65 432.35 450.4 432.85 450.25
Q 433.7 450.35 439.6 451.3
M 455.6 469.4
L 455.35 469.4 454.75 506.5 444.6 506.3 443.95 466.25 457.35 467.65 457.2 508 445.95 507.25 455.1 507.3 455.5 507.4 455.6 469.4
M 424.75 616.85
L 424.75 623.35 403.75 621.6 403.7 616.8 424.75 616.85
M 405 8.4
L 405 8.9 399.85 7.2 399.85 7.95 393.35 6.25 393.25 5 399.25 6.2 399.7 6.35 399.85 1.9 400.6 2.35 400.35 6.85 405 8.4
M 408.35 51.85
L 409.5 53.3 410.35 54.85 410.85 56.6 411 58.3 410.45 61.3 409.85 62.75 409.45 63.35 408.5 64.45 407.35 65.45 406.75 65.85 405.45 66.45 402.5 67.25 405.75 71.85 404 72.2 403.85 82.25 421 91.45 421.2 91.45 428.1 92.2 429.5 96.45 407 88.7 407.5 85 390.7 86.5 391.45 88.85
Q 389.55 89.4 387.5 90.25
L 383.5 92.25
Q 381.45 93.45 379.75 94.95 377.75 96.65 376.1 97.6
L 375.75 97.85 375.95 98.2 377.1 101.6 377.5 107.45 383.5 104.35
Q 385.6 103.15 387.5 101.85 389.55 100.5 391.35 98.95 392.6 98.05 393.5 97.2
L 394.85 117.2 393.45 135.85 391.5 139 391 145.65 375.75 153 375.45 141.65 379.25 136.45 379 113.6 375.85 110.75 375.5 106.45 375.5 106 371.1 102.2 370.7 96.35 378.1 94.7 378.25 94.7 378.35 94.6 397.45 80.95 397.35 72.45 394.85 72.45 397.6 68.45 395.45 67.7 392.5 66.1 390.75 64.35 390.25 63.7 389.2 61.5 388.6 59.05 388.85 57.3 389.35 55.5
Q 390.05 53.85 391.25 52.35 393.6 49.55 397.1 47.75
L 397.35 47.55 399.75 35.5 401.75 47.25 402.1 47.5
Q 403.45 48.1 405.45 49.45 407.35 50.85 408.35 51.85
M 399 20.75
L 399 20.15 400.1 20.75 400.1 21.25 400.35 21.65 400.75 27.65 400.5 27.65
Q 400.05 27.6 399.45 27.65
L 399.95 21.5 399 20.75
M 354.35 165.75
L 350.75 165.75 360.1 151.75 370 154.15 354.35 162.7 355.1 179.1 355.75 181.4
Q 356.2 182.75 357 183.65 357.7 184.25 358.2 184.45 359 184.85 359.7 184.7 361.05 184.65 362.1 183.45 362.95 182.65 363.5 181.5 364.55 179.7 365.1 177.15 365.55 175.3 365.85 172.7
L 365.85 172.65 365.7 170.9 365.25 169.2 364.35 167.65 364 167.25 363.6 167 362.7 166.7
Q 362.25 166.65 361.75 166.75
L 360.85 167
Q 359.9 167.6 359.45 168
L 358.25 169.2 357.25 170.6 357.45 170.75 359.1 168.9 360.45 167.95 361.85 167.4 362.6 167.4 362.95 167.5 363.25 167.65 363.75 168.15
Q 364 168.4 364.1 168.75
L 364.6 170.25 364.75 172.6
Q 364.5 174.25 363.85 176.85 363.2 179.1 362.25 180.75 361.55 181.8 361 182.35 360.2 183 359.6 183 358.95 183.05 358.35 182.4 357.8 181.75 357.5 180.75 357.15 179.75 357.1 178.85
L 356.85 164.15 371 156.9 384.95 160.7 381.25 162.95 377.85 165.7
Q 376.95 166.75 376.35 167.25
L 374.95 168.9 371.25 174.25 368.6 180.2 367.75 183.7 354.25 189.65 354.35 165.75
M 368.85 191.35
L 381.2 194.5 389.85 190.75 398.5 193.25 398.75 193.35 410.7 187.65 482.5 207.35 481.1 208.45 481 208.65 481 208.9 480.5 215.7 463 211.1 411.5 199.85 411.2 199.75 398.85 205.25 390.75 202 390.6 201.9 390.45 202 381.5 205.4 370.5 202.65 370.2 202.6 352.45 211.7 335.35 221.4 324.75 227.9 322.75 227.9 315.85 218.7 347.75 201.15 347.5 201.75 368.85 191.35
M 408.35 111.35
Q 408.9 111.1 409.5 111
L 410.75 110.95 412 111.2 412.85 111.5 413.7 112.1 414.45 112.85 415 113.7
Q 415.4 114.2 415.5 114.6
L 416.1 116.7 416.25 117.85 417.25 148.15 405.75 145.9 405.1 116.2 405.6 114.25 405.85 113.7 406.5 112.7 407.35 111.85 407.85 111.5 408.35 111.35
M 445.2 158.5
L 442.1 159.15 442.1 157.35 421.35 150.6 431.45 145.9 445.45 158.4 445.2 158.5
M 420.2 153.45
L 424.25 154.85 424.5 171.35
Q 424.75 172.95 425.1 173.9 425.75 175.45 426.35 176.25 427.9 178.5 430.35 179.85 432.85 181.2 435.6 181.2 437.25 181.2 438.45 180.7 440.05 180.2 440.85 178.7
L 441.25 177.95 441.5 177.15 441.6 176.4 441.85 169.35 441.75 186.4 423.5 180.6
Q 422.1 177.7 420.5 175.15
L 415.1 166.95 411.75 163.15 409.5 161.25 420.2 153.45
M 439 176.75
Q 439 177.05 438.75 177.4 438.1 178.85 435.5 178.9 433.2 178.9 431.25 177.95 429.2 177 427.85 175.2 427.15 174.4 426.7 173.25 426.35 172.55 426 171.15
L 424.5 154.9 439 159.65 439 176.75
M 459.35 233.2
L 456.85 234.2
Q 454.9 234.95 451.85 236.4
L 451.35 236.6 450.75 238.2
Q 450.5 239.1 450.5 239.6 450.4 240.3 450.7 241 450.8 241.75 451.35 242.45
L 452.35 243.5 453.5 244.15
Q 454.2 244.55 455.85 244.95
L 456.6 245.15 458.35 243.45 456.75 337.9 450.85 337.25 450.85 275.75
Q 450.85 273.1 450.75 272.4 450.5 268.75 449.35 265.75 448.15 262.6 445.95 259.9 441.45 254.75 434.35 253.4 432.4 253.1 431 253.1 429 253.2 427.6 253.9 426.2 254.6 424.75 255.9 422.95 257.55 422.25 258
L 420.6 259.4 420.45 233.15 420.95 233.2 421.6 233.15 422.1 232.95 422.85 232.45 424 231.35 424.25 231.15 423 228.85 420.5 230.15 420 229.9 419.95 229.75 419.85 229.65 419.85 229.35 420.25 227.45 414.95 225.7 413.85 227.45 413.5 227.7
Q 413.35 227.9 413.25 227.9
L 412.85 228.1 412.5 228.15 411.85 228.15 411.45 227.9 411.1 227.45 411 227.35 411 227.15 411.1 227 411.1 226.9 411.25 226.65 412.45 223.4 403.5 227.65 403.85 228.7 404 230
Q 404 230.25 403.85 230.4
L 403.75 230.6
Q 403.4 230.85 402.75 230.85 402.05 230.85 401.6 230.75 401.2 230.6 400.85 230.1 400.5 229.6 400.5 229.1
L 400.6 228.65 400.7 228.4 400.85 228.15
Q 400.9 227.9 401.25 227.65
L 401.75 227.25 411.45 222.45 459.35 233.2
M 417.2 229.95
L 417.45 230.7 417.85 231.4 420.6 327.9 420.75 328.05 422.35 329.9 423.6 331.9 424 332.9
Q 424.1 333.15 424.1 333.5 423.85 333.7 423.25 333.75
L 422.2 334
Q 419.8 334.15 417.35 334 415.05 333.95 412.45 333.55
L 412.25 333.55 412.1 333.65 402.95 335.75 402.6 335.75 402.95 337.65 411.25 336.9 429.5 338.25 430 361.4 414 359.75 399.45 349.15 399.45 338.25 402 337.5 402.25 334.5
Q 402.45 333.55 402.75 332.75
L 403.7 331.4 404.25 330.9
Q 404.3 330.85 404.85 330.4
L 405.75 329.8 405.6 232.4
Q 406.05 231.95 406.25 231.5
L 406.6 230.2 406.5 229.15 408.5 228.15 408.7 228.65 409.1 229.35 410.25 230.35 410.75 230.65 411.25 230.85 412 230.9 412.85 230.85 413.7 230.65 414.5 230.35 415.25 229.9 415.85 229.25
Q 416.1 229.05 416.1 228.95
L 417.1 229.35 417.2 229.95
M 425.35 256.65
Q 426.8 255.35 428 254.7 430.45 253.55 434.2 254.35 440.9 255.6 445.2 260.65 447.2 263.05 448.35 266.15 449.4 268.75 449.7 272.5 449.8 273.5 449.7 275.75
L 448.45 337.15 445.25 336.8 444.45 275 443.6 271.15
Q 443.05 269.65 442.95 269.25
L 442.1 267.5
Q 440.15 263.95 437.1 261.4
L 433.75 259.3 430.2 257.9
Q 427.75 257.05 426.25 257.05
L 424.75 257.25 425.35 256.65
M 403.6 375.25
L 403.25 377.8 409.75 378.9 410.5 376.5 424.5 378.25 424.5 381.05 430.7 381.9 430.75 379.4 443.7 381.15 443.2 383.9 449.95 384.75 449.95 382.65 461.75 384.3 461.75 388 469.7 388 469.85 385.55 481.2 387.75 481 390.8 489.1 391.75 489.1 389 500.5 390.25 500.25 394.25 508.35 394.25 508.5 391.4 517.8 392.75 511.25 396.4 510.95 407 510.85 407.5 511.5 408.25 510.75 409.4 514.8 540.25 394.1 551.2 394.2 520.3 405.35 520.25 498.95 528.25 496.45 417.9 494.95 417.5 494.6 414.75 508.95 416.25 509 416.25 509.1 414.9 509.25 414.9 509.25 413.75 509.35 413.5 509.25 413.5 509.35 410.3 494.35 407.4
Q 489.9 406.45 479.5 404.55
L 389.7 388.55 389.35 389 389.25 374.75 392 374.15 391.1 373.5 403.6 375.25
M 246 287
L 246.35 287 246.15 292 246.65 292.15 251.3 293 251.3 293.25 246 292.5 246.1 303.15 246.25 303.25 246.5 303.65 247.05 311.65
Q 246.55 311.6 246.1 311.65 246.1 311.3 246.3 309
L 246.4 304.9 245 303.5 245.05 302.75 245.8 302.75 245.85 302.15 245.75 292.5 240.3 292 240.25 290.65 245.9 291.5 246 287
M 230.05 344
Q 230.05 343.15 230.5 341.5 230.85 340.4 231.4 339.4
L 232.15 338.5 235.15 335.75
Q 240.55 330.7 242.9 327.75 243.85 326.65 244.6 325.3 245.2 324.45 245.75 322.5
L 246.3 320.5
Q 246.45 321.65 247.1 323.65 247.85 325.45 248.85 326.75 249.65 327.75 251.15 329.25
L 258.35 335.8
Q 259.35 336.7 260.5 338.05
L 261.5 339.25 262.2 340.5
Q 262.75 341.55 263 343.15 263.15 345.7 261.6 348.65
L 260.1 351.5
Q 259.45 352.8 259.45 353.55 259.35 354 259.5 354.4 259.7 354.9 260 355.25
L 260.6 355.65 264.95 358
Q 264.85 358.1 264.85 358
L 259.85 356.8
Q 257.85 356.5 256.35 356.5
L 252.9 356.4
Q 251.6 356.35 249.5 356
L 245.15 355.25 239 355 234.1 356.65 231.85 357.65
Q 231.2 357.9 229.6 358.75
L 229.65 358.9 239.25 357.15 249.35 356.75
Q 250.55 356.75 252.85 357.05 255.75 357.8 256.2 357.9
L 259.6 358.55
Q 262.25 358.9 263 358.9
L 264.35 358.9 262.1 360.9 261.25 395.3 261.2 395.75 262.95 398.4 262.95 403.75 246 402.9 245.25 396 248.05 395.8 259.85 396.15 259.75 367.5 247.35 366.8 247.55 394.25 243.35 394.15 243.5 395 243.5 395.15 236.8 395.55 236.4 368.55 231.8 369.8 231.85 391.25 232.15 391.25 232.35 370.25 235.85 369.4 235.85 395.05 235.5 393.55 234.6 393.55
Q 233.65 393.55 232.9 393.25 232.2 392.9 231.65 392.15 231.2 391.3 231 390.4
L 231 390.15 230.9 390.15 230.1 360.5 227.35 359.15 235.25 353.15 233.6 352.25
Q 232.3 351.65 231.85 350.9
L 231.4 350.5 231.1 350 230.6 348.9 230.1 346.5
Q 229.9 345.15 230.05 344
M 248.55 314.9
L 248.75 315.25 248.8 315.4 248.75 315.55
Q 248.75 315.7 248.6 316
L 248.25 316.25 248.15 315.65 245.1 315.65 245.15 315.5 245.25 315.5 245.6 315.05 245.9 314.9 246.8 314.75 247 314.75 247.6 314.5 248 314.55
Q 248.35 314.65 248.55 314.9
M 265.1 413.25
L 265.25 413.4 265.25 414 248.9 412.75 246.75 412.3 246.6 412.25 246.1 412 245.4 411.5
Q 244.2 410.45 242.6 408.5 240.35 405.75 237.65 401.5
L 236.3 396.5 236.35 396.4 243.6 396.05 244.4 404.5 262.95 405.5 262.95 406.15 264.75 406.15 265.1 413.25
M 196.5 480.65
L 196.4 479.5 204.85 479.4 204.9 476.25 202.85 476.25 202.85 475.3 205.05 475.4 205.1 473.15 206.35 473.15 206.35 475.75 208.1 475.75 208.1 476.25 206.1 476.25 206 480.25 213 480.25 213 481.05 206.25 481.05 206.4 496.65 206.5 496.9 206.6 497 208.1 499 208.25 500.5 206.1 498.9 206.6 505.05
Q 205.95 505.1 205.6 505.05
L 205.5 505.05 205.5 505.15 205.25 505.15 204.9 505.25 204.75 505.25 205.1 498.3 205 498.25 203.1 495.65 203.75 494.4 205.25 495.8 205.3 480.4 196.5 480.65
M 203.85 506.65
L 204.65 506.25 205.5 506.25
Q 205.7 506.35 206.4 506.55
L 206.9 507 207.1 507.3 207.15 507.65 207.3 508.25 207.3 508.8 207.25 508.9
Q 207.25 509.15 207.15 509.15
L 207.1 509.15 207.05 509.4 205.85 510.9 205.85 510.5 205 510.25 203.8 509.55 203.6 509.4 203.4 509.15 203.35 509.05 203.35 508.65 203.3 508.25 203.35 507.4 203.85 506.65
M 205.5 515.1
L 205.55 515 205.55 515.2 206.1 518.1 204.6 518.55 205.5 515.1
M 206.35 520.75
L 207.15 525.85 207.25 526 207.35 526.5
Q 207.75 527.45 208.55 528.6 209.3 529.6 210.15 530.3
L 213.6 532.85
Q 214.3 533.35 215.1 534.25
L 217.05 537.05 217.6 538.35 217.8 539.25
Q 217.95 540.65 217.85 541.05 217.85 541.95 217.4 542.75
L 217 543.5 216.4 544.25
Q 215.9 544.85 215.05 545.5 214.35 546 213.4 546.35
L 212.75 546.7 212.6 549.35 199.15 549.75 199.1 552.3 210 552.8 209.35 569.75 210.8 570.1 210.85 570.45 200.85 572.5 201.3 575.55 201.6 575.55 214.65 574.35 214.65 576.3 203.35 580.25 203.15 580.25 194.15 582 194.05 574.2 197.1 574.2 197.3 569.85 199.35 569.05 198.65 551.6 143.3 553.35 7.4 576.6
Q 6.65 576.45 6.3 576.1 6 575.95 5.9 575.75
L 5.9 575.25
Q 6 574.9 6.25 574.7
L 7.8 573.3 8.35 573.05 9.75 572.6 12.75 571.95
Q 14.1 571.6 24.85 569.55
L 98.25 558
Q 110.55 556.2 122.75 554.5
L 147.3 551.25 172 550.55 197 550.75 196.9 550.5 196.8 547.7 196.6 547.55
Q 196.25 547.5 195.8 547.05
L 195.35 546.75 193.65 544.75
Q 192.95 543.65 192.6 542.85
L 192.05 540.95 191.85 539.45 191.9 538.85
Q 192.05 537.6 192.35 537 192.7 536.25 193.4 535.25 193.9 534.6 194.85 533.7
L 201.6 528.35
Q 202.05 527.95 203 526.35
L 203.85 524.3
Q 204.35 523.05 205.1 520.75
L 206.35 520.75
M 196.3 567
L 194.35 567.75 194.15 571.1 190.85 571.05 191.1 585.35 193.55 585.25 203.6 583.45 204.05 583.3 204.1 583.3 217 578.8 217.85 578.35 217.85 576.1
Q 223.7 575.5 242.75 573
L 277.2 568.2 298.2 566 325.35 562.3 329.85 556.75 336 560.85 336.2 560.8 346.25 559.95 350.6 562.8 363.1 557.2 362.85 557 388.25 554.35 388.35 553.75 388.75 531.25 389.35 398.5 408.1 401.15 394.6 399.75 395.5 402.4 395.6 402.5 397.75 403.25 397.85 402.9 395.95 402.15 395.35 400.4 409.6 402.4 410.25 403.75 409.35 404.8 409.25 405.15 408.75 407.75 408.75 408.75 395.85 408.15 395.1 510.65 392.6 510.65 392.7 520.3 393.1 520.3 393.1 552.25 507.25 542.1 393 611.05 227.55 622.8 64.55 635.05 165.6 580.75 189.85 578.25 189.9 578.25 189.85 576.85 151.75 578.25 15.35 596.95 11.35 596.3 13.15 594.85 155.85 576.05 155.65 557.7 155.4 557.7 145.1 556.8 145.1 557.1 155.1 558.25 155 575.25 13.15 592.35 13.15 577.05 54.65 569.5 102 561.7 143.35 555.7 195.85 554.6 196.3 567
M 165.7 579.5
L 165.35 579.55 59 636.6 155.6 630.85 65.3 638.2 78.4 651.2 78.65 717.25 13.35 712.3 13.15 602.05 13.1 601.95 10.35 598.7 15.15 599.45 15.35 599.5 15.55 599.45 152.05 580.1 165.7 579.5
M 104.55 417.4
L 106.5 420.65 109.3 435.65 27.85 458.3 26.6 455.5 26.85 454.75 27.95 452.65 27.95 450.8 28 450.5 105.9 421.5 105.15 419.5 27.5 447.75 20.2 441.05 83.5 416.5
Q 91.25 413.45 104.55 408.4
L 104.55 417.4
M 508.85 410.8
L 508.95 413.5 470.7 407.9 471.2 413 471.2 413.4 471.85 414.4 472.35 420.4 473.5 421 474 452.55 473.25 452.25 472.95 448.9 472.1 444.75
Q 471.65 442.55 470.75 440.65 469.8 438.3 468.75 436.8 467.45 434.75 466 433.4
L 464.35 432 461.6 430.15 458.5 428.9 455.35 428.15 453.35 427.9 453.25 427.9 453.1 427.8 450 427.9
Q 448.35 428 447.85 428.15
L 445.7 428.55 442.5 429.65 441.6 430.25
Q 440.05 431 438 432.8
L 435.2 436.25
Q 434.15 437.95 433.25 440.15 432.55 441.95 432 444.25
L 431.5 447.5 428.35 448.5 429.85 452.4 429.75 515 433 515.8 432.95 521 478.35 524.6 476.35 419.4 475.1 418.65 474.6 413.75 474.6 413.4 474 412.4 474 412.75 473.75 412.15 474 412.4 473.85 411.25 491.95 413.8 492.5 419.3 493.95 419.8 497.1 526.25 418.1 520.05 418.1 514.25 417.85 513.6 418.6 513.6 417.75 437.05
Q 417.75 428.8 417.6 412.4
L 418.75 411.8 430.85 413.05 430.85 409.75 430.75 409.8 430.85 409.55 430.85 409.75 431.75 408.15 431.85 408.05 431.85 408 432.45 403.4 391.35 396.75 391.7 391.4 449.5 401.4 508.85 410.8
M 509.75 552
L 509.85 552.05 585.15 616 585.3 748.85 472.1 755.35 404.95 758.05 404.5 665.85 403.85 624.8 428 626.8 428 613.7 403.6 613.75 403.6 609.8 403.25 609.8 403.2 613.75 394 614 509.25 543.5 509.75 552
M 455.85 431.25
L 460.25 432.8 463.35 434.9 464 435.5
Q 465.25 436.75 466.35 438.4 467.5 440.2 468.1 441.75 468.95 443.8 469.35 445.4
L 470.6 454 469.35 453.8 468.2 446.65 467.1 443.25 465.5 439.9
Q 464.75 438.55 464.5 438.3 463.8 437.25 463.35 436.9 462.75 436.15 462.1 435.5 461.05 434.65 460.6 434.4 460.5 434.3 459.1 433.4 458.4 433.05 457.45 432.75
L 455.75 432.15 453.95 431.9 453.85 432.15 457 433.55 458.45 434.5 459.7 435.65
Q 460.4 436.2 460.85 436.8
L 461.85 438.15 463.45 441 464.6 444.05 466 452.15 434.25 449.4 435 444.9
Q 435.5 442.6 436.1 441.25 436.8 439.35 437.75 437.9
L 438.85 436.4
Q 439.8 435.2 440.1 435 441.7 433.55 443 432.8
L 444.7 432.05
Q 445.55 431.7 446.45 431.5 447.05 431.3 448.25 431.05
L 452.95 430.8 455.85 431.25
M 431.25 404.25
L 430.95 407.75 429.95 409.3 429.85 409.4 429.85 412 418.7 410.8 418.6 410.8 418.45 410.9 416.95 411.65 416.7 411.75 416.25 462.15
Q 416.05 474.65 415.95 487.15
L 415.75 510.8 414 510.8 415.25 514.75 415.25 517.3 395.85 517.25 395.85 513.8 398.35 513.8 397.7 410 410.2 410.3 410.1 408 410.6 405.5 411.6 403.9 410.35 401.4 431.25 404.25
M 471.1 456.8
L 474.1 457.15 475.1 521.25 436.1 518.2 436.1 513.35 432.95 512.5 432.85 452.75 452.1 455.15 468.35 455.8 468.5 512.45 442.1 509.9 442 509.3 464.85 510.5 465.1 508.4 459.2 507.15 459 466.15 442.45 464.55 443.7 507.15 439.35 506.9 440.2 512 471 515.1 471.1 456.8
M 359.85 556.6
L 350.95 559.75 328.5 545 345.1 543.05 353.1 549.95
Q 356.1 552.7 359.85 556.6
M 471.95 662.3
L 471.85 662.6 499.2 664.55 498.85 683.25
Q 498.8 696.3 498.85 702.85 498.85 711.55 499.1 722.5
L 499.6 741.5 474.25 741.55 474.5 667.1
Q 479 667.45 484.6 667.6
L 495 668.2 496.35 739.75 496.6 739.75 498.1 665.1 496.6 665.05
Q 489.9 664.65 484.75 664.5
L 471.35 663.85 472.1 703.75
Q 472.25 708.05 472.75 722.95
L 473.25 742.55 500.75 742.7 501.2 722.5
Q 501.5 705 501.5 702.85
L 501.45 683.25
Q 501.3 669.15 501.1 663.6
L 501.1 662.7 471.95 662.3
M 515.95 591.95
L 515.5 576.95 499.7 577.45 498.85 614.5 507 614.75
Q 504.2 614.85 500.1 615.1
L 500.1 615.45 507.35 615.95
Q 507.5 615.95 514.65 616.25
L 515.5 616.25 515.5 615.25
Q 515.8 606 515.8 605.95
L 515.95 596.55
Q 516.05 594.3 515.95 591.95
M 502.25 593.3
L 503.1 581.75 510.25 582.05 510.2 611.85 501.45 612 500.6 578.45 513.65 578.8
Q 513.5 580.9 513.3 587.25
L 513.7 614.35 513.05 614.45 513 579.3 500.85 579.45 501.1 594.45 508.75 594.2 508.75 593.85 502.25 593.3
M 51.4 654
L 51.2 654 50.2 698.85 49.2 698.85 48.5 645.05 58.5 645 57 703 45 703.45 45 703.6 58 704.05 58.7 688.8 59.05 659.45
Q 59.05 647.95 59.15 644.75
L 59.15 644.35 58.8 644.35
Q 54.65 644.45 48.05 644.3
L 47.75 644.3 47 701 52.3 701 51.4 654
M 67.65 642.75
L 67.65 642.5 24 641.75 24.6 672.25 24.25 702.5 32.7 702.7 32.75 643.5 67.65 642.75
M 32.15 643.5
L 27.1 644 27.35 657.1
Q 27.7 667.35 27.85 669.5
L 28 669.5 28.7 645.45 31 645.25 31.1 701.1 25.6 701.25 25.25 672.25
Q 25.25 666.6 25.6 657.45
L 25.85 643.5 32.15 643.5
M 387.45 111.2
L 387.35 111.2
Q 385.85 111.6 384.95 112.7 383.95 113.7 383.6 115 383.15 116.25 382.85 119.85
L 381.7 133.9
Q 381.6 136.2 381.75 138.5
L 382.25 143.2
Q 382.55 145.85 383.1 147.9
L 383.45 147.9
Q 384 145.6 384.25 143.2
L 384.75 138.5
Q 384.85 137 384.85 133.9
L 383.85 122.2
Q 383.7 120.5 383.75 119.95 383.75 118.9 384.1 117.7 384.3 116.9 385 115.7 385.65 114.9 386.45 114.45 387 114.1 388.1 113.75
L 388.75 113.75 389.45 113.95 390 114.6
Q 390.25 114.85 390.6 115.45
L 392.35 120.2 392.6 120.2
Q 392.8 119.35 393 117.5 393 116.15 392.6 114.7
L 392.45 114 392.1 113.25
Q 391.65 112.45 391 111.95
L 390.2 111.45 389.25 111.1
Q 388.65 111.05 388.35 111.1
L 387.5 111.1 387.45 111.2 Z"/>
</g>
</defs>

<g transform="matrix( 1, 0, 0, 1, 0,0) ">
<use xlink:href="#Layer1_0_FILL"/>
</g>

<g transform="matrix( 1, 0, 0, 1, 0,0) ">
<use xlink:href="#Layer0_0_MEMBER_0_MEMBER_0_MEMBER_0_FILL"/>
</g>
</svg>
