
<svg xmlns="http://www.w3.org/2000/svg" version="1.1" xmlns:xlink="http://www.w3.org/1999/xlink" preserveAspectRatio="none" x="0px" y="0px" width="846px" height="694px" viewBox="0 0 846 694">
<defs>
<g id="Layer0_0_FILL">
<path fill="#522810" stroke="none" d="
M 655.8 251.65
L 656.9 251.65 657.05 248.8 648.15 247.75 627.4 124.9 627.05 103 628.15 102.9 633.05 93.9
Q 633.65 92.3 633.8 91.4 634.05 90.35 634.05 88.8
L 634 87.5 633.75 86.2 633 83.8
Q 632.55 82.6 631.95 81.55
L 630.75 79.45
Q 629.45 77.6 629.3 77.45
L 624.6 72.2
Q 622.95 70.3 622.4 68.75
L 622.45 68.85 621.1 63.75 621.25 62.5 621.15 59.4 620.85 58.6 620.35 57.75
Q 619.6 57.15 619.45 57.1 619.2 57 619 56.9
L 619 42.1 622.35 44.65 621.95 39.25 618.8 37.25
Q 618.75 32.1 618.5 26.85 618.45 23.4 618.2 16.6
L 626.4 10.2 626.35 3.9 618.45 9.75 617.95 1.15 617.9 0.75 617.6 0.6 616 0 613.05 2.9 612.85 3.05 612.9 3.25 613.3 12.9 605.25 19.7 605.1 19.8 605.1 21.8 605.05 22.15 608.45 22.2 608.55 22.15 614.6 18.4
Q 614.65 24.2 614.8 27.25 614.95 31.5 615.15 35.7
L 610.8 33.4 610.65 38.2 611.1 38.45 615.5 40.25 616.35 56.95
Q 616.1 57 615.85 57.1 614.7 57.75 613.95 59 613.6 59.7 613.55 60.35 613.55 60.4 613.7 61.5
L 613.7 61.65 613.75 61.7 614.1 62.7 614.65 63.65
Q 615 64.1 615.35 64.45
L 615.3 64.5
Q 614.5 67.2 613.55 69.35
L 613.3 69.85 610.6 73.45
Q 607.95 76.7 607.25 77.7
L 605.7 80.05
Q 604.8 81.75 604.5 82.65 604.1 83.95 604.05 84.05 603.75 85.35 603.75 85.45 603.55 86.35 603.55 86.85
L 603.4 89.7 603.5 91.15
Q 603.75 92.75 604.15 93.95 605.05 96.6 606.85 99 607.4 99.75 608.7 101.15 609.65 102.1 610.35 102.7
L 609.75 139.6 605.35 251.7 601.15 254.55 601.25 254.55 600.95 254.65 601.15 254.55 392.45 235 266.75 224.25 265.3 222.95 266.3 224.55 230.4 292.6 40.45 280.6 0 415.15 23.75 415.25 57.5 302.95 159 393.6 158.8 573.85 100.8 573.9 122.35 567.25 127 372.15 23.4 419 23.95 575.5 13.55 576.75 13.3 576.75 12.85 640.4 13.35 640.6 182 694.55 182 691.95 242.2 683
Q 247.55 682.15 252.45 681.65 256 681.25 262.7 680.65 274.45 679.6 303.9 677.65 317.25 676.85 324.5 676.5
L 334.85 676
Q 343.95 675.75 345.15 675.75
L 345.35 675.75 345.3 667.8 345 667.8 344.95 675.35
Q 343.8 675.3 340 675.3
L 303.85 676.55
Q 280.95 677.55 262.55 678.95
L 252.25 679.85
Q 246.45 680.45 241.95 681.1
L 182 689.45 182.05 677.15 344.2 667.6 328.5 661.05 328.2 660.9 169.3 670.1 168.05 656.35 328.7 649.15 331.15 649.65 331.1 657.95 367.8 658.05 367.85 657 413.7 660.9 413.9 660.9 580.7 635.4 611.75 631.9
Q 628.85 630.15 633.85 629.75
L 700.3 624.4 767.35 620.1 767.75 565.55 831.1 565.45 830.95 599.1 770.25 602.25 770.35 605.45 836.2 603.8 836.2 598.95 846.25 597 843.65 563.1 830.7 559.5 823.4 415.2 825.55 418.3 829.85 415.95 817.1 393 821.8 393 756.7 354.45 754.8 348.45 780.75 348.35 657.75 287.3 655.8 251.65
M 657.8 288.35
L 657.75 287.65
Q 667.5 292.8 686.2 302.6
L 769.95 345.8 754 345.75 753.05 342.75 753.05 345.75 730.45 344.55
Q 715.9 343.75 708 343.4
L 663.05 341.3
Q 648.45 340.6 640.6 340.2
L 618.15 339
Q 610.65 338.65 595.65 337.75
L 416.35 326.7 400.45 321.4 400.1 321.4 378.85 322.75 268.95 226.15 392.2 237.65 601.2 255.45 601.35 255.45 601.5 255.4 606.1 252.3 606.3 252.2 611.55 139.65 612.6 101.65 612.15 101.25
Q 611.35 100.65 610.3 99.6 609.6 98.9 608.7 97.65 607.2 95.6 606.35 93.25 606 92.2 605.85 90.85
L 605.75 89.65 605.75 89.35 605.8 89.05 605.9 87.1 606.1 85.9
Q 606.2 85.3 606.4 84.7
L 606.75 83.5
Q 607.05 82.75 607.85 81.25 608.25 80.55 609.25 79.15 609.85 78.3 612.55 75.05
L 615.1 71.8 615.85 70.45
Q 616.5 69.15 617.55 66.2
L 618.95 66.2 619.8 69.55 619.85 69.6 619.85 69.7
Q 620.75 72 622.6 74 623.15 74.65 624.25 75.75
L 627.15 79.15
Q 627.4 79.5 628.4 80.95 629.3 82.4 629.5 82.85
L 630.4 84.8 631 86.8 631.2 87.85 631.25 88.85
Q 631.25 90 631.05 90.85 630.95 91.6 630.45 92.75
L 626.45 100.1 615.2 100.6 615.3 103.55 620.4 103.65
Q 622.8 103.95 622.9 103.95
L 624 104.2 624.1 104.25 624.3 125.3 624.35 125.4 645.35 248.95 616.4 249.25
Q 616.15 249.1 615.9 249 615.45 248.9 615.1 248.9 614.8 248.95 614.6 248.95
L 611.85 249.6 611.7 249.65 611.65 249.7 611.2 249.95
Q 610.95 250.3 610.9 250.5 610.75 251 610.95 251.4 611.2 251.95 611.7 252.05
L 611.85 252.1 612.15 252.1
Q 612.75 252.1 613 252.05
L 614.6 251.9 614.85 264.15 612 262.7 610.95 264.75 657.8 288.35
M 654.75 251.65
L 656.05 285.7 617.2 265.4 617.05 251.75 634.7 251.7 634.95 257.65 635 257.85 636.85 257.9 637.05 257.95 636.7 251.9 636.4 251.9 636.65 257.5 635.4 257.4 635.3 251.7 654.75 251.65
M 663 342.75
L 707.85 345.7
Q 715.35 346.2 730.35 347.1
L 753.05 348.45 752.95 364.05 488.25 354.2 400.4 351.3 400.75 324.75 415.5 329.55 415.7 329.6 595.6 338.7
Q 603.1 339.1 618.1 340
L 640.55 341.35
Q 648 341.75 663 342.75
M 752.15 366.3
L 755.2 366.4 755.2 356 816.3 391.5 735.4 391.75 735.9 371.35 752.15 366.3
M 734.9 371.45
L 734.35 392.25 733.25 392.3 737.55 499.8 739.4 565.15
Q 730.15 565.35 695.65 566.25
L 627.9 567.95 537.55 568.9
Q 533.85 568.9 514.95 569.15 496.1 569.4 492.4 569.5
L 379.55 572.65 381.05 415.9 434.55 416.15 434.3 416 434.75 416 380.2 381.15 379.5 360.75 382.3 358.05 732.95 372 734.9 371.45
M 736.45 392.75
L 816.75 393 829 415.7 825.8 417.4 809.55 393.6 817.75 562.95 743.65 562.75 739.65 477.5 736.45 392.75
M 810.75 397.2
L 823.1 414.75 828.1 561.55 832.7 562.85 820.2 562.95 810.75 397.2
M 833.65 563.15
L 841.05 565.25 843 594.55 833.8 596.35 833.65 563.15
M 742.3 567.85
L 742.25 565.6 765.95 565.55 766.25 619.05 633.7 627.95 578.3 633.2 457.5 652.1 413.7 659.45 413.65 659.45 367.85 656.7 369.65 578.4 379.55 573.75 379.55 572.95 492.45 572.15
Q 492.6 572.15 515 571.7 530 571.4 537.6 571.15
L 605.35 569.35
Q 612.85 569.15 627.95 568.95
L 695.7 568.3
Q 710.75 568.15 740.9 567.85
L 742.3 567.85
M 624.5 7.55
L 624.45 9.3 616 15.55 616.05 16.1
Q 616.2 21.55 616.35 24.9 616 19.9 615.85 17.2
L 615.75 16.05 608.2 21.35 605.85 21.4 605.8 20.1 613.85 13.25 614 13.15 613.85 3.5 616.25 1.3 616.75 1.55 616.9 12.8 624.5 7.55
M 616.85 39.3
L 612.3 37.2 612.35 36.15 617.05 38.65 617.05 38.35 617.4 38.5 620.3 40.3 620.4 41.2 617.4 39.1 618.5 56.75
Q 618.4 56.75 618.35 56.75 617.6 56.55 616.65 56.85 616.75 54.5 616.8 49
L 616.85 39.3
M 619.5 59.95
L 620 60.15 620.45 60.4 620.7 60.75
Q 620.9 61 620.9 61.35
L 620.95 61.55 620.95 61.8 620.75 62.4 620.45 62.75 620.05 63.05 618.1 63.55 615.8 63.55
Q 615.6 63.4 615.45 63.15 615.2 62.75 615.2 62.35
L 615.2 61.95 615.25 61.75 615.5 61.2
Q 615.65 60.95 615.75 60.9
L 616.15 60.5
Q 616.55 60.1 617.1 60 617.45 59.95 618 59.85
L 618.5 59.85 619.5 59.95
M 377.35 382.45
L 377.35 382.75 424.1 412.8 174.6 397.5 41.65 281.6 241.35 294.9 377.35 382.45
M 161.8 392.4
L 56.35 299.1 22.6 413.7 1.9 413.75 41.15 281.6 173.6 399.05 173.8 399.3 381.35 412.75 377.9 412.7 376.55 571.85 366.7 576.45 365.3 655.45 333.55 655.55 333.5 647.7 317.95 644.7 317.9 629.75 316.95 629.6 316.95 629.55 316.75 629.55 316.75 629.5 316.65 629.5 292.2 625.95 291.9 576.55 259.65 577.95 259.7 579.15 264.85 579 264.75 609.3 254.4 609.45 258.5 429.15 198.95 426.9 198.1 518.1 197.2 433.65 176.45 434.45 176.15 434.5 175.85 434.65 171.6 437.7 171.75 578.55 136.8 577.95 137.7 633.35 158.8 635.3 159.1 654 165.35 655.2 166.8 672.4 167 672.45 167 672.5 167.2 672.5 179.35 675.45 179.4 691.05 14.3 639.3 13.85 577.25 23.95 575.85 23.95 577 162 577.05 161.8 392.4
M 267.35 226.2
L 272.55 234.45 238.9 293.1 230.75 292.6 267.35 226.2
M 176.85 436.65
L 194.85 436.1 195.25 615.05 201.05 623.35 201.6 429.65 256.3 431.3 253.45 609.25 201.8 624.7 195.3 617.3 195.15 617.1 174 617.45 174.6 578.55 172.05 578.55 173.75 438.8 176.85 436.65
M 266 579
L 290.3 578.25 290.05 625.95 147.2 631.75 140.15 631.1 138.8 579.9 173.05 580.1 172.85 618.65 173.45 618.6 194.7 618.2 201.45 625.85 254.4 609.95 254.4 609.75 265.3 609.85 266 579
M 121.8 566.85
L 99.6 573.9 27 573.95 26.05 420.7 124.85 375.5 121.8 566.85
M 160.75 632.9
L 150.45 632 290.2 627.85 303.1 629.8 160.75 632.9
M 161.7 651.75
L 161.3 635.3 315.7 631.9 315.65 645.2 161.7 651.75
M 315.65 646.15
L 315.65 646.55 324.6 648.35 167.85 654.2 167.8 653.65 315.65 646.15
M 182.05 673.3
L 176.7 672 327.7 664.15 327.3 663.95 328 664.1 327.7 664.15 330.45 665.3 182.05 674.55 182.05 673.3
M 749.3 366.2
L 732.85 371.05 381.25 355.15 376.6 359.6 377.25 379.6 241.95 293.3 239.2 293.15 274.8 234.4 274.45 233.85 377.75 326 378.4 326 399.6 324.55 398.8 352.7 749.3 366.2
M 80.7 434.05
L 78 437.05 78.7 504.75 65.55 507.6
Q 61.9 508.4 58.55 509.25
L 51.5 510.9 51.55 511.2 65.85 509.15
Q 70.6 508.4 80.15 506.9
L 81.1 506.75 81.1 471.55
Q 81 465.9 80.95 463.05
L 80.3 437.85 86.65 430 70.15 436.15
Q 65.7 437.8 63.45 438.55
L 56.45 440.95 56.45 441.3
Q 56.45 445.3 56.3 449.35
L 55.6 473.5
Q 55.5 478.85 55.6 489.6 55.6 492.3 55.75 497.65 55.75 500.35 55.9 505.7
L 55.95 507 66.65 504.05
Q 69.8 503.1 76.1 501.25
L 76.05 500.95
Q 75 501.15 66.35 502.75
L 57.95 504.5
Q 58.05 500.05 58.05 497.65 58.2 492.3 58.2 489.6 58.3 478.85 58.2 473.5
L 57.5 449.35
Q 57.35 445.5 57.35 441.65
L 80.7 434.05
M 613.95 391.8
L 517.35 386.95 517.15 505.1 613.95 503.8 617.65 496.7 614.3 496.7 613.95 391.8
M 517.95 387.65
L 613.05 392.7 612.7 496.7 604.75 496.6 604 400.6 526.15 398.3 558.7 432.35 561.7 428.9 565.35 428.9 567.9 431.05 597 402.75 585.85 401.75 602.25 402.3 602.3 405.95 571.3 434.15 571.2 434.2 571.2 434.35 570.65 439.45 602.6 440.25 602.65 444.65 565 444.4 565.1 494.05 581.1 495.25 562.6 495.2 562.75 444.4 526.4 444.35 526.4 440.05 556.65 440.05 556.65 434.7 524.25 405.15 524.35 497.85 614.3 498.5 614.3 498.25 615.1 498.25 613.05 502.25 518.2 504.05 517.95 387.65
M 571.45 438.8
L 571.85 434.55 602.3 406.25 602.6 439.25 571.45 438.8
M 594.75 403.55
L 567.9 429.35 565.8 427.65 561.05 427.6 558.65 430.35 529.85 399.95 565.2 401.1 565.3 425.35 561.95 425.05 561.2 404.95 561 405 561.5 425.45 561.7 425.45 565.85 425.9 565.95 401.15 571.75 401.3 594.75 403.55
M 554.55 435.65
L 554.55 437.95 526.4 438 526.4 409.95 554.55 435.65
M 566.55 492.7
L 566.15 445.6 602.65 445.6 603.1 495.25 566.55 492.7
M 526.4 446.4
L 560.75 446.4 560.75 496.25 526.3 495.95 526.4 446.4 Z"/>
</g>
</defs>

<g transform="matrix( 1, 0, 0, 1, 0,0) ">
<use xlink:href="#Layer0_0_FILL"/>
</g>
</svg>
