
<svg xmlns="http://www.w3.org/2000/svg" version="1.1" xmlns:xlink="http://www.w3.org/1999/xlink" preserveAspectRatio="none" x="0px" y="0px" width="846px" height="694px" viewBox="0 0 846 694">
<defs>
<g id="Layer1_0_FILL">
<path fill="#FFFFFF" stroke="none" d="
M 657.75 287.3
L 655.75 251.65 656.9 251.65 657 248.85 648.15 247.75 627.4 124.95 627 103 628.15 102.95 633 93.95
Q 633.65 92.3 633.75 91.45 634 90.6 634 88.85
L 634 87.5 633.75 86.2 633 83.85
Q 632.55 82.6 631.95 81.6
L 630.75 79.45 629.25 77.45 624.55 72.2
Q 622.9 70.25 622.4 68.75
L 622.45 68.85 621.05 63.75 621.25 62.5 621.15 59.45 620.8 58.6 620.3 57.75 619.45 57.1 619 56.95 619 42.1 622.3 44.7 621.95 39.25 618.75 37.25
Q 618.75 32.65 618.5 26.9
L 618.2 16.65 626.4 10.2 626.3 3.95 618.45 9.75 617.95 1.15 617.9 0.75 617.55 0.65 617.55 0 612.8 0 612.8 3.05 612.9 3.25 613.25 12.9 605.25 19.75 605.05 19.8 605.05 21.8 605 22.15 608.45 22.25 608.5 22.15 614.55 18.4 615.15 35.75 610.75 33.45 610.65 38.25 611.05 38.5 615.5 40.25 616.3 57 615.8 57.1
Q 614.75 57.75 613.95 59 613.6 59.75 613.5 60.35
L 613.7 61.5 613.7 61.7 613.75 61.75 614.05 62.75 614.65 63.7 615.3 64.45 615.25 64.5
Q 614.5 67.2 613.5 69.35
L 613.25 69.85 605.7 80.1
Q 604.8 81.8 604.5 82.7
L 604 84.1 603.75 85.45
Q 603.5 86.45 603.5 86.85
L 603.4 89.7 603.5 91.2
Q 603.75 92.95 604.15 93.95 605.1 96.8 606.8 99 607.8 100.25 608.7 101.2
L 610.3 102.7 609.75 139.65 605.3 251.7 601.15 254.6 392.45 235 266.75 224.25 265.25 222.95 266.2 224.55 266.25 224.6 230.35 292.65 40.45 280.65 0 415.15 23.35 415.25 23.95 575.5 13.55 576.75 13.3 576.75 12.85 640.45 182 694.5 182 692 242.15 683
Q 248 682.1 252.4 681.7 256.6 681.2 262.7 680.7 274.25 679.65 303.85 677.7 317.55 676.85 324.5 676.5
L 345.35 675.75 345.25 658 367.75 658.05 367.85 657 413.7 660.95 413.85 660.95 580.7 635.45 611.75 631.95
Q 624.95 630.55 633.8 629.75
L 700.25 624.45 767.3 620.1 767.4 605.5 836.2 603.8 836.2 599 846.25 597 846.25 563.1 843.65 563.1 830.7 559.5 823.55 418.4 825.5 418.3 829.8 416 817.05 393 821.75 393 756.7 354.5 756.7 348.5 780.75 348.4 657.75 287.3 Z"/>
</g>

<g id="Layer0_0_MEMBER_0_MEMBER_0_MEMBER_0_FILL">
<path fill="#522810" stroke="none" d="
M 657.75 287.3
L 655.75 251.65 656.9 251.65 657 248.85 648.15 247.75 627.4 124.95 627 103 628.15 102.95 633 93.95
Q 633.65 92.3 633.75 91.45 634 90.6 634 88.85
L 634 87.5 633.75 86.2 633 83.85
Q 632.55 82.6 631.95 81.6
L 630.75 79.45 629.25 77.45 624.55 72.2
Q 622.9 70.25 622.4 68.75
L 622.45 68.85 621.05 63.75 621.25 62.5 621.15 59.45 620.8 58.6 620.3 57.75 619.45 57.1 619 56.95 619 42.1 622.3 44.7 621.95 39.25 618.75 37.25
Q 618.75 32.65 618.5 26.9
L 618.2 16.65 626.4 10.2 626.3 3.95 618.45 9.75 617.95 1.15 617.9 0.75 617.55 0.65 616 0 613 2.95 612.8 3.05 612.9 3.25 613.25 12.9 605.25 19.75 605.05 19.8 605.05 21.8 605 22.15 608.45 22.25 608.5 22.15 614.55 18.4 615.15 35.75 610.75 33.45 610.65 38.25 611.05 38.5 615.5 40.25 616.3 57 615.8 57.1
Q 614.75 57.75 613.95 59 613.6 59.75 613.5 60.35
L 613.7 61.5 613.7 61.7 613.75 61.75 614.05 62.75 614.65 63.7 615.3 64.45 615.25 64.5
Q 614.5 67.2 613.5 69.35
L 613.25 69.85 605.7 80.1
Q 604.8 81.8 604.5 82.7
L 604 84.1 603.75 85.45
Q 603.5 86.45 603.5 86.85
L 603.4 89.7 603.5 91.2
Q 603.75 92.95 604.15 93.95 605.1 96.8 606.8 99 607.8 100.25 608.7 101.2
L 610.3 102.7 609.75 139.65 605.3 251.7 601.15 254.6 392.45 235 266.75 224.25 265.25 222.95 266.25 224.6 230.35 292.65 40.45 280.65 0 415.15 23.75 415.25 57.5 303 159 393.65 158.8 573.85 100.8 573.95 122.3 567.25 127 372.15 23.35 419 23.95 575.5 13.55 576.75 13.3 576.75 12.85 640.45 182 694.5 182 692 242.15 683
Q 248 682.1 252.4 681.7 256.6 681.2 262.7 680.7 274.25 679.65 303.85 677.7 317.55 676.85 324.5 676.5
L 345.35 675.75 345.25 667.8 345 667.8 344.95 675.35 303.85 676.55
Q 280.25 677.65 262.5 679
L 252.25 679.85
Q 248.05 680.3 241.9 681.1
L 182 689.5 182.05 677.2 344.2 667.6 328.5 661.05 328.2 660.95 169.3 670.1 168.05 656.35 328.7 649.2 331.1 649.7 331.1 658 367.75 658.05 367.85 657 413.7 660.95 413.85 660.95 580.7 635.45 611.75 631.95
Q 624.95 630.55 633.8 629.75
L 700.25 624.45 767.3 620.1 767.75 565.55 831.05 565.5 830.95 599.1 770.25 602.25 770.3 605.5 836.2 603.8 836.2 599 846.25 597 843.65 563.1 830.7 559.5 823.4 415.25 825.5 418.3 829.8 416 817.05 393 821.75 393 756.7 354.5 754.75 348.5 780.75 348.4 657.75 287.3
M 654.75 251.65
L 656 285.75 617.2 265.4 617 251.75 634.7 251.7 634.95 257.65 635 257.9 636.8 257.9 637 258 636.7 251.9 636.4 251.9 636.65 257.5 635.4 257.4 635.25 251.7 654.75 251.65
M 752.15 366.3
L 755.2 366.4 755.2 356 816.25 391.5 735.4 391.75 735.9 371.4 752.15 366.3
M 734.9 371.5
L 734.3 392.25 733.25 392.3 737.5 499.8 739.4 565.2
Q 730.25 565.35 695.65 566.25
L 627.9 568 537.5 568.95
Q 530.65 568.95 514.95 569.2
L 492.35 569.5 379.5 572.7 381 415.9 434.5 416.15 434.25 416 434.75 416 380.2 381.15 379.5 360.75 382.25 358.05 732.95 372 734.9 371.5
M 749.25 366.25
L 732.8 371.05 381.25 355.15 376.6 359.65 377.25 379.65 241.9 293.3 239.15 293.15 274.75 234.4 274.45 233.9 377.75 326 378.35 326 399.6 324.55 398.75 352.75 749.25 366.25
M 736.45 392.75
L 816.75 393 829 415.75 825.75 417.4 809.5 393.65 817.75 563 743.65 562.75 739.65 477.5 736.45 392.75
M 810.75 397.25
L 823.05 414.75 828.05 561.55 832.7 562.85 820.2 563 810.75 397.25
M 833.65 563.2
L 841 565.25 843 594.55 833.75 596.35 833.65 563.2
M 618.5 59.85
L 619.5 60 620 60.2 620.45 60.45 620.7 60.75
Q 620.9 61.15 620.9 61.35
L 620.95 61.55 620.95 61.8 620.75 62.45 620.45 62.75 620 63.05 618.05 63.55 615.75 63.55
Q 615.55 63.45 615.45 63.2 615.2 62.85 615.2 62.35
L 615.2 62 615.25 61.75 615.5 61.25
Q 615.65 60.95 615.75 60.95
L 616.15 60.5
Q 616.5 60.15 617.05 60
L 618 59.85 618.5 59.85
M 377.35 382.5
L 377.35 382.75 424.1 412.8 174.6 397.5 41.65 281.65 241.35 294.9 377.35 382.5
M 267.35 226.2
L 272.5 234.45 238.85 293.15 230.75 292.65 267.35 226.2
M 173.75 438.8
L 176.85 436.65 194.85 436.15 195.25 615.05 201.05 623.35 201.6 429.65 256.25 431.3 253.4 609.25 201.8 624.75 195.3 617.3 195.1 617.1 174 617.5 174.6 578.55 172.05 578.55 173.75 438.8
M 266 579
L 290.25 578.25 290 626 147.15 631.75 140.1 631.1 138.8 579.95 173.05 580.1 172.85 618.7 173.4 618.6 194.65 618.25 201.4 625.85 254.35 610 254.35 609.75 265.25 609.85 266 579
M 121.8 566.85
L 99.55 573.95 27 574 26 420.75 124.8 375.5 121.8 566.85
M 160.75 632.95
L 150.4 632 290.2 627.85 303.1 629.8 160.75 632.95
M 161.65 651.75
L 161.3 635.3 315.7 631.95 315.6 645.25 161.65 651.75
M 315.6 646.2
L 315.6 646.55 324.6 648.35 167.85 654.25 167.8 653.7 315.6 646.2
M 657.75 288.4
L 657.75 287.65 769.95 345.8 754 345.75 753 342.75 753 345.75 618.15 339
Q 609.65 338.65 595.65 337.75
L 416.35 326.75 400.45 321.4 400.1 321.4 378.85 322.75 268.95 226.15 392.2 237.65 601.2 255.45 601.3 255.45 601.5 255.4 606.25 252.2 611.5 139.65 612.55 101.7 612.15 101.25
Q 611.55 100.8 610.25 99.6 609.45 98.8 608.7 97.7 607.15 95.55 606.3 93.25 606.05 92.4 605.8 90.85
L 605.9 87.1 606.05 85.95 606.75 83.5 607.8 81.25
Q 608.65 79.95 609.25 79.2 609.45 78.8 612.5 75.1
L 615.05 71.85 615.8 70.45
Q 616.65 68.9 617.5 66.2
L 618.95 66.2 619.75 69.6 619.8 69.6 619.8 69.7
Q 620.8 72.1 622.55 74 623.4 74.95 624.25 75.75
L 628.4 80.95 630.4 84.85 631 86.85 631.2 87.85 631.25 88.85
Q 631.25 89.95 631 90.85 630.95 91.55 630.45 92.75
L 626.45 100.1 615.2 100.6 615.25 103.6 622.9 103.95 624 104.2 624.05 104.25 624.25 125.35 624.3 125.45 645.3 248.95 616.4 249.25 615.9 249 615.05 248.9 614.55 248.95 611.8 249.65 611.7 249.65 611.65 249.7 611.2 249.95
Q 610.9 250.35 610.9 250.5 610.7 251 610.95 251.4 611.15 251.95 611.7 252.1
L 611.8 252.15 612.15 252.15 614.55 251.9 614.8 264.15 612 262.75 610.95 264.75 657.75 288.4
M 663 342.75
L 707.8 345.75
Q 720.3 346.5 730.3 347.15
L 753 348.5 752.95 364.05 400.35 351.3 400.75 324.75 415.5 329.55 415.7 329.65 595.55 338.75
Q 605.55 339.25 618.05 340
L 640.5 341.4
Q 648 341.8 663 342.75
M 740.9 567.85
L 742.25 567.85 742.25 565.6 765.95 565.55 766.25 619.05 633.7 628 578.25 633.25 457.5 652.1 413.7 659.5 413.6 659.5 367.85 656.75 369.6 578.45 379.5 573.75 379.5 573 492.45 572.2 605.3 569.35
Q 617.75 569.1 627.95 569
L 695.7 568.3
Q 705.7 568.25 740.9 567.85
M 624.5 7.6
L 624.45 9.35 616 15.6 616.3 24.9 615.75 16.05 608.2 21.4 605.8 21.4 605.75 20.15 613.8 13.25 614 13.15 613.8 3.5 616.25 1.3 616.75 1.55 616.9 12.85 624.5 7.6
M 617 38.35
L 617.4 38.5 620.25 40.3 620.4 41.25 617.4 39.1 618.5 56.75 618.3 56.75
Q 617.45 56.6 616.65 56.85
L 616.8 39.3 612.25 37.25 612.3 36.2 617 38.7 617 38.35
M 161.8 392.4
L 56.3 299.15 22.6 413.75 1.85 413.75 41.15 281.65 173.6 399.05 173.8 399.3 381.35 412.75 377.85 412.75 376.5 571.85 366.7 576.5 365.25 655.5 333.5 655.55 333.5 647.75 317.95 644.75 317.85 629.75 316.95 629.6 316.95 629.55 316.75 629.55 316.75 629.5 316.6 629.5 292.2 626 291.85 576.55 259.6 578 259.7 579.2 264.85 579 264.75 609.3 254.35 609.5 258.5 429.15 198.9 426.9 198.1 518.1 197.15 433.65 176.1 434.5 175.85 434.65 171.6 437.75 171.75 578.55 136.8 578 137.65 633.35 158.8 635.3 159.1 654 165.35 655.25 166.8 672.45 167 672.5 167.15 672.5 179.35 675.5 179.35 691.05 14.3 639.3 13.85 577.25 23.95 575.85 23.95 577 162 577.05 161.8 392.4
M 182.05 673.3
L 176.65 672 327.7 664.2 330.45 665.3 182.05 674.55 182.05 673.3
M 57.3 441.65
L 80.65 434.05 78 437.05 78.65 504.75 65.55 507.65
Q 62.5 508.3 58.5 509.25
L 51.5 510.9 51.5 511.25 81.05 506.75 80.9 463.05 80.3 437.9 86.65 430 56.45 441 56.45 441.3
Q 56.45 443.9 56.25 449.4
L 55.55 473.5
Q 55.5 478.9 55.55 489.65 55.55 492.9 55.75 497.65 55.75 502.15 55.9 505.75
L 55.95 507 76.05 501.25 76.05 501 57.95 504.5 58.2 489.65
Q 58.3 478.9 58.2 473.5
L 57.5 449.4
Q 57.3 445.95 57.3 441.65
M 613.95 391.8
L 517.3 387 517.15 505.15 613.95 503.8 617.65 496.75 614.25 496.75 613.95 391.8
M 517.95 387.65
L 613 392.75 612.7 496.75 604.75 496.65 604 400.65 526.15 398.3 558.7 432.4 561.7 428.9 565.3 428.9 567.9 431.05 597 402.75 585.8 401.75 602.25 402.3 602.25 406 571.25 434.15 571.2 434.25 571.2 434.4 570.65 439.5 602.55 440.25 602.65 444.65 565 444.4 565.05 494.05 581.05 495.25 562.55 495.25 562.75 444.4 526.4 444.4 526.4 440.05 556.65 440.05 556.65 434.75 524.25 405.15 524.3 497.9 614.25 498.5 614.25 498.25 615.05 498.25 613 502.25 518.2 504.05 517.95 387.65
M 571.45 438.8
L 571.8 434.55 602.25 406.25 602.55 439.25 571.45 438.8
M 594.75 403.55
L 567.9 429.4 565.75 427.65 561 427.65 558.65 430.4 529.8 400 565.2 401.15 565.25 425.4 561.95 425.05 561.2 405 561 405 561.5 425.5 561.7 425.5 565.8 425.9 565.95 401.15 571.75 401.3 594.75 403.55
M 554.5 435.65
L 554.5 438 526.4 438 526.4 410 554.5 435.65
M 566.5 492.75
L 566.15 445.65 602.65 445.65 603.05 495.25 566.5 492.75
M 526.4 446.4
L 560.75 446.4 560.75 496.25 526.25 496 526.4 446.4 Z"/>
</g>
</defs>

<g transform="matrix( 1, 0, 0, 1, 0,0) ">
<use xlink:href="#Layer1_0_FILL"/>
</g>

<g transform="matrix( 1, 0, 0, 1, 0,0) ">
<use xlink:href="#Layer0_0_MEMBER_0_MEMBER_0_MEMBER_0_FILL"/>
</g>
</svg>
