
<svg xmlns="http://www.w3.org/2000/svg" version="1.1" xmlns:xlink="http://www.w3.org/1999/xlink" preserveAspectRatio="none" x="0px" y="0px" width="1111px" height="829px" viewBox="0 0 1111 829">
<defs>
<g id="Layer1_0_FILL">
<path fill="#FFFFFF" stroke="none" d="
M 731 96.75
L 730.95 96.7 727.9 92.2 727.65 103.45 722.45 95.7 722.5 102 722.65 102.2 727.65 110.2 727.65 123.25 724.45 120.35 724.05 123.95 724.05 124 727.3 129.6 727.05 142.35
Q 726.15 142.85 725.5 143.9 725.15 144.5 725.15 145.1
L 725.15 146.15
Q 725.5 147.45 726 148.15 726.95 149.35 727.45 149.65
L 727.75 149.9 727.25 156.25
Q 727.05 160 726.65 163 726.15 167.2 725.7 169.75 724.85 174.25 724.25 176.35 723.1 180.3 722 182.6
L 721.2 184.1 719.8 186 718.15 187.7
Q 716.3 189.35 712.75 191.65
L 707 195.45
Q 704.3 197.3 701.65 199.95 700.95 200.65 699.25 202.65
L 698.25 204.15
Q 697.65 204.9 697.25 205.65 695.55 208.8 694.75 212.35
L 693.75 219.2 693.8 221.15 694.15 223
Q 694.4 224.6 695.45 226.6 696.95 229.5 700.25 232.1 702.25 233.8 705.75 236.15 707.3 237.35 707.8 238.15 708.35 238.9 707.8 240.1
L 707 241.9 713.7 242.35 713.9 252.85 711.8 253.25 710 253.85
Q 709.9 253.85 708.05 254.5
L 705.4 256.05 704.55 256.8 703.8 257.65 703.25 258.75
Q 702.95 259.35 702.95 260
L 702.95 260.65 703 261.05 703 262.55 687.8 265.75
Q 686.75 266 682.55 267.4
L 677.45 269.4
Q 675 270.45 672.4 271.75 671.75 271.95 669.95 273 669 273.4 667.5 274.25
L 658.2 280.15
Q 657.8 280.45 653.75 283.5
L 649.5 287
Q 647.25 288.9 645.5 290.75
L 638.05 298.9
Q 636.05 301.45 634.75 303.25 632.7 306.05 631.75 307.75
L 621.75 309.55 621.2 308.8 620.2 309.55
Q 615.4 321.2 603.8 349.8
L 604.15 351.4 612.45 349.65 612.75 377.9 613.7 380.35 605.75 385.9
Q 600.35 389.25 596.25 392 593.5 393.85 591.75 395.5 590.7 396.4 589.75 397.65
L 589.05 399.05 588.75 399.9 588.65 400.5
Q 587.9 403.7 589.25 406.4 590.3 408.85 593.2 410.9 594.45 411.75 596 412.5
L 601.55 416.25 603.25 417 603.2 428.75 606.05 431.4 606.9 522.7 606.95 522.75 605.5 523.6 605.4 523.75 605.25 523.85 604.65 524.5
Q 602.85 526.3 602.25 528.95 601.85 530.85 602.15 533.1
L 560.8 548.45 560.95 561.55 546 569.1 472.6 574.8 471.5 562.35
Q 471.25 560.85 470.35 558.85 469.65 557.3 468.5 555.8 467.45 554.6 466 553.25
L 463.5 551
Q 462.15 549.75 461.5 548.55
L 461.45 548.5 461.1 547.95 460.85 547.25 459.7 542.45
Q 458.4 536.35 457.5 529.1
L 457.45 528.6 457.95 527.7 458.1 526.6 458.1 526 458.2 525.75 458.1 525.5 458.1 524.45 457.95 523.8 457.7 523.2 457.2 522.5
Q 456.45 522 456.35 522
L 456.25 521.95 456.1 515.75 456.2 515.75 457.7 516.75 457.95 514.1 456 512.1 456.25 505.15 459 509.05 458.85 505.05 458.75 505 456.35 501.5
Q 456.35 497.3 456.5 495.15
L 456.5 495.05 454.2 491.65 453.85 498 450.7 493.4 450.75 497.4 453.6 501.8 454 510.4 452 508.5 451.75 510.8 451.75 511 451.85 511.15 454 513.25 453.75 521.85 453.35 522
Q 452.25 522.6 451.75 523.55 451.35 524.45 451.35 524.7
L 451.35 525.7
Q 451.75 526.85 452.2 527.6
L 453 528.55 452 540.8 451.35 544.55
Q 450.75 547.05 450.25 548.2 450 549.05 449.5 549.75
L 444.25 558.05 442.75 561.8 442.25 565.85 442.35 568 442.75 570.05 443.5 572 444.6 573.8
Q 444.75 574.1 445.25 574.6 445.5 575 445.95 575.45
L 447.6 576.75 448.5 577.25 448.55 577.85 342.35 586.05 341.45 586.05 341.35 570.75 339.55 570.6 339.55 570.15 341.45 570.1 341.45 566.5 335.6 564.3 335.2 555.3 330.1 554.5 334.1 553.7 334.25 553.6
Q 335.45 553.05 336.6 552 337.25 551.4 338.35 550
L 339 548.8
Q 339.15 548.7 339.6 547.7
L 341.1 542.7 341.35 540.05 341.25 536.2 340.45 533.6 338.6 530.25 335.5 526.2 332 522.5
Q 330 520.65 328.5 519.45
L 326.7 499.05 327.1 498.75 327.6 498.05 327.95 497.4 328.1 496.75 328.1 496.25
Q 328.2 496.05 328.2 495.55
L 328.25 495.4 328.2 495.15
Q 328.2 494.7 328.1 494.5
L 328.1 493.9 327.95 493.3 327.7 492.65 327.1 492
Q 326.8 491.7 326.35 491.4
L 325.85 491.25 326 484.9 327.35 486.25 327.85 481.5 325.85 478.9 325.75 474.85 329.35 474.75 329.2 470.8 329.1 470.75 326.1 466.65 326.2 459.15 323.6 455.75 323.35 463.05 319.35 457.75 319.45 462.8 323.25 468.3 323.3 474.9 320.95 475 320.6 477.5 320.6 477.65 322.95 481.5 322.6 491.3 323.45 491.4 323.1 491.5
Q 322.1 492 321.45 493.05
L 321 494.25
Q 321 494.9 321.1 495.3 321.25 496.25 321.95 497.3 322.2 497.75 322.7 498.25
L 320.1 519.95 319.35 521.45
Q 318.7 522.2 316.6 524
L 313.75 526.75
Q 312.7 527.75 311.2 529.75
L 309.35 533.35
Q 308.7 535.35 308.5 537.25
L 308.35 541.25
Q 308.6 545.9 310.5 548.85 311.55 550.55 313.1 551.8
L 314.65 552.9 315.6 554.2 315.7 563.75 315.25 565.25 314.75 566.25 314.25 566.85 314 567.1 313.45 567.55
Q 312.95 567.85 312.75 567.85
L 312 568 311.75 568 311.85 583.6 311.6 584.1 277.5 569.1 245.85 592.35 242.35 592.7 241.5 584.75 236.65 580.95 234.65 435.65 240.85 432.9 242.75 428 210.05 411.9 209.1 274.15 210.5 268.75 207.5 265 207.8 256.4 215.4 251.9 216 252.15 215.75 251.75 216.5 251.25 186.9 205.9 186.85 205.75 183.85 202.7 181.3 192.95 177.4 183.15
Q 173.45 174.55 166.35 165.4
L 163 161.4
Q 159.75 157.95 159.35 157.6 158.1 156.2 155.6 153.9
L 151.75 150.45
Q 148.15 147.4 143.4 144.1 142.15 143.15 139.1 141.2
L 135.25 138.95 134.75 132.65 135.5 132.15 136.15 131.4
Q 136.55 131.1 136.85 130.7
L 137.4 129.9 137.85 128.9
Q 138 128.7 138.1 127.85 138.25 127.5 138.25 126.7
L 138.1 125.6 137.3 123.7 136.75 122.95
Q 136.5 122.5 135.5 121.45
L 134.65 120.75 132.5 44.25 133.05 44 133.85 43.2
Q 134.2 42.65 134.35 42.05
L 134.55 41.35 134.6 41.25 134.55 39.55 134.35 38.75 133.6 37.25
Q 133.1 36.45 132.6 36 132.35 35.65 131.5 35
L 130.9 34.6 131.1 13.15 135 16.15 135.35 11.9 134.9 11.5 130.05 6.25 130.55 0.25 130.55 0 122.5 0 122.5 4.45 127.4 9.2 127.15 35.8 123.05 39.95 127.65 44
Q 126.8 66.1 125.5 89.85 124.65 104.05 123.8 112.95 123.55 115.5 123.15 118.6
L 122.9 119.5 122.25 119.75
Q 120.65 120.45 119.4 121.7 118.3 122.9 117.9 124.85
L 117.8 125.7 117.8 127.35 118.05 128.25
Q 118.5 130.1 120 131.2 120.75 131.8 121.5 132.15
L 122.15 132.4 121.55 140.7 119.25 141.6
Q 116.45 142.7 116.3 142.75
L 110.55 145.5
Q 110.05 145.75 105.05 148.75
L 99.8 152.4
Q 89.65 160.35 82.65 171.15 81.4 172.95 79.3 176.5 77.65 179.45 76.4 182.15
L 71.65 193.95
Q 70.4 197.75 69.8 200
L 68.3 206.2
Q 67.55 210 67.25 212.45 66.7 216.45 66.55 218.4
L 39.5 244.75 47.15 244.75 46.25 408.9 27 413.4 26.85 413.4 11.85 420.75 19.1 433.75 20.25 452 21.1 580.3 17 582.35 11.3 597 7.25 598.2 6.75 598.25 8.75 607.05 11.25 608.5 12 650.5 9.1 651.5 8.8 660.25 0 662.2 6.9 673.45 6.9 673.5 7.05 673.5 9.4 674.85 9.5 689.75 11.05 689.75 11.05 809.1 80.4 815.5 81.5 822.25 178.9 827.45 394.35 829.2 394.35 828.2 400 823.8 464.5 821.5 464.5 827.6 678.95 823.2 679 822.05 693.4 821.5 866.75 819.75 873.95 809.35 875.55 807.6
Q 888.75 807.75 915.15 807.75
L 975.9 807.1
Q 985.1 806.85 986 806.75 990.1 806.55 991.05 806.5
L 1001.2 805.6
Q 1003.15 805.4 1006.2 804.8 1007.95 804.55 1011.2 803.75
L 1016.15 802.45
Q 1022 800.35 1025.3 797.95 1028 795.7 1028.9 794.05 1029.3 793.4 1029.5 792.8
L 1029.9 791.55
Q 1030.1 790.45 1030.05 789.5
L 1039.55 789.75
Q 1040.5 789.85 1049.65 790
L 1080.05 789.25 1085.05 788.8
Q 1088.1 788.6 1090.15 788.25
L 1102.55 785.85
Q 1104.6 785.25 1105.05 785
L 1107.4 783.95
Q 1107.9 783.55 1108.5 783.25
L 1109.4 782 1109 765.1 1109.15 765 1109 764.8 1104.8 605.05 1105.65 605.05 1107.4 605.35
Q 1108.7943359375 605.603515625 1109.85 605 1110.0640625 604.889453125 1110.25 604.75 1111.45 603.95 1111.8 602.45
L 1111.9 602.45 1111.9 600.95 1111.8 600.95
Q 1111.75 600.35 1111.15 599.6 1110.25 598.75 1108.9 598.05 1107.6 597.45 1105.3 596.75
L 1089.55 587
Q 1083.6 583.1 1080.8 581.1
L 1072.15 575 1042.8 552.5 1033.55 547.25
Q 1032.6 546.7 1031.15 546.2
L 1023.7 543.25 1010.75 540.2
Q 1008.5 539.75 1008.05 539.75
L 997.5 539.05
Q 994.3 538.95 992.2 539
L 986.9 539.05
Q 982.35 539.2 976.25 539.7 971 540 965.75 540.75
L 965.4 540.75 965.25 539.05 965.2 510 968.65 506.5 956 494.05 955.55 482
Q 957.65 480.95 959.75 479 961.75 477.05 963.25 474.55
L 964.5 472.15 965.45 469.5
Q 966 467.15 966.05 466.75
L 966.3 465.4 966.65 461.25 966.3 458.4
Q 965.8 455.85 964.25 453.15 961.85 449.15 956.9 445 955.5 443.75 952.65 441.55 949.5 439.1 948.5 438.15 947.35 437.15 946.7 436.3
L 945.8 435.15 945.75 435.15 945.75 435.05 945.5 434.25
Q 945 432.75 944.15 429.15
L 940.5 408.65 941.2 408.15
Q 941.95 407.8 942.5 406.9
L 942.75 406.4 942.8 406.25 942.8 406.15 942.9 406.05 943 405.3
Q 943.15 404.55 943 403.65 943 403.1 942.65 402.05 942.3 401.35 941.7 400.65 941.05 400.05 940.5 399.75
L 940.5 392.65 942 394.25 942.45 389.15 940.4 386.05 940.25 381.3 943.95 381.15 943.75 376.75 943.7 376.65 940.5 371.9 940.5 363.15 937.95 359.4 937.7 367.9 933.55 361.9 933.7 367.5 933.75 367.65 937.7 373.8 937.75 381.4 935.25 381.55 935 384.5 935 384.75 937.45 389 937.25 399.4
Q 937.05 399.4 936.95 399.5 936.3 399.65 935.45 400.4
L 934.9 401 934.05 402.5 933.8 404.25 933.9 404.9 933.9 405 933.95 405.05 933.95 405.25 934.3 406.55
Q 934.7 407.5 935.2 408
L 935.8 408.65 936.05 408.8
Q 936.3 412.95 936.2 419 936.15 421.6 935.9 424.3 935.6 427.85 935.3 429.55 935 431.95 934.25 434.65
L 933.7 436.25 933.3 436.9
Q 932.75 437.65 931.55 438.65
L 927.5 442.15
Q 924.85 444.45 923.5 445.9 919.1 450.45 917.25 455.15 916.15 458.1 915.95 460.75 915.8 462.45 915.9 463.5 915.9 464.0150390625 915.95 464.65
L 912 465.3 910.65 464.3 909 462.55 908.9 460.05 907.25 460.05 907.2 460.75 905.25 459 905 461.3 905 461.5 907.05 462.9 907.25 465.65
Q 907.1 466.35 907 467.75
L 906.7 471.8 906.3 471.9
Q 905.25 472.6 904.55 473.55 904.25 474.4 904.25 474.75
L 904.25 475.9
Q 904.4 476.6 905.05 477.9 905.8 478.85 906.4 479.3
L 905.65 495.4 905 499.65
Q 904.65 501.6 904 503.75
L 902.9 506.5 902.8 506.55 902.25 507.5
Q 901.45 508.55 899.25 510.5
L 896 513.5
Q 894.1 515.4 893.05 516.85 892.55 517.6 891.95 518.8
L 891.05 521 890.55 523.25 890.4 525.45 883.25 525.45 883.25 523.35
Q 882.8 521.4 881 519.25 879.65 517.5 877.65 516 875.3333984375 514.2712890625 872.3 512.9
L 873.9 509.05 873.2 398 873.7 398
Q 875.6 398.75 878.8 397.8 881.55 397.15 883.5 395.75 884.35 395.1 885.4 393.9 886.3 392.4 886.45 391.4 887 389.1 885.7 386.25 884.7 384.3 882.55 382.15 881.1 380.7 878.55 379 877.6 378.35 874.25 376.55 867.7408203125 373.4484375 858 371.15
L 858.25 369.9 858.75 338.15 858.55 337.95 860.5 336 863.55 335.9 863.65 305.5 862 305.4 862 305.25 861.5 305.3 841.25 304 838.4 299.5
Q 837.25 297.95 834.5 294.75 831.1 291 830.25 290.3
L 825.65 286.25
Q 822.65 283.95 820.75 282.65
L 810.3 276.4
Q 809 275.65 807.55 275
L 799.25 271.3
Q 795.95 269.95 793.65 269.15
L 782 265.55
Q 775.85 263.9 770.25 262.9
L 759.45 261.15 759.4 259.75
Q 759.4 259.5 759.2 258.4
L 758.95 257.5 758.95 257.4 758.9 257.3 758.9 257.25 758.8 257.15
Q 758.2 255.9 758.05 255.85 757.7 255.3 757.05 254.85
L 756 254 754.95 253.4 750.4 251.6
Q 749.25 251.2 748.05 250.9
L 746.55 250.6 746.25 241.4 755.9 242.65 756.75 242.6 756.9 242.5 757.2 242.2
Q 757.2 242.05 757 241.85
L 756.95 241.7 756.5 241.45 752.25 239.95 751.9 239.4
Q 750.9 238.1 751.2 236.9 751.2451171875 236.5837890625 751.7 236
L 753.05 235.2
Q 756.25 233.8 758.55 230.9 760.65 228.5 761.8 224.75 762.15 223.8 762.55 221.4 762.75 219.4 762.75 217.95 762.8 214.8 762.05 211.15 761.2 207.7 759.55 204.85 757.85 201.75 755.5 199.4 752.8 196.7 750.4 194.9 748.5 193.4 744.9 190.95 741.45 188.65 739.5 187.1 738.05 185.9 737.05 184.85
L 736.05 183.5 735.4 182.15
Q 734.85 180.8 733.7 175.7 732.95 172.1 731.65 162.5 731.2400390625 159.4486328125 730.45 151.7
L 731.25 149.65 731.8 148.9 732.15 148.2 732.3 147.15
Q 732.4 146.85 732.4 146.4
L 732.45 146.2 732.45 146.15 732.4 145.95
Q 732.4 145.45 732.3 145.25
L 732.15 144.15 731.8 143.4 731.3 142.7 730.75 142.35 730.75 133.65 732.75 135.75 733.25 129.9 730.65 126.2 730.3 114.7 735.25 119.25 735.05 113.95 735 113.85 731 107.75 731 96.75 Z"/>
</g>

<g id="Layer0_0_MEMBER_0_MEMBER_0_MEMBER_0_FILL">
<path fill="#522810" stroke="none" d="
M 625.25 435.4
L 624 435.9
Q 622.9 436.45 621.8 437.4 620.05 439.05 618.8 441.65 617.9 443.85 617.3 446.3 616.5 450.35 616.4 456
L 617.05 475.05
Q 617.6 487.95 617.95 494.05
L 619 513.05 619.25 513.05 619.15 494
Q 619.05 483.45 618.8 475
L 618.5 456
Q 618.65 450.35 619.45 446.75 620.65 441.25 623.25 438.9 624.15 438.05 624.95 437.75
L 625.8 437.3 626.8 437.05
Q 628.75 436.9 630 438.65 631.25 440.45 631.8 442.65 632.4 444.6 632.9 447.15 633.3 450.5 633.3 451.8
L 634.45 485.05
Q 634.75 501.65 634.75 503.8
L 623.75 506.8 623.5 482.25 622.65 456.9 623.05 453.3 624.15 449.8 625.25 447.75 626 446.8
Q 626.75 446.2 626.95 446.15 627.35 446 627.75 446.25 628.1 446.5 628.4 447.15 628.75 448.2 629 449.5
L 629.25 452 629.5 452 629.4 449.5
Q 629.3 448.05 628.9 447 628.6 446.2 628.2 445.8
L 627.5 445.4
Q 627 445.4 626.7 445.5 626.15 445.7 625.5 446.25
L 623.9 448.25 622.3 451.8 621.5 455.55 621.4 456.9
Q 621.4 465.4 621.7 482.25
L 622.55 508.4 635.5 504.4 635.5 504.15
Q 635.2 493.9 635.15 485.05
L 635 451.75
Q 635 450.25 634.65 446.9 634.25 444.3 633.65 442.15 632.85 439.3 631.5 437.5 630.75 436.3 629.5 435.65 628.2 434.95 626.55 435.15
L 625.25 435.4
M 704.45 426
Q 704.75 425.9 705.25 425.9
L 707.75 426 709.45 426.25
Q 710.3 426.35 711 426.65 711.4 426.7 712.65 427.15
L 714.05 427.9
Q 714.2 427.9 715.5 428.75 718.1 430.7 719.75 433.9 721.15 436.65 721.65 440.25 721.9 442 721.9 447
L 721.5 494 697.5 493.5 697.5 443.55
Q 697.5 442.95 697.7 441.75 697.9 439.75 698.9 438.25 700.7 434.95 704.75 434.3
L 707.5 434.05 708.5 434.15 710.25 434.55
Q 711.05 434.8 711.8 435.4 714.5 437.35 715 441.9
L 716.25 490.65 716.45 490.65 716.7 441.75
Q 716.35 439.25 715.65 437.5 714.7 435.5 712.95 434 711.95 433.3 710.95 432.9
L 708.75 432.3 705.5 432.25 704.45 432.4
Q 702.15 432.8 700.25 434 698.5 434.95 697.2 437.25 696.1 439.1 695.7 441.4 695.5 442.65 695.5 443.55
L 695.55 495.4 723.05 495.55 722.5 447
Q 722.5 441.65 722.25 440.15 721.7 436.35 720.25 433.55 718.75 430.35 715.95 428.15
L 712.9 426.4
Q 710.1 425.55 709.5 425.5
L 707.8 425.15 704.4 425
Q 703.2 425 702.65 425.15 698.85 425.45 695.95 427 692.65 428.7 690.65 431.75 688.75 434.5 687.9 438.25 687 442.1 687.25 445.25
L 687.45 499.5 722.25 498.9 722.25 498.75 688.75 498.15 688.95 445.05
Q 688.65 441.8 689.4 438.5 690.15 435.05 691.75 432.5 693.4 429.85 696.5 428 698.95 426.6 702.75 426.05
L 704.45 426
M 940.5 363.15
L 937.95 359.4 937.7 367.9 933.55 361.9 933.7 367.5 933.75 367.65 937.7 373.8 937.8 383.9 935.25 381.55 935 384.5 935 384.75 937.45 389 937.25 399.4
Q 937.05 399.4 936.95 399.5 936.3 399.65 935.45 400.4
L 934.9 401 934.05 402.5 933.8 404.25 933.9 404.9 933.9 405 933.95 405.05 933.95 405.25 934.3 406.55
Q 934.7 407.5 935.2 408
L 935.8 408.65 936.05 408.8
Q 936.3 412.95 936.2 419 936.15 421.6 935.9 424.3 935.6 427.85 935.3 429.55 935 431.95 934.25 434.65
L 933.7 436.25 933.3 436.9
Q 932.75 437.65 931.55 438.65
L 927.5 442.15
Q 924.85 444.45 923.5 445.9 919.1 450.45 917.25 455.15 916.15 458.1 915.95 460.75 915.8 462.45 915.9 463.5 915.9 464.65 916.25 466.4 916.6 468.25 916.95 469.15
L 918 471.75
Q 919.1 474.05 921 476.5 922.6 478.55 925 480.4 926.8 481.95 929.15 483.25
L 929 493.4 928.8 495 928.15 497.4 926.95 499.65 926 501.05 924.8 502.4
Q 924.15 503.2 922.4 504.8
L 921 505.9 916.45 508.8 925.75 508.8 927 543.2 927.5 544.35
Q 928.6 546.1 931.25 548.45 933.2 549.95 935.7 551.45 938.5 552.9 940.5 553.6 943.1 554.5 945.7 554.95 948.25 555.3 951.05 555.2 953.4 554.85 953.75 554.75 954.45 554.65 956.4 554 959 552.8 961 551 962.8 549.35 964.45 546.8 965.8 544.55 966.5 542.5 972.9 541.75 976.45 541.5 979.95 541.15 986.95 540.85
L 1002.7 541 1007.9 541.45
Q 1008.8 541.45 1010.5 541.75
L 1013.05 542.25
Q 1013.75 542.3 1018.2 543.3
L 1020.75 544
Q 1021 544.05 1023.2 544.75
L 1028.15 546.5 1037.55 551 1042.05 553.7
Q 1045.3 555.9 1046.3 556.75
L 1080.15 582
Q 1083.7 584.55 1089.05 587.85 1091.6 589.55 1098 593.45
L 1102.15 596 1098.9 595.3
Q 1091 594.1 1078.3 593.35 1066.95 592.8 1057.8 592.75 1046.95 592.55 1037.15 592.7 1019.55 592.7 996 593.45 972.75 594.15 955 595.05
L 940.2 594.35 931.3 594.6
Q 930.2 594.6 928.4 594.75
L 925.45 595
Q 923.05 595.1 919.5 595.5
L 918.55 595.55 920.75 594.2 922.7 592.1 923.45 590.95 924.4 588.2
Q 924.5 587.7 924.5 586.75
L 924 560 928.7 559.7 924.5 557.55 923.25 556.75 921.5 555.3 920 553.7 919.15 552.5 918.15 550.5 917.95 549.8 918.15 539.25 921 536.75
Q 923 534.85 923.75 533.1
L 924.7 531
Q 925 530.05 925.2 528.85
L 925.45 524.5
Q 925.4 522.6 924.7 520.1 923.8 517.35 923 516
L 921.75 514.2
Q 921.45 513.75 920.2 512.5
L 916.9 509.8
Q 915.05 508.1 914.2 506.9
L 913.05 505.25 912.25 503.4 912.05 502.55 909.75 479.75
Q 910.1 479.6 910.4 479.3
L 910.9 478.65 911.2 478 911.4 477.3 911.5 475.65 911.4 474.5 911.25 473.9 910.95 473.15 910.4 472.5
Q 909.95 472.1 909.55 471.9
L 909.5 471.9 909.3 466 910.75 467 912 465.3 910.65 464.3 909 462.55 908.8 455.15 911.95 459 911.75 455.3 909.4 451.75 909.5 445.05 907.05 441.3 907.15 448.9
Q 906.55 448.25 905.5 446.75
L 904 444.9 903.95 448.15 903.9 448.4 907 453.25 907.25 460.05 907.2 460.75 905.25 459 905 461.3 905 461.5 907.05 462.9 907.25 465.65
Q 907.1 466.35 907 467.75
L 906.7 471.8 906.3 471.9
Q 905.25 472.6 904.55 473.55 904.25 474.4 904.25 474.75
L 904.25 475.9
Q 904.4 476.6 905.05 477.9 905.8 478.85 906.4 479.3
L 905.65 495.4 905 499.65
Q 904.65 501.6 904 503.75
L 902.9 506.5 902.8 506.55 902.25 507.5
Q 901.45 508.55 899.25 510.5
L 896 513.5
Q 894.1 515.4 893.05 516.85 892.55 517.6 891.95 518.8
L 891.05 521 890.55 523.25 890.4 525.45
Q 890.3 527.5 890.75 529.95 891.25 532.55 892.2 534.25 893.2 536.25 894.95 537.85 896.45 539.3 898.5 540
L 898.5 552.2
Q 898.65 552.45 898.25 553.05
L 897.5 554.1
Q 896.9 555.1 895.75 556.1 894.25 557.65 891.75 559.75
L 890.7 560.7 895.7 560.6 895.9 598.1 888.3 600.85 881 604.6 873.95 609.2 873.3 607.95 873.3 603 646.25 518.7 645.8 518.5 583 550.35 563.7 549.75 563.7 550 581.95 550.95 562 561 562.15 549.3 604.05 534.25 603.95 533.5
Q 603.45 531.65 604 529.35 604.35 527.55 605.9 525.75
L 606.25 525.35 606.5 525.25 606.7 525.05 609.5 523.5
Q 610.15 523.1 613.7 521.75
L 615.75 520.85 631.2 516.6 640.2 514.95
Q 643 514.35 644.7 514.1
L 676.7 510.75 741 507.3 796.2 506 833 506.9 851.25 508.5
Q 857.15 509.3 860.3 509.9
L 864.8 511
Q 865.6 511.15 867 511.65
L 869.2 512.35
Q 873.9 514.15 877.25 516.55 879.25 518.05 880.5 519.6 882.1 521.5 882.65 523.5
L 882.55 545
Q 881.05 545.75 880.3 546.5 879.4 547.4 878.4 548.75 877.6 549.95 876.95 551.3
L 873.75 559.5 872.25 565.05
Q 871 570.65 870.05 576.5
L 869.8 578.35 869.65 532.8 791.7 536.6 714.65 540.95 714.65 541.2 867.9 534.6 868.7 588 869.8 588
Q 870.35 581.5 871.05 576.6 872.1 570.1 873.05 565.25
L 876.4 554.25
Q 876.9 552.95 877.55 551.7 878.35 550.15 879 549.25 880 547.75 880.75 547.05 881.7 546.2 883.05 545.55
L 883.25 545.45 883.25 523.35
Q 882.8 521.4 881 519.25 879.65 517.5 877.65 516 874.3 513.5 869.45 511.75
L 865 510.25
Q 861.75 509.45 860.5 509.25 857.2 508.5 851.4 507.65
L 833 505.9
Q 830.9 505.75 823.8 505.4
L 796.2 504.65 759.3 504.9 740.95 505.5
Q 736.15 505.6 722.5 506.15 721.9 506.25 704.15 507.05 689.15 507.9 685.75 508.15
L 676.5 508.75 644.4 512.1
Q 642.6 512.35 639.8 512.95 632.65 514.2 630.75 514.7 624.75 516.15 621.75 516.95
L 613 519.95
Q 610.1 521.05 608.7 521.8
L 605.5 523.6 605.4 523.75 605.25 523.85 604.65 524.5
Q 602.85 526.3 602.25 528.95 601.85 530.85 602.15 533.1
L 560.8 548.45 560.95 561.55 546 569.1 467.25 575.25
Q 468.6 573.95 469.45 572.85 470.65 571.25 471.25 569.6 471.95 567.5 471.85 565.95
L 471.85 565 471.5 562.35
Q 471.25 560.85 470.35 558.85 469.65 557.3 468.5 555.8 467.45 554.6 466 553.25
L 463.5 551
Q 462.15 549.75 461.5 548.55
L 461.45 548.5 461.1 547.95 460.85 547.25 459.7 542.45
Q 458.4 536.35 457.5 529.1
L 457.45 528.6 457.95 527.7 458.1 526.6 458.1 526 458.2 525.75 458.1 525.5 458.1 524.45 457.95 523.8 457.7 523.2 457.2 522.5
Q 456.45 522 456.35 522
L 456.25 521.95 456.1 515.75 456.2 515.75 457.7 516.75 457.95 514.1 456 512.1 456.25 505.15 459 509.05 458.85 505.05 458.75 505 456.35 501.5
Q 456.35 497.3 456.5 495.15
L 456.5 495.05 454.2 491.65 453.85 498 450.7 493.4 450.75 497.4 453.6 501.8 454 510.4 452 508.5 451.75 510.8 451.75 511 451.85 511.15 454 513.25 453.75 521.85 453.35 522
Q 452.25 522.6 451.75 523.55 451.35 524.45 451.35 524.7
L 451.35 525.7
Q 451.75 526.85 452.2 527.6
L 453 528.55 452 540.8 451.35 544.55
Q 450.75 547.05 450.25 548.2 450 549.05 449.5 549.75
L 444.25 558.05 442.75 561.8 442.25 565.85 442.35 568 442.75 570.05 443.5 572 444.6 573.8
Q 444.75 574.1 445.25 574.6 445.5 575 445.95 575.45
L 447.6 576.75 448.5 577.25 449.85 577.75 342.35 586.05 342.45 586.25 459.5 578.5 459.5 578 541.7 571.35 443.5 621.2 441.85 621.25 442.6 622.75 442.6 625.5 400.75 629 394.35 620.55 394 620.35 366 608 341.5 596.05 341.35 570.75 334 570.25 341.45 570.1 341.45 566.5 335.6 564.3 335.2 555.3 330.1 554.5 334.1 553.7 334.25 553.6
Q 335.45 553.05 336.6 552 337.25 551.4 338.35 550
L 339 548.8
Q 339.15 548.7 339.6 547.7
L 341.1 542.7 341.35 540.05 341.25 536.2 340.45 533.6 338.6 530.25 335.5 526.2 332 522.5
Q 330 520.65 328.5 519.45
L 326.7 499.05 327.1 498.75 327.6 498.05 327.95 497.4 328.1 496.75 328.1 496.25
Q 328.2 496.05 328.2 495.55
L 328.25 495.4 328.2 495.15
Q 328.2 494.7 328.1 494.5
L 328.1 493.9 327.95 493.3 327.7 492.65 327.1 492
Q 326.8 491.7 326.35 491.4
L 325.85 491.25 326 484.9 327.35 486.25 327.85 481.5 325.85 478.9 325.7 471.8 329.35 474.75 329.2 470.8 329.1 470.75 326.1 466.65 326.2 459.15 323.6 455.75 323.35 463.05 319.35 457.75 319.45 462.8 323.25 468.3 323.35 477 320.95 475 320.6 477.5 320.6 477.65 322.95 481.5 322.6 491.3 323.45 491.4 323.1 491.5
Q 322.1 492 321.45 493.05
L 321 494.25
Q 321 494.9 321.1 495.3 321.25 496.25 321.95 497.3 322.2 497.75 322.7 498.25
L 320.1 519.95 319.35 521.45
Q 318.7 522.2 316.6 524
L 313.75 526.75
Q 312.7 527.75 311.2 529.75
L 309.35 533.35
Q 308.7 535.35 308.5 537.25
L 308.35 541.25
Q 308.6 545.9 310.5 548.85 311.55 550.55 313.1 551.8
L 314.75 553
Q 315.65 553.9 315.6 554.2
L 315.7 563.75 315.25 565.25 314.75 566.25 314.25 566.85 314 567.1 313.45 567.55
Q 312.95 567.85 312.75 567.85
L 312 568 311.75 568 311.85 583.6 312.1 583.6 312.25 568.45
Q 312.55 568.45 312.85 568.3
L 313.7 568 314.35 567.5 315.2 566.5 315.75 565.45 316.25 563.85 316.35 554.3
Q 316.5 553.65 316 553.1
L 313.7 551.25
Q 312.05 549.75 311.25 548.35 309.4 545.3 309.35 541.2
L 309.5 537.35
Q 309.75 535.7 310.35 533.75
L 311.2 532
Q 311.4 531.4 312.1 530.45 313.65 528.4 314.6 527.5 315.55 526.55 317.45 525 319.4 523.25 320.25 522.2 320.45 522.05 320.85 521.25 321.1 521 321.25 520.25
L 321.5 519.25 324 499.55 325.2 499.65 327 520.2 327.25 520.45
Q 328.3 521.3 330.85 523.7 332.4 525.2 334.25 527.25
L 337.2 531.1 338.85 534.25 339.6 536.5 339.75 537.6 339.7 540.05 338.85 544.75 338 547 336.85 549
Q 336.45 549.65 335.45 550.75
L 333.75 552 320.1 554.75 333.5 556.85 333.85 565.5 339.75 567.75 339.75 568.5 314.95 568.95 314.85 570.5 340.1 572 340.5 596.7 340.75 596.75 345.1 598.85 277.5 569.1 245.85 592.35 242.35 592.7 241.5 584.75 236.65 580.95 234.65 435.65 240.85 432.9 242.75 428 210.05 411.9 209.1 274.15 210.5 268.75 207.5 265 207.8 256.4 215.4 251.9 216 252.15 215.75 251.75 216.5 251.25 186.9 205.9 186.85 205.75 183.85 202.7 181.3 192.95 177.4 183.15
Q 173.45 174.55 166.35 165.4
L 163 161.4
Q 159.75 157.95 159.35 157.6 158.1 156.2 155.6 153.9
L 151.75 150.45
Q 148.15 147.4 143.4 144.1 142.15 143.15 139.1 141.2
L 135.25 138.95 134.75 132.65 135.5 132.15 136.15 131.4
Q 136.55 131.1 136.85 130.7
L 137.4 129.9 137.85 128.9
Q 138 128.7 138.1 127.85 138.25 127.5 138.25 126.7
L 138.1 125.6 137.3 123.7 136.75 122.95
Q 136.5 122.5 135.5 121.45
L 134.65 120.75 132.5 44.25 133.05 44 133.85 43.2
Q 134.2 42.65 134.35 42.05
L 134.55 41.35 134.6 41.25 134.55 39.55 134.35 38.75 133.6 37.25
Q 133.1 36.45 132.6 36 132.35 35.65 131.5 35
L 130.9 34.6 131.1 13.15 135 16.15 135.35 11.9 134.9 11.5 130.05 6.25 130.55 0.25 127.9 0 127.4 5.6 124.3 2.55 122.5 4.45 127.4 9.2 127.15 35.8 123.05 39.95 127.65 44
Q 126.8 66.1 125.5 89.85 124.65 104.05 123.8 112.95 123.55 115.5 123.15 118.6
L 122.9 119.5 122.25 119.75
Q 120.65 120.45 119.4 121.7 118.3 122.9 117.9 124.85
L 117.8 125.7 117.8 127.35 118.05 128.25
Q 118.5 130.1 120 131.2 120.75 131.8 121.5 132.15
L 122.15 132.4 121.55 140.7 119.25 141.6
Q 116.45 142.7 116.3 142.75
L 110.55 145.5
Q 110.05 145.75 105.05 148.75
L 99.8 152.4
Q 89.65 160.35 82.65 171.15 81.4 172.95 79.3 176.5 77.65 179.45 76.4 182.15
L 71.65 193.95
Q 70.4 197.75 69.8 200
L 68.3 206.2
Q 67.55 210 67.25 212.45 66.7 216.45 66.55 218.4
L 39.5 244.75 47.15 244.75 46.25 408.9 27 413.4 26.85 413.4 11.85 420.75 19.1 433.75 20.25 452 21.1 580.3 17 582.35 11.3 597 7.25 598.2 6.75 598.25 8.75 607.05 11.25 608.5 12 650.5 9.1 651.5 8.8 660.25 0 662.2 6.9 673.45 7.05 673.5 9.4 674.85 9.5 689.75 11.05 689.75 11.05 809.1 80.4 815.5 81.5 822.25 178.9 827.45 392.95 829.2 392.95 829.5 394.35 828.2 400 823.8 464.5 821.5 464.5 827.6 678.95 823.2 679 822.05 693.4 821.5 866.75 819.75 873.95 809.35 875.55 807.6
Q 888.75 807.75 915.15 807.75
L 975.9 807.1
Q 985.1 806.85 986 806.75 990.1 806.55 991.05 806.5
L 1001.2 805.6
Q 1003.15 805.4 1006.2 804.8 1007.95 804.55 1011.2 803.75
L 1016.15 802.45
Q 1022 800.35 1025.3 797.95 1028 795.7 1028.9 794.05 1029.3 793.4 1029.5 792.8
L 1029.9 791.55
Q 1030.1 790.45 1030.05 789.5
L 1039.55 789.75
Q 1040.5 789.85 1049.65 790
L 1080.05 789.25 1085.05 788.8
Q 1088.1 788.6 1090.15 788.25
L 1102.55 785.85
Q 1104.6 785.25 1105.05 785
L 1107.4 783.95
Q 1107.9 783.55 1108.5 783.25 1109.1 782.75 1109.4 782.05
L 1109.5 782.05 1109.4 782 1109 765.1 1109.15 765 1109 764.8 1104.8 605 1104.65 605
Q 1101.6 603.5 1099.05 602.75
L 1096.15 601.85 1081.25 599.05
Q 1069.9 597.5 1057.15 596.7 1044.95 595.9 1032.9 595.55 1019.45 595.2 1008.7 595.25
L 966 595.5
Q 984.55 594.6 996 594.25 1016.3 593.5 1037.15 593.25 1048.1 593.2 1057.8 593.35 1068.1 593.6 1078.3 594.1 1091.1 594.85 1098.75 596.2 1100.7 596.45 1103.75 597.2
L 1104.4 597.35 1109.15 600.35 1110.9 601.75 1110.9 601.8
Q 1111 601.8 1111 601.95
L 1111 602 1110.9 602.2 1110.55 602.6 1109.65 603.35
Q 1109 603.8 1107.4 604.5
L 1105.65 605.05 1107.4 605.35
Q 1109.05 605.65 1110.25 604.75 1111.45 603.95 1111.8 602.45
L 1111.9 602.2 1111.9 601.7
Q 1111.9 601.1 1111.8 600.95 1111.75 600.35 1111.15 599.6 1110.25 598.75 1108.9 598.05 1107.6 597.45 1105.3 596.75
L 1089.55 587
Q 1083.6 583.1 1080.8 581.1
L 1072.15 575 1042.8 552.5 1033.55 547.25
Q 1032.6 546.7 1031.15 546.2
L 1023.7 543.25 1010.75 540.2
Q 1008.5 539.75 1008.05 539.75
L 997.5 539.05
Q 994.3 538.95 992.2 539
L 986.9 539.05
Q 982.35 539.2 976.25 539.7 971 540 965.75 540.75
L 965.15 540.8 965 541.35
Q 964.35 543.35 962.8 545.8 961.5 547.95 959.75 549.55 958.45 550.85 955.65 552.25
L 953.3 552.95 950.95 553.25
Q 949.2 553.45 946 553 943.4 552.6 941.2 551.75 938.9 551 936.65 549.75 934.15 548.15 932.5 546.85 930.3 545.1 929.25 543.35
L 929 542.95 927.75 506.75 923.4 506.75 923.75 506.4
Q 924.75 505.6 926.45 503.8
L 927.65 502.4 929.7 499.15 930.9 495.4 931.25 481.9 930.65 481.65
Q 928.6 480.65 926.3 478.8 923.8 476.8 922.65 475.15 920.6 472.55 919.9 470.8
L 918.9 468.5 918.25 466 918 463.4
Q 917.9 462.4 918 460.9 918.2 458.45 919.2 455.9 920.85 451.55 925 447.4 926.1 446.15 928.8 443.75
L 932.95 440.25 935 438.15 935.4 437.4 936.15 435.4
Q 936.85 432.95 937.3 429.9 937.7 427.6 937.95 424.5
L 938.2 419
Q 938.3 412.35 938 408.15
L 937.25 407.25 936.7 406.75
Q 936.45 406.4 936.2 405.8
L 936 405.25 935.9 404.8 935.8 404.75 935.9 404.75 935.8 404.15
Q 935.8 403.85 935.9 403.65
L 936 403.15 936.45 402.15 936.75 401.8
Q 937.55 401.3 937.65 401.25
L 938.5 401.05 939 401.15 939.45 401.4
Q 939.85 401.55 940.25 402 940.6 402.2 940.9 402.9 941 403.05 941.15 403.9 941.2 404.5 941.15 405
L 941 405.65 941 405.75 940.8 406.05 940.2 406.65 938.45 407.4 940.4 418.9
Q 941.7 426.05 942.5 429.5 943.4 433.45 943.9 434.9
L 944.5 436.25 945.45 437.4
Q 946.25 438.4 947.45 439.4 949.85 441.55 955.9 446.15 960.85 450.4 963 454 964.4 456.5 964.9 458.75
L 965.2 461.25 964.9 465.25 964.05 469.05
Q 963.95 469.6 963.25 471.55 962.5 473.15 962 473.9 960.65 476.3 958.8 478 956.85 480 954.65 481
L 954.25 481.15 954.75 494.55 966.3 505.8 937.75 507.3 937.7 508.15 964.65 510.5 965 539.05 965.25 539.05 965.2 510 965 509.9 944 507.9 968.9 506.75 956 494.05 955.55 482
Q 957.65 480.95 959.75 479 961.75 477.05 963.25 474.55
L 964.5 472.15 965.45 469.5
Q 966 467.15 966.05 466.75
L 966.3 465.4 966.65 461.25 966.3 458.4
Q 965.8 455.85 964.25 453.15 961.85 449.15 956.9 445 955.5 443.75 952.65 441.55 949.5 439.1 948.5 438.15 947.35 437.15 946.7 436.3
L 945.8 435.15 945.75 435.15 945.75 435.05 945.5 434.25
Q 945 432.75 944.15 429.15
L 940.5 408.65 941.2 408.15
Q 941.95 407.8 942.5 406.9
L 942.75 406.4 942.8 406.25 942.8 406.15 942.9 406.05 943 405.3
Q 943.15 404.55 943 403.65 943 403.1 942.65 402.05 942.3 401.35 941.7 400.65 941.05 400.05 940.5 399.75
L 940.5 392.65 942 394.25 942.45 389.15 940.4 386.05 940.2 377.75 943.95 381.15 943.75 376.75 943.7 376.65 940.5 371.9 940.5 363.15
M 938 384.3
L 938 384.15 938.5 379.75 938.45 386.75 940 389.05 938.4 387.4 938.4 388.05 935.8 384.4 935.8 382.75 938 384.3
M 911.05 455.65
L 911.05 456.5 909.05 453.5 909 452.25 911.05 455.65
M 907.2 461.05
L 907.2 461.75 905.8 461.05 905.8 460.15 907.2 461.05
M 649.45 545.25
L 649.15 545.2 537 598.5 537.05 598.7 649.25 546.7 812 602.35 665.5 603.1 666.4 602.2
Q 668 600.4 668.5 597.3 668.9 595.2 668.65 592.2 668.3 589.55 667.65 587.25 666.85 584.6 665.45 582.55 663.9 580.3 661.7 578.95 659.45 577.6 656.9 577.05 654.3 576.55 651.75 576.7 649.15 576.8 646.75 577.6 644.55 578.35 642.25 580.25 640.35 582 639.15 584.25 637.9 586.4 637.25 589 636.65 591.5 636.5 594 636.45 595.75 636.5 596.55 636.5 598.25 636.65 599.05 636.95 602.05 637.8 604 638.5 605.5 639.15 606.25
L 639.8 607 480.7 616.2 643.45 534.7 837.9 605.45 450.5 620.85 646 521.05 872 603.85 872 605.35 871.4 604.05 838.55 605.45 643.25 532.75 477.2 617.1 644 607.95 641.65 606.95
Q 640.75 606.55 640 605.55 639.4 604.85 638.9 603.55 638.1 601.55 637.8 599
L 637.75 596.5
Q 637.7 595.75 637.75 594.1 637.9 591.65 638.5 589.35 639.15 586.95 640.25 584.95 641.5 582.7 643.2 581.25 644.95 579.75 647.2 578.95 649.3 578.2 651.8 578.05 654.5 578 656.55 578.5 658.7 578.85 660.9 580.2 664.7 582.55 666.2 587.7 666.75 589.55 667 592.35 667.3 595 666.95 597.05 666.5 599.6 665.15 601.1 664.55 601.8 663.45 602.5 662.5 603.05 661.5 603.1
L 661.5 604.8 824.4 604.35 649.45 545.25
M 323.85 480.5
L 321.45 477.4 321.45 476.15 323.5 477.4 323.6 477.25 324 473.8 323.85 479.55 324.85 481 323.85 479.9 323.85 480.5
M 19 584.25
L 22.1 582.6 156.6 571.85 159.1 575.75 159.25 586 14.4 595.85 19 584.25
M 1.5 662.8
L 4.65 662.2 70.55 658.6 74.5 670.05 74.9 670 79.8 670 82.05 815.6 179 819.3 179 819.7 206.65 819.75 206.65 819.25 389.6 818.3 389.85 818.2 392.7 816.6 392.85 826.95 392.35 827.3 179 826.25 82.4 821.25 81.3 814.5 12.05 808.25 12 688.8 10.4 688.8 10.4 674.3 10.15 674.25 7.65 672.75 1.5 662.8
M 63.65 653.45
L 62.65 650.75 162.4 640.7 162.4 643.6 171.05 643.2 168.1 647.1 70.5 655.05 63.65 653.45
M 80.9 668.95
L 75.3 668.95 70.9 656 168.55 648.55 168.85 648.55 172 644.45 173.55 652.95 178.6 654.7 179 818.1 83 814.75 80.9 668.95
M 205.1 654.25
L 208.1 652.8 208.1 652.55 207.75 648.5 388.1 639.25 389.5 656.3 392.6 814.5 389.25 816.45 206.65 818.05 205.6 725.1 204.1 720.5 205.1 654.25
M 234.75 598
L 176.1 628.75 160 631.3 160.4 588.7 234.75 598
M 454.1 511.65
L 453.85 511.5 453.85 511.65 452.6 510.65 452.6 509.75 454.2 510.75 454.1 511.65
M 548.15 706.7
L 561.4 704 561.2 776.6 586.5 778.5 548.2 778.45 548.15 706.7
M 616.65 812.1
L 619.25 822 466.6 825.5 466.6 819.3 465.85 819.35 466 812.55 466.75 812.55 466.75 811.75 616.65 812.1
M 465.45 812.55
L 465.5 819.35 400.95 821.85 402.2 820.6 402.5 820.35 402.45 819.95 402.35 812.5 465.45 812.55
M 400.25 812.5
L 400.5 812.5 400.5 819.55 394.75 825.2 394.5 815.6 400.25 812.5
M 873.3 797.45
L 873.3 806.25 867.05 812.8 866.95 802.25 873.3 797.45
M 864.3 803.05
L 864.55 817.95 703.2 819 703.05 808.5 763.65 806.05 864.3 803.05
M 681.4 820.25
L 676.3 820.45 636.2 817.6 635.25 725.85 681.5 725.8 681.4 820.25
M 939 362.5
L 939.75 363.55 939.95 372 940 372.15 942.8 377 942.75 378.4 939 374.4 939 373.5 937.55 370.9 939.4 373.4 939.25 370.65
Q 939.25 368.7 939.05 365.75
L 939 362.5
M 907.2 473.8
L 908.3 473.65 908.95 473.75 910 474.05 910.5 474.4
Q 911 474.9 911.05 475.05
L 911.25 475.65 911.25 476.15
Q 911.25 476.55 911.05 476.75 911 477 910.5 477.5
L 910 477.75 909.55 477.9 909.55 477.8 909 477.75 906.4 477 906.4 478.25
Q 905.85 478 905.55 477.55 905.15 476.85 905.3 476 905.65 475.2 905.7 475.15
L 906.05 474.55
Q 906.5 474.1 907.2 473.8
M 908.05 480.05
L 908.2 480.05 910.4 502.75 910.7 503.9
Q 910.75 504.5 911.55 506
L 912.75 507.9
Q 914 509.4 915.75 511.15
L 919.05 513.75
Q 919.65 514.35 919.75 514.5
L 920.4 515.25 921.5 516.85
Q 922.15 518.1 923 520.55 923.55 522.6 923.7 524.5
L 923.7 526.55 923 530.5 922.2 532.25
Q 921.55 533.7 919.8 535.3
L 916.7 538.1 916.3 538.35 916.2 550.1 916.8 551.85 917.7 553.35
Q 918.1 554.1 918.65 554.75
L 920.95 557.2 922.25 558.2 922.65 558.45 922.25 558.45 922.9 586.8
Q 922.9 587.5 922.75 587.95
L 922.5 589.05 921.4 591.2 919.75 592.95 917.65 594.3 915.4 595.35 912.95 596.1 907.8 597 908 598.5 931.4 595.85 949 595.75 949.5 595.8 949.5 596 955 596.35
Q 958.8 596.9 960.4 597.25
L 970.95 600.45
Q 979.9 603.7 990.9 609.75 1000.1 614.95 1009.5 621.45
L 1018.5 627.85
Q 1024.05 632.15 1027.15 634.7
L 1027.15 634.75 1040.8 640.7 1020 642
Q 1010.8 642.45 1009 642.45
L 954 643.5
Q 912.4 643.9 866.7 643.6
L 868.4 616.7 869.7 615 874.5 610.35 874 609.25 878.25 606.55 887 601.95 896.25 598.5 896.45 598.5 896.7 559.6 893.55 559.6
Q 894.8 558.6 896.55 556.85
L 898.45 554.8 899.25 553.6
Q 899.7 552.65 899.65 552
L 899.7 552 899.75 539.1 899.25 539
Q 897.3 538.3 895.75 536.95 894.25 535.55 893.3 533.6 892.7 532.6 892 529.7 891.6 527.5 891.75 525.5
L 891.95 523.35 893.2 519.45 894.25 517.7
Q 895.15 516.35 897 514.5
L 900.25 511.65
Q 902.65 509.4 903.45 508.4
L 904.4 506.9 904.55 506.4
Q 904.7 506.2 905.4 504.25 906 502.35 906.5 499.9
L 907.2 495.55 908 480 908.05 480.05
M 760.75 654.95
Q 757.95 652.9 753.75 651.25 750.9 650 746.25 649.05
L 738.5 648.3
Q 734.55 648.2 730.75 648.7 727.4 649.05 723.05 650.3 719.7 651.3 715.9 653.35 709.1 657.05 703.95 663.25 701.45 666.25 699.5 669.75 697.9 672.4 696.8 675.1 696.05 673.8 694.7 671.85 693.25 669.85 691.05 667.5 690.75 667.1 689.05 665.5
L 687 663.6 680.15 658.75
Q 678.7 657.8 677.65 657.3
L 675.15 656.1
Q 673.35 655.45 672.5 655
L 664.4 652.7 654.7 651.45 650.4 651.45
Q 645.25 651.85 644.75 651.95 643.5 652 642 652.35 640.15 652.65 639.25 652.95
L 628.55 656.35
Q 624.05 658.55 623.5 658.85 620.9 660.35 618.75 661.85
L 618.05 662.45 615.75 663 611.2 664.85
Q 609.4 665.8 608.7 666.25
L 606.3 667.85 603.45 670.5
Q 602.1 668.1 599.9 665.6 597.45 663.15 594.9 661.5
L 592.05 659.95
Q 590.2 659 589.15 658.7 586.1 657.55 582.9 657
L 579.7 656.6 570.05 656.75 566.95 657.25
Q 566 657.4 563.75 657.95
L 560.7 658.8 557.75 660.05 552.15 663.3 547.25 667.55
Q 545.55 669.4 543.3 672.7 541.65 675.4 540.3 678.35 538.95 681.5 538.2 684.45 537.4 687 536.75 690.75 536.25 694.4 536.25 697.1
L 536.25 704.25 549.8 704.6 546.5 705.25 546.4 780.25 609.45 780.2 609.5 778.5 562.75 775.2 562.55 703.75 564.5 703.3 562.55 703.25
Q 562.85 696.35 565 692.2 566.5 689.3 568.75 687.95 571 686.55 574.25 686.45 577.25 686.3 580 687.25 583 688.3 584.95 690.25 588.8 693.95 589.75 700.75
L 589.95 703.7 589.25 773 589.5 773 590.75 703.7
Q 590.8 702.85 590.65 700.55 589.65 693.45 585.65 689.5 583.5 687.4 580.3 686.25 577.4 685.3 574.25 685.35
L 572.7 685.5
Q 571.7 685.55 571.15 685.75 569.65 686.15 568.25 687 565.75 688.5 564 691.6 561.6 696.35 561.4 703.25
L 537.75 702.75 537.75 697.2
Q 537.75 694.3 538.25 690.95 538.65 687.85 539.5 684.8 540.4 681.6 541.55 678.95 542.9 675.75 544.45 673.35 546.75 669.9 548.25 668.5 548.85 667.8 550.45 666.25
L 555.5 662.6
Q 555.95 662.3 558.25 661.2
L 564.05 659 573.3 657.6 579.65 657.75
Q 580.7 657.75 581.2 657.85
L 582.75 658.05
Q 586.2 658.7 588.75 659.6 589.1 659.7 591.7 660.8
L 594.4 662.35
Q 596.65 663.7 599.2 666.25 601.45 668.75 602.7 671 602.05 671.6 601.5 672.25 600.65 673.15 600.2 673.8 599.1 675.3 598 677.25
L 596.25 680.85 594.25 686.55
Q 594.15 686.8 593.75 688.55
L 592.55 696.5 592.45 700.95 592.75 700.95 614.25 702.45 614.25 702
Q 614.25 698.8 614.65 695.75 615.05 692.2 615.75 689.5 616.05 687.95 616.55 686.35
L 618.9 680.5 620.4 677.75
Q 621.5 676.05 622.25 675.1
L 624.25 672.75 626.65 670.7
Q 628.25 669.4 629.25 668.95 630.15 668.4 632.05 667.5 634.75 666.55 635.05 666.5
L 638.15 665.8 641.25 665.5
Q 641.95 665.5 642.3 665.6
L 643 665.95 643.2 666 643.9 666 645.95 667.1
Q 647.7 668.1 650.4 670.25
L 652.75 672.5
Q 648.45 672.35 644.05 673.25 638.15 674.35 633.75 676.95 631.4 678.2 629.2 680.2 626.9 682.2 625.45 684.3 622.35 688.55 620.9 694.35 619.65 699.2 619.65 705.25
L 620.25 817.25 618.25 810 466.75 811.25 465.25 641.7 458.25 636.25 455.25 632.05 448.5 628.5 446.25 623.85 869.5 607.25 870.75 609.75 864.65 615.5 864.5 615.7 864.4 615.8 861.25 620.85 864.25 801.55 702.9 807.1 701.4 705.45 668.75 701.55 691.7 702 691.55 701.5
Q 691.2 699.4 690.55 697.35 690.1 695.75 689.25 693.45 687.65 689.3 685.65 685.85
L 680.75 679
Q 679.6 677.6 677.95 675.95 676.1 674.2 674.75 673.1 672.45 671.35 671.4 670.7
L 667.75 668.55 659.45 665.3 657.9 665
Q 656 664.8 655.75 664.75
L 651.55 664.6
Q 649.45 664.6 645.45 664.8
L 641.7 663.1
Q 639.8 662.3 636.2 661.5
L 630.5 660.8 622.05 661.2 622 661.2
Q 623.1 660.5 624.15 660 626.55 658.6 629.05 657.55
L 631.65 656.5 639.5 654.2 642.25 653.7
Q 643.95 653.3 645 653.25 646.6 653 650.45 652.75
L 661.45 653.55
Q 666 654.45 666.75 654.75
L 669.45 655.5
Q 670.45 655.75 672 656.45
L 677 658.7
Q 677.95 659.1 679.3 660
L 683.9 663.05 688 666.7
Q 689 667.6 689.95 668.6 691.4 670.25 693.45 672.8 695.4 675.65 696.25 677.45
L 697.2 679.2 697.75 677.3
Q 699.1 673.65 700.95 670.5 703.3 666.55 705.25 664.35 710.15 658.4 716.75 654.95 720 653.2 723.65 652 727.6 650.85 730.95 650.5 735.15 649.95 738.45 650.1
L 745.95 650.85
Q 750.25 651.8 753.05 653 756.75 654.35 759.7 656.5 763 658.75 765.3 661.3 767.85 664 769.8 667.25 773.5 673 775.7 681 777.5 688 777.75 695
L 770.9 695.2 770.8 778.25 723.75 778.3 722.5 697.75 714.5 696.95 722.4 696.5 722.4 695.6
Q 722.25 691.55 723.55 687.75 725.05 683.75 727.9 681.25 730.75 678.8 735 678.1 736.8 677.8 739 677.95 740.65 678 742.8 678.6 746.65 679.9 748.9 683.25 750.9 686.45 751.65 690.75 751.9 692.25 752 694.75
L 752 773.45 726.9 774.7 725.8 697.6
Q 725.7 694.25 726.2 691.55 726.85 688.25 728.25 685.85 728.45 685.4 729.05 684.6 730 683.55 730.05 683.5
L 731.2 682.5 733.9 681.05 736.8 680.45 738.3 680.35 738.3 680.2 736.8 680.25
Q 735.9 680.3 735.25 680.5
L 733.75 680.85 732.4 681.5
Q 732.25 681.55 731 682.25
L 729.9 683.25
Q 729.4 683.7 728.8 684.45
L 727.95 685.75
Q 726.6 688 725.8 691.5 725.3 694.55 725.45 697.6
L 725.9 775.75 753.15 774.5 753.55 694.75
Q 753.5 692.75 753.2 690.5 752.45 685.75 750.2 682.45 747.75 678.5 743.3 677.05 741.4 676.4 739 676.25 736.8 676.1 734.75 676.5 730 677.1 726.75 680 723.55 682.6 721.95 687.2 720.7 690.8 720.55 694.8
L 701.9 695.75 701.8 697.55 720.5 699.5 721.7 780.35 772.95 780.35 772.9 697.1 779.75 696.85 779.75 695.95
Q 779.65 688.35 777.55 680.5 775.35 672.25 771.5 666.25 769.35 662.9 766.7 660 764.2 657.3 760.75 654.95
M 655.7 665.8
Q 656.2 665.9 657.7 666
L 659.25 666.3 663.5 667.75
Q 665.55 668.55 667.25 669.5 668.55 670.1 669.05 670.5 669.9 670.85 670.8 671.5 672.7 672.75 674.2 673.95 676 675.35 677.25 676.6 678.45 677.8 680.05 679.6 681.75 681.5 682.55 682.85
L 684.8 686.3
Q 686.6 689.25 688.4 693.75
L 690.65 701.1 661.95 700.7 661.8 695.35
Q 661.8 694.55 661.55 692.5
L 660.75 686.85
Q 660.65 686.05 660.2 684.1
L 658.25 678.75
Q 657.35 676.7 657 676.2
L 656 674.55 657 674.6 655.7 673
Q 653.85 670.75 651.5 668.85 649.2 667.05 647.2 665.8
L 655.7 665.8
M 654.8 674.5
L 655.2 674.5 656.4 676.5 658.65 681.6 660.55 689.8 660.8 692.6
Q 661.05 694.5 661.05 695.45
L 661.15 701.45 666.05 701.5 700.25 706.5 701.65 819 683.75 819.1 684.15 723.25 632.5 723.2 633.55 820.05 650.25 821.25 621.5 821.95 621.15 820.7 621.75 705.25
Q 621.85 699.35 622.95 694.85 624.2 689.5 627.15 685.5 628.55 683.55 630.5 681.75 632.7 679.75 634.75 678.75 638.85 676.3 644.45 675.2 649.8 674.05 654.8 674.5
M 960.5 596.85
L 955.75 596.05 1008.7 595.5
Q 1020.35 595.5 1032.9 595.85 1045 596.3 1057.05 597.05 1071.45 598.05 1081.15 599.5
L 1087.15 600.45 1098.9 603.1
Q 1101.35 603.85 1104.4 605.25
L 1108.3 765.5
Q 1106.95 766.5 1105.75 767.05
L 1102.05 768.5
Q 1100.55 768.95 1098.15 769.45
L 1094.15 770.1
Q 1087.35 771.15 1078.25 771.45
L 1065.3 771.55 1065.3 688.3
Q 1065.6 684.4 1064.65 680.5 1063.45 675.85 1060.4 673.7 1057.1 671.4 1052.55 672.45 1050.45 672.95 1048.9 674.35
L 1047.55 675.95 1046.5 677.75
Q 1045.1 680.6 1044.55 685.5 1044.4 688.8 1044.4 693.45
L 1045.15 771.25 1031.4 771 1031.55 756.75
Q 1031.75 746.1 1031.75 738.75
L 1031.15 648.95 1039.55 643.5 983.5 643.6 1009 643.05 1043.15 641 1027.5 634.25
Q 1023.3 630.85 1018.75 627.5 1014.2 624.1 1009.8 621 999.75 614.2 991.05 609.3 980.55 603.5 971.05 600
L 960.5 596.85
M 866.9 617.6
L 867.15 617.45 865.5 644.75 872.55 644.75 873.75 794.1 873.3 794.1 873.3 795.3 866.95 800.3 864.25 621.8 866.9 617.6
M 873.25 663.05
L 872.8 644.75
Q 917.65 644.75 951.4 644.3
L 1035.3 644.75 1029.8 648.25 1030 738.7
Q 1030 746.05 1029.8 756.7
L 1029.55 770.25
Q 1029.55 772.15 1029 774.45 1027.9 778.45 1024.75 781.7 1021.75 784.65 1017.55 786.55 1010.75 789.9 1000.65 791.25
L 996.2 791.7 875.45 794.1 873.7 682
Q 873.55 672.7 873.25 663.05
M 1055.15 673
L 1056.55 673.1
Q 1058.6 673.45 1060 674.35 1061.35 675.3 1062.55 677.05 1063.25 678.3 1064 680.6 1064.85 684.55 1064.65 688.3 1064.65 695.7 1064.4 709.2
L 1063.65 770.8 1047.15 771.05 1046 693.45
Q 1045.85 687.1 1046 685.6 1046.2 681.45 1047.55 678.25
L 1048.5 676.55 1049.65 675.2
Q 1051.05 673.8 1052.8 673.35
L 1055.15 673
M 1030.8 774.95
Q 1031.2 773.65 1031.3 772
L 1045.15 772.6 1045.15 772.95 1046.05 773
Q 1053.2 773.25 1062.15 773.25 1072.4 773.25 1078.3 772.8 1083.1 772.45 1086.3 772.1
L 1094.3 771
Q 1097.6 770.3 1098.3 770.1 1099.95 769.7 1102.15 769
L 1105.9 767.45
Q 1107.25 766.7 1108.3 765.8
L 1108.65 781.8
Q 1108.5 782.15 1108 782.55
L 1107 783.25 1105.9 783.8 1101.15 785.45 1090.05 787.45 1080 788.3 1049.65 788.95 1029.55 788.35 1030.55 776 1030.8 774.95
M 1029.4 788.35
L 1028.65 788.3 1028.9 789.05
Q 1029.1 790.05 1028.8 791.3 1028.6 792.15 1028.4 792.45 1028.15 793.1 1027.9 793.5 1027.1 794.9 1024.65 797 1021.35 799.45 1015.75 801.25
L 1013.3 802
Q 1011.95 802.45 1010.95 802.6 1007.15 803.5 1006 803.6
L 996 804.95
Q 990.3 805.2 985.95 805.5 981.7 805.7 975.8 805.75
L 915.15 806.2 875.95 805.85 875.9 796.6 996.3 793.8
Q 998.15 793.7 1000.9 793.3 1011.05 791.95 1018.5 788.35 1023.05 786.15 1026.15 783.05 1028.25 780.95 1029.75 778.05
L 1029.4 788.35
M 174.8 184.4
L 179.25 196.25 180.9 203.7 181.1 204.15 184.15 207.25 155.55 223.75 135.6 221.75 91.3 200.25 58.25 229.35 68.25 219.6 68.55 219.35 68.55 218.9
Q 68.85 215.6 69.25 212.75
L 70.3 206.65
Q 71.35 202.2 71.8 200.6 72.5 197.75 73.65 194.65
L 77 185.9
Q 77.75 184.1 78.3 183.1 79.8 179.95 81.15 177.6 82.9 174.5 84.4 172.35 91.5 161.6 101.15 154.2
L 103.65 152.4
Q 105.5 151 106.25 150.65 107.8 149.7 111.55 147.5
L 123.65 142.4 124.55 130.6 123.5 130.4
Q 122.7 130.25 122.4 130 121.9 129.85 121.4 129.4 120.6 128.75 120.25 127.6
L 120.05 126.45 120.05 126.2 120.15 125.25
Q 120.5 124 121.15 123.25 121.95 122.4 123.15 121.95
L 124.15 121.6 124.5 121.35 124.75 121.1 125 120.7
Q 125.2 120.2 125.4 119 125.75 117 126.15 113.2 127.1 103.5 127.9 89.95
L 129.85 51.5 131.85 122.2 133.55 123.5 134.5 124.6 135.25 126 135.35 126.6 135.35 127.35 135.25 127.95 135 128.4 134.6 128.95 133.65 129.9 131.75 131.35 132.5 140.7 133.15 141.15
Q 134.4 141.75 137.55 143.65 139.6 144.9 141.8 146.45 145.8 149.3 149.85 152.65
L 157.35 159.65 164.1 167.25
Q 170.5 175.35 174.8 184.4
M 129.85 37.2
L 131.3 38.75 131.75 39.6 131.85 40.5 131.85 40.85 131.75 41.35 131.75 41.5 131.6 41.5 131.4 41.75 131.3 41.75 130.1 42.75 126.8 39.85 129.6 37 129.85 37.2
M 155.6 224.9
L 155.9 224.9 184.65 207.75 211.1 248.5 163.55 225 136.1 224.9 136 224.95 57.3 239.4 91.8 209.4 91.65 209.2 52.15 241.9 136.35 227.1 163.1 226.95 212.1 250.35 204.8 254.65 204.35 266 207.15 269.5 206.1 273.75 206.85 413.9 238.8 429.55 238.4 430.5 231.4 433.65 233.6 582.45 238.6 586.35 239.6 596.05 160.5 586 160.6 575.3 160.4 575.2 158.35 571.8 229.65 584.1 225.85 428.9 159.15 406.65 159.1 406.65 158.65 407.55 169.75 413.5 166.4 418.05 166.3 418.5 166.15 568.55 166.35 568.55 167.25 512.25 167.65 418.75 171.6 413 164.9 409.55 225.1 429.4 227.6 581.7 157.85 570.2 155.6 406.3 15.3 420.65 27.45 414.75 47.75 410.15 49.05 242.85 44.25 242.85 51.45 235.9 91.5 202.2 135.1 223.2 135.35 223.35 155.6 224.9
M 322.5 494.65
L 322.85 494.05
Q 323.5 493.5 324 493.3
L 325.1 493.15 325.7 493.25 326.75 493.55 327.2 493.8
Q 327.55 494.1 327.75 494.5
L 328 495.15 328 495.55 327.85 496.15
Q 327.7 496.55 327.25 496.9
L 326.25 497.4
Q 325.4 497.65 325.1 497.65
L 325 497.75 324.85 497.75 324.5 497.8 323.75 497.8
Q 322.9 497.75 322.45 497 321.95 496.3 322.2 495.4
L 322.5 494.65
M 281.25 580.75
L 281.1 580.75 241 601.55
Q 238.45 602.8 227.65 608.5
L 201.25 622.75
Q 195.35 625.9 188.05 630
L 175 637.2 163.5 639.95 163.5 639.55 62.55 650.5 62.3 650 72.5 648.25 72.5 648.45 80.65 647 80.65 646.85 94.9 644.45 95.3 627.6
Q 95.2 626.45 94.9 624.8 94.3 623.05 93.4 622.2 92.45 621.1 90.75 620.75
L 89.25 620.55 86.05 620.85 85 621.25
Q 83.45 621.9 82.55 623.05 81.85 623.85 81 625.45 80.45 626.4 79.9 628 79.35 629.35 79.15 630.75 78.75 632.55 78.65 633.5
L 79.15 645.75 74.15 646.5 74.4 633.35 75.05 629.8
Q 75.25 629 76.15 626.35 77.1 624.2 77.75 623.25 78.45 621.95 79.9 620.45 81.45 619 82.65 618.3
L 84.15 617.5 85.8 616.95 89.25 616.25
Q 91.05 616.1 92.65 616.5 96.05 617.25 97.9 620.3 99.55 622.95 100.15 626.95 100.4 629.1 100.4 630.5
L 100 642.75 176.75 631 176.85 631 243.1 596.5 239.8 596.05 246.9 595.35 277.85 572.6 392.5 623 399.35 632.2 445.25 628.3 446.25 630.5 453.45 634.25 401.95 636.55 393.25 626.8 393.1 626.75 281.25 580.75
M 281.2 581.45
L 308.75 593.2
Q 334 604.05 336.6 605.1
L 392.1 628.5 393 629.5 173.1 642 172.85 640.75 171.85 642 163.5 642.5 163.5 640.1 175.1 637.95 175.15 637.95 175.25 637.85
Q 178.85 636.15 188.6 631
L 215.25 617.1
Q 222.1 613.6 228.5 610.05 233.6 607.35 241.75 602.95
L 281.2 581.45
M 20.45 433.15
L 13.85 421.4 14.4 421.05 154.15 407.9 155.6 569.75 155.1 569.75 22.25 580.1 21.6 452 20.5 433.3 20.45 433.15
M 85.3 615.25
Q 84.1 615.6 83.5 615.95
L 81.75 616.8
Q 80.2 617.7 78.65 619.25 77.15 620.75 76.3 622.3 75.35 623.95 74.55 625.75 73.95 627.4 73.4 629.45
L 72.75 633.1 72.5 647 60.75 649 62.75 654.35 63 654.45 69.65 656.05 70.3 657.75 6.05 661.85 9.65 661.05 10.1 652.25 13.05 651.1 13 650.75 12.3 607.85 12.05 607.75 9.65 606.45 8.05 599.05 10.8 598.25 10.6 598.55 159.3 588.7 159.75 631.35 102.05 640.5 102.25 630.5
Q 102.25 628.35 102 626.7 101.3 622.2 99.5 619.3 98.4 617.6 96.75 616.35 95.05 615.1 93.05 614.75 91.4 614.35 89.15 614.5
L 85.3 615.25
M 93.55 625.2
Q 93.8 626.15 93.9 627.75
L 94.05 633.1
Q 94.15 634.05 94.05 635.75
L 93.65 643.35 80.65 645.6 80.15 633.6 80.55 631
Q 81.15 628.9 81.3 628.5 81.65 627.4 82.25 626.1 83.2 624.55 83.65 624 84.35 623.2 85.55 622.55
L 86.05 622.35 88 622 90.4 622.1
Q 91.85 622.55 92.4 623.1 93.2 623.9 93.55 625.2
M 180.1 653.5
L 174.9 651.75 173.3 643 392.25 631.7 398.25 638.35 400.45 810.5 399.75 810.5 399.6 810.7 394.5 813.5 390.75 656.25 389.1 638.05 207 647.85 207.35 652.45 204.4 653.85 203.1 720.7 204.65 725.45 205.1 818.1 180.65 818 180.1 653.5
M 325.45 459.5
L 325.5 466.9 328.25 471.15 328.2 472.25 324.6 468.8 324.6 468 324.5 467.75 323.75 466.5 325 468.05 324.7 458.55 325.45 459.5
M 455.75 501.5
L 455.75 501.65 455.6 501.4 455.5 500.55
Q 455.5 499.1 455.25 495
L 455.6 495.4
Q 455.75 497.65 455.75 501.5
M 457.75 525
L 458 525.75 457.95 526
Q 457.95 526.3 457.75 526.5 457.55 526.95 457.2 527.2
L 455.25 527.95 455.1 527.95 455 528 454 528.05
Q 453.1 528 452.75 527.25 452.25 526.6 452.5 525.8
L 452.85 525 453.2 524.55
Q 453.65 524 454.2 523.95 454.8 523.75 455.25 523.75
L 455.75 523.8 456.75 524.05 457.2 524.3
Q 457.6 524.65 457.75 525
M 454.95 530.3
L 455.6 530.3
Q 456.75 538.3 457.7 542.85
L 458.45 546.25 459.25 548.85 459.6 549.5 459.7 549.55 459.75 549.7
Q 460.5 551 462.1 552.5
L 464.6 554.75
Q 466.1 556.25 466.85 557.1 467.7 558.2 468.5 559.75 469.15 561.25 469.5 562.75
L 469.75 565.95
Q 469.8 567.05 469.25 568.85 468.9 570 467.75 571.55 466.95 572.75 465.6 573.85 464.4 574.9 463 575.75
L 459.5 577.7 459.45 577
Q 454.9 577.1 451.85 576.5 449.65 576.1 448.5 575.25
L 447.75 574.8 447.1 574.2
Q 446.6 573.65 446 572.8
L 445 571.25 444.1 567.75 444 566
Q 444 565.15 444.2 564.1
L 444.25 563.25 444.5 562.35 445.2 560.6 448.85 554 451.2 550.8
Q 451.75 550 452.1 548.85 452.7 547.4 453.25 545
L 454.25 539.2 454.95 530.3
M 456.45 638.25
L 462.5 643 464.6 810.45 402.35 810.5 400.35 637.75 401.1 638.55 453.85 634.75 456.25 638.2 456.45 638.25
M 598.3 678.6
L 602.8 672.35 607 668.75 609.25 667.25 612.95 665.45 620.9 663 630.45 662.35
Q 630.7 662.4 633.15 662.6
L 635.95 663.1 640.8 664.85
Q 638.85 665 638.05 665.2
L 634.9 665.85 631.8 666.95
Q 629.05 668.3 628.95 668.35 627.85 668.95 626.25 670.2
L 623.8 672.3 621.75 674.75
Q 620.95 675.65 619.8 677.35
L 617 683.1
Q 616.4 684.4 615.95 686.2 615.5 687.45 615.05 689.25 614.2 693.15 613.95 695.6 613.5 698.85 613.5 701.7
L 593.2 700.25 593.3 696.55
Q 593.5 694 593.75 692.6
L 594.05 690.7 595.5 685.05 595.55 684.75 598.3 678.6
M 435.75 666.7
L 443.7 665.05 447.75 664.8 447.75 664.6
Q 445.05 664.6 443.7 664.75 440.65 664.9 439.6 665.2
L 433.6 666.55 428 669 426.2 670 421.25 673.75
Q 420.5 674.4 419.75 675.2
L 418.35 676.7
Q 417.1 678.15 415.85 679.95
L 413.6 683.35
Q 412.25 685.7 411.7 687 411.05 688.35 410.1 690.8 408.75 694.5 407.75 698.75
L 407 702.75
Q 406.6 705.2 406.5 706.85
L 406.45 707.75 414.35 707.8 416.5 710 422 710 427.85 711.75 427.95 711.8 432.35 711.75 431.75 785.2 416.75 785.25 415.5 714.25 415.35 714.25 414.85 787.1 459.1 787.25 459.1 783.2 433.6 783.25 433 711.7 458.6 710.75 458.6 710.25
Q 458.55 706.6 457.2 702.75 455.75 698.75 453 696.3 450 693.85 445.85 693.75
L 443 693.95 441.1 694.45 438.5 695.75
Q 435.45 697.95 433.85 701.75 432.4 705.4 432.35 709.2
L 432.35 710 428.35 710.1 422.25 708.25 417.25 708.25 415.1 706 408.25 706.05 409.35 699.05
Q 410.05 695.6 411.5 691.35
L 413 687.7 416.95 680.7
Q 418.55 678.4 419.35 677.5 419.95 676.65 420.6 676
L 425.1 672 430.2 668.85 433.85 667.3
Q 435.25 666.8 435.75 666.7
M 456.25 703
Q 457.25 706.15 457.5 709.6
L 433 710 433 709.2
Q 433.15 705.45 434.5 702 435.75 698.35 438.85 696.25 441.75 694.35 445.75 694.5 449.8 694.6 452.45 696.95 454.9 699.1 456.25 703
M 83.55 464.65
L 86.65 463.3 89.9 462.55
Q 93.2 462.1 96.65 462.9 99.95 463.65 102.55 465.75 105.2 468.1 106.5 471
L 106.65 538.7 80.8 539.5 80.75 489.05
Q 80.9 485.85 81.4 484.15 81.95 481.7 83.25 479.5 84.65 477.3 86.65 476.05 88.7 474.8 91.3 474.4 93.3 474.05 96.3 474.25 99.2 474.6 101.3 475.3
L 101.3 475.15
Q 98.85 474.2 96.4 473.8 93.5 473.45 91.15 473.65 88.35 474 86.15 475.3 84 476.5 82.3 479 81.05 481.05 80.3 483.8 79.8 485.4 79.4 489
L 79.15 519.8
Q 79.1 526.65 79.15 540.3
L 79.15 541.2 107.65 539.5 107.9 470.75 107.8 470.65
Q 106.6 467.35 103.55 464.65 100.95 462.25 97.05 461.25 93.2 460.35 89.8 460.8
L 87.9 461.15 84.4 462.15 82.75 462.9
Q 79.45 464.65 76.8 467.15 74.25 469.4 72.15 472.75 69.95 476.3 69.25 479.4
L 68.8 481.25 68.65 483.15 69.25 542.7 67.75 544.2 67.55 544.45 67.55 547.75 105.5 544.05 105.5 543.85 69.05 546.1 69.05 545.05 70.8 543.3 70.8 528.95
Q 70.9 522.65 70.9 514.85
L 70.9 481.55 71.25 479.9
Q 71.85 477.05 73.8 473.75 75.85 470.6 78.05 468.5 80.55 466.2 83.55 464.65
M 189.1 459.3
Q 187.25 460.15 185.85 462.15 184.05 464.7 182.75 469.5 181.85 472.85 181.25 477.25
L 180.8 540.5 202.85 548.2 202.35 500.8
Q 202.4 495.05 202.25 491.65 201.95 486.25 200.6 482.5 198.85 477.3 195.55 474.75
L 194.1 473.65 192.55 472.9 192.3 472.75 192.1 472.75 191.35 472.5
Q 190.25 472.15 188.9 472.75 188 473.3 187.15 474.5 186.25 476 185.5 478.9 185.15 480.4 184.75 483.5 184.5 485.65 184.5 488.15
L 184.3 539.5 194.4 543.25 193.1 489.55
Q 192.3 486.1 192.25 485.9 191.5 483.55 190.35 482.65
L 190.25 482.75
Q 191.25 483.85 191.85 486 192.05 486.75 192.55 489.65
L 192.5 519.5
Q 192.4 522.45 192.55 527
L 192.75 540.85 186.1 538.25 185.9 520.45
Q 185.9 514.8 185.65 502
L 185.4 488.15
Q 185.4 485.65 185.6 483.55 185.65 481.4 186.25 479.05 186.9 476.4 187.8 474.9 188.4 473.85 189.3 473.4 190.25 472.85 191.25 473.15
L 191.8 473.25 191.85 473.3
Q 191.9 473.35 191.9 473.3
L 192 473.4 192.25 473.5 194.3 474.55 195.15 475.25
Q 198.3 477.55 200.05 482.65 201.25 486.4 201.55 491.65 201.6 492.3 201.5 500.8
L 201.1 545.7 182.8 539.2 182.75 481.3 183.05 477.5
Q 183.5 473.25 184.35 469.9 185.4 465.7 187.15 463 188.45 461.3 189.75 460.75 191.35 460 193.05 460.65
L 194.65 461.3 195.1 461.55 195.15 461.65 195.25 461.65 196.25 462.4
Q 197 462.85 199.1 464.8 201.7 467.75 203.35 471.15 204.8 474.3 205.85 478.4 206.7 481.95 207.15 486.05 207.6 489.9 207.6 493.8
L 207.85 493.8
Q 207.95 489.7 207.65 486 207.35 481.55 206.6 478.25 205.8 474.2 204.3 470.75 202.6 467.05 200 464 197.85 461.85 197.05 461.25
L 196.25 460.75 196.1 460.55 195.9 460.5 195.85 460.4 195.35 460.15
Q 194.6 459.7 193.5 459.25 191.05 458.4 189.1 459.3
M 135.65 242.35
L 55.75 256.3 55.5 407.15 138.05 400.05 159.15 399.75 199.6 411.75 199.35 313.4
Q 199.3 310 198.75 305.8 197.7 297.9 195.3 291.15 192.3 283 187.55 278.15
L 185.35 276.15 184.6 275.65
Q 182.6 274.25 181.1 273.8 178.8 273.1 176.9 274 175.25 274.8 173.85 276.65 172 279.45 170.9 283.8 170 287.85 170 291.4
L 171.6 366.3 188.05 374 188.3 321.4
Q 188.3 319.65 187.85 316.25 187.35 313.25 186.65 311.15 185.9 308.4 184.9 306.25
L 183.8 303.9 180.9 299.5 177.25 295.9 175.1 294.4 175.05 294.5 179.05 297.75 182.25 301.8 184.6 306.4
Q 185.6 308.8 186.3 311.25 186.95 313.65 187.35 316.25 187.85 319.55 187.85 321.4
L 187.1 372.5 172.6 365.65 171.35 291.4
Q 171.45 288 172.35 284.15 173.4 279.85 175.05 277.5 176.25 275.95 177.55 275.4 178.8 274.75 180.65 275.25 181.9 275.6 183.75 276.8
L 186.4 279.25
Q 190.8 283.65 193.75 291.75 196.05 298.25 197.05 306.05 197.5 309.45 197.65 313.4
L 197.55 409 159.4 397.65 137.85 398 135.35 398.25 135.65 242.35
M 95.25 279.9
L 99.55 279.55 101.05 279.65
Q 104.1 279.95 106.15 281.65 108.1 283.3 109.05 286.4 109.55 288.1 109.9 292.25
L 110.05 293.75 110.4 316.4
Q 110.05 356.4 109.9 364.4
L 87.9 365.9 88.65 310.9
Q 88.4 307.45 89 304.25 89.25 302.75 89.8 301
L 91.05 297.9 91.8 296.5 94 293.9 95.25 292.8 96.65 291.9 99.65 290.55 101.3 290.15 101.3 290
Q 100.25 290.15 99.65 290.4
L 98.05 290.9 96.5 291.65 93.8 293.65 92.55 294.9 90.75 297.75 89.4 300.9
Q 88.9 302.4 88.55 304.25 88.05 307.8 88.25 311
L 86.9 366.4 86.8 366.9 111.05 365.4 111.05 364.9
Q 111.65 332.5 111.8 316.4
L 111.55 293.55 111.4 292.05
Q 111.05 288.05 110.5 286 109.5 282.35 107.15 280.5 104.65 278.45 101.15 278.15
L 99.55 278 94.9 278.4
Q 88.35 279.5 84.05 284.4 80.1 288.85 78.25 295.3 77.35 298.35 77.05 301.4
L 76.55 367.5 71.75 368.25 71.25 270.8 115.8 262.5 116.05 399.9 57.55 404.9 57.3 257.75 134.4 243.85 134.75 398.25 116.65 399.8 116.9 261.05 69.75 269.65 70 370.4 78.3 369 78.65 301.55
Q 79.05 298.45 79.8 295.75 81.7 289.35 85.25 285.5 89.05 281.05 95.25 279.9
M 250.65 688.5
L 248.35 686.95 247.1 686.3
Q 245.65 685.55 242 684.45
L 238.6 683.75 231.1 683.55
Q 228.2 683.9 225.8 684.75 220.6 686.45 216.6 690.7 212.95 694.5 210.55 699.7 208.15 704.85 207.25 709.95 206.25 714.5 206.1 720.6
L 206.1 721.5 209.6 721.5 209.65 786.1 209.75 786.25 210.75 788.3 210.8 788.35 210.8 788.45 212.5 790.95 363.75 790.3 363.75 790.1 213.3 789.5 212.05 787.6 211.15 785.8 211.25 719.75 207.85 719.8
Q 207.9 715.1 208.85 710.25 209.95 704.95 212.1 700.35 214.55 695.3 217.85 691.85 221.75 687.95 226.35 686.45 228.55 685.65 231.35 685.35
L 233.85 685.25 238.4 685.55 241.55 686.2
Q 245.2 687.3 246.35 687.95
L 247.5 688.5 249.6 689.85 252.35 692.5 253.85 694.5
Q 254.1 694.75 254.5 695.55
L 256 699.05
Q 256.85 701.35 257 704
L 258.75 704
Q 258.9 702.2 259.35 700.6 259.4 700.35 260.35 697.25 262 693.5 263.85 691.2 268.1 685.6 275.35 683.7
L 278.75 683 282.35 682.8
Q 285.65 682.8 289.35 683.35 297 684.6 301.85 689.3 304.4 691.7 306 695 307.55 698.2 308 701.6
L 308 701.75
Q 307.7 701.75 308.1 702
L 308.1 702.25
Q 307.8 702.6 308.95 702.75 310.35 702.75 309.5 702.5
L 309.5 702 310 699.5
Q 310.6 697.65 311.25 696.2 312.75 692.7 315 690.25 319.3 685 326.75 682.75
L 328.45 682.25
Q 329.2 682.05 330.2 682 332.75 681.5 333.75 681.5
L 335.5 681.45
Q 336.25 681.35 337.25 681.35
L 340.85 681.6
Q 344.75 682.15 347.7 683.45 350.9 684.9 353.6 687.3 358.5 691.95 360.95 699.45 363.15 706.2 363.25 713.5
L 363.35 785.85 321.5 785.8 321.5 785 349 785 348.85 713.2
Q 348.8 710.25 347.75 707.25 346.85 704.1 345 701.8 342.9 699.25 340.1 698.1
L 336 697.3 334 697.35
Q 330.75 697.65 328.25 699.25 325.65 701 324 703.7 322.6 705.8 321.5 709.2
L 320.85 712.1
Q 320.6 713.5 320.6 715.2
L 320.75 783.3 299.75 782.55 299.25 712.75
Q 299.1 711.6 298.7 709.8 297.9 706.8 296.25 704.3 294.4 701.5 291.75 700.05 289.1 698.7 285.85 698.55
L 282.75 698.75 281.25 699.05
Q 280.2 699.3 279.85 699.5
L 278.35 700.05 277 700.85 274.7 702.8
Q 272.8 704.75 271.35 707.95 270.25 710.4 269.75 713.7
L 269.5 715.95 271.35 782.75 247.4 782.2 248.35 715.75
Q 247.75 709 244.65 705.2 243.95 704.1 242.6 703.1 241.35 702.15 240.05 701.7 237.55 700.55 234.35 700.7 231.45 700.7 228.8 702.2 226.2 703.6 224.4 706 223 707.95 221.75 711 220.85 713.25 220.25 716.5
L 219.9 719.3 220.65 783.5 299.75 785.5 299.75 784.3 320.75 785 320.75 786.5 364 786.5 364.1 713.5
Q 364.05 706.1 361.85 699.1 359.2 691.1 354.25 686.55 351.45 683.9 348.1 682.45 344.95 680.95 341 680.45
L 333.6 680.3 326.35 681.55
Q 318.45 683.9 313.95 689.35 311.65 691.95 309.95 695.6 309.45 696.7 308.85 698.45 307.4 692.55 303 688.25 297.8 683.1 289.7 681.75 286.15 681.1 282.25 681.2
L 278.6 681.35 274.85 682.05
Q 267.15 684.1 262.5 690.1 260.3 693 258.75 696.6 258.1 698.45 257.95 699.25
L 256.7 696 256 694.75
Q 255.6 693.85 255.35 693.55
L 253.65 691.3 250.65 688.5
M 237.35 705.05
L 237.35 704.85
Q 234 705.05 232.3 705.85 229.8 707.1 228.3 709.1 226.9 711.05 226.05 713.75 225.2 716.45 225.1 718.85
L 225.85 780.95 242.3 782 222.6 781.55 221.6 719.35
Q 221.6 718.25 221.85 716.75 222.25 714.5 223.25 711.55 224.3 708.8 225.75 707 227.25 704.8 229.55 703.55 231.85 702.25 234.4 702.25 237.2 702.1 239.5 703.05 240.4 703.4 241.65 704.25 242.35 704.75 243.55 706.05 246.4 709.8 246.9 715.95 247.05 716.95 247.05 718.55
L 246.35 781.25 226.85 780.05 225.55 718.85
Q 225.55 716.65 226.35 713.85 227.05 711.3 228.55 709.3 229.85 707.35 232.35 706.1 234.1 705.25 237.35 705.05
M 321.85 712.25
Q 322.1 710.5 322.5 709.5 323.3 706.65 324.85 704.25 326.5 701.65 328.75 700.1 331.15 698.65 334.1 698.45
L 336.25 698.35 336.95 698.5
Q 337.3 698.5 339.7 699.1 342.25 700.15 344.1 702.5 345.7 704.45 346.75 707.5 347.7 710.9 347.7 713.2
L 347.5 783.5 321.5 783.35 321.6 715.2
Q 321.6 713.25 321.85 712.25
M 285.7 700.6
L 287.5 700.75 288.35 701
Q 288.95 701.1 289.6 701.35
L 290.75 701.85
Q 293.1 703.2 294.5 705.5 295.85 707.55 296.7 710.35 297.1 711.75 297.2 713
L 297.35 714.3 297.7 782.5 273.2 781.6 271.5 716.3 271.75 714
Q 272.2 710.85 273.25 708.75 274.4 706.05 276.1 704.25 277.95 702.4 280.5 701.45 282.85 700.5 285.7 700.6
M 129.3 682.7
Q 132.35 681.1 136.15 680
L 141.65 679.2
Q 142.4 679.05 143.6 679.05
L 147.3 679.05
Q 148.6 679.05 151 679.5 155 680.25 158 681.75 161.05 683.25 163.85 686 166.35 688.4 168.3 691.8 171.65 697.85 173.05 705.85 173.5 708.95 173.85 713.3 173.95 718.25 173.85 720
L 169.4 720 169.65 785.55 114.9 786.05 114.9 786.25 170.9 786.8 171.15 721.75 175.55 721.75 175.6 720.95
Q 175.85 717.85 175.6 713.25 175.45 709.65 174.75 705.55 173.3 697.25 169.8 691 167.7 687.35 165.05 684.8 162.3 682.15 158.65 680.3 155.3 678.7 151.25 678
L 147.35 677.7
Q 146.5 677.6 145.4 677.6
L 139.65 678.05 137.8 678.45
Q 137.05 678.55 135.85 678.8 132.5 679.7 128.75 681.7 125.5 683.5 122.55 686.35 119.8 689.35 117.9 692.5 114.4 698.7 112.8 706.85 112.05 711.05 111.9 714.45 111.7 716 111.55 722
L 111.55 722.35 118.55 722.7
Q 118.7 729.85 118.8 751.7
L 118.8 781.5 163.65 780.6 163.75 716.05
Q 162.85 709.7 160.15 705.7 158.55 703.25 156.1 701.7 153.75 700.25 150.6 700 144.25 699.65 139.75 702.25 137.3 703.65 135.5 705.95 133.85 707.9 132.8 710.85 131.05 715.3 131.05 721.7
L 131.15 775.75 159.25 776.35 159.35 774.7 136.55 772.6 136.1 722.7
Q 136.1 720.95 136.4 718.1 136.75 716 137.35 713.7 138 711.5 139.15 709.5 140.25 707.35 142.05 706 143.7 704.6 146.1 704.05
L 146.1 703.85
Q 143.8 704.3 141.85 705.75 140.15 707.15 138.85 709.25 137.8 711.1 136.9 713.5 136.2 715.85 135.85 718.05 135.4 720.7 135.5 722.7
L 135.1 773.3 135.05 773.95 133.1 773.85 133.15 732.3
Q 133.25 724.75 133.1 721.7 133.1 715.8 134.75 711.6 136.65 706.5 140.85 704 142.7 702.95 145.4 702.3
L 150.4 702
Q 152.9 702.25 155.05 703.45 157.1 704.7 158.55 706.75 161 710.55 161.8 716.3
L 162 718.85 162.25 779.25 119.8 780.55 119.25 722 112.3 721.75 112.55 714.5
Q 112.9 710.65 113.55 707 115.05 699.1 118.75 693 120.55 689.8 123.3 687.1 126.05 684.45 129.3 682.7
M 64.3 701.5
Q 66.7 699.3 69.15 698.55 71.65 697.8 74.9 698
L 74.9 697.8
Q 71.65 697.2 69 697.95 66 698.65 63.65 700.75 61.55 702.65 59.95 705.7 58.75 707.85 57.75 711.3 57.15 713.35 56.5 717.25
L 56.25 723.25 57 758.8
Q 57.1 766.75 57 770.7 57.05 771.55 56.95 782.5
L 56.95 783 77.05 785.2 77.15 776 68.55 775 67.55 725 67.75 724.1
Q 68.05 722.05 69 720.5 71 717.25 75.25 716.25
L 75.15 716.05
Q 73 716.4 71.4 717.35 69.7 718.3 68.3 720.1 67.15 721.7 66.75 723.95
L 66.55 725 66.55 776.8 75.3 777.75 75.3 783.3 58 782.05
Q 57.75 774.2 57.75 770.7
L 58 720.3 58.25 717.45
Q 58.55 714.4 59.25 711.7 60.05 708.4 61.15 706.25 62.3 703.55 64.3 701.5
M 697.2 315.65
Q 696.1 316.95 695.45 318.4 694.75 320.1 694.5 321.4 693.85 324.3 693.7 327.5 693.55 330.65 694.65 333.25 695.7 335.85 697.65 337.65 699.45 339.4 701.45 340.05
L 703.25 340.55 704.8 340.75 707.75 340.4 707.75 340.25 704.95 339.9 703.5 339.5 702 338.8
Q 700.4 338.1 698.8 336.5 697.3 334.75 696.25 332.55 695 329.85 694.75 327.4 694.4 324.35 695.05 321.55 695.85 318.2 697.95 316.5 699.1 315.6 700.45 315.3
L 701.75 315.25 703.15 315.5
Q 705.5 316.1 706.95 318.8 707.35 319.6 707.8 321.25
L 708.4 325.65 708.3 326.25
Q 708.3 327.25 708 328.5 707.6 330.35 706.75 332.4 705.9 334.15 705.2 335 704.6 335.75 703.65 336.3
L 703 336.5 703 336.75 703.75 336.65
Q 704.95 336.3 705.75 335.65 707.1 334.3 707.9 333 709 331.1 709.75 328.9 710.15 327.4 710.3 326.4
L 710.3 323.65
Q 710.25 320.5 708.75 317.8 707.85 316.3 706.65 315.25 705.15 314.15 703.5 313.75
L 701.8 313.65 701.7 313.65 700.05 313.9
Q 698.5 314.35 697.2 315.65
M 702.8 294.4
L 695.3 294.3 695.25 298.5 673.65 320.25 676.05 325.65 680.8 325.3 680.8 329.75 684.2 329.75 684.75 354.9 718 353.8 718 353.65 701.75 353.4
Q 695 353.3 686.25 353.3
L 686.15 327.75 682.9 327.75 682.9 323.05 677.4 323.4 676.15 320.75 697 299.25 697 296 701.25 296 701.3 299.65 726.05 316 726.15 316.05 727.75 316.05 727.75 319.5 724.3 320.4 724.25 320.4 724.15 320.5 721.55 324.15 721.5 324.25 721.2 354.65 705.8 355.4 669.5 358.65 657.55 360.8 657.65 361 677.7 358.75 705.95 357.15
Q 706.1 357.15 722 356.25
L 722.8 356.25 722.2 324.5 724.65 321 728.4 320 728.45 315.4 726.25 315.4 702.75 298.9 702.8 294.4
M 731 96.75
L 730.95 96.7 727.9 92.2 727.65 103.45 722.45 95.7 722.5 102 722.65 102.2 727.65 110.2 727.65 123.25 724.45 120.35 724.05 123.95 724.05 124 727.3 129.6 727.05 142.35
Q 726.15 142.85 725.5 143.9 725.15 144.5 725.15 145.1
L 725.15 146.15
Q 725.5 147.45 726 148.15 726.95 149.35 727.45 149.65
L 727.75 149.9 727.25 156.25
Q 727.05 160 726.65 163 726.15 167.2 725.7 169.75 724.85 174.25 724.25 176.35 723.1 180.3 722 182.6
L 721.2 184.1 719.8 186 718.15 187.7
Q 716.3 189.35 712.75 191.65
L 707 195.45
Q 704.3 197.3 701.65 199.95 700.95 200.65 699.25 202.65
L 698.25 204.15
Q 697.65 204.9 697.25 205.65 695.55 208.8 694.75 212.35
L 693.75 219.2 693.8 221.15 694.15 223
Q 694.4 224.6 695.45 226.6 696.95 229.5 700.25 232.1 702.25 233.8 705.75 236.15 707.3 237.35 707.8 238.15 708.35 238.9 707.8 240.1
L 707 241.9 713.7 242.35 713.9 252.85 711.8 253.25 710 253.85
Q 709.9 253.85 708.05 254.5
L 705.4 256.05 704.55 256.8 703.8 257.65 703.25 258.75
Q 702.95 259.35 702.95 260
L 702.95 260.65 703 261.05 703 262.55 687.8 265.75
Q 686.75 266 682.55 267.4
L 677.45 269.4
Q 675 270.45 672.4 271.75 671.75 271.95 669.95 273 669 273.4 667.5 274.25
L 658.2 280.15
Q 657.8 280.45 653.75 283.5
L 649.5 287
Q 647.25 288.9 645.5 290.75
L 638.05 298.9
Q 636.05 301.45 634.75 303.25 632.7 306.05 631.75 307.75
L 621.75 309.55 620.75 308.15 620.2 309.55
Q 615.4 321.2 603.8 349.8
L 603.15 351.65 612.45 349.65 612.75 377.9 640.05 360.05 640.5 359.8 640.45 359.4 639.8 336.9 636.2 336.5 621.75 318.05 610.9 345.75 612.55 347.4 606.5 348.8 621.2 311.5 637.15 332.8 642.4 332.8 642.55 360.3 605.75 385.9
Q 600.35 389.25 596.25 392 593.5 393.85 591.75 395.5 590.7 396.4 589.75 397.65
L 589.05 399.05 588.75 399.9 588.65 400.5
Q 587.9 403.7 589.25 406.4 590.3 408.85 593.2 410.9 594.45 411.75 596 412.5
L 601.55 416.25 603.25 417 603.2 428.75 606.05 431.4 606.9 522.7 607.05 522.7 607.9 430.5 607.05 429.8 606.8 429.15
Q 606.7 428.45 607 427.75 607.65 426.4 609.3 425.25 611.75 423.45 616 421.8 621.65 419.7 630.75 417.55 636.3 416.3 645.95 414.65
L 676.65 410.75 692 409.25
Q 703.75 408.2 707.45 408
L 722.9 406.9
Q 724.6 406.75 730.55 406.4
L 761.5 405.55
Q 765.85 405.55 769.25 405.65
L 808 406.8
Q 812.5 407 815.7 407.25
L 846.55 409.4 846.65 409.25
Q 837.6 408.15 831.25 407.65
L 800.25 405.25
Q 795.1 405 792.5 404.9 788.5 404.65 784.75 404.5
L 769.25 404 746 403.9 707.25 405.9 691.8 407.15
Q 681.45 408.05 676.4 408.65
L 668.7 409.5
Q 664.45 410 661 410.5
L 645.65 412.75
Q 636.95 414.2 630.3 415.75 621.8 417.75 615.4 420.15 610.7 422.1 608.3 423.9 606.3 425.35 605.5 427.05
L 605.25 428.25 604.95 428 604.9 413.5 604.2 413.4 604 413.3 603.4 411.25 603.4 413.25
Q 601.1 412.75 598.9 412 595.9 410.9 594 409.55
L 593.4 409.15
Q 592.95 408.8 592.65 408.25 592.15 407.25 592.3 406.3 592.55 405.4 593.3 404.4 594.6 402.95 597 401.5 598.5 400.5 601.2 399.15 605.4 397.2 610.15 395.5 618.5 392.45 628.75 389.9
L 647.65 385.25
Q 656.8 383.45 657.2 383.4
L 666.75 381.75
Q 682.1 379.6 686.05 379.25 690.25 378.75 705.45 377.5 721.75 376.45 724.9 376.4
L 783.25 375.65 822.05 377.15 836.65 378.4 850.95 380.9
Q 855.95 381.95 860.2 383.65 863.55 385.05 864.55 385.65 866.1 386.35 868.55 388.25
L 871.05 390.9 871.7 391.9 872.25 393.15 872.2 393.25
Q 871.8 394.4 871.95 395.8 871.95 396.15 872.2 396.65
L 871.5 506.15 849.75 502.25 826.45 499.3 799.7 497.5
Q 799.85 468.3 799.8 456.9
L 799.9 436.15
Q 800.1 433.95 801 431.5 802.05 429.15 803.45 427.5
L 803.8 427 806.5 424.8 808.15 424.05 812.75 423 816.45 423
Q 818.95 423.3 820.75 424.4 824.45 426.4 826.15 431.75 826.85 434 827.05 436.55
L 827.5 492.9 804.65 492.4 804.8 442.4
Q 804.75 441.65 804.8 440
L 805.25 437.55
Q 805.25 437.15 805.5 436.4
L 806.45 434.15 807.8 432.15 808.7 431.3 810.2 430.3 811.9 429.65 815.5 429.15 815.5 428.9 814.25 428.9 811.75 429.25
Q 810.9 429.6 810.55 429.65
L 809.45 430.25 807.45 431.8 806.55 432.8 805.95 433.9
Q 805.85 433.95 805.3 435
L 804.5 437.4 804.05 439.9
Q 803.95 441.75 804 442.5
L 802.7 494.25 829.75 495.25 830.15 439.05
Q 830.15 437.2 830 436.3 829.8 433.5 829 430.9 828.15 427.95 826.55 425.75 824.85 423.15 822.25 421.75 819.6 420.25 816.7 420
L 812.5 420 809.75 420.4 807 421.25 805 422.15 803.2 423.4 801.55 424.9 801.15 425.4
Q 799.3 427.45 798.2 430.3 797.1 433.05 796.75 435.8
L 796.7 500.25 812.15 501
Q 814.45 501.1 816.8 501.4
L 835.45 503.15 873.9 509.05 873.2 397.75
Q 873.3 397.9 873.7 398 875.6 398.75 878.8 397.8 881.55 397.15 883.5 395.75 884.35 395.1 885.4 393.9 886.3 392.4 886.45 391.4 887 389.1 885.7 386.25 884.7 384.3 882.55 382.15 881.1 380.7 878.55 379 877.6 378.35 874.25 376.55 866.8 373 855.15 370.5 849.2 369.45 845.25 368.9
L 830.45 367.05 800.65 364.65
Q 797.3 364.4 795.65 364.4
L 785.7 364
Q 779.2 363.75 775.7 363.75
L 765.75 363.65
Q 757.95 363.65 755.75 363.75
L 735.8 364.3 696 366.9
Q 694.45 367 686.05 367.9 678.9 368.6 676.2 369
L 646.65 373.65 636.9 375.75
Q 625.45 378.6 617.7 381.3
L 608.45 385 643.3 360.65 643.5 331.65 637.75 331.65 622 309.9 632 308.4 632.15 308.4 632.25 308.25
Q 633.55 306.25 635.4 303.75
L 642.5 295.55
Q 645.3 292.75 646.45 291.75
L 650.5 288.15 661.4 280.05 673.25 273.5 683.25 269.5
Q 686.75 268.35 688.45 267.9
L 693.7 266.55
Q 696 266.05 699 265.55
L 705.45 264.65 705.45 261.05 705.3 260.65 705.3 260.25 705.5 259.65 705.65 259.4 705.8 259.05 706.25 258.5 706.9 258
Q 707.05 258 707.55 257.55
L 709.05 256.75 711.55 255.9 716.05 254.9 715.75 253.25 716.4 253.75 716.2 239.85 710.75 239.5 710.75 239.1
Q 710.75 237.9 710.15 236.7 709.15 235.3 707.4 233.95 703.35 231.25 701.9 230 698.85 227.55 697.75 225.35 697.05 224.15 696.65 222.45 696.45 221.6 696.45 220.9
L 696.3 219.45 696.65 216.1
Q 696.65 215.6 696.9 214.4
L 697.2 212.9
Q 697.95 209.65 699.5 206.85
L 701.25 204.15
Q 702.3 202.75 703.3 201.65 706 198.95 708.3 197.35 709.9 196.15 713.95 193.45 717.65 191 719.5 189.2
L 720.75 187.9 722.9 184.95 723.65 183.4
Q 724.95 180.65 725.9 176.75 726.6 174.3 727.25 170 727.7 166.8 728.05 163.2 728.35 161.05 728.65 156.4
L 728.9 150.35 729.2 150.35
Q 729.8 157.1 730.55 162.65 731.75 171.35 732.75 175.9 733.85 180.95 734.5 182.45 735.25 184.2 736.45 185.4 737.3 186.5 738.9 187.75 740.5 189.1 744.3 191.75 748.45 194.6 749.75 195.65 755.8 200.35 758.65 205.35 760.3 208.45 761 211.4 761.7 214.5 761.55 217.95 761.55 220 761.25 221.2 761.1 222.65 760.55 224.4 759.45 227.7 757.5 230 755.35 232.5 752.45 233.85
L 751.65 234.15 750.75 234.75
Q 749.85 235.65 749.7 236.5 749.4 237.6 749.75 238.65
L 749.9 239.15 747.75 238.4
Q 745.9 237.8 744.8 237.65
L 741.8 236.9 735.7 236.25
Q 733.75 236.15 732.55 236.2
L 723.4 237.15
Q 721.15 237.6 720.4 237.85
L 720.4 238
Q 726.8 237.7 732.5 237.9
L 744.55 238.9
Q 745.5 238.95 747.3 239.35
L 745.5 239.45 744.5 239.2 744.45 250.1 744.2 250 742.7 249.9 730.7 249.95 721.8 251.2 721.9 251.4 739.55 251.7 742.5 252 749.75 253.45 753.95 255.25 755.7 256.5
Q 756.1 256.8 756.3 257.15
L 756.75 257.9 757.2 259.9 757.05 261.9 756.75 263.15 769.75 265.25
Q 775.3 266.35 781.4 268.05
L 787.05 269.75
Q 790.45 270.9 792.7 271.75
L 798.25 273.8 809 278.9
Q 810.55 279.65 814.15 281.8
L 819.05 285
Q 820.2 285.75 823.75 288.55 827.85 292.1 828.2 292.5 829.4 293.6 832.25 296.75
L 835.9 301.3 839.5 307 843.7 307.25 843.25 307.25 835.95 324.25 835.65 356.5 824.25 353.9 814.55 352.9
Q 812.05 352.75 811.3 352.75
L 792 352.8 785.75 353.25 777.25 352.4 776.5 319.65 774.8 317.05 778.3 313.5 770.7 313.65 787.95 289.65 800.4 286.3 823.65 312.3 822 314 802.25 291 780.5 314.5 784.75 318.75 784.75 352.5 816.75 352.3 816.9 321.15 819.45 316.75 819.25 316.65 816.5 321 816.45 321.05 815.55 351.05 786.4 350.9 786.45 318.05 782.8 314.4 802.25 292.55 822 314.9 824.25 312.5 824.4 312.3 824.25 312.15 800.7 285.25 800.4 285.3 787.25 288.65 767.3 315.25 774 315.4 772.5 316.75 774.7 320.25 775.15 354.3 785.55 355.3 785.75 355.3
Q 789.25 355.05 792.15 354.9
L 814.45 354.9 830.2 356.9 837.45 359 837.15 324.5 843.75 308.05 849.95 307.75 860.45 308.4 854.75 324.25 843.45 324.65 843.25 358.9 858.25 369.9 858.75 338.15 858.5 337.9 853.05 333.75 849.65 333.75 849.75 351.9 853.75 354.5 853.95 340.15 853.65 340.15 853.05 353.25 850.55 351.5 850.95 335.15 852.65 335.15 857.25 338.8 856.3 365.75 845.55 357.75 846.2 327.3 856.8 327.05 859.7 319.15 860.5 336 863.55 335.9 863.65 305.5 862 305.4 861.95 304.05 861.5 305.3 841.25 304 838.4 299.5
Q 837.25 297.95 834.5 294.75 831.1 291 830.25 290.3
L 825.65 286.25
Q 822.65 283.95 820.75 282.65
L 810.3 276.4
Q 809 275.65 807.55 275
L 799.25 271.3
Q 795.95 269.95 793.65 269.15
L 782 265.55
Q 775.85 263.9 770.25 262.9
L 759.45 261.15 759.4 259.75
Q 759.4 259.5 759.2 258.4
L 758.95 257.5 758.95 257.4 758.9 257.3 758.9 257.25 758.8 257.15
Q 758.2 255.9 758.05 255.85 757.7 255.3 757.05 254.85
L 756 254 754.95 253.4 750.4 251.6
Q 749.25 251.2 748.05 250.9
L 746.55 250.6 746.25 241.4 755.9 242.65 756.75 242.6 756.9 242.5 757.2 242.2
Q 757.2 242.05 757 241.85
L 756.95 241.7 756.5 241.45 752.25 239.95 751.9 239.4
Q 750.9 238.1 751.2 236.9 751.25 236.55 751.8 235.9
L 752.05 235.75 752.4 235.6 753.05 235.2
Q 756.25 233.8 758.55 230.9 760.65 228.5 761.8 224.75 762.15 223.8 762.55 221.4 762.75 219.4 762.75 217.95 762.8 214.8 762.05 211.15 761.2 207.7 759.55 204.85 757.85 201.75 755.5 199.4 752.8 196.7 750.4 194.9 748.5 193.4 744.9 190.95 741.45 188.65 739.5 187.1 738.05 185.9 737.05 184.85
L 736.05 183.5 735.4 182.15
Q 734.85 180.8 733.7 175.7 732.95 172.1 731.65 162.5 731.2 159.15 730.3 150.15 730.7 150 731.25 149.65
L 731.8 148.9 732.15 148.2 732.3 147.15
Q 732.4 146.85 732.4 146.4
L 732.45 146.2 732.45 146.15 732.4 145.95
Q 732.4 145.45 732.3 145.25
L 732.15 144.15 731.8 143.4 731.3 142.7 730.75 142.35 730.75 133.65 732.75 135.75 733.25 129.9 730.65 126.2 730.3 114.7 735.25 119.25 735.05 113.95 735 113.85 731 107.75 731 96.75
M 724.25 101.5
Q 726.4 104.85 727.75 106.6
L 729.3 108.95 728.9 95.25 730.25 97 730.4 107.95 730.45 108 734.15 114.2 734.15 116.5 728.95 111.2 729 109.85 724.25 101.6 724.25 101.5
M 613.4 345.25
L 622.3 322.15 635.05 338.25 638 338.65 638.8 359 613.75 376.05 612.7 349.55 616.75 348.65 613.4 345.25
M 603.25 414.9
L 603.25 415.5 602.25 415
Q 601.65 414.75 601 414.3
L 603.25 414.9
M 727.8 123.45
L 728.75 113.45 728.65 126.7 731.15 130.4 731.05 130.95 728.55 128.4 728.55 129.15 724.95 123.75 724.95 121.6 727.8 123.7 727.8 123.45
M 727 144.9
Q 727.55 144.3 728.05 144.15 728.8 143.95 729.25 143.95
L 730.4 144.15 730.95 144.35 731.4 144.65
Q 731.7 144.9 732 145.4
L 732.25 146.15 732.2 146.4
Q 732.2 146.8 732 147 731.95 147.25 731.45 147.75
L 730.95 148.1 729.25 148.6 729.15 148.65 729 148.65 728.55 148.7 727.9 148.7
Q 727.1 148.6 726.5 147.9 726.05 147.15 726.25 146.15
L 726.55 145.4 727 144.9
M 751.15 240.75
L 752.5 240.65 755.45 241.75 751.15 240.75
M 666.7 381
L 657.05 382.75
Q 652.7 383.7 647.5 384.65
L 628.55 389.15
Q 617.95 391.85 609.8 394.65 604.35 396.55 600.75 398.25 598 399.6 596.4 400.5 593.65 402.3 592.5 403.65 591.45 404.9 591.2 406
L 591.05 406.8 590.5 405.8
Q 589.3 403.5 589.95 400.75
L 590 400.4 590 400.15 590.8 398.4
Q 591.75 397.05 592.5 396.3 594.2 394.7 596.9 392.8 598.2 391.9 605.4 387.15
L 606.45 386.65 618 382.15
Q 625.05 379.9 637.2 377.15
L 656.75 373.65 676.45 371.05 716.05 367.8 735.95 366.9
Q 741.65 366.65 755.75 366.4 758.75 366.3 765.75 366.3
L 795.5 366.75
Q 797.6 366.8 805.45 367.15
L 835.2 369.4 845 370.5
Q 850.45 371.05 854.9 371.8 865.8 373.85 873.75 377.55 876.35 378.85 878 379.9 880.15 381.35 881.8 382.9 883.55 384.5 884.75 386.75 885.95 389.15 885.5 391.25 885.25 392.25 884.55 393.3 883.75 394.4 882.95 395 881.2 396.35 878.65 397 877.8 397.25 876.25 397.4
L 874.5 397.4 874 397.15
Q 873.45 396.95 873.2 396.5
L 873.15 390.4 872.4 392.65 872 391.75
Q 871.85 391.6 870.65 389.75 869.8 388.75 868.9 388 866.7 386.1 864.9 385.15 863.65 384.45 862.7 384
L 860.5 383
Q 853.35 380.05 841.55 378
L 831.95 376.65 822.2 375.8
Q 816.3 375.35 802.75 374.65
L 773.5 373.8 744.25 374.05
Q 728.55 374.65 724.75 374.9
L 705.3 376.25 686 378.3
Q 683.75 378.55 666.7 381
M 627.3 334.15
L 622.95 337.05 622.75 337.15 622.75 337.4 622.4 341.9
Q 622.25 343 622.15 346.4
L 622.3 356.9 629.45 352.15 629.3 352 624.15 354 623.55 337.55 627.05 335.25 626.65 340.4 626.7 342.3
Q 626.7 344 626.9 346.25 627.25 349.35 627.45 350.25
L 627.65 350.25
Q 627.95 348.55 628.2 346.25
L 628.45 342.3 627.9 333.65 627.3 334.15 Z"/>
</g>
</defs>

<g transform="matrix( 1, 0, 0, 1, 0,0) ">
<use xlink:href="#Layer1_0_FILL"/>
</g>

<g transform="matrix( 1, 0, 0, 1, 0,0) ">
<use xlink:href="#Layer0_0_MEMBER_0_MEMBER_0_MEMBER_0_FILL"/>
</g>
</svg>
