
<svg xmlns="http://www.w3.org/2000/svg" version="1.1" xmlns:xlink="http://www.w3.org/1999/xlink" preserveAspectRatio="none" x="0px" y="0px" width="1111px" height="829px" viewBox="0 0 1111 829">
<defs>
<g id="Layer0_0_FILL">
<path fill="#522810" stroke="none" d="
M 731 96.75
L 730.95 96.65 727.9 92.2 727.65 103.4 722.45 95.7 722.55 102 722.65 102.2 727.65 110.15 727.65 123.25 724.45 120.35 724.1 123.9 724.1 124 727.35 129.55
Q 727.2 133.85 727.1 142.3 726.15 142.85 725.55 143.85 725.2 144.45 725.15 145.05
L 725.15 146.15
Q 725.45 147.25 726 148.15 726.9 149.25 727.45 149.65 727.55 149.75 727.75 149.85
L 727.3 156.25
Q 727.05 160 726.65 163 726.25 166.75 725.7 169.75 725 173.65 724.25 176.3 723.15 180.25 722 182.55 721.8 183.05 721.2 184.05 720.6 184.9 720.3 185.35
L 719.85 186 718.15 187.7
Q 716.25 189.4 712.75 191.65 708 194.75 707.05 195.45 704.2 197.4 701.65 199.95 701.4 200.2 699.25 202.6
L 698.25 204.1
Q 697.55 205.05 697.3 205.6 695.6 208.75 694.75 212.3
L 694.35 214.05
Q 694.1 215.55 694.1 215.8
L 693.8 219.2 693.85 221.15
Q 693.95 222.15 694.15 223 694.5 224.75 695.45 226.55 697 229.45 700.25 232.05 702.05 233.55 705.8 236.1 707.3 237.25 707.85 238.1 708.35 238.9 707.85 240.05
L 707 241.85 713.7 242.3 713.9 252.8 711.85 253.25
Q 711.25 253.35 710.95 253.5
L 710 253.8
Q 709.8 253.85 708.1 254.5
L 705.4 256.05 704.6 256.8
Q 704 257.4 703.85 257.65
L 703.25 258.75
Q 703 259.35 702.95 260
L 702.95 260.65
Q 703 260.9 703.05 261.05
L 703.05 262.55 698.65 263.2
Q 693.95 264.1 693.2 264.3
L 687.85 265.7
Q 686.75 265.95 682.6 267.4 678.5 268.95 677.45 269.4 675.4 270.25 672.4 271.7 671.55 272.05 669.95 272.95 669.1 273.35 667.5 274.25
L 662.75 277.1
Q 661.25 278.1 660.45 278.6
L 658.2 280.15
Q 656.9 281.05 653.75 283.45
L 649.55 287
Q 647.45 288.8 645.5 290.75
L 641.7 294.75
Q 639.55 297.1 638.1 298.9 636.05 301.4 634.75 303.25 632.9 305.75 631.75 307.7
L 621.8 309.55 620.75 308.15 620.2 309.55
Q 614.7 322.95 603.85 349.8
L 603.15 351.6 612.45 349.6 612.75 377.9 613.5 377.4
Q 638.95 360.8 640.1 360.05
L 640.5 359.8 640.45 359.35 639.85 336.9 636.2 336.45 621.75 318.05 610.9 345.7 612.6 347.4 606.5 348.8
Q 616.1 324.45 621.2 311.5
L 637.15 332.8 642.4 332.8
Q 642.45 342.2 642.6 360.3
L 633.5 366.55
Q 627.35 370.85 624.25 373
L 610.4 382.65
Q 606.95 385.1 605.75 385.85 599.4 389.85 596.25 391.95 593.35 393.95 591.75 395.45 590.75 396.35 589.8 397.65
L 589.1 399.05 588.8 399.85 588.65 400.45
Q 587.9 403.65 589.25 406.4 590.35 408.8 593.2 410.85 594.45 411.75 596.05 412.5
L 601.6 416.2 602.75 416.8 603.25 417 603.2 428.75 606.1 431.35 606.2 453.85
Q 606.25 461.5 606.3 476.8
L 606.9 522.65 607.1 522.65 607.7 476.8
Q 607.8 469.15 607.8 453.85
L 607.9 430.5 607.1 429.8
Q 606.9 429.45 606.85 429.1 606.7 428.5 607.05 427.7 607.7 426.35 609.35 425.2 611.8 423.45 616.05 421.8 621.8 419.6 630.8 417.55 636.7 416.2 645.95 414.65
L 676.65 410.7
Q 677.1 410.65 692.05 409.2 702.1 408.3 707.45 407.95
L 722.9 406.85
Q 725.5 406.7 730.6 406.4
L 746.1 405.7 761.55 405.55
Q 764.15 405.5 769.3 405.6
L 784.75 405.9
Q 789.95 406.1 800.25 406.45
L 808 406.8
Q 812.6 407 815.7 407.2 826.35 407.8 831.2 408.15 836.55 408.5 846.6 409.4
L 846.65 409.2
Q 838.1 408.2 831.25 407.6 826.1 407.1 815.8 406.3 805.45 405.6 800.3 405.25 797.45 405.05 792.55 404.85 786.85 404.55 784.8 404.45 784.65 404.45 769.3 404 761.65 403.85 761.55 403.85
L 746.05 403.85 730.55 404.4
Q 730.25 404.4 722.8 404.85
L 707.3 405.9
Q 702.15 406.25 691.85 407.15 681.55 408.05 676.4 408.6 676.1 408.65 668.7 409.5 666.1 409.75 661 410.45
L 645.65 412.75
Q 637.1 414.15 630.35 415.75 621.6 417.75 615.4 420.15 610.75 422.05 608.35 423.85 606.35 425.3 605.55 427.05 605.35 427.65 605.25 428.2
L 604.95 427.95 604.9 413.45 604.2 413.35
Q 604.1 413.35 604 413.3
L 603.4 411.2 603.4 413.2
Q 601.3 412.8 598.9 411.95 596.05 410.95 594.05 409.55 593.7 409.35 593.4 409.1 592.9 408.65 592.65 408.2 592.15 407.2 592.35 406.3 592.5 405.5 593.35 404.4 594.6 402.95 597 401.45 598.85 400.3 601.2 399.15 605.05 397.3 610.15 395.45 618.15 392.55 628.75 389.85
L 638.2 387.5
Q 645.3 385.7 647.65 385.25 656.35 383.5 657.2 383.35
L 666.8 381.7
Q 681.6 379.6 686.1 379.2 689.35 378.85 705.45 377.45 720.7 376.5 724.9 376.35
L 763.8 375.55
Q 768.65 375.5 773.5 375.55 776.75 375.6 783.25 375.65
L 802.7 376.2
Q 815.95 376.8 822.1 377.15
L 831.8 377.9
Q 833.5 378 836.65 378.4
L 850.95 380.85
Q 855.9 381.95 860.2 383.6 863.8 385.15 864.6 385.65 866.2 386.4 868.6 388.25 869.2 388.85 870.35 389.95
L 871.1 390.9
Q 871.5 391.45 871.7 391.9 872.05 392.5 872.25 393.1 872.2 393.15 872.2 393.25 871.8 394.5 871.95 395.8 872 396.2 872.2 396.6
L 871.5 506.1 849.75 502.25 826.45 499.3 799.7 497.45
Q 799.9 470.55 799.85 456.9
L 799.9 436.1
Q 800.15 433.75 801.05 431.45 802.05 429.1 803.45 427.45
L 803.85 427 805.15 425.8 806.55 424.8 808.15 424.05 810.4 423.35 812.8 423 815.8 422.95 816.45 423
Q 818.9 423.25 820.8 424.35 824.55 426.45 826.15 431.75 826.85 433.95 827.1 436.55
L 827.5 492.9 804.65 492.4 804.85 442.4
Q 804.75 441.6 804.85 440
L 805.25 437.55
Q 805.3 437.05 805.55 436.4
L 806.45 434.15 807.85 432.15 808.7 431.3 810.2 430.3 810.75 430.05
Q 811.8 429.65 811.9 429.65
L 814.3 429.2 815.55 429.15 815.55 428.85 814.3 428.9
Q 813.3 428.9 813.05 429
L 811.8 429.25
Q 811 429.55 810.6 429.65
L 809.45 430.2 807.45 431.8 806.6 432.8
Q 806.45 433 805.95 433.85 805.85 433.95 805.35 435
L 804.55 437.4 804.1 439.9
Q 803.95 441.3 804 442.45
L 802.7 494.25 829.8 495.25 830.15 439.05
Q 830.15 437.2 830.05 436.3 829.8 433.35 829.05 430.85 828.2 428 826.6 425.7 824.85 423.15 822.3 421.7 819.6 420.25 816.7 419.95
L 812.55 419.95 809.75 420.35 807 421.2 805.05 422.15 803.2 423.4 801.6 424.85 801.15 425.4
Q 799.35 427.4 798.2 430.3 797.05 433.2 796.8 435.8
L 796.8 436.2 796.75 436.45 796.7 500.25 812.15 501
Q 813.7 501.05 816.85 501.35
L 835.45 503.1
Q 837 503.3 840.1 503.65
L 849.4 504.85 873.9 509.05 873.2 397.75
Q 873.4 397.9 873.7 398 875.7 398.7 878.85 397.8 881.65 397.1 883.55 395.7 884.45 395.05 885.4 393.85 886.3 392.35 886.45 391.4 887 389.1 885.7 386.25 884.65 384.2 882.6 382.15 881.05 380.6 878.6 379 877.35 378.15 874.25 376.55 866.8 372.9 855.15 370.5 849.8 369.45 845.3 368.9
L 830.45 367.05 805.6 364.95
Q 802.3 364.7 800.65 364.6 797.65 364.4 795.65 364.35
L 785.7 363.95
Q 777.9 363.7 775.7 363.75
L 765.75 363.65
Q 757.45 363.65 755.75 363.7
L 745.8 363.95
Q 737 364.2 735.85 364.3
L 715.9 365.35 696.05 366.9
Q 693.75 367.05 686.1 367.85 677.85 368.75 676.2 368.95
L 656.45 371.85
Q 655.85 371.95 646.65 373.65
L 636.9 375.75
Q 625.5 378.6 617.7 381.3
L 613.05 383.05
Q 608.9 384.8 608.45 385
L 624.6 373.5
Q 631.1 368.95 633.85 367.1
L 643.15 360.75 643.35 360.65 643.35 360.45
Q 643.35 351.1 643.55 332.2
L 643.55 331.65 637.8 331.6 622 309.85 632 308.35 632.15 308.35 632.25 308.2
Q 633.55 306.2 635.4 303.75
L 642.55 295.55
Q 644.75 293.25 646.45 291.75 647.15 291.1 650.5 288.1
L 654.75 284.7
Q 658.5 281.95 659.15 281.55
L 661.4 280.05 673.25 273.45
Q 676.55 271.95 678.2 271.3 679.05 270.95 683.3 269.45 687.35 268.15 688.45 267.85
L 693.7 266.55
Q 695.45 266.15 699.05 265.55 699.15 265.55 704.4 264.8
L 705.45 264.65 705.45 261.05 705.35 260.6 705.35 260.2 705.5 259.65 705.65 259.35 705.85 259.05
Q 705.95 258.85 706.3 258.5
L 706.9 258
Q 707 257.95 707.6 257.55
L 709.1 256.75 711.6 255.85 716.1 254.9 715.8 253.25 716.4 253.75 716.2 239.8 710.8 239.5
Q 710.8 239.25 710.8 239.05 710.8 237.85 710.15 236.7 709.3 235.35 707.4 233.95 703.6 231.35 701.9 230 698.95 227.55 697.75 225.3 697.05 224.05 696.65 222.45 696.45 221.45 696.45 220.9
L 696.35 219.45 696.65 216.05
Q 696.65 215.8 696.9 214.4
L 697.2 212.85
Q 698 209.55 699.5 206.8 699.6 206.6 700.35 205.45
L 701.25 204.1
Q 702.35 202.7 703.35 201.6 705.85 199.1 708.35 197.3 710.15 195.95 713.95 193.45 717.55 191 719.5 189.2 719.95 188.8 720.75 187.9
L 721.9 186.5
Q 722.2 186 722.9 184.95 723.6 183.55 723.65 183.4 724.95 180.7 725.9 176.75 726.6 174.2 727.25 170 727.8 166.3 728.1 163.2 728.35 161 728.65 156.35
L 728.9 150.3 729.2 150.3
Q 729.85 157.1 730.6 162.6 731.7 170.8 732.75 175.9 733.8 180.6 734.55 182.45 735.15 184 736.45 185.4 737.25 186.35 738.9 187.75 740.75 189.25 744.35 191.75 748.15 194.35 749.8 195.65 755.8 200.3 758.65 205.3 760.25 208.3 761 211.4 761.7 214.35 761.6 217.95 761.6 219.65 761.3 221.2 761.1 222.75 760.6 224.35 759.45 227.7 757.5 230 755.45 232.4 752.45 233.8
L 751.65 234.15 750.8 234.75
Q 749.9 235.55 749.7 236.5 749.4 237.55 749.75 238.6 749.8 238.85 749.9 239.15
L 747.8 238.4
Q 745.85 237.8 744.85 237.6 742.35 237 741.85 236.9
L 737.2 236.3 735.7 236.25
Q 734.3 236.1 732.6 236.2
L 729.5 236.3
Q 726.65 236.6 726.45 236.6
L 723.4 237.1
Q 721.45 237.5 720.4 237.8
L 720.4 238
Q 726.55 237.65 732.55 237.85 733.55 237.9 735.6 238
L 741.6 238.5
Q 742.6 238.55 744.6 238.85 745.55 238.95 747.35 239.3
L 745.55 239.45 744.55 239.2 744.55 239.5 744.5 239.5 744.45 250.05 744.2 250 742.7 249.85 730.7 249.95 721.85 251.2 721.9 251.4 733.7 251.45
Q 734.7 251.5 736.65 251.55
L 739.6 251.7
Q 740.55 251.8 742.5 252
L 749.8 253.45 753.95 255.25 755.7 256.45
Q 756.15 256.8 756.35 257.15 756.45 257.25 756.75 257.85
L 756.8 257.9 756.85 258.05 756.9 258.35 757.05 258.9 757.2 259.9 757.1 261.85 756.8 263.1 769.8 265.2
Q 775.55 266.4 781.4 268.05
L 787.1 269.75
Q 789.8 270.6 792.7 271.7 793.95 272.15 798.25 273.8
L 809 278.85
Q 811.25 280 814.15 281.8
L 819.1 285
Q 819.95 285.55 823.8 288.55 827.7 291.9 828.2 292.45 829.3 293.45 832.3 296.7 835.4 300.6 835.9 301.3 836.15 301.6 839.05 306.2
L 839.5 306.95 843.7 307.25 843.25 307.25 835.95 324.2 835.65 356.5 824.25 353.85 817.8 353.15
Q 815.65 353 814.6 352.9 812.45 352.75 811.35 352.75
L 792.05 352.8
Q 787.9 353 785.75 353.2
L 777.25 352.35 776.55 319.65 776.4 319.45 774.85 317.05 778.35 313.5 770.7 313.6 787.95 289.65 800.4 286.3 823.65 312.3 822.05 313.95 802.25 290.95 780.55 314.45 784.75 318.75 784.8 352.5 816.8 352.3 816.9 321.15 819.45 316.75 819.3 316.65 816.5 321 816.45 321.05 815.6 351.05 786.4 350.85 786.45 318.05 782.85 314.4
Q 786.25 310.6 792.5 303.55
L 802.25 292.55 822.05 314.9 824.25 312.5 824.4 312.3 824.25 312.1 800.9 285.45 800.7 285.25 800.4 285.3 787.3 288.6 767.35 315.25 774 315.35 772.55 316.75 774.7 320.25 775.15 354.3 785.6 355.3 785.8 355.3
Q 787.85 355.1 792.15 354.9
L 804.9 354.6
Q 811.25 354.75 811.3 354.75
L 814.45 354.9 830.2 356.9
Q 831.2 357.15 833.25 357.65
L 837.45 358.95 837.15 324.45 843.8 308.05 849.95 307.7 860.45 308.4 854.8 324.2 843.45 324.6 843.25 358.85 858.3 369.85 858.75 338.1 858.5 337.85 853.1 333.75 849.65 333.75 849.75 351.65 849.8 351.9 853.75 354.5 853.95 340.1 853.65 340.1 853.1 353.25 850.6 351.5 850.95 335.1 852.65 335.1 857.25 338.8 856.35 365.75 845.6 357.7 846.2 327.3 856.85 327.05 859.7 319.15 860.5 335.95 863.6 335.9 863.65 305.45 862.05 305.35 861.95 304.05 861.5 305.3 841.3 303.95
Q 839 300.3 838.4 299.5 837.45 298.2 834.55 294.7 831.3 291.2 830.25 290.3 829.9 289.95 825.65 286.25 822.45 283.75 820.75 282.65 819.3 281.55 818.2 280.95
L 810.35 276.35
Q 808.9 275.55 807.6 275
L 799.3 271.3
Q 795.2 269.65 793.65 269.15 792.05 268.55 787.9 267.25
L 782.05 265.55
Q 776.15 263.95 770.3 262.85
L 764.35 261.8
Q 761.35 261.35 759.45 261.15
L 759.4 259.7
Q 759.4 259.25 759.2 258.35
L 758.95 257.45 758.95 257.35 758.9 257.3
Q 758.9 257.25 758.9 257.2
L 758.85 257.1
Q 758.2 255.9 758.1 255.8 757.8 255.4 757.1 254.8 756.4 254.3 756.05 254
L 754.95 253.35 750.4 251.55
Q 749 251.1 748.1 250.9
L 746.6 250.55
Q 746.55 249.25 746.45 245.8
L 746.3 241.35 755.9 242.6
Q 756.4 242.6 756.75 242.55
L 756.9 242.5 757.05 242.4 757.2 242.2
Q 757.2 241.95 757.05 241.8
L 756.95 241.7 756.55 241.45 752.3 239.95 751.9 239.4
Q 750.9 238.05 751.2 236.9 751.35 236.4 751.85 235.9
L 752.1 235.75
Q 752.15 235.65 752.4 235.55
L 753.1 235.2
Q 756.25 233.75 758.6 230.9 760.7 228.4 761.85 224.75 762.2 223.7 762.6 221.4 762.8 219.1 762.8 217.95 762.85 214.65 762.1 211.15 761.25 207.85 759.6 204.8 757.9 201.8 755.5 199.35 753.1 196.9 750.4 194.85 748.65 193.45 744.9 190.95 741.25 188.45 739.5 187.05 737.95 185.8 737.1 184.8 736.4 184 736.1 183.5
L 735.4 182.1
Q 734.85 180.6 733.7 175.7 732.85 171.45 731.65 162.5 730.95 156.95 730.35 150.15 730.8 149.95 731.3 149.6
L 731.85 148.9 732.15 148.2 732.3 147.6 732.35 147.1
Q 732.4 146.95 732.4 146.4
L 732.45 146.2 732.45 146.15 732.4 145.95
Q 732.4 145.4 732.35 145.25
L 732.3 144.75 732.15 144.1 731.85 143.4 731.35 142.7
Q 731.05 142.45 730.8 142.3
L 730.75 133.65 732.75 135.75 733.25 129.9 730.65 126.15 730.35 114.7 735.3 119.25 735.1 113.95 735.05 113.85
Q 731.65 108.75 731.05 107.75
L 731 96.75
M 724.25 101.5
Q 726.3 104.6 727.75 106.6
L 729.35 108.9 728.9 95.25 730.25 97 730.4 107.9 730.45 108 734.15 114.2 734.15 116.5 728.95 111.15 729 109.8 724.25 101.55 724.25 101.5
M 727.85 123.45
L 728.75 113.4 728.65 126.7 728.85 126.95 731.15 130.4 731.1 130.95 728.6 128.35 728.6 129.15 724.95 123.75 724.95 121.55 727.85 123.65 727.85 123.45
M 726.55 147.85
Q 726.05 147.15 726.25 146.15 726.35 146 726.6 145.4
L 727 144.85
Q 727.55 144.3 728.1 144.1 728.9 143.9 729.3 143.95
L 730.4 144.1 730.95 144.3 731.4 144.6
Q 731.85 145 732 145.35
L 732.25 146.15 732.2 146.4
Q 732.2 146.8 732.05 147 731.95 147.25 731.45 147.75
L 730.95 148.05 730.4 148.25
Q 729.4 148.55 729.3 148.55
L 729.15 148.6 729.05 148.6 729.05 148.65 728.6 148.7 727.9 148.7
Q 727 148.5 726.55 147.85
M 752.5 240.65
Q 752.95 240.75 753.45 240.95 754.75 241.45 755.45 241.75
L 751.15 240.75 752.5 240.65
M 676.45 371.05
Q 678.1 370.85 686.35 370.1
L 716.1 367.8 735.95 366.85
Q 742.55 366.6 755.8 366.4 758 366.3 765.75 366.3
L 775.65 366.3
Q 777.9 366.25 785.6 366.5
L 795.55 366.75
Q 798.85 366.8 805.45 367.15
L 835.2 369.35
Q 838.5 369.75 845.05 370.45 850.85 371.1 854.9 371.8 866.1 373.9 873.75 377.55 876.35 378.8 878.05 379.9 880.25 381.35 881.85 382.9 883.7 384.6 884.75 386.7 886 389.15 885.5 391.2 885.3 392.15 884.6 393.3 883.8 394.35 882.95 394.95 881.2 396.3 878.65 396.95 877.9 397.2 876.3 397.4
L 875.1 397.4 874.55 397.35 874.05 397.15
Q 873.45 396.9 873.2 396.45
L 873.15 390.35 872.4 392.65
Q 872.25 392.2 872 391.75 871.1 390.4 870.65 389.7 870.1 389.05 868.9 387.95 866.65 386.05 864.9 385.15 864.05 384.6 862.7 384 861.25 383.3 860.5 382.95 853.65 380.1 841.6 377.95
L 836.75 377.25
Q 834.35 376.9 831.95 376.65
L 822.2 375.8
Q 814.15 375.2 802.75 374.65
L 783.25 373.95
Q 776.75 373.85 773.55 373.8 767.05 373.7 763.8 373.75
L 744.3 374.05
Q 730 374.5 724.8 374.85 720.55 375.1 705.35 376.25 689.25 377.9 686 378.3 680.9 378.9 666.7 381
L 657.1 382.7
Q 650.75 384.05 647.55 384.65 646.35 384.9 638.05 386.85
L 628.6 389.15
Q 617.7 391.9 609.85 394.6 604.3 396.6 600.75 398.2 598 399.55 596.4 400.5 593.8 402.15 592.5 403.65 591.55 404.8 591.2 406 591.1 406.4 591.1 406.8 590.75 406.3 590.5 405.8 589.3 403.5 589.95 400.75
L 590 400.4
Q 590 400.35 590 400.3
L 590.05 400.1 590.85 398.35
Q 591.7 397.1 592.55 396.3 593.95 394.9 596.9 392.8 599.75 390.85 605.4 387.15
L 606.45 386.6 618 382.15
Q 625.4 379.8 637.2 377.15
L 656.75 373.6 676.45 371.05
M 613.4 345.2
L 622.35 322.15 635.1 338.25 638.05 338.6 638.85 358.95 613.75 376.05 612.7 349.55 616.8 348.6 613.4 345.2
M 603.25 414.85
L 603.25 415.5 602.25 415
Q 601.55 414.65 601 414.3 602.15 414.6 603.25 414.85
M 622.95 337.05
L 622.8 337.1 622.75 337.35 622.4 341.85
Q 622.25 343.35 622.15 346.35
L 622.35 356.85 629.45 352.15 629.35 351.95 624.15 353.95
Q 624.2 352.4 624.2 350.85
L 623.6 337.55 627.1 335.2 626.65 340.35 626.7 342.3
Q 626.7 343.65 626.9 346.25 627.2 349 627.45 350.2
L 627.65 350.2
Q 627.9 349 628.2 346.25
L 628.45 342.3 627.9 333.6 627.35 334.1 622.95 337.05
M 624.05 435.9
Q 622.95 436.4 621.85 437.4 620.1 439 618.85 441.6 617.9 443.8 617.35 446.3 616.5 450.3 616.4 456
L 617.1 475.05
Q 617.6 487.85 617.95 494.05
L 619.05 513.05 619.25 513.05 619.15 494
Q 619.1 484.5 618.85 475
L 618.55 456
Q 618.65 450.5 619.45 446.75 620.65 441.3 623.25 438.9 624.2 438.05 624.95 437.7
L 625.85 437.3 626.85 437.05
Q 628.75 436.85 630 438.65 631.2 440.25 631.85 442.65 632.5 444.75 632.9 447.15 633.3 450.25 633.35 451.8
L 633.85 466.05
Q 634.05 472.4 634.45 485.05 634.75 497.45 634.75 503.8
L 623.75 506.8 623.5 482.2
Q 623 465.35 622.65 456.9
L 623.1 453.3 624.15 449.8 625.3 447.7 626.05 446.8
Q 626.6 446.3 626.95 446.15 627.4 445.95 627.8 446.25 628.15 446.5 628.4 447.15 628.8 448.15 629.05 449.5
L 629.3 451.95 629.5 451.95
Q 629.5 450.3 629.4 449.45 629.35 448.15 628.9 446.95 628.6 446.15 628.2 445.8 627.9 445.5 627.5 445.4 627.15 445.35 626.7 445.5 626.1 445.7 625.55 446.25
L 624.65 447.2 623.9 448.25 622.35 451.8 621.55 455.55 621.4 456.85 621.4 456.9
Q 621.4 465.35 621.7 482.25
L 622.6 508.4 635.55 504.35 635.55 504.1
Q 635.25 496.15 635.15 485.05 635.1 472.35 635.05 466.05
L 635 451.75
Q 635 449.7 634.65 446.9 634.2 444.1 633.65 442.1 632.85 439.25 631.55 437.5 630.65 436.2 629.5 435.65 628.3 434.95 626.6 435.1
L 625.3 435.4 624.05 435.9
M 705.25 425.9
L 707.8 426 709.45 426.25
Q 710.1 426.3 711.05 426.6 711.6 426.75 712.65 427.1
L 714.1 427.85
Q 714.25 427.9 715.5 428.75 718.15 430.65 719.75 433.85 721.15 436.6 721.65 440.25 721.9 441.8 721.9 447
L 721.5 494 697.5 493.5 697.55 443.55
Q 697.55 442.6 697.7 441.7 698 439.75 698.9 438.2 700.7 434.95 704.75 434.3
L 707.55 434.05 708.55 434.15 710.3 434.55
Q 711.15 434.85 711.85 435.4 714.5 437.3 715.05 441.9 715.1 442.35 715.25 445.85
L 716.25 490.65 716.45 490.65 716.8 445.85
Q 716.8 442.65 716.7 441.7 716.35 439.2 715.65 437.5 714.6 435.3 712.95 433.95 711.95 433.25 710.95 432.9 710.5 432.65 709.85 432.55
L 708.75 432.3 707.7 432.2 705.5 432.25 704.45 432.4
Q 702.3 432.7 700.25 433.95 698.5 434.95 697.2 437.2 696.1 439.15 695.7 441.35 695.5 442.8 695.55 443.55
L 695.6 495.35 723.1 495.55 722.55 447
Q 722.55 441.9 722.25 440.15 721.75 436.4 720.3 433.55 718.75 430.25 715.95 428.15 715 427.45 714.5 427.2
L 712.9 426.4
Q 710.15 425.55 709.55 425.45 707.95 425.15 707.85 425.15
L 704.4 425
Q 703.25 425 702.65 425.1 698.75 425.45 695.95 427 692.8 428.6 690.65 431.7 688.85 434.35 687.9 438.2 687.05 442.15 687.3 445.2
L 687.25 471.95
Q 687.4 494.35 687.45 498.8
L 687.45 499.5 705.15 499.3
Q 710.85 499.15 722.25 498.9
L 722.25 498.7 688.8 498.15
Q 688.8 494.65 688.95 472 689.05 463.05 689 458.55
L 688.95 445.05
Q 688.7 441.75 689.4 438.5 690.15 434.95 691.8 432.45 693.5 429.75 696.5 428 699 426.55 702.75 426.05 703.85 425.95 704.45 425.95 704.7 425.9 705.25 425.9
M 940.5 363.15
L 937.95 359.4 937.75 365.8
Q 937.7 366.95 937.7 367.85 936.55 366.1 935.25 364.25
L 933.6 361.85 933.7 367.45 933.8 367.65 937.7 373.8 937.85 383.9 935.3 381.55 935 384.45 935 384.55 935.05 384.7 937.45 388.95 937.25 399.35
Q 937.1 399.4 936.95 399.45 936.35 399.65 935.45 400.35
L 934.9 401 934.1 402.5 933.9 403.35 933.85 404.25 933.9 404.9 933.9 404.95 933.95 405.05 933.95 405.2 934.35 406.55
Q 934.7 407.45 935.2 408
L 935.85 408.6
Q 935.95 408.7 936.1 408.8 936.3 412.9 936.2 418.95 936.15 421.6 935.9 424.3 935.75 426.75 935.35 429.55 935.05 431.9 934.25 434.65
L 933.7 436.25 933.35 436.9
Q 932.8 437.65 931.6 438.65 928.9 441 927.5 442.15 925.05 444.3 923.5 445.9 919.05 450.5 917.3 455.15 916.25 457.75 915.95 460.7 915.85 462.6 915.9 463.5 915.95 464.5 916.25 466.35 916.7 468.3 916.95 469.1 917.3 469.95 918 471.7 919.05 474 921.05 476.5 922.7 478.55 925 480.4 927.15 482.15 929.15 483.2
L 929 493.4
Q 928.95 493.9 928.85 495 928.45 496.5 928.4 496.6
L 928.15 497.4 927.75 498.15
Q 927.6 498.55 926.95 499.65
L 926 501.05
Q 925.3 501.95 924.85 502.35 923.95 503.45 922.4 504.8
L 921 505.9 916.45 508.8 925.75 508.8 927.05 543.15 927.2 543.65 927.55 544.35
Q 928.65 546.1 931.25 548.4 933.3 550 935.7 551.4 938.2 552.75 940.55 553.6 943.15 554.45 945.7 554.9 948.55 555.3 951.1 555.15 953.2 554.9 953.8 554.75 954.45 554.65 956.4 553.95 959 552.8 961 550.95 962.8 549.3 964.45 546.8 965.75 544.7 966.55 542.5 970.9 541.9 976.45 541.45 981.7 541 986.95 540.85 988.7 540.75 992.2 540.75 994.85 540.7 997.45 540.75 1001.85 540.9 1002.7 540.95
L 1007.9 541.4
Q 1008.8 541.45 1010.5 541.75
L 1013.1 542.2
Q 1014.25 542.35 1018.2 543.3
L 1020.75 543.95
Q 1021.55 544.15 1023.2 544.75 1027.4 546.15 1028.15 546.5
L 1037.6 550.95
Q 1041.5 553.3 1042.05 553.65 1045.4 555.95 1046.35 556.7
L 1080.2 582
Q 1083.55 584.35 1089.05 587.85 1090.2 588.6 1098 593.4
L 1102.15 595.95
Q 1100.55 595.6 1098.9 595.3 1091.05 594.1 1078.35 593.35 1068.75 592.85 1057.8 592.7 1048.65 592.55 1037.2 592.65 1019.55 592.7 996.05 593.4 971.45 594.2 955 595.05
L 940.2 594.35
Q 938.25 594.3 937.25 594.35
L 931.35 594.6
Q 930.2 594.6 928.4 594.75 925.9 594.95 925.45 594.95 923.45 595.05 919.55 595.45
L 918.6 595.55 920.75 594.15 921.75 593.15
Q 921.95 593 922.7 592.1
L 923.45 590.9 924.05 589.55 924.4 588.15
Q 924.55 587.4 924.5 586.7
L 924.05 560 928.7 559.65 924.55 557.55 923.25 556.75 921.5 555.3 920 553.65 919.15 552.45 918.15 550.45 917.95 549.8 918.15 539.2 921.05 536.7
Q 923.05 534.8 923.8 533.1
L 924.7 531
Q 925.1 529.65 925.2 528.85 925.45 527 925.45 526.65
L 925.45 524.45
Q 925.4 522.5 924.7 520.1 923.9 517.5 923 516 922.65 515.35 921.75 514.15 921.3 513.55 920.2 512.45
L 916.9 509.8
Q 914.95 507.95 914.2 506.85 914.05 506.65 913.1 505.2 912.5 504 912.3 503.4
L 912.1 502.55 909.8 479.75
Q 910.1 479.55 910.4 479.3
L 910.9 478.6 911.2 477.95 911.4 477.3 911.5 475.65 911.4 474.45 911.25 473.85 910.95 473.15 910.4 472.45
Q 909.85 472 909.6 471.9 909.55 471.9 909.5 471.85
L 909.35 466 910.75 466.95 912 465.3 910.65 464.3 909.05 462.55 908.85 455.1 911.95 459 911.8 455.4 911.75 455.3 909.4 451.7
Q 909.4 448.45 909.55 445.2
L 909.55 445.05 907.1 441.3 907.15 448.9
Q 906.45 448 905.5 446.75
L 904.05 444.85 903.95 448.1 903.9 448.35 904.05 448.55 907.05 453.2 907.25 460.05
Q 907.2 460.4 907.2 460.75
L 905.3 458.95 905.05 461.3 905 461.5 907.1 462.9 907.25 465.65
Q 907.1 466.85 907.05 467.7 907 467.95 906.7 471.8 906.5 471.85 906.35 471.9 905.35 472.5 904.6 473.55 904.3 474.35 904.25 474.75
L 904.25 475.85
Q 904.4 476.55 905.1 477.9 905.7 478.7 906.4 479.3 906.45 482.65 906.3 486.7
L 905.65 495.35
Q 905.5 496.8 905 499.6 904.65 501.65 904 503.75
L 902.9 506.45
Q 902.9 506.5 902.85 506.55
L 902.8 506.65 902.25 507.5
Q 901.45 508.55 899.3 510.5 896.15 513.35 896.05 513.45 894.05 515.45 893.1 516.85 892.75 517.3 891.95 518.8 891.2 520.5 891.1 520.95
L 890.6 523.2
Q 890.5 523.6 890.4 525.4 890.35 527.4 890.75 529.9 891.3 532.55 892.2 534.2 893.3 536.35 894.95 537.85 896.6 539.3 898.5 540
L 898.55 552.15
Q 898.65 552.45 898.3 553.05
L 897.55 554.1
Q 896.95 555 895.8 556.1 894.05 557.85 891.8 559.7
L 890.7 560.65 895.7 560.6 895.9 598.1 888.35 600.85 881 604.6 873.95 609.15 873.35 607.9 873.35 602.95 646.3 518.65 645.85 518.45 583 550.35 563.7 549.75 563.7 549.95 581.95 550.9 562.05 561 562.15 549.3 604.1 534.25 603.95 533.45
Q 603.5 531.55 604 529.35 604.45 527.4 605.9 525.75
L 606.3 525.35 606.55 525.2 606.7 525.05 609.55 523.45
Q 610.35 523 613.7 521.7
L 615.8 520.85 631.2 516.6
Q 632.7 516.3 640.2 514.9 643.7 514.2 644.7 514.1
L 676.7 510.75 704.25 509.1
Q 710.35 508.8 722.6 508.15 738.05 507.4 741 507.3 747.15 507.1 759.4 506.7
L 777.8 506.2
Q 780.85 506.15 796.2 506 811.55 506.15 814.6 506.2
L 823.8 506.45
Q 826.85 506.6 833 506.9
L 851.3 508.45
Q 858.3 509.5 860.35 509.9
L 864.85 510.95
Q 865.55 511.1 867.05 511.6
L 869.2 512.35
Q 873.9 514.1 877.25 516.55 879.15 517.9 880.55 519.6 882.15 521.55 882.65 523.45
L 882.6 545
Q 881.05 545.7 880.35 546.5 879.5 547.3 878.4 548.75 877.5 550.15 876.95 551.3
L 874.7 556.7
Q 873.85 559.2 873.8 559.45 872.95 562.3 872.3 565.05 871.1 570.1 870.1 576.45 869.95 577.4 869.85 578.35
L 869.65 532.8 791.7 536.6 714.65 540.9 714.65 541.15 867.9 534.6 868.7 587.95 869.85 588
Q 870.35 581.95 871.1 576.6 872 570.45 873.1 565.25 873.95 561.7 874.55 559.65
L 876.4 554.25
Q 876.9 553 877.6 551.65 878.15 550.45 879 549.2 880 547.7 880.8 547.05 881.65 546.15 883.1 545.55
L 883.3 545.4 883.3 523.4 883.25 523.35
Q 882.85 521.45 881.05 519.2 879.5 517.3 877.65 516 874.2 513.45 869.45 511.7
L 865 510.25
Q 862.05 509.45 860.55 509.2 857.5 508.55 851.4 507.65 843.25 506.7 842.25 506.65
L 833.05 505.9
Q 830.1 505.65 823.85 505.35
L 814.65 505
Q 810.55 504.85 796.2 504.6
L 759.35 504.9
Q 756.4 504.95 740.95 505.45 737.7 505.55 722.55 506.15 721.95 506.2 704.15 507.05 694.85 507.5 685.75 508.1
L 676.55 508.7
Q 676.45 508.7 667.35 509.45
L 644.4 512.1
Q 643.3 512.2 639.85 512.9 632.5 514.25 630.75 514.65 624.75 516.1 621.8 516.9
L 613 519.9
Q 609.7 521.25 608.7 521.8
L 605.55 523.6 605.4 523.75 605.25 523.85 604.65 524.45
Q 602.9 526.3 602.25 528.9 601.85 530.95 602.15 533.1
L 560.85 548.4 560.95 561.55 546.05 569.1 467.25 575.25
Q 468.6 574 469.45 572.85 470.65 571.15 471.25 569.6 471.95 567.45 471.9 565.9
L 471.9 564.95 471.55 562.35
Q 471.2 560.7 470.4 558.85 469.55 557.05 468.5 555.8 467.35 554.45 466 553.25 463.8 551.25 463.55 551 462.2 549.7 461.5 548.55
L 461.45 548.5 461.15 547.9 460.9 547.2 459.7 542.4
Q 458.55 536.75 457.5 529.1
L 457.45 528.6 457.65 528.3 457.95 527.65 458.1 526.6
Q 458.15 526.45 458.15 525.95
L 458.2 525.75 458.15 525.5 458.15 524.85 458.1 524.4 457.95 523.8 457.7 523.15 457.2 522.5
Q 456.65 522.05 456.4 521.95 456.35 521.95 456.3 521.9
L 456.15 515.7 456.2 515.7 457.7 516.7 457.95 514.1 456.05 512.1 456.25 505.15 459 509.05 458.85 505.05 458.8 504.95 456.35 501.45
Q 456.35 498.35 456.5 495.15
L 456.5 495.05 454.2 491.65 454.1 493.3
Q 454.05 495.05 453.9 497.95
L 450.7 493.4 450.75 497.35 453.6 501.8 454.05 510.35 452.05 508.5 451.75 510.8 451.75 510.95 451.9 511.15 454 513.2 453.8 521.85
Q 453.55 521.9 453.35 522 452.25 522.6 451.75 523.55 451.4 524.35 451.4 524.65
L 451.4 525.65
Q 451.65 526.6 452.2 527.6 452.65 528.15 453.05 528.55
L 452.05 540.8 451.35 544.55
Q 450.8 546.9 450.3 548.15 450.05 548.95 449.55 549.75
L 447.25 552.9 444.3 558.05 442.8 561.8 442.25 565.85 442.35 568 442.75 570.05 443.5 572
Q 444.4 573.5 444.6 573.8 444.7 573.95 445.25 574.6 445.65 575.15 445.95 575.4
L 447.6 576.7 448.05 577 448.55 577.2
Q 448.9 577.4 449.55 577.6
L 449.9 577.7 342.4 586.05 342.45 586.25 459.55 578.5 459.55 578 541.7 571.35 443.55 621.15 441.9 621.2 442.6 622.7 442.6 625.5 400.75 629 394.4 620.55 394.05 620.35 366 608 341.55 596.05 341.35 570.75 334 570.25 341.45 570.1 341.45 566.5 335.6 564.3 335.2 555.3 330.15 554.5 334.15 553.65 334.25 553.6 334.3 553.6
Q 335.45 553.05 336.6 552 337.75 550.85 338.35 549.95
L 339.05 548.8
Q 339.15 548.7 339.65 547.65
L 340.55 545.2 341.1 542.65
Q 341.15 542.5 341.4 540.05
L 341.4 537.5 341.25 536.15 340.9 534.85
Q 340.6 534.05 340.45 533.6
L 339.3 531.3 338.6 530.2 335.5 526.15
Q 334.4 524.9 332 522.5 330.05 520.6 328.55 519.4
L 326.7 499.05
Q 326.95 498.9 327.15 498.7
L 327.65 498.05 327.95 497.35 328.1 496.75 328.15 496.25
Q 328.2 496.1 328.2 495.55
L 328.25 495.35 328.2 495.1
Q 328.2 494.6 328.15 494.45
L 328.1 493.9 327.95 493.3 327.7 492.65 327.15 491.95
Q 326.6 491.5 326.35 491.4 326.05 491.3 325.85 491.2
L 325.9 490.35
Q 325.95 487.1 326 484.85
L 327.4 486.2 327.85 481.5 325.85 478.9
Q 325.85 476.35 325.7 471.8
L 329.35 474.75 329.2 470.8 329.15 470.7 326.15 466.65 326.2 459.15 323.65 455.7 323.4 461.3
Q 323.4 462 323.35 463.05
L 319.4 457.75 319.45 462.8 323.3 468.3 323.3 472.65
Q 323.3 475.55 323.4 477
L 320.95 474.95 320.6 477.5 320.6 477.6 322.95 481.45
Q 322.75 485.9 322.65 490.35
L 322.6 491.3 323.45 491.35
Q 323.3 491.4 323.15 491.45 322.05 492 321.45 493.05 321.1 493.9 321.05 494.2 321 494.7 321.1 495.3 321.3 496.3 321.95 497.3 322.3 497.8 322.7 498.2
L 320.1 519.9 319.8 520.65 319.35 521.4
Q 318.6 522.35 316.65 524
L 313.75 526.7
Q 312.7 527.7 311.2 529.75
L 310.2 531.5
Q 309.95 532.1 309.4 533.35 308.75 535.2 308.5 537.25
L 308.35 541.2
Q 308.6 545.85 310.5 548.85 311.6 550.55 313.15 551.8
L 314.75 553
Q 315.7 553.85 315.65 554.15
L 315.7 563.7 315.25 565.2 314.75 566.25 314.25 566.85 314 567.1
Q 313.65 567.45 313.45 567.55 313 567.8 312.75 567.85
L 312.05 567.95 311.8 567.95 311.9 583.6 312.1 583.6 312.25 568.4
Q 312.55 568.4 312.9 568.3
L 313.7 568 314.4 567.5 315.2 566.5 315.8 565.4 316.3 563.85 316.4 554.3
Q 316.5 553.6 316 553.1 315.7 552.75 315.2 552.4
L 313.7 551.2
Q 312.1 549.75 311.25 548.35 309.5 545.35 309.35 541.15
L 309.55 537.35
Q 309.75 535.65 310.4 533.7 310.95 532.55 311.2 532 311.5 531.3 312.15 530.4 313.45 528.6 314.6 527.5 315.45 526.65 317.45 524.95 319.45 523.25 320.3 522.15 320.6 521.85 320.9 521.25 321.1 521 321.3 520.2 321.35 520.05 321.5 519.2
L 324.05 499.55 325.2 499.6 326.95 519.85 327 520.15 327.25 520.4
Q 328.05 521.05 330.9 523.65 332.95 525.7 334.25 527.25 334.8 527.85 335.8 529.15 336.8 530.45 337.2 531.1
L 338.9 534.25
Q 339.3 535.3 339.3 535.35 339.4 535.75 339.6 536.5
L 339.75 537.6 339.7 540.05
Q 339.6 540.8 339.4 542.4
L 338.9 544.7 338.5 545.85
Q 338.3 546.5 338.05 546.95
L 336.9 548.95
Q 336.4 549.75 335.45 550.7 334.55 551.5 333.75 551.95
L 320.15 554.75 333.5 556.85 333.9 565.5 339.75 567.7 339.75 568.5 314.95 568.9 314.9 570.45 340.1 572 340.55 596.65 340.8 596.75 345.1 598.85 277.5 569.1 245.85 592.35 242.4 592.65 241.5 584.75 236.7 580.9 234.7 435.65 240.9 432.85 242.75 427.95 210.05 411.9 209.15 274.1 210.5 268.75 207.5 264.95 207.8 256.4 215.45 251.9 216 252.15 215.75 251.75 216.5 251.25 186.95 205.9 186.9 205.75 183.85 202.7
Q 183.2 199.6 182.75 198
L 181.3 192.95
Q 181.1 192.25 179.55 188
L 177.45 183.15
Q 173.25 174.15 166.35 165.4
L 163 161.4
Q 160 158.15 159.4 157.55 157.8 155.9 155.65 153.9
L 151.75 150.45
Q 147.85 147.15 143.45 144.05 141.85 142.9 139.1 141.2 136.95 139.85 135.25 138.95
L 134.75 132.65 135.5 132.1 136.2 131.4
Q 136.6 131.1 136.85 130.7
L 137.45 129.85 137.9 128.85
Q 138.05 128.55 138.15 127.8 138.25 127.45 138.25 126.7
L 138.1 125.6 137.95 125.1 137.3 123.7 136.75 122.9
Q 136.4 122.35 135.5 121.45
L 134.7 120.75 132.5 44.2
Q 132.85 44.05 133.05 43.95 133.15 43.9 133.9 43.15 134.2 42.7 134.4 42.05
L 134.55 41.35 134.6 41.2 134.6 40.85 134.65 40.4 134.55 39.55 134.35 38.75
Q 134.05 37.95 133.6 37.25 133.25 36.6 132.65 36 132.3 35.6 131.5 35
L 130.95 34.6 131.1 13.1 135 16.1 135.4 11.9 134.95 11.5 130.05 6.25 130.55 0.2 127.9 0 127.45 5.55 127.45 5.6 124.3 2.55 122.5 4.45 127.4 9.2 127.2 35.8 123.1 39.9 127.7 43.95
Q 126.7 69.3 125.5 89.8 124.6 105.3 123.85 112.9 123.45 116.85 123.15 118.6
L 122.95 119.5 122.25 119.75
Q 120.55 120.5 119.45 121.7 118.3 122.9 117.9 124.85
L 117.8 125.7 117.85 127.35 118.05 128.25
Q 118.55 130.05 120 131.2 120.85 131.85 121.5 132.1 121.8 132.25 122.15 132.35
L 121.55 140.7 119.25 141.55
Q 116.55 142.6 116.3 142.75
L 110.55 145.5
Q 109.55 146 105.05 148.75 104.15 149.3 102.4 150.55 100.3 152 99.85 152.4 89.75 160.25 82.65 171.1 81.6 172.65 79.3 176.5 77.5 179.85 76.4 182.15 76.1 182.75 75.05 185.05
L 71.65 193.95
Q 70.35 197.95 69.85 200 69.2 202.2 68.35 206.2 67.75 208.9 67.25 212.45 66.8 215.75 66.6 218.35
L 39.5 244.75 47.15 244.75 46.3 408.9 27.05 413.35 26.95 413.35 26.9 413.4 11.9 420.7 19.15 433.7 20.25 452
Q 20.35 455 20.35 461.2
L 21.15 580.3 17.45 582.1 17.05 582.35 11.3 597 7.25 598.15 6.75 598.25 8.75 607.05 11.25 608.5 12 650.45 9.1 651.5 8.8 660.25 0 662.15 6.95 673.4 7.05 673.5 9.45 674.85 9.5 689.75 11.05 689.75 11.05 809.1 80.45 815.5 81.5 822.2 178.95 827.4 392.95 829.2 392.95 829.55 394.4 828.15 400 823.8 464.55 821.5 464.55 827.6 678.95 823.15 679 822.05 693.4 821.5 866.8 819.75 873.95 809.35 875.6 807.6
Q 895.35 807.75 915.15 807.75
L 975.9 807.1
Q 984.9 806.85 986 806.75 987.7 806.65 991.1 806.5 994.1 806.35 996.15 806.15
L 1001.2 805.6
Q 1002.9 805.4 1006.2 804.8 1007.9 804.55 1011.2 803.75 1012.2 803.55 1013.7 803.15
L 1016.15 802.4
Q 1022.05 800.35 1025.35 797.9 1027.95 795.8 1028.9 794.05 1029.3 793.4 1029.5 792.8 1029.7 792.35 1029.9 791.55 1030.15 790.4 1030.1 789.5
L 1039.55 789.75
Q 1041.2 789.85 1049.65 789.95
L 1080.05 789.25 1085.1 788.8
Q 1088.4 788.5 1090.15 788.25 1091.8 788 1095.15 787.5
L 1102.6 785.85
Q 1104.4 785.3 1105.05 785
L 1107.4 783.9
Q 1107.8 783.65 1108.5 783.2 1109.1 782.7 1109.45 782.05
L 1109.5 782.05 1109.45 781.95 1109 765.1
Q 1109.1 765.05 1109.15 764.95
L 1109 764.8 1104.85 605 1104.7 604.95
Q 1101.7 603.45 1099.05 602.7
L 1096.15 601.85 1081.25 599.05
Q 1070.35 597.55 1057.15 596.65 1043.75 595.8 1032.95 595.55 1019.45 595.15 1008.7 595.2
L 966.05 595.5
Q 981.6 594.7 996.05 594.2 1018.3 593.4 1037.2 593.25 1049.2 593.15 1057.8 593.35 1068.1 593.5 1078.35 594.1 1091.15 594.85 1098.75 596.15 1101 596.5 1103.75 597.15 1104.1 597.25 1104.45 597.35
L 1109.2 600.35 1110.7 601.55 1110.9 601.75 1110.95 601.85 1110.95 601.8
Q 1111 601.8 1111 601.9
L 1111 601.95 1110.9 602.15 1110.6 602.6 1109.7 603.35
Q 1108.8 603.9 1107.4 604.45
L 1105.7 605.05 1107.45 605.35
Q 1109.05 605.6 1110.25 604.75 1111.45 604 1111.8 602.4
L 1111.9 602.15 1111.9 602.05 1111.95 601.8 1111.95 601.65
Q 1111.95 601.15 1111.85 600.9 1111.75 600.25 1111.15 599.6 1110.25 598.65 1108.9 598.05 1107.35 597.3 1105.3 596.7
L 1089.6 586.95
Q 1083.7 583.15 1080.85 581.1
L 1072.2 575 1047.2 555.6
Q 1044.3 553.55 1042.85 552.5
L 1038.3 549.7
Q 1037.95 549.5 1033.6 547.25 1032.5 546.6 1031.15 546.15
L 1028.7 545.1
Q 1028.4 544.95 1023.7 543.25
L 1018.6 541.8
Q 1014.6 540.75 1013.4 540.6
L 1010.75 540.15
Q 1008.5 539.75 1008.1 539.75
L 1002.8 539.25
Q 1001.9 539.2 997.5 539.05 995.2 538.9 992.2 539 987.8 539 986.9 539.05 981.55 539.2 976.3 539.65 971.05 540 965.75 540.7
L 965.15 540.8 965 541.35
Q 964.35 543.35 962.85 545.8 961.55 547.85 959.75 549.55 958.25 551 955.65 552.2 953.8 552.8 953.35 552.9 952.9 553 950.95 553.25 948.85 553.4 946 552.95 943.55 552.6 941.2 551.75 939 551 936.65 549.7 934.4 548.35 932.5 546.85 930.3 545 929.25 543.35
L 929.05 542.9 929 542.75 927.75 506.7 923.4 506.7 923.75 506.4
Q 925.25 505.15 926.45 503.8 926.9 503.35 927.65 502.35
L 929.7 499.1 930.4 497.3
Q 930.55 496.95 930.9 495.4 931 495.1 931.1 493.45
L 931.25 481.9 930.65 481.6
Q 928.45 480.5 926.35 478.8 924 476.9 922.65 475.15 920.7 472.65 919.9 470.8 919.25 469.25 918.9 468.45 918.85 468.3 918.3 465.95
L 918 463.4
Q 917.9 461.95 918.05 460.85 918.25 458.4 919.2 455.9 920.9 451.55 925 447.35 926.15 446.1 928.85 443.7
L 932.95 440.2
Q 934.35 438.9 935 438.1 935.35 437.55 935.4 437.35
L 935.6 436.95 936.15 435.35
Q 936.85 433.05 937.35 429.85 937.75 427.15 937.95 424.45
L 938.2 419
Q 938.35 413.55 938.05 408.1
L 937.3 407.2
Q 937.15 407.1 937.05 407 936.85 406.9 936.7 406.7 936.45 406.4 936.2 405.8
L 936 405.25 935.95 404.95 935.9 404.8 935.85 404.7 935.9 404.75 935.85 404.1
Q 935.8 403.9 935.9 403.6
L 936 403.1 936.2 402.6 936.45 402.15 936.8 401.8
Q 937.4 401.3 937.65 401.25
L 938.55 401.05 939 401.15 939.45 401.35
Q 939.9 401.55 940.3 401.95 940.6 402.25 940.9 402.85 941.05 403.15 941.15 403.9 941.25 404.45 941.15 405
L 941.05 405.6 941 405.75 940.85 406.05
Q 940.55 406.4 940.2 406.6
L 938.45 407.4 940.4 418.85
Q 941.7 425.95 942.5 429.5 943.4 433.4 943.9 434.85
L 944.45 436.1 944.55 436.25 945.45 437.4
Q 946.5 438.55 947.45 439.35 950.2 441.8 955.9 446.15 960.75 450.2 963 453.95 964.4 456.35 964.9 458.7
L 965.2 461.25 965.05 463.9
Q 964.9 465.15 964.9 465.2
L 964.1 469.05
Q 963.9 469.9 963.25 471.55 962.5 473.15 962.05 473.9 960.75 476.15 958.85 478 956.85 480 954.65 480.95
L 954.25 481.15 954.8 494.55 966.35 505.8 937.8 507.3 937.75 507.3 937.7 508.15 964.65 510.45 965.05 539.05 965.25 539.05 965.2 509.95 965 509.9 944 507.9 968.9 506.75 956 494.05 955.6 481.95
Q 957.65 480.95 959.8 478.95 961.85 476.95 963.25 474.55 963.35 474.4 964.5 472.1 965.2 470.35 965.45 469.45 965.95 467.6 966.1 466.75
L 966.35 465.35 966.65 461.25 966.35 458.4
Q 965.75 455.7 964.3 453.15 961.95 449.2 956.9 444.95 955.75 443.95 952.65 441.55 949.95 439.45 948.55 438.15 947.25 436.95 946.7 436.3
L 945.85 435.15 945.8 435.1 945.8 435.05 945.5 434.25
Q 945 432.75 944.15 429.1
L 940.55 408.6
Q 940.85 408.4 941.2 408.15 942 407.7 942.55 406.85
L 942.7 406.5 942.8 406.35 942.85 406.2 942.85 406.15 942.9 406.05 943 405.3
Q 943.15 404.55 943.05 403.65 943 402.95 942.65 402.05 942.2 401.15 941.7 400.65 941.1 400.05 940.5 399.75
L 940.5 392.65 942.05 394.25 942.45 389.1 940.4 386.05 940.2 377.7 943.95 381.15 943.8 376.7 943.7 376.6 940.55 371.85 940.55 371.95 940.5 371.75 940.55 371.85 940.55 363.25 940.5 363.15
M 938.45 386.7
L 940 389.05 938.4 387.4 938.4 388.05 935.85 384.35 935.85 382.75 938.05 384.3 938.05 384.15
Q 938.35 381.35 938.55 379.7
L 938.45 386.7
M 911.1 455.6
L 911.1 456.45 909.1 453.5 909.05 452.2 911.1 455.6
M 907.2 461.05
Q 907.2 461.35 907.2 461.75
L 905.85 461.05 905.85 460.1 907.2 461.05
M 907.2 473.8
L 908.35 473.65
Q 908.7 473.65 908.95 473.75
L 909.45 473.85 910 474.05 910.5 474.35
Q 910.95 474.75 911.1 475.05
L 911.3 475.65 911.3 476.1
Q 911.25 476.5 911.1 476.75 910.95 477.15 910.5 477.45
L 910 477.75 909.6 477.9 909.6 477.8 909.05 477.7 906.4 477 906.4 478.05
Q 906.4 478.15 906.4 478.25 905.95 478 905.6 477.55 905.15 476.8 905.35 475.95 905.6 475.2 905.7 475.1
L 906.1 474.55
Q 906.55 474.05 907.2 473.8
M 908 480
L 908.1 480.05 908.2 480.05 910.4 502.75
Q 910.5 503.1 910.7 503.9 910.85 504.55 911.6 506 912 506.6 912.8 507.85 913.85 509.25 915.8 511.1
L 919.1 513.75
Q 919.4 514 919.75 514.45
L 920.4 515.2
Q 920.75 515.75 921.5 516.85 922.2 518.1 923.05 520.55 923.6 522.85 923.7 524.5
L 923.7 526.55
Q 923.7 526.9 923.45 528.5
L 923 530.45
Q 922.35 532 922.2 532.25 921.55 533.7 919.85 535.3
L 916.7 538.1 916.35 538.35 916.2 550.1 916.25 550.2 916.85 551.85 917.7 553.35
Q 918.1 554.1 918.65 554.7
L 920.95 557.15
Q 922 558 922.3 558.15 922.45 558.25 922.65 558.4
L 922.3 558.4 922.9 586.8
Q 922.9 587.5 922.8 587.9
L 922.5 589.05 922.05 590.1 921.4 591.15 919.75 592.9 917.65 594.3 915.4 595.35 912.95 596.1 907.85 597 908.05 598.45 912.5 597.75
Q 913.15 597.65 913.85 597.55
L 925.55 596.25
Q 930.45 595.9 931.4 595.85
L 946.1 595.6
Q 946.15 595.6 949 595.75
L 949.5 595.8 949.5 596 955 596.35
Q 958.6 596.85 960.4 597.25
L 970.95 600.4
Q 979.9 603.65 990.9 609.7 999.75 614.7 1009.55 621.4 1014.45 624.85 1018.5 627.85 1024.2 632.2 1027.15 634.65
L 1027.15 634.7 1027.2 634.7 1040.85 640.65 1020.05 642
Q 1010.75 642.4 1009.05 642.4
L 998.05 642.75
Q 976.35 643.2 976.05 643.2 975.95 643.2 954.05 643.5 914 643.85 866.7 643.6
L 868.4 616.65 869.7 614.95 874.55 610.35 874 609.25 875.5 608.25
Q 877.1 607.2 878.3 606.55
L 887 601.9 896.25 598.5 896.45 598.45 896.7 559.6 893.6 559.6
Q 895.1 558.35 896.6 556.85
L 898.45 554.8 899.25 553.6
Q 899.75 552.7 899.65 551.95
L 899.7 552 899.75 539.1 899.25 538.95
Q 897.4 538.35 895.8 536.9 894.2 535.4 893.35 533.6 892.65 532.45 892.05 529.65 891.65 527.6 891.75 525.45 891.9 523.65 891.95 523.35
L 893.2 519.4
Q 893.55 518.85 894.3 517.65 895.15 516.35 897.05 514.45
L 900.3 511.6
Q 902.6 509.5 903.45 508.35
L 904.2 507.25 904.25 507.1 904.4 506.85 904.6 506.35
Q 904.75 506.1 905.4 504.25 905.9 502.8 906.5 499.9 906.8 498.45 907.2 495.55
L 907.9 486.8
Q 908 483.1 908 480
M 649.45 545.2
L 649.15 545.15 537 598.45 537.1 598.65 649.25 546.65 812 602.35 665.5 603.1
Q 665.95 602.65 666.4 602.15 668 600.4 668.55 597.3 668.9 595.2 668.65 592.15 668.3 589.3 667.65 587.2 666.85 584.45 665.45 582.55 663.9 580.3 661.7 578.9 659.35 577.5 656.9 577.05 654.55 576.55 651.8 576.65 649.15 576.75 646.75 577.6 644.4 578.4 642.3 580.25 640.4 581.95 639.15 584.25 637.95 586.35 637.3 589 636.7 591.45 636.55 594 636.45 595.7 636.5 596.55 636.5 597.8 636.65 599.05 637 602.1 637.85 604 638.5 605.5 639.15 606.25 639.5 606.65 639.85 607
L 480.7 616.15 643.45 534.65 837.9 605.4 450.55 620.85 646 521.05 872.05 603.85 872.05 605.35 871.4 604.05 838.6 605.4 643.3 532.7 477.2 617.1 644.05 607.9 641.65 606.9
Q 640.8 606.55 640.05 605.55 639.35 604.65 638.9 603.55 638.1 601.4 637.85 598.95
L 637.75 596.5
Q 637.7 595.7 637.8 594.1 637.95 591.65 638.55 589.35 639.2 586.8 640.3 584.9 641.5 582.7 643.2 581.25 645.05 579.65 647.2 578.9 649.3 578.15 651.85 578.05 654.5 577.95 656.6 578.45 658.85 578.9 660.9 580.15 664.7 582.5 666.2 587.65 666.8 589.65 667.05 592.35 667.3 595.15 666.95 597.05 666.55 599.6 665.15 601.1 664.5 601.9 663.45 602.45 662.5 603 661.55 603.1
L 661.5 603.1 661.55 604.8 824.4 604.35 649.45 545.2
M 655.7 665.8
Q 656.35 665.9 657.7 666
L 659.25 666.3 663.55 667.75
Q 665.65 668.55 667.3 669.45 668.45 670 669.1 670.45 670.1 670.95 670.85 671.5 672.85 672.8 674.2 673.9 675.6 674.95 677.3 676.6 678.9 678.2 680.1 679.6 681.7 681.45 682.6 682.85 683.8 684.5 684.85 686.3 686.75 689.5 688.4 693.7
L 689.75 697.6
Q 690.3 699.4 690.65 701.1
L 661.95 700.65 661.85 695.35
Q 661.85 694.9 661.6 692.5
L 661.3 689.7
Q 660.95 687.8 660.8 686.85 660.5 685 660.2 684.1
L 659.35 681.35
Q 658.65 679.6 658.3 678.7 657.3 676.6 657 676.15
L 656.3 674.9 656.05 674.55 657.05 674.6 655.7 672.95
Q 654.1 670.95 651.55 668.85 649.3 667.05 647.2 665.8 649.4 665.7 651.6 665.7
L 655.7 665.8
M 655.2 674.5
L 656.4 676.5
Q 656.65 676.9 657.65 679 658.55 681.25 658.65 681.6
L 660.6 689.8 660.85 692.6
Q 661.1 694.85 661.1 695.4
L 661.15 701.4 666.1 701.5 700.25 706.45 701.65 819 683.8 819.1 684.15 723.2 632.55 723.15 633.6 820.05 650.3 821.2 621.5 821.9 621.15 820.65 621.75 705.2
Q 621.85 699.3 622.95 694.85 624.25 689.4 627.15 685.5 628.55 683.55 630.55 681.7 632.7 679.8 634.75 678.7 638.85 676.3 644.45 675.15 649.7 674.05 654.85 674.45
L 655.2 674.5
M 960.5 596.85
Q 958.95 596.5 955.8 596.05 956.9 596 958 595.95
L 1008.7 595.5
Q 1019.5 595.45 1032.9 595.85 1045 596.25 1057.1 597.05 1071.2 598 1081.2 599.45 1086.1 600.2 1087.15 600.4
L 1098.9 603.1
Q 1101.2 603.75 1104.4 605.25
L 1108.3 765.45
Q 1107.15 766.4 1105.75 767.05 1105.5 767.2 1103.95 767.85
L 1102.05 768.45
Q 1100.3 769 1098.15 769.4
L 1094.2 770.1
Q 1087.35 771.15 1078.25 771.4
L 1065.3 771.55 1065.25 709.15
Q 1065.25 691.9 1065.3 688.35
L 1065.3 688.3
Q 1065.6 684.2 1064.65 680.45 1063.5 675.85 1060.45 673.65 1057.1 671.35 1052.6 672.4 1050.6 672.85 1048.9 674.35
L 1047.55 675.9 1046.5 677.7
Q 1045.05 680.8 1044.6 685.5 1044.45 687.1 1044.45 693.4
L 1045.15 771.25 1031.45 771
Q 1031.45 770.6 1031.45 770.25
L 1031.6 756.7
Q 1031.8 744.7 1031.75 738.7
L 1031.15 648.9 1039.55 643.5 983.55 643.6 1009.05 643.05
Q 1009.2 643.05 1020.05 642.6 1020.25 642.6 1031.05 642
L 1043.15 641 1027.5 634.25
Q 1023.55 631 1018.8 627.45 1014.75 624.45 1009.85 621 999.75 614.15 991.1 609.3 980.2 603.3 971.1 600
L 960.5 596.85
M 866.9 617.6
L 867.15 617.4 865.5 644.7 866.1 644.7
Q 869.35 644.7 872.6 644.7
L 873.8 794.1 873.35 794.1 873.35 795.3 866.95 800.3 864.3 621.8 866.9 617.6
M 873.7 681.95
Q 873.55 672.5 873.25 663.05
L 872.85 644.7
Q 912.05 644.75 951.4 644.3
L 1035.35 644.75 1029.85 648.2 1030 738.65
Q 1030.05 744.65 1029.8 756.65
L 1029.55 770.2
Q 1029.55 772.3 1029 774.4 1027.9 778.55 1024.75 781.65 1021.85 784.55 1017.6 786.55 1010.65 789.9 1000.65 791.2 998.35 791.5 996.2 791.65 993.25 791.7 991.75 791.75
L 875.45 794.1 873.7 681.95
M 1056.55 673.1
Q 1058.5 673.35 1060 674.35 1061.5 675.35 1062.55 677.05 1063.4 678.5 1064 680.6 1064.9 684.3 1064.65 688.3 1064.7 692.95 1064.45 709.15
L 1063.75 750.75
Q 1063.75 754.25 1063.7 761.2
L 1063.7 770.8 1060.25 771
Q 1057.4 771.05 1056 771.1
L 1050.2 771.2
Q 1048.7 771.1 1047.15 771.05
L 1046 693.4
Q 1045.9 687.1 1046 685.6 1046.25 681.3 1047.6 678.2
L 1048.5 676.55 1049.65 675.15
Q 1051.1 673.8 1052.8 673.35 1053.1 673.3 1053.7 673.15
L 1055.15 673 1055.6 673.05
Q 1056.2 673.05 1056.55 673.1
M 1030.55 776
Q 1030.7 775.45 1030.85 774.9 1031.25 773.5 1031.35 772
L 1045.15 772.6 1045.15 772.9 1046.05 772.95
Q 1052.55 773.25 1062.2 773.25 1071.4 773.25 1078.3 772.8 1083.7 772.4 1086.35 772.1
L 1094.35 770.95
Q 1096.9 770.5 1098.3 770.1 1099.6 769.8 1102.2 769
L 1104.1 768.25
Q 1104.7 767.95 1105.95 767.4 1107.3 766.65 1108.3 765.8
L 1108.7 781.8
Q 1108.55 782.1 1108 782.55 1107.25 783.1 1107 783.2
L 1105.9 783.8 1101.15 785.4 1090.05 787.4
Q 1089.15 787.55 1085 787.9 1080.9 788.25 1080 788.3
L 1049.65 788.9
Q 1041.25 788.8 1039.55 788.7
L 1029.55 788.35 1030.55 776
M 1028.7 788.3
L 1028.9 789.05
Q 1029.15 790.05 1028.8 791.3 1028.7 791.95 1028.45 792.4 1028.1 793.25 1027.95 793.45 1027.1 794.95 1024.65 797 1021.55 799.3 1015.75 801.25
L 1013.35 802
Q 1011.95 802.4 1010.95 802.6 1006.85 803.5 1006 803.6
L 996 804.9
Q 989.3 805.25 985.95 805.45 982.55 805.65 975.85 805.75
L 915.15 806.15
Q 893.45 806.05 875.95 805.85
L 875.9 796.6 991.8 793.9
Q 993.3 793.85 996.35 793.8 997.9 793.7 1000.9 793.3 1011.1 791.95 1018.5 788.35 1023.05 786.15 1026.15 783.05 1028.4 780.8 1029.75 778.05
L 1029.4 788.35 1028.7 788.3
M 174.8 184.4
Q 175.5 185.75 175.85 186.75
L 179.25 196.25 180.95 203.7 181.1 204.15 184.2 207.25 155.55 223.75 135.65 221.75
Q 133.1 220.45 124.8 216.4
L 91.3 200.25 58.25 229.3 68.25 219.55 68.55 219.3 68.6 218.85
Q 68.75 216.2 69.25 212.75 69.55 210.7 70.35 206.6 71.3 202.4 71.85 200.55 72.6 197.45 73.65 194.6
L 77 185.9
Q 77.8 184 78.3 183.05 79.75 180.1 81.15 177.55 83.05 174.3 84.4 172.3 91.55 161.55 101.2 154.2 101.7 153.75 103.7 152.35 105.7 150.9 106.25 150.6 110.65 147.95 111.6 147.5 112.55 147.05 114.35 146.1
L 117.2 144.85
Q 118.15 144.4 120.05 143.7
L 123.7 142.35 124.55 130.55 123.5 130.35
Q 122.8 130.25 122.45 130 121.95 129.8 121.45 129.4 120.65 128.75 120.25 127.6
L 120.1 126.45 120.1 126.2 120.2 125.25
Q 120.45 124.05 121.2 123.25 121.9 122.4 123.15 121.9
L 124.15 121.55 124.2 121.55 124.5 121.35 124.75 121.1 125 120.65
Q 125.3 119.9 125.45 119 125.8 116.95 126.2 113.15 127.1 104.1 127.9 89.9 128.7 76.5 129.9 51.45
L 131.85 122.2 133.55 123.5 134.5 124.6 135.15 125.7 135.25 126 135.3 126.3 135.4 126.55 135.4 126.85 135.35 127.35
Q 135.3 127.55 135.25 127.9
L 135 128.4 134.6 128.95 133.7 129.9 131.75 131.3 132.5 140.7 133.2 141.1
Q 134.75 141.9 137.55 143.6 139.55 144.85 141.8 146.45 146.15 149.5 149.9 152.65
L 157.35 159.6
Q 158.5 160.75 160.8 163.35
L 164.1 167.25
Q 170.65 175.5 174.8 184.4
M 136.1 224.9
L 136 224.95 57.35 239.4 91.85 209.35 91.7 209.2 52.15 241.85 136.4 227.05 163.1 226.95 212.15 250.3 204.8 254.65 204.35 265.95 207.2 269.5 206.1 273.75 206.9 413.9 238.8 429.55 238.45 430.5 231.45 433.6 233.6 582.4 238.6 586.35 239.65 596.05 160.5 586 160.6 575.3 160.45 575.15 158.35 571.8 229.7 584.1 225.85 428.85 159.2 406.65 159.1 406.6 158.7 407.55 169.75 413.45 166.45 418.05 166.35 418.25 166.3 418.45 166.2 568.55 166.4 568.55 167.25 512.25 167.7 418.7 171.6 413 164.95 409.55 225.1 429.4 227.65 581.65 157.85 570.15 155.6 406.3 15.3 420.65 27.45 414.75 47.8 410.1 49.1 242.8 44.3 242.8 51.45 235.9 91.5 202.2 124.1 217.95
Q 133.9 222.65 135.1 223.2
L 135.4 223.3 155.6 224.9 155.8 224.9 155.95 224.85 184.7 207.75 211.1 248.5 163.55 225 136.1 224.9
M 323.85 480.45
L 321.45 477.4 321.45 476.1 323.55 477.4 323.6 477.25 324.05 473.8 323.9 479.55 324.9 480.95 323.85 479.9 323.85 480.45
M 322.55 494.6
Q 322.55 494.55 322.9 494.05 323.45 493.5 324 493.3
L 325.15 493.15
Q 325.5 493.15 325.7 493.25
L 326.2 493.35 326.75 493.55 327.2 493.8
Q 327.65 494.15 327.8 494.5 327.95 494.75 328 495.1
L 328.05 495.35 328 495.55
Q 327.95 495.7 327.85 496.15 327.7 496.5 327.25 496.85
L 326.75 497.15 326.25 497.35
Q 325.55 497.6 325.15 497.65
L 325 497.7 324.95 497.75 324.9 497.75 324.5 497.8 323.8 497.8
Q 322.9 497.7 322.45 496.95 322 496.25 322.2 495.4 322.45 494.65 322.55 494.6
M 281.25 580.75
L 281.1 580.7 241 601.55
Q 236.55 603.8 227.7 608.5
L 201.25 622.75
Q 196.05 625.5 188.05 629.95
L 175 637.15 163.5 639.9 163.5 639.55 62.6 650.5 62.35 649.95 72.5 648.2 72.5 648.4 80.7 647 80.7 646.85 94.9 644.4 94.95 643.9 95.4 630.3
Q 95.35 628.55 95.3 627.6 95.2 626 94.9 624.8 94.45 623.15 93.45 622.15 92.55 621.15 90.75 620.7
L 89.25 620.55 86.1 620.85 85 621.25
Q 83.45 621.9 82.6 623.05 81.95 623.7 81 625.4 80.45 626.45 79.9 628 79.45 629.35 79.15 630.7 78.85 632.05 78.7 633.45
L 78.65 633.5 79.15 645.7 74.15 646.5 74.4 633.35
Q 74.8 630.95 75.1 629.8 75.4 628.5 76.15 626.35 77.25 623.95 77.75 623.2 78.5 621.9 79.9 620.4 81.5 618.9 82.65 618.3
L 83.4 617.85 84.2 617.5
Q 84.3 617.45 85.8 616.9 85.9 616.85 87.55 616.45
L 89.25 616.25
Q 91.15 616.1 92.65 616.45 96.05 617.2 97.95 620.3 99.55 622.9 100.15 626.9 100.4 628.9 100.4 630.45
L 100 642.7 176.75 630.95 176.9 630.95 243.1 596.45 239.8 596.05 246.95 595.35 277.9 572.6 392.55 623 399.35 632.15 445.25 628.3 446.3 630.5 453.45 634.25 401.95 636.55 393.3 626.8 393.1 626.7
Q 369.05 616.6 365.2 615.05
L 337.25 603.55
Q 327.95 599.7 309.25 592.2
L 281.25 580.75
M 281.2 581.4
L 308.8 593.15
Q 331.1 602.8 336.6 605.1
L 364.4 616.95
Q 369.05 618.95 392.1 628.5
L 393.05 629.5 173.15 641.95 172.9 640.7 171.9 642 163.5 642.5 163.5 640.1 175.15 637.9 175.2 637.9 175.25 637.85
Q 177.95 636.55 188.65 631 200.45 624.9 201.95 624.1
L 215.25 617.1
Q 221.45 613.9 228.5 610.05 237.35 605.35 241.75 602.9
L 281.2 581.4
M 13.85 421.35
L 14.45 421.05 154.2 407.9 155.65 569.75 155.4 569.75 155.15 569.7 155.2 569.75 22.25 580.1 21.6 451.95 20.55 433.3 20.45 433.15 13.85 421.35
M 19 584.2
L 22.1 582.6 156.6 571.85 159.15 575.75 159.25 586 14.45 595.85 19 584.2
M 85.35 615.2
Q 84.05 615.6 83.5 615.9
L 81.75 616.8
Q 80.35 617.6 78.65 619.2 77.15 620.75 76.3 622.3 75.55 623.5 74.6 625.75 73.85 627.8 73.45 629.4 73.15 630.6 72.75 633.1
L 72.5 647 60.75 649 62.75 654.35 63.05 654.4 69.7 656.05 70.3 657.75 6.1 661.85 9.7 661.05 10.1 652.2 12.7 651.2 13.05 651.1 13 650.75 12.3 607.85 12.05 607.75 9.7 606.4 8.05 599.05 10.8 598.25 10.65 598.55 159.3 588.65 159.75 631.35 102.05 640.45 102.25 630.5
Q 102.3 628.65 102 626.65 101.4 622.25 99.5 619.3 98.4 617.55 96.75 616.35 95.1 615.15 93.1 614.7 91.25 614.3 89.15 614.45
L 85.35 615.2
M 92.45 623.1
Q 93.2 623.85 93.6 625.15 93.85 626.2 93.95 627.7 94 628.55 94.05 630.4
L 94.1 633.1
Q 94.15 634 94.05 635.75
L 93.7 643.35 80.7 645.6 80.15 633.6 80.6 631
Q 81 629.3 81.3 628.5 81.6 627.5 82.25 626.1 83 624.75 83.65 624 84.4 623.15 85.55 622.55
L 86.1 622.35 88 622 89.25 621.95 90.45 622.1
Q 91.9 622.5 92.45 623.1
M 1.55 662.8
L 4.7 662.15 70.6 658.6 74.5 670.05 74.9 670 79.85 670 82.05 815.6 179 819.3 179 819.65 206.7 819.7 206.7 819.25 389.65 818.3 389.85 818.15 392.7 816.6 392.9 826.9 392.35 827.3 179 826.2 82.45 821.2 81.35 814.5 12.05 808.25 12 688.8 10.45 688.8 10.45 674.3 10.2 674.2 7.7 672.75 1.55 662.8
M 70.5 655.05
L 63.65 653.4 62.65 650.7 162.45 640.65 162.45 643.6 171.05 643.15 168.1 647.1 70.5 655.05
M 80.95 668.9
L 75.35 668.9 70.9 655.95 168.55 648.55 168.9 648.55 172 644.4 173.55 652.9 178.6 654.65 179 818.1 83 814.7 80.95 668.9
M 180.15 653.5
L 174.95 651.75 173.3 643 392.3 631.65 398.3 638.35 400.45 810.5 399.8 810.5 399.6 810.65 394.5 813.5 390.75 656.25 389.15 638.05 207 647.85 207.4 652.4 204.45 653.85 203.1 720.6 203.15 720.65 204.7 725.4 205.15 818.1 180.7 818 180.15 653.5
M 208.1 652.8
L 208.1 652.55 207.75 648.5 388.15 639.25 389.55 656.3 392.65 814.5 389.25 816.4 206.7 818.05 205.65 725.1 204.1 720.5 205.15 654.25 208.1 652.8
M 234.75 597.95
L 176.1 628.75 160 631.3 160.45 588.65 234.75 597.95
M 455.8 501.7
L 458.05 505.3 458.05 505.65 455.6 501.4 455.55 500.55
Q 455.5 498.65 455.3 494.95
L 455.65 495.35
Q 455.8 498.8 455.75 501.5
L 455.75 501.6 455.8 501.7
M 454.1 511.65
L 453.9 511.5 453.9 511.65 452.6 510.65 452.6 509.7 454.2 510.7 454.1 511.65
M 455.75 523.8
L 456.75 524.05 457.2 524.3
Q 457.65 524.65 457.8 524.95
L 458 525.75 457.95 525.95
Q 457.95 526.3 457.8 526.5 457.65 526.85 457.2 527.15
L 456.3 527.6 455.25 527.9 455.15 527.9 455.05 527.95 454.3 528.05 454 528.05
Q 453.15 527.95 452.75 527.25 452.3 526.55 452.5 525.8 452.75 525.15 452.85 525 453.1 524.7 453.2 524.55 453.6 524.05 454.2 523.9 454.9 523.7 455.25 523.75
L 455.75 523.8
M 454.95 530.3
L 455.65 530.3
Q 456.55 537.2 457.7 542.85
L 458.45 546.2
Q 458.65 546.8 459 547.9
L 459.3 548.85 459.65 549.5 459.7 549.55 459.75 549.65
Q 460.55 551 462.1 552.45 462.95 553.3 464.6 554.75 465.8 555.8 466.85 557.1 467.6 558 468.55 559.75 469.25 561.4 469.5 562.75
L 469.65 563.5 469.8 565.9
Q 469.85 567.2 469.25 568.85 468.9 569.95 467.8 571.55 466.95 572.7 465.6 573.85 464.4 574.9 463.05 575.7
L 459.5 577.65 459.45 576.95
Q 455.05 577.05 451.85 576.45 449.75 576.1 448.5 575.25
L 447.8 574.8 447.15 574.15
Q 446.95 574 446 572.8 445.4 571.75 445.05 571.25
L 444.45 569.55 444.1 567.75 444 566
Q 444 565.3 444.2 564.1
L 444.25 563.6
Q 444.3 563.35 444.3 563.2
L 444.55 562.35
Q 444.65 561.9 445.2 560.6
L 448.85 553.95 451.2 550.8
Q 451.75 549.95 452.15 548.85 452.75 547.2 453.25 545
L 454.3 539.15 454.95 530.3
M 548.15 706.65
L 561.4 703.95 561.2 776.6 586.55 778.5 548.2 778.4 548.15 706.65
M 616.65 812.1
L 619.3 821.95 466.65 825.45 466.65 819.3 465.85 819.35 466 812.55 466.8 812.55 466.8 811.75 616.65 812.1
M 465.45 812.55
L 465.5 819.35 400.95 821.85 402.2 820.6 402.5 820.35 402.45 819.9 402.4 812.45 465.45 812.55
M 400.25 812.45
L 400.5 812.45 400.55 819.55 394.75 825.15 394.55 815.6 400.25 812.45
M 873.35 797.4
L 873.35 806.2 867.1 812.8 866.95 802.2 873.35 797.4
M 864.35 803.05
L 864.6 817.9 703.2 819 703.1 808.45 763.65 806.05 864.35 803.05
M 681.4 820.25
L 676.35 820.4 636.2 817.6 635.3 725.85 681.55 725.8 681.4 820.25
M 939 362.45
L 939.8 363.55 939.95 372 940 372.1 942.85 377 942.8 378.4
Q 940.95 376.4 939.9 375.35
L 939 374.4 939.05 373.45 937.6 370.85 939.4 373.4 939.3 370.6
Q 939.3 369.05 939.1 365.75
L 939 362.45
M 753.1 652.95
Q 756.7 654.35 759.7 656.45 762.9 658.65 765.35 661.3 767.8 663.9 769.85 667.2 773.55 673.05 775.7 681 777.6 688.15 777.75 694.95
L 770.9 695.15 770.85 778.25 723.75 778.3 722.5 697.7 714.5 696.9 722.4 696.5 722.4 695.6
Q 722.3 691.5 723.6 687.75 725.1 683.65 727.9 681.25 730.8 678.75 735 678.1 736.85 677.8 739 677.9 740.9 678 742.85 678.6 746.65 679.85 748.9 683.25 750.9 686.3 751.65 690.7 751.95 692.4 752.05 694.75
L 752 773.4 726.9 774.65 725.85 697.6
Q 725.7 694.45 726.2 691.55 726.9 688.15 728.25 685.85 728.7 685.1 729.1 684.6 729.7 683.8 730.1 683.45
L 731.2 682.45
Q 731.65 682.2 732.5 681.7 732.65 681.6 733.9 681.05
L 736.85 680.4 738.35 680.35 738.35 680.15 736.85 680.2
Q 735.8 680.3 735.3 680.45 735.05 680.5 733.8 680.85
L 732.4 681.45
Q 732.05 681.6 731.05 682.25
L 729.9 683.25
Q 729.35 683.75 728.85 684.4 728.7 684.55 727.95 685.7 726.55 688.1 725.85 691.45 725.3 694.65 725.45 697.6
L 725.9 775.7 753.15 774.5 753.6 694.7
Q 753.5 692.2 753.2 690.45 752.45 685.75 750.2 682.4 747.75 678.45 743.35 677.05 741.3 676.35 739.05 676.25 736.75 676.1 734.75 676.45 730.05 677.1 726.75 679.95 723.55 682.65 721.95 687.15 720.7 690.85 720.6 694.8
L 701.9 695.7 701.85 697.55 720.55 699.45 721.7 780.35 772.95 780.35 772.9 697.1 779.75 696.85 779.75 695.9
Q 779.7 688.5 777.6 680.5 775.4 672.3 771.5 666.2 769.3 662.75 766.7 660 764.25 657.25 760.75 654.9 757.75 652.8 753.8 651.2 750.7 649.9 746.3 649.05 743.05 648.55 742.4 648.5
L 738.55 648.3
Q 734.95 648.15 730.75 648.65 727.25 649.05 723.1 650.3 719.55 651.35 715.9 653.35 709.05 657.1 703.95 663.25 701.55 666.1 699.5 669.7 697.9 672.45 696.85 675.1 695.9 673.5 694.7 671.85 693.05 669.6 691.1 667.5 690.5 666.8 689.1 665.5
L 687 663.6 680.15 658.7
Q 678.55 657.7 677.65 657.3
L 675.15 656.1
Q 673.4 655.4 672.5 655 670.75 654.3 669.85 654.05
L 667.15 653.3
Q 666.05 652.95 664.4 652.65 662.55 652.35 661.6 652.15
L 654.7 651.4 650.4 651.4
Q 645.35 651.8 644.8 651.9 643.35 652.05 642.05 652.35 640.25 652.65 639.3 652.9
L 628.6 656.35
Q 625.2 657.95 623.55 658.85 621 660.25 618.8 661.85
L 618.1 662.4 615.75 662.95 612.5 664.2 611.2 664.85
Q 609.2 665.9 608.7 666.25 607.9 666.8 606.35 667.85
L 603.45 670.5
Q 602.15 668.1 599.9 665.6 597.5 663.1 594.9 661.5 593.05 660.45 592.1 659.9 590.15 659 589.15 658.65 586.05 657.5 582.9 657 580.75 656.65 579.7 656.6
L 570.1 656.75 566.95 657.2
Q 566.45 657.3 563.8 657.9 561.75 658.5 560.7 658.8
L 557.75 660.05
Q 555.15 661.35 554.85 661.55
L 552.15 663.3
Q 551.5 663.75 549.6 665.3 548.85 666.05 547.3 667.55 545.55 669.4 543.35 672.65 541.75 675.2 540.35 678.35 539.1 681.1 538.2 684.4 537.35 687.35 536.8 690.7 536.25 694.6 536.3 697.1
L 536.3 704.2 549.85 704.6 546.5 705.25 546.4 780.2 609.45 780.15 609.5 778.5 562.75 775.15 562.6 703.7 564.5 703.3 562.6 703.25
Q 562.85 696.4 565.05 692.15 566.55 689.3 568.8 687.9 571.05 686.5 574.25 686.4 577.35 686.3 580.05 687.2 583.05 688.3 584.95 690.2 588.8 693.9 589.75 700.7 589.95 702.6 589.95 703.65
L 589.3 772.95 589.5 772.95 590.8 703.65
Q 590.85 702.65 590.65 700.55 589.7 693.45 585.65 689.5 583.6 687.4 580.35 686.25 577.4 685.25 574.25 685.35 574 685.3 572.7 685.45 571.65 685.6 571.15 685.75 569.7 686.1 568.25 687 565.8 688.45 564.05 691.6 561.65 696.2 561.4 703.25
L 537.8 702.75 537.8 697.15
Q 537.75 694.5 538.25 690.9 538.75 687.45 539.55 684.8 540.5 681.4 541.6 678.9 542.9 675.8 544.45 673.35 546.65 670.1 548.25 668.45 548.95 667.65 550.45 666.25 552.7 664.4 552.9 664.3
L 555.5 662.6
Q 556.15 662.15 558.25 661.15
L 564.1 659
Q 565.1 658.8 567.15 658.35 568.2 658.2 570.25 657.85
L 573.35 657.6 579.65 657.7
Q 580.45 657.7 581.2 657.85
L 582.75 658.05
Q 586.05 658.6 588.8 659.6 589.8 659.9 591.7 660.8 594.05 662.1 594.4 662.35 596.65 663.7 599.2 666.25 601.45 668.65 602.7 671 602.15 671.5 601.5 672.25 600.6 673.25 600.2 673.8 599.25 675.1 598 677.25 597.9 677.45 597.1 679 596.8 679.5 596.25 680.85
L 594.25 686.55
Q 594.15 686.8 593.75 688.55
L 593 692.5
Q 592.8 693.85 592.6 696.5
L 592.45 700.9 592.8 700.9 614.3 702.4 614.3 702
Q 614.25 699.2 614.65 695.7 615.05 692.3 615.75 689.45 616.2 687.55 616.6 686.35
L 618.9 680.45
Q 619.05 680.1 620.4 677.7 621.65 675.85 622.25 675.1
L 623.25 673.9
Q 624.1 672.9 624.3 672.75
L 626.65 670.65
Q 628.15 669.5 629.3 668.9 629.85 668.55 632.1 667.45 634.65 666.55 635.1 666.45
L 638.15 665.8
Q 638.7 665.7 641.3 665.45 641.8 665.45 642.35 665.6 642.65 665.7 643 665.9
L 643.2 666 643.3 666
Q 643.6 666 643.9 665.95 644.45 666.25 645.95 667.1 647.9 668.2 650.4 670.25 651.75 671.45 652.75 672.45 648.45 672.35 644.1 673.2 638.15 674.35 633.75 676.9 631.65 678.05 629.2 680.15 626.85 682.3 625.45 684.3 622.35 688.5 620.9 694.35 619.65 699.3 619.65 705.2
L 620.25 817.25 618.25 810 466.8 811.2 465.25 641.65 458.3 636.25 455.45 632.35 455.3 632.05 448.5 628.5 446.25 623.85 869.55 607.2 870.8 609.7 864.65 615.5 864.55 615.65 864.4 615.8 861.25 620.85 864.3 801.55 702.9 807.1 701.4 705.4 668.75 701.55 691.7 701.95 691.6 701.45
Q 691.3 699.65 690.6 697.35 690.05 695.45 689.25 693.4 687.7 689.35 685.65 685.85 684.5 683.9 683.4 682.3 682.4 680.9 680.8 679 679.7 677.65 677.95 675.9 676.25 674.3 674.8 673.1 672.6 671.4 671.4 670.65 671.05 670.4 669.6 669.55
L 667.75 668.55
Q 666.55 667.9 663.95 666.8
L 659.45 665.3 657.9 665
Q 656.5 664.85 655.8 664.75
L 651.6 664.6
Q 648.5 664.6 645.45 664.8 644.8 664.45 644.3 664.25 642.25 663.3 641.7 663.1 639.9 662.35 636.2 661.45
L 633.35 661
Q 632.9 660.95 630.5 660.8
L 629.1 660.7 627.75 660.85
Q 626.5 660.8 625.25 660.85
L 622.1 661.15 622.05 661.15
Q 623.03984375 660.5291015625 624.15 659.95 626.55 658.6 629.1 657.55
L 631.65 656.5 639.55 654.15
Q 640 654.05 642.25 653.65 643.55 653.35 645 653.2 646.8 652.95 650.45 652.75
L 658.7 653.15 661.45 653.55
Q 666.05 654.45 666.8 654.7
L 669.45 655.45
Q 670.3 655.7 672 656.4 672.85 656.75 674.55 657.4
L 677 658.65
Q 677.95 659.05 679.35 660 680.15 660.5 681.7 661.45
L 683.9 663.05
Q 684.3 663.35 686 664.8
L 688.05 666.65
Q 689.15 667.65 689.95 668.6 691.7 670.5 693.45 672.8 695.1 675.1 696.3 677.4
L 697.2 679.15 697.8 677.3
Q 698.85 674.15 700.95 670.5 703.05 666.9 705.25 664.35 710.2 658.4 716.75 654.9 720.3 653.05 723.65 652 727.55 650.85 730.95 650.45 735.05 649.95 738.45 650.1
L 742.25 650.35
Q 743.5 650.45 745.95 650.85 750.05 651.7 753.1 652.95
M 130.65 37.9
L 131.3 38.7 131.75 39.6 131.9 40.5 131.9 40.7 131.85 40.85 131.75 41.35 131.75 41.45 131.65 41.5 131.45 41.7 131.3 41.7 130.1 42.75 126.8 39.85 129.65 37 129.85 37.15 130.65 37.9
M 324.6 468.8
L 324.65 467.95 324.5 467.75
Q 324.2 467.2 323.75 466.5
L 325 468.05 324.7 458.55 325.45 459.45 325.5 466.75 325.55 466.85 328.25 471.1 328.2 472.25 324.6 468.8
M 456.3 638.15
L 456.45 638.25 462.5 643 464.65 810.4 402.35 810.5 400.35 637.7 401.1 638.55 453.85 634.75 456.15 638 456.3 638.15
M 601.1 674.45
L 602.85 672.35 607 668.75
Q 608.55 667.75 609.3 667.25 609.6 667.05 611.7 666
L 612.95 665.4 620.9 663 624.95 662.45
Q 625.85 662.35 627.7 662.3
L 630.45 662.35
Q 631.35 662.45 633.15 662.6
L 635.95 663.1
Q 636.6 663.25 637.4 663.55 638.75 663.95 638.85 664
L 640.25 664.6
Q 640.5 664.7 640.85 664.85 639.05 664.95 638.1 665.15
L 634.9 665.85
Q 632.9 666.55 631.85 666.9 629.45 668.05 628.95 668.35 628 668.85 626.3 670.15
L 625.05 671.15
Q 624.85 671.35 623.85 672.3 623.45 672.65 622.75 673.45
L 621.75 674.7
Q 621.05 675.55 619.85 677.35
L 617 683.1
Q 616.45 684.45 615.95 686.15 615.55 687.35 615.1 689.25 614.3 692.65 613.95 695.6 613.55 698.75 613.55 701.65
L 593.2 700.2 593.35 696.55
Q 593.55 693.9 593.8 692.6
L 594.1 690.65 595.5 685.05
Q 595.55 684.9 595.6 684.7
L 598.35 678.6
Q 599.05 677.35 599.5 676.7 600.5 675.2 601.1 674.45
M 432.05 668
Q 432.65 667.7 433.9 667.3 435.3 666.75 435.8 666.65
L 439.7 665.65
Q 439.8 665.65 443.7 665.05 445.05 664.9 447.75 664.8
L 447.75 664.6
Q 445.05 664.6 443.7 664.7 440.65 664.9 439.6 665.15
L 433.65 666.55
Q 432.35 666.95 431.7 667.25
L 428 668.95 426.2 670
Q 425.65 670.4 424.5 671.15
L 421.3 673.75
Q 420.75 674.15 419.8 675.15
L 418.4 676.65
Q 417.45 677.7 415.85 679.9
L 413.6 683.35
Q 412.4 685.4 411.7 687 411.2 688 410.1 690.8 408.65 694.85 407.75 698.7
L 407 702.75
Q 406.6 705.45 406.5 706.85
L 406.45 707.75 414.4 707.8 416.55 710 422 710 427.85 711.75 427.95 711.8 432.35 711.7
Q 432.35 719.8 432.25 724.15
L 431.75 785.15 416.8 785.2 415.55 714.25 415.35 714.25 414.85 787.1 459.15 787.2 459.15 783.15 433.65 783.25 433.05 711.65 458.65 710.75 458.65 710.2
Q 458.5 706.4 457.2 702.7 455.7 698.65 453 696.3 450.05 693.8 445.85 693.7
L 443 693.9 441.1 694.4 438.5 695.7
Q 435.45 697.9 433.9 701.75 432.5 705.2 432.35 709.15 432.35 709.6 432.35 710
L 428.35 710.1 422.3 708.25 422.2 708.2 417.3 708.2 415.1 706 408.3 706.05
Q 408.4 704.6 408.65 703
L 409.35 699.05
Q 410.15 695.2 411.55 691.35 412.25 689.35 413.05 687.65
L 416.95 680.65
Q 418.6 678.3 419.35 677.5 419.9 676.75 420.65 676 421.55 675 422.05 674.6
L 425.1 672 430.2 668.85 432.05 668
M 445.8 694.45
Q 449.8 694.55 452.45 696.9 454.9 699.05 456.3 703 457.3 706.2 457.5 709.6
L 433.05 710 433.05 709.15
Q 433.15 705.45 434.5 701.95 435.85 698.25 438.9 696.25 441.7 694.35 445.8 694.45
M 248.4 686.9
L 247.15 686.3
Q 245.95 685.65 242 684.4
L 238.6 683.75 232.55 683.45 231.15 683.55
Q 228.2 683.9 225.8 684.7 220.6 686.5 216.6 690.65 212.95 694.5 210.55 699.65 208.3 704.55 207.25 709.9 206.25 714.7 206.15 720.6
L 206.15 721.45 209.6 721.45 209.7 786.1 209.75 786.25 210.75 788.3 210.8 788.35 210.8 788.4 212.5 790.9 363.8 790.3 363.8 790.1 213.3 789.45 212.05 787.6 211.2 785.8 211.25 719.75 207.85 719.8
Q 207.95 714.95 208.9 710.25 210 704.85 212.15 700.35 214.5 695.35 217.85 691.85 221.6 688.05 226.35 686.4 228.75 685.6 231.35 685.35
L 233.9 685.2 238.45 685.55 241.55 686.15
Q 245.05 687.2 246.35 687.9
L 247.5 688.45 249.6 689.85 252.35 692.45
Q 252.4 692.5 253.9 694.45 254.15 694.8 254.5 695.55 254.7 695.95 255.1 696.7 255.75 698.1 256.05 699.05 256.9 701.5 257.05 703.95
L 258.75 703.95
Q 258.95 702.15 259.35 700.6 259.8 698.95 260.4 697.25 261.95 693.6 263.85 691.15 268.15 685.55 275.35 683.65
L 278.8 683 282.35 682.8
Q 285.8 682.75 289.4 683.35 297.05 684.6 301.9 689.3 304.4 691.65 306 694.95 307.55 698.1 308.05 701.6
L 308.05 701.7
Q 307.75 701.75 308.1 701.95
L 308.15 701.95 308.1 702.1 308.1 702.2
Q 307.85 702.6 308.95 702.7 310.25 702.75 309.5 702.45
L 309.55 702.15 309.55 702 310.05 699.5
Q 310.55 697.85 311.25 696.15 312.75 692.75 315 690.2 319.3 685 326.75 682.75
L 328.45 682.25
Q 329.05 682.1 330.2 681.95 332.9 681.5 333.75 681.5 333.8 681.5 335.55 681.4 336.6 681.3 337.3 681.35
L 339.15 681.4
Q 339.7 681.4 340.9 681.6 344.75 682.1 347.7 683.4 351.05 684.95 353.6 687.3 358.5 691.9 360.95 699.4 363.2 706.3 363.25 713.5
L 363.4 785.85 321.5 785.8 321.5 784.95 349.05 784.95 348.85 713.15
Q 348.8 710.3 347.8 707.2 346.85 704.05 345 701.8 343.05 699.3 340.1 698.1 337.35 697.4 337.1 697.4
L 336 697.3 334.05 697.35
Q 330.75 697.65 328.25 699.25 325.7 700.95 324.05 703.65 322.55 705.95 321.55 709.15 321.05 711.25 320.9 712.1 320.65 713.35 320.65 715.15
L 320.8 783.3 299.8 782.55 299.3 712.75
Q 299 710.75 298.7 709.8 297.9 706.8 296.3 704.3 294.35 701.45 291.8 700.05 289.15 698.65 285.9 698.55
L 282.8 698.7 281.3 699.05
Q 280.3 699.25 279.85 699.5
L 278.4 700.05 277.05 700.85
Q 276.6 701.1 275.8 701.8 274.8 702.65 274.7 702.8 272.75 704.75 271.4 707.9 270.35 710.35 269.75 713.65
L 269.5 715.9 271.35 782.5 271.4 782.75 247.45 782.15 248.4 715.75
Q 247.75 708.95 244.7 705.15 243.9 704.05 242.6 703.1 241.4 702.15 240.05 701.65 237.6 700.55 234.4 700.65 231.5 700.65 228.8 702.15 226.2 703.6 224.45 706 222.95 708.05 221.75 711 220.85 713.25 220.25 716.45 220.05 717.9 219.95 719.3
L 220.7 783.5 299.8 785.5 299.8 784.3 320.8 784.95 320.8 786.5 364.05 786.5 364.15 713.5
Q 364.05 706 361.85 699.1 359.3 691.2 354.3 686.55 351.55 683.95 348.15 682.4 345.1 681 341.05 680.4
L 337.35 680.15
Q 334.9 680.25 333.65 680.3 333.35 680.3 330 680.7
L 326.4 681.55
Q 318.5 683.85 313.95 689.35 311.7 691.9 309.95 695.6 309.4 696.9 308.9 698.4 307.35 692.45 303 688.2 297.75 683.1 289.7 681.7 285.9 681.1 282.3 681.15
L 278.6 681.35 274.9 682.05
Q 267.3 684 262.5 690.1 260.35 692.9 258.8 696.6 258.25 698.05 257.95 699.2 257.8 698.85 257.7 698.5 257.6 698.15 256.7 695.95
L 256.05 694.7
Q 255.65 693.9 255.35 693.55 254.1 691.75 253.7 691.3
L 250.7 688.45 248.4 686.9
M 237.35 705.05
L 237.35 704.85
Q 233.95 705.05 232.3 705.85 229.75 707.1 228.3 709.1 226.9 711 226.05 713.75 225.2 716.5 225.15 718.85
L 225.85 780.9 242.3 782 222.65 781.55 221.6 719.35
Q 221.65 718.1 221.9 716.7 222.35 714.15 223.25 711.55 224.35 708.8 225.75 706.95 227.25 704.8 229.55 703.55 231.85 702.25 234.45 702.2 237.35 702.1 239.5 703.05 240.3 703.35 241.7 704.25 242.7 705 243.55 706.05 246.4 709.65 246.95 715.9 247.1 717.4 247.05 718.55
L 246.35 781.25 226.85 780.05 225.55 718.85
Q 225.6 716.45 226.35 713.85 227.15 711.2 228.55 709.3 229.95 707.25 232.4 706.1 234.05 705.25 237.35 705.05
M 321.85 712.25
Q 322.1 710.65 322.5 709.45 323.35 706.6 324.85 704.2 326.6 701.55 328.8 700.1 331.15 698.65 334.15 698.4
L 336.25 698.35 336.95 698.45
Q 337.6 698.5 339.7 699.1 342.35 700.15 344.15 702.45 345.85 704.6 346.75 707.5 347.7 710.7 347.7 713.15
L 347.55 783.45 321.5 783.35 321.6 715.15
Q 321.6 713.45 321.85 712.25
M 287.5 700.75
L 288.4 701
Q 288.9 701.05 289.6 701.35 290 701.5 290.8 701.85 293.1 703.15 294.55 705.45 295.9 707.5 296.7 710.35 297.05 711.45 297.2 713
L 297.35 714.3 297.7 782.45 273.2 781.6 271.5 716.3 271.75 713.95
Q 272.25 710.85 273.25 708.7 274.45 705.9 276.15 704.25 277.9 702.4 280.5 701.4 283 700.5 285.7 700.6
L 287.5 700.75
M 136.2 680
L 141.7 679.15
Q 142.8 679 143.6 679.05
L 145.5 678.95
Q 146.1 678.95 147.3 679.05 148.6 679.05 151 679.45 155 680.2 158 681.7 161.2 683.35 163.9 685.95 166.45 688.5 168.3 691.8 171.65 697.75 173.05 705.85 173.6 709.25 173.85 713.3 174 717.2 173.9 719.95
L 169.45 719.95 169.7 785.55 114.9 786.05 114.9 786.25 170.95 786.8 171.2 721.7 175.55 721.75 175.6 720.9
Q 175.85 717.85 175.65 713.2 175.45 709.4 174.75 705.55 173.25 697.05 169.8 691 167.65 687.25 165.05 684.8 162.3 682.05 158.7 680.3 155.55 678.75 151.25 678 148.2 677.65 147.4 677.65 146.1 677.55 145.45 677.6
L 143.55 677.65
Q 142.8 677.7 139.7 678.05 139.15 678.1 137.8 678.4 136.5 678.6 135.9 678.8 132.4 679.7 128.75 681.65 125.6 683.4 122.6 686.35 119.75 689.3 117.95 692.5 114.4 698.7 112.85 706.85 112.1 711 111.9 714.4 111.7 716.25 111.6 722
L 111.55 722.35 118.6 722.65
Q 118.75 732.45 118.8 751.65
L 118.85 781.5 163.7 780.6 163.75 716.05
Q 162.85 709.65 160.2 705.65 158.55 703.15 156.1 701.65 153.7 700.2 150.65 699.95 144.25 699.6 139.75 702.2 137.35 703.6 135.5 705.9 133.9 707.9 132.8 710.85 131.05 715.4 131.05 721.65 131.1 723.45 131.1 732.3
L 131.2 775.75 159.25 776.35 159.35 774.65 136.55 772.6 136.15 722.65
Q 136.1 720.9 136.45 718.1 136.7 716.15 137.4 713.65 138.15 711.2 139.2 709.45 140.3 707.35 142.05 706 143.75 704.55 146.1 704.05
L 146.1 703.85
Q 143.75 704.3 141.85 705.75 140.2 707.05 138.85 709.25 137.8 711 136.95 713.5 136.25 715.8 135.9 718.05 135.45 720.8 135.5 722.65
L 135.1 773.3 135.05 773.9 133.15 773.85 133.2 732.3
Q 133.25 725.2 133.15 721.65 133.15 715.8 134.75 711.6 136.65 706.45 140.85 704 142.85 702.85 145.45 702.3 145.8 702.25 147.95 702
L 150.45 702
Q 152.85 702.15 155.05 703.4 157.05 704.6 158.55 706.75 161 710.45 161.8 716.3 162 718 162 718.85
L 162.25 779.25 119.8 780.55 119.25 722 112.3 721.75
Q 112.5 715.4 112.6 714.5 112.95 710.3 113.6 707 115.1 699.05 118.75 692.95 120.7 689.6 123.35 687.1 126 684.45 129.3 682.65 132.7 680.9 136.2 680
M 69.15 698.55
Q 71.6 697.75 74.95 698
L 74.95 697.8
Q 71.7 697.2 69 697.9 66 698.6 63.65 700.75 61.7 702.5 59.95 705.65 58.65 708.1 57.75 711.3 57.1 713.55 56.55 717.2
L 56.25 723.2
Q 56.25 731.1 56.35 735.05
L 57 758.8
Q 57.1 766.7 57.05 770.65 57.1 772.65 56.95 782.5
L 56.95 782.95 77.05 785.15 77.15 775.95 68.6 774.95 67.6 725 67.75 724.1
Q 68.1 721.9 69 720.5 71.05 717.15 75.25 716.25
L 75.2 716.05
Q 73.2 716.3 71.4 717.35 69.55 718.4 68.35 720.1 67.25 721.55 66.75 723.9
L 66.55 724.95 66.55 776.8 75.3 777.7 75.35 783.3 58 782.05
Q 57.75 772.6 57.75 770.65
L 58 720.3 58.25 717.4
Q 58.6 714.2 59.25 711.65 60 708.55 61.15 706.2 62.5 703.35 64.35 701.5 66.65 699.3 69.15 698.55
M 84.45 462.15
L 82.75 462.9
Q 79.45 464.65 76.8 467.1 74.2 469.5 72.15 472.7 69.95 476.3 69.25 479.4
L 68.85 481.25 68.7 483.15 68.9 514.85
Q 68.9 519.5 69.05 528.9
L 69.25 542.65 67.75 544.15 67.55 544.4 67.55 547.7 105.5 544.05 105.5 543.85 69.05 546.1 69.05 545.05 70.8 543.3 70.85 528.9
Q 70.95 519.5 70.9 514.85
L 70.85 483.15
Q 70.85 482.1 70.95 481.55
L 71.25 479.9
Q 71.9 477.05 73.85 473.75 75.8 470.65 78.1 468.5 80.55 466.2 83.6 464.6
L 85.15 463.9
Q 85.65 463.65 86.7 463.3 87.2 463.1 88.3 462.9 89.4 462.6 89.95 462.55 93.2 462.05 96.65 462.85 99.95 463.6 102.6 465.75 105.25 468.1 106.5 470.95
L 106.7 538.65 80.85 539.45
Q 80.95 524.2 80.9 519.8
L 80.75 489.05
Q 80.95 485.95 81.4 484.1 82.05 481.45 83.25 479.5 84.6 477.3 86.65 476.05 88.7 474.75 91.3 474.35 93.35 474 96.3 474.25 99.25 474.6 101.3 475.3
L 101.35 475.1
Q 98.85 474.15 96.4 473.8 93.5 473.4 91.2 473.65 88.35 474 86.2 475.3 83.95 476.55 82.35 478.95 81.05 481.05 80.3 483.8 79.75 485.7 79.45 488.95 79.35 490.7 79.3 494.15
L 79.15 519.8
Q 79.1 526.6 79.2 540.3
L 79.2 541.15 107.7 539.5 107.9 470.7 107.85 470.6
Q 106.6 467.3 103.6 464.6 100.85 462.2 97.05 461.25 93.25 460.3 89.8 460.8 88.6 461 87.95 461.1
L 84.45 462.15
M 185.9 462.1
Q 184.05 464.7 182.75 469.5 181.85 472.75 181.25 477.25
L 180.8 540.5 202.9 548.15 202.4 500.8
Q 202.45 494.65 202.25 491.6 202 486.45 200.65 482.45 198.9 477.3 195.55 474.7
L 194.1 473.65 192.55 472.9 192.3 472.75 192.25 472.7 192.15 472.7 191.4 472.45
Q 190.1 472.15 188.95 472.75 188 473.25 187.2 474.5 186.3 475.95 185.5 478.9 185.15 480.4 184.75 483.5 184.5 486 184.5 488.15
L 184.4 501.95
Q 184.3 517.35 184.3 520.4
L 184.3 539.45 194.45 543.25 193.1 489.55
Q 192.5 486.5 192.25 485.85 191.5 483.55 190.35 482.6
L 190.25 482.75
Q 191.3 483.8 191.85 485.95 192.05 486.5 192.55 489.6 192.75 492.1 192.75 493.3
L 192.5 519.5
Q 192.45 522 192.55 527
L 192.75 540.85 186.1 538.25
Q 186 526.4 185.95 520.4 185.95 517.35 185.7 501.95
L 185.45 488.15
Q 185.45 485.1 185.6 483.55 185.75 481.15 186.25 479.05 186.9 476.45 187.8 474.9 188.45 473.85 189.3 473.35 190.25 472.85 191.25 473.1
L 191.8 473.25 191.9 473.3
Q 191.95 473.35 191.95 473.3
L 192 473.35 192.25 473.45 194.3 474.55 195.2 475.2
Q 198.35 477.55 200.05 482.65 201.3 486.4 201.55 491.6 201.65 493.15 201.5 500.8
L 201.1 545.65 182.8 539.15 182.75 481.3 183.05 477.5
Q 183.55 473.1 184.4 469.9 185.45 465.6 187.2 463 188.4 461.3 189.75 460.7 191.35 460 193.05 460.6 194.15 461 194.7 461.3
L 195.1 461.55 195.2 461.6
Q 195.25 461.6 195.25 461.65
L 195.45 461.75 196.25 462.35
Q 197.05 462.85 199.1 464.8 201.75 467.75 203.35 471.1 204.8 474.25 205.9 478.4 206.7 481.75 207.2 486.05 207.6 489.85 207.65 493.8
L 207.85 493.8
Q 207.95 489.9 207.7 486 207.35 481.55 206.65 478.2 205.75 474 204.3 470.7 202.7 467.1 200 463.95 197.95 461.9 197.05 461.25
L 196.25 460.7 196.1 460.55 195.95 460.45 195.85 460.35 195.4 460.1
Q 194.55 459.6 193.5 459.2 191.1 458.4 189.15 459.3 187.3 460.1 185.9 462.1
M 135.7 242.3
L 55.75 256.3 55.55 407.1 138.05 400.05 159.2 399.7 199.6 411.75 199.4 313.35
Q 199.25 309.3 198.75 305.8 197.7 297.9 195.3 291.15 192.3 282.95 187.55 278.1
L 185.4 276.15 184.65 275.6
Q 182.6 274.2 181.1 273.8 178.85 273.1 176.95 274 175.2 274.8 173.85 276.65 172.05 279.3 170.95 283.8 170.05 287.8 170 291.35
L 171.65 366.3 188.05 373.95 188.1 373.25 188.3 321.4
Q 188.35 319.6 187.85 316.2 187.35 313.25 186.7 311.1 186 308.75 184.95 306.2
L 183.8 303.85 180.95 299.5 179.2 297.6
Q 177.6 296.15 177.25 295.85
L 175.15 294.35 175.05 294.5 179.05 297.75 182.25 301.8 184.6 306.35
Q 185.75 309.2 186.3 311.25 186.8 312.95 187.4 316.25 187.9 319.65 187.85 321.4
L 187.15 372.5 172.65 365.65 171.4 291.4
Q 171.45 287.9 172.35 284.15 173.45 279.8 175.05 277.5 176.3 275.9 177.55 275.35 178.95 274.75 180.7 275.25 181.9 275.6 183.75 276.8
L 186.45 279.2
Q 190.9 283.7 193.75 291.7 196.1 298.25 197.05 306.05 197.55 309.4 197.7 313.4
L 197.55 409 159.45 397.6 137.9 397.95 135.4 398.2 135.7 242.3
M 99.6 278
L 94.95 278.35
Q 88.3 279.55 84.1 284.35 80.2 288.7 78.25 295.3 77.4 298.35 77.05 301.4
L 76.55 367.45 71.75 368.25 71.25 270.8 115.8 262.5 116.05 399.85 57.6 404.85 57.35 257.7 134.45 243.8 134.75 398.25 116.65 399.8 116.95 261.05 69.75 269.6 70 370.35 78.35 368.95 78.7 301.55
Q 79 298.7 79.85 295.75 81.7 289.4 85.25 285.45 89.15 281 95.25 279.9
L 98.15 279.6
Q 98.4 279.55 99.6 279.55
L 101.05 279.65
Q 104.05 279.9 106.2 281.65 108.1 283.25 109.05 286.35 109.55 288 109.95 292.2
L 110.1 293.7 110.4 316.35
Q 110.25 340.35 109.95 364.35
L 87.9 365.85 88.7 310.9
Q 88.45 307.55 89 304.25 89.35 302.4 89.8 301
L 91.05 297.9 91.85 296.45 94 293.85
Q 95.05 292.95 95.25 292.8
L 96.65 291.85 99.7 290.55 101.35 290.1 101.3 289.95
Q 100.2 290.15 99.65 290.35
L 98.05 290.9
Q 97.05 291.4 96.5 291.65 95.2 292.55 95.1 292.6 94.7 292.9 93.8 293.65
L 92.6 294.9 90.75 297.75 89.45 300.9
Q 88.85 302.65 88.6 304.2 88.05 307.75 88.25 310.95
L 86.9 366.35 86.85 366.9 111.05 365.4 111.05 364.9
Q 111.65 332.45 111.8 316.4
L 111.6 293.55 111.45 292.05
Q 111 287.65 110.5 285.95 109.55 282.35 107.15 280.45 104.7 278.45 101.2 278.1 100.9 278.05 100.4 278.05 99.8 278 99.6 278
M 697.2 315.65
Q 696.15 316.8 695.45 318.4 694.75 320.15 694.5 321.4 693.9 323.95 693.7 327.45 693.6 330.7 694.65 333.25 695.75 335.85 697.65 337.65 699.5 339.35 701.45 340.05 701.55 340.1 703.25 340.55
L 704.85 340.7 706.1 340.65 707.75 340.4 707.75 340.2 704.95 339.85 703.55 339.5 702.8 339.15
Q 702.1 338.85 702 338.8 700.35 338 698.85 336.45 697.5 335 696.25 332.55 695 329.8 694.75 327.4 694.4 324.25 695.1 321.55 695.85 318.25 697.95 316.45 699.1 315.55 700.45 315.3 700.7 315.25 701.8 315.25
L 702.55 315.35 703.15 315.5
Q 705.55 316.1 706.95 318.8 707.35 319.55 707.85 321.25 708.25 323.4 708.25 323.8
L 708.4 325.6 708.35 326.25
Q 708.35 327.25 708 328.45 707.65 330.2 706.8 332.35 706.05 334 705.2 335 704.7 335.65 703.65 336.3
L 703 336.5 703 336.7 703.8 336.65
Q 705 336.25 705.75 335.6 706.95 334.55 707.9 332.95 709.05 331.05 709.75 328.9 710.15 327.55 710.35 326.35
L 710.35 323.6
Q 710.2 320.4 708.75 317.8 707.9 316.3 706.65 315.25 705.2 314.1 703.55 313.75
L 702.65 313.65
Q 702.35 313.6 701.85 313.6
L 701.7 313.6 700.1 313.85
Q 698.5 314.35 697.2 315.65
M 702.85 294.4
L 695.35 294.3 695.3 298.45 673.65 320.25 676.1 325.6 680.85 325.3 680.85 329.75 684.2 329.75 684.75 354.85 685.55 354.85
Q 690.95 354.75 701.8 354.4
L 718 353.8 718 353.6 701.75 353.35
Q 691.7 353.25 686.3 353.3
L 686.15 327.7 682.9 327.7 682.9 323.05 677.4 323.4 676.15 320.7 697.05 299.2 697 296 701.3 295.95 701.35 299.6 726.1 316 726.15 316.05 727.8 316.05 727.8 319.5 724.35 320.35 724.25 320.4 724.15 320.5 721.6 324.15 721.5 324.2 721.2 354.65
Q 708.5 355.2 705.85 355.4
L 669.55 358.65 657.6 360.8 657.65 361 677.7 358.7 705.95 357.15
Q 706.25 357.15 722.05 356.25
L 722.85 356.2 722.35 332.1
Q 722.25 327.05 722.2 324.5
L 724.65 321 728.4 320 728.45 315.4 726.3 315.35 702.75 298.85 702.85 294.4 Z"/>
</g>
</defs>

<g transform="matrix( 1, 0, 0, 1, 0,0) ">
<use xlink:href="#Layer0_0_FILL"/>
</g>
</svg>
