
<svg xmlns="http://www.w3.org/2000/svg" version="1.1" xmlns:xlink="http://www.w3.org/1999/xlink" preserveAspectRatio="none" x="0px" y="0px" width="750px" height="773px" viewBox="0 0 750 773">
<defs>
<g id="Layer1_0_FILL">
<path fill="#FFFFFF" stroke="none" d="
M 669.95 494.3
L 660.25 494 660.15 484.55 677 486.75 616.8 464.9 617.25 462.8 614.45 457.4 612.7 366.75 614.5 366.75 614.5 354.4 617.25 354.4 617.25 348.75 623.4 342 612 311.05 605.5 308.5 604.8 209.9
Q 604.9 209.05 604.75 207.45
L 604.5 205
Q 603.9 200.15 602.2 195.6 598.95 186.95 591.8 179.35 589.25 176.5 584.75 172.75 580.6 169.45 577.15 167.45
L 535.5 87.2
Q 533.6 83.45 532.95 81.85
L 533 81.85 533.7 72.95 536.75 74.35 534.05 67.95
Q 536.2 64.9 536.25 61.05 536.4 56.95 534.25 53.7
L 531.65 50.85 528.75 48.5
Q 525.95 46.45 523.25 44.85 524.2 44 524.5 43.55 525.55 42.35 525.55 41.05 525.6 39.75 524.7 38.5 524.4 38.05 523.75 37.5
L 522.95 36.85 522.9 33 527.25 34.25 527 29.5 526.75 29.4 522.8 28.25 522.95 14.15 531.45 16.9 532.05 17.15 532.2 12.35 523.25 9.35 523.3 1.75 517.5 0 517.5 7.45 508 4.5 508 9.15 517.25 12.85 517.7 23.9 514.55 22.75 514.7 28.5 517.95 28.9 518.15 35.2 518 36.25
Q 517.95 37 517.8 37.2
L 517 37.8 516.25 38.75
Q 515.5 39.8 515.65 41.05 515.8 42.2 516.45 43.25 517.1 44.3 517.8 44.85
L 516.25 45.55 513.15 47.55 507.6 52.5 505.5 55.6 504.85 57.45
Q 504.25 59.45 504.6 61.25 504.75 63.2 505.85 64.95 506.35 65.85 506.95 66.5
L 507.85 67.6 503.5 74.35 505.85 74.85 505.75 84.35 506.2 84.35 462 173
Q 457.35 174.65 452.85 177.35 448.25 180.1 444.5 183.85 443.2 185 440.95 187.85 439.35 189.9 438 192.2 435.3 196.7 433.85 202 432.95 204.95 432.7 207.2 432.5 208.4 432.45 209.9
L 431.5 326 415.25 341.25 418.6 345 418.7 345.15 421.95 347.5 422 352.4 422.35 352.65 424.2 354.5 424.25 366.75 426.75 366.75 426.6 459.3 424.5 460.75 426.6 463.8 424.7 484.75 425.8 486.6 400 502.05 394.5 491.65 394.5 491.55 390.5 489.25 389.85 474 393.45 474.05 373.2 466.75 373.2 455.25 376 455.25 372.35 451.05 372.35 445.15 354.75 443.75 354.75 444.9 348.85 451.3 348.75 461.65 346.45 464.5 346.35 464.65 343.45 463 331.75 454.65 319 448 309.1 443.8
Q 308.6 443.55 307.95 443.4
L 308.7 418.4 311.6 416.4 309.7 413.5 310.6 412.25
Q 311 411.8 312.1 409.9
L 313 407.15 313.35 404.25 313.25 401.4 312.85 400 312.1 398.65
Q 311.45 397.45 310.5 396.3
L 308.6 394.4
Q 306.3 392.1 300.75 387.9
L 300.5 387.65 300.35 387.55 300.25 387.4 297.95 379.75 298 379.4 298 379.05 297.95 378.65
Q 297.95 378.3 297.6 377.75
L 297.25 377.5 297.5 375.05 298.7 375.55 299.6 372.55 297.85 371.4 298 366.15 301.75 366.05 301.6 362.4 297.75 361.9 297.5 357.75 294.1 358.25 294.1 358.65
Q 294.25 359.95 294.25 362.3
L 290.45 362.25 290.35 364.65 293.75 365.4 293.6 370.15 291.75 369.5 291.95 372.9 294.7 373.8 295 377.4
Q 294.4 377.75 294.1 378.4 293.85 379 293.85 379.15 293.85 379.5 294 379.75 294 380.1 294.35 380.5
L 291.95 386.75 291 388
Q 290.35 388.65 289.2 389.4
L 287.1 390.9
Q 284.1 392.95 282.75 394.05
L 280.85 396.15 279.35 398.75 278.85 400.75 278.75 400.8 278.75 401.25 278.7 401.55
Q 278.55 403.2 278.6 404.4 278.7 406.15 278.95 407.15 279.15 408.45 279.85 409.9 280.4 411.25 281.1 412.3
L 282 413.5 279.7 415.4 280.1 415.9 278.85 417.15 280.75 416.65 281.75 417.65 282 442
Q 266.3 445.1 252.3 452.5 245.65 456 238.6 461.05 232.15 465.7 226.15 471.5 214.25 483.1 205.85 496.55 203.2 501.05 201.9 503.75
L 201.3 505.4 200.05 505.9
Q 197.95 506.85 196.35 507.75
L 195.65 508.3
Q 195.5 508.45 195.5 508.65 195.4 508.75 195.4 509.15 195.55 509.6 195.85 509.75 196.15 510 196.35 509.9
L 196.75 509.9 197.85 509.65 198.55 509.4
Q 198.55 510.3 199.1 511.3 199.35 511.9 200.4 513
L 201.65 513.85 202.1 514.1
Q 202.3 514.1 202.3 514.5
L 202.25 515.8
Q 200.65 515.95 199.55 517.05 198.45 518.05 197.85 519.6 197 522.05 197 525.7
L 197.25 537.75
Q 197.25 544.65 196.85 561.6
L 192.35 565.75 170.5 565 163.85 593 162.4 593.3 131.5 591.25
Q 119.8 590.9 115.9 590.5 113.3 590.35 108.15 589.75
L 100.65 588.85 100.55 588.8 100.05 588.6 100 578.2 96.3 577.85 96.55 570 96.4 569.8 91.05 565.25 85 570 85.15 578.3 82.65 578.55 82.5 588.35 79.4 589 78.05 613.25 3.5 612.35 2 635 4.3 635 4.55 644.95 5.65 644.8 5.75 644.8 5.65 654.95 4.55 654.95 4.3 661.35 5.65 661.75 4.55 690.75 3.4 690.75 3.4 697.1 1.85 697.1 2 712 0 712 0 724.35 75.4 726 76.9 726.15 76.65 728.55 77.15 728.6 155.5 730.25 155.5 730.45 156.1 730.55
Q 180.1 737.95 182 738.5
L 207.25 746.1 207.25 746.5 290.85 741.8
Q 306.5900390625 741.00546875 317.3 740.55
L 317.45 744.25 394.7 773.2 394.75 773.2 394.75 772
Q 408.25 771.3 434 769.75
L 555.75 761.8 555.75 759.25 596.5 756.45 598.5 756.55 630.15 753.8 630.15 753.1 727.15 742.55 726.15 706.05 724.25 702.45
Q 723.55 664.4 723.25 653.55
L 722.2 604.75 725.65 599.25 727.95 596.5 727.9 594.2 726.75 594 726.9 586.45 730.9 586.2 733 581.2 745 580.35 750.4 580.7 723.7 572.95 723.45 560.2 725.9 559.8 725.9 559.35 726.25 555.25 728 552 730.4 549.5 735.75 547.05 700.9 539.45 684.7 523.05 685.05 510.4 670.25 503.9 669.95 494.3 Z"/>
</g>

<g id="Layer0_0_MEMBER_0_MEMBER_0_MEMBER_0_FILL">
<path fill="#522810" stroke="none" d="
M 669.95 494.3
L 660.25 494 660.15 484.55 677 486.75 616.8 464.9 617.25 462.8 614.45 457.4 612.7 366.75 614.5 366.75 614.5 354.4 617.25 354.4 617.25 348.75 623.4 342 612 311.05 605.5 308.5 604.8 209.9
Q 604.9 209.05 604.75 207.45
L 604.5 205
Q 603.9 200.15 602.2 195.6 598.95 186.95 591.8 179.35 589.25 176.5 584.75 172.75 580.6 169.45 577.15 167.45
L 535.5 87.2
Q 533.6 83.45 532.95 81.85
L 533 81.85 533.7 72.95 536.75 74.35 534.05 67.95
Q 536.2 64.9 536.25 61.05 536.4 56.95 534.25 53.7
L 531.65 50.85 528.75 48.5
Q 525.95 46.45 523.25 44.85 524.2 44 524.5 43.55 525.55 42.35 525.55 41.05 525.6 39.75 524.7 38.5 524.4 38.05 523.75 37.5
L 522.95 36.85 522.9 33 527.25 34.25 527 29.5 526.75 29.4 522.8 28.25 522.95 14.15 531.45 16.9 532.05 17.15 532.2 12.35 523.25 9.35 523.3 1.75 517.5 0 517.5 7.45 508 4.5 508 9.15 517.25 12.85 517.7 23.9 514.55 22.75 514.7 28.5 517.95 28.9 518.15 35.2 518 36.25
Q 517.95 37 517.8 37.2
L 517 37.8 516.25 38.75
Q 515.5 39.8 515.65 41.05 515.8 42.2 516.45 43.25 517.1 44.3 517.8 44.85
L 516.25 45.55 513.15 47.55 507.6 52.5 505.5 55.6 504.85 57.45
Q 504.25 59.45 504.6 61.25 504.75 63.2 505.85 64.95 506.35 65.85 506.95 66.5
L 507.85 67.6 503.5 74.35 505.85 74.85 505.75 84.35 506.2 84.35 462 173
Q 457.35 174.65 452.85 177.35 448.25 180.1 444.5 183.85 443.2 185 440.95 187.85 439.35 189.9 438 192.2 435.3 196.7 433.85 202 432.95 204.95 432.7 207.2 432.5 208.4 432.45 209.9
L 431.5 326 415.25 341.25 418.6 345 418.7 345.15 421.95 347.5 422 352.4 422.35 352.65 424.2 354.5 424.25 366.75 426.75 366.4 426.6 459.3 424.5 460.75 426.6 463.8 424.7 484.75 465.6 458.8 465.6 459.25 471.1 455.8 474.35 455.4 474.5 455.4 496.85 448.4 528.5 458.75 528.65 458.75 548.25 461.75 548.95 457.05 555.5 454.4 555.25 466.8 470.1 460.25 469.95 460.25 400 502.05 394.5 491.65 394.5 491.55 390.5 489.25 389.85 474 393.45 474.05 373.2 466.75 373.2 455.25 376 455.25 372.35 451.05 372.35 445.15 354.75 443.75 354.75 444.9 348.85 451.3 348.75 461.65 346.45 464.5 346.35 464.65 346.5 482.55 338.35 488.9 338.1 489.15 337.95 500.4 322.75 497.75
Q 309.9 496.2 306.75 496
L 282.5 494.65 264.35 494.8 242.1 496.25
Q 233.25 497.15 226.1 498.5 218.3 499.85 210.35 502.65
L 202.85 505.65 202.8 505.75 202.75 505.65 202.6 505.75 202.6 505.65 202.5 505.5 202.75 505.65 202.85 505.65 203.35 504.3
Q 204.7 501.3 207 497.25 211 490.35 216.05 484 221.7 476.95 226.85 472.15 232.65 466.65 239.15 461.9 245.8 457.25 252.9 453.65 267.3 446.55 283.25 444
L 284.2 443.9 284.45 416.5 283.75 415.75 285.1 415.4 288.6 415
Q 289.95 414.85 292.1 415
L 295.5 415.4
Q 297.65 415.75 299 415.75
L 306 416.05 306.6 416.15 305.7 416.75 305.35 441.75 291 441.75 291.1 444.05 302.5 444.3
Q 304.35 444.45 305.2 444.65 307.35 445.05 308.45 445.5
L 325 452.25 334.35 457.3 343.25 463.25 343.45 463 331.75 454.65 319 448 309.1 443.8
Q 308.6 443.55 307.95 443.4
L 308.7 418.4 311.6 416.4 309.7 413.5 310.6 412.25
Q 311 411.8 312.1 409.9
L 313 407.15 313.35 404.25 313.25 401.4 312.85 400 312.1 398.65
Q 311.45 397.45 310.5 396.3
L 308.6 394.4
Q 306.3 392.1 300.75 387.9
L 300.5 387.65 300.35 387.55 300.25 387.4 297.95 379.75 298 379.4 298 379.05 297.95 378.65
Q 297.95 378.3 297.6 377.75
L 297.25 377.5 297.5 375.05 298.7 375.55 299.6 372.55 297.85 371.4 298 366.15 301.75 366.05 301.6 362.4 297.75 361.9 297.5 357.75 294.1 358.25 294.1 358.65
Q 294.25 359.95 294.25 362.3
L 290.45 362.25 290.35 364.65 293.75 365.4 293.6 370.15 291.75 369.5 291.95 372.9 294.7 373.8 295 377.4
Q 294.4 377.75 294.1 378.4 293.85 379 293.85 379.15 293.85 379.5 294 379.75 294 380.1 294.35 380.5
L 291.95 386.75 291 388
Q 290.35 388.65 289.2 389.4
L 287.1 390.9
Q 284.1 392.95 282.75 394.05
L 280.85 396.15 279.35 398.75 278.85 400.75 278.75 400.8 278.75 401.25 278.7 401.55
Q 278.55 403.2 278.6 404.4 278.7 406.15 278.95 407.15 279.15 408.45 279.85 409.9 280.4 411.25 281.1 412.3
L 282 413.5 279.7 415.4 280.1 415.9 278.85 417.15 280.75 416.65 281.75 417.65 282 442
Q 266.3 445.1 252.3 452.5 245.65 456 238.6 461.05 232.15 465.7 226.15 471.5 214.25 483.1 205.85 496.55 203.2 501.05 201.9 503.75
L 201.3 505.4 200.05 505.9
Q 197.95 506.85 196.35 507.75
L 195.65 508.3
Q 195.5 508.45 195.5 508.65 195.4 508.75 195.4 509.15 195.55 509.6 195.85 509.75 196.15 510 196.35 509.9
L 196.75 509.9 197.85 509.65 198.55 509.4
Q 198.55 510.3 199.1 511.3 199.35 511.9 200.4 513
L 201.65 513.85 202.1 514.1
Q 202.3 514.1 202.3 514.5
L 202.25 515.8
Q 200.65 515.95 199.55 517.05 198.45 518.05 197.85 519.6 197 522.05 197 525.7
L 197.25 537.75
Q 197.25 544.65 196.85 561.6
L 192.35 565.75 170.5 565 163.85 593 162.4 593.3 131.5 591.25
Q 119.8 590.9 115.9 590.5 113.3 590.35 108.15 589.75
L 100.65 588.85 100.55 588.8 100.05 588.6 100 578.2 96.3 577.85 96.55 570 96.4 569.8 91.05 565.25 85 570 85.15 578.3 82.65 578.55 82.5 588.35 79.4 589 78.05 613.25 3.5 612.35 2 635 4.3 635 4.55 644.95 5.65 644.8 5.75 644.8 5.65 654.95 4.55 654.95 4.3 661.35 5.65 661.75 4.55 690.75 3.4 690.75 3.4 697.1 1.85 697.1 2 712 1 712 1 712.25 0.05 724.1 0 724.35 75.4 726 75.4 725.85 0.6 723.85 1.6 712.55 2 712.55 2 713.2 41.75 713.05 78.4 713.6 78.4 713.75 76.65 728.55 77.15 728.6 155.5 730.25 155.5 730.45 156.1 730.55
Q 180.1 737.95 182 738.5
L 207.25 746.1 207.25 746.5 290.85 741.8
Q 306.7 741 317.45 740.55
L 317.45 744.25 394.7 773.2 394.75 772
Q 408.25 771.3 434 769.75
L 555.75 761.8 555.75 759.25 596.5 756.45 596.45 734.1 596.3 734 594.25 729.7 593.8 632.55
Q 593.55 627.6 592.55 624.45 591.35 620.2 588.7 617.1 585.9 614 581.75 612.5 579.45 611.7 577.65 611.5
L 575.5 611.25
Q 574.2 611.2 573.45 611.25
L 569.25 611.75
Q 567.2 612.2 565.2 613.05 563.55 613.85 561.55 615.3 559.85 616.75 558.5 618.3 557.1 620.05 556.05 621.8 557.85 618.5 560.3 616.05 562 614.4 563.75 613.3 565.6 612.15 567.65 611.45 571.75 609.95 576.25 610.25 577.8 610.25 580.65 610.85 582.6 611.4 584.55 612.55 588.3 614.75 590.75 618.55 592.95 621.9 594.45 626.6 594.8 627.8 595.45 630.95
L 595.75 709.25 627.4 708 627.4 707.6 628.25 707.55 628.25 709.75 596.7 711.75 596.7 712 628.25 711.2 628.2 752.2 598.5 756.35 598.5 756.55 630.15 753.8 630.15 753.1 727.15 742.55 726.15 706.05 726 705.95 724.25 702.45
Q 723.55 664.4 723.25 653.55
L 722.2 604.75 724.4 601.25 696 600.5 695.9 600.55 693.8 602.3 693.7 602.45 693.75 602.6 694.15 612 694.2 612.05 695 614.75 698.05 701.75 695.25 702.35 694.25 637.25
Q 694.6 632.85 694.15 628.2 693.6 623.55 692 619.35 690.95 617 689.8 615.25 688.6 613.5 686.7 611.75 683.15 608.85 678.05 608.25
L 673.5 608.25
Q 670.85 608.65 668.95 609.5 664.5 611.3 661.95 615.6 659.85 618.85 658.7 624.25 657.9 628.15 657.75 633.25 657.75 636.85 657.9 642.1
L 659.45 705.1 657.9 705.2 657.75 659.2
Q 657.65 639.85 657.4 614.05
L 659 614.05 659 611.3 657.15 611.35 657 602.8 658.9 601.05 658.9 599.2 658.8 598.7 628 597.85 628 598.05 657.8 599.7 657.8 600.6 656 602.35 655.95 602.55 655.9 612.55 657.75 612.6 657.75 612.75 656 612.75 656.15 682
Q 656.25 698.6 656.4 704.1
L 643.8 704.25 642.75 609.25 642.7 608.95 642.3 608.8 641.5 608.75 642 601.45 642 601.35 643.2 601.35 643.2 600.25 628.4 600.2 628.25 706.3 627.4 706.35 627.4 626.75 608.65 626.1
Q 608.4 624.1 607.65 621.05 606.7 617.8 605.65 615.35 603 609.45 598.95 605.25 596.4 602.8 594.25 601.35 591.5 599.6 588.8 598.5 587.1 597.95 585.95 597.5
L 580 596.3 574 596 570.95 596.2
Q 567.5 596.5 565 597.25 561.85 597.95 559.25 599.3 556.35 600.75 554.05 602.6 549.4 606.4 546.5 612.05 544.9 615.15 544.15 617.7 543.35 620.2 543 622.75
L 522.45 623 523.15 709.25 506.35 709.85 507.85 606.1 505.25 588.75 485.35 588.2 485.5 592.25 486.35 592.3 486.25 605.35 486.35 605.5 486.95 606.25 487.85 710.55 483.5 710.75 483.35 626.35
Q 483.35 621.2 482.1 615.75 480.8 610.1 478.35 605.75 475.2 600.65 470.75 598.1 466.3 595.5 460.35 595.35 454.45 595.2 449.75 597.05 444.6 599.25 441.35 603.8 438.55 607.7 437.1 613.7 435.95 619.15 436.1 624.35
L 436.45 711.45 395.85 712.35 396 712.45 395.75 712.45 394.75 582 394.7 581.85 392.95 579 478.1 584.45 530.75 588.35 530.95 587.95
Q 531.7 585.5 534.25 582.55
L 536.5 580.35 539.15 578.45
Q 543.85 575.35 551 573.25
L 554.15 572.5
Q 555.05 572.25 557.3 571.85
L 567.05 570.75 580.2 570.8 589.75 572.25
Q 591.15 572.45 596 574 596.6 574.05 597.55 574.5
L 599 575.1
Q 601.3 576.05 602 576.5 607.6 579.1 612.4 584 616.9 588.5 619.45 594.5
L 619.55 594.95 620.05 595.7 620.95 596 623.05 596.3 646.2 597.5
Q 666.65 598.2 672.55 598.3
L 725.65 599.25 725.75 599 727.95 596.5 727.9 594.2 726.75 594 726.9 586.45 730.9 586.2 733 581.2 745 580.35 750.4 580.7 723.7 572.95 723.45 560.2 725.9 559.8 725.9 559.35 726.25 555.25 728 552 730.4 549.5 735.75 547.05 700.9 539.45 684.7 523.05 685.05 510.4 670.25 503.9 669.95 494.3
M 668.4 505.15
L 683.25 511.65 682.8 523.75 696 536.85 676.5 518.45 663.95 524.5 686.5 547.5 685.65 551.35 704.4 547.1 704.65 553.45 705.9 555.3 705.75 570 654.8 537.35 654 513.45 656 511.55 657.25 503.4 660.45 503.4 660.3 496 668.05 496.25 668.4 505.15
M 666 524.85
L 676.3 519.75 704.05 545.45 687.65 549.35 688.05 547 666 524.85
M 657.65 556.1
L 663.75 552.75 665.5 546.7 707.75 573.5 707.65 554.75 706.4 552.8 706.15 546.45 729 549 727 551.25 727 551.3 725.05 554.8 725 555 724.8 558.8 722.25 559.2 722.7 573.7 743.5 579.5 633.3 573.05
Q 629.75 568 624.95 563.55
L 657.25 565.3 657.65 556.1
M 706.05 545.8
L 706 545 705 545.2 704.9 545.25 700.3 540.95 731.7 547.5 729.5 548.5 729.25 548.75 706.05 545.8
M 724.3 706.95
L 725.45 741.1 630.15 752.55 630.45 711.1 644.95 710.75
Q 651.5 710.55 661 710.1
L 724.3 706.95
M 511.35 68.95
L 519.25 67.1 519.4 78.6 517.05 79.1 517 79.1 507.5 83.5 507.6 74.45 511.35 68.95
M 521.5 78.6
L 521.3 67.35 533.4 72.85 532.55 81.7
Q 530.3 80.85 526.7 79.95
L 521.5 78.6
M 222.85 516
Q 224.1 516.1 224.75 516.75 226.05 517.85 226.15 520.85
L 226.15 552.05 225.6 554.5 217.35 554.85 217.05 529.75
Q 216.9 526.6 217 524.6 217.05 522.05 217.9 519.8 218.9 517.25 220.75 516.35 221.75 515.9 222.85 516
M 269.25 515.2
Q 271.15 516.6 271.85 519.7 272.1 520.95 272.1 522.35
L 272 553.25 257.25 553.5 256.85 521.3 257.1 520
Q 257.6 517.1 259.5 515.3 261.4 513.5 264.35 513.55 267.4 513.55 269.25 515.2
M 320.35 555.2
L 317.25 554.25 325.7 551 339.35 505 339.5 489.8 347.6 483.4 347.85 483.25 347.6 465.15 350.1 462 350 451.8 354.75 446.65 354.95 459.55 359.45 456.5 359.25 469 355.25 471.5 355.75 514.45 351.1 516.85 351.1 487 343.25 493.4 343 506.4 328.75 558.2 323.6 560.95 322.85 560.95 320.35 555.2
M 86.4 579.45
L 86.4 579.3 98.3 580.35 98.25 589.8 98.65 590 96.4 589.6 91.55 586.6 91.3 586.75 83.9 590.3 100.05 591.7 100.8 602.05 100.9 602.35 103.75 603.5 102.9 607 95 601.75 94.8 601.7 85.3 608.3 87.05 608.5 87.05 612.25 90.55 612.2 90.55 612.5 98.8 612.45 98.8 610.95 99.05 611 99.05 612.5 101.25 612.5 101.15 612.75 101.4 626.05 85.05 625.95 85.05 603.05 81.05 602.55 80.9 603.3
Q 80.9 603.95 80.65 605.7
L 79.75 612 79.55 612 80.75 590.05 83.8 589.5 83.9 579.75 86.4 579.45
M 91.55 587.8
L 95.65 590.35 87.55 589.7 91.55 587.8
M 161.25 630.2
L 161.25 635.05 85.15 633.25 85.15 628.25 161.25 630.2
M 82.4 604.35
L 83.4 604.5 83.4 627.6 84 627.6 84 634.45 84.9 634.45 85.05 639.1 84.55 639 84.05 638.7 83.55 638.25 81.5 614 81.4 613.7 80.5 613.5 81 613.55 82.4 604.35
M 25.1 664.5
Q 27.15 664.45 31.1 664.5
L 31.1 669.6 7.3 670.1 7.55 664.75
Q 12.4 664.75 18.95 664.55
L 25.1 664.5
M 6.4 692.7
L 7.3 671.1 30.85 670.5 30.95 698.75 28 698.75 27.5 698.8 27.7 706.95 57.25 707 57.25 699.75 79 700.5 78.9 702.75 80.05 703.2 80.25 712.6 42.9 712.45 41.75 712.35 3.65 711.55 3.75 699 5.3 699 5.3 692.7 6.4 692.7
M 60.75 667.35
L 60.75 667.25
Q 60.9 665.6 60.55 663.5
L 81 663.5 80.75 673.5
Q 80.55 678.8 80.5 686.6
L 80.3 699.1 79.05 699.25 79.05 699.3
Q 76.55 699.3 73.4 699.1
L 59.75 698.7 60.75 698.3 60.75 692.8 60.45 691.75 60.5 691.85 60.5 668.3 60.75 667.35
M 80.3 701.75
L 80.4 700.6 81.4 700.5 159.5 701.5 160.1 701.55 160.1 713.25 159.85 713.35 120.75 713.1
Q 109.15 713 82.5 713
L 83.3 712.75 81.3 712.75 81.5 702.25 80.3 701.75
M 56.15 699.5
L 56.15 705.85 28.7 705.95 28.5 699.75 33.5 699.6 33.5 699.5 56.15 699.5
M 157.1 716
L 157.15 716 207.25 728.2 207.25 744.35 157.1 729.2 157.1 716
M 161.1 713.25
L 161.15 701.6 168.85 702.2 168.85 714.7 164.55 713.8 165.9 713.45 162.25 713.45 161.1 713.25
M 322.1 605.25
L 322.25 611.25 210.35 607.8 210.15 607.85 192.35 617.2 192.85 613.95 187.9 613.75 187.85 611.05 192.3 611.05 192.5 610.95 209.85 600.75 322.1 605.25
M 203.4 642.25
L 210.55 638.3 211.35 638.35 211.05 644.35 210.05 644.3 202.55 647 201.6 703.1 198.6 702.95 198.65 648.7 195.75 650.1 195.65 646.45 198.15 644.35 198.35 644.25 198.35 644
Q 198.2 639.15 198.5 635.45 198.65 633.15 199.05 631.25 199.4 629.75 199.6 629.25 200.1 628.05 200.55 627.5 201.3 626.75 201.85 627.2 202.3 627.5 202.75 628.8 203.2 630.55 203.4 633 203.75 636.65 203.5 641.5
L 203.4 642.25
M 208.1 704.95
L 208.75 704.95 208.55 722.25 186.6 718.05 186.65 703.45 195.35 704.05 195.8 712.25 200.35 712.25 200.9 704.45 207.85 704.85 208.1 704.95
M 209.65 726.45
L 210.35 724.45 240.5 724.05 241.55 726.1 209.65 726.45
M 208.25 724.2
L 207.6 726.25 174 717.95 208.25 724.2
M 242.4 726
L 241.35 724.05 321.75 723.1 321.75 725.35 242.4 726.1 242.4 726
M 240.6 722.6
L 240.55 722.55 240.4 705 273.2 705.2 273.35 713.95 298.1 713.8 298.1 707 321.5 706.75 321.75 722.95 240.6 722.6
M 209.25 728.35
L 241.6 727.75 241.35 743.25 209.1 744.55 209.25 728.35
M 210.9 704.95
L 239.85 705 239.75 722.6 210.65 722.5 210.9 704.95
M 196.4 704.1
L 199.8 704.3 199.35 711.1 196.85 711.1 196.4 704.1
M 184.6 703.25
L 184.5 717.7 170.85 715.05 170.85 702.7 174.55 702.95 174.55 702.55 184.6 703.25
M 168.1 700.75
L 168.85 700.5 168.85 700.8 168.1 700.75
M 323.5 705.85
L 323.75 705.6 326 705.6 326 704.95 339 706.25 339 706.6 351.6 708.25 351.6 707.5 365.25 708.95 365.25 709.55 393.95 713.8 394 747.55 323.85 729.05 323.5 705.85
M 296.75 705.55
L 296.75 712.45 274.75 712.5 274.6 705.1 316.85 705.3 296.75 705.55
M 320.45 733.05
L 323.25 730.7 394 748.75 393 754.7 320.45 733.05
M 319.5 742.85
L 319.5 734.5 392.95 754.85 392.85 754.95 392.75 770.3 319.5 742.85
M 361 490.5
L 361 489.5 377.5 482.75 385.85 496.65
Q 387.1 498.8 393.25 510.65
L 392.95 510.9 388.85 513 388.5 512.95 388.6 513.1 378.1 518.3 361 490.5
M 361 489.25
L 360.7 473.65 389.6 474 388.95 487.65 375.85 480 377.35 482.4 361 489.25
M 390.2 513
L 391.5 512.35 390.75 513.05 390.2 513
M 391 515.25
L 391.85 514.25 425 517.45 425.1 524.6 396 523.2 396 522.5 391.6 522.25 391 515.25
M 458.5 608.75
Q 462.3 608.45 464.85 610.1 467.55 611.75 469.25 615.1 470.65 618.1 471.35 621.55 472.05 625.55 471.85 628.35
L 471.5 711.3 446.85 712 445.85 625.5
Q 445.8 624.25 445.95 622.1 446.3 618.4 447.75 615.6 449.4 612.35 452.1 610.6 454.9 608.85 458.5 608.75
M 356.1 616.6
Q 357.4 615.95 358.5 616.1 360.75 616.35 362.25 619.3 363.4 621.65 363.95 624.8 364.85 629.75 364.85 636.6
L 365.25 708.45 351.6 707.1 350.2 641.1
Q 350.1 638.5 350.1 635.2 350.4 628.25 351.75 623.5 352.65 620.35 354.1 618.3 355.1 617.1 356.1 616.6
M 553 739.5
L 527.2 741.1 525.4 738.95 525.2 710.5 552.65 709.55 552.7 705.45 553 739.5
M 506.35 711.05
L 523.15 710.5 523.4 739.55 524.75 741.25 508.25 742.35 506.35 711.05
M 487.35 714.35
L 489.25 711.7 506 711.1 507.95 742.35 488.25 743.7 487.35 714.35
M 508.35 743.6
L 525.95 742.7 526.2 743 526.5 761.85 509.5 763.05 508.35 743.6
M 508 743.7
L 509.25 763.1 495.95 763.75 495.95 763.95 496.85 764 488.85 764.5 488.25 744.75 508 743.7
M 553.75 760
L 528.4 761.75 528.15 742.55 552.7 741.25 553.75 744.5 553.75 760
M 658.3 501.3
L 655.4 501.3 654 510.5 651.75 512.45 652.75 538.55 662 544.45 645.95 541.75 607.2 497.65 607.15 480.75 590.8 478.75 598.05 487 597.8 501.15 642.8 549.45 661.8 550.5 661.9 550.25 643.2 548.8 599.5 500.5 599.95 486.25 599.7 486 595.8 481.4 605.05 482.5 605.05 498.4 645 543.5 663.95 546.35 662.45 551.75 656.2 555.2 656 563.95 624.9 562.55
Q 621.95 559.6 617.8 556.5 614.15 553.8 609.9 551.25 601.55 546.5 592.3 544 588.25 542.95 583 542.3 579.6 541.95 573.5 541.8 563.5 541.95 554.55 543.3 544.75 544.9 536.15 547.85 531.15 549.65 527.25 551.35
L 523.5 553.1 523.05 553.25
Q 522.1 553.45 518.5 553.45 514.5 553.4 509.1 553 503.65 552.7 499.7 552.3 490.3 551.6 481.1 550.75
L 468.35 539.85 466.85 538.25 479 535.35 503.85 536.5 549.8 495.3 549.7 495.15 503.45 535 478.7 533.75 463.6 537.1 467.1 541 467.1 541.1 480.35 552.45 480.6 552.5 499.5 554
Q 504.85 554.4 509 554.55 513.45 554.8 518.5 554.8 522.2 554.8 523.4 554.55 523.9 554.45 524.05 554.3
L 527.75 552.5
Q 532.45 550.4 536.5 548.95 544.75 545.95 554.75 544.1 563.4 542.65 573.5 542.5 579.35 542.5 582.95 542.95 587.35 543.4 592.2 544.6 601.15 547.05 609.5 551.95 613.35 554.1 617.3 557.2 619.2 558.6 621.55 560.6 616.55 556.65 610.75 553.5 604 549.9 596.75 547.7 591.95 546.3 589.45 545.75 585.2 544.9 581.95 544.5
L 574.4 543.8
Q 569.65 543.7 566.75 544 563.15 544.2 559.25 545.05 556.4 545.6 551.8 547 545.2 549.2 538.05 553.5 534.9 555.6 531.9 557.95 529.1 560.1 526.5 562.8
L 489.75 561.05 489.6 561 489.6 561.05 486.25 561.7 389.85 551.25 389.85 550.5 366.25 560.3
Q 364.55 556.95 362.1 553.75 359.35 550.2 356.25 548.25 354.5 547.05 352.5 546.5
L 354.6 546.5
Q 356.6 546.5 360.6 546.3
L 365.1 546.45 368.25 547.2 370.25 548 372.1 549.1 372.95 549.75 374.35 551.35
Q 374.6 551.55 375 552.25
L 375.85 553.75 376.25 553.5 395.2 546.35
Q 396.65 546.55 399.85 546.75
L 415.7 547.95 415.7 544 417.25 537 420.45 536.95 420.25 531.6 422.45 531.5 422.5 531.2 423.7 526.3 426.85 526.55 427 518.25 435.25 516.55 443.2 516.45 462 532.6 462.2 532.75 477.1 528.45 477 528.5 479.7 528.5 479.7 529.2 483.6 528.55 502.2 528.8 546.2 489.8 546.4 489.65 546.75 474.65 564.25 476.15 566 518.05 582.5 518.05 583.75 476.75 595.65 477.65 595.5 476.3 658.15 484.3 658.3 501.3
M 732.75 580.5
L 732.55 580.55 732.5 580.75 730.3 585.45 726 585.5 725.75 594.95 726.8 595.1 726.75 596.1 725.05 598.05 626.5 594.5 621.75 594 621.5 594 621.4 593.75
Q 618.8 587.5 613.8 582.5 608.85 577.55 602.9 574.75 602.55 574.55 599.75 573.3
L 598.25 572.75
Q 597.8 572.5 596.7 572.1
L 593.45 571.2
Q 591.45 570.6 590.2 570.45
L 580.25 569 567 569.1 557.05 570.45
Q 555.7 570.6 550.55 571.95 543.15 574.25 538.5 577.5 532.1 581.8 530.05 587.3
L 392.25 577.1 391.7 558.75 389.85 555.5 389.85 551.45 486.25 563.2 486.45 563.2 489.85 562.55 527.25 564.5 527.5 564.25
Q 529.5 562 532.95 559.25 535.6 557.15 539 555 545.45 551.1 552.45 548.75 555.9 547.55 559.55 546.75 563.85 545.9 566.9 545.75 569.4 545.4 574.3 545.5
L 581.75 546.2
Q 597.7 548.25 610.15 554.75 624 562.1 632.65 573.85
L 632.75 574.1 741.75 580.25 732.75 580.5
M 722.75 602.1
L 721.25 604.45 721.75 653.55
Q 721.9 669.85 722.5 702.6
L 722.5 702.7
Q 712.75 703.15 707.8 703.45
L 692.05 704
Q 686.85 704.2 676.25 704.45
L 669.3 704.75 667.45 636.5
Q 667.15 632.7 667.5 629.55 667.85 625.6 669.2 623 670.75 619.55 673.8 618.85
L 675.45 618.7 677.05 618.8
Q 678.7 619.1 680 620 682.35 621.55 683.5 625.5 684.25 628.25 684.4 632.35 684.5 634.05 684.4 635.85 684.3 636.8 684.5 639.45
L 686.5 703.45 686.65 703.35 694.15 703.2 694.15 703.7 699.15 702.6 697.3 658.45
Q 696.1 629.05 695.65 614.7
L 695.65 614.55 694.8 612 694.45 602.75 696.25 601.25 722.75 602.1
M 690.25 620.05
Q 691.8 623.65 692.4 628.45 692.95 633 692.65 637.05
L 694.15 702.95 686.75 703.05 685.55 635.95
Q 685.65 634.3 685.65 632.3 685.5 628.2 684.75 625.2 683.65 620.95 680.8 618.85 679.25 617.75 677.25 617.45
L 675.45 617.25 673.5 617.5
Q 671.55 617.9 670.05 619.25 668.8 620.4 667.8 622.3 666.35 625.3 665.95 629.35 665.5 632.5 665.75 636.55
L 667.25 703.05 661.45 703.25 659.75 633.25
Q 659.9 628.65 660.65 624.6 661.65 619.8 663.55 616.7 665.9 612.8 669.7 611.25 671.2 610.5 673.7 610.2
L 677.9 610.1
Q 682.45 610.65 685.5 613.25 687.1 614.55 688.3 616.3 689.5 618.1 690.25 620.05
M 722.9 703.6
L 724 705.8 630.45 709.7 630.4 707.5 644.75 707.2
Q 657.35 706.65 660.55 706.5 661.85 706.5 668.45 706.05
L 722.9 703.6
M 531 13.15
L 531.05 15.75 522.15 13 522.25 28.65 522.45 28.75 526.4 30 526.5 33.3 522.2 32.05 522.15 37.3 522.3 37.45 523.25 38.1 524 39
Q 524.65 39.95 524.65 41 524.65 41.95 523.75 43 523 43.85 522 44.5
L 521.3 45 522.05 45.35
Q 525.3 47.35 528 49.5
L 532 53.1 533 54.5
Q 534.9 57.55 534.7 61 534.55 64.5 532.3 67.35
L 532 67.7 533.25 70.75 521.25 65.2 521.25 64.45 520.3 64.7 519.25 64.2 519.25 64.95 510.1 67.2 506.1 73.35 506 73.35 509.6 67.25 509.1 66.85
Q 508.55 66.45 507.95 65.7
L 506.85 64.35
Q 505.85 62.65 505.7 61.1 505.4 59.45 505.85 57.7
L 506.35 56 507.25 54.5
Q 507.35 54.3 508.25 53
L 512 49.05
Q 513.05 48.2 513.45 47.95
L 516.4 45.8 518 45 518.15 45 518 44.85
Q 516.15 42.85 516.15 41 516 40 516.7 39.05
L 517.8 38
Q 518.4 37.6 518.4 37.55 518.6 37.15 518.75 36.3
L 518.95 28.4 518.9 28 515.75 27.5 515.8 24.55 519.05 25.9 518.75 11.7 509.75 8 509.75 6.85 519.25 9.75 519.25 2.3 521.7 3 521.75 9.85 521.8 10.4 531 13.15
M 517.25 79.7
L 520.5 78.85 532.55 81.95 535 87.45 575.55 168.6 575.7 168.85 576 168.95
Q 580 171.3 583.55 174.35 586.9 177 590.3 180.7 597.05 188.05 600 196.4 601.55 200.4 602.2 205.35
L 602.45 309.5 593.75 307.65 593.65 210.9
Q 593.65 208.3 593.5 206.85
L 593.2 202.7
Q 592.45 197.2 591.8 194.65 589.9 186.05 585.5 179.4
L 583 176 580.15 173 574.25 168.65 571.45 167.2 566.7 165.35 557.75 162.85
Q 549.85 161 541.65 160.15 534.3 159.4 525.25 159.5 517 159.65 509 160.7 499.85 161.95 492.85 163.6 484.95 165.4 477.2 168 470 170.45 464.35 172.95
L 506.95 84.7 507.5 84.35 517.25 79.7
M 493.1 164.4
Q 501.45 162.7 509.1 161.85 516.35 160.95 525.25 160.85 533.75 160.7 541.5 161.65 548.8 162.35 557.45 164.4
L 558.8 164.7 554.9 164.4 553 164.45
Q 551.85 164.65 551.05 164.65
L 547.3 165.4 543.75 166.7 540.4 168.65
Q 539.85 169.05 538.9 169.85 538.2 170.2 537.45 171.1
L 534.8 173.9 531.7 178.7
Q 531.25 179.55 530.05 182.2 529.2 184.25 528.75 185.85
L 527.75 189.5
Q 527.2 192.1 527.05 193.35
L 529.25 294.55 524.25 293.55 523.95 293.55 468.35 301.3 467.2 211.65
Q 467 206.6 465.85 201.65 464.35 195.7 462 192.25 460.2 189.8 458.25 188.7 456.05 187.4 453.35 187.25 449.05 187.25 443.75 190.35 441.7 191.45 440 193.7
L 439.2 194.9 440 193.4
Q 440.65 192.15 442.75 189.2 444.85 186.65 446.1 185.4 452.9 178.6 463.1 174.85
L 463.5 174.65 464.25 173.25
Q 470.7 170.6 477.35 168.5 485.35 166.1 493.1 164.4
M 554.9 164.95
L 556.75 165
Q 557.45 165 560.5 165.4
L 562.15 165.65 569 167.9 573.45 170.15 577.5 172.95 580.4 175.65 583.5 179.45 584 180.35
Q 588.1 186.45 590.05 195 590.65 197.4 591.45 202.9 591.75 206.5 591.75 206.95
L 593 307.5 582.3 305.4 580.75 211.95
Q 580.7 210.05 580.25 207.85 578.65 198.7 574.5 192.35 572.2 188.8 568.95 186 565.4 183.2 561.55 181.9
L 557.5 180.9
Q 555.3 180.5 553.2 180.65 548.6 181.1 545.3 184.25 542.45 187.2 540.75 191.45 540 193.55 539.55 195.5 539.05 198.05 538.95 199.75
L 541 297 531.3 295 528.3 193.4
Q 528.45 191.95 528.95 189.75 529.25 188.05 529.8 186.15 530.45 184.1 531.05 182.65
L 532.55 179.2 535.55 174.45 539.4 170.45 540.9 169.35
Q 542 168.55 542.45 168.35
L 544 167.4 547.5 166.1 551.2 165.25 554.9 164.95
M 541.4 195.9
Q 541.75 194.2 542.5 192.15 544.2 187.85 546.55 185.5 549.35 182.8 553.3 182.35 554.9 182.15 557.25 182.45
L 559.7 182.95 561.05 183.4
Q 568.6 185.9 573.3 193.1 577.5 199.45 579.05 208.1 579.45 210.4 579.55 212.1
L 581.7 305.25 575.9 304.05 571 302.3
Q 562.75 299.5 560.5 298.8 560.5 293.25 560.4 290.4
L 560 281.3
Q 559.65 276.35 559.55 272.25
L 559.75 226.95 559.7 227.1 559.65 222.4
Q 559.5 220.95 558.95 217.85
L 557.7 213.4
Q 557.1 211.85 556.75 211.2 556.45 210.45 555.75 209.15
L 554.5 207.2 551.3 203.75 547.5 201.15 545.4 200.35
Q 544.6 200 543.2 199.65 541.1 199.25 541 199.2
L 540.95 199.4 543.05 200.1 547.05 201.95 548.8 203.2
Q 549.35 203.6 550.5 204.65
L 551.95 206.35 554.25 209.95 555.95 213.95 557 218.2
Q 557.45 221.15 557.5 222.6
L 557.55 224.75
Q 557.7 225.85 557.55 226.9
L 558.75 263.25
Q 559 270 559 272.25
L 558.75 299.5 558.8 300.15 559.45 300.25 563.95 301.65 543 297.4 540.75 199.85
Q 540.9 198.2 541.4 195.9
M 451.75 196.6
Q 449.9 195.9 447.5 196.65 443.8 197.9 441.45 201.9 439.65 204.95 438.5 209.15 437.65 212.45 437.25 216.75 436.95 218.8 436.95 220.65
L 435.75 325.55 461.1 304.4 524 295.65 608 312.75 609.55 313.4 610.95 317.15 609.9 318.8 609.8 318.9 609.75 319 607.3 324.8 605.25 324.8 602.65 343.65 602.7 443 594 441.4 593.8 374.4
Q 593.9 373.2 593.75 372 593.4 369.6 592.75 367.5 591.5 363.2 588.75 359 587.35 357 585.75 355.4 584.25 353.7 582.3 352.25 578.75 349.35 574.25 347.5 570.5 345.9 565.4 344.8 560.45 343.85 556.05 344.3 550.95 344.9 547.3 347.55 543.65 350.25 541.25 354.65 539.1 359.1 538.55 363.65
L 538.65 433.25 528 431.15 527.3 326.4 525.15 323.25 525.2 308.55 523.95 306.25 524 298.3 458.6 308.15 459.25 314.5 459.35 314.65 459.45 314.9 461.35 317.15 461.35 331.5 463.85 331.55 463.75 439 455.85 443.3 455.85 442.5 458.85 440.9 459 407.25
Q 459 381.35 458.85 374
L 458.7 368.25 458.35 365.65
Q 457.7 360.6 456.45 357.5 455.3 355 453.95 353.9 452.15 352.35 449.75 352.55 447.85 352.75 445.6 353.9 443.4 355.2 442.1 356.4 439.15 358.95 436.85 362.9 435 366 433.35 370.5 432.2 374.1 431.1 378.55 430.15 383.9 429.85 386.8
L 430.1 456.5 427.75 458.55 428.85 364 426.35 364.25 426.45 353.55 424.25 351.4 424.35 346.3 420.35 343.3 418.6 341.4 434 327 435 207.6
Q 435.45 204.95 436.1 202.65 436.25 202.15 437.1 199.5
L 437.7 198.2
Q 440.35 192.75 444 190.65 449.2 187.7 453.35 187.75 455.95 187.9 458 189.15 460 190.35 461.5 192.6 463.9 196.15 465.25 201.75 466.25 206.4 466.5 211.65
L 467.25 301.5 460.2 302.5 458.75 303.65 458.6 214.15
Q 458.6 210.35 458 206.4 457 201.55 455.1 199.1 453.65 197.15 451.75 196.6
M 453.85 200
Q 455.65 202.3 456.5 206.7 457.1 210.45 457.1 214.15
L 457.6 304.65 437.85 321.25 438.85 216.9
Q 439.25 212.75 440.1 209.6 441.15 205.5 442.85 202.7 444.9 199.25 448 198.15 449.8 197.5 451.25 198.1 452.7 198.5 453.85 200
M 462.6 316.5
L 460.7 314.15 460.1 309.25 522.95 299.55 522.95 306.5 523 306.65 524.2 308.75 524.25 323.55 524.3 323.65 526.45 326.75 527.4 431.75 532.8 432.75 524.45 431.75 524 431.75 523.75 455.8 496.85 446.75 496.6 446.8 474.1 453.65 470.7 454.05 470.5 454.05 470.25 454.25 467.35 456.05 467.35 439.65 510 435.9 507.7 337.5 481.35 340.25 481.85 433.25 506.75 429.75 506.75 428.9
Q 505.3 394.7 504.85 386.5
L 502.85 344.15 502.6 344.15 504.85 428.15 483.85 430.9 483.1 341.75 506.45 339 509.1 435.05 465.7 438.15 465.6 457.65 425.85 482.9 427.75 463.75 427.75 463.5 426.1 461 427.5 460.15 427.75 459.9 427.75 458.9 430.35 456.65 430.6 386.9
Q 431 383 431.95 378.75 432.9 374.55 434.2 370.8 435.9 366.2 437.6 363.4 440 359.4 442.75 357.15 444.15 355.9 446.1 354.8 448.05 353.7 449.75 353.55 451.85 353.4 453.25 354.65 454.55 355.8 455.45 357.9 456.65 360.9 457.25 365.8
L 457.75 374
Q 457.85 390.65 457.7 407.25
L 457.45 440 455.85 440.9
Q 455.9 419 455.75 385.15
L 455.6 371.25 455.35 370.05
Q 454.7 365.6 453.1 362.75 451.9 360.6 450.1 359.75 449.05 359.25 447.85 359.3
L 446.85 359.5 445.75 359.9
Q 442.5 361.45 439.85 364.9 437.7 367.65 436 371.5 434.7 374.6 433.6 378.75 432.65 382.75 432.25 386.15
L 432.25 455.3 454.1 443.4 454.1 446.25 465.5 440 465.35 330.15 462.75 330.15 462.75 316.65 462.6 316.5
M 433.85 386.3
Q 434.25 382.95 435.25 379.15 436.3 374.95 437.6 372.25 439.1 368.7 441.2 365.9 443.55 362.85 446.5 361.4 448.05 360.7 449.35 361.25 450.7 361.95 451.6 363.55 453.1 366.15 453.7 370.4
L 453.85 371.25 454.1 441.8 433.75 452.75 433.85 386.3
M 556.2 345.15
Q 560.4 344.6 565.25 345.65 569.35 346.4 574 348.3 578.45 350.15 581.75 352.9 583.6 354.3 585.15 356 586.7 357.65 588 359.5 590.65 363.4 591.9 367.75 592.6 370.4 592.75 372.15
L 592.9 376.65
Q 592.75 379.8 592.75 386
L 592.95 440.65 584.75 438.15 585.75 373.5
Q 585.05 369.5 583.25 365.9 581.75 362.45 578.9 359.3 576.15 356.35 572.65 354.4 569.3 352.65 565.05 351.9 560.75 351.15 557.05 352.15 553 353.15 550.2 356.3 547.55 359.4 546.4 363.4 545.7 365.8 545.65 367.4 545.45 368.1 545.55 369.4
L 546.05 434.05 604.55 445.3 604.7 344 607.05 326.9 608.7 326.9 611.75 319.75 611.7 319.9 611.9 319.65 619.9 341.3 614.2 347.55 614.2 351.25 611.4 351.25 611.4 363.65 609.5 363.65 611.45 458.15 614.2 463.25 613.4 466.75 653.05 481 595.7 474.15 595 466.65 594 466.65 592.4 465.75 592.65 458.5 581.4 456.4 581.4 451.15 566.4 448.4 565.5 454.25 555.5 452.15 555.5 452.55 547.5 456 547 460 528.8 457.4 528.95 457.5 525 456.15 524.75 432.5 536.8 433.55 538.9 433.9 539.25 434 539.3 363.65
Q 539.9 359.1 542 355.05 544.3 350.65 547.75 348.25 551.3 345.7 556.2 345.15
M 547.9 363.9
Q 549 360 551.3 357.4 553.9 354.4 557.45 353.55 560.6 352.75 564.8 353.4 568.6 353.9 571.95 355.75 575.3 357.55 577.8 360.25 580.25 362.9 582 366.5 583.65 370 584.4 373.65
L 583.55 439 586.8 440 547.9 432.55 547.2 369.3
Q 547.15 368.4 547.2 367.5 547.25 365.8 547.9 363.9
M 291.25 363.9
L 291.2 363 294.95 362.9 294.95 362.65
Q 294.95 361.05 295.1 359.15
L 296.25 359.15 296 363.3 299.75 364 299.75 364.05 295.85 364 296 372.5 297.75 373.4 297.7 373.75 296.25 373.4 296.35 375.25 295.6 377.15 295.5 377.25 295.85 373.4 295.85 373 294.35 372.25 295.35 372.65 295.35 371.4
Q 295.5 369.7 295.35 368.05 295.35 365.9 295.25 364.75
L 295.2 364.05 291.25 363.9
M 288.75 393.4
L 290.95 391.9
Q 292.2 391.15 293.1 390.15
L 294.2 389 296.1 384.65 296.85 387.5
Q 297.2 388.5 297.5 389
L 298.1 389.9 298.5 390.15 298.75 390.4 306.45 396.75
Q 308.2 398.35 309.35 400.25
L 309.85 401.15 310 401.75 310.1 401.8 310.1 401.9
Q 310.1 403.25 310.2 404.3
L 310.1 405.4
Q 310 406.15 309.85 406.4 309.85 406.6 309.25 408.5
L 308.1 410.5 305.85 413.25 307.25 415.25 306.1 415
Q 304.35 414.6 302.6 414.4
L 299.1 414
Q 297.9 413.9 297.45 413.9
L 303.75 413.65 303.75 413.5 301.35 412.8 296.35 412 291.25 411.8
Q 290.55 411.8 288.75 412
L 284.75 412.5
Q 284.1 411.85 283.5 410.8 282.8 409.85 282.35 408.75 281.85 407.45 281.7 406.55 281.45 405.55 281.45 404.25 281.35 403.15 281.5 401.9
L 281.6 401.65 281.6 401.5 281.95 400.25 282.6 398.9 283.25 397.9
Q 283.95 397 284.75 396.25 285.8 395.35 288.75 393.4
M 231.3 515.95
Q 230.65 511.8 228 509.9 225.2 508.1 221.25 508.75 217.8 509.1 215.25 511.9 213.2 514.25 212.1 517.85 211.55 519.6 211.3 521.1
L 211.1 522.75 211.1 556.75 195.4 564 197.6 562 197.6 561.8
Q 197.8 549.25 197.8 537.7
L 197.4 525.6
Q 197.35 522 198.15 519.75 198.8 518.1 199.75 517.3 200.8 516.25 202.35 516.1
L 202.5 516.1 202.5 516 202.6 515 202.55 514.45
Q 202.55 514.1 202.3 513.85
L 201.35 513.35 200.6 512.75
Q 199.75 512.05 199.35 511.25 198.85 510.35 198.75 509.3
L 198.65 509.3 211.1 504.75
Q 218.7 502.35 226.6 501 235.5 499.6 242.4 498.9
L 274.5 497.05 290.5 497
Q 295.85 497.15 298.6 497.15
L 306.6 497.65
Q 313.8 498.05 314.6 498.15
L 330.6 499.75
Q 334.65 500.2 337.95 500.75
L 337.85 504.75 324.25 549.75 311.7 554.5 319 556.7 321.6 562.75 323.45 562.75 323.45 576.55 313.1 584.85 317 589.75 318.2 600.5 318.6 600.75 321.7 602.35 322.1 604.3 209.35 598.95 191.8 609.25 185.9 609.2 186 613.25 180 602.05 175.75 612.85 174.85 611.8 179.1 596.2 184.9 606.55 204.75 593.3 204.75 593.25 204.8 593.25 208.9 589.6 246.55 587.25 290.7 577.3 207.5 574.95 195.4 570.1 195.3 570 195.3 570.05 195.25 570 195 570.5 195.05 570.55 205.75 576.6 206.1 581.45 206.1 581.55 206.25 581.55 208.15 582 208.55 586.95 208.75 586.95 208.5 581.75 208.35 581.75 206.4 581.3 206.1 576.35 206 576.3 199.1 572.25 207.3 575.75 278.35 578.5 246.1 585.55 246.3 585.55 208.5 587.85 208.15 587.85 205.25 590.5 205.05 584.2 205.9 580.75 184.6 580.75 174.05 568.7 167.6 595.25 165.85 593.45 172.05 567 201.3 568 201.5 567.8 207.9 564.35 208.65 564.25 208.65 567.5 227.85 566.3 227.85 565 231.75 565 231.75 560.5 247.1 559.5 247.1 563.8 250.9 563.8 250.9 563.5 271.25 563.6 271.1 561.3 271.35 561.3 271.35 563.1 273.95 563.1 273.95 561.55 275.1 561.55 275.1 563.55 278.85 563.55 278.85 558 299.35 558.05 299.5 565 302.45 564.3 302.6 564.1 303.1 563.25 303.35 564 306.35 564.5 306.6 557.45 308.95 558 308.75 523.75
Q 308.75 521.45 309.2 520.25 309.75 518.5 311 517.45 312.25 516.45 314.25 516 316 515.7 317.75 515.95 319.8 516.2 321 517.25 322.3 518.2 323.2 519.95 324 521.65 324.25 523.3
L 324.85 544.6 329 530.55
Q 330.05 526.8 330.5 524.6
L 330.75 523.05 330.75 521.5
Q 330.55 519.4 330.35 518.45 329.6 515.05 327.75 512.8 325.85 510.35 322.75 509.15 320.5 508.3 316.75 507.9 313.45 507.7 310.5 508.5 307.3 509.35 305.1 511.4 302.75 513.6 301.6 516.5 300.95 518 300.7 519.45
L 300.35 521 300.35 552.7 279.1 553.1 279.1 518.25
Q 278.85 514.1 277 511.25 275 508.1 271.1 506.75 267.8 505.6 263.85 505.75 259.8 505.85 256.7 507.25 253.1 508.9 251.1 512.1 249.3 515.15 248.9 519.2
L 248.85 553.5 231.8 554.25 231.55 519.25
Q 231.55 517.45 231.3 515.95
M 225.85 515.5
Q 224.75 514.45 223 514.3 222.5 514.3 221.5 514.5
L 220.8 514.6 220.1 514.85
Q 217.6 516 216.35 519.25 215.4 521.9 215.35 524.55
L 215.6 556.7 250.6 555.25 250.6 519.3
Q 251 515.65 252.6 513 254.45 510.15 257.45 508.75 260.15 507.5 263.85 507.4
L 267.25 507.55
Q 268.75 507.7 270.5 508.25 273.8 509.35 275.6 512.1 277.25 514.5 277.5 518.35 277.6 519.15 277.6 521.8
L 277.75 552.8 273.35 552.95 273.25 522.35
Q 273.25 521 272.95 519.5 272.2 516.15 270 514.3 267.65 512.5 264.35 512.5 261.05 512.45 258.75 514.55 256.8 516.5 256.1 519.8
L 255.9 521.25 256.5 554.3 272 554 272 554.25 279.1 554.1 279.1 553.8 301 553.3 301 521.05 301.25 519.55
Q 301.7 517.95 302.2 516.75 303.3 513.95 305.5 511.9 307.8 509.9 310.75 509.15 313.45 508.4 316.6 508.55 320.1 508.85 322.5 509.8 325.5 511.15 327.25 513.25 329 515.55 329.6 518.6 330 520.45 330 521.55 330.1 522.3 330 523.05 330 523.5 329.75 524.5
L 328.25 530.35
Q 327.6 532.85 325.5 539.7
L 325.1 523.25
Q 324.85 521.3 324 519.5 322.85 517.45 321.5 516.5 320 515.25 317.95 515 316.3 514.8 314.1 515.1 311.9 515.55 310.5 516.7 308.95 517.9 308.25 520 307.75 521.65 307.75 523.75
L 307.85 556.7 305.6 556 305.35 563.2 304.2 563 303.25 560.45 301.75 563.3 300.6 563.55 300.5 556.85 277.6 556.7 277.6 562.25 276.45 562.25 276.45 560.25 272.75 560.25 272.75 559.85 269.7 560 269.85 562.25 252.15 562 252.15 560.1 249.4 560.1 249.4 562.3 248.6 562.3 248.6 560
Q 252.9 559.95 257.1 560
L 266.25 560.2 266.35 558.5 246.3 557.75 229.9 558.8 229.9 563.25 229.3 563.25 229.3 560.8 226 561.2 226 564.55 210.6 565.5 210.6 564.25 215.15 562.75 214.65 560.95 207.25 562.55 200.8 566.05 193.35 565.8 212.1 557.3 212.25 523.25 212.5 521.3
Q 212.85 519.25 213.25 518.25 214.25 514.95 216.15 512.75 218.4 510.4 221.4 510 224.95 509.4 227.15 511 229.35 512.45 229.9 516.1 230.25 517.55 230.1 519.25
L 230.25 554.3 227.15 554.5 227.75 552.25 227.8 520.85
Q 227.8 519.35 227.35 518.05 226.85 516.4 225.85 515.5
M 175.1 573.2
L 183.6 582.85 203.15 582.85 202.9 583.75 203.1 589.55 184.65 589.75 176.85 577.5 170 604.55 164.65 605.25 158.6 619.6 162 620.75 161.35 622.6 156.3 626.6 101.55 626.05 101.4 612.8 101.55 612.45 101.55 612.25 99.4 612.2 99.4 610.6 98.55 610.55 98.5 610.75 98.4 612 90.9 612.05 90.9 610.55 90.8 610.3 90.55 610.35 90.25 610.35 90.05 610.45 90.05 610.6 90.15 611.7 87.55 611.75 87.65 608 86.9 607.85 94.8 602.5 103.3 608.25 104.65 603 101.65 601.75 100.9 591.25 100.9 590.8 99.65 590.75 99.65 590.3 100.15 590.5 100.3 590.5
Q 102.15 590.65 108.05 590.75
L 115.9 591.1
Q 120.5 591.45 131.35 592.7
L 154.75 594.75
Q 162.4 595.1 162.5 595.1
L 162.65 595.2 162.8 595.1 164.3 594.75 168.65 599.3 168.75 599.2 169.4 603.3 169.6 603.25 169.35 596.85 175.1 573.2
M 177.65 582.7
L 183.55 591.85 204 591.7 185.5 604.2 178.55 591.85 173.3 612.2 176.15 615.6 180.15 605.2 185.5 614.8 185.85 614.85 186.05 614.85 186.3 635.05 186 633.45
Q 185.75 632.3 185.35 631.75 185.1 631.45 184.85 631.3
L 184.6 631.25 184.25 631.25 184.05 631.35
Q 183.55 631.7 183.3 632.25 183 632.95 182.85 633.95
L 182.35 629.95
Q 181.85 627.55 181.35 626.7 180.95 626.05 180.35 625.85
L 179.85 625.8 179.8 625.85 179.6 625.95 179.55 625.95 179.05 626.3
Q 178.6 626.9 178.15 628
L 177.5 631.25
Q 177.2 633.6 177.05 636.55
L 176.8 635.95
Q 176.4 635.25 176.1 635 175.75 634.7 175.1 634.7
L 175.05 634.75 174.75 634.75 174.35 635
Q 173.95 635.4 173.65 636
L 173.35 636.8 173.1 638.5
Q 172.75 641.2 172.65 644.95
L 172.5 700.75 168.9 700.5 169.85 700.2 170.55 679.5
Q 170.7 675.5 170.6 669.25
L 170.4 658.45 169.9 658.25 169.85 655.5 170.35 655.5 170.35 654.75
Q 170.35 653.1 170.1 650.6
L 169.65 648.55
Q 169.35 647.4 168.8 646.5
L 168.25 646.05 167.85 646 167.35 646
Q 166.75 646.25 166.4 647 166.1 647.8 165.9 649
L 165.1 677.25 165.5 693.25
Q 165.55 695.8 165.85 700.6
L 161.15 700.25 161.25 641.35 86.25 639.2 86.05 634.5 162.55 636.45 162.55 628.95 149.1 628.55 157.05 628.6 157.35 628.45 163.1 623.75 164.55 619.5 161.35 618.45 166.1 607.2 171.6 606.45 177.65 582.7
M 315.75 585.25
L 317.25 584 329.35 579 329.5 579 329.75 574.85
Q 330 573.15 330.5 570.95
L 331.5 567.05
Q 332.05 565.1 332.85 563.25 333.95 560.65 334.5 559.7 335.3 558.1 336.45 556.2
L 338.75 553
Q 339 552.65 340.1 551.5
L 343 548.8
Q 343.3 548.7 344.7 547.85
L 346.5 547.2
Q 348 546.85 348.45 546.85 352.2 546.55 355.85 548.85 358.8 550.8 361.5 554.3 362.75 556.05 363.7 557.55 364.65 559.15 365.6 561.05
L 365.75 561.5 388.85 552.05 388.85 555.75 390.6 559 391.1 577 390.85 577 390.6 577.05 371.35 583.7
Q 371.1 582.5 370.45 580.75 369.45 578.25 368.85 577.1 366.9 572.95 364.35 570.55 362.75 568.95 361 568.25 359.1 567.35 356.95 567.5
L 354.85 567.8 352.95 568.5
Q 351.25 569.3 349.5 570.5 347.85 571.7 346.5 573.2 345.1 574.8 344.1 576.3 343.05 577.75 342.1 579.75
L 340.5 583.25
Q 339.15 587.05 338.35 590.75 337.55 594.7 337.35 598.25
L 323.5 602.25 323.35 601.1 320 599.3 318.75 589.25 318.75 589 318.6 588.75 315.75 585.25
M 95.4 570.5
L 95.05 578.8 86.4 578.85 86.25 570.6 91.05 566.8 95.4 570.5
M 128.35 642.05
L 124.5 641.5 160.1 642.5 160.1 700.25 160.05 700.25 159.5 700.2 134.6 699.95 134.6 662.3 143.1 662.5 143.1 656.5 139.55 656 139.15 653
Q 139.15 651.75 138.65 650.3 138.4 649.25 137.5 647.8
L 135.65 645.6
Q 134.3 644.4 133.4 644 133.15 643.8 131 642.8 129.15 642.2 128.35 642.05
M 83.4 639.6
L 83.75 639.8
Q 84.5 640.2 85.05 640.25
L 85.05 640.35 123.55 641.45 120.3 641.6 117.55 642.35 116.3 643
Q 115.3 643.55 115.15 643.75
L 113.05 645.7
Q 111.9 647.25 111.55 648 111.25 648.5 110.9 649.25
L 110.05 651.85 109.55 654.95 104.55 654.95 104.65 661.55 112.5 661.35 112.9 699.1 113.15 699.1 114.25 659.55 106.55 659.6 106.55 657 111.55 657 111.55 656 111.8 653.55 113.4 649
Q 113.55 648.7 114.65 647.05
L 116.4 645.5
Q 116.7 645.2 117.3 644.85
L 118.4 644.3 119.5 644
Q 119.95 643.8 120.65 643.75
L 123.9 643.5 125.5 643.7
Q 126.35 643.7 127.9 644
L 130.3 644.7 132.5 645.7
Q 133.1 646.05 134.35 647.05
L 135.9 648.8
Q 136.6 649.9 136.9 650.95 137.35 652 137.35 653.1
L 137.35 653.25 137.9 657.5 141.4 657.95 141.5 660.95 133.25 661 133.9 699.55
Q 129.05 699.35 124.65 699.05
L 115.65 698.55 115.8 659.5
Q 115.95 657.35 116.4 655.3 117.05 653 118.15 651.55 119.5 649.85 121.3 649.25
L 123.3 648.8 124.05 648.75 125.4 648.8
Q 127.65 649.1 129.35 650.2 132.85 652.3 133.75 657.25
L 133.85 660 134.05 660 134.1 657.2
Q 133.8 654.75 132.8 652.85 131.55 650.6 129.85 649.45 128.05 648.2 125.55 647.75
L 123.25 647.7
Q 122.4 647.7 122.15 647.75
L 120.9 648.05
Q 118.55 648.85 117.05 650.75 115.6 652.45 115 654.95 114.35 657.05 114.25 659.45
L 114.25 659.55 114.4 699.75 81.9 699.35 82.15 686.7
Q 82.35 681.3 82.4 673.5
L 82.75 650 82.9 650.5 105 650.2 105.25 650.1 105.05 644.8 104.9 644.8 104.75 649.7 83.75 649.25 82.4 646.45 82.55 638.8
Q 82.9 639.2 83.4 639.6
M 82.8 637.45
L 81.3 635.55
Q 80.4 634.3 79.4 633.3
L 75.15 629.25 70.3 625.95 67.65 624.55
Q 66.85 624.15 65 623.45
L 59.3 621.7
Q 57.6 621.3 56.5 621.2 53.9 620.8 50.65 620.55
L 49.3 620.45 48.75 620.2 48.3 619.75
Q 47.6 618.9 47.45 617.45
L 46.4 617.45 46.4 617.5
Q 46.25 618.75 45.55 619.35 44.95 620.1 43.7 620.1
L 32.55 621.95 26.6 623.95 24.35 625
Q 23.95 625.15 22.1 626.2
L 17.85 628.95 14.1 632.25
Q 13.15 633.25 12.65 634
L 12.25 634 12.65 632.3 13.55 630.05
Q 13.95 629 14.6 627.85
L 15.85 625.85 19.1 622.25 23 619.35
Q 27.15 616.85 32 615.3 35.55 614.2 39.25 613.6
L 78.8 614 80.8 614.3 82.8 637.45
M 81.8 645
L 81.55 644.5 81.5 646.8 77.05 646.25
Q 76.15 644.45 74.8 642.6
L 72 639.3 68.65 636.5
Q 66.35 634.85 65 634.05
L 61 632.2
Q 59.45 631.6 59 631.5 58.35 631.2 56.9 630.85
L 52.55 630 48.25 629.7 39.5 630.2 33.2 631.6 31.1 632.35
Q 30.95 632.5 29.1 633.25
L 28.1 633.75 23.5 636.75
Q 22.2 637.75 20.45 639.8 18.75 641.95 18.2 643.35
L 7.65 643.5 7.65 642.6 6.4 642.8 6.05 635.3 11.9 635.25 12.05 635 13.1 635 13.3 634.75
Q 13.8 634 14.85 632.95
L 18.5 629.7 20.5 628.25
Q 21.7 627.45 22.6 627
L 27 624.85 32.8 622.85 38.8 621.7
Q 39.4 621.55 41.25 621.45
L 43.75 621.2
Q 45.45 621.05 46.3 620.05 46.55 619.85 46.9 619.35 47.15 620.05 47.55 620.5
L 48.25 621 49 621.35
Q 49.1 621.45 49.8 621.55
L 50.55 621.6
Q 54.6 621.9 56.25 622.25 57.35 622.35 59.15 622.75
L 61.9 623.5
Q 64.35 624.3 64.55 624.45
L 67.25 625.5 69.75 626.85 76.55 632 78.55 634
Q 79 634.4 80.4 636.25
L 81.9 638 81.8 645
M 81.05 659.5
L 81 662.95 60.95 662.85
Q 60.55 660.6 59.5 658.25 58.35 655.6 56.9 653.95 54.95 651.65 52.95 650.75 50.65 649.6 48 649.35
L 46.75 649.25 42.95 649.6
Q 40.55 650 38.15 651.25 36 652.4 34.2 654.5 32.6 656.4 31.75 659 31.3 660.45 31.2 661 27.1 660.7 24.95 660.7
L 7.75 660.45 7.75 660.05 6.9 659.95 6.4 659.75 6.5 657 7.65 657 7.65 656.2 24.85 656.2 24.85 656
Q 25.2 653.95 26.45 651.85 27.6 649.75 29 648.25
L 30.7 646.75
Q 31.35 646.2 32.5 645.5 32.6 645.4 34.45 644.35
L 38.55 642.8
Q 39.05 642.75 40.75 642.3
L 43 642
Q 43.25 641.95 44.15 641.95
L 45.25 641.85 49.7 641.95
Q 50.4 641.95 51.9 642.25
L 54.05 642.75
Q 55.7 643.2 58.25 644.3
L 61.9 646.8
Q 63.95 648.7 64.9 650.05 66.05 651.55 67.15 653.95 68.25 656.55 68.5 658.1
L 68.5 658.35 68.55 658.45
Q 68.55 658.7 68.8 658.8
L 69.4 659.05 70.55 659.3 72.8 659.5
Q 75.65 659.75 81.05 659.5
M 81.4 647.5
L 81.05 659
Q 75.65 659.1 72.8 659
L 70.65 658.75 69.55 658.5 69.15 658.35
Q 69 658.3 69 658.05 68.7 656.2 67.65 653.7 66.25 650.9 65.3 649.75 64.2 648.15 62.25 646.45
L 60.45 645 58.45 643.85
Q 56.25 642.8 54.2 642.25
L 52 641.75
Q 50.5 641.45 49.75 641.45
L 47.5 641.3 40.7 641.85
Q 39.95 641.95 38.5 642.35
L 37.4 642.6 34.2 643.95 32.25 645.05
Q 30.95 645.85 30.35 646.45
L 29.5 647.1 28.75 648
Q 27.45 649.15 26 651.6 24.9 653.7 24.45 655.75
L 7.65 655.7 7.65 644 18.5 643.95 18.6 643.75
Q 19.05 642.35 20.85 640.1 22.55 638.25 23.85 637.2
L 24.75 636.5 29.35 633.75
Q 30.85 633.05 31.35 632.95
L 35.45 631.6 39.65 630.75 48.25 630.25 52.5 630.6 56.75 631.5
Q 57.55 631.6 58.75 632.05
L 63.75 634.05 64.65 634.6
Q 66.2 635.45 68.3 637
L 71.5 639.8 74.3 643
Q 75.75 644.95 76.55 646.6
L 76.65 646.8 76.8 646.8 81.4 647.5
M 36.9 613.6
Q 33.95 614.1 31.75 614.75 29.8 615.25 27 616.25
L 22.5 618.5 18.35 621.35 15.6 624.05 13.35 627.2 11.15 631.8 10.65 633.7 4.25 633.6 4.25 634 3.05 634 4.3 613.25 36.9 613.6
M 34.7 654.95
Q 36.15 653.15 38.45 651.8 40.85 650.55 43 650.25
L 44.25 650 48 650
Q 50.05 650.05 52.65 651.25 54.6 652.2 56.45 654.3
L 57.2 655.35
Q 56.458203125 654.3828125 55.25 653.5 53.35 652 50.65 651.3 48.15 650.75 45.55 650.95
L 42.45 651.3 40.55 651.95
Q 38.15 652.95 36.3 654.8 34.55 656.8 33.7 659.25 32.7 661.8 32.7 664.25
L 32.5 698.7 31.6 698.7 31.75 661.55 32.3 659.25
Q 33.35 656.45 34.7 654.95
M 33.55 664.25
Q 33.6 662.15 34.5 659.5 35.4 657.05 37 655.45 38.6 653.75 40.9 652.75
L 42.65 652.2 45.65 651.75
Q 48.2 651.6 50.45 652.2 52.65 652.65 54.75 654.2 56.65 655.7 57.9 657.8 59 660 59.5 662.35 60.1 664.65 60 667.1
L 59.7 668 59.7 691.95 59.75 692 60 693 60 697.75 57.5 698.6 56.15 698.55 56.15 698.75 33.5 698.75 33.55 664.25
M 31.1 661.5
L 31.1 664.1 7.55 663.85 7.65 660.95 31.1 661.5
M 79.15 714.05
L 80.4 713.7 81.3 713.7 81.3 713.35 81.55 713.3 155.55 714.85 155.55 715.35 155.25 715.5 155.55 715.6 155.5 729.3 77.55 727.75 79.15 714.05
M 303.45 630.6
L 300.95 627.85 299.45 626.75
Q 298 625.9 297.85 625.75
L 292.6 623.85
Q 290.85 623.5 290.75 623.5
L 287 623.1 283.35 623.25
Q 282.35 623.3 279.7 624 277.25 624.75 276.25 625.45
L 275.35 625.85 273.2 627.6 271.85 629
Q 270.85 630.25 270.75 630.5 270.1 631.35 269.75 632
L 268.85 633.75
Q 268.75 633.95 268.2 635.45
L 267.6 637.25
Q 267.1 639.25 266.95 640.55
L 238.5 639.5 238.6 620.45 241.1 614 210.75 613.05 205.6 617.25 205.55 617.3 205.55 617.35 206.6 620.25 206.6 620.35 212.15 618.5 211.35 637.55 210.35 637.5 204.35 640.8
Q 204.55 637.1 204.3 632.85 203.85 629.55 203.6 628.55 203 626.9 202.35 626.5 202.2 626.3 201.75 626.2 201.25 626.15 201.05 626.25 200.5 626.3 199.85 626.95 199.4 627.4 198.75 628.95 198.4 629.8 198.1 631.05 197.9 632 197.55 635.35 197.25 638.7 197.35 643.85
L 194.9 645.8 194.8 646 194.8 651.55 197.65 650.25 197.55 702.8 189 702.25 189.15 702.1 187.9 614.95 191.6 615 190.9 619.2 210.55 608.75 322.25 612.2 322.75 641 306.6 641
Q 306.6 639.4 306.25 637.5 305.9 635.7 305.25 633.95 304.75 632.8 303.45 630.6
M 301.85 629.5
Q 302.45 630.1 303 630.95 303.95 632.3 304.75 634.05 305.45 635.75 305.85 637.55 306.15 639.85 306.1 641.2
L 306.1 641.45 322.75 641.35 322.95 647.45 301.85 646.85 301.75 642.25
Q 301.55 640.9 301.5 640.7
L 300.2 636.95 299.75 636.25
Q 299.2 635.3 298.85 634.95
L 297.85 633.75 296.6 632.75
Q 296.3 632.45 295.25 631.8
L 292.35 630.55 289.25 629.95 287.7 629.85 287.7 630 289.25 630.05 292.25 630.75 295.2 632 297.7 633.85 298.7 635.05 300 637 301.25 640.75
Q 301.3 640.95 301.5 642.25
L 301.6 647.1 322.95 647.75 323.95 703.5 321.45 703.5 321.45 703.85 300.7 703.8 300.1 695 300.75 643.5
Q 300.7 640.45 299.25 637.75 297.85 634.8 295.35 633.2 293 631.65 289.7 631.2
L 286.75 631.1
Q 285.4 631.1 283.75 631.35
L 280.85 632.1 278.25 633.55
Q 275.6 635.35 274.5 638.3 273.4 641.05 273.6 644.25
L 273.2 703.75 246.6 703.7 246.6 703.6 246.75 702.95 272.25 702.3 273.35 646.45 238.5 646 238.5 645.8 238.6 644.75 238.5 644.75 238.5 640.25 267.5 641.25 267.6 641
Q 267.65 639.55 268.25 637.35
L 269.5 634 271.25 630.8 272.35 629.45
Q 272.6 629.1 273.6 628.1
L 274.25 627.5 276.5 626
Q 276.8 625.8 279.85 624.5
L 283.35 623.8 287.95 623.75 290.7 624.05
Q 291 624.05 292.5 624.45
L 294.25 624.8 297.6 626.25 300.6 628.25 301.85 629.5
M 286.75 632.5
L 289.5 632.6
Q 292.35 632.9 294.5 634.35 296.65 635.75 298 638.35 299.15 640.75 299.25 643.5
L 298.6 695 299.25 703.75 274.6 703.75 275.1 644.05
Q 274.8 641.35 275.85 638.8 276.9 636.25 279 634.75
L 281.35 633.5
Q 281.8 633.3 282.7 633.05
L 284 632.75 286.75 632.5
M 205.85 617.35
L 210.9 613.35 239.15 615.25 237.1 620.05 237 638.25 212.1 637.55 212.35 618.25 206.8 620.05 205.85 617.35
M 212.05 638.35
L 237 639 236.9 644.75 211.9 644.35 212.05 638.35
M 180 627.25
L 180.1 627.25 180.25 627.35
Q 180.6 628.05 181.05 630.2 181.3 631.75 181.4 633.25 181.7 635.35 181.85 639.5
L 182.1 645.5
Q 182.1 645.4 182.25 645.75 182.5 646.25 183.3 645.55
L 183.35 645.3 183.65 635.55
Q 183.9 633.6 184.3 632.7
L 184.55 632.35
Q 184.8 632.85 185 633.7 185.2 634.7 185.35 636.75 185.6 639.85 185.5 643 185.4 645.45 185.55 649.3
L 186.35 699.95 186.55 699.95 186.6 674.6 187.1 700.8 184.8 701.95 174.55 701.25 174.35 644.95
Q 174.35 641.25 174.75 638.75
L 175.15 636.6 175.3 636.5 175.35 636.6 175.8 638
Q 176.4 640.8 176.6 644.05
L 176.85 646.8 176.85 647.05 176.65 647.35 176.85 647.1
Q 177.15 648.1 177.8 647.85 178.2875 647.2125 178.35 647.05
L 178.3 643.95
Q 178.3 639.75 178.4 637.6 178.55 634.45 178.85 631.45 179.1 629.75 179.5 628.45 179.6 627.75 180 627.25
M 167.25 647.35
Q 167.5 646.95 167.6 646.95 167.8 646.95 168 647.2 168.35 647.7 168.55 648.8
L 168.8 653.85 168.25 653.85 168.1 659.45 168.6 659.7 168.5 669.25
Q 168.4 673.25 168.55 679.5 168.65 687.2 168.8 689.7
L 169.15 699.75 167.1 700.7 166.15 700.6
Q 166.55 695.75 166.6 693.25
L 166.85 673.2 166.35 657.1
Q 166.3 654.45 166.35 653.1 166.45 650.95 166.65 649.2 167.1 647.65 167.25 647.35
M 236.9 646.05
L 236.9 646.85 236.85 647.3 236.9 647.3
Q 236.9 658.6 237.05 662.25
L 237.35 703.6 211 703.55 211.9 645.6 236.9 646.05
M 210.5 645.55
L 211 645.55 208.8 703.55 208.15 703.55 207.9 703.5 202.8 703.25 203.8 647.85 210.5 645.55
M 242.6 743.25
L 242.5 727.75 321.75 726.1 321.75 729.1 317.45 732.85 317.45 733.2 316.75 733.75 317.45 733.95 317.45 739.85 242.6 743.25
M 245.5 701.5
L 245.1 703.7 238 703.6 238.5 647.35 271.95 647.8 270.85 700.95 245.5 701.5
M 590.55 460.15
L 590.2 468.75 593.05 468.75 593.65 475.75 582 474.75 580.8 516.35 567.65 516.35 565.7 474.75 545.4 473.15 545.05 489.05 501.85 527.85 488.85 527.75 497.6 526.45 539.5 489.3 539.45 489.05 539 473.55 538.8 473.55 538.45 488.8
Q 530.15 495.7 528 497.55
L 496.7 524.45 481.6 527 481 487.75 477 479.15 477 466.5 457.85 476.25 411.7 501
Q 410.95 501.45 402.75 506.05
L 400.1 502.75 470.25 461.55 556.75 468.55 557.05 454.15 566.9 456.3 567.8 450.5 579.5 452.65 579.5 457.9 590.55 460.15
M 487.5 591.25
L 486.6 591.25 486.5 589.35 504.35 589.8 506.85 606.25 505.95 709.95 489.35 710.5 488.1 605.85 488 605.75 487.45 605 487.5 591.25
M 476.35 479.25
L 480.25 488 479.7 527.75 476.85 527.7 462.35 531.95 443.5 515.8 443.35 515.75 431.5 516 430 515.85 403.35 506.4 421.5 497.15
Q 426.25 494.8 440.1 487.5
L 458.5 477.5
Q 472.2 469.85 476.35 467.65
L 476.35 479.25
M 361.6 452.4
L 356.95 455.75 356.6 445.75 371 446.5 371.1 451.5 373.6 454.15 372.1 454.15 372.1 454.25 361.5 454.4 361.6 452.4
M 361.35 470.15
L 361.5 454.65 372.1 455.05 372.1 467.4 372.5 467.5 387.75 473.05 359.85 472.8 360.2 490.75 360.25 490.8 360.5 491.25 360.7 500.4 360.75 500.5 379.1 528.95 389.7 524 389.7 524.1 393.95 524.5 394 533.05
Q 394 536.8 394.2 542.2 391.75 543.7 388 546.3
L 383.2 549.7 376.35 552.3 376.1 551.7 374.75 549.55 373.1 547.8 371.1 546.45 367.7 545.1 365.25 544.75
Q 363.9 544.6 362.85 544.6 361.8 544.6 360.5 544.75
L 349.6 546.1 348.35 546.1
Q 347.6 546.15 346.35 546.5
L 345.35 546.8 344.45 547.25
Q 344.05 547.4 342.6 548.3
L 341 549.55 338.25 552.55 336 555.85
Q 334.85 557.7 334 559.45
L 331 566.95 330 570.8
Q 329.5 573.8 329.45 574.8 329.25 575.95 329.1 578.75
L 317.95 583.45 325.25 577.45 325.25 560.95 324.35 560.95 329.1 558.75 329.25 558.7 341 519.6
Q 344.1 508.85 344.6 506.65
L 344.7 506.5 344.45 494 350.25 488.75 350.25 518.25 356.75 515.05 357.25 472.55 361.35 470.15
M 390.5 490.5
L 390.5 489.9 394.1 492 399.7 503 399.95 502.9 402.25 506.25 394.5 510.15
Q 387.85 499.05 386.35 496.3
L 380.25 484.5 390.5 490.5
M 392.75 513.2
L 394.85 510.75 394.85 510.65 402.75 506.75 427.45 515.7 392.75 513.2
M 389.35 514.5
L 389.25 514.6 389.6 523.25 379.7 527.25 361.75 500.05 360.85 491.75 377.75 519.25 388.85 513.7 389.35 514.5
M 395.85 543.1
L 396 523.95 423.35 526.25 421.75 530.5 419 530.35 418.75 535.25 415.75 535.2 413.6 543.75 413.5 543.85 413.5 545.7 394.85 545.05 394.75 545.1 385.95 548.55 395.85 543.1
M 356.1 569
L 357 569
Q 358.85 568.85 360.35 569.6 361.85 570.2 363.35 571.7 365.35 573.55 367.5 577.8 368.5 580.2 368.85 581.3 369.65 583.45 370 584.95
L 370.25 585.75 391.1 578.8 391.5 578.85 393.6 582.3 393.95 712.1 377.6 709.7 377.85 619.35 369.5 621.25
Q 369.3 617.95 368.75 614.1 368.05 609.7 367.1 606.5 366.35 604.15 365.7 602.8 364.75 600.95 363.25 599.55 361.45 597.9 359.25 598.2 358.55 598.2 357.25 598.6
L 355.45 599.55
Q 352.35 601.5 350 605.25 348 608.5 346.75 612.45 344.5 619.5 344.35 627.25
L 336.5 629 336.5 629.5 336 633.95 336 634 338.2 641.75 339 705.95 326 704.75 324.1 604.75 324 604.7 323.6 602.5 338 598.75 338 598.5
Q 338.35 594.8 339.25 591 340.4 586.65 341.5 583.7
L 343.1 580.25
Q 344.1 578.3 345.1 577 346 575.6 347.45 574.05 348.6 572.85 350.25 571.6 351.65 570.65 353.5 569.8
L 356.1 569
M 477.5 606.25
Q 480 610.4 481.25 616 482.5 621.3 482.5 626.35
L 482.85 710.75 472.6 711.1 472.85 628.35
Q 472.85 625.3 472.25 621.45 471.5 617.6 470 614.75 468.2 611.2 465.35 609.35 462.45 607.65 458.45 607.85 454.55 608.15 451.6 609.95 448.7 611.7 447 615.25 445.55 618.2 445.1 622
L 446.2 712.6 471.5 712 471.5 712.25 487.35 711.75 485.85 713.95 486.6 743.75 444.5 746.45 396 747.85 395.75 714.05 438 712.95 437.35 624.3
Q 437.05 619.05 438.25 614 439.45 608.45 442.25 604.5 445.2 600.2 450.2 598.05 454.65 596.2 460.35 596.35 465.95 596.5 470.35 598.95 474.5 601.3 477.5 606.25
M 364.6 603.35
Q 365.4 604.9 366 606.85 367.15 610.6 367.6 614.25 368.3 618.15 368.35 621.95
L 368.45 622.55 376.75 620.75 377 709.6 366.95 708.05 366.7 636.55
Q 366.55 628.75 365.7 624.5 364.95 620.7 363.75 618.5 363 616.9 361.85 615.8 360.55 614.6 358.7 614.35 356.95 614.2 355.25 615.05 353.9 615.9 352.75 617.25 351.1 619.4 350.1 623 348.7 628 348.45 635.1 348.35 636.75 348.5 641.2
L 350 706.5 340.6 705.25 339.6 641.5 337.5 633.8 337.45 634 337.45 633.75 337.5 633.8 337.75 630.1 345.75 628.35 345.75 627.8
Q 345.75 619.85 348 612.8 349.25 608.85 351 606 353.3 602.25 356.1 600.6 356.6 600.2 357.7 599.8 358.7 599.45 359.35 599.35 361.05 599.2 362.5 600.5 363.6 601.45 364.6 603.35
M 394.75 771.35
L 394.85 755.25 396 749 444.6 747
Q 447.15 747 454.5 746.5
L 486.6 744.8 487.1 764.6 394.75 771.35
M 640.5 609.5
L 641.8 609.75 642.5 657.05 642.5 705.5 647.8 705.55 630.4 706.25 629.7 601.5 640.9 601.45 640.5 609.5
M 597.4 606.75
Q 601.15 610.45 603.7 616.25 604.8 618.85 605.55 621.6 606.3 624.65 606.65 627.25
L 606.7 628.2 625.25 628.8 625.45 706.05 597.65 707.25 597.4 631.8 597.25 630.6
Q 596.9 628.4 596.2 626.05 594.65 621.2 592.25 617.55 589.35 613.3 585.5 611 583.35 609.85 581.05 609.2 578.9 608.6 576.4 608.5 571.4 608.35 567.05 609.8 564.85 610.65 562.8 611.95 561 613.1 559.15 614.85 555.9 618.1 553.9 622.6 551.9 626.75 551.15 631.5
L 551.25 708.25 525.2 709.25 524.5 625.05 544.8 624.75 544.95 623.8
Q 545.1 621.3 546.15 618.3 546.85 615.85 548.3 613 551.2 607.55 555.4 604.25 557.7 602.45 560.2 601.2 562.65 600 565.5 599.25 567.85 598.6 571.15 598.25
L 576.9 598.2
Q 578.4 598.2 579.75 598.45
L 582.55 598.85 588 600.5
Q 590.15 601.3 593 603.1 595.25 604.6 597.4 606.75
M 569.55 613.3
L 573.5 612.75 577.5 612.85
Q 579 613.05 581.3 613.6 585.3 615 588 617.75 590.65 620.7 592 624.6 593.25 628.2 593.65 632.55
L 593.05 729.95 595.05 734.5 594.8 754.85 555.75 758.2 555.7 744.2 554 739.35 553.7 739.45 554.3 634
Q 554.5 632.55 555 630.2 555.5 628.4 556.2 626.35 557.75 622.4 559.95 619.5 560.9 618.25 562.7 616.75 564.05 615.55 565.95 614.6 567.55 613.8 569.55 613.3
M 100.15 661.95
L 87.55 661.75 87.65 679.3 88.3 696 88.55 696 88.8 690.55 88.9 696.8 99.9 696.55 99.8 687.7
Q 99.65 682.6 99.75 679.3
L 100.15 661.95
M 98.8 663.5
L 93.4 663.5 93.9 663.45 98.8 663.3 98.8 663.5
M 90.65 665.5
L 97.05 665.45 97.9 693.45 98.15 693.45 98.9 668.3 99.05 679.3
Q 99.15 682.15 99.05 687.7
L 98.9 695.5 90.5 695.3 90.65 665.5
M 146.15 664.25
L 146.1 665.05
Q 145.8 670.4 145.8 673.05
L 145.75 697.1 145.9 697.1 146.35 692.55 146.35 698.2 157 698 157.25 675.75 157.9 665.5 157.85 665.45 157.9 665.35 157.9 665.3 158 665.25
Q 158.1 665.1 158 664.95
L 157.85 664.75 157.6 664.6 157.55 664.6 157.35 664.55 146.15 664.25
M 151.85 666
L 148.25 665.8 157.15 665.35 155.15 696.25 148.4 696.1 148.1 666.85 156.1 666.45 156.1 666.25
Q 152.75 666 151.85 666 Z"/>
</g>
</defs>

<g transform="matrix( 1, 0, 0, 1, 0,0) ">
<use xlink:href="#Layer1_0_FILL"/>
</g>

<g transform="matrix( 1, 0, 0, 1, 0,0) ">
<use xlink:href="#Layer0_0_MEMBER_0_MEMBER_0_MEMBER_0_FILL"/>
</g>
</svg>
