
<svg xmlns="http://www.w3.org/2000/svg" version="1.1" xmlns:xlink="http://www.w3.org/1999/xlink" preserveAspectRatio="none" x="0px" y="0px" width="750px" height="773px" viewBox="0 0 750 773">
<defs>
<g id="Layer0_0_FILL">
<path fill="#522810" stroke="none" d="
M 660.3 494
L 660.15 484.55 677.05 486.7 616.85 464.85 617.3 462.8 614.45 457.35 612.7 366.75 614.5 366.75 614.5 354.35 617.3 354.35 617.3 348.75 623.4 342 612 311.05 605.5 308.45 604.85 209.9
Q 604.9 209.15 604.8 207.45
L 604.55 205
Q 603.95 200.2 602.2 195.55 598.9 186.8 591.85 179.3 589.05 176.2 584.8 172.75 580.8 169.55 577.15 167.45
L 535.55 87.2
Q 533.45 83 532.95 81.8
L 533 81.85 533.7 72.95 536.75 74.35 534.1 67.9
Q 536.15 64.9 536.3 61.05 536.45 56.95 534.25 53.65
L 533.05 52.15
Q 532.45 51.5 531.65 50.85 531 50.25 528.8 48.5 525.7 46.25 523.3 44.85 524.05 44.15 524.55 43.55 525.55 42.3 525.6 41.05 525.65 39.7 524.7 38.45 524.35 38 523.8 37.5
L 522.95 36.85 522.9 33 527.25 34.2 527.2 33.75 527.05 29.7 527 29.5 526.8 29.4 522.85 28.2 522.95 14.1
Q 524.7 14.65 531.45 16.9
L 532.1 17.1 532.2 12.3 523.25 9.3 523.35 1.75 517.55 0 517.55 7.4 508.05 4.5 508.05 9.15 517.3 12.8 517.7 23.9 514.6 22.75 514.7 28.5 517.95 28.85 518.15 35.15 518.05 36.2
Q 517.95 36.95 517.85 37.15
L 517.05 37.8
Q 516.45 38.4 516.25 38.75 515.55 39.75 515.65 41.05 515.8 42.1 516.45 43.2 517.1 44.2 517.85 44.85
L 516.25 45.55 513.15 47.55 508.95 51.15 507.65 52.5 506.55 54
Q 506.15 54.5 505.55 55.6
L 504.85 57.4
Q 504.3 59.35 504.6 61.25 504.8 63.15 505.85 64.9 506.25 65.6 506.95 66.5 507.4 67.05 507.85 67.55
L 503.55 74.3 505.85 74.85 505.75 84.35 506.2 84.35 462.05 173
Q 457.35 174.65 452.85 177.3 448.25 180.1 444.5 183.8 443.25 185 440.95 187.8 439.2 190.15 438 192.2 435.3 196.8 433.85 202 433.05 204.7 432.7 207.2 432.55 208.15 432.45 209.9
L 431.5 325.95 415.25 341.25 418.55 344.9 418.6 345 418.7 345.1 421.95 347.5 422 352.35 422.35 352.65 424.2 354.5 424.25 366.7 426.75 366.4 426.7 412.4
Q 426.65 428.05 426.6 459.3
L 424.55 460.7 426.6 463.8 424.7 484.75 465.65 458.8 465.65 459.25 471.15 455.8 474.35 455.4 474.4 455.4 474.5 455.35 496.85 448.4 528.55 458.7 528.65 458.7 548.25 461.7 548.95 457.05 555.5 454.35 555.25 466.8 470.15 460.2 469.95 460.2 400 502.05 394.55 491.6 394.5 491.55 390.5 489.2 390.1 477.4
Q 389.9 474.9 389.85 474
L 393.45 474.05 373.2 466.7 373.2 455.2 376.05 455.2 372.35 451.05 372.35 445.15 354.75 443.75 354.75 444.85 348.85 451.3 348.8 461.6 346.45 464.45 346.35 464.65 346.5 482.55 338.4 488.9 338.1 489.1 337.95 500.4 334.75 499.75
Q 331.05 499.05 330.8 499
L 322.8 497.7
Q 310.3 496.2 306.75 495.95
L 282.55 494.6 264.35 494.8
Q 263.65 494.8 262.35 494.9
L 246.2 495.9
Q 244.85 495.95 242.15 496.25 233.35 497.1 226.1 498.45 218.05 499.9 210.4 502.65 208.2 503.35 206.55 504.05
L 202.85 505.6 202.8 505.75
Q 202.8 505.65 202.75 505.65
L 202.65 505.7 202.6 505.65
Q 202.55 505.55 202.5 505.5 202.65 505.55 202.75 505.65
L 202.85 505.6 203.35 504.3
Q 204.8 501.15 207 497.25 210.85 490.6 216.05 484 221.45 477.2 226.85 472.1 233.1 466.25 239.2 461.9 245.65 457.3 252.95 453.65 267.35 446.5 283.3 444
L 284.2 443.85 284.45 416.5 283.75 415.75 285.15 415.35 288.6 414.95
Q 290 414.85 292.1 415
L 295.55 415.4
Q 297.85 415.7 299 415.75 300.2 415.85 300.75 415.85 301.85 415.95 302.5 415.95
L 306 416.05
Q 306.3 416.05 306.6 416.1
L 305.7 416.7 305.4 441.75 293.95 441.75
Q 292.55 441.75 291.1 441.75
L 291.05 441.75 291.1 444.05 302.5 444.3
Q 304.2 444.45 305.2 444.6 307.25 445 308.45 445.45
L 311.75 446.8
Q 317.85 449.05 318.45 449.3
L 325 452.2
Q 325.45 452.4 328.15 453.8
L 334.35 457.3
Q 335.35 457.95 337.4 459.2
L 343.25 463.25 343.45 463 331.8 454.65 319.05 447.95
Q 314.6 446.1 312.45 445.2 310.25 444.25 309.15 443.8 308.65 443.55 307.95 443.35
L 308.7 418.35 311.6 416.4 309.7 413.45 310.65 412.25
Q 311.1 411.65 312.1 409.85 312.8 408.05 313 407.1 313.1 406.8 313.35 404.25 313.35 403.85 313.25 401.65
L 313.25 401.35 312.85 399.95 312.15 398.6
Q 311.45 397.4 310.5 396.3
L 308.65 394.4
Q 306.05 391.85 300.75 387.85
L 300.5 387.65 300.4 387.55
Q 300.35 387.5 300.3 387.4
L 299.95 386.55 297.95 379.75 297.95 379.7 298 379.35 298 379.05 297.95 378.65
Q 297.95 378.15 297.6 377.75 297.4 377.55 297.3 377.45
L 297.5 375.05 298.7 375.55 299.6 372.55 297.9 371.4 298 366.15 301.75 366.05 301.65 362.35 297.75 361.85 297.5 357.75 294.1 358.25 294.15 358.65
Q 294.3 360.55 294.3 362.3
L 290.8 362.25 290.45 362.2 290.35 364.6 293.8 365.35 293.65 370.15 291.8 369.5 291.95 372.85 294.7 373.8
Q 294.95 376.25 295.05 377.4 294.4 377.75 294.1 378.4 293.9 378.9 293.9 379.15 293.85 379.35 294 379.75 294.05 380 294.35 380.5
L 291.95 386.7 291.65 387.2
Q 291.15 387.85 291 387.95 290.5 388.5 289.2 389.4
L 287.1 390.85
Q 284.1 392.9 282.8 394.05 281.5 395.35 280.9 396.15 280.7 396.35 280.1 397.35
L 279.4 398.75 278.85 400.75 278.8 400.8 278.8 400.95 278.75 401 278.75 401.2 278.7 401.55
Q 278.55 403.05 278.6 404.35 278.7 405.95 278.95 407.15 279.2 408.45 279.85 409.85 280.4 411.15 281.15 412.3 281.6 412.9 282 413.45
L 279.7 415.4 280.15 415.9 278.9 417.1 280.8 416.6 281.75 417.6 282 442
Q 266.4 445.05 252.3 452.45 245.25 456.25 238.6 461.05 232.4 465.5 226.2 471.45 214.35 482.95 205.9 496.55 203.45 500.6 201.95 503.7 201.45 504.9 201.3 505.4
L 201 505.45 200.05 505.85
Q 197.4 507.1 196.4 507.75
L 195.9 508.1 195.7 508.3
Q 195.55 508.45 195.5 508.65 195.4 508.75 195.45 509.15 195.55 509.6 195.85 509.75 196.2 509.95 196.35 509.9
L 196.55 509.9 196.75 509.85
Q 197.1 509.8 197.85 509.6
L 198.55 509.35
Q 198.55 510.3 199.15 511.3 199.45 511.95 200.45 512.95
L 201.7 513.85 202.15 514.1
Q 202.3 514.1 202.3 514.45
L 202.25 515.8
Q 200.75 515.9 199.55 517.05 198.45 518.05 197.9 519.6 197 521.95 197 525.65
L 197.25 537.7
Q 197.25 545.65 196.85 561.6
L 192.4 565.75 170.5 564.95 163.9 593 162.45 593.3 131.5 591.25
Q 119.85 590.8 115.95 590.5 113.35 590.3 108.15 589.7 101.7943359375 588.9666015625 100.65 588.85
L 100.55 588.8 100.05 588.6 100 578.15 96.3 577.85 96.6 570 96.4 569.8 91.1 565.2 85.25 569.8 85 569.95 85.15 578.3 82.7 578.55 82.65 579.15 82.5 588.35 79.4 588.95 78.05 613.25 3.5 612.35 2.05 634.95 4.3 634.95 4.6 644.9 5.65 644.8 5.75 644.8 5.65 654.9 4.55 654.9 4.3 661.35 5.65 661.7 4.6 690.7 3.4 690.7 3.4 697.1 1.9 697.1 2 712 1.05 712 1.05 712.25 0.05 724.1 0 724.35 75.4 726 75.45 725.85 0.6 723.85 1.6 712.55 2 712.55 2 713.15 41.8 713.05
Q 42.4 713.05 43.1 713.05
L 78.45 713.6 78.45 713.7 76.7 728.55 77.15 728.6 155.5 730.25 155.5 730.4 156.1 730.55
Q 177.95 737.3 182 738.5
L 207.25 746.1 207.25 746.5 290.9 741.8
Q 299.85 741.3 317.45 740.55
L 317.45 744.25 394.7 773.2 394.75 772
Q 408.15 771.3 434.05 769.75
L 555.75 761.8 555.75 759.2 565.05 758.65
Q 571.85 758.25 575.3 758
L 596.55 756.4 596.45 734.1 596.35 734 594.25 729.65 593.85 632.55
Q 593.6 627.65 592.6 624.4 591.25 620 588.7 617.1 586 614 581.75 612.45 579.6 611.75 577.65 611.45
L 575.55 611.25
Q 574.2 611.15 573.45 611.2
L 569.25 611.7
Q 567.1 612.2 565.2 613.05 563.5 613.85 561.6 615.3 559.75 616.75 558.55 618.3 557.15 619.95 556.1 621.8 557.9 618.45 560.35 616.05 561.95 614.45 563.75 613.3 565.75 612.1 567.65 611.4 571.8 609.95 576.3 610.2 578.2 610.25 580.65 610.85 582.8 611.45 584.6 612.55 588.25 614.7 590.8 618.55 593.1 622.05 594.45 626.6 595 628.35 595.45 630.9
L 595.75 709.25 627.4 707.95 627.4 707.6 628.25 707.55 628.25 709.75 596.7 711.75 596.7 711.95 628.25 711.15 628.2 752.15 598.5 756.35 598.5 756.55 630.15 753.8 630.15 753.1 727.15 742.55 726.15 706.05 726.05 705.9 724.3 702.4
Q 723.7 669.85 723.3 653.55
L 722.2 604.75 724.4 601.2 696 600.45 695.9 600.55 693.85 602.3 693.7 602.4 693.75 602.6 694.15 612 694.2 612.05 695 614.75
Q 695.6 629.35 696.6 658.4
L 698.1 701.75 695.25 702.35 694.3 637.2
Q 694.65 632.7 694.15 628.15 693.55 623.25 692 619.35 691.1 617.15 689.85 615.25 688.55 613.35 686.7 611.75 683.3 608.85 678.1 608.25 676.2 608.15 675.8 608.15
L 673.5 608.25
Q 670.9 608.6 668.95 609.45 664.55 611.3 661.95 615.6 659.85 618.95 658.7 624.2 657.9 628.3 657.8 633.2 657.75 634.2 657.9 642.1
L 659.45 705.1 657.9 705.15 657.8 659.15
Q 657.6 629.3 657.4 614.05
L 659 614.05 659 611.3 657.15 611.35 657.05 602.8 658.9 601.05 658.9 599.15 658.85 598.65 628.05 597.85 628 598.05 657.85 599.65 657.85 600.6 656.15 602.15 656 602.35 655.95 602.55 655.9 612.55 657.75 612.6 657.75 612.75 656.05 612.75 656.15 682
Q 656.25 696.55 656.4 704.1
L 643.85 704.2 643.15 657.05
Q 643.15 656.95 643 633.15
L 642.75 609.25 642.7 608.9 642.35 608.8 641.55 608.7 642 601.4 642 601.35 643.2 601.35 643.2 600.25 628.4 600.15 628.25 706.3 627.4 706.35 627.4 626.75 608.65 626.1
Q 608.35 623.75 607.65 621.05 606.8 617.95 605.65 615.35 602.95 609.35 598.95 605.25 596.5 602.8 594.25 601.35 591.4 599.5 588.85 598.5 586.9 597.85 585.95 597.5 583.4 596.85 583 596.8 581 596.4 580 596.3
L 574 596
Q 572 596.1 570.95 596.15 567.5 596.5 565 597.2 561.75 598 559.25 599.3 556.4 600.7 554.1 602.6 549.45 606.3 546.5 612.05 545 614.9 544.15 617.65 543.3 620.5 543 622.75
L 522.45 623 523.15 709.25 506.35 709.85 507.85 606.1 505.25 588.75 485.35 588.15 485.55 592.2 486.35 592.3 486.25 605.35 486.4 605.5 486.95 606.2 486.95 606.1 487.1 606.4 486.95 606.2 487.9 710.55 483.55 710.7 483.35 626.35
Q 483.35 621 482.15 615.75 480.85 610.05 478.35 605.75 475.3 600.65 470.8 598.1 466.25 595.45 460.4 595.35 454.35 595.2 449.8 597.05 444.6 599.2 441.4 603.8 438.5 607.75 437.15 613.65 435.95 619 436.15 624.35
L 436.45 711.4 395.9 712.35 396 712.4 395.8 712.4 394.8 581.95 394.7 581.85 392.95 578.95 478.1 584.4 530.8 588.35 530.95 587.9
Q 531.75 585.45 534.25 582.55 536.15 580.7 536.55 580.35
L 539.15 578.4
Q 543.8 575.35 551 573.2 552.05 573 554.15 572.45 556.05 572 557.35 571.85
L 567.1 570.75 580.2 570.8 589.8 572.2
Q 591.3 572.45 596.05 573.95 596.75 574.1 597.6 574.5
L 599.05 575.1
Q 601.2 575.95 602 576.45 607.65 579.15 612.4 583.95 616.95 588.5 619.45 594.5
L 619.6 594.9 619.9 595.45 620.1 595.65 620.5 595.85 620.95 596 623.1 596.3 646.2 597.5
Q 663.8 598.1 672.6 598.3
L 725.65 599.25 725.8 599 727.8 596.7 727.95 596.5 727.9 594.15 726.8 594 726.9 586.4 730.9 586.15 733.05 581.15 745 580.35 750.4 580.65 723.7 572.9 723.45 560.15 725.9 559.8 725.9 559.35 726.25 555.2 728 551.95 730.4 549.45 735.75 547.05 700.9 539.4 684.7 523.05 685.1 510.4 670.25 503.9 669.95 494.3 660.3 494
M 668.4 505.15
L 683.25 511.6 682.85 523.75 696.05 536.85 676.55 518.4 663.95 524.45 686.5 547.5 685.65 551.35 704.4 547.1 704.65 553.4 705.9 555.3 705.8 569.95 654.85 537.35 654 513.4 656.05 511.55 657.25 503.4 660.45 503.35 660.35 495.95 668.1 496.2 668.4 505.15
M 666.05 524.85
L 676.35 519.7 704.1 545.4 687.65 549.35 688.1 547 666.05 524.85
M 657.65 556.1
L 663.75 552.7 665.55 546.65 707.75 573.5 707.65 554.7 706.4 552.8 706.15 546.4 729.05 548.95 727 551.2 727 551.3 725.1 554.8 725.05 554.95 724.85 558.8 722.3 559.15 722.7 573.65 743.55 579.5 633.35 573.05
Q 629.65 567.85 624.95 563.55
L 657.25 565.3 657.65 556.1
M 706.1 545.8
L 706.05 544.95 705.05 545.15 704.9 545.2 700.35 540.9 731.7 547.45 729.55 548.45 729.25 548.75 706.1 545.8
M 732.75 580.5
L 732.6 580.55 732.5 580.7 730.35 585.4 726 585.5 725.75 594.9 726.85 595.1 726.8 596.1 725.1 598.05 633.15 594.85
Q 630.95 594.75 626.55 594.45
L 621.75 594 621.5 593.95 621.4 593.7
Q 618.8 587.45 613.85 582.5 608.85 577.5 602.9 574.7 602.3 574.4 599.8 573.3
L 598.25 572.7
Q 597.6 572.35 596.7 572.1 594.55 571.45 593.45 571.15 591.55 570.6 590.2 570.4
L 580.25 569 567 569.1 557.1 570.4
Q 555.75 570.6 550.6 571.9 543.3 574.15 538.5 577.45 532.1 581.85 530.1 587.3
L 392.3 577.1 391.7 558.75 389.9 555.45 389.9 551.4 486.25 563.15 486.45 563.15 489.85 562.55 527.25 564.5 527.5 564.2
Q 529.55 562 532.95 559.25 536.1 556.8 539.05 555 545.3 551.15 552.45 548.7 556.05 547.5 559.6 546.75 563.7 545.9 566.9 545.7 569.8 545.4 574.35 545.5
L 581.75 546.15
Q 597.7 548.2 610.15 554.75 624 562.05 632.65 573.85
L 632.8 574.1 741.8 580.2 732.75 580.5
M 722.8 602.1
L 721.25 604.4 721.8 653.55
Q 721.95 669.9 722.5 702.6
L 722.5 702.65
Q 712.8 703.15 707.85 703.4
L 692.1 704
Q 686.8 704.2 676.3 704.4
L 669.35 704.7 667.45 636.45
Q 667.15 632.85 667.5 629.55 667.95 625.45 669.2 622.95 670.85 619.5 673.85 618.85
L 674.65 618.7 675.45 618.65 677.1 618.8
Q 678.75 619.05 680.05 619.95 682.45 621.6 683.5 625.5 684.3 628.25 684.4 632.35 684.5 634.05 684.4 635.85 684.35 636.5 684.5 639.4
L 686.5 703.4 686.65 703.35 694.15 703.15 694.15 703.65 699.15 702.6 697.35 658.4
Q 696.15 628.95 695.65 614.65
L 695.65 614.55 694.8 611.85 694.85 611.95 694.45 602.75 696.3 601.2 722.8 602.1
M 690.3 620.05
Q 691.85 623.65 692.4 628.4 692.95 632.85 692.65 637.05
L 694.15 702.9 686.8 703.05 685.6 635.9
Q 685.7 633.5 685.65 632.3 685.55 628.15 684.8 625.15 683.6 620.85 680.85 618.85 679.25 617.7 677.3 617.4
L 676.35 617.3
Q 676.05 617.25 675.45 617.25
L 673.55 617.45
Q 671.6 617.85 670.1 619.25 668.85 620.3 667.85 622.3 666.35 625.35 665.95 629.35 665.55 632.6 665.8 636.55
L 667.25 703.05 661.45 703.2 659.8 633.25
Q 659.9 628.6 660.65 624.6 661.65 619.85 663.6 616.65 665.9 612.85 669.7 611.2 671.25 610.5 673.7 610.15
L 675.8 610.05
Q 676.5 610 677.9 610.1 682.45 610.6 685.55 613.2 687.15 614.55 688.35 616.3 689.5 618.05 690.3 620.05
M 722.9 703.6
L 724 705.8 630.45 709.65 630.4 707.5 644.8 707.15
Q 650.05 707 660.6 706.5 660.75 706.5 668.45 706.05
L 707.9 704.05
Q 715.4 703.75 722.9 703.6
M 724.35 706.9
L 725.45 741.1 630.15 752.55 630.45 711.1 644.95 710.75
Q 650.3 710.6 661.05 710.1
L 724.35 706.9
M 531.05 13.15
L 531.1 15.75 522.15 13 522.25 28.6 522.45 28.7 526.4 30 526.55 33.3 522.2 32.05 522.15 37.3 522.35 37.4 523.25 38.1
Q 523.8 38.65 524 38.95 524.7 40 524.65 41 524.65 41.95 523.8 42.95 523.1 43.75 522.05 44.45
L 521.35 44.95 522.1 45.35
Q 525.25 47.25 528 49.5 528.95 50.25 530.75 51.85
L 532 53.1 533 54.45
Q 534.95 57.45 534.7 61 534.55 64.5 532.35 67.3
L 532.05 67.65 533.3 70.75 521.3 65.15 521.3 64.45 520.35 64.7 519.25 64.2 519.3 64.95 510.15 67.15 506.1 73.3 506 73.3 509.6 67.25 509.15 66.85
Q 508.6 66.45 507.95 65.7 507.3 64.95 506.9 64.3 505.9 62.65 505.7 61.1 505.4 59.4 505.85 57.65
L 506.4 56 507.25 54.45
Q 507.6 53.9 508.3 53
L 512.05 49.05
Q 512.95 48.25 513.45 47.9
L 516.4 45.8
Q 517.6 45.15 518.05 45
L 518.15 44.95 518.05 44.85
Q 516.2 42.85 516.15 41 516.05 39.9 516.7 39.05 516.9 38.75 517.45 38.3
L 517.85 37.95
Q 518.35 37.65 518.4 37.55 518.65 37.1 518.75 36.3
L 519 32.9
Q 519.05 31.4 518.95 28.35
L 518.9 27.95 515.8 27.5 515.85 24.55 519.1 25.9 518.8 11.7 509.75 8 509.8 6.85 519.3 9.75 519.25 2.3 521.7 3 521.8 9.8 521.85 10.35 531.05 13.15
M 511.4 68.9
L 519.3 67.05 519.4 78.55 517.1 79.1 517.05 79.1 507.55 83.5 507.65 74.45 511.4 68.9
M 517.25 79.65
L 520.5 78.85 526.6 80.3
Q 531.35 81.6 532.6 81.95 532.9 82.75 535.05 87.45
L 575.6 168.55 575.7 168.8 576 168.95
Q 579.85 171.15 583.6 174.3 587.1 177.15 590.35 180.7 597 187.95 600.05 196.35 601.65 200.6 602.2 205.3
L 602.45 309.45 593.75 307.65 593.65 210.9
Q 593.65 208.25 593.55 206.8
L 593.2 202.7
Q 592.5 197.3 591.85 194.6 589.95 186.05 585.55 179.35
L 583.05 176 580.15 173 578.55 171.65
Q 577.25 170.55 576.9 170.35
L 574.3 168.65 573.35 168.15
Q 572.1 167.5 571.45 167.2 570.35 166.65 569.55 166.4
L 566.7 165.3 557.8 162.8
Q 549.8 160.95 541.65 160.1 534.1 159.35 525.3 159.5 517.1 159.65 509 160.7 500.8 161.75 492.9 163.55 484.4 165.55 477.2 168 469.8 170.55 464.4 172.95
L 506.95 84.65 507.5 84.35 507.55 84.35 517.3 79.65 517.25 79.65
M 521.5 78.55
L 521.55 78.55 521.35 67.35 533.4 72.8 532.6 81.65
Q 530.55 80.95 526.7 79.9
L 521.5 78.55
M 509.15 161.8
Q 516.75 160.9 525.3 160.8 533.6 160.7 541.5 161.6 549.25 162.4 557.45 164.35
L 558.85 164.7
Q 557.25 164.55 556.8 164.5 555.55 164.4 554.9 164.4
L 553 164.45
Q 551.75 164.6 551.1 164.65 550.2 164.7 549.2 164.95 547.95 165.2 547.35 165.4
L 543.75 166.7
Q 543.55 166.8 542.05 167.6
L 540.4 168.65
Q 540.2 168.75 538.9 169.8 538.35 170.15 537.45 171.05
L 534.85 173.9 531.7 178.7
Q 530.7 180.65 530.1 182.2 529.35 183.95 528.75 185.8 528.1 188.1 527.8 189.5 527.3 191.65 527.1 193.3
L 529.25 294.55 524.3 293.55 523.95 293.55 468.4 301.3 467.2 211.65
Q 467 206.55 465.85 201.6 464.4 195.7 462 192.25 460.35 189.9 458.3 188.7 456.1 187.35 453.4 187.25 449.15 187.2 443.75 190.3 441.7 191.5 440 193.7 439.6 194.25 439.2 194.85 439.6 194.1 440 193.4 440.8 191.9 442.8 189.2 444.9 186.6 446.1 185.4 452.9 178.6 463.15 174.8
L 463.55 174.65 464.25 173.25
Q 470.35 170.7 477.4 168.5 484.8 166.2 493.1 164.4 501.55 162.65 509.15 161.8
M 554.9 164.95
Q 555.55 164.9 556.8 165 557.65 165 560.55 165.35 561.2 165.45 562.15 165.6
L 569 167.9
Q 569.6 168.1 572.55 169.65
L 573.45 170.1 575.9 171.75
Q 576.35 172 577.5 172.95
L 579 174.25
Q 579.5 174.65 580.4 175.65
L 583.55 179.45 584.05 180.3
Q 588.15 186.45 590.1 195 590.75 197.6 591.45 202.9 591.75 205.6 591.8 206.95
L 593 307.5 582.35 305.35 580.8 211.95
Q 580.65 209.7 580.3 207.8 578.7 198.7 574.55 192.3 572.2 188.7 568.95 186 565.5 183.2 561.6 181.9
L 560.6 181.55 557.5 180.85
Q 555.15 180.45 553.2 180.65 548.65 181.05 545.35 184.25 542.5 187.05 540.8 191.45 540.05 193.5 539.6 195.5 539.05 198 538.95 199.75
L 541.05 296.95 531.35 295 528.35 193.4
Q 528.45 192.1 528.95 189.75 529.3 187.95 529.85 186.1 530.4 184.2 531.1 182.6 531.8 180.75 532.6 179.2
L 535.6 174.45
Q 535.95 173.95 536.75 173.05
L 539.4 170.45
Q 540.6 169.5 540.9 169.3 542.1 168.45 542.45 168.3 543 168 544.05 167.4
L 547.55 166.05 549.35 165.6
Q 549.7 165.5 551.2 165.25 551.8 165.2 553.05 165.05
L 554.9 164.95
M 541.4 195.9
Q 541.7 194.3 542.5 192.1 544.15 187.9 546.6 185.5 549.35 182.8 553.35 182.3 555 182.1 557.25 182.45
L 559.7 182.95 561.1 183.4
Q 568.6 185.85 573.35 193.05 577.45 199.3 579.1 208.05 579.5 210.6 579.6 212.05
L 581.7 305.2 575.9 304.05 571.05 302.3
Q 565.25 300.3 560.55 298.8 560.55 294.65 560.4 290.35
L 560 281.3
Q 559.65 276.3 559.6 272.25
L 559.75 226.95 559.7 227.05 559.65 222.4
Q 559.45 220.45 558.95 217.8
L 557.7 213.35
Q 557.25 212.15 556.8 211.2 556.45 210.35 555.75 209.15 554.8 207.55 554.5 207.2 553.5 205.9 553 205.4
L 551.35 203.75
Q 550.15 202.75 549.5 202.35 549.2 202.1 547.5 201.15 545.7 200.4 545.4 200.3 544.5 199.9 543.2 199.65 541.7 199.35 541 199.2
L 540.95 199.4 543.1 200.05 547.1 201.95
Q 548.3 202.75 548.85 203.2 549.65 203.8 550.5 204.65 551.7 206 551.95 206.3
L 554.3 209.95 555.95 213.95 557 218.2
Q 557.4 220.6 557.55 222.55
L 557.6 224.75
Q 557.7 225.85 557.6 226.9
L 558.8 263.2
Q 559 269.3 559 272.25
L 558.8 299.45 558.85 300.1 559.45 300.25
Q 561.75 300.95 563.95 301.6
L 543.05 297.35 540.8 199.8
Q 540.95 197.8 541.4 195.9
M 451.75 196.55
Q 449.85 195.85 447.5 196.65 443.8 197.9 441.45 201.9 439.65 204.9 438.55 209.15 437.65 212.6 437.25 216.75 437 218.75 436.95 220.6
L 435.75 325.55 461.1 304.35 460.75 304.4 461.25 304.2 461.1 304.35 524.05 295.65 529.3 296.7
Q 535.9 298.05 542.45 299.4
L 608.05 312.75 609.6 313.35 610.95 317.1 609.9 318.8 609.85 318.85 609.8 318.95 607.35 324.8 605.25 324.8 602.65 343.65 602.7 443 594.05 441.35 593.85 374.4
Q 593.9 373.35 593.75 372 593.5 369.85 592.75 367.45 591.5 363.1 588.75 359 587.35 356.95 585.8 355.35 584.25 353.65 582.35 352.2 578.75 349.35 574.3 347.5 570.4 345.8 565.4 344.8 560.4 343.8 556.1 344.3 551.05 344.85 547.35 347.55 543.65 350.2 541.3 354.65 539.1 359.05 538.6 363.6
L 538.65 433.25 528.05 431.15 527.35 326.35 525.15 323.2 525.2 308.55 523.95 306.25 524 298.3 458.65 308.1 459.3 314.45 459.35 314.65 459.45 314.85 461.4 317.15 461.35 331.5 463.9 331.55 463.75 438.95 455.9 443.3
Q 455.9 442.85 455.9 442.45
L 458.85 440.85 459 407.2
Q 459 381.35 458.9 374
L 458.7 368.2 458.35 365.65
Q 457.7 360.45 456.45 357.45 455.35 355.05 453.95 353.85 452.15 352.3 449.75 352.55 447.85 352.75 445.6 353.9 443.65 355 442.15 356.35 439.1 359 436.85 362.9 434.95 366.1 433.4 370.5 432.2 373.9 431.15 378.55 430.25 383.15 429.9 386.8
L 430.15 456.45 427.75 458.55
Q 427.85 449.45 428.3 412.4
L 428.85 364 426.4 364.25 426.45 353.55 424.3 351.4 424.35 346.3 420.35 343.3 418.65 341.4 434 327 435.05 207.55
Q 435.45 205 436.1 202.65 436.55 201.05 437.15 199.5 437.4 198.85 437.7 198.2 440.35 192.75 444 190.6 449.3 187.65 453.4 187.75 455.95 187.85 458.05 189.1 460 190.35 461.55 192.55 463.95 196.1 465.25 201.75 466.35 206.5 466.5 211.65
L 467.3 301.45 460.2 302.45 458.75 303.65 458.6 214.1
Q 458.6 209.8 458 206.4 457.05 201.6 455.15 199.05 453.65 197.1 451.75 196.55
M 456.5 206.7
Q 457.1 209.95 457.1 214.15
L 457.6 304.65 437.85 321.2 438.65 220.65
Q 438.75 218.15 438.9 216.9 439.2 213 440.15 209.55 441.15 205.55 442.85 202.7 444.9 199.25 448 198.15 449.75 197.5 451.25 198.05 452.7 198.45 453.9 200 455.7 202.4 456.5 206.7
M 462.8 316.6
L 462.65 316.45 460.7 314.1 460.15 309.25 522.95 299.55 522.95 306.5 523.05 306.6 524.2 308.75 524.25 323.55 524.35 323.65 526.45 326.7 527.4 431.7 532.85 432.75 524.45 431.7 524.05 431.7 523.8 455.8 496.85 446.7 496.6 446.8 474.1 453.65 470.7 454.05 470.5 454.05 470.3 454.2 467.4 456.05 467.35 439.65 510 435.85 507.7 337.5 481.4 340.25 481.9 433.2 506.8 429.75 506.75 428.9
Q 505.25 393.1 504.9 386.5
L 502.85 344.1 502.65 344.1 503.65 386.55
Q 504 400.5 504.9 428.15 494.4 429.5 483.9 430.9
L 483.15 341.75 506.45 339 507.95 386.85
Q 508.15 394.95 508.6 411.15
L 509.1 435.05 465.7 438.1 465.65 457.6 425.9 482.85 427.75 463.7 427.75 463.5 426.1 461 427.5 460.1 427.75 459.9 427.75 459.6
Q 427.75 459.25 427.75 458.9
L 430.35 456.6 430.4 456.6 430.65 386.9
Q 431 383 431.95 378.75 432.85 374.7 434.2 370.8 435.85 366.35 437.65 363.35 439.95 359.5 442.75 357.1 444.3 355.8 446.1 354.8 448.05 353.7 449.8 353.55 451.9 353.4 453.3 354.65 454.6 355.8 455.45 357.85 456.7 360.85 457.25 365.8
L 457.8 374
Q 457.85 388.75 457.7 407.2
L 457.45 440 455.9 440.85
Q 455.95 415.8 455.8 385.1
L 455.6 371.25 455.4 370.05
Q 454.7 365.55 453.1 362.7 451.9 360.55 450.15 359.75 449.1 359.2 447.9 359.3
L 446.85 359.5 445.8 359.9
Q 442.6 361.35 439.85 364.9 437.65 367.8 436.05 371.5 434.75 374.55 433.65 378.7 432.65 382.8 432.25 386.15
L 432.3 455.3 454.15 443.4 454.15 446.25 465.5 440 465.4 330.1 462.8 330.1 462.8 316.6
M 433.85 386.3
Q 434.25 383.1 435.25 379.1 436.25 375.15 437.6 372.2 439.1 368.65 441.2 365.9 443.65 362.8 446.55 361.4 448.15 360.65 449.4 361.25 450.7 361.9 451.6 363.55 453.1 366.15 453.7 370.35
L 453.85 371.2 453.85 371.45 453.9 371.65 454.15 441.8 433.8 452.75 433.85 386.3
M 556.2 345.1
Q 560.35 344.6 565.25 345.6 569.85 346.5 574 348.3 578.3 350.05 581.8 352.9 583.6 354.25 585.15 355.95 586.65 357.55 588 359.5 590.65 363.35 591.9 367.7 592.6 370.3 592.8 372.15 592.95 373.4 592.9 374.35
L 592.9 376.65
Q 592.8 379.75 592.8 385.95
L 592.95 440.6 584.75 438.15 585.8 373.45
Q 585.1 369.6 583.3 365.9 581.65 362.25 578.9 359.3 576.05 356.2 572.65 354.4 569.35 352.65 565.1 351.9 560.7 351.15 557.1 352.1 553 353.1 550.2 356.3 547.65 359.25 546.4 363.4 545.75 365.75 545.65 367.35 545.5 368.25 545.6 369.4
L 545.65 371.35
Q 545.75 373.9 545.8 379.05
L 546.1 434.05 604.6 445.3 604.7 343.95 607.1 326.9 608.7 326.9 611.75 319.75 611.7 319.9 611.9 319.6 619.9 341.3 614.2 347.55 614.2 351.25 611.4 351.25 611.4 363.6 609.5 363.6 611.45 458.15 611.65 458.45 614.2 463.25 613.4 466.75 653.1 480.95 595.7 474.1 595.05 466.6 594 466.6 592.4 465.75 592.65 458.45 581.4 456.35 581.4 451.1 566.4 448.35 565.5 454.25 555.5 452.1 555.5 452.55 547.55 456 547 460 528.85 457.4 528.95 457.45 525 456.15 524.75 432.45 536.85 433.55 538.9 433.9 539.25 434 539.35 363.65
Q 539.9 359.05 542 355.05 544.25 350.75 547.8 348.2 551.35 345.65 556.2 345.1
M 547.9 363.85
Q 549.05 359.95 551.35 357.35 553.85 354.45 557.45 353.55 560.65 352.7 564.85 353.35 568.65 353.95 571.95 355.7 575.25 357.45 577.85 360.25 580.3 362.9 582.05 366.5 583.7 369.9 584.4 373.65
L 583.6 439 586.85 439.95 547.9 432.55 547.4 379
Q 547.35 373.8 547.25 371.25
L 547.2 369.3
Q 547.15 368.35 547.2 367.5 547.35 365.65 547.9 363.85
M 291.25 363.85
L 291.2 362.95 294.95 362.9 294.95 362.6
Q 294.95 360.95 295.1 359.15
L 296.25 359.15 296.05 363.3 299.75 364 299.75 364.05 295.85 364 296 372.45 297.75 373.35 297.7 373.7 296.25 373.35 296.3 374.15
Q 296.3 374.6 296.35 375.2
L 295.6 377.15
Q 295.55 377.15 295.5 377.2 295.75 375.4 295.85 373.35
L 295.85 372.95 295.45 372.8
Q 295.3 372.7 294.35 372.25
L 295.35 372.65 295.4 371.35
Q 295.5 369.7 295.4 368.05 295.4 366.4 295.25 364.75
L 295.2 364.05 291.25 363.85
M 290.95 391.9
Q 292.3 391 293.15 390.15
L 294.2 388.95 294.65 388.15 296.1 384.65 296.9 387.45
Q 297.15 388.35 297.5 388.95 297.7 389.2 298.15 389.85
L 298.55 390.15 298.75 390.35 302.75 393.45
Q 305.25 395.55 306.45 396.7 308.35 398.5 309.4 400.2
L 309.85 401.1 310.05 401.7 310.1 401.8 310.1 401.9
Q 310.1 402.7 310.2 404.3
L 310.1 405.35
Q 310.05 406 309.9 406.4 309.85 406.85 309.25 408.5 308.55 409.8 308.1 410.45
L 305.9 413.2 307.25 415.25
Q 306.65 415.1 306.1 414.95 304.4 414.6 302.65 414.35
L 299.15 413.95
Q 298.2 413.9 297.45 413.9
L 303.75 413.65 303.8 413.5
Q 302.2 413.05 301.35 412.8
L 296.35 411.95 291.3 411.8
Q 290.1 411.8 288.8 411.95
L 286.25 412.25
Q 285.5 412.35 284.75 412.5 284.15 411.85 283.5 410.8 282.9 409.95 282.4 408.75 281.9 407.6 281.7 406.55 281.45 405.3 281.45 404.25 281.4 403.2 281.55 401.9
L 281.6 401.65 281.6 401.45 281.95 400.2 282.6 398.85 283.25 397.9
Q 283.95 396.95 284.8 396.25 285.9 395.25 288.75 393.35
L 290.95 391.9
M 292.1 414.15
Q 290.9 414.25 290.35 414.25
L 285.05 414.45 285.1 414.4 293.75 414.05 292.1 414.15
M 225.85 515.5
Q 224.75 514.4 223 514.3 222.25 514.3 221.5 514.45
L 220.8 514.6 220.1 514.85
Q 217.65 515.95 216.4 519.2 215.5 521.6 215.35 524.55
L 215.6 556.65 250.65 555.2 250.6 522.75
Q 250.6 519.85 250.65 519.3 251 515.7 252.6 513 254.4 510.15 257.45 508.75 260.15 507.45 263.9 507.35
L 267.3 507.55
Q 268.85 507.7 270.55 508.25 273.8 509.35 275.65 512.1 277.3 514.55 277.55 518.35 277.6 518.9 277.6 521.8
L 277.8 552.8 273.4 552.9 273.25 522.35
Q 273.25 520.6 272.95 519.45 272.25 516.15 270 514.3 267.8 512.5 264.35 512.5 261 512.4 258.8 514.55 256.75 516.55 256.15 519.8 255.95 520.7 255.95 521.25
L 256.5 554.3 272.05 553.95 272.05 554.25 279.15 554.1 279.15 553.8 301.05 553.3 301 552.95 301 521.05 301.3 519.55
Q 301.6 518.15 302.2 516.7 303.35 513.9 305.55 511.85 307.85 509.85 310.75 509.1 313.45 508.4 316.65 508.55 320.05 508.8 322.5 509.8 325.4 511 327.25 513.25 329 515.45 329.65 518.6 330 520.25 330 521.55 330.1 522.3 330 523.05 330 523.55 329.8 524.45 329.7 524.85 328.3 530.35 327.25 534.05 325.55 539.65
L 325.1 523.2
Q 324.9 521.35 324 519.5 323 517.55 321.55 516.45 320 515.25 317.95 514.95 316.25 514.75 314.1 515.1 311.9 515.55 310.5 516.65 308.95 517.9 308.3 519.95 307.8 521.5 307.8 523.75
L 307.9 556.65 305.6 556 305.35 563.15 304.2 563 303.25 560.4 301.75 563.3 300.65 563.55 300.5 556.85 277.6 556.65 277.6 562.2 276.45 562.2 276.45 560.2 272.75 560.2 272.75 559.85 269.7 559.95 269.85 562.2 252.2 562 252.2 560.1 249.45 560.1 249.45 562.3 248.65 562.3 248.65 559.95
Q 252.9 559.9 257.1 559.95
L 266.25 560.15 266.35 558.5 257.5 558
Q 253.05 557.8 248.6 557.7 246.7 557.7 246.3 557.75
L 229.95 558.8 229.95 563.2 229.3 563.2 229.3 560.8 226 561.15 226 564.55 210.6 565.45 210.6 564.2 215.2 562.7 214.7 560.9 207.25 562.55 200.8 566.05 193.4 565.8 212.15 557.3 212.25 523.25 212.5 521.3
Q 212.9 519.2 213.25 518.2 214.35 514.8 216.2 512.75 218.4 510.35 221.45 509.95 225 509.4 227.2 511 229.4 512.5 229.95 516.1 230.25 517.55 230.15 519.25
L 230.25 554.3 227.2 554.45 227.75 552.2 227.8 520.85
Q 227.8 519.3 227.4 518.05 226.85 516.35 225.85 515.5
M 222.9 515.95
Q 224.1 516.05 224.75 516.7 226.1 517.9 226.2 520.85
L 226.2 552.05 225.6 554.5 217.35 554.85 217.05 529.75
Q 216.95 526.25 217 524.6 217.15 521.75 217.95 519.8 218.9 517.2 220.75 516.35 221.85 515.9 222.9 515.95
M 183.3 582.45
L 183.6 582.85 203.2 582.85 202.95 583.75 203.15 589.55 184.7 589.75 176.9 577.5 170 604.55 164.7 605.25 158.6 619.6 162 620.75 161.35 622.6 156.3 626.6 101.6 626.05 101.45 612.8 101.4 612.8 101.55 612.4 101.55 612.2 99.4 612.15 99.45 610.6 98.55 610.55 98.5 610.7 98.45 612 90.95 612.05 90.9 610.55 90.85 610.3 90.6 610.35 90.25 610.35 90.05 610.4 90.05 610.6 90.2 611.65 87.6 611.7 87.65 607.95 87.4 607.9 86.9 607.85 94.85 602.45 103.35 608.25 104.7 602.95 104.35 602.85 101.7 601.75 100.95 591.2 100.95 590.8 99.65 590.7 99.65 590.3 100.2 590.5 100.3 590.5
Q 102.9 590.65 108.1 590.75 114.6 591 115.9 591.1 121.1 591.45 131.4 592.65
L 154.75 594.7
Q 159.75 595 162.5 595.1
L 162.7 595.15 162.8 595.1 164.3 594.7 168.7 599.3 168.75 599.15 169.45 603.3 169.65 603.25 169.35 596.85 175.15 573.15 183.3 582.45
M 177.7 582.65
L 183.55 591.85 204 591.65 203.65 591.9 203.75 591.85 185.5 604.15 178.55 591.85 173.3 612.15 176.2 615.6 180.2 605.15 185.5 614.8 185.85 614.85 186.05 614.85 186.3 635.05
Q 186.15 634.15 186 633.4 185.8 632.35 185.4 631.75 185.15 631.4 184.9 631.3
L 184.65 631.25
Q 184.6 631.2 184.5 631.2 184.4 631.2 184.4 631.25
L 184.25 631.25 184.05 631.35
Q 183.6 631.6 183.3 632.2 183.05 632.9 182.85 633.9 182.8 633.45 182.75 633.1 182.55 631 182.35 629.9 181.95 627.65 181.35 626.65 180.95 626 180.4 625.85
L 179.9 625.8 179.8 625.85 179.65 625.9 179.55 625.9 179.05 626.3
Q 178.5 627 178.2 628 178 628.65 177.5 631.2 177.2 633.55 177.05 636.55 176.9 636.15 176.8 635.9 176.5 635.3 176.1 634.95 175.7 634.65 175.15 634.65
L 175.05 634.7 174.75 634.75 174.35 635
Q 174.05 635.25 173.7 635.95
L 173.4 636.8 173.1 638.45
Q 172.75 641.2 172.7 644.9 172.65 647 172.7 651.2
L 172.5 700.75 168.95 700.45 169.85 700.15 169.9 699.9 170.55 679.45
Q 170.7 674.9 170.6 669.25
L 170.45 658.4 169.95 658.2 169.9 655.5 170.35 655.45 170.35 654.7
Q 170.35 652.85 170.1 650.6
L 169.7 648.55
Q 169.25 647.05 168.8 646.5 168.4 646.1 168.25 646.05
L 167.85 645.95 167.65 645.95 167.4 646
Q 166.8 646.15 166.45 646.95 166.15 647.6 165.95 649 165.8 650.35 165.7 653.05 165.7 654.4 165.75 657.1
L 165.15 677.2 165.5 693.25
Q 165.65 696.95 165.9 700.6
L 161.2 700.25 161.25 641.35 86.25 639.15 86.1 634.5 162.55 636.4 162.55 628.9 149.1 628.55 157.05 628.6 157.35 628.4 163.1 623.7 164.55 619.5 161.35 618.4 166.15 607.15 171.6 606.4 177.7 582.65
M 269.3 515.15
Q 271.25 516.7 271.85 519.65 272.1 520.8 272.1 522.35
L 272.05 553.25 257.25 553.5 256.9 521.3 257.1 520
Q 257.65 517.05 259.5 515.3 261.4 513.45 264.35 513.55 267.4 513.55 269.3 515.15
M 320.4 555.15
L 317.25 554.25 325.7 551 339.35 504.95 339.55 489.8 347.6 483.4 347.9 483.2 347.6 465.1 350.1 462 350.05 451.8 354.8 446.6 354.95 459.55 359.45 456.5 359.25 468.95 355.25 471.45 355.75 514.4 351.15 516.85 351.1 486.95 343.3 493.4 343.05 506.35 328.75 558.15 323.65 560.9 322.85 560.9 320.4 555.15
M 318.8 589.25
L 318.75 589 318.6 588.75 315.8 585.2 317.25 584 329.4 579 329.5 578.95 329.5 578.85
Q 329.8 574.9 329.8 574.85 330 573.1 330.5 570.9
L 331.5 567.05
Q 332.05 565.2 332.85 563.25 333.95 560.65 334.5 559.65 335.35 558 336.45 556.15
L 338.8 552.95
Q 339 552.65 340.1 551.45
L 343.05 548.8
Q 343.6 548.5 344.7 547.85
L 346.55 547.15
Q 347.75 546.85 348.45 546.85 352.25 546.5 355.85 548.85 358.75 550.7 361.5 554.3 362.75 555.95 363.7 557.55 364.9 559.5 365.6 561.05
L 365.8 561.45 388.85 552.05 388.85 555.75 390.6 559 391.15 577 390.85 577 390.65 577.05 371.4 583.65
Q 371.05 582.35 370.45 580.75 369.75 578.8 368.9 577.1 366.9 572.95 364.4 570.55 362.85 569 361.05 568.2 359.1 567.35 356.95 567.45
L 354.85 567.8 352.95 568.5
Q 351.4 569.2 349.5 570.5 347.9 571.7 346.55 573.15 345.3 574.55 344.1 576.3 343 577.85 342.15 579.7 341.55 580.85 340.55 583.25 339.1 587.2 338.4 590.75 337.6 594.5 337.4 598.25
L 323.55 602.2 323.35 601.1 320 599.3 318.8 589.25
M 95.4 570.5
L 95.1 578.8 88.25 578.75
Q 87.2 578.8 86.45 578.85
L 86.25 570.6 91.05 566.8 95.4 570.5
M 91.55 587.8
L 95.7 590.35 87.6 589.65 91.55 587.8
M 123.55 641.4
L 121.75 641.45
Q 121.7 641.45 120.35 641.6
L 117.6 642.35
Q 117.45 642.4 116.35 642.95 115.45 643.45 115.15 643.75 114.25 644.45 114.05 644.65
L 113.05 645.65
Q 111.95 647.15 111.55 648 111.15 648.65 110.95 649.25
L 110.1 651.85 109.8 653.2
Q 109.65 654.1 109.6 654.9
L 104.6 654.9 104.65 661.55 112.5 661.35 112.95 699.1 113.15 699.1 114.25 659.55 106.6 659.6 106.6 656.95 111.55 656.95 111.6 655.95
Q 111.6 655.55 111.85 653.55
L 113.4 649
Q 113.75 648.35 114.7 647.05
L 116.4 645.45
Q 116.8 645.15 117.35 644.85 118.25 644.35 118.4 644.3
L 119.5 643.95
Q 119.9 643.8 120.65 643.7
L 123.95 643.5 124.25 643.55 125.5 643.65
Q 126.35 643.7 127.95 644 128.75 644.15 130.3 644.65 131.05 645 132.5 645.65 133.2 646.05 134.4 647.05
L 135.2 647.85
Q 135.45 648.2 135.95 648.8 136.6 649.85 136.95 650.9 137.35 652 137.35 653.1
L 137.35 653.25 137.95 657.5 141.45 657.9 141.5 660.9 133.25 661 133.95 699.55
Q 127.75 699.25 124.65 699.05
L 115.7 698.55 115.85 659.45
Q 115.95 657.3 116.45 655.3 117 653.1 118.15 651.55 119.45 649.85 121.35 649.2
L 123.35 648.8 123.9 648.75 124.05 648.75
Q 124.1 648.75 124.15 648.75
L 125.45 648.8
Q 127.65 649.05 129.35 650.15 132.9 652.3 133.75 657.2
L 133.85 659.95 134.05 659.95 134.15 657.15
Q 133.85 654.85 132.8 652.85 131.65 650.65 129.85 649.4 128.15 648.2 125.6 647.75
L 123.25 647.65
Q 122.55 647.65 122.15 647.75
L 120.95 648.05
Q 118.55 648.85 117.1 650.7 115.65 652.4 115 654.9 114.35 657.05 114.25 659.4
L 114.25 659.55 114.4 699.1 114.45 699.7 81.9 699.35
Q 81.95 696.75 82.2 686.65 82.35 682.25 82.45 673.5
L 82.75 650 82.95 650.5 105 650.15 105.25 650.1 105.1 644.8 104.9 644.8 104.75 649.65 83.75 649.25 82.45 646.4 82.6 638.8
Q 83 639.25 83.45 639.6 83.6 639.7 83.7 639.75
L 83.75 639.8
Q 84.5 640.15 85.05 640.2
L 85.05 640.35 123.55 641.4
M 161.25 630.15
L 161.25 635.05 85.15 633.2 85.15 628.2 161.25 630.15
M 82.45 604.35
L 83.45 604.5 83.4 627.6 84 627.6 84 634.4 84.9 634.4 85.1 639.1 85.05 639.1 84.6 638.95 84.1 638.65 83.6 638.2 81.5 613.95 81.45 613.65 80.5 613.5 81 613.55 82.45 604.35
M 82.85 637.4
L 81.35 635.55
Q 80.3 634.15 79.45 633.3
L 75.15 629.25 72.8 627.5
Q 71.15 626.45 70.3 625.9 68.55 625 67.7 624.55 67.2 624.25 65 623.4 63.15 622.75 62.2 622.4
L 59.35 621.65
Q 57.45 621.25 56.5 621.15 54.55 620.85 50.65 620.55 49.4 620.4 49.35 620.4
L 48.8 620.15 48.35 619.75
Q 47.65 618.9 47.45 617.4
L 46.4 617.4 46.4 617.45
Q 46.3 618.65 45.6 619.35 44.95 620.1 43.7 620.1
L 41.25 620.35
Q 38.85 620.65 38.75 620.65
L 32.6 621.9 26.65 623.9 24.35 624.95
Q 23.8 625.2 22.15 626.15 22 626.2 19.95 627.45
L 17.9 628.9
Q 16.4 630.05 15.95 630.5 14.85 631.4 14.15 632.2 13.2 633.25 12.7 633.95
L 12.25 633.95
Q 12.5 632.9 12.7 632.3
L 13.05 631.15 13.55 630.05
Q 14.05 628.85 14.6 627.85
L 15.9 625.85
Q 16.15 625.4 16.65 624.9
L 19.15 622.25 23.05 619.35
Q 27.05 616.85 32 615.3 35.7 614.15 39.25 613.6
L 78.8 614 80.8 614.3 82.85 637.4
M 81.55 644.5
L 81.5 646.8 77.1 646.2
Q 76.25 644.55 74.85 642.6
L 72 639.3 68.7 636.45
Q 66.3 634.75 65 634.05
L 61.05 632.15
Q 59.7 631.65 59 631.45 57.8 631 56.9 630.85
L 52.6 630
Q 52.15 629.9 48.25 629.65
L 43.9 629.75
Q 43.4 629.75 39.55 630.15
L 33.2 631.6 31.15 632.35
Q 30.95 632.45 29.15 633.25
L 28.15 633.7 23.55 636.7
Q 22.05 637.9 20.45 639.8 18.75 641.95 18.2 643.35
L 7.65 643.45 7.65 642.6 6.4 642.8 6.05 635.3 11.95 635.25 12.05 634.95 13.1 634.95 13.3 634.75
Q 13.6 634.25 14.85 632.9
L 18.5 629.65 20.5 628.25
Q 21.9 627.35 22.6 627
L 27 624.85 32.85 622.85 38.85 621.65
Q 39.65 621.5 41.3 621.4
L 43.8 621.15
Q 45.4 621.05 46.35 620.05 46.65 619.75 46.9 619.35 47.15 619.95 47.6 620.45 48 620.85 48.25 621
L 49 621.35
Q 49.2 621.45 49.85 621.55
L 50.6 621.6
Q 54.4 621.9 56.3 622.2 57.25 622.3 59.15 622.7
L 61.9 623.45
Q 64.25 624.25 64.6 624.4 66.75 625.25 67.25 625.5 68.05 625.95 69.75 626.85 72.05 628.3 72.2 628.4
L 76.6 632 78.6 634
Q 79.05 634.45 80.45 636.2
L 81.9 638 81.8 645 81.55 644.5
M 81.1 659.5
Q 81.05 661.1 81 662.9
L 60.95 662.85
Q 60.6 660.75 59.55 658.25 58.3 655.5 56.9 653.9 55.05 651.75 52.95 650.7 50.45 649.5 48.05 649.35
L 46.75 649.25 42.95 649.6
Q 40.6 649.95 38.15 651.25 35.95 652.4 34.2 654.5 32.6 656.45 31.75 659 31.4 660.15 31.2 660.95 27.1 660.7 24.95 660.65
L 7.75 660.4 7.75 660.05 6.9 659.9 6.4 659.75 6.5 656.95 7.7 656.95 7.7 656.15 24.85 656.15 24.85 655.95
Q 25.3 653.85 26.45 651.85 27.6 649.7 29.05 648.25
L 30.7 646.75
Q 31.1 646.4 32.5 645.45 32.75 645.25 34.45 644.35 35.1 644 36.5 643.5
L 38.6 642.8
Q 39.35 642.65 40.8 642.3
L 43 642
Q 43.45 641.9 44.15 641.9
L 45.25 641.85
Q 45.95 641.85 47.45 641.8
L 49.7 641.9
Q 50.45 641.95 51.9 642.25
L 53 642.4 54.1 642.7
Q 56.05 643.25 58.25 644.3
L 60.15 645.45
Q 61.65 646.6 61.9 646.8 63.85 648.55 64.95 650.05 66.05 651.55 67.2 653.9 68.3 656.55 68.5 658.1
L 68.5 658.35 68.55 658.4
Q 68.55 658.65 68.85 658.8
L 69.4 659.05 70.55 659.3 72.85 659.5
Q 75.65 659.65 81.1 659.5
M 81.45 647.5
Q 81.3 650.95 81.1 658.95 75.65 659.1 72.85 658.95
L 70.65 658.75 69.55 658.5 69.15 658.35
Q 69.05 658.25 69 658.05 68.75 656.25 67.65 653.65 66.45 651.1 65.35 649.75 64.1 648 62.25 646.4 61.05 645.5 60.45 645
L 58.45 643.85
Q 56 642.65 54.2 642.25
L 53.1 641.9 52 641.75
Q 50.5 641.45 49.75 641.4
L 47.5 641.3
Q 45.95 641.35 45.2 641.35
L 40.7 641.85
Q 40.1 641.9 38.5 642.35
L 37.4 642.6 36.3 643.05
Q 34.9 643.55 34.2 643.9 33.55 644.3 32.25 645.05 30.95 645.85 30.4 646.4
L 29.5 647.1 28.75 647.95
Q 27.45 649.2 26.05 651.6 24.95 653.55 24.45 655.7
L 7.7 655.65 7.65 643.95 18.55 643.9 18.65 643.7
Q 19.1 642.35 20.85 640.1 22.65 638.15 23.9 637.15
L 24.75 636.45 29.35 633.75
Q 30.95 633 31.35 632.9
L 35.45 631.6
Q 35.75 631.5 37.55 631.1
L 39.65 630.75
Q 41.1 630.6 43.95 630.3
L 48.25 630.25
Q 52.05 630.5 52.55 630.6
L 56.75 631.45
Q 57.6 631.6 58.8 632.05 59.5 632.25 60.85 632.75
L 63.75 634.05 64.7 634.6
Q 66.05 635.35 68.3 636.95
L 71.5 639.8 74.3 643
Q 75.75 644.95 76.6 646.6
L 76.65 646.8 76.85 646.8 81.45 647.5
M 31.8 614.7
Q 29.7 615.25 27.05 616.25
L 22.5 618.45 18.35 621.35 16.5 623.1
Q 16.15 623.4 15.6 624.05
L 13.35 627.15 11.2 631.8
Q 11.1 632.15 10.7 633.65
L 4.25 633.6 4.25 634 3.1 634 4.35 613.25 36.9 613.6
Q 34.4 614 31.8 614.7
M 31.1 661.5
L 31.1 664.1 18.95 664.05
Q 15.05 663.9 7.6 663.85
L 7.7 660.9 31.1 661.5
M 33.6 664.2
Q 33.65 661.9 34.55 659.5 35.45 657 37 655.4 38.6 653.75 40.9 652.7
L 42.65 652.15 45.65 651.75
Q 48.25 651.6 50.45 652.15 52.75 652.65 54.8 654.15 56.65 655.65 57.9 657.8 59 659.85 59.55 662.35 60.1 664.7 60 667.1
L 59.7 668 59.7 691.9 59.75 691.95 60.05 693 60 692.9 60.05 697.75 57.55 698.6 56.15 698.55 56.15 698.75 33.5 698.75 33.6 664.2
M 25.1 664.45
Q 27.15 664.4 31.1 664.5
L 31.1 669.6 7.35 670.1 7.55 664.75
Q 11.6 664.75 18.95 664.55
L 25.1 664.45
M 6.45 692.65
L 7.3 671.1 30.85 670.5 30.95 698.7 28.05 698.75 27.55 698.8 27.7 706.9 57.25 706.95 57.25 699.7 79 700.45 78.9 702.7 80.1 703.15 80.25 712.6 42.9 712.4
Q 42.35 712.35 41.8 712.35
L 3.65 711.55 3.75 698.95 5.3 699 5.35 692.65 6.45 692.65
M 60.8 667.35
L 60.8 667.25
Q 60.9 665.35 60.6 663.45
L 81 663.45
Q 80.85 667.95 80.75 673.5 80.6 677.85 80.5 686.6 80.45 690.85 80.35 699.1
L 79.05 699.25 79.05 699.3
Q 76.95 699.25 73.4 699.1
L 59.8 698.65 60.8 698.3 60.8 692.8 60.45 691.75 60.5 691.85 60.5 668.3 60.8 667.35
M 80.35 701.75
L 80.45 700.6 81.4 700.5 159.5 701.45 160.15 701.55 160.15 713.25 159.9 713.35
Q 146.6 713.2 120.75 713.1 112.1 713 82.5 713
L 83.3 712.75 81.35 712.75 81.5 702.2 80.35 701.75
M 79.2 714.05
L 80.45 713.65 81.3 713.65 81.3 713.35 81.6 713.3
Q 94.85 713.55 120.7 714.2 145.5 714.7 155.55 714.85
L 155.55 715.35 155.25 715.5 155.55 715.6 155.5 729.3 77.6 727.75 79.2 714.05
M 56.15 699.5
L 56.15 705.85 28.7 705.9 28.55 699.75 33.5 699.6 33.5 699.5 56.15 699.5
M 157.15 716
L 157.2 715.95 207.25 728.15 207.25 744.35 157.15 729.15 157.15 716
M 161.15 713.2
L 161.2 701.6 168.85 702.15 168.85 714.65 164.55 713.8 165.95 713.4 162.25 713.4 161.15 713.2
M 322.15 605.25
L 322.25 611.25 210.35 607.8 210.2 607.85 192.35 617.15 192.9 613.9 187.95 613.7 187.9 611.05 192.3 611.05 192.5 610.9 209.85 600.7 322.15 605.25
M 297.85 625.75
L 296.15 624.95 292.6 623.85
Q 291.15 623.5 290.75 623.45
L 288 623.15
Q 287.7 623.1 287.05 623.1
L 283.35 623.25
Q 282.35 623.3 279.7 623.95 277.3 624.75 276.25 625.4
L 275.4 625.85 273.2 627.6
Q 272.1 628.7 271.9 628.95 270.85 630.25 270.75 630.45 269.9 631.65 269.75 632
L 268.9 633.7
Q 268.65 634.15 268.2 635.4
L 267.6 637.2
Q 267.15 639 266.95 640.55
L 238.5 639.5 238.65 620.4 241.1 614 210.75 613.05 205.6 617.25 205.55 617.3 205.55 617.35 206.6 620.25 206.65 620.35 206.75 620.3 212.2 618.5 211.35 637.55 210.35 637.5 204.4 640.8
Q 204.55 636.65 204.3 632.85 204 629.95 203.6 628.55 203.05 626.95 202.4 626.45 202.2 626.25 201.75 626.15 201.3 626.1 201.05 626.2 200.5 626.3 199.9 626.9 199.35 627.5 198.75 628.9 198.35 630 198.15 631.05 197.85 632.45 197.55 635.35 197.25 639.6 197.4 643.85
L 194.95 645.8 194.8 645.95 194.8 651.55 197.7 650.2 197.55 702.8 189 702.2 189.2 702.1 187.95 614.9 191.6 615 190.95 619.15 210.55 608.7 322.3 612.15 322.8 641 306.6 640.95
Q 306.6 639.5 306.3 637.45 305.9 635.6 305.25 633.9 304.5 632.2 303.45 630.6 302.7 629.6 302.25 629.15
L 300.95 627.85 299.45 626.7
Q 298.35 626.05 297.85 625.75
M 299.15 627.15
L 300.6 628.2 301.9 629.5
Q 302.35 629.9 303.05 630.9 303.95 632.2 304.8 634.05 305.5 635.8 305.85 637.55 306.2 639.7 306.15 641.15
L 306.15 641.4 322.8 641.35 322.95 647.4 301.9 646.85 301.75 642.2
Q 301.65 641.15 301.5 640.65
L 301.05 639.1
Q 301 638.95 300.5 637.65
L 300.2 636.9 299.75 636.2
Q 299.25 635.3 298.9 634.9
L 297.85 633.7 296.6 632.7
Q 296.45 632.55 295.3 631.8
L 292.35 630.55 289.25 629.9 287.7 629.85 287.7 630 289.25 630.05 292.3 630.7 295.2 631.95
Q 296.35 632.7 296.5 632.85
L 297.7 633.85 298.7 635.05
Q 298.8 635.15 299.6 636.35
L 300 637 300.3 637.7
Q 300.45 638.2 300.85 639.2
L 301.25 640.7
Q 301.4 641.2 301.5 642.25
L 301.65 643.8 301.65 647.1 322.95 647.75 323.95 703.45 321.45 703.45 321.45 703.85 300.7 703.8 300.15 694.95 300.75 643.5
Q 300.7 640.45 299.3 637.7 297.85 634.75 295.35 633.15 293 631.6 289.7 631.15
L 286.75 631.1
Q 285.7 631.05 283.8 631.35 283.6 631.35 282.35 631.65 281 632.05 280.9 632.1
L 279.5 632.7 278.25 633.55
Q 275.65 635.3 274.55 638.3 273.4 641 273.65 644.25
L 273.2 703.7 246.6 703.65 246.6 703.6 246.75 702.9 272.3 702.3 273.4 646.4 238.5 645.95 238.5 645.8 238.6 644.7 238.5 644.7 238.5 640.25 267.55 641.25 267.6 640.95
Q 267.75 639.25 268.3 637.35
L 269.5 633.95 271.3 630.8
Q 271.6 630.3 272.4 629.4 272.75 628.9 273.65 628.1
L 274.3 627.45 275.75 626.4 276.55 625.95
Q 277.05 625.65 279.85 624.5 283.1 623.85 283.4 623.8
L 287.95 623.7 290.7 624.05
Q 291.1 624.05 292.5 624.4
L 294.25 624.8 297.6 626.2
Q 298.1 626.55 299.15 627.15
M 286.8 632.5
L 288.15 632.5
Q 288.4 632.45 289.55 632.6 292.4 632.9 294.55 634.35 296.65 635.7 298 638.35 299.2 640.8 299.3 643.5
L 298.65 695 299.25 703.75 274.65 703.7 275.1 644.05
Q 274.85 641.3 275.85 638.8 276.95 636.2 279.05 634.7
L 281.4 633.45
Q 281.85 633.25 282.7 633.05
L 284.05 632.75
Q 286.45 632.5 286.8 632.5
M 205.85 617.35
L 210.95 613.35 239.2 615.25 237.15 620.05 237 630.7
Q 237 633.4 237 638.2
L 212.1 637.55 212.4 618.2 206.8 620.05 205.85 617.35
M 210.55 638.3
L 211.35 638.35 211.05 644.35 210.05 644.3 202.55 646.95 201.65 703.1 198.6 702.9 198.7 648.65 195.75 650.1 195.7 646.4 198.2 644.35 198.35 644.2 198.35 643.95
Q 198.2 639.1 198.5 635.4 198.7 632.95 199.05 631.2 199.35 629.9 199.6 629.2 200.05 628.1 200.55 627.5 201.35 626.7 201.9 627.15 202.35 627.5 202.75 628.8 203.15 630.15 203.45 632.95 203.75 637 203.5 641.5
L 203.45 642.25 210.55 638.3
M 237 638.95
Q 236.95 640.05 236.95 641.25 236.95 643.05 236.95 644.7
L 211.95 644.35 212.05 638.35 237 638.95
M 180.1 627.2
L 180.25 627.35
Q 180.65 628.05 181.05 630.15 181.25 631.15 181.45 633.25 181.7 635.3 181.9 639.5
L 182.1 645.45
Q 182.1 645.3 182.25 645.75 182.55 646.15 183.3 645.55
L 183.35 645.3 183.35 645
Q 183.35 640.75 183.45 638.7 183.55 636.6 183.7 635.55 183.9 633.65 184.3 632.65
L 184.55 632.35
Q 184.8 632.75 185 633.65 185.25 634.9 185.35 636.7 185.6 639.85 185.5 642.95 185.45 645.1 185.55 649.3
L 186.35 699.9 186.55 699.9 186.65 674.6 187.1 700.8 184.8 701.9 174.55 701.2 174.4 644.9
Q 174.4 641.05 174.75 638.7
L 175 637.25 175.2 636.6 175.3 636.5 175.35 636.6 175.8 637.95
Q 176.4 640.5 176.65 644.05
L 176.85 646.8 176.85 647.05
Q 176.45 647.6 176.85 647.1 177.2 648 177.8 647.85 178.5 646.95 178.4 647
L 178.35 647.05 178.3 643.9
Q 178.3 640.75 178.45 637.6 178.55 634.45 178.9 631.4 179.2 629.4 179.5 628.4 179.7 627.55 180 627.25
L 180.1 627.2 180.05 627.15 180.1 627.15 180.1 627.2
M 167.25 647.35
Q 167.5 646.95 167.65 646.9 167.8 646.9 168 647.15 168.35 647.6 168.55 648.8
L 168.75 650.75
Q 168.85 652.3 168.8 653.85
L 168.25 653.85 168.1 659.4 168.65 659.65 168.5 669.25
Q 168.45 672.65 168.55 679.45 168.65 686.25 168.8 689.65
L 169.2 699.75 167.15 700.65 166.2 700.6
Q 166.55 695.8 166.65 693.25
L 166.9 673.15
Q 166.8 670.5 166.75 669.15
L 166.4 657.1
Q 166.3 654.45 166.35 653.1 166.45 650.9 166.7 649.15 167 647.85 167.25 647.35
M 236.95 646.05
Q 236.95 646.45 236.95 646.85
L 236.9 647.3 236.95 647.3
Q 236.95 658.55 237.05 662.25
L 237.25 683.3
Q 237.35 690.1 237.35 703.6
L 211 703.55 211.95 645.6 236.95 646.05
M 210.5 645.55
L 211 645.55 210.45 657.75
Q 209.95 666.4 209.8 670.85
L 208.8 703.55 208.2 703.55 207.95 703.5 202.8 703.2 203.8 647.85 210.5 645.55
M 238.2 683.3
L 238.5 647.35 271.95 647.8 270.9 700.9 245.5 701.45 245.1 703.65 238 703.6
Q 238.15 686.75 238.2 683.3
M 207.85 704.85
L 208.1 704.9 208.75 704.9 208.55 722.25 186.6 718.05 186.7 703.4 195.4 704.05 195.8 712.2 200.4 712.2 200.95 704.4 207.85 704.85
M 209.7 726.4
L 210.4 724.4 240.5 724.05 241.55 726.1 209.7 726.4
M 242.45 726.1
L 242.45 725.95 241.4 724.05 321.75 723.1 321.75 725.35 242.45 726.1
M 210.95 704.9
L 239.85 705 239.75 722.6 210.7 722.45 210.95 704.9
M 209.25 728.35
L 241.6 727.7 241.4 743.25 209.1 744.55 209.25 728.35
M 196.45 704.1
L 199.8 704.3 199.4 711.1 196.9 711.1 196.45 704.1
M 184.6 703.25
L 184.5 717.65 170.9 715.05 170.9 702.65 174.55 702.9 174.55 702.55 184.6 703.25
M 168.1 700.75
L 168.85 700.5 168.85 700.8 168.1 700.75
M 242.65 743.25
L 242.5 727.7 321.75 726.1 321.8 729.1 317.45 732.85 317.45 733.15 316.8 733.7 317.45 733.9 317.45 739.85
Q 291.75 741.1 290.9 741.15
L 242.65 743.25
M 323.55 705.85
L 323.75 705.6 326.05 705.6 326.05 704.9 339.05 706.2 339.05 706.6 351.65 708.25 351.65 707.5 365.25 708.9 365.25 709.55 393.95 713.8 394.05 747.55 323.85 729.05 323.55 705.85
M 296.75 705.55
L 296.75 712.4 274.75 712.5 274.65 705.1 316.85 705.3 296.75 705.55
M 320.45 733.05
L 323.3 730.65 394 748.75 393 754.65 320.45 733.05
M 319.55 742.85
L 319.55 734.5 392.95 754.85 392.9 754.9 392.75 770.3 319.55 742.85
M 590.2 468.7
L 593.1 468.7 593.65 475.7 582.05 474.75 580.85 516.35 567.65 516.35 565.7 474.7 545.4 473.1 545.1 489.05 501.9 527.85 488.85 527.75 497.6 526.4 539.3 489.45 539.5 489.3 539.45 489.05 539.05 473.55 538.85 473.55 538.45 488.8
Q 531.45 494.6 528 497.55
L 496.7 524.4 481.6 526.95 481.05 487.7 477.05 479.1 477.05 466.5 476.55 466.75
Q 475.05 467.55 457.9 476.25 451.65 479.4 448.55 481.05
L 411.7 501
Q 409.6 502.2 402.8 506.05
L 400.15 502.75 470.25 461.55 556.75 468.55 557.1 454.15 566.9 456.3 567.85 450.45 579.5 452.65 579.5 457.9 590.6 460.15 590.2 468.7
M 486.65 591.2
L 486.55 589.35 504.4 589.8 506.9 606.2 505.95 709.9 489.4 710.5 488.15 605.85 488 605.7 487.45 605 487.5 591.25 486.95 591.25 486.65 591.2
M 449.35 482.55
L 458.55 477.5
Q 472.8 469.55 476.4 467.6
L 476.4 479.25 480.25 487.95 479.9 507.9
Q 479.7 520.95 479.7 527.7
L 476.9 527.65 462.4 531.9 443.5 515.8 443.4 515.7 431.5 515.95 430.05 515.85 403.4 506.35 421.55 497.15
Q 427.75 494 440.15 487.5 443.2 485.85 449.35 482.55
M 361.6 452.4
L 356.95 455.7 356.6 445.7
Q 361.7 445.95 371 446.45
L 371.15 451.5 373.65 454.1 372.65 454.1 372.15 454.15 372.15 454.2 361.55 454.35 361.6 452.4
M 361.35 470.1
L 361.55 454.6 372.15 455.05 372.15 467.4 372.5 467.5 387.75 473.05 359.85 472.8 360.2 490.7 360.25 490.8 360.55 491.25 360.7 500.35 360.8 500.45 379.15 528.9 389.7 524 389.7 524.1 393.95 524.5 394 533.05
Q 394 536.1 394.2 542.15 392.35 543.3 388 546.3
L 383.2 549.65 376.4 552.3 376.1 551.65 374.8 549.55 374 548.65
Q 373.6 548.15 373.1 547.8 372.3 547.15 372.15 547.05
L 371.1 546.4 367.7 545.1 365.3 544.7
Q 363.95 544.55 362.9 544.6 361.8 544.6 360.55 544.75
L 349.6 546.1
Q 349 546.05 348.4 546.1 347.55 546.15 346.35 546.5
L 345.35 546.8 344.45 547.2
Q 343.85 547.5 342.65 548.3
L 341.05 549.55 338.3 552.55 336 555.85
Q 334.75 557.9 334 559.4 333.4 560.6 332.4 563.1 331.6 565.05 331.05 566.9
L 330.05 570.8
Q 329.55 573.55 329.45 574.8 329.25 576.1 329.15 578.7
L 317.95 583.4 325.3 577.4 325.25 560.9 324.4 560.9 329.15 558.7 329.3 558.65 341.05 519.6
Q 344.15 508.5 344.65 506.6
L 344.7 506.45 344.45 493.95 350.3 488.7 350.25 518.2 356.8 515.05 357.3 472.55 361.35 470.1
M 361 489.2
L 360.7 473.65 389.6 474 388.95 487.6 375.9 479.95 377.4 482.4 361 489.2
M 361 490.45
L 361 489.45 377.55 482.7 385.9 496.6
Q 387.2 498.95 393.25 510.6
L 392.95 510.9 388.9 512.95 388.5 512.9 388.6 513.1 378.1 518.3 361 490.45
M 384.5 492.7
L 380.3 484.45 390.55 490.45 390.55 489.85 394.15 492 399.7 503 399.95 502.9 402.3 506.25 394.5 510.1
Q 388.3 499.75 386.4 496.3 384.9 493.5 384.5 492.7
M 390.8 513.05
Q 390.5 513 390.2 513
L 391.5 512.35 390.8 513.05
M 388.9 513.65
L 389.35 514.5 389.25 514.6 389.65 523.2 379.7 527.2
Q 377.25 523.1 375.6 520.6
L 361.75 500.05 360.85 491.7 377.8 519.2 388.9 513.65
M 391.05 515.2
L 391.85 514.25 425.05 517.4 425.15 524.6 396.05 523.15 396.05 522.5 391.6 522.25 391.05 515.2
M 399.45 513.5
Q 395.55 513.3 392.8 513.15
L 394.9 510.75 394.85 510.65 402.75 506.7 427.45 515.65 399.45 513.5
M 395.85 543.1
L 396.05 523.9 423.4 526.25 422.65 528.1
Q 422 529.85 421.75 530.5
L 419 530.35 418.8 535.25 415.8 535.15 413.6 543.75 413.55 543.85 413.55 545.65 394.9 545.05 394.8 545.1 385.95 548.55 395.85 543.1
M 356.1 569
L 357 568.95
Q 358.85 568.85 360.4 569.6 361.9 570.2 363.35 571.65 365.55 573.75 367.5 577.8 368.5 580.1 368.9 581.3 369.65 583.2 370 584.9
L 370.25 585.75 391.1 578.8 391.55 578.85 393.6 582.3 393.95 712.1 377.6 709.65 377.85 619.35 369.5 621.2
Q 369.3 617.9 368.8 614.1 368.1 609.7 367.15 606.5 366.45 604.3 365.7 602.8 364.65 600.75 363.3 599.55 361.5 597.9 359.3 598.15 358.45 598.2 357.3 598.6 356 599.2 355.45 599.55 352.35 601.45 350 605.25 348.1 608.35 346.75 612.4 344.5 619.5 344.4 627.25
L 336.5 628.95 336.5 629.45 336.05 633.9 336.05 634 338.2 641.7 339.05 705.9 326.05 704.7 324.1 604.75 324.05 604.65 323.6 602.45 338 598.75 338.05 598.5
Q 338.3 595 339.3 590.95 340.35 586.7 341.55 583.65 342.65 581.1 343.15 580.2 344.15 578.25 345.1 576.95 346.05 575.55 347.45 574.05 348.75 572.7 350.3 571.6 352 570.4 353.55 569.8
L 354.35 569.45 356.1 569
M 470.35 598.9
Q 474.55 601.3 477.55 606.2 480 610.4 481.3 615.95 482.5 621.4 482.5 626.35
L 482.9 710.7 472.6 711.1 472.85 628.35
Q 472.9 625.25 472.25 621.4 471.5 617.6 470.05 614.7 468.15 611.1 465.35 609.35 462.45 607.6 458.45 607.85 454.5 608.1 451.65 609.9 448.75 611.65 447 615.2 445.55 618.3 445.15 622 445 624 445.05 625.55
L 446.2 712.6 471.5 711.95 471.5 712.2 487.35 711.7 485.85 713.9 486.6 743.75 454.45 745.85
Q 446.2 746.35 444.55 746.4
L 396.05 747.85 395.8 714.05 438 712.9 437.35 624.3
Q 437.1 619 438.25 613.95 439.6 608.25 442.3 604.45 445.3 600.1 450.2 598.05 454.6 596.2 460.4 596.35 466 596.45 470.35 598.9
M 458.5 608.7
Q 462.3 608.45 464.9 610.1 467.55 611.7 469.25 615.1 470.6 617.8 471.35 621.55 472.05 625.35 471.9 628.35
L 471.5 711.3 446.85 711.95 445.85 625.5
Q 445.8 624 445.95 622.1 446.35 618.35 447.75 615.6 449.4 612.25 452.1 610.6 454.85 608.85 458.5 608.7
M 364.65 603.35
Q 365.45 604.95 366 606.85 367.05 610.05 367.65 614.25 368.25 618.1 368.4 621.9
L 368.45 622.55 376.8 620.7 377.05 709.6 366.95 708.05 366.7 636.55
Q 366.6 628.95 365.7 624.45 365 620.85 363.8 618.5 363 616.85 361.9 615.8 360.5 614.5 358.7 614.35 356.9 614.2 355.3 615.05 353.9 615.85 352.8 617.25 351.2 619.3 350.1 623 348.7 628 348.45 635.1 348.4 636.45 348.5 641.15
L 350.05 706.45 340.65 705.2 339.65 641.6 339.6 641.5 337.5 633.8 337.45 634 337.45 633.75 337.5 633.8 337.8 630.1 345.75 628.35 345.75 627.8
Q 345.75 619.85 348 612.8 349.2 608.9 351.05 605.95 353.25 602.3 356.1 600.6 356.75 600.15 357.7 599.8 358.7 599.4 359.4 599.35 361.1 599.2 362.5 600.45 363.55 601.3 364.65 603.35
M 356.1 616.6
Q 357.35 615.95 358.55 616.1 360.8 616.25 362.25 619.3 363.35 621.4 363.95 624.8 364.9 629.7 364.9 636.6
L 365.25 708.4 351.65 707.1 350.2 641.1
Q 350.1 637.15 350.15 635.15 350.4 628.25 351.75 623.45 352.7 620.3 354.15 618.3 355.05 617.15 356.1 616.6
M 394.9 755.2
L 396 748.95 444.6 747
Q 447.9 746.95 454.5 746.5
L 486.65 744.8 487.1 764.6 433.95 768.3
Q 408.1 770.25 394.75 771.35
L 394.9 755.2
M 640.55 609.5
L 641.85 609.7 642.3 633.15
Q 642.35 641.15 642.5 657.05
L 642.55 705.5 647.85 705.55 630.4 706.25 629.7 601.45 640.9 601.4 640.55 609.5
M 588.05 600.45
Q 590.4 601.4 593.05 603.1 595.3 604.6 597.4 606.75 601.15 610.4 603.7 616.2 604.9 619 605.6 621.6 606.4 624.9 606.65 627.2
L 606.7 628.15 625.3 628.8 625.45 706.05 597.65 707.25 597.4 631.8 597.25 630.6
Q 596.9 628.35 596.2 626.05 594.75 621.25 592.3 617.55 589.45 613.3 585.5 611 583.45 609.85 581.1 609.15 578.75 608.55 576.4 608.45 571.6 608.3 567.1 609.8 564.9 610.6 562.85 611.9 561.05 613.05 559.15 614.85 556 618 553.9 622.6 551.9 626.75 551.15 631.5
L 551.25 708.25 525.2 709.2 524.5 625.05 544.85 624.75 544.95 623.8
Q 545.15 621.25 546.15 618.3 546.95 615.7 548.35 613 551.15 607.65 555.4 604.2 557.85 602.35 560.2 601.15 562.35 600.1 565.5 599.2 568.15 598.5 571.15 598.25
L 576.9 598.15
Q 578.15 598.15 579.75 598.4
L 582.6 598.85
Q 583.5 599 585.35 599.5 586.25 599.85 588.05 600.45
M 569.6 613.3
L 571.55 612.9 573.5 612.75 577.5 612.85
Q 579.1 613 581.35 613.6 585.45 615 588 617.75 590.7 620.65 592 624.6 593.2 627.85 593.65 632.55
L 593.1 729.9 595.1 734.45 594.85 754.85 555.75 758.15 555.7 744.15 554 739.35 553.7 739.4 554.35 634
Q 554.55 632.3 555.05 630.15 555.45 628.45 556.2 626.35 557.8 622.3 559.95 619.5 560.95 618.2 562.7 616.7 564.15 615.45 565.95 614.6 567.45 613.8 569.6 613.3
M 552.65 709.55
L 552.7 705.4 553 739.45 527.2 741.1 525.4 738.9 525.2 710.45 552.65 709.55
M 506.4 711.05
L 523.15 710.5 523.4 739.55 524.8 741.25 508.25 742.35 506.4 711.05
M 487.4 714.35
L 489.25 711.65 506 711.1 507.95 742.35 488.25 743.65 487.4 714.35
M 525.95 742.65
L 526.2 742.95 526.55 761.85 509.5 763.05 508.35 743.6 525.95 742.65
M 508.05 743.65
L 509.25 763.1 495.95 763.7 495.95 763.9 496.9 763.95 488.85 764.5 488.25 744.7 508.05 743.65
M 528.4 761.75
L 528.15 742.55 552.7 741.25 553.8 744.5 553.75 759.95 528.4 761.75
M 658.35 501.3
L 655.4 501.3 654.05 510.5 651.8 512.4 652.8 538.55 662 544.4 645.95 541.75 607.2 497.6 607.15 480.7 590.85 478.75 598.1 486.95 597.85 501.1 642.85 549.4 642.95 549.4 661.85 550.45 661.9 550.25 643.2 548.8 599.55 500.45 599.95 486.2 599.7 485.95 595.85 481.4 605.1 482.5 605.1 498.4 645 543.45 663.95 546.35 662.45 551.7 656.2 555.15 656 563.9 624.9 562.55
Q 621.95 559.55 617.85 556.5 614.05 553.65 609.9 551.25 601.55 546.4 592.35 544 588 542.85 583 542.3 579.3 541.9 573.5 541.8 563.5 541.9 554.6 543.3 544.95 544.85 536.15 547.85 531.4 549.5 527.3 551.35
L 523.55 553.1 523.1 553.25
Q 522.05 553.4 518.55 553.4 514.5 553.35 509.1 553 502.85 552.55 499.7 552.3 491.4 551.7 481.1 550.75
L 468.4 539.85 466.9 538.2 479.05 535.35 503.9 536.45 504.15 536.3 549.85 495.3 549.7 495.15 503.45 535 478.9 533.75 478.8 533.7 478.7 533.75 463.65 537.1 467.1 541 467.1 541.05 467.15 541.1 480.15 552.25 480.4 552.4 480.65 552.45 499.55 553.95
Q 504.3 554.35 509 554.55 514.35 554.8 518.55 554.8 522 554.8 523.4 554.55 523.9 554.45 524.1 554.3
L 527.8 552.5
Q 532.1 550.5 536.5 548.9 545.4 545.75 554.75 544.1 563.75 542.6 573.55 542.5 579.4 542.5 582.95 542.9 587.35 543.35 592.2 544.6 601.1 546.95 609.55 551.9 613.6 554.25 617.35 557.15 619.65 558.9 621.6 560.6 616.65 556.65 610.8 553.5 604.2 549.95 596.8 547.65 591.9 546.25 589.45 545.75 585.85 544.95 581.95 544.5
L 574.4 543.8
Q 570.55 543.65 566.8 543.95 562.75 544.25 559.25 545.05 555.55 545.8 551.85 547 545.05 549.25 538.1 553.5 535.35 555.25 531.9 557.9 528.65 560.5 526.55 562.8
L 489.75 561.05 489.65 561 489.6 561.05 486.3 561.65 389.9 551.2 389.9 550.5 366.25 560.3
Q 364.45 556.7 362.15 553.75 359.3 550.1 356.25 548.2 354.4 547 352.5 546.5 352.35703125 546.45234375 352.25 546.45
L 354.6 546.45
Q 357.65 546.45 360.65 546.3
L 360.7 546.3
Q 362.15 546.2 362.9 546.25
L 365.1 546.4 368.3 547.15
Q 368.6 547.3 369.3 547.55
L 370.25 547.95 372.1 549.1 372.95 549.75 374.4 551.35
Q 374.7 551.65 375 552.25
L 375.85 553.7 376.3 553.5
Q 379.4 552.1 380.95 551.5
L 395.2 546.35
Q 397.5 546.6 399.9 546.75
L 415.7 547.9 415.7 544 417.25 537 420.45 536.9 420.25 531.6 422.45 531.45 422.55 531.15 423.7 526.3 426.9 526.55 427 518.2 435.3 516.55 443.2 516.4 462.05 532.6 462.2 532.75 477.15 528.4 477 528.45 479.7 528.5 479.7 529.15 483.6 528.55 502.2 528.8 546.2 489.8 546.4 489.65 546.75 474.65 564.25 476.1 566 518.05 582.5 518.05 583.8 476.7 595.65 477.6 595.55 476.3 658.15 484.3 658.35 501.3
M 231.3 515.9
Q 230.65 511.75 228 509.9 225.3 508.05 221.25 508.7 217.75 509.15 215.25 511.9 213.25 514.15 212.1 517.85 211.65 519.25 211.3 521.1
L 211.1 522.75 211.15 556.7 195.45 564 197.6 561.95 197.6 561.8
Q 197.85 547.7 197.8 537.65
L 197.45 525.6
Q 197.35 522 198.2 519.75 198.75 518.2 199.75 517.3 200.85 516.2 202.35 516.1
L 202.5 516.1 202.5 516 202.6 514.95 202.55 514.4
Q 202.55 514.05 202.3 513.85
L 201.4 513.35 200.6 512.75
Q 199.75 511.95 199.35 511.2 198.85 510.3 198.75 509.3
L 198.7 509.3 211.1 504.75
Q 218.7 502.35 226.6 501 235.65 499.55 242.45 498.9 244 498.75 250.45 498.25
L 274.5 497.05 290.55 497
Q 298.55 497.15 298.6 497.15
L 306.65 497.6
Q 313.4 498 314.65 498.1
L 330.65 499.7
Q 335.2 500.25 337.95 500.75
L 337.85 504.7 324.3 549.75 311.7 554.45 319.05 556.65 321.6 562.7 323.45 562.7 323.45 576.55 313.15 584.85 317 589.75 318.2 600.5 318.65 600.7 321.7 602.35 322.1 604.3 209.4 598.9 191.8 609.2 185.95 609.15 186 613.2 180 602.05 175.75 612.85 174.9 611.8 179.15 596.15 184.95 606.55 204.75 593.3 204.75 593.25 204.8 593.2 208.95 589.6 246.55 587.2 290.7 577.3 207.5 574.9 195.45 570.1 195.3 570 195.3 570.05 195.25 570 195 570.5 195.05 570.55 195.2 570.6 205.75 576.6 206.15 581.4 206.15 581.55 206.25 581.55 208.2 581.95 208.55 586.9 208.75 586.9 208.5 581.7 208.4 581.7 206.45 581.3 206.1 576.45 206.1 576.35 206 576.3 199.15 572.25 207.3 575.7 207.35 575.7 207.4 575.75 278.35 578.5 246.15 585.55 246.3 585.55 208.5 587.85 208.2 587.85 205.25 590.5 205.05 584.15 205.95 580.75 184.6 580.7 174.05 568.65 167.6 595.2 165.9 593.4 172.05 567 201.3 567.95 201.5 567.8 207.95 564.35 208.7 564.2 208.7 567.45 227.85 566.3 227.85 565 231.75 565 231.75 560.45 247.1 559.45 247.15 563.8 250.95 563.8 250.95 563.45 271.3 563.6 271.15 561.3 271.35 561.3 271.35 563.1 273.95 563.1 273.95 561.55 275.1 561.55 275.1 563.55 278.9 563.55 278.9 557.95 299.35 558.05 299.5 565 302.45 564.3 302.6 564.1 303.1 563.2 303.35 564 306.4 564.45 306.65 557.4 308.95 558 308.75 523.75
Q 308.75 521.65 309.2 520.25 309.75 518.5 311.05 517.4 312.2 516.45 314.25 516 316.1 515.7 317.8 515.9 319.75 516.15 321 517.2 322.3 518.15 323.2 519.9 324.05 521.65 324.25 523.3
L 324.85 544.6 325.6 542.25
Q 328.5 532.5 329 530.55 330.1 526.65 330.5 524.6
L 330.75 523.05
Q 330.8 522.3 330.75 521.5 330.65 519.8 330.4 518.4 329.65 515.1 327.8 512.8 325.85 510.35 322.75 509.15 320.45 508.2 316.75 507.9 313.45 507.65 310.55 508.45 307.4 509.3 305.15 511.4 302.85 513.5 301.6 516.45 301 518 300.7 519.4
L 300.4 520.95 300.35 552.65 279.15 553.1 279.15 518.25
Q 278.9 514.05 277 511.2 275 508.05 271.1 506.7 267.9 505.6 263.9 505.7 259.8 505.8 256.7 507.2 253.15 508.85 251.15 512.1 249.25 515.2 248.95 519.15 248.9 519.8 248.9 522.7
L 248.85 553.5 231.8 554.25 231.55 519.25
Q 231.55 517.3 231.3 515.9
M 83.95 579.75
L 86.45 579.4 86.45 579.3 98.35 580.35 98.25 589.8 98.65 589.95 96.45 589.6 91.55 586.6 91.3 586.75 83.95 590.3 100.1 591.65 100.85 602.05 100.9 602.35 103.75 603.5 102.9 607 95 601.75 94.8 601.65 85.3 608.3 87.1 608.45 87.1 612.2 90.55 612.15 90.55 612.5 98.8 612.4 98.85 610.9 99.1 610.95 99.05 612.45 101.25 612.5 101.15 612.75 101.4 626.05 85.1 625.9 85.05 603.05 81.05 602.55 80.95 603.3
Q 80.9 604.1 80.65 605.65
L 79.75 611.95 79.6 611.95 80.75 590.05 83.85 589.45 83.95 579.75
M 125.75 641.6
L 124.5 641.45 160.1 642.45 160.15 700.2 160.05 700.2 159.5 700.15 134.6 699.9 134.6 662.3 143.1 662.45 143.15 656.45 139.55 655.95 139.2 653
Q 139.15 651.8 138.7 650.3 138.35 649.1 137.5 647.8 137.45 647.65 136.7 646.65 136.55 646.45 135.7 645.6 134.35 644.45 133.45 644 133 643.7 131 642.8 129.25 642.2 128.4 642.05 126.6 641.65 125.75 641.6
M 34.7 654.9
Q 36.3 653 38.45 651.8 40.95 650.5 43.05 650.25
L 44.25 650 48 649.95
Q 50.25 650.1 52.65 651.25 54.6 652.2 56.45 654.3 56.9 654.85 57.35 655.45 56.45 654.35 55.3 653.5 53.25 651.9 50.65 651.3 48.35 650.75 45.6 650.9
L 42.45 651.3 40.6 651.9
Q 38.2 652.9 36.35 654.8 34.65 656.65 33.7 659.2 32.75 661.7 32.7 664.2
L 32.5 698.65 31.65 698.65 31.75 661.55
Q 32 660.3 32.35 659.2 33.25 656.6 34.7 654.9
M 208.25 724.15
L 207.6 726.2 174 717.9 208.25 724.15
M 240.6 722.6
L 240.55 722.55 240.45 705 273.2 705.15 273.35 713.9 298.15 713.8 298.15 706.95 321.5 706.7 321.75 722.9 240.6 722.6
M 146.2 664.25
L 146.15 665.05
Q 145.85 670.35 145.8 673.05
L 145.75 697.1 145.95 697.1 146.4 692.55 146.4 698.15 157 698 157.1 686.45
Q 157.25 675.75 157.25 675.7
L 157.95 665.45 157.9 665.4 157.95 665.35 157.95 665.3 158 665.2
Q 158.1 665.1 158 664.9
L 157.9 664.75 157.85 664.7 157.65 664.6 157.55 664.6 157.35 664.55 146.2 664.25
M 151.85 665.95
L 148.25 665.8 157.2 665.35 155.2 696.2 148.45 696.1 148.15 666.85 156.1 666.4 156.1 666.2
Q 153.15 666 151.85 665.95
M 100.15 661.9
L 87.55 661.7 87.7 679.3 88.35 696 88.55 696 88.8 690.55 88.9 696.8 99.95 696.55 99.95 696
Q 99.8 687.75 99.8 687.65 99.7 682.1 99.75 679.3
L 100.15 661.9
M 98.8 663.3
L 98.8 663.5 98.05 663.5
Q 96.3 663.45 93.45 663.45 93.7 663.4 93.95 663.4
L 98.8 663.3
M 90.7 665.5
L 97.1 665.4
Q 97.2 670.15 97.4 678.9
L 97.95 693.4 98.15 693.4 98.7 678.9
Q 98.85 672.55 98.95 668.3
L 99.1 679.3
Q 99.15 682.1 99.05 687.65 99.05 687.75 98.9 695.5
L 90.5 695.3 90.7 665.5 Z"/>
</g>
</defs>

<g transform="matrix( 1, 0, 0, 1, 0,0) ">
<use xlink:href="#Layer0_0_FILL"/>
</g>
</svg>
